<svg xmlns="http://www.w3.org/2000/svg" viewBox="0 0 488.42 480.21"><g id="Layer_2" data-name="Layer 2"><g id="Layer_1-2" data-name="Layer 1"><circle cx="244.78" cy="240.67" r="168.93" style="fill:#10fcf5"/><path d="M252.45,253.23c-60.28,55.15-125.08,62.49-159.88,61.66a169.33,169.33,0,0,0,35,47.85c23.62-4.83,70.62-17.29,106.05-44.76,83.06-64.38,121.06-157.61,133.27-193.56a169.51,169.51,0,0,0-36.23-29C327.48,126.09,313.47,197.4,252.45,253.23Z" style="fill:#fff200"/><path d="M235.32,236.35c50.16-54.55,72.89-123.28,80.06-149q-6.5-3-13.27-5.49c-1.09,23.28-10.49,85.43-77.18,128.48-62.22,40.17-122.17,46.32-148.68,46.85a168.43,168.43,0,0,0,5.82,30.48C113.89,284.8,201,273.65,235.32,236.35Z" style="fill:#fff200"/><path d="M251.88,329.18c-41.22,33.28-83.15,43.25-109.79,45.94a169.88,169.88,0,0,0,18.77,12.43c34.54-3.75,90.32-15.09,127.32-55.23C363,251.11,382.9,181.59,389.63,154.4a168.69,168.69,0,0,0-12.42-18.08C363.55,175.52,324.67,270.42,251.88,329.18Z" style="fill:#fff200"/><path d="M309.88,353.69c-53.55,29.79-95.5,41.55-122.36,46.11A169,169,0,0,0,409,202.51C388.16,248.56,345.93,333.64,309.88,353.69Z" style="fill:#fff200"/><path d="M177.93,140.41C150,157.46,109.56,170.05,88.27,176A167.78,167.78,0,0,0,77,217.91c21.23,2.24,68.27,2.54,118.33-27.75C268,146.21,275.8,93,276.22,74.75a169.58,169.58,0,0,0-33.1-3c-5.1,0-10.15.32-15.13.8C222.44,88.33,207.6,122.31,177.93,140.41Z" style="fill:#fff200"/><path d="M158.67,141.69c34.34-20.64,50.72-50.9,57.55-67.6A169.11,169.11,0,0,0,93.47,164.65C105.92,164.21,128,160.1,158.67,141.69Z" style="fill:#fff200"/><path d="M189.21,214.6A168.78,168.78,0,0,1,267.15,72.24a168.94,168.94,0,1,0-23.51,336.23,168.12,168.12,0,0,0,91-26.57A169,169,0,0,1,189.21,214.6Z" style="fill:#97fc68;opacity:0.5"/><path d="M336.63,157.55c-2.55,20.5-27.28,34.31-55.24,30.83s-48.56-22.91-46-43.41,27.28-34.31,55.24-30.84S339.18,137.05,336.63,157.55Z" style="fill:#fff;opacity:0.4"/><path d="M353.61,213.3c-9.51,13.32-33,12.84-52.52-1.08s-27.59-36-18.08-49.32,33-12.83,52.52,1.08S363.12,200,353.61,213.3Z" style="fill:#fff;opacity:0.4"/><circle cx="240.4" cy="245.18" r="232.99" transform="translate(-102.95 241.8) rotate(-45)" style="fill:#9ce8e6;opacity:0.1"/><g style="opacity:0.2"><path d="M244.21,480.21c-65.25,0-126.59-25-172.73-70.37S0,304.22,0,240.11,25.39,115.71,71.48,70.37,179,0,244.21,0s126.6,25,172.73,70.37S488.42,176,488.42,240.11,463,364.5,416.94,409.84,309.46,480.21,244.21,480.21Zm0-457.32c-121.69,0-220.7,97.44-220.7,217.22s99,217.22,220.7,217.22,220.7-97.45,220.7-217.22S365.91,22.89,244.21,22.89Z" style="fill:#9ce8e6"/></g></g></g></svg>