<svg xmlns="http://www.w3.org/2000/svg" viewBox="0 0 563.03 337.97"><g id="Layer_2" data-name="Layer 2"><g id="Layer_1-2" data-name="Layer 1"><circle cx="196.09" cy="169.03" r="168.93" transform="translate(-23.12 31.3) rotate(-8.62)" style="fill:#eb53c0"/><path d="M90.94,97.08C70.52,117.5,66,136.38,69,151.5s24.34,26,55.93,18.13c36.27-9.07,70.29-52.9,56.68-72.55S116.63,71.38,90.94,97.08Z" style="fill:#a812cc"/><path d="M86.4,112.19c25.7-25.69,77.09-19.64,90.7,0a18.68,18.68,0,0,1,3,11.5c4.49-9.86,5.32-19.23.73-25.85-13.6-19.66-65-25.7-90.69,0C75.46,112.56,69,126.48,67.68,138.77,71.18,130.37,77.16,121.44,86.4,112.19Z" style="fill:#7d0d98"/><path d="M303.31,198.35c-16.5-10.67-66.51-1.51-79.36,18.9s-15.11,40.05,3.78,51.39,39.3.76,55.93-13.6S329,215,303.31,198.35Z" style="fill:#a812cc"/><path d="M233.78,230.1c12.85-20.41,62.86-29.57,79.36-18.9l.13.09c-.9-4.63-3.93-9-10-12.94-16.5-10.67-66.51-1.51-79.36,18.9-12.2,19.38-14.84,38.07,1.1,49.61C221.55,256.31,225.43,243.36,233.78,230.1Z" style="fill:#7d0d98"/><path d="M260.23,57.78c-13.55,5.42-24.18,26.45-9.07,47.61s41.57,34,54.42,27.21,25.7-38.54,7.56-56.68S279.13,50.22,260.23,57.78Z" style="fill:#a812cc"/><path d="M313.14,75.16C295,57,279.13,49.47,260.23,57a25.72,25.72,0,0,0-11.81,10.19c18.44-6.87,34.06.73,51.87,18.53,13.57,13.58,9.79,34.77,1.64,47.43a15,15,0,0,0,3.65-1.32C318.43,125,331.28,93.3,313.14,75.16Z" style="fill:#7d0d98"/><path d="M157.59,269.59c-12.92-6.66-42.45-11.63-62-.83-8.81,4.87-15.24,12.72-18,20.65a168.4,168.4,0,0,0,99.29,47.27c2.34-3.19,4.78-7.19,7.75-12.2C192,312,170.51,276.26,157.59,269.59Z" style="fill:#a812cc"/><path d="M157.65,269.4c-12.92-6.66-42.45-11.64-62-.84-8.81,4.87-15.25,12.72-18,20.65.88.86,1.76,1.7,2.65,2.54a41.12,41.12,0,0,1,10.23-8c19.53-10.79,49.07-5.82,62,.84,10.53,5.43,26.79,30.19,28.42,45.92,1.17-1.88,2.4-3.93,3.75-6.21C192.1,311.79,170.57,276.06,157.65,269.4Z" style="fill:#7d0d98"/><path d="M315.68,289.77A169,169,0,0,0,113.91,22.16c3.67,5.22,9.61,9.92,18.31,13.61C164.6,49.5,203.15,48.4,235.75,61.34c68.36,27.14,117.83,88.92,74.69,160.92-17.49,29.17-50.16,53.58-83.57,57.94-38.49,5-60.08-24.53-79.69-53-19.51-28.31-37.51-85.83-74-97.8-9.67-3.17-36.29-4.69-43,17.47a168.94,168.94,0,0,0,285.55,142.9Z" style="fill:#9ce8e6;opacity:0.2"/><path d="M452.2,53.24c0,29.22-23,52.91-51.39,52.91s-51.4-23.69-51.4-52.91,23-52.9,51.4-52.9S452.2,24,452.2,53.24Z" style="fill:#10fcf5"/><path d="M400.94.34A50,50,0,0,0,373.3,8.66c24.27,4.22,42.76,26,42.76,52.14a53.23,53.23,0,0,1-23.75,44.59,50.18,50.18,0,0,0,8.63.76c28.39,0,51.4-23.69,51.4-52.91S429.33.34,400.94.34Z" style="fill:#204e84;opacity:0.5"/><path d="M40.38,235.57S-20.85,292.48,7.49,314c17,12.93,76,30.61,240.32-45.34C458.13,171.5,547.09,71.43,561.83,34s-110.26-3.24-110.26-3.24l-.82,3S557,9.57,549.36,28.35C522.15,95.24,374.78,195,293.16,232.4S94.78,316.29,48.3,312.89c-45.24-3.31-30.75-33.76-22.67-47.61,7.93-13.61,15.92-27.15,15.92-27.15Z" style="fill:#10fcf5"/></g></g></svg>