<svg xmlns="http://www.w3.org/2000/svg" viewBox="0 0 489.73 486.77"><g id="Layer_2" data-name="Layer 2"><g id="Layer_1-2" data-name="Layer 1"><circle cx="304.61" cy="264.77" r="168.93" transform="translate(-98 292.94) rotate(-45)" style="fill:#51b769"/><path d="M279.77,97.79a169,169,0,0,1,92.68,322.08c-2-6.07-2.16-13.65.12-22.82,8.48-34.13,32.52-64.28,41.76-98.12,19.38-71-.27-147.61-83.75-156.39-33.83-3.55-73,7.9-96.53,32-27.14,27.74-16.49,62.76-5.52,95.54,10.91,32.61,46.08,81.56,33.71,117.92-3.28,9.64-18.05,31.83-39.82,23.91A168.93,168.93,0,0,1,279.77,97.79Z" style="fill:#9ce8e6;opacity:0.30000000000000004"/><path d="M374.55,154.8c38.6,10.83,60.83,47.61,66.92,62.71,14.37,35.63,14.81,70.21-3.43,103.3-17.07,31-44.53,52.06-82.27,66.93-37,14.61-67.86,11.67-93.33-14.72-51.52-53.38,93.89-77.46,98.19-127.42,4.14-48.12-30.45-38.57-32.17-62.4C326.77,159.81,356.39,149.7,374.55,154.8Z" style="fill:#97fc68;opacity:0.6000000000000001"/><path d="M230.09,166.85c33.82-10.84,56.5,22.82,63.29,51.67,3.48,14.78,3.21,33.44-12.66,41.25-16.44,8.09-17.9-6.42-30.6-10.29-24.12-7.33-19.26,19.09-25.35,32.69l-3,14.49c1.61,15.85-19,16.61-28.84,11.78-12.06-5.93-19.08-21.57-23.13-33.73-8.77-26.32-.5-43.95,16.2-63.46C199.06,196,210.05,173.27,230.09,166.85Z" style="fill:#97fc68;opacity:0.5"/><path d="M373.52,158.19c3.12-7.7,6.35-12.69,15.83-11.84,6.09.54,11,3.35,16.24,6.16l.74.42,11.35,9.73c8.22,12.53,12,30.63,11.85,45.58-.34,27.39-14.28,53.55-38.67,66.48-20.61,10.94-48.54,13.55-70.83,5.72-22.46-7.9-42.18-38.14-31.3-61.62,9-19.4,37.36-27.12,55.68-33.49C359,180.26,367.8,172.31,373.52,158.19Z" style="fill:#fff;opacity:0.30000000000000004"/><g style="opacity:0.4"><path d="M51.82,2.43C68.87,3.51,79.82,15.21,95,21.32c12.62,5.08,23.82,9.17,35.3,16.8,8.41,5.59,16.63,6.74,25.66,10.45a179.47,179.47,0,0,1,18.23,9.16c8.36,4.62,14.11,10.24,20.86,16.45,5.4,5,16.19,10.14,19,17,1.78,4.3,9.76,18.46,7.88,22.41-2.36,4.94-15.52-4.75-20.57-2-7.73,4.16-14.6,2-22.05-1.94a69.91,69.91,0,0,0-29.66-8.54c-8.73-.48-16.23-1.42-23.35,4.27-6.31,5-10.07,9.22-8.55,18,2.16,12.35,8.91,17.34,18.65,23.53C145,152.3,150.5,161,157.11,168.53c16.14,18.44,36.16,33.63,53.58,50.85,17.7,17.5,33.18,37.21,51.1,54.49,19.5,18.81,39.5,37,58.63,56.26,15,15.13,31.27,29.9,48.92,41.76,13.86,9.31,25.28,21.06,38.19,31.72,9.72,8,20.71,14.15,31.27,21,5.86,3.82,14.61,13.44,21.55,14.06,11.37,1,11.57-15.26,10.82-22.64-1.69-16.66-16.64-43.56-26.63-56.64l4.79-6.4c10.53,6.15,20.49,21.79,24.29,28.9,6.09,11.39,7.54,23.57,11.28,35.85,4.59,15.12,6.25,31.58,3.47,47.28-1.55,8.81-8.24,21.12-18.31,21.7-9.57.54-17-9.71-22.53-16C439,461.16,429.86,453.14,418,448c-22.06-9.54-47.58-10.69-68.33-23.25-30.24-18.31-54.93-45.73-80.5-69.68-14.89-13.94-32.93-24.27-48.71-37.19-21.47-17.57-42-36.31-59.42-58-6.27-7.81-12.15-15.84-19-23.17-9.17-9.86-20.29-16.22-30-25.24C95.73,196.29,86.87,175,75.78,156.15c-17.12-29.11-42.62-51.52-53.94-84-1.81-5.19-4-11.1-7.62-15.36S5.9,49.13,3.4,43.89c-3.47-7.27-5.1-26.8-.9-33.8C12-5.7,37.59,1.53,51.82,2.43Z" style="fill:#0bd6d6"/></g><path d="M129.21,77.16c6.64,1.66,12.79,4.09,19.51,5.93,7.62,2.08,15,1.2,22.58,2.76,9.71,2,33.85,22.47,12.76,18.64-14.37-2.61-21.93-15.24-36.14-19.52-13.07-3.94-30.49-7.58-41.49,1.51-15.08,12.46-11.88,30.34-.83,44.12,12.3,15.35,25.34,30.47,38.09,45.72,24.58,29.4,51.51,57,77.56,85.42,12.56,13.71,27,24.84,39.8,38.26,12.93,13.58,28,20.39,42.89,31.29,27.81,20.41,47.66,49.27,77.17,68,14.73,9.35,29.89,18.52,45,27.27,10.55,6.11,24.91,14.47,30.77,25.86l7.7,7.6c2,2.69,2.45,7.33-1.16,8.24-2.48.62-7-4.14-8.57-5.47a104.33,104.33,0,0,1-16.57-18.05c-5.74-7.88-8.09-13.45-17.83-16.53-9.31-3-18.46-5.16-26.82-10.22-21.8-13.21-39.47-33.42-57.49-51.76-11.23-11.42-27.21-13.12-40.23-23.07a497,497,0,0,1-39.67-33.93c-26.23-24.85-52.54-46.74-74-77-25.56-36-65.45-59-88.09-97C85.59,120.91,79.41,97.59,92.31,84,101.67,74.06,117.15,74.14,129.21,77.16Z" style="fill:#10fcf5"/><path d="M229.05,303.63c-8.64-1.73-13.36-13.29-18.33-19.66-5.79-7.42-13.06-13.46-19.07-20.84-12.69-15.58-25.52-31.63-42.32-42.79C136.79,212,123.58,204,114.22,192.09c-12.74-16.15-22.5-34.46-33.14-52-9.61-15.79-16.9-32.71-27-48-7.87-11.93-17.16-22-24.52-34.54-6.4-10.87-9.22-34.7,8.59-34.57,20.68.15,38,17.51,57.63,21.12,9.85,1.8,20.16,3,29.32,7.75,3.16,1.62,13.28,8.14,14.09,11.45,2.3,9.37-27.36-1.75-32.79-3.06-13.69-3.33-30-11.59-44.39-8.41-17,3.76-2.63,21.57,1.18,30.65a302.44,302.44,0,0,0,18.15,36c3.49,5.94,7.9,11.27,10.53,17.51,2.47,5.83,3.87,12.11,7.25,17.85,7.68,13,15.26,26.34,23.63,38.76,8,11.87,18.83,18.34,29.82,26.5,9.23,6.85,14.49,15.13,22,23.53,7.13,8,15.37,14.76,22.42,23.21a221.77,221.77,0,0,0,23.21,24.59c6.42,5.67,20.08,13.64,18.33,23.14-1.94-1.79-4.09-2.13-5.55-2.6Z" style="fill:#10fcf5;opacity:0.5"/><path d="M472.74,462.81l-1.46-.85c-10.1-5.15,1.91-11.56,4-17.74,1.86-5.62-.6-14,4-18.1C482.34,432,483.29,465.78,472.74,462.81Z" style="fill:#10fcf5"/><path d="M27.75,21.7l.42.63c4.36,5,10.74,20.82-.5,13C20.3,30.18,18.72,12.2,27.75,21.7Z" style="fill:#fff"/><path d="M189.23,93.33l.63.41c6,2.84,18.15,14.81,4.72,12.11C185.78,104.08,177.16,88.21,189.23,93.33Z" style="fill:#fff"/><path d="M56,36l.66.36C62.86,38.67,76,49.56,62.39,48,53.47,47,43.52,32,56,36Z" style="fill:#fff"/><path d="M132.52,71.24l.39.21c3.87,1,11.05,8.72,2,9.62C128.93,81.66,124.65,69.66,132.52,71.24Z" style="fill:#fff"/><path d="M142.18,214.06l.39.21c3.87,1,11.05,8.72,2,9.63C138.59,224.49,134.31,212.48,142.18,214.06Z" style="fill:#fff"/><path d="M134.57,163.91l.4.21c3.87,1,11,8.72,2,9.62C131,174.33,126.71,162.33,134.57,163.91Z" style="fill:#fff"/><path d="M130.7,148.37l.4.21c3.87,1,11,8.72,2,9.62C127.12,158.79,122.84,146.79,130.7,148.37Z" style="fill:#fff"/><path d="M274.1,349l.4.21c3.87,1.05,11,8.72,2,9.62C270.52,359.39,266.24,347.38,274.1,349Z" style="fill:#fff"/><path d="M254,314.23l.4.21c3.87,1.05,11,8.72,2,9.62C250.44,324.65,246.16,312.65,254,314.23Z" style="fill:#fff"/><path d="M335.06,355.06l.4.21c3.86,1.05,11,8.72,2,9.62C331.47,365.49,327.2,353.48,335.06,355.06Z" style="fill:#fff"/><path d="M350.15,413.86l.39.21c3.87,1.06,11,8.72,2,9.63C346.56,424.29,342.28,412.28,350.15,413.86Z" style="fill:#fff"/><path d="M281.33,335.18l.4.21c3.87,1.05,11,8.72,2,9.62C277.74,345.6,273.47,333.6,281.33,335.18Z" style="fill:#fff"/><path d="M211.55,245.37l.39.22c3.87,1,11.05,8.72,2,9.62C208,255.8,203.68,243.79,211.55,245.37Z" style="fill:#fff"/><path d="M43.9,6.45l.39.22c3.87,1,11.05,8.72,2,9.62C40.31,16.88,36,4.87,43.9,6.45Z" style="fill:#fff"/><path d="M411.45,419.4l.39.21c3.87,1.05,11.05,8.72,2,9.62C407.86,429.82,403.58,417.82,411.45,419.4Z" style="fill:#fff"/><path d="M396.76,422.29l.14.42c2.12,3.41,2.15,13.91-5.11,8.39C387,427.48,392.08,415.77,396.76,422.29Z" style="fill:#fff"/><path d="M474.42,466.24l.15.42c2.11,3.41,2.14,13.91-5.12,8.39C464.69,471.43,469.74,459.72,474.42,466.24Z" style="fill:#fff"/><path d="M484.83,447.66l.14.42c2.12,3.41,2.15,13.91-5.11,8.39C475.1,452.85,480.14,441.14,484.83,447.66Z" style="fill:#fff"/><path d="M213.86,261.59l.4.22c3.87,1.05,11,8.72,2,9.62C210.28,272,206,260,213.86,261.59Z" style="fill:#fff"/></g></g></svg>