<svg xmlns="http://www.w3.org/2000/svg" viewBox="0 0 462.66 459"><g id="Layer_2" data-name="Layer 2"><g id="Layer_1-2" data-name="Layer 1"><g style="opacity:0.1"><path d="M175.78,5.05A14.84,14.84,0,0,1,177,3.89l1.2-3C177.35,1.81,176.8,3.93,175.78,5.05Z" style="fill:#9ce8e6"/><path d="M438.66,261.36c-5.91-18.74,1.18-32.26,6-50.38,5.48-20.56.75-39.8-9.1-58.29C429,140.32,411,130.76,406.3,118.55c-4.4-11.35,5.85-24.59,2.37-36.9-4.57-16.21-20.94-28.2-36.29-32.87-11.73-3.57-24.18-.82-35.46-4-9.77-2.7-11.92-10-18.08-16.77-13-14.3-39.14-27.57-59-24.94-18,2.38-26,13.17-44.18,4.84C205.29,3.22,187.3-4.86,177,3.89l-3.33,8.33c-7.89,7.61-9.91,11.5-21.54,11.08-10.68-.39-21.66-2.8-32.87-2C103.14,22.42,87.75,30,76.41,41.75,67.18,51.3,68.7,59.44,66.05,71.16c-6.86,30.38-39.51,45.7-55.58,70C2.31,153.5-3.77,169,2.76,183.42c4.83,10.65,15.62,17.1,19.86,28.25,14.73,38.67-33,74.63-19.26,114.3,11.17,32.22,55.45,25,71.38,53.51,11.79,21.08,21,39.94,45.67,47.7,24.17,7.59,47.8,8.95,72.6,6.49,16.09-1.6,36-5.17,52.09-1.22,22.74,5.57,35.26,29.55,61.14,26.24,41.3-5.29,68.87-42.46,91-73,17.39-24,58-26.56,64.66-59.48C466.88,301.77,445.49,283,438.66,261.36Z" style="fill:#9ce8e6"/></g><circle cx="228.09" cy="230.25" r="187.05" transform="translate(-96 228.72) rotate(-45)" style="fill:#9ce8e6;opacity:0.30000000000000004"/><circle cx="228.63" cy="227.85" r="168.93" style="fill:#0b8980"/><path d="M351.94,115.06C339.82,100,321.34,91.67,304,84.52c-35.65-14.75-73-12.34-110-5.36-33.05,6.24-67.33,15.51-91,42.7-23,26.47-30.17,58.69-14.17,91,10.6,21.39,23.65,30.3,47.36,32.93,19.24,2.14,46.65-2.31,63.48-12.22,44.81-26.38,39.27-99.05-14.28-107.1-17.41-2.62-41.65,11.52-35.88,32,6.68,23.7,42.65,1.3,24.83-5.93-4.47-1.81-6.86,4.5-6.66,4.55-14.44-3.41,5.91-28.91,19.77-6.8,9,14.28,11.36,32.1-1.66,45.31-29.49,29.91-82.65-5.94-76.8-43.93,6-38.84,83.33-53.15,113.35-56.68,96.36-11.34,105.29,60.38,114.5,82.75,10.88,26.41,2.17,53.76-19.28,77.12-24.59,26.79-71.26,56.35-106.55,53.25-103.16-9.07-134.94-50.43-144-45.35-5.16,2.91.76,17.6,4.24,27.06,11.78,32,39.08,49.62,68.34,61.08,52.08,20.41,117.49,18.63,165.48-14.45,34.76-24,69.87-64,81.37-106.56C401.54,174.32,358.11,122.74,351.94,115.06Z" style="fill:#0cc1bc"/><path d="M298.41,175.46c-6.43-22.48-18.54-44.66-38.3-58.1-17.4-11.84-53.77-15.33-71.09-2.59-10.5,8,29.82-10,65.12,16.7,8.73,6.61,12.13,18,15,28.12,6.18,21.42,9.59,32.91-1.13,54.41-18.55,37.21-49.83,44.43-87.57,47.61-34.33,2.9-69.93-1.79-94.4-28-3.08-3.3-9.49-15.81-15.5-15.1-11.73,1.38,2.23,16,5.89,20.17,13,14.81,25.84,24,45.06,27.55,42,7.83,76.6,27.13,119,8.76,23.36-10.11,40.55-23.64,54.13-45.12C305.32,213,303.7,194,298.41,175.46Z" style="fill:#0cc1bc"/><path d="M228.86,395.79A169,169,0,0,0,271.55,63.37c-1,6.3-.06,13.82,3.58,22.53,13.57,32.45,41.92,58.6,56.19,90.64,29.93,67.19,22.15,146-59,167.3-32.9,8.65-73.32,3.27-100.27-16.95-31-23.3-25.83-59.54-20-93.6,5.83-33.89,33.15-87.61,15.4-121.68-4.7-9-22.67-28.71-43-17.58A168.94,168.94,0,0,0,228.86,395.79Z" style="fill:#fff200;opacity:0.2"/><path d="M235.1,137.7c-.93.65-14.31-9.38-14.31-9.38-33.94-20.3-80,2-102.38,29.57-28.91,35.49-7.14,96,43.55,88.22,32.78-5.05,51.62-22.2,71.77-46.37C252,177.87,247.56,160.25,235.1,137.7Z" style="fill:#9ce8e6;opacity:0.2"/></g></g></svg>