<svg xmlns="http://www.w3.org/2000/svg" viewBox="0 0 439.13 339.47"><g id="Layer_2" data-name="Layer 2"><g id="Layer_1-2" data-name="Layer 1"><path d="M414.69,54.89l-10.07-5.55s-18.52-2.77-42.33,4-47.36,18.14-47.36,18.14l30,42.62,29.47,17,40.81-60.08Z" style="fill:#7d0d98"/><path d="M85.34,141.34s-35.94,22.88-55.09,41c-14.63,13.86-26.7,38.8-26.7,38.8l58,27.87L108,221.83Z" style="fill:#7d0d98"/><circle cx="226.49" cy="170.54" r="168.93" style="fill:#ed6326"/><path d="M251,295.26c-5.85-26.35-14.78-40.13-34.64-58.45-15.1-13.92-27.76-19-27.71-41,0-13.88,5.45-22.64,9.38-35.42,5.43-17.65-5.65-37.39-3.71-56.69,1.14-11.31,7.29-20.8,9.89-31.76,2.76-11.65.55-22.58-2.2-34.23-2.37-10-5.86-21.55-7.8-33.09a167.1,167.1,0,0,0-31.83,9.5,30.29,30.29,0,0,1,8.16,25c-1.81,12.43-12.63,23.44-17,35.11-5,13.19-8.1,26.92-6.83,41.09,1.33,14.85,6.33,29,5.69,44.28-.61,14.65-3.83,27.92,0,42.51,4.21,16,11.64,22.91,21.53,35.33,8.23,10.33,8.59,22.82,14.43,34.06,11,21.12,34.77,24.94,39.11,52.09.71,4.48.58,10.17.73,15.81a169,169,0,0,0,26-2.25C255.87,323.41,253.91,308.25,251,295.26Z" style="fill:#ef8a34"/><path d="M173.94,282.81c-8.39-16-15.4-25.68-30.35-36.05-8.13-5.63-14.66-9-20.41-17.48-10.67-15.73-10.45-34.28-10.45-53,0-20.86-6.82-39.11-5.67-60.11,1-18.74,9.51-32.2,13.85-49.88,2.37-9.63,2.78-21.26,5.36-31.82a169.77,169.77,0,0,0-42,44.83c3.06,14.54,11,27.66,8.33,43.42-3.84,22.91-18.41,41.05-9.31,64.87,4.4,11.53,10.36,19,11.58,31.49.88,8.93,1,19.1,5.67,27.21,4.3,7.48,12,11.06,17.94,17,6.71,6.79,9.52,14.39,13.55,22.9,6.93,14.62,17.64,25.74,26.26,38.82a167.24,167.24,0,0,0,33.62,10.8C190.2,317,184.14,302.23,173.94,282.81Z" style="fill:#ef8a34"/><path d="M348.81,246.28c-7.05-16.94-.56-35.82-8.54-53.38-2.37-5.24-5-11.18-9.83-14.69-4.22-3.06-8.1-1-11.39-5.3-4.93-6.5-3.41-22.65-3.41-30.66,0-24.34,3.9-48.19,14.46-70.29,2.57-5.39,6-16.31,10.72-25.85A169.53,169.53,0,0,0,311.24,24.3c1.55,26.08-9.26,52.56-18,76.83-9.7,27.07-19.95,75.17,4,98.1,7.91,7.59,16.25,10.25,19.49,21.24,2.95,10-1,19.51-1.11,29.47-.05,9.31,1.41,22.14,8.17,29.47,5.21,5.64,13.25,8.3,20.92,11.69a169.25,169.25,0,0,0,25.08-31.19C361.27,258,353.15,256.71,348.81,246.28Z" style="fill:#ef8a34"/><path d="M265.77,11.85c0-1.84,0-3.76.11-5.69A168.58,168.58,0,0,0,234,1.7c0,39.26-.44,80.53-7.94,119a260.55,260.55,0,0,0-4.53,50.81c0,17.59,1,22.85,12.21,35.64,8.26,9.4,12.76,20.3,15,32.62,2.3,12.57,3.9,13.9,11,24.13,3.83,5.5,5.22,12.27,7.28,18.78,19.55-.63-8.2-66.46-9.32-75.8-1.89-15.86-4.23-22-15.33-34.92-9.79-11.41-14.45-14.75-7.31-29.07,6.21-12.46,11.64-22.69,12.52-36.63.74-11.56-4.67-21.61-3.42-33.18C246.76,49.64,265.58,36,265.77,11.85Z" style="fill:#ef8a34"/><path d="M364.52,73.05c-1.87,3.53-3.57,6.64-4.66,9.06-11.76,26-8.68,53.4-.92,80.48,4.19,14.63,15.45,47.15,30,54.45a169.24,169.24,0,0,0-24.4-144Z" style="fill:#ef8a34"/><path d="M344,289.77A169,169,0,0,0,142.27,22.16c3.67,5.22,9.61,9.92,18.31,13.61C193,49.5,231.51,48.4,264.11,61.34c68.36,27.14,117.83,88.92,74.69,160.92-17.48,29.18-50.15,53.58-83.57,57.94-38.48,5-60.08-24.53-79.69-53-19.51-28.31-37.51-85.83-74-97.8-9.67-3.17-36.28-4.69-43,17.47A168.94,168.94,0,0,0,344,289.77Z" style="fill:#9ce8e6;opacity:0.2"/><path d="M178.7,156.21c-21.76,27.49-55.33,37.15-75,21.6s-17.91-50.45,3.86-77.93,55.33-37.16,75-21.6S200.47,128.73,178.7,156.21Z" style="fill:#fff;opacity:0.1"/><path d="M4.56,217.63S68,255.92,247.45,184.42C390.15,127.54,404.62,49.34,404.62,49.34s16.54.65,28.74,13.78C448.09,79,430,109.6,430,109.6s-38.55,77.09-154.17,128.1c-145,64-263.17,51.48-274.34,11.33C-3.12,232.62,4.56,217.63,4.56,217.63Z" style="fill:#a812cc"/><path d="M16.5,233.9,9.73,245.15s26.94,12.26,58.71,10.18c78.47-5.14,145.2-26.2,169-35.31a318.47,318.47,0,0,0,45.92-21.67l11.27-25.77s-30.88,19.56-65,31.62c-37.85,13.39-103.34,32.93-159.88,36C36.35,242,16.5,233.9,16.5,233.9Z" style="fill:#c318ed"/></g></g></svg>