<svg xmlns="http://www.w3.org/2000/svg" viewBox="0 0 481.87 337.87"><g id="Layer_2" data-name="Layer 2"><g id="Layer_1-2" data-name="Layer 1"><circle cx="211.48" cy="168.93" r="168.93" transform="translate(-57.51 199.02) rotate(-45)" style="fill:#204e84"/><path d="M164.68,92.12c-30.3,25.38-63.95,35.12-75.16,21.74s4.28-44.8,34.58-70.18,64-35.12,75.15-21.75S195,66.73,164.68,92.12Z" style="fill:#0bd6d6;opacity:0.30000000000000004"/><ellipse cx="108.4" cy="202.31" rx="45.72" ry="71.57" transform="translate(-96.53 98.95) rotate(-35.05)" style="fill:#0bd6d6;opacity:0.30000000000000004"/><path d="M285.79,212.66c27-33.62,63-49.55,80.41-35.57s9.6,52.56-17.42,86.18-63,49.55-80.41,35.58S258.77,246.28,285.79,212.66Z" style="fill:#0bd6d6;opacity:0.1"/><path d="M153.2,226.71c19.13,27.27,25.47,55.81,14.15,63.75s-36-7.73-55.13-35-25.46-55.81-14.15-63.75S134.07,199.44,153.2,226.71Z" style="fill:#0bd6d6;opacity:0.30000000000000004"/><path d="M152.18,134c-9.83,31.83-28.5,54.32-41.71,50.24s-16-33.18-6.12-65S132.86,64.87,146.07,69,162,102.13,152.18,134Z" style="fill:#0bd6d6;opacity:0.30000000000000004"/><path d="M229.13,87.81c-39.43,2.76-72.39-9.11-73.6-26.52s29.75-33.76,69.19-36.52,72.39,9.11,73.6,26.52S268.57,85.05,229.13,87.81Z" style="fill:#0bd6d6;opacity:0.30000000000000004"/><path d="M50.18,219.27s-42.48,31.5-31.9,47.27,115.38-.11,234.29-70.9C382.06,118.55,442.46,58.69,429.93,46.5c-18.65-18.14-89.69,13.6-89.69,13.6l-4-4.54s100-38.15,133.52-17.63c24.69,15.12,27.95,73.9-152.16,175.84C184.05,289.35,43.47,311,5.18,285.83-18.75,270.08,48,211.75,48,211.75Z" style="fill:#10fcf5"/><path d="M23.06,279s48.7,7.2,122.44-20c49.13-18.14,116.91-47.76,159.47-73.69C386.22,135.8,441.77,64,446.3,51.16s-19.65-16.25-19.65-16.25,41.19-3.4,33.63,18.51-31.74,62.73-141.71,133c-89.34,57.1-162.11,82-249.4,94.85C43,285.15,23.06,279,23.06,279Z" style="fill:#fff"/><path d="M216.17,253s148.13-71.42,202.92-133c36.13-40.61,42.7-57.44,45.35-65s-3.78-16.25-3.78-16.25,12.61,6.8,10.2,19.27c-4.15,21.54-37,68-97.49,109.59C305.13,214.46,216.17,253,216.17,253Z" style="fill:#fbff69"/></g></g></svg>