<svg xmlns="http://www.w3.org/2000/svg" viewBox="0 0 462.66 459"><g id="Layer_2" data-name="Layer 2"><g id="Layer_1-2" data-name="Layer 1"><path d="M417.27,305.82c-21.68-18.38-57.84-31.13-38.08-68.1,11.35-21.24,51.83-25.38,36.31-57.41-8.16-16.83-31-15.5-46.52-15.48-22,0-31.37,1.11-23-22.67,5.28-15,18.36-27.81,23-42.33,5.45-16.9-8.41-15.81-22.71-12.16-21.45,5.46-55.53,38.86-66.47,4.68-4.16-13,2.47-29.28-5-40.85S252.28,39.06,242,48.4c-8.14,7.39-7.41,30.26-16.89,34.5C209.27,90,205.49,61.91,202.33,53c-2.56-7.27-9.39-29.1-19.24-28.8C171.21,24.55,171,47.41,170.93,56c0,7.74,9.73,35.73,2.75,40.84-9.88,7.22-11.15-23.2-20.85-25.73l-4.54-4.53c-7.87-5-20.23-15.92-31.73-12.09C102.7,59.11,110.24,73.24,106,84.75c-8.43,22.9-34.77,35.47-54.46,46.49-22,12.3-24.23,34-4.53,50.63C59.29,192.23,61.8,192,59,210.21c-1.94,12.71-4.6,25.52-9.32,37.75-9.28,24-24.4,47-5.72,69.54,19.63,23.65,48.66,11.16,69.57,27.58,21.7,17-14.1,57.37,25.66,66.2,33.54,7.46,59.35-34.07,86.16-41.21,29.22-7.78,48.32,34.13,71.08,46.09,32.46,17,37.75-21.25,37.75-45.76,0-39.28,26.49-40.92,59.07-31.33,10.66,3.14,28.35,9.68,36.61-1.89C438.37,325.3,425.58,312.87,417.27,305.82Z" style="fill:#9ce8e6;opacity:0.1"/><path d="M438.66,261.36c-5.91-18.74,1.18-32.26,6-50.38,5.48-20.56.75-39.8-9.1-58.29C429,140.32,411,130.76,406.3,118.55c-4.4-11.35,5.85-24.59,2.37-36.9-4.57-16.21-20.94-28.2-36.29-32.87-11.73-3.57-24.18-.82-35.46-4-9.77-2.7-11.92-10-18.08-16.77-13-14.3-39.13-27.57-59-24.94-18,2.38-26,13.17-44.18,4.84C205.29,3.22,187.3-4.86,177,3.89l-3.33,8.33c-7.89,7.61-9.91,11.5-21.54,11.08-10.68-.39-21.66-2.8-32.87-2C103.14,22.42,87.75,30,76.41,41.75,67.18,51.3,68.7,59.44,66.05,71.16c-6.86,30.38-39.51,45.7-55.59,70C2.31,153.5-3.77,169,2.76,183.42c4.83,10.65,15.62,17.1,19.86,28.25,14.73,38.67-33,74.63-19.26,114.3,11.17,32.22,55.45,25,71.38,53.51,11.79,21.08,21,39.94,45.67,47.7,24.17,7.59,47.8,8.95,72.6,6.49,16.09-1.6,36-5.17,52.09-1.22,22.74,5.57,35.26,29.55,61.14,26.24,41.3-5.29,68.87-42.46,91-73,17.39-24,58-26.56,64.66-59.48C466.88,301.77,445.49,283,438.66,261.36Z" style="fill:#9ce8e6;opacity:0.1"/><circle cx="230.8" cy="234.13" r="168.93" transform="translate(-97.96 231.78) rotate(-45)" style="fill:#079191"/><path d="M137.34,204.13c11-29.39,14-42.33,42.7-56.27,12.34-6,28.47-18.79,15.49-33.29-11.39-12.72-21.43-13.6-39.26-5.84l-11,7.73C116.82,131.86,58.65,192.52,92,225.7,113.06,246.67,129.93,223.92,137.34,204.13Z" style="fill:#10fcf5"/><path d="M172.94,175.8l-12,3.1c-42.26,18.61,19.42,131.83,76.16,82.74C279.3,225.12,211.71,155.64,172.94,175.8Z" style="fill:#10fcf5"/><path d="M179.66,280.57c-4.07-12.89-15-11.72-22.71-20.8-6.36-7.47-2-27.14-11.72-27.58l-13,4.09C109.36,244,101.34,256,98.34,279.05c-2.67,20.47,20.82,40.48,39.34,45C162.62,330.15,187.64,305.85,179.66,280.57Z" style="fill:#10fcf5"/><path d="M172.48,87.74H177c12-1.2,23.46,3.53,30.61,13.56,9.18,12.91,1,20.62,2.69,33.37,2.6,19.9,41.54,23.39,58.95,16.6,19.38-7.57,35.44-36.44,16.25-52.57-15.24-12.8-50.7-18.23-69.2-21.62C198.09,73.74,187.25,78.4,171.2,85,169.83,87.52,172.32,86.76,172.48,87.74Z" style="fill:#10fcf5"/><path d="M287.69,285.34c-20.93-12-47.64,13-63.82.41l-6.73-5.66c-15.36-9.87-16.41,15.05-19,23.8-4.12,14.08-8.55,16-21.16,21.2-28.83,11.84-28.25,28.25,0,43.42,26.42,14.19,42.67,15.79,72.56,14,28.57-1.72,44.52-8.49,52.86-37.86C308,325,308.72,297.4,287.69,285.34Z" style="fill:#10fcf5"/><path d="M256.68,169.59c-12-.38-29.46-2.32-29.46-2.32-21.33,4.65,57,43.84,69.21,50.47,22.57,12.22,45.94,16.43,63.44-6.05,14.73-18.93,8.65-48.05-7.14-65.38-5.56-6.09-16.78-15.14-24.48-17.76-18.51-6.29-18.5,6.42-22.71,19.69C297.54,173.44,285.37,170.52,256.68,169.59Z" style="fill:#10fcf5"/><path d="M325.15,249.51c-14.66,1.74-25.5-17.49-37.79-12.13L276.07,239c-13.84,5-4.37,20.28,5.24,27.11,9.77,6.95,22.72,5,33.25,11,12.71,7.18,14.44,16.86,13.69,31.33-.62,11.84-7.55,29.62,10.5,25.69,25.18-5.49,28.65-54.81,30.57-74.06C373.73,215.68,347.47,246.86,325.15,249.51Z" style="fill:#10fcf5"/><path d="M114.32,158.07C100.24,173.43,86,191,97.32,197.75s24.94-12.47,34-26.08,28.34-35.14,19.27-36.27S126.79,144.47,114.32,158.07Z" style="fill:#97fc68"/><path d="M207.75,230.33c-9.87,8.46-15.12,14.61-9.58,22.17a20,20,0,0,0,27.21,5C236,251,247.05,234.86,239,227.31S218.33,221.26,207.75,230.33Z" style="fill:#97fc68"/><path d="M116.05,265.6c-8.76,3.34-10.58,10.58-6.55,21.66s13.1,23.69,24.18,20.16,13.61-15.62,8.57-23.68S126.63,261.57,116.05,265.6Z" style="fill:#97fc68"/><path d="M246,329.59c-14.71,7.35-33.25,15.11-31.74,28.21s43.83,22.68,60,11.09,28.21-36.28,23.17-44.84S261.16,322,246,329.59Z" style="fill:#97fc68"/><path d="M333.21,150.22c-11.36-.59-23.18,18.64-24.69,30.73s.5,35.78,15.11,35.27,27.72-5.54,31.75-23.18S352.86,151.22,333.21,150.22Z" style="fill:#97fc68"/><path d="M355.88,251.49c-10.67-2.13-15.32,6.25-19.65,15.12s-8.06,53.41-.5,52.9,19.65-20.15,24.18-36.78S366,253.51,355.88,251.49Z" style="fill:#97fc68"/><path d="M234.45,103.86c-4.68,11.7-.5,31.74,13.1,33.76s31.75-1,33.26-14.11-5.55-27.71-21.67-29.22S238.48,93.78,234.45,103.86Z" style="fill:#97fc68"/><path d="M93.53,140.89a169,169,0,0,0,250,223.21c-4.61-4.41-11.36-7.86-20.61-9.79-34.43-7.16-72,1.43-106.52-4.92-72.34-13.32-132.89-64.28-104.59-143.31,11.47-32,38.77-62.31,70.69-73.1,36.77-12.42,63.71,12.37,88.49,36.47s53.49,76.9,91.62,81.53c10.11,1.23,36.51-2.46,38.82-25.51a168.94,168.94,0,0,0-307.9-84.58Z" style="fill:#97fc68;opacity:0.30000000000000004"/></g></g></svg>