<svg xmlns="http://www.w3.org/2000/svg" viewBox="0 0 496.58 496.58"><g id="Layer_2" data-name="Layer 2"><g id="Layer_1-2" data-name="Layer 1"><circle cx="248.29" cy="248.29" r="248.29" transform="translate(-102.85 248.29) rotate(-45)" style="fill:#9ce8e6;opacity:0.1"/><circle cx="246.51" cy="255.53" r="168.93" style="fill:#7d0d98"/><path d="M246.51,85.84c-5.48,0-10.89.27-16.23.78a168.93,168.93,0,0,0,122.8,284.93c5.48,0,10.89-.27,16.23-.78A168.93,168.93,0,0,0,246.51,85.84Z" style="fill:#a812cc"/><path d="M148.11,384.51c-1.34.64-3.43,1.72-6.05,3.05a169.35,169.35,0,0,0,28.45,18.12q80.06-46.74,160.82-92.32C359,297.68,387,282.68,415,267.55q.48-6.33.48-12.78t-.49-13c-47.76,19.27-90.53,47.7-135.67,73C236.23,338.84,192.68,363.37,148.11,384.51Z" style="fill:#204e84"/><path d="M82.05,216c16.23-5.14,32-12.34,48-18.32,43.73-16.37,86.51-34.12,129.62-52.17,21.89-9.16,43.73-17.38,66-25.51,2.73-1,9.36-2.71,15.84-4.94a168.52,168.52,0,0,0-25.87-14.48c-3.83.47-7.73,1.1-11.73,1.85-37.48,7.08-74.38,14.45-109.95,28.72-21.59,8.67-42.87,17.5-64.84,25.13-9.27,3.22-18.22,6.33-26.86,10.56A167.84,167.84,0,0,0,82.05,216Z" style="fill:#204e84"/><path d="M265.13,179.86c-56,25.29-111.86,48.42-170.06,68.46a167.17,167.17,0,0,1-17.48,5.28c0,.39,0,.78,0,1.17A170.4,170.4,0,0,0,80.85,288c59.92-32.24,123.64-55.74,186.78-81.12,39.3-15.8,78-31.47,114.85-52.39a168.94,168.94,0,0,0-13.38-16c-9.24,2.76-18.3,6.26-27,9.59C316.43,158,290.2,168.56,265.13,179.86Z" style="fill:#204e84"/><path d="M346,217.67c-57.16,30.81-112.66,64.69-173.11,89-24.92,10-50.37,20.47-77.08,24.59a169,169,0,0,0,20.87,31.64c32.78-19.62,66.47-38.12,100.05-56.25,48.31-26.08,98-49.25,147.22-73.44a333.77,333.77,0,0,0,44.43-26.73,168.22,168.22,0,0,0-5.65-16c-1.82.79-3.56,1.54-5.17,2.21A563.77,563.77,0,0,0,346,217.67Z" style="fill:#204e84"/><path d="M312,108.67h-2c-15,5.38-30.47,8.46-46.46,11.22-22.21,3.84-44.34,10-65.9,16.5-5.63,1.7-57.11,20.27-50.31,31.13,5.3,8.46,49-13.46,56-16C241,137.66,278.62,123.35,317,112.61,317.73,109.22,315.06,108,312,108.67Z" style="fill:#2d70b2"/><path d="M349.14,161.8l-1.94.14c-14.14,5.83-28.84,9.66-44.09,13.24-21.17,5-42.13,12-62.5,19.29-5.32,1.9-53.77,22-46.5,31.09,5.67,7.09,46.41-15.4,53-18.16,35.41-14.91,70.81-30.25,107.12-42.48C354.69,161.87,352,161,349.14,161.8Z" style="fill:#2d70b2"/><path d="M234.55,288.71c33.1-18.33,67.28-34.35,101.23-50.6,6.28-3,48.3-18.81,48.46-26.56.21-9.94-46.06,12.47-51,15.1-18.81,10.06-37.9,20.65-56,32.51-13,8.53-25.81,16.57-39.3,23.12l-1.48,1.26C233.9,285.07,232.49,287.4,234.55,288.71Z" style="fill:#2d70b2"/><path d="M225.48,360.26c33.1-18.33,67.28-34.35,101.23-50.6,6.28-3,48.3-18.81,48.46-26.56.21-9.94-46.06,12.47-51,15.09-18.81,10.06-37.9,20.65-56,32.51-13,8.54-25.81,16.57-39.29,23.13l-1.49,1.26C224.83,356.62,223.42,359,225.48,360.26Z" style="fill:#2d70b2"/><path d="M342.85,441.12c-16.12,0-33-14-33.78-14.69a3.4,3.4,0,1,1,4.38-5.2c.17.15,18.09,15,32.19,12.88,4.65-.7,8.29-3.18,11.13-7.59,5.74-8.89,10.24-28-.9-68.68C344.42,316,319,261,280.35,194.26,210.74,74.15,155.12,63.23,139.73,62.75c-11-.35-19.94,3.3-24.41,10-8.11,12.15.28,48.42,4.2,61.37a3.4,3.4,0,0,1-6.51,2C111.47,131,98.32,86,109.66,69c5.8-8.71,16.84-13.46,30.29-13,13.29.42,35.18,6,63.94,30.09,27.88,23.37,55.58,58.63,82.35,104.82,38.95,67.21,64.58,122.79,76.2,165.18,9.47,34.59,9.48,59.54.05,74.17-3.92,6.06-9.25,9.64-15.85,10.63A25.25,25.25,0,0,1,342.85,441.12Z" style="fill:#eb53c0"/><g style="opacity:0.7000000000000001"><path d="M328.55,479.4a30.44,30.44,0,0,1-14.93-4C292.29,463.61,282.39,429,282,427.52a5.29,5.29,0,1,1,10.19-2.85c.09.31,9.13,31.85,26.59,41.49a19.84,19.84,0,0,0,15.94,1.72c2.75-.81,4.86-4.13,6.14-6.77,8.4-17.29,9.55-60.06,3.08-114.39-6.3-52.94-19-107.79-33-143.13C249.67,49.9,207.47,22.31,182.85,26.22c-23.26,3.7-23.78,58.26-22,79a5.29,5.29,0,1,1-10.54.91,226.61,226.61,0,0,1,.77-41.42c3.57-29.84,13.71-46.3,30.12-48.91,11.8-1.88,24.11,1.69,36.59,10.6C229,34.38,240.73,47,252.61,63.9c21.47,30.54,44.38,76.22,68.1,135.77,14.61,36.69,27.21,91.19,33.72,145.8,3.22,27,9.26,92.82-4.07,120.26-3.22,6.63-7.48,10.77-12.66,12.3A32.34,32.34,0,0,1,328.55,479.4Z" style="fill:#eb53c0"/></g></g></g></svg>