<svg xmlns="http://www.w3.org/2000/svg" viewBox="0 0 73.65 73.54"><g id="Layer_2" data-name="Layer 2"><g id="Layer_1-2" data-name="Layer 1"><path d="M67,5.06C60.24-.84,51.34-1.71,47.08,3.13a9.22,9.22,0,0,0-1.4,2.2c-.32,2.82,3.38,8.4,9.18,13.49s11.8,8.05,14.56,7.37a8.59,8.59,0,0,0,2-1.67C75.67,19.68,73.67,11,67,5.06Z" style="fill:#c62026;fill-rule:evenodd"/><path d="M57.06,20.66a39.38,39.38,0,0,0,5.82,3.81,4.3,4.3,0,0,0,4-.51,14.47,14.47,0,0,0,1.39-2.2c3.07-5.89,4.3-11.39-1.31-16.7s-6.5,2.26-12.42,4.63-.77,1.64-1.06,2.49C53.12,14.58,54.52,17.93,57.06,20.66Z" style="fill:#e71e25;fill-rule:evenodd"/><path d="M61.77,11C55.08,5.07,48.1,2.06,46.19,4.24s2,8.7,8.67,14.58,13.67,8.9,15.58,6.73S68.47,16.85,61.77,11Z" style="fill:#861619;fill-rule:evenodd"/><path d="M61.39,11.39c-6-5.23-12.16-7.91-13.86-6s1.75,7.74,7.71,13,12.16,7.92,13.86,6S67.34,16.63,61.39,11.39Z" style="fill:#67110d;fill-rule:evenodd"/><path d="M67,5.06C60.24-.84,51.34-1.71,47.08,3.13c-.11.14-.23.28-.34.43C51.12-.83,59.7.14,66.23,5.88S74.84,20,71,24.92c.13-.12.25-.26.38-.4C75.67,19.68,73.67,11,67,5.06Z" style="fill:#fff;fill-rule:evenodd"/><path d="M68.7,7.23C66.55,4.8,64.14,3.6,63.29,4.56s.21,3.72,2.35,6.15,4.56,3.63,5.4,2.67S70.84,9.67,68.7,7.23Z" style="fill:#fff;fill-rule:evenodd"/><path d="M6.7,5.06c6.72-5.9,15.61-6.77,19.86-1.93A8.13,8.13,0,0,1,28,5.33c.33,2.82-3.37,8.4-9.17,13.49S7,26.87,4.23,26.19a8.34,8.34,0,0,1-2-1.67C-2,19.68,0,11,6.7,5.06Z" style="fill:#c62026;fill-rule:evenodd"/><path d="M16.58,20.66a39.26,39.26,0,0,1-5.8,3.81,4.32,4.32,0,0,1-4-.51,15.3,15.3,0,0,1-1.39-2.2C2.31,15.87,1.07,10.37,6.7,5.06s6.49,2.26,12.41,4.63.77,1.64,1.05,2.49C20.54,14.58,19.12,17.93,16.58,20.66Z" style="fill:#e71e25;fill-rule:evenodd"/><path d="M11.88,11c6.7-5.89,13.67-8.9,15.58-6.72s-2,8.7-8.67,14.58S5.12,27.72,3.21,25.55,5.19,16.85,11.88,11Z" style="fill:#861619;fill-rule:evenodd"/><path d="M12.26,11.39c6-5.23,12.16-7.91,13.86-6s-1.75,7.74-7.7,13-12.17,7.92-13.87,6S6.3,16.63,12.26,11.39Z" style="fill:#67110d;fill-rule:evenodd"/><path d="M6.7,5.06c6.72-5.9,15.61-6.77,19.86-1.93a4.82,4.82,0,0,1,.36.43C22.53-.83,14,.14,7.41,5.88S-1.18,20,2.62,24.92a4.83,4.83,0,0,1-.38-.4C-2,19.68,0,11,6.7,5.06Z" style="fill:#fff;fill-rule:evenodd"/><path d="M5,7.23C7.09,4.8,9.52,3.6,10.36,4.56S10.16,8.28,8,10.71s-4.57,3.63-5.41,2.67S2.82,9.67,5,7.23Z" style="fill:#fff;fill-rule:evenodd"/><path d="M17.37,12.32C31.21.81,51.09,3.6,61.76,18.54S69.84,54.93,56,66.44s-33.72,8.73-44.38-6.22S3.52,23.83,17.37,12.32Z" style="fill:#b82025;fill-rule:evenodd"/><path d="M17.37,12.32C31.21.81,51.09,3.6,61.76,18.54A36.35,36.35,0,0,1,66.43,51a35.08,35.08,0,0,0-4.67-9.16c-10.67-15-30.55-17.73-44.39-6.22A34,34,0,0,0,6.93,51.06C2.34,37.44,6.17,21.63,17.37,12.32Z" style="fill:#e71e25;fill-rule:evenodd"/><path d="M21.61,14.29a24.71,24.71,0,1,1-4.5,34.65A24.69,24.69,0,0,1,21.61,14.29Z" style="fill:#861619;fill-rule:evenodd"/><path d="M21.61,15.55a24.71,24.71,0,1,1-4.5,34.65A24.69,24.69,0,0,1,21.61,15.55Z" style="fill:#f3f3f3;fill-rule:evenodd"/><path d="M21.54,16.29l1-.76,2.15,2.79-1,.76Z" style="fill:#010101;fill-rule:evenodd"/><path d="M14.29,26.51l.47-1.15L18,26.7l-.48,1.15Z" style="fill:#010101;fill-rule:evenodd"/><path d="M13.11,39l-.17-1.23,3.5-.47.17,1.24Z" style="fill:#010101;fill-rule:evenodd"/><path d="M18.33,50.37l-.76-1,2.8-2.15.76,1Z" style="fill:#010101;fill-rule:evenodd"/><path d="M28.55,57.63l-1.15-.48,1.34-3.26,1.15.48Z" style="fill:#010101;fill-rule:evenodd"/><path d="M41,58.8,39.79,59l-.47-3.5,1.23-.16Z" style="fill:#010101;fill-rule:evenodd"/><path d="M52.41,53.58l-1,.76-2.15-2.79,1-.76Z" style="fill:#010101;fill-rule:evenodd"/><path d="M59.67,43.36l-.47,1.16-3.26-1.35L56.41,42Z" style="fill:#010101;fill-rule:evenodd"/><path d="M60.85,30.89,61,32.12l-3.5.47-.16-1.24Z" style="fill:#010101;fill-rule:evenodd"/><path d="M55.62,19.5l.76,1-2.79,2.15-.76-1Z" style="fill:#010101;fill-rule:evenodd"/><path d="M45.41,12.24l1.15.48L45.22,16l-1.16-.48Z" style="fill:#010101;fill-rule:evenodd"/><path d="M32.93,11.07l1.24-.17.46,3.5-1.24.16Z" style="fill:#010101;fill-rule:evenodd"/><path d="M48.69,20.82h0a1.62,1.62,0,0,1,.63,2.2l-7.88,14.3a1.63,1.63,0,0,1-2.2.64h0a1.62,1.62,0,0,1-.63-2.2l7.88-14.31A1.63,1.63,0,0,1,48.69,20.82Z" style="fill:#010101;fill-rule:evenodd"/><path d="M40.63,35.29a3.31,3.31,0,1,1-4.49,1.3A3.31,3.31,0,0,1,40.63,35.29Z" style="fill:#010101;fill-rule:evenodd"/><path d="M39.56,37.23a1.09,1.09,0,1,1-1.49.43A1.1,1.1,0,0,1,39.56,37.23Z" style="fill:#fff;fill-rule:evenodd"/><path d="M17.37,12.32C31.21.81,51.09,3.6,61.76,18.54a35.87,35.87,0,0,1,6.56,21.69,35.86,35.86,0,0,0-6.56-20C51.09,5.33,31.21,2.55,17.37,14.06A35.07,35.07,0,0,0,5,40.27,35.24,35.24,0,0,1,17.37,12.32Z" style="fill:#fff;fill-rule:evenodd"/><path d="M55.64,66.73c-4-2.79-11-4.64-19-4.64s-15,1.85-19,4.65A29.82,29.82,0,0,0,55.64,66.73Z" style="fill:#861619;fill-rule:evenodd"/></g></g></svg>