<svg xmlns="http://www.w3.org/2000/svg" xmlns:xlink="http://www.w3.org/1999/xlink" viewBox="0 0 69.2 73.35"><defs><linearGradient id="GradientFill_9" x1="12.5" y1="66.05" x2="46.85" y2="6.56" gradientUnits="userSpaceOnUse"><stop offset="0" stop-color="#ffce18"/><stop offset="1" stop-color="#fcee27"/></linearGradient><linearGradient id="GradientFill_9-2" x1="37.83" y1="15.33" x2="17.37" y2="50.77" xlink:href="#GradientFill_9"/><linearGradient id="GradientFill_9-3" x1="16.33" y1="46.49" x2="33.75" y2="16.31" xlink:href="#GradientFill_9"/></defs><g id="Layer_2" data-name="Layer 2"><g id="Layer_1-2" data-name="Layer 1"><path d="M53.37,6.46c-1-.56-2-1.06-3.06-1.51A24.91,24.91,0,0,0,48,3.44C34.41-4.07,15.68,3.81,6.11,21.05S-.24,58.36,13.29,65.87a23.39,23.39,0,0,0,2.53,1.21,32.75,32.75,0,0,0,2.9,1.8,29,29,0,0,0,28.54.24A40.18,40.18,0,0,0,63.12,53a45.39,45.39,0,0,0,4.15-10.2,42.65,42.65,0,0,0,.89-4.24,36.15,36.15,0,0,0,.41-4.25A32.75,32.75,0,0,0,67.1,23,28.62,28.62,0,0,0,53.37,6.46Z" style="fill:none;stroke:#f9a01b;stroke-miterlimit:22.925600000000003;stroke-width:1.1999px;fill-rule:evenodd"/><path d="M53.37,6.46C36.84-2.72,15.68,3.81,6.11,21.05S2.18,59.71,18.72,68.88,53.55,70.19,63.12,53,69.91,15.63,53.37,6.46Z" style="fill:#fcb322;fill-rule:evenodd"/><path d="M48,3.44C34.41-4.07,15.68,3.81,6.11,21.05S-.24,58.36,13.29,65.87s32.27-.36,41.84-17.6S61.49,11,48,3.44Z" style="fill-rule:evenodd;fill:url(#GradientFill_9)"/><path d="M47.53,4.14C34.41-3.15,16.26,4.49,7,21.2A42.41,42.41,0,0,0,1.9,36.7,42.85,42.85,0,0,1,6.38,24.85C15.65,8.14,33.81.5,46.93,7.78c9.15,5.08,13.43,16.08,12,27.94C61.79,22.52,57.62,9.73,47.53,4.14Z" style="fill:#fff;fill-rule:evenodd"/><path d="M25.66,4c-3.76,1.52-6.6,4.27-6.32,6.15s3.55,2.15,7.31.63S33.25,6.48,33,4.61,29.43,2.45,25.66,4Z" style="fill:#fff;fill-rule:evenodd"/><path d="M31.61,53.06c-3.77,1.53-6.6,4.28-6.33,6.15s3.55,2.16,7.32.63,6.6-4.27,6.32-6.15S35.37,51.54,31.61,53.06Z" style="fill:#fff;fill-rule:evenodd"/><path d="M40.52,12.55c-9.73-5.41-23.19.26-30.07,12.65S5.88,52,15.61,57.41s23.2-.26,30.07-12.65S50.25,18,40.52,12.55Z" style="fill:#fff;fill-rule:evenodd"/><path d="M40.1,10.54C30.36,5.13,16.88,10.8,10,23.21S5.42,50.05,15.16,55.46s23.22-.26,30.11-12.67S49.84,16,40.1,10.54Z" style="fill-rule:evenodd;fill:url(#GradientFill_9-2)"/><path d="M40,17.47l-5.77-3.21a3.29,3.29,0,0,0-4.46,1.28L13.86,44.25a3.29,3.29,0,0,0,1.27,4.46l5.77,3.21a3.31,3.31,0,0,0,4.47-1.28L41.3,21.93A3.28,3.28,0,0,0,40,17.47Z" style="fill:#fba919;fill-rule:evenodd"/><path d="M37.36,16l-5.77-3.21a3.29,3.29,0,0,0-4.46,1.28L11.19,42.77a3.29,3.29,0,0,0,1.28,4.46l5.77,3.21a3.29,3.29,0,0,0,4.46-1.28L38.64,20.45A3.28,3.28,0,0,0,37.36,16Z" style="fill-rule:evenodd;fill:url(#GradientFill_9-3)"/><path d="M59.45,18.74a34.26,34.26,0,0,1,1.13,11.09l8,4.43A32.75,32.75,0,0,0,67.1,23Z" style="fill:#ffce09;fill-rule:evenodd"/><path d="M59.21,38.28l8.06,4.47a42.65,42.65,0,0,0,.89-4.24l-8-4.46A42.64,42.64,0,0,1,59.21,38.28Z" style="fill:#ffce09;fill-rule:evenodd"/><path d="M15.82,67.08a32.75,32.75,0,0,0,2.9,1.8,29,29,0,0,0,28.54.24L39.2,64.64C31.57,68.91,23.12,70,15.82,67.08Z" style="fill:#f9a01b;fill-rule:evenodd"/></g></g></svg>