<svg xmlns="http://www.w3.org/2000/svg" xmlns:xlink="http://www.w3.org/1999/xlink" viewBox="0 0 90.83 90.69"><defs><filter id="luminosity-noclip" x="26.25" y="-8052.13" width="8.31" height="32766" filterUnits="userSpaceOnUse" color-interpolation-filters="sRGB"><feFlood flood-color="#fff" result="bg"/><feBlend in="SourceGraphic" in2="bg"/></filter><mask id="mask" x="26.25" y="-8052.13" width="8.31" height="32766" maskUnits="userSpaceOnUse"><g style="filter:url(#luminosity-noclip)"/></mask><radialGradient id="radial-gradient" cx="30.41" cy="9.92" r="4.15" gradientUnits="userSpaceOnUse"><stop offset="0" stop-color="#fff"/><stop offset="1"/></radialGradient><filter id="luminosity-noclip-2" x="26.25" y="5.76" width="8.31" height="8.31" filterUnits="userSpaceOnUse" color-interpolation-filters="sRGB"><feFlood flood-color="#fff" result="bg"/><feBlend in="SourceGraphic" in2="bg"/></filter><mask id="mask-2" x="26.25" y="5.76" width="8.31" height="8.31" maskUnits="userSpaceOnUse"><g style="mask:url(#mask);filter:url(#luminosity-noclip-2)"><path d="M34.56,9.92a4.16,4.16,0,1,1-4.15-4.16A4.15,4.15,0,0,1,34.56,9.92Z" style="mix-blend-mode:multiply;fill:url(#radial-gradient)"/></g></mask><radialGradient id="radial-gradient-2" cx="30.41" cy="9.92" r="4.15" gradientUnits="userSpaceOnUse"><stop offset="0" stop-color="#fff"/><stop offset="1" stop-color="#fff"/></radialGradient></defs><g style="isolation:isolate"><g id="Layer_2" data-name="Layer 2"><g id="Layer_1-2" data-name="Layer 1"><path d="M45.41,90.69C20.37,90.69,0,70.64,0,46S20.37,1.3,45.41,1.3h1.23l1.1,0h.09A45.53,45.53,0,0,1,81.64,18.92l1.86,2.42-.14.09A43.79,43.79,0,0,1,90.83,46a.86.86,0,0,1,0,.16A44.05,44.05,0,0,1,77.45,77.67,45.53,45.53,0,0,1,45.41,90.69Zm0-83.92c-22,0-39.92,17.6-39.92,39.22S23.39,85.21,45.41,85.21,85.27,67.68,85.35,46.14V46a38.43,38.43,0,0,0-8.1-23.7l-1.38-1.79A40.13,40.13,0,0,0,47.48,6.82h-.11q-.43,0-.87,0H45.4Z" style="fill:#c07029"/><path d="M88.09,46c0,23.17-19.11,42-42.68,42S2.74,69.16,2.74,46,21.84,4,45.41,4,88.09,22.82,88.09,46Z" style="fill:#fcb323"/><path d="M45.41,4C21.84,4,2.74,22.82,2.74,46c0,.51,0,1,0,1.52A63.93,63.93,0,0,0,45.14,63,63.81,63.81,0,0,0,88.06,47c0-.34,0-.67,0-1C88.09,22.82,69,4,45.41,4Z" style="fill:#fff;opacity:0.49;mix-blend-mode:overlay"/><path d="M79.47,20.6a43.11,43.11,0,0,0-68.12.23,65.2,65.2,0,0,0,33.88,9.29A65.1,65.1,0,0,0,79.47,20.6Z" style="fill:#fff;opacity:0.49;mix-blend-mode:overlay"/><path d="M45.41,86.18C22.15,86.18,3.24,67.87,2.76,45.1c0,.3,0,.59,0,.89,0,23.17,19.1,42,42.67,42S88.09,69.16,88.09,46c0-.3,0-.59,0-.89C87.58,67.87,68.68,86.18,45.41,86.18Z" style="fill:#f6e393"/><path d="M80.23,46c0,18.91-15.59,34.23-34.82,34.23S10.6,64.9,10.6,46,26.19,11.76,45.41,11.76,80.23,27.09,80.23,46Z" style="fill:#fff;opacity:0.55;mix-blend-mode:overlay"/><path d="M45.41,11.76A35,35,0,0,0,19.65,23a35,35,0,0,1,23.69-9.15c19.23,0,34.82,15.32,34.82,34.23a33.83,33.83,0,0,1-9,23A33.91,33.91,0,0,0,80.23,46C80.23,27.09,64.64,11.76,45.41,11.76Z" style="fill:#c07029"/><path d="M23.73,66.24C23.73,47.34,39.32,32,58.55,32a35.05,35.05,0,0,1,20.92,6.87A34.69,34.69,0,0,0,45.41,11.76C26.18,11.76,10.59,27.09,10.59,46A34,34,0,0,0,24.48,73.35,34,34,0,0,1,23.73,66.24Z" style="fill:#ed7223;opacity:0.23;mix-blend-mode:multiply"/><path d="M13.28,21.42C9.53,26.66,6.71,33.05,8.53,35S14.38,25.57,20.2,20.9,18.51,14.13,13.28,21.42Z" style="fill:#fff"/><path d="M31.88,8.65c-6.47.92-8.95,5-7.18,6.09s9.24-2.56,11.6-4.23S33.94,8.35,31.88,8.65Z" style="fill:#fff"/><path d="M66.34,73.35S53,82.45,39.93,79.55s-18.71-7-22.38-13,3.8,14.82,25.53,15.78C66.92,83.35,71.26,70.56,66.34,73.35Z" style="fill:#fff"/><polygon points="30.01 9.17 35.08 0.3 30.89 9.17 43.85 15.6 30.79 9.95 24.16 21.97 29.52 9.85 17.23 2.3 30.01 9.17" style="fill:#fff;opacity:0.5700000000000001;mix-blend-mode:overlay"/><polygon points="30.57 9.13 37.06 7.36 30.98 9.54 34.02 18.55 30.57 9.85 21.91 12.36 30.03 9.22 27.83 0 30.57 9.13" style="fill:#fff;opacity:0.5700000000000001;mix-blend-mode:overlay"/><g style="mask:url(#mask-2)"><path d="M34.56,9.92a4.16,4.16,0,1,1-4.15-4.16A4.15,4.15,0,0,1,34.56,9.92Z" style="mix-blend-mode:overlay;fill:url(#radial-gradient-2)"/></g></g></g></g></svg>