<svg xmlns="http://www.w3.org/2000/svg" xmlns:xlink="http://www.w3.org/1999/xlink" viewBox="0 0 90.54 77.11"><defs><filter id="luminosity-noclip" x="19.72" y="-8061.63" width="51.07" height="32766" filterUnits="userSpaceOnUse" color-interpolation-filters="sRGB"><feFlood flood-color="#fff" result="bg"/><feBlend in="SourceGraphic" in2="bg"/></filter><mask id="mask" x="19.72" y="-8061.63" width="51.07" height="32766" maskUnits="userSpaceOnUse"><g style="filter:url(#luminosity-noclip)"/></mask><linearGradient id="linear-gradient" x1="1001.07" y1="29.34" x2="1052.15" y2="29.34" gradientTransform="matrix(-1, 0, 0, 1, 1071.87, 0)" gradientUnits="userSpaceOnUse"><stop offset="0"/><stop offset="0.91" stop-color="#fff"/></linearGradient><filter id="luminosity-noclip-2" x="23.88" y="-8061.63" width="44.56" height="32766" filterUnits="userSpaceOnUse" color-interpolation-filters="sRGB"><feFlood flood-color="#fff" result="bg"/><feBlend in="SourceGraphic" in2="bg"/></filter><mask id="mask-2" x="23.88" y="-8061.63" width="44.56" height="32766" maskUnits="userSpaceOnUse"><g style="filter:url(#luminosity-noclip-2)"/></mask><linearGradient id="linear-gradient-2" x1="1003.43" y1="30.25" x2="1047.99" y2="30.25" xlink:href="#linear-gradient"/><filter id="luminosity-noclip-3" x="45.62" y="-8061.63" width="24.05" height="32766" filterUnits="userSpaceOnUse" color-interpolation-filters="sRGB"><feFlood flood-color="#fff" result="bg"/><feBlend in="SourceGraphic" in2="bg"/></filter><mask id="mask-3" x="45.62" y="-8061.63" width="24.05" height="32766" maskUnits="userSpaceOnUse"><g style="filter:url(#luminosity-noclip-3)"/></mask><linearGradient id="linear-gradient-3" x1="1002.19" y1="46.86" x2="1026.24" y2="46.86" gradientTransform="matrix(-1, 0, 0, 1, 1071.87, 0)" gradientUnits="userSpaceOnUse"><stop offset="0.09" stop-color="#fff"/><stop offset="1"/></linearGradient><filter id="luminosity-noclip-4" x="11.83" y="-8061.63" width="9.51" height="32766" filterUnits="userSpaceOnUse" color-interpolation-filters="sRGB"><feFlood flood-color="#fff" result="bg"/><feBlend in="SourceGraphic" in2="bg"/></filter><mask id="mask-4" x="11.83" y="-8061.63" width="9.51" height="32766" maskUnits="userSpaceOnUse"><g style="filter:url(#luminosity-noclip-4)"/></mask><radialGradient id="radial-gradient" cx="1127.71" cy="16.31" r="5.26" gradientTransform="matrix(-0.9, 0, 0, 1, 1036.6, 0)" gradientUnits="userSpaceOnUse"><stop offset="0" stop-color="#fff"/><stop offset="0.64" stop-color="#a7a7a7"/><stop offset="1"/></radialGradient><filter id="luminosity-noclip-5" x="19.72" y="-8061.63" width="51.08" height="32766" filterUnits="userSpaceOnUse" color-interpolation-filters="sRGB"><feFlood flood-color="#fff" result="bg"/><feBlend in="SourceGraphic" in2="bg"/></filter><mask id="mask-5" x="19.72" y="-8061.63" width="51.08" height="32766" maskUnits="userSpaceOnUse"><g style="filter:url(#luminosity-noclip-5)"/></mask><linearGradient id="linear-gradient-4" x1="1001.07" y1="66.06" x2="1052.15" y2="66.06" gradientTransform="matrix(-1, 0, 0, 1, 1071.87, 0)" gradientUnits="userSpaceOnUse"><stop offset="0" stop-color="#fff"/><stop offset="0.09" stop-color="#f9f9f9"/><stop offset="0.22" stop-color="#e8e8e8"/><stop offset="0.36" stop-color="#cdcdcd"/><stop offset="0.52" stop-color="#a6a6a6"/><stop offset="0.68" stop-color="#747474"/><stop offset="0.85" stop-color="#393939"/><stop offset="1"/></linearGradient><linearGradient id="linear-gradient-5" x1="1001.07" y1="54.85" x2="1052.15" y2="54.85" xlink:href="#linear-gradient"/><filter id="luminosity-noclip-7" x="5.75" y="-8061.63" width="39.51" height="32766" filterUnits="userSpaceOnUse" color-interpolation-filters="sRGB"><feFlood flood-color="#fff" result="bg"/><feBlend in="SourceGraphic" in2="bg"/></filter><mask id="mask-7" x="5.75" y="-8061.63" width="39.51" height="32766" maskUnits="userSpaceOnUse"><g style="filter:url(#luminosity-noclip-7)"/></mask><linearGradient id="linear-gradient-6" x1="1049.14" y1="55.99" x2="1044" y2="46.87" xlink:href="#linear-gradient"/><filter id="luminosity-noclip-8" x="13.13" y="-8061.63" width="64.26" height="32766" filterUnits="userSpaceOnUse" color-interpolation-filters="sRGB"><feFlood flood-color="#fff" result="bg"/><feBlend in="SourceGraphic" in2="bg"/></filter><mask id="mask-8" x="13.13" y="-8061.63" width="64.26" height="32766" maskUnits="userSpaceOnUse"><g style="filter:url(#luminosity-noclip-8)"/></mask><linearGradient id="linear-gradient-7" x1="994.48" y1="13.05" x2="1058.74" y2="13.05" xlink:href="#linear-gradient"/><linearGradient id="linear-gradient-8" x1="3.66" y1="24.98" x2="29.19" y2="24.98" gradientUnits="userSpaceOnUse"><stop offset="0.09" stop-color="#fff"/><stop offset="1" stop-color="#fff"/></linearGradient><filter id="luminosity-noclip-9" x="19.72" y="21.77" width="51.07" height="15.15" filterUnits="userSpaceOnUse" color-interpolation-filters="sRGB"><feFlood flood-color="#fff" result="bg"/><feBlend in="SourceGraphic" in2="bg"/></filter><mask id="mask-9" x="19.72" y="21.77" width="51.07" height="15.15" maskUnits="userSpaceOnUse"><g style="mask:url(#mask);filter:url(#luminosity-noclip-9)"><polygon points="70.79 36.91 19.72 36.91 29.19 21.77 61.32 21.77 70.79 36.91" style="mix-blend-mode:multiply;fill:url(#linear-gradient)"/></g></mask><linearGradient id="linear-gradient-9" x1="1001.07" y1="29.34" x2="1052.15" y2="29.34" gradientTransform="matrix(-1, 0, 0, 1, 1071.87, 0)" gradientUnits="userSpaceOnUse"><stop offset="0" stop-color="#fff"/><stop offset="0.91" stop-color="#fff"/></linearGradient><filter id="luminosity-noclip-10" x="19.72" y="36.91" width="51.08" height="58.28" filterUnits="userSpaceOnUse" color-interpolation-filters="sRGB"><feFlood flood-color="#fff" result="bg"/><feBlend in="SourceGraphic" in2="bg"/></filter><mask id="mask-10" x="19.72" y="36.91" width="51.08" height="58.28" maskUnits="userSpaceOnUse"><g style="mask:url(#mask-5);filter:url(#luminosity-noclip-10)"><polygon points="19.72 36.91 25.81 50.81 45.26 95.2 70.8 36.91 19.72 36.91" style="mix-blend-mode:multiply;fill:url(#linear-gradient-4)"/></g></mask><filter id="luminosity-noclip-11" x="19.72" y="36.91" width="51.08" height="35.87" filterUnits="userSpaceOnUse" color-interpolation-filters="sRGB"><feFlood flood-color="#fff" result="bg"/><feBlend in="SourceGraphic" in2="bg"/></filter><mask id="mask-11" x="19.72" y="36.91" width="51.08" height="35.87" maskUnits="userSpaceOnUse"><g style="mask:url(#mask-5);filter:url(#luminosity-noclip-11)"><polygon points="19.72 36.91 25.81 50.81 45.26 72.78 70.8 36.91 19.72 36.91" style="mix-blend-mode:multiply;fill:url(#linear-gradient-5)"/></g></mask><linearGradient id="linear-gradient-10" x1="1001.07" y1="54.85" x2="1052.15" y2="54.85" xlink:href="#linear-gradient-9"/><filter id="luminosity-noclip-12" x="5.75" y="29.34" width="39.51" height="43.44" filterUnits="userSpaceOnUse" color-interpolation-filters="sRGB"><feFlood flood-color="#fff" result="bg"/><feBlend in="SourceGraphic" in2="bg"/></filter><mask id="mask-12" x="5.75" y="29.34" width="39.51" height="43.44" maskUnits="userSpaceOnUse"><g style="mask:url(#mask-7);filter:url(#luminosity-noclip-12)"><polygon points="19.72 36.91 45.26 72.78 23.72 51.54 17.29 47.02 5.75 29.34 19.72 36.91" style="mix-blend-mode:multiply;fill:url(#linear-gradient-6)"/></g></mask><linearGradient id="linear-gradient-11" x1="1049.14" y1="55.99" x2="1044" y2="46.87" gradientTransform="matrix(-1, 0, 0, 1, 1071.87, 0)" xlink:href="#linear-gradient-8"/><filter id="luminosity-noclip-13" x="13.13" y="4.34" width="64.26" height="17.42" filterUnits="userSpaceOnUse" color-interpolation-filters="sRGB"><feFlood flood-color="#fff" result="bg"/><feBlend in="SourceGraphic" in2="bg"/></filter><mask id="mask-13" x="13.13" y="4.34" width="64.26" height="17.42" maskUnits="userSpaceOnUse"><g style="mask:url(#mask-8);filter:url(#luminosity-noclip-13)"><polygon points="13.13 13.05 29.19 21.77 61.32 21.77 77.39 13.05 61.32 4.34 29.19 4.34 13.13 13.05" style="mix-blend-mode:multiply;fill:url(#linear-gradient-7)"/></g></mask><linearGradient id="linear-gradient-12" x1="994.48" y1="13.05" x2="1058.74" y2="13.05" xlink:href="#linear-gradient-9"/><filter id="luminosity-noclip-14" x="23.88" y="23.58" width="44.56" height="13.34" filterUnits="userSpaceOnUse" color-interpolation-filters="sRGB"><feFlood flood-color="#fff" result="bg"/><feBlend in="SourceGraphic" in2="bg"/></filter><mask id="mask-14" x="23.88" y="23.58" width="44.56" height="13.34" maskUnits="userSpaceOnUse"><g style="mask:url(#mask-2);filter:url(#luminosity-noclip-14)"><path d="M29.19,26c1.66-3.17,6.6-2.29,11.47-2.16s12.17.14,12.17.14c2.8.13,3.28-.85,6.45,1.05a18.42,18.42,0,0,1,6.08,6.32c1.1,1.77,4.7,5.61,2.23,5.61S55.26,34.14,48,34.41s-20.75,2.65-23.39.81S27.53,29.11,29.19,26Z" style="mix-blend-mode:multiply;fill:url(#linear-gradient-2)"/></g></mask><linearGradient id="linear-gradient-13" x1="1003.43" y1="30.25" x2="1047.99" y2="30.25" xlink:href="#linear-gradient-9"/><filter id="luminosity-noclip-15" x="45.62" y="21.77" width="24.05" height="50.18" filterUnits="userSpaceOnUse" color-interpolation-filters="sRGB"><feFlood flood-color="#fff" result="bg"/><feBlend in="SourceGraphic" in2="bg"/></filter><mask id="mask-15" x="45.62" y="21.77" width="24.05" height="50.18" maskUnits="userSpaceOnUse"><g style="mask:url(#mask-3);filter:url(#luminosity-noclip-15)"><polygon points="69.67 36.21 45.62 71.95 45.62 22.22 60.84 21.77 69.67 36.21" style="mix-blend-mode:multiply;fill:url(#linear-gradient-3)"/></g></mask><linearGradient id="linear-gradient-14" x1="1002.19" y1="46.86" x2="1026.24" y2="46.86" gradientTransform="matrix(-1, 0, 0, 1, 1071.87, 0)" xlink:href="#linear-gradient-8"/><filter id="luminosity-noclip-16" x="11.83" y="11.06" width="9.51" height="10.51" filterUnits="userSpaceOnUse" color-interpolation-filters="sRGB"><feFlood flood-color="#fff" result="bg"/><feBlend in="SourceGraphic" in2="bg"/></filter><mask id="mask-16" x="11.83" y="11.06" width="9.51" height="10.51" maskUnits="userSpaceOnUse"><g style="mask:url(#mask-4);filter:url(#luminosity-noclip-16)"><path d="M11.83,16.31a5,5,0,0,0,4.75,5.26,5,5,0,0,0,4.75-5.26,5,5,0,0,0-4.75-5.25A5,5,0,0,0,11.83,16.31Z" style="mix-blend-mode:multiply;fill:url(#radial-gradient)"/></g></mask><radialGradient id="radial-gradient-2" cx="1127.71" cy="16.31" r="5.26" gradientTransform="matrix(-0.9, 0, 0, 1, 1036.6, 0)" gradientUnits="userSpaceOnUse"><stop offset="0" stop-color="#fff"/><stop offset="0.64" stop-color="#fff"/><stop offset="1" stop-color="#fff"/></radialGradient></defs><g style="isolation:isolate"><g id="Layer_2" data-name="Layer 2"><g id="Layer_1-2" data-name="Layer 1"><path d="M45.26,77.11.08,29.34a11.88,11.88,0,0,1,0-2.57C1.42,22.1,10.36,10.32,10.36,10.32L27.81.86S58.12-1.07,62.7.86s17.45,9.46,17.45,9.46S91.7,23.2,90.44,28.2c-.85,3.37-45.18,48.91-45.18,48.91Z" style="fill:#471e5d"/><polygon points="45.26 74.41 2.18 27.46 2.19 27.45 11.99 11.77 28.62 2.75 61.89 2.75 78.52 11.77 88.33 27.46 45.26 74.4 45.26 74.41" style="fill:#924d9e"/><polygon points="77.39 13.05 86.86 28.2 70.79 36.91 61.32 21.77 77.39 13.05" style="fill:#6d2b89"/><polygon points="3.65 28.2 4.65 28.74 11.33 32.36 19.72 36.91 29.19 21.77 21.19 17.42 14.49 13.79 13.13 13.05 3.65 28.2" style="mix-blend-mode:overlay;fill:url(#linear-gradient-8)"/><g style="mask:url(#mask-9)"><polygon points="70.79 36.91 19.72 36.91 29.19 21.77 61.32 21.77 70.79 36.91" style="mix-blend-mode:overlay;fill:url(#linear-gradient-9)"/></g><g style="mask:url(#mask-10)"><g style="mask:url(#mask-11)"><polygon points="19.72 36.91 25.81 50.81 45.26 72.78 70.8 36.91 19.72 36.91" style="mix-blend-mode:overlay;fill:url(#linear-gradient-10)"/></g></g><polygon points="3.65 28.2 45.26 72.78 19.72 36.91 3.65 28.2" style="fill:#b51e52"/><polygon points="86.86 28.2 70.79 36.91 45.26 72.78 86.86 28.2" style="fill:#6d2b89"/><g style="mask:url(#mask-12)"><polygon points="19.72 36.91 45.26 72.78 23.72 51.54 15.73 42.09 5.75 29.34 19.72 36.91" style="mix-blend-mode:overlay;fill:url(#linear-gradient-11)"/></g><polygon points="3.65 28.2 19.72 36.91 70.79 36.91 86.86 28.2 70.79 34.87 46.55 34.87 20.16 36.21 5.23 25.68 3.65 28.2" style="fill:#fff"/><path d="M17.3,15.71c.32.14,1,.32,1.8.58l-6-3.24s19.74,8.25,23.39,8.48,25.23,0,25.23,0-8.45.28-16.49.69h1l-1,50.56-1-50.5c-6.81.36-13,.82-13.32,1.3,0,0-7,12.34-6.36,13.33s20.24,34.61,20,34.28S21.39,42.88,20.68,39.12s8.51-17.35,8.51-17.35L21,17.32A1.24,1.24,0,0,1,21.19,19C20,21.11,14.5,32.26,14.5,32.26s-7.18-1.61-7.06-3.49S13.41,14,17.3,15.71Z" style="fill:#fff"/><g style="mask:url(#mask-13)"><polygon points="13.13 13.05 29.19 21.77 61.32 21.77 77.39 13.05 61.32 4.34 29.19 4.34 13.13 13.05" style="mix-blend-mode:overlay;fill:url(#linear-gradient-12)"/></g><g style="mask:url(#mask-14)"><path d="M29.19,26c1.66-3.17,6.6-2.29,11.47-2.16s12.17.14,12.17.14c2.8.13,3.28-.85,6.45,1.05a18.42,18.42,0,0,1,6.08,6.32c1.1,1.77,4.7,5.61,2.23,5.61S55.26,34.14,48,34.41s-20.75,2.65-23.39.81S27.53,29.11,29.19,26Z" style="mix-blend-mode:overlay;fill:url(#linear-gradient-13)"/></g><g style="mask:url(#mask-15)"><polygon points="69.67 36.21 45.62 71.95 45.62 22.22 60.84 21.77 69.67 36.21" style="mix-blend-mode:overlay;fill:url(#linear-gradient-14)"/></g><polygon points="17.04 15.37 11.24 4.14 16.03 15.37 1.19 23.51 16.15 16.36 23.73 31.57 17.6 16.23 31.66 6.68 17.04 15.37" style="fill:#fff"/><polygon points="16.39 15.32 8.97 13.08 15.92 15.84 12.45 27.25 16.39 16.24 26.32 19.41 17.01 15.43 19.53 3.77 16.39 15.32" style="fill:#fff"/><g style="mask:url(#mask-16)"><path d="M11.83,16.31a5,5,0,0,0,4.75,5.26,5,5,0,0,0,4.75-5.26,5,5,0,0,0-4.75-5.25A5,5,0,0,0,11.83,16.31Z" style="fill:url(#radial-gradient-2)"/></g></g></g></g></svg>