<svg xmlns="http://www.w3.org/2000/svg" viewBox="0 0 65.38 78.95"><g id="Layer_2" data-name="Layer 2"><g id="Layer_1-2" data-name="Layer 1"><path d="M42.14,7.16C27.08-.24,12.55-1.54,9.7,4.27,4.56,14.74,3.27,24.21,4.62,32.08A28.28,28.28,0,0,0,16.84,51.31L10.91,62.64a5.51,5.51,0,0,0-1.22-.84,6.18,6.18,0,1,0,.19,10.85l.06,0c0,.06,0,.12,0,.18A6.18,6.18,0,1,0,21.38,68.9,6.23,6.23,0,0,0,19,66.65a6.1,6.1,0,0,0-1.38-.52L23.67,54.5c13.21,4,30.1-2.14,40.56-23.38l0-.06C67.11,25.26,57.21,14.56,42.14,7.16Z" style="fill:none;stroke:#67110d;stroke-miterlimit:22.925600000000003;stroke-width:1.2750000000000001px;fill-rule:evenodd"/><path d="M37.65,31a6.18,6.18,0,0,0-6,.14A6.2,6.2,0,1,0,24,37.58L10.91,62.64a5.51,5.51,0,0,0-1.22-.84,6.18,6.18,0,1,0,.25,10.81,6.19,6.19,0,1,0,9-6,6.1,6.1,0,0,0-1.38-.52l13.11-25a6.28,6.28,0,0,0,1.22.84,6.18,6.18,0,0,0,5.73-11Z" style="fill:#fff2cb;fill-rule:evenodd"/><path d="M3.08,70.17A6.14,6.14,0,0,1,.67,67.93a6.19,6.19,0,0,0,9.21,4.72A6.22,6.22,0,0,1,9.07,70,6.16,6.16,0,0,1,3.08,70.17Z" style="fill:#fee17e;fill-rule:evenodd"/><path d="M20.71,72.42A6.17,6.17,0,0,1,12.37,75,6.07,6.07,0,0,1,10,72.79,6.18,6.18,0,1,0,21.38,68.9,6.09,6.09,0,0,1,20.71,72.42Z" style="fill:#fee17e;fill-rule:evenodd"/><path d="M39.39,36.73A6.19,6.19,0,0,1,31,39.34a6.59,6.59,0,0,1-1.22-.84l-14,26.85a7.8,7.8,0,0,1,1.39.53l.43.25,13.11-25a6.28,6.28,0,0,0,1.22.84,6.19,6.19,0,0,0,8.14-8.71A6.12,6.12,0,0,1,39.39,36.73Z" style="fill:#fee17e;fill-rule:evenodd"/><path d="M6.63,62.66a2.51,2.51,0,1,0,1.06,3.39A2.51,2.51,0,0,0,6.63,62.66Z" style="fill:#fff;fill-rule:evenodd"/><path d="M26,26.34a2.51,2.51,0,1,0,1.06,3.39A2.51,2.51,0,0,0,26,26.34Z" style="fill:#fff;fill-rule:evenodd"/><path d="M22.2,30.29a1.54,1.54,0,1,0,.65,2.08A1.54,1.54,0,0,0,22.2,30.29Z" style="fill:#fff;fill-rule:evenodd"/><path d="M34.93,31.3a1.53,1.53,0,1,0,.65,2.07A1.52,1.52,0,0,0,34.93,31.3Z" style="fill:#fff;fill-rule:evenodd"/><path d="M42.14,7.16C27.08-.24,12.55-1.54,9.7,4.27s7.05,16.5,22.12,23.9,29.59,8.7,32.44,2.89S57.21,14.56,42.14,7.16Z" style="fill:#bd2538;fill-rule:evenodd"/><path d="M42,7.55C28.65,1,15.82-.13,13.31,5S19.53,19.57,32.83,26.1,59,33.78,61.48,28.66,55.25,14.08,42,7.55Z" style="fill:#d62c44;fill-rule:evenodd"/><path d="M39.22,13.1C35.55,11.3,32,11,31.31,12.4s1.72,4,5.39,5.83,7.22,2.12,7.91.7S42.89,14.91,39.22,13.1Z" style="fill:#fff2cb;fill-rule:evenodd"/><path d="M31.82,28.17c-15.07-7.4-25-18.1-22.12-23.9-23.09,47,31.46,73.81,54.56,26.8C61.41,36.87,46.88,35.57,31.82,28.17Z" style="fill:#a01f2e;fill-rule:evenodd"/><path d="M51.58,34.46c-16.08,17.06-38,13.19-47-2.38,4.73,27.48,41.69,35.52,59.64-1C62.75,34.14,58,35.22,51.58,34.46Z" style="fill:#821a26;fill-rule:evenodd"/><path d="M13.23,21.21a2.93,2.93,0,1,0,1.34,3.93A2.94,2.94,0,0,0,13.23,21.21Z" style="fill:#6a161e;fill-rule:evenodd"/><path d="M19,28.85a1.32,1.32,0,1,0,.6,1.76A1.33,1.33,0,0,0,19,28.85Z" style="fill:#6a161e;fill-rule:evenodd"/><path d="M17.15,37.41a1.27,1.27,0,1,0,.58,1.7A1.27,1.27,0,0,0,17.15,37.41Z" style="fill:#6a161e;fill-rule:evenodd"/><path d="M37,37.8a1.86,1.86,0,1,0,.85,2.48A1.85,1.85,0,0,0,37,37.8Z" style="fill:#6a161e;fill-rule:evenodd"/><path d="M27.7,45a1.66,1.66,0,1,0,.76,2.22A1.66,1.66,0,0,0,27.7,45Z" style="fill:#6a161e;fill-rule:evenodd"/><path d="M49.49,40.77A1.17,1.17,0,1,0,50,42.34,1.17,1.17,0,0,0,49.49,40.77Z" style="fill:#6a161e;fill-rule:evenodd"/><path d="M40.09,46.83a1.46,1.46,0,1,0-1.29,2.63,1.46,1.46,0,0,0,1.29-2.63Z" style="fill:#6a161e;fill-rule:evenodd"/><path d="M18.11,46.76A.93.93,0,0,0,18.54,48a.93.93,0,0,0,.82-1.66A.93.93,0,0,0,18.11,46.76Z" style="fill:#6a161e;fill-rule:evenodd"/></g></g></svg>