<svg xmlns="http://www.w3.org/2000/svg" viewBox="0 0 981.74 981.74"><defs><style>.cls-1{stroke:#000;stroke-miterlimit:10;stroke-width:40px;}.cls-2{fill:#fff;}</style></defs><g id="Camada_2" data-name="Camada 2"><g id="Layer_2" data-name="Layer 2"><path class="cls-1" d="M490.87,961.74A471,471,0,0,1,307.57,57a471,471,0,0,1,366.6,867.68A468,468,0,0,1,490.87,961.74Zm0-821.74C297.4,140,140,297.4,140,490.87S297.4,841.74,490.87,841.74s350.87-157.4,350.87-350.87S684.34,140,490.87,140Z"/><path class="cls-1" d="M157.91,157.91A476.69,476.69,0,0,0,118.17,203L778.72,863.57a477.67,477.67,0,0,0,84.85-84.85L203,118.17A476.69,476.69,0,0,0,157.91,157.91Z"/><path class="cls-2" d="M482.87,954.74A471,471,0,0,1,299.57,50a471,471,0,0,1,366.6,867.68A468,468,0,0,1,482.87,954.74Zm0-821.74C289.4,133,132,290.4,132,483.87S289.4,834.74,482.87,834.74s350.87-157.4,350.87-350.87S676.34,133,482.87,133Z"/><path class="cls-2" d="M149.91,150.91A476.69,476.69,0,0,0,110.17,196L770.72,856.57a477.67,477.67,0,0,0,84.85-84.85L195,111.17A476.69,476.69,0,0,0,149.91,150.91Z"/></g></g></svg>