<svg xmlns="http://www.w3.org/2000/svg" viewBox="0 0 80.52 89.89"><g style="isolation:isolate"><g id="Layer_2" data-name="Layer 2"><g id="Layer_1-2" data-name="Layer 1"><path d="M79.34,31.47c-.48-.36-.77-.58-4.83-.73a7.37,7.37,0,0,0-7.79-9.08,2,2,0,0,1-.47,0,6.09,6.09,0,0,1-.28-.57,5.27,5.27,0,0,0-3.41-3.33,3.12,3.12,0,0,0-1-.14c-1,0-2.35.36-4.84,2.16,3.87-6.9,5.3-10.72,4.51-13C59.85,2.82,54.77,1,50.64,1a10.44,10.44,0,0,0-3.21.46,2.63,2.63,0,0,1-.84.1A20.84,20.84,0,0,1,42.44.84,24.52,24.52,0,0,0,37.14,0a6.91,6.91,0,0,0-2.51.42c-4.78,1.81-7,5.18-6.52,9.64-1.81-1.91-3.79-3-6-3a5.67,5.67,0,0,0-1.09.1c-5.43,1-6.64,3.74-7.72,6.17a9.33,9.33,0,0,1-2.22,3.47c-3.6,3.29-5.23,6.45-4.85,9.37A7.44,7.44,0,0,0,8.9,30.77l-3.33,0-3.32,0a2.11,2.11,0,0,0-2,1.43C-.27,33.78.12,40,.4,43.51c.79,9.94,1.54,10.57,2.14,11.08a3.4,3.4,0,0,0,2.07.73C5.83,63.94,7.53,74.89,9.07,81v0c0,.13.07.26.1.38v0c0,.13.06.25.1.38v0l.09.33v.06c0,.12.07.24.1.35v0c0,.11.07.22.1.32v0c0,.11.06.21.1.33v0l.09.29,0,0q0,.15.09.27l0,0c0,.09.07.18.09.25l0,.06.1.25,0,0c0,.08.06.16.09.22l0,.07.09.2,0,.07a1.14,1.14,0,0,1,.1.19l0,.07.1.18,0,.07a1.4,1.4,0,0,0,.12.18l0,.07.13.17.08.1.13.14.11.12.32.26c.83.57,1.85,1.28,17.4,1.39a2.85,2.85,0,0,0,2.27,1.23l1.69.05,6.76.31c1.38.07,2.44.11,3.47.14h2a9.46,9.46,0,0,0,2-.2A3.3,3.3,0,0,0,49.41,88c6.7-.13,16.7-.4,18.31-.87,1.45-.41,2.24-1.53,3-4.26.9-3.24,1.89-9.16,3-18.12.37-2.91.74-6.1,1.11-9.49,1,0,1.1,0,1.2,0,1.45-.18,1.81-1.56,2-2.47a106,106,0,0,0,1.91-11C81,33.44,80.38,32.24,79.34,31.47Z" style="fill:#1f2758"/><path d="M77.87,33.05C76.39,32,4,32.8,2,32.8c-.89,0,.52,19.41,1.57,20.29.15.13.31.26,2.52.37,1.73,12.41,4.53,30.37,6.42,31.68.41.29,1.51,1,20.58,1,13.45,0,32.08-.45,33.84-1,.78-.22,2.07-.59,4.6-20.74.49-3.93.94-7.87,1.29-11.17,1.6,0,2.56,0,2.73-.07C76.15,53.17,79.35,34.15,77.87,33.05Z" style="fill:#88a53d"/><path d="M6.07,53.59C7.8,66,10.58,83.84,12.47,85.14c.41.29,1.51,1,20.58,1,13.45,0,32.08-.45,33.84-1,.78-.22,2.07-.59,4.6-20.74.49-3.93.94-7.87,1.29-11.17,1.6,0,2.56,0,2.73-.07C75.51,53.26,13.84,52.71,6.07,53.59Z" style="fill:#788a38"/><path d="M10.84,57.46c-2.21-.11-2.38-.25-2.53-.38-1-.88-4.33-15.09,2.36-17,1.66-.47,51.53-3.9,67.54-3.38.11-2,0-3.37-.34-3.64C76.39,32,4,32.8,2,32.8c-.89,0,.52,19.41,1.57,20.29.15.13.31.26,2.52.37,1.73,12.41,4.53,30.37,6.42,31.68.2.14.59.41,3.33.64C14.11,79.74,12.16,67,10.84,57.46Z" style="fill:#fcf7bb;opacity:0.63;mix-blend-mode:overlay"/><path d="M6.07,53.59c.23,1.7.49,3.49.76,5.33,10.89-1.4,29.09-1.74,44,2.32,6.05,1.65,13.49,6.62,19.45,12.34.38-2.46.79-5.45,1.25-9.08.49-3.93.94-7.87,1.29-11.17,1.6,0,2.56,0,2.73-.07C75.51,53.26,13.84,52.71,6.07,53.59Z" style="fill:#88a53d;mix-blend-mode:multiply"/><path d="M54.72,32.48,52.65,51.89v1.2h2.72l-3.28,33.1s-6.91,1-7.44,1.09-.91-34.16-.91-34.45,1-18.94,1.53-19.08S54.72,32.48,54.72,32.48Z" style="fill:#88a53d;mix-blend-mode:multiply"/><path d="M42.6,39.2c4.83-8.75,17.92-27.72,16.51-31.72s-8.2-5.2-11.35-4.16S38.35,1,35,2.26s-6.88,3.88-4.59,10.32,8.74,27.33,8.74,27.33Z" style="fill:#bc2025"/><path d="M47.57,36.33c9-.9,23.79-2.91,24.75-6.11s-2.06-7.08-5.62-6.61-2-3-5-3.95S47.73,30.45,45.2,33,47.57,36.33,47.57,36.33Z" style="fill:#bc2025"/><path d="M56.28,29.57c-.63-.34-5.64.65-8.63,3a6.9,6.9,0,0,0-2.38,3.8C47,35.23,56.91,29.9,56.28,29.57Z" style="fill:#6a110e"/><path d="M36.94,32.56c-3-7.5-8.82-24.75-15.85-23.48s-5.06,5.59-9,9.16S4.78,27,12.43,31s24.12,6.28,25.29,6.65S36.94,32.56,36.94,32.56Z" style="fill:#bc2025"/><path d="M42.43,38.06c1.55-5.17-.39-6,.65-19,0,0-1.76,9-2.73,13.45C39.71,35.46,42.43,38.06,42.43,38.06Z" style="fill:#6a110e"/><path d="M36.7,34.35c-1.14-1.73-13.18-12.89-13.18-12.89S27.78,28,30.15,31C31.72,33,36.7,34.35,36.7,34.35Z" style="fill:#6a110e"/><path d="M48.9,5l0,0a56.66,56.66,0,0,0-14.4-.47s-3.93,2.8-.73,7.37c2,2.85,7.7,1.42,12.66-.62,2.53,1.51,8.37.6,9.57-1.8C57.3,6.8,54.26,4.4,48.9,5Z" style="fill:#fff;opacity:0.48;mix-blend-mode:overlay"/><path d="M17.61,13.16s-6.08,7.16-6.93,9.61l-.07,0S8.83,26.58,12,27.64s7.28-6.43,8.56-7.72l0,0A9.77,9.77,0,0,0,22.82,17C25.45,11.5,22.54,9.6,17.61,13.16Z" style="fill:#fff;opacity:0.48;mix-blend-mode:overlay"/><path d="M64.45,25.37l-.13.07A14.08,14.08,0,0,0,61,21.39s-3.63,2.22-3.61,3.09c0,.57-1.5,1.35.57,2.25-1.21,1.1,1.47,3.13,2.19,4.12,1.46,2,6.43.68,9.71-.94S69.26,26.21,64.45,25.37Z" style="fill:#fff;opacity:0.48;mix-blend-mode:overlay"/><path d="M49,50.28a1,1,0,0,0-.11-.15l0,0a.33.33,0,0,0-.06-.06,1.34,1.34,0,0,0-.28-.18,1,1,0,0,0-.31-.09h-.26l-.85,0-1.7,0c-4.53.1-9.06.17-13.59.13H30.71a.77.77,0,0,0-.26.07.93.93,0,0,0-.41.35.91.91,0,0,0-.11.25l0,.15v.11l0,.42,0,.85-.18,3.4c-.11,2.26-.22,4.53-.32,6.79-.16,4.53-.19,9.07,0,13.6.09,2.27.19,4.54.38,6.8a32.27,32.27,0,0,0,.39,3.39,3.57,3.57,0,0,0,.24.83.83.83,0,0,0,.74.46l1.7,0,6.79.31c1.14.06,2.27.11,3.41.14.57,0,1.13,0,1.71,0a8.44,8.44,0,0,0,1.77-.16,1.33,1.33,0,0,0,.92-.68,4.13,4.13,0,0,0,.29-.91c.13-.58.21-1.14.29-1.71.15-1.14.25-2.27.34-3.41.18-2.26.29-4.53.4-6.79.2-4.53.29-9.06.38-13.59q.06-3.41.08-6.8l0-1.7V50.89A1.19,1.19,0,0,0,49,50.28ZM45.78,86a24.22,24.22,0,0,1-3.56.15c-3.06,0-7-.15-9.39-.24l-1.29,0c-.65-2.91-.36-22,0-34.3H47.28C46.65,79,46.06,84.88,45.78,86Z" style="fill:#6a110e"/><path d="M47.22,51.65c-1.29.07-2.58.12-3.87.17s-2.62.09-3.93.13q-3.93.09-7.87.13l.5-.47c-.07,2.85-.11,5.71-.23,8.57l-.36,8.57c-.11,2.86-.16,5.72-.12,8.57,0,1.43.05,2.86.13,4.29,0,.71.07,1.43.13,2.13a15.15,15.15,0,0,0,.26,2.08l-.31-.26,7.12.08h3.55c.59,0,1.18,0,1.77,0a14.52,14.52,0,0,0,1.69-.13l-.45.42a8.93,8.93,0,0,0,.14-1c0-.35.07-.7.1-1,.06-.71.1-1.43.14-2.14.09-1.43.17-2.86.23-4.29l.43-8.6c.16-2.87.27-5.74.44-8.61S47,54.5,47.22,51.65Zm.12-.06c.07,2.88.09,5.75.09,8.63s0,5.75-.09,8.62-.13,5.75-.26,8.63c-.07,1.44-.15,2.87-.25,4.31-.06.72-.12,1.44-.19,2.16,0,.36-.07.72-.12,1.09a10.25,10.25,0,0,1-.19,1.13l-.08.37-.37.06a17.55,17.55,0,0,1-1.86.12q-.9,0-1.8,0c-1.19,0-2.38,0-3.57-.09l-3.57-.17-3.56-.23h-.27l0-.25A16.56,16.56,0,0,1,31,83.78c0-.72,0-1.44,0-2.16V77.33c0-2.87,0-5.72-.05-8.59s-.08-5.72-.08-8.58.1-5.72.21-8.58l0-.49h.47c2.63,0,5.25.07,7.87.13,1.31,0,2.62.07,3.93.13s2.62.1,3.93.17h.06Z" style="fill:#c53827"/><path d="M48,50.86C47.79,61.6,47.18,86,46.33,86.61s-13.89,0-15.24,0-.25-35.75-.25-35.75Z" style="fill:#bc2025"/><path d="M35.59,86.61c-1.35,0-.25-35.75-.25-35.75h-4.5s-1.09,35.73.25,35.75c1,0,9.08.4,13.06.27C40.39,86.81,36.31,86.62,35.59,86.61Z" style="fill:#fcf7bb;opacity:0.45;mix-blend-mode:overlay"/><path d="M49.15,33.21a1,1,0,0,0-.13-.42.67.67,0,0,0-.13-.17,1.21,1.21,0,0,0-.16-.16,1,1,0,0,0-.4-.18l-.12,0H46.12c-.82,0-1.63,0-2.45,0-1.63,0-3.27-.07-4.9-.13s-3.26-.17-4.9-.28l-2.45-.15h-.34a1.18,1.18,0,0,0-.45.1l-.11.06-.12.08,0,0,0,0,0,0-.08.09a1,1,0,0,0-.23.43.8.8,0,0,0-.05.23,1.49,1.49,0,0,0,0,.19v.31c0,.2,0,.41,0,.61,0,3.28.06,6.54.28,9.81s.43,6.53.45,9.8a.83.83,0,0,0,.21.61,1.27,1.27,0,0,0,.57.28,8.66,8.66,0,0,0,1.23.17c.82.07,1.64.08,2.46.12,1.63.07,3.27.13,4.91.17s3.27.06,4.91,0c.82,0,1.63,0,2.45,0a1.65,1.65,0,0,0,.47-.07,1.44,1.44,0,0,0,.48-.28,1.42,1.42,0,0,0,.32-.45,1.07,1.07,0,0,0,.09-.27c0-.06,0-.12,0-.14v-.15l0-1.22c-.08-3.25-.09-6.51,0-9.76.06-1.63.11-3.26.19-4.89l.12-2.44.07-1.22,0-.31v-.15A1.46,1.46,0,0,0,49.15,33.21Zm-17,19.69c.05-3-.43-16.1-.34-19.35L47.28,34a186.69,186.69,0,0,0-.53,18.74c-1.88.07-7.29.26-11.12.26C33.61,53,32.64,53,32.19,52.9Z" style="fill:#6a110e"/><path d="M47.22,34.06c-1.27.06-2.54.08-3.8.12s-2.58,0-3.87,0-2.57,0-3.86,0-2.57,0-3.85-.1l.52-.5c0,1.59-.07,3.21-.11,4.82s-.06,3.23,0,4.84,0,3.23.12,4.84.17,3.22.21,4.85l-.31-.35c1.18.06,2.4,0,3.61,0l3.63-.12,7.26-.3-.59.59c0-1.5,0-3.1,0-4.66s0-3.14.14-4.7.2-3.14.34-4.69c.08-.78.16-1.56.27-2.34S47.09,34.81,47.22,34.06Zm.12-.11-.06,2.4,0,2.34c0,1.56,0,3.12,0,4.68s0,3.11.08,4.67l0,2.35c0,.78,0,1.55,0,2.38l0,.56-.57,0c-1.21,0-2.43.08-3.64.1l-3.65,0c-1.22,0-2.43,0-3.65,0a35.42,35.42,0,0,1-3.68-.22l-.32,0,0-.31c0-.79,0-1.6.06-2.4s0-1.62,0-2.42c0-1.61-.05-3.23-.12-4.84s-.19-3.22-.28-4.83-.2-3.22-.19-4.86V33h.53c1.28,0,2.57.07,3.85.12s2.57.12,3.86.18,2.57.16,3.85.26,2.57.2,3.85.34Z" style="fill:#c53827"/><path d="M48.08,33.29a145.72,145.72,0,0,0-.63,20.15s-16,.67-16,0c0-1.5-.31-20.64-.31-20.64Z" style="fill:#bc2025"/><path d="M37.16,38.23c2.35-2.32,10.6-1.09,10.6-1.09.09-1.23.2-2.52.32-3.85L31.14,32.8s.31,19.14.31,20.64c0,.19,1.4.27,3.36.29C34.73,47.76,34.14,41.21,37.16,38.23Z" style="fill:#fcf7bb;opacity:0.5700000000000001;mix-blend-mode:overlay"/><path d="M19.86,13.47c-2.72,1.89-2.58,5.16,0,3.48S21.69,12.2,19.86,13.47Z" style="fill:#fff"/><path d="M15.22,19.9c-1.5,1.55-4.18,3.85-3,6s4.36-1.64,5.21-3.94S16.89,18.18,15.22,19.9Z" style="fill:#fff"/><path d="M41.67,6.11c-4.45,0-8.72,2.39-7.22,3.76s9.11-.57,13.63-.52S51.89,6.21,41.67,6.11Z" style="fill:#fff"/><path d="M45.85,34.16c-2.91-2.1-12.24-.56-12.88.64s-1.47,14.91-.63,11.75-.28-9.22,6.19-10.07S46.43,34.58,45.85,34.16Z" style="fill:#fff"/><path d="M10.11,33.74c-4.93-.21-8-.14-7,6.33s.08-.73,3.35-2S24,36.55,21,35.15,10.11,33.74,10.11,33.74Z" style="fill:#fff"/></g></g></g></svg>