<svg xmlns="http://www.w3.org/2000/svg" viewBox="0 0 100.31 111.99"><g id="Layer_2" data-name="Layer 2"><g id="Layer_1-2" data-name="Layer 1"><path d="M98.84,39.2c-.59-.44-1-.71-6-.9A9.17,9.17,0,0,0,83.12,27a2.64,2.64,0,0,1-.59,0c-.1-.16-.24-.49-.34-.71a6.6,6.6,0,0,0-4.26-4.15,3.91,3.91,0,0,0-1.2-.18c-1.23,0-2.93.46-6,2.69,4.82-8.58,6.6-13.35,5.62-16.16-1.75-5-8.09-7.26-13.23-7.26a13.1,13.1,0,0,0-4,.56A3.29,3.29,0,0,1,58,1.93a26.27,26.27,0,0,1-5.16-.88,30.87,30.87,0,0,0-6.61-1,8.63,8.63,0,0,0-3.13.52c-6,2.26-8.75,6.45-8.12,12-2.26-2.37-4.72-3.76-7.47-3.76a7.7,7.7,0,0,0-1.35.12c-6.76,1.22-8.28,4.66-9.62,7.7a11.67,11.67,0,0,1-2.76,4.32c-4.48,4.1-6.52,8-6,11.67a9.23,9.23,0,0,0,3.3,5.75l-4.14,0-4.14,0A2.63,2.63,0,0,0,.35,40.19c-.69,1.9-.2,9.59.15,14C1.49,66.59,2.42,67.38,3.16,68a4.26,4.26,0,0,0,2.58.9C7.26,79.66,9.38,93.3,11.3,101v0l.12.48v0c.05.16.09.31.13.47v0l.11.41,0,.08.12.43v0c0,.14.08.28.12.4l0,.06c0,.13.08.25.12.4v0l.12.36,0,.06c0,.12.08.24.12.34l0,.06c0,.11.08.22.11.32l0,.06.12.32,0,0a1.69,1.69,0,0,0,.11.27l0,.09a1.89,1.89,0,0,0,.11.25l0,.08a1.34,1.34,0,0,0,.12.24l0,.09.13.23.05.08.15.23,0,.08.16.21.1.13a1.29,1.29,0,0,0,.16.17l.14.15a3,3,0,0,0,.4.32c1,.72,2.3,1.6,21.68,1.73A3.53,3.53,0,0,0,39,111.35l2.1.06,8.42.39c1.72.09,3,.14,4.32.17l1.62,0h.88a11.84,11.84,0,0,0,2.46-.26,4.06,4.06,0,0,0,2.75-2.09c8.36-.17,20.81-.5,22.82-1.08,1.81-.51,2.78-1.9,3.73-5.31,1.13-4,2.36-11.42,3.76-22.58.45-3.62.92-7.59,1.38-11.81a13.12,13.12,0,0,0,1.49-.07c1.81-.23,2.26-1.94,2.56-3.08A131.14,131.14,0,0,0,99.66,52C101,41.65,100.13,40.17,98.84,39.2Z" style="fill:#8f191c"/><path d="M97,41.17C95.17,39.8,5,40.86,2.44,40.86c-1.11,0,.65,24.18,2,25.28.19.16.39.33,3.14.47,2.15,15.45,5.64,37.83,8,39.46.52.36,1.89,1.31,25.65,1.31,16.76,0,40-.56,42.16-1.19,1-.27,2.57-.73,5.72-25.83.62-4.9,1.17-9.8,1.62-13.92,2,0,3.18-.07,3.38-.09C94.87,66.24,98.85,42.54,97,41.17Z" style="fill:#d22026"/><path d="M13.5,71.59c-2.75-.14-3-.31-3.14-.47C9.05,70,5,52.31,13.29,49.92c2.07-.59,64.19-4.86,84.15-4.21.13-2.44,0-4.19-.43-4.54C95.17,39.8,5,40.86,2.44,40.86c-1.11,0,.65,24.18,2,25.28.19.16.39.33,3.14.47,2.15,15.45,5.64,37.83,8,39.46.26.18.74.51,4.16.79C17.58,99.34,15.15,83.43,13.5,71.59Z" style="fill:#fdc010;opacity:0.53"/><path d="M7.56,66.76c2.16,15.45,5.63,37.69,8,39.31.52.36,1.89,1.31,25.65,1.31,16.76,0,40-.56,42.16-1.19,1-.27,2.57-.73,5.72-25.83.62-4.9,1.17-9.8,1.62-13.92,2,0,3.18-.07,3.38-.09C94.06,66.35,17.24,65.67,7.56,66.76Z" style="fill:#a51e22"/><path d="M7.56,66.76c.29,2.11.62,4.35,1,6.65,13.32-1,43.54-2.91,53.23-.34,7.55,2,18.35,11.47,25.77,18.6.47-3.07,1-6.79,1.55-11.31.62-4.9,1.17-9.8,1.62-13.92,2,0,3.18-.07,3.38-.09C94.06,66.35,17.24,65.67,7.56,66.76Z" style="fill:#8f191c;opacity:0.52"/><path d="M8.86,71.21c8.06-.91,62.58-.6,80.68-.47.17-1.5.33-2.94.48-4.3,2,0,3.18-.07,3.38-.09,0,0-76.82-.68-86.5.41.29,2.11.61,4.35.95,6.65l1.31-.1C9.06,72.6,9,71.89,8.86,71.21Z" style="fill:#8f191c"/><path d="M68.17,40.47,65.59,64.65v1.49H69l-4.09,41.24s-8.6,1.3-9.27,1.35-1.13-42.56-1.13-42.91S55.74,42.22,56.4,42,68.17,40.47,68.17,40.47Z" style="fill:#8f191c;opacity:0.52"/><path d="M53.07,48.83c6-10.89,22.32-34.52,20.57-39.51S63.43,2.84,59.5,4.13,47.78,1.24,43.65,2.81s-8.57,4.84-5.72,12.86,10.9,34.06,10.9,34.06Z" style="fill:#eb9a22"/><path d="M59.26,45.26c11.18-1.12,29.65-3.62,30.84-7.61s-2.57-8.82-7-8.23-2.44-3.76-6.24-4.93S59.47,37.93,56.31,41.14,59.26,45.26,59.26,45.26Z" style="fill:#eb9a22"/><path d="M70.11,36.83c-.78-.41-7,.82-10.74,3.73a8.51,8.51,0,0,0-3,4.74C58.57,43.9,70.9,37.25,70.11,36.83Z" style="fill:#8f191c"/><path d="M46,40.56C42.27,31.22,35,9.73,26.27,11.31s-6.3,7-11.15,11.41S6,33.59,15.49,38.58s30,7.82,31.5,8.29S46,40.56,46,40.56Z" style="fill:#eb9a22"/><path d="M52.86,47.41c1.93-6.44-.49-7.45.81-23.67,0,0-2.19,11.22-3.4,16.76C49.47,44.18,52.86,47.41,52.86,47.41Z" style="fill:#8f191c"/><path d="M45.72,42.8C44.3,40.64,29.3,26.73,29.3,26.73s5.31,8.19,8.26,11.87C39.52,41.05,45.72,42.8,45.72,42.8Z" style="fill:#8f191c"/><path d="M60.93,6.17l0,0c-5.58-.9-13.35-1.25-18-.59,0,0-4.9,3.5-.91,9.19,2.49,3.55,9.6,1.77,15.78-.77,3.15,1.88,10.42.75,11.92-2.25C71.38,8.47,67.6,5.48,60.93,6.17Z" style="fill:#fdc010"/><path d="M21.94,16.39s-7.58,8.92-8.64,12l-.08,0s-2.22,4.71,1.7,6,9.07-8,10.67-9.62l0,0a12.07,12.07,0,0,0,2.81-3.64C31.7,14.32,28.08,12,21.94,16.39Z" style="fill:#fdc010"/><path d="M80.29,31.6a1,1,0,0,0-.15.1A17.51,17.51,0,0,0,76,26.65s-4.52,2.76-4.5,3.85c0,.71-1.86,1.68.72,2.8-1.51,1.37,1.83,3.9,2.72,5.13,1.83,2.53,8,.86,12.1-1.17S86.28,32.65,80.29,31.6Z" style="fill:#fdc010"/><path d="M61,62.63c0-.05-.1-.13-.13-.17l0-.05-.08-.08a1.24,1.24,0,0,0-.34-.22A1.17,1.17,0,0,0,60,62h-.32l-1.06,0-2.12,0c-5.64.13-11.28.22-16.93.16H38.26a1.59,1.59,0,0,0-.33.09,1.25,1.25,0,0,0-.5.44,1.23,1.23,0,0,0-.14.31,1.16,1.16,0,0,0,0,.18v.15l0,.52,0,1.06-.23,4.23c-.14,2.82-.28,5.64-.4,8.46-.19,5.65-.24,11.3,0,16.95.11,2.82.24,5.65.47,8.47.13,1.4.22,2.82.48,4.22a5.49,5.49,0,0,0,.3,1,1.07,1.07,0,0,0,.93.58l2.12.06,8.46.39c1.41.07,2.82.13,4.24.16.71,0,1.42,0,2.13,0a10.75,10.75,0,0,0,2.21-.2,1.66,1.66,0,0,0,1.15-.84,5.31,5.31,0,0,0,.36-1.14c.16-.72.26-1.43.35-2.13.19-1.42.32-2.83.43-4.24.23-2.82.36-5.65.5-8.47.25-5.64.36-11.29.47-16.93.06-2.82.08-5.65.11-8.47l0-2.12V63.4A1.43,1.43,0,0,0,61,62.63Zm-4,44.54a29.36,29.36,0,0,1-4.45.19c-3.81,0-8.74-.18-11.69-.3L39.29,107c-.81-3.62-.44-27.39,0-42.73h19.6C58.12,98.47,57.38,105.75,57,107.17Z" style="fill:#8f191c"/><path d="M58.83,64.35c-1.61.09-3.21.14-4.82.21s-3.27.11-4.9.16c-3.27.08-6.53.13-9.8.17l.61-.6c-.08,3.56-.13,7.12-.27,10.68l-.46,10.68c-.13,3.56-.19,7.12-.14,10.68,0,1.78.06,3.56.15,5.34,0,.89.1,1.78.16,2.66a20.88,20.88,0,0,0,.33,2.58l-.39-.32,8.88.11H52.6c.74,0,1.47,0,2.2,0a19.4,19.4,0,0,0,2.11-.17l-.56.53c.08-.37.13-.82.18-1.25s.08-.87.12-1.31c.07-.89.12-1.78.18-2.67.1-1.78.2-3.56.28-5.34l.54-10.72c.19-3.57.33-7.15.54-10.72S58.59,67.9,58.83,64.35Zm.15-.08c.09,3.59.12,7.17.11,10.75S59,82.18,59,85.77s-.17,7.16-.33,10.74c-.09,1.79-.18,3.58-.31,5.37-.07.9-.14,1.8-.23,2.7,0,.45-.09.9-.15,1.35a11.25,11.25,0,0,1-.24,1.41l-.11.46-.45.07a18.88,18.88,0,0,1-2.31.15c-.76,0-1.5,0-2.25,0-1.49,0-3-.06-4.45-.13s-3-.12-4.44-.21l-4.44-.27-.33,0-.06-.3a21.65,21.65,0,0,1-.22-2.73c0-.9,0-1.79,0-2.68V96.34c0-3.57,0-7.13-.07-10.7s-.1-7.13-.1-10.69.13-7.13.26-10.7l0-.6h.59c3.27,0,6.53.09,9.8.17,1.63.05,3.27.08,4.9.16s3.27.12,4.9.21H59Z" style="fill:#c53827"/><path d="M59.84,63.36c-.3,13.38-1.06,43.71-2.13,44.54s-17.3,0-19,0-.32-44.54-.32-44.54Z" style="fill:#e27826"/><path d="M44.33,107.9c-1.67,0-.31-44.54-.31-44.54h-5.6s-1.36,44.52.32,44.54c1.29,0,11.31.5,16.27.34C50.32,108.15,45.23,107.91,44.33,107.9Z" style="fill:#fdc010"/><path d="M61.23,41.37a1.37,1.37,0,0,0-.16-.52,1.83,1.83,0,0,0-.16-.22,1.24,1.24,0,0,0-.21-.19,1.23,1.23,0,0,0-.49-.23l-.15,0h-2.6c-1,0-2,0-3.05,0-2,0-4.07-.08-6.11-.16s-4.07-.21-6.1-.34l-3.05-.19h-.43a1.68,1.68,0,0,0-.57.13l-.13.08-.14.09,0,0,0,0,0,0-.11.11a1.52,1.52,0,0,0-.29.53,1.45,1.45,0,0,0-.05.29c0,.13,0,.16,0,.24v.38c0,.26,0,.52,0,.77,0,4.08.07,8.15.34,12.22s.54,8.13.57,12.2a1,1,0,0,0,.25.76,1.52,1.52,0,0,0,.72.35,10.07,10.07,0,0,0,1.53.22c1,.08,2,.1,3.06.15,2,.08,4.08.16,6.12.21s4.08.08,6.12,0c1,0,2,0,3.06-.07a2.16,2.16,0,0,0,.58-.08,1.68,1.68,0,0,0,.59-.35,1.88,1.88,0,0,0,.41-.56,1.61,1.61,0,0,0,.1-.35.8.8,0,0,0,0-.16v0a.31.31,0,0,0,0-.11v0l0-1.52c-.1-4-.11-8.11,0-12.16q.09-3,.22-6.09l.16-3,.09-1.52,0-.39v-.19A2.23,2.23,0,0,0,61.23,41.37ZM40.1,65.9c.07-3.77-.53-20.05-.42-24.1l19.22.55a230,230,0,0,0-.66,23.35c-2.34.09-9.08.33-13.85.33C41.87,66,40.67,66,40.1,65.9Z" style="fill:#8f191c"/><path d="M58.82,42.43c-1.58.08-3.15.11-4.73.15s-3.21,0-4.81,0-3.21,0-4.81,0-3.21-.06-4.81-.12l.66-.62c-.06,2-.1,4-.14,6s-.08,4-.07,6,.08,4,.16,6,.21,4,.26,6l-.38-.43c1.46.07,3,0,4.48,0l4.53-.15,9.05-.38-.74.73c0-1.87,0-3.85,0-5.79s.06-3.91.16-5.87.25-3.9.44-5.84c.08-1,.19-1.95.32-2.91S58.67,43.37,58.82,42.43Zm.16-.14-.07,3,0,2.92c0,1.94,0,3.89,0,5.83s0,3.88.09,5.82L59,62.77c0,1,0,1.94,0,3l0,.7-.71,0c-1.52.06-3,.09-4.54.12l-4.54,0c-1.52,0-3,0-4.56,0s-3-.09-4.57-.28l-.41,0,0-.38c.06-1,.07-2,.09-3s0-2,0-3c0-2-.06-4-.14-6s-.23-4-.35-6-.25-4-.24-6.06v-.63h.65c1.6,0,3.2.09,4.81.16s3.2.14,4.8.22,3.2.19,4.8.31,3.2.26,4.8.43Z" style="fill:#c53827"/><path d="M59.9,41.47a181.32,181.32,0,0,0-.79,25.11s-19.93.82-19.93,0c0-1.87-.39-25.71-.39-25.71Z" style="fill:#eb9a22"/><path d="M46.29,47.63c2.93-2.89,13.21-1.35,13.21-1.35.11-1.55.25-3.15.4-4.81l-21.11-.61s.39,23.84.39,25.71c0,.25,1.74.35,4.19.37C43.26,59.49,42.53,51.34,46.29,47.63Z" style="fill:#fdc010"/><path d="M24.75,16.78c-3.39,2.36-3.22,6.44,0,4.34S27,15.2,24.75,16.78Z" style="fill:#fff"/><path d="M19,24.8c-1.87,1.92-5.2,4.79-3.68,7.42s5.43-2,6.49-4.91S21,22.65,19,24.8Z" style="fill:#fff"/><path d="M51.91,7.61c-5.54-.05-10.86,3-9,4.68s11.35-.7,17-.64S64.64,7.73,51.91,7.61Z" style="fill:#fff"/><path d="M57.12,42.56c-3.63-2.61-15.25-.7-16,.79S39.24,61.93,40.29,58,39.94,46.51,48,45.46,57.84,43.08,57.12,42.56Z" style="fill:#fff"/><path d="M12.6,42c-6.15-.27-10-.18-8.69,7.88S4,49,8.08,47.41s21.86-1.87,18.1-3.62S12.6,42,12.6,42Z" style="fill:#fff"/></g></g></svg>