<svg xmlns="http://www.w3.org/2000/svg" viewBox="0 0 100.03 89.81"><g style="isolation:isolate"><g id="Layer_2" data-name="Layer 2"><g id="Layer_1-2" data-name="Layer 1"><path d="M99.2,23.47A30.93,30.93,0,0,0,87.87,6.7l-1.06-.79-.06,0V5.81l-.92-.61A30.13,30.13,0,0,0,70.55.06H68.78c-.36,0-.72,0-1.07.06h-.08l-.25,0a24,24,0,0,0-2.84.4A44.41,44.41,0,0,0,50,6.72,44.34,44.34,0,0,0,35.55.49,24,24,0,0,0,31.2,0C17.75-.35,4,10.29.81,23.41a26.23,26.23,0,0,0-.6,3.3l0,.21c-.06.53-.1,1-.13,1.44,0,.09,0,.19,0,.28v.12l0,1v.89c0,.17,0,.34,0,.51l0,.54h0C.87,46.08,13,58,23.48,66.81l.34.27.86.72c5.62,4.64,10.25,8.75,15.15,13.11l.08.07c2.62,2.32,5.31,4.72,8.23,7.25h0L49,89h0l1,.86,1.49-1.28C54.52,85.89,57.31,83.41,60,81l.13-.11c4.9-4.35,9.54-8.45,15.15-13.08C89.59,56,103.61,41.54,99.2,23.47Zm-26.68,41c-5.7,4.7-10.35,8.82-15.28,13.18-2.31,2-4.69,4.17-7.26,6.41-2.5-2.19-4.84-4.26-7.11-6.28l-.19-.16c-4.92-4.37-9.57-8.5-15.23-13.18l-1.17-1L26,63.2C16.14,54.94,4.83,43.81,4.37,30.94v-.46c0-.23,0-.45,0-.67s0-.56,0-.84v-.34c0-.38.07-.79.12-1.2l0-.19A21.13,21.13,0,0,1,5,24.45C7.76,13.37,19.21,4.35,30.57,4.35h.55a20.12,20.12,0,0,1,3.57.4c5.63,1.14,10.52,4,14.16,6.36l1.18.77,1.19-.76c3.64-2.36,8.55-5.22,14.18-6.36a19.62,19.62,0,0,1,2.32-.32l.28,0c.3,0,.59,0,.88,0h1.47a25.69,25.69,0,0,1,12.37,4l.7.47.8.55.06,0,1,.71A26.81,26.81,0,0,1,95,24.5C98.81,40.24,85.78,53.54,72.52,64.47Z" style="fill:#0c183a"/><path d="M65,2.64c-5.5,1.11-10.35,3.69-15,6.68-4.61-3-9.45-5.58-15-6.7C21.26-.19,6.19,10.68,2.94,23.93-1.34,41.38,13.32,55.58,26.06,66.12c8.81,7.28,15.25,13.3,23.85,20.77l.06,0,.07,0c8.6-7.46,15.05-13.47,23.86-20.74C86.67,55.62,101.34,41.45,97.09,24,93.85,10.73,78.79-.15,65,2.64Z" style="fill:#a31e21"/><path d="M2.43,33.31c8.53,8.53,21.37,14,35.74,14,25.68,0,46.49-17.34,46.49-38.73,0-.51,0-1,0-1.53C78.8,3.18,71.77,1.28,65,2.64c-5.5,1.11-10.35,3.69-15,6.68-4.61-3-9.45-5.58-15-6.7C21.31-.19,6.24,10.68,3,23.93A25.69,25.69,0,0,0,2.43,33.31Z" style="fill:#fff1a5;opacity:0.49;mix-blend-mode:overlay"/><path d="M62.16,10.55A35.08,35.08,0,0,0,50,16a35.35,35.35,0,0,0-12.13-5.44C26.68,8.25,14.45,17.07,11.81,27.82,8.34,42,20.24,53.5,30.58,62.05,37.72,68,43,72.85,49.93,78.9l0,0a.1.1,0,0,1,.05,0c7-6,12.21-10.93,19.36-16.83,10.36-8.54,22.27-20,18.82-34.21C85.58,17.11,73.36,8.28,62.16,10.55Z" style="fill:#fff;opacity:0.9400000000000001;mix-blend-mode:overlay"/><path d="M48.63,15.83S36.23,5.4,23.82,12.58C11.2,19.9,9.49,32.71,13.58,41S12,23.93,22,18.55C39.28,9.33,53.66,21.37,48.63,15.83Z" style="fill:#fff"/><path d="M63.54,13.34s10.34-2.25,17.08,5.57,6.18,4.44,3.45.69a23.1,23.1,0,0,0-17.38-9.54C57.61,9.48,57.63,13.5,63.54,13.34Z" style="fill:#fff"/><path d="M70.61,59.35S52.6,75.76,50,76.24,36.53,67.1,36.53,67.1,46.34,79.17,50,78.91,81.28,51.8,70.61,59.35Z" style="fill:#fff"/><path d="M50,79.61v7.94S77.81,65.34,86.73,55s13.58-22.11,12-26.19-.94-4.32-.94-4.32l-8.36,9.84S90.71,48.57,50,79.61Z" style="fill:#ed7223;mix-blend-mode:multiply"/><path d="M47.09,77.7l.84,8.65L50,87.55l2.32-1.87s-.09-7.65,0-8S50.16,80.22,47.09,77.7Z" style="fill:#010101;opacity:0.12;mix-blend-mode:multiply"/><path d="M49.79,9.14C37.19.55,28.07,2.32,28.07,2.32S29.65,9.5,35.23,10s14.84,6,14.84,6V9.32Z" style="fill:#ed7223;mix-blend-mode:multiply"/><path d="M59.86,4.15l1,5.85A20.54,20.54,0,0,1,76.4,12.84c7.57,5,6.65,2.24,6.75-.51a25.42,25.42,0,0,0-1.24-6.91S70.57-.95,59.86,4.15Z" style="fill:#fff;opacity:0.42;mix-blend-mode:overlay"/><path d="M25.48,2.73s.6,3.67,1.62,4.9a17.18,17.18,0,0,1,1.73,2.54S19.17,12.9,14.91,20.93s-.68,10-4.35,8.55S2.7,22.65,5.91,16.82,18.63,3.2,25.48,2.73Z" style="fill:#fff1a5;opacity:0.49;mix-blend-mode:overlay"/></g></g></g></svg>