<svg xmlns="http://www.w3.org/2000/svg" viewBox="0 0 72.97 67.12"><g id="Layer_2" data-name="Layer 2"><g id="Layer_1-2" data-name="Layer 1"><path d="M54.43,6.77c-9,0-13.46,4.48-17.94,13.45-4.49-9-9-13.45-18-13.45A17.94,17.94,0,0,0,.6,24.71C.6,42.65,15.09,60.76,36.49,66.5c18.26-4.9,35.88-23.85,35.88-41.79A17.94,17.94,0,0,0,54.43,6.77Z" style="fill:none;stroke:#67110d;stroke-miterlimit:22.925600000000003;stroke-width:1.1999px;fill-rule:evenodd"/><path d="M54.43,6.77c-9,0-13.46,4.48-17.94,13.45-4.49-9-9-13.45-18-13.45A17.94,17.94,0,0,0,.6,24.71C.6,42.65,15.09,60.76,36.49,66.5c18.26-4.9,35.88-23.85,35.88-41.79A17.94,17.94,0,0,0,54.43,6.77Z" style="fill:#67110d;fill-rule:evenodd"/><path d="M54.43.6C45.46.6,41,5.09,36.49,14.06,32,5.09,27.51.6,18.54.6A17.94,17.94,0,0,0,.6,18.54C.6,36.48,15.09,54.6,36.49,60.33c18.26-4.9,35.88-23.85,35.88-41.79A17.94,17.94,0,0,0,54.43.6Z" style="fill:none;stroke:#67110d;stroke-miterlimit:22.925600000000003;stroke-width:1.1999px;fill-rule:evenodd"/><path d="M54.43.6C45.46.6,41,5.09,36.49,14.06,32,5.09,27.51.6,18.54.6A17.94,17.94,0,0,0,.6,18.54C.6,36.48,15.09,54.6,36.49,60.33c18.26-4.9,35.88-23.85,35.88-41.79A17.94,17.94,0,0,0,54.43.6Z" style="fill:#b82025;fill-rule:evenodd"/><path d="M54.43.6C45.46.6,41,5.09,36.49,14.06,32,5.09,27.51.6,18.54.6A17.94,17.94,0,0,0,.6,18.54,39,39,0,0,0,8.73,41.75C1,16.22,24.28,8.48,36.66,22.75,45.65,9.59,57.44,7.18,71,11.69A17.94,17.94,0,0,0,54.43.6Z" style="fill:#e71e25;fill-rule:evenodd"/><path d="M54.43.6C45.46.6,41,5.08,36.49,14.06,32,5.08,27.51.6,18.54.6A17.94,17.94,0,0,0,.86,15.51c.05.47.12,1,.2,1.43A18,18,0,0,1,18.54,3.05c9,0,13.46,4.49,18,13.46,4.48-9,9-13.46,17.94-13.46A18,18,0,0,1,71.86,16.74c.09-.47.17-.93.23-1.39A18,18,0,0,0,54.43.6Z" style="fill:#fff;fill-rule:evenodd"/><path d="M11.54,3.24C6.91,4.73,3.83,8,4.66,10.6s5.26,3.45,9.89,2,7.71-4.79,6.88-7.37S16.17,1.75,11.54,3.24Z" style="fill:#fff;fill-rule:evenodd"/><path d="M47.7,3.14C43.07,4.63,40,7.93,40.82,10.5s5.25,3.45,9.88,2,7.72-4.8,6.89-7.37S52.33,1.64,47.7,3.14Z" style="fill:#fff;fill-rule:evenodd"/></g></g></svg>