<svg xmlns="http://www.w3.org/2000/svg" viewBox="0 0 61.7 80.96"><g id="Layer_2" data-name="Layer 2"><g id="Layer_1-2" data-name="Layer 1"><rect y="70.21" width="61.7" height="10.75" style="fill:#997d2e"/><path d="M30.81.54C17.22.54,6.2,12.68,6.2,27.65h7.62c0-10.34,7.61-18.72,17-18.72s17,8.38,17,18.72h7.62C55.42,12.68,44.4.54,30.81.54Z" style="fill:none;stroke:#989798;stroke-miterlimit:22.925600000000003;stroke-width:1.082px;fill-rule:evenodd"/><path d="M30.81.54C17.22.54,6.2,12.68,6.2,27.65h7.62c0-10.34,7.61-18.72,17-18.72s17,8.38,17,18.72h7.62C55.42,12.68,44.4.54,30.81.54Z" style="fill:#e5e5e5;fill-rule:evenodd"/><path d="M30.81.54C17.22.54,6.2,12.68,6.2,27.65h.11C7.49,13.89,18,3.12,30.81,3.12s23.33,10.77,24.5,24.53h.11C55.42,12.68,44.4.54,30.81.54Z" style="fill:#fff;fill-rule:evenodd"/><path d="M47.8,24.76C47.8,14.42,40.2,6,30.81,6s-17,8.38-17,18.72H6.34c-.09.95-.14,1.91-.14,2.89h7.62c0-10.34,7.61-18.72,17-18.72s17,8.38,17,18.72h7.62a27.56,27.56,0,0,0-.14-2.89Z" style="fill:#cbcbcb;fill-rule:evenodd"/><rect x="1.5" y="27.04" width="58.63" height="43.17" style="fill:none;stroke:#dab028;stroke-miterlimit:22.925600000000003;stroke-width:1.082px"/><rect x="1.5" y="27.04" width="58.63" height="43.17" style="fill:#f4c516"/><rect x="6.47" y="27.04" width="48.68" height="43.17" style="fill:#ffd222"/><rect x="18.37" y="27.04" width="24.89" height="43.17" style="fill:#fee004"/><path d="M30.74,38a7,7,0,0,0-4.19,12.59l-1.28,7.88H35.81l-1.18-7.67A7,7,0,0,0,30.74,38Z" style="fill:#f4c516;fill-rule:evenodd"/><path d="M30.74,40.18a7,7,0,0,0-4.19,12.58l-1.28,6.9v1H35.81v-1L34.63,53a7,7,0,0,0-3.89-12.8Z" style="fill:#fff;fill-rule:evenodd"/><path d="M30.74,39.19a7,7,0,0,0-4.19,12.59l-1.28,7.88H35.81L34.63,52a7,7,0,0,0-3.89-12.8Z" style="fill:#7a5723;fill-rule:evenodd"/><rect x="1.5" y="27.84" width="58.63" height="0.81" style="fill:#fff"/><path d="M30.74,42.22a4.92,4.92,0,0,0-2.95,8.86l-.9,5.54h7.42l-.83-5.39a4.92,4.92,0,0,0-2.74-9Z" style="fill:#010101;fill-rule:evenodd"/></g></g></svg>