<svg xmlns="http://www.w3.org/2000/svg" viewBox="0 0 242.54 350"><defs><style>.cls-1{fill:#212226;}</style></defs><g id="Camada_2" data-name="Camada 2"><g id="Layer_1" data-name="Layer 1"><path class="cls-1" d="M216.06,134.38V94.8a94.8,94.8,0,1,0-189.59,0v39.58A43.18,43.18,0,0,0,0,174.08V307a43.15,43.15,0,0,0,43,43H199.5a43.16,43.16,0,0,0,43-43V174.08A43.19,43.19,0,0,0,216.06,134.38ZM121.27,41.22A53.64,53.64,0,0,1,174.85,94.8V131H67.69V94.8A53.63,53.63,0,0,1,121.27,41.22ZM134.7,242.47v47.86a13.43,13.43,0,0,1-26.86,0V242.47a27.7,27.7,0,1,1,26.86,0Z"/></g></g></svg>