<svg xmlns="http://www.w3.org/2000/svg" xmlns:xlink="http://www.w3.org/1999/xlink" viewBox="0 0 98.31 90.61"><defs><linearGradient id="linear-gradient" x1="48.84" y1="19.76" x2="50.28" y2="79.51" gradientUnits="userSpaceOnUse"><stop offset="0.06" stop-color="#f7ec31"/><stop offset="0.27" stop-color="#e69724"/><stop offset="0.42" stop-color="#f2c918"/><stop offset="0.7" stop-color="#ebad21"/><stop offset="0.96" stop-color="#ba7029"/></linearGradient><linearGradient id="linear-gradient-2" x1="9.87" y1="45.31" x2="88.44" y2="45.31" gradientUnits="userSpaceOnUse"><stop offset="0" stop-color="#f6ec49"/><stop offset="0.58" stop-color="#f7c844"/><stop offset="0.63" stop-color="#f1bd3d"/><stop offset="0.75" stop-color="#e8aa31"/><stop offset="0.87" stop-color="#e2a029"/><stop offset="1" stop-color="#e09c27"/></linearGradient></defs><g style="isolation:isolate"><g id="Layer_2" data-name="Layer 2"><g id="Layer_1-2" data-name="Layer 1"><path d="M95.65,34.47c3-7.3-15.22-9.09-26.61-9.11C66.39,20.47,58.7,6.78,53.56,3c-5.71-4.2-15.87,12.27-21.82,22.39-11-.24-32.34,1.24-29.08,9.09C5.35,41,14.67,50.78,20.3,56.34c-3.44,9.75-9.25,32.77-.36,31.93,8.22-.78,23.53-9,29.21-12.14,5.69,3.18,21,11.36,29.22,12.14,8.89.84,3.08-22.18-.36-31.93C83.63,50.78,93,41,95.65,34.47Z" style="fill:#edc71a"/><path d="M97.34,29.79C93.61,24.2,79,23.16,70.42,23.05,66.72,16.31,59.94,4.8,54.94,1.12A5.66,5.66,0,0,0,51.54,0C45,0,37.54,11,30.42,23h-.94C22.26,23,5,23.7,1,29.79a5.73,5.73,0,0,0-.46,5.57C3.13,41.66,11.22,50.54,17.64,57c-2,6.06-7.56,24.66-2.94,31.18a5.63,5.63,0,0,0,4.77,2.46l.69,0c8-.76,21.46-7.65,29-11.8,7.53,4.15,21.05,11,29,11.8l.68,0h0a5.63,5.63,0,0,0,4.77-2.46C88.22,81.63,82.67,63,80.67,57c6.42-6.43,14.51-15.31,17.12-21.61A5.71,5.71,0,0,0,97.34,29.79ZM22.49,57.11,23,55.72l-1.05-1C16.63,49.45,7.36,39.75,4.8,33.58a1.11,1.11,0,0,1,0-1.21C6.39,30,15.35,27.68,29.48,27.68l2.21,0,1.36,0,.69-1.17C44.38,8.45,49.29,4.64,51.54,4.64a1.06,1.06,0,0,1,.65.22C57,8.4,64.74,22.29,67,26.46l.65,1.22H69c14,0,22.91,2.38,24.45,4.69a1.11,1.11,0,0,1,0,1.21C91,39.75,81.67,49.45,76.38,54.69l-1,1,.49,1.39c3.87,11,6.4,25,4,28.36a1,1,0,0,1-1,.5h-.25c-7.94-.76-23.67-9.27-28.3-11.86l-1.14-.63L48,74.1C43.39,76.69,27.66,85.2,19.72,86h-.24a1,1,0,0,1-1-.5C16.09,82.09,18.62,68.07,22.49,57.11Z" style="fill:#0c183a"/><path d="M95.65,34.47c3-7.3-15.22-9.09-26.61-9.11C66.39,20.47,58.7,6.78,53.56,3c-5.71-4.2-15.87,12.27-21.82,22.39-11-.24-32.34,1.24-29.08,9.09C5.35,41,14.67,50.78,20.3,56.34c-3.44,9.75-9.25,32.77-.36,31.93,8.22-.78,23.53-9,29.21-12.14,5.69,3.18,21,11.36,29.22,12.14,8.89.84,3.08-22.18-.36-31.93C83.63,50.78,93,41,95.65,34.47Z" style="fill:url(#linear-gradient)"/><path d="M88.16,36.21c2.54-6.12-12.77-7.62-22.33-7.64-2.22-4.1-8.67-15.59-13-18.76C48.06,6.29,39.54,20.1,34.55,28.59c-9.2-.2-27.14,1-24.4,7.62C12.41,41.67,20.23,49.9,25,54.56c-2.89,8.18-7.76,27.5-.3,26.79,6.9-.66,19.73-7.52,24.5-10.19,4.78,2.67,17.62,9.53,24.51,10.19,7.46.71,2.58-18.61-.3-26.79C78.08,49.9,85.9,41.67,88.16,36.21Z" style="fill:url(#linear-gradient-2)"/><g style="opacity:0.31;mix-blend-mode:multiply"><path d="M78,51.41c.38,1.09.8,2.35,1.22,3.72,5.66-5.69,13.91-14.61,16.42-20.66a3.42,3.42,0,0,0-.54-3.77C91.88,37.16,83.31,46.17,78,51.41Z" style="fill:#574c3b"/><path d="M20.3,51.41C15,46.17,6.42,37.15,3.19,30.69a3.43,3.43,0,0,0-.53,3.78c2.51,6.05,10.76,15,16.42,20.66C19.5,53.76,19.92,52.5,20.3,51.41Z" style="fill:#574c3b"/><path d="M78.37,83.34c-8.23-.79-23.53-9-29.22-12.14-5.68,3.18-21,11.35-29.21,12.14-2.9.27-4.22-2-4.59-5.49-.48,6.12.49,10.81,4.59,10.42,8.22-.78,23.53-9,29.21-12.14,5.69,3.18,21,11.36,29.22,12.14,4.1.39,5.07-4.3,4.59-10.42C82.59,81.35,81.26,83.61,78.37,83.34Z" style="fill:#574c3b;mix-blend-mode:multiply"/></g><path d="M30.07,78.46c.48-.19,12.84-5.41,16.16-7.65S49.68,69,59.28,74.64s14.53,6.47,16.27,5,.57,2.38-4,1.35S51.6,73.11,50.37,72.13,33.85,80.71,26.5,81.05,24.57,80.69,30.07,78.46Z" style="fill:#fff"/><path d="M65.83,28.57c-2.22-4.1-8.67-15.59-13-18.76C48.06,6.29,39.54,20.1,34.55,28.59c-9.2-.2-27.14,1-24.4,7.62C12.41,41.67,20.23,49.9,25,54.56c-.72,2.06-1.58,4.83-2.33,7.81,8.79,1.26,20.89-2,29.7-5.3C67.2,51.58,72.18,50.4,87.73,37.15c.15-.32.3-.63.43-.94C90.7,30.09,75.39,28.59,65.83,28.57Z" style="fill:#fff;opacity:0.49;mix-blend-mode:overlay"/><path d="M22.12,29c-4.82.88-10.9,2.65-11.41,4.71S23,33.65,25.16,31.46,26.94,28.12,22.12,29Z" style="fill:#fff"/><path d="M51.16,9.25c-2.27-.06-7.95,5.27-12,11.88s8.52-7,12-6.78S55.54,9.37,51.16,9.25Z" style="fill:#fff"/><path d="M34.93,30.05c0,.9-1.28,1.62-2.87,1.62s-2.87-.72-2.87-1.62,1.29-1.61,2.87-1.61S34.93,29.16,34.93,30.05Z" style="fill:#fff"/><path d="M83,30.93c-6.5-1.74-15-3.34-16.62-1.76s14.48,3.36,19.29,5.55C89.16,36.34,89.44,32.67,83,30.93Z" style="fill:#fff"/><path d="M54.06,3.79S53.59,9.64,52.35,9a2.58,2.58,0,0,0-2.76.26L48.42,3.79S51.56.83,54.06,3.79Z" style="fill:#fff"/><path d="M4.48,30.05A15.29,15.29,0,0,1,9,31.82L10.65,33a3.23,3.23,0,0,0-1,2.14c0,1.21.2,1.33.2,1.33S3,35.85,2.4,33.62A3,3,0,0,1,4.48,30.05Z" style="fill:#fff"/><path d="M93.38,29.61a19.11,19.11,0,0,0-3.21,1.64A5,5,0,0,0,88.44,33a8.39,8.39,0,0,1,.31,1.42v1.19s4.43-.49,5.79-1.19a2.58,2.58,0,0,0,.93-3.19C95.11,30.7,93.79,29.44,93.38,29.61Z" style="fill:#574c3b;opacity:0.31;mix-blend-mode:multiply"/><path d="M22.88,81.25S21,87.47,20.44,87.87s-2.85.72-3.7-.81-1.29-2.57-.87-3.46,5.43-3.86,5.43-3.86S22,81.25,22.88,81.25Z" style="fill:#574c3b;opacity:0.31;mix-blend-mode:multiply"/><path d="M75.06,81.25S77,87.47,77.5,87.87s2.85.72,3.7-.81,1.28-2.57.87-3.46-5.42-3.86-5.42-3.86S76,81.25,75.06,81.25Z" style="fill:#574c3b;opacity:0.31;mix-blend-mode:multiply"/><path d="M49.62,72.14v4S26.73,87.64,23.83,88.2l-2.9.56,2.9-6.17S47.06,74.32,49.62,72.14Z" style="fill:#574c3b;opacity:0.31;mix-blend-mode:multiply"/><path d="M34.55,28.59l-2.81-3.21S39,11.8,44.32,7s8.12-5.9,8.08-2-1.24,4.21-1.24,4.21S45.19,9.75,34.55,28.59Z" style="fill:#fff;opacity:0.7000000000000001;mix-blend-mode:overlay"/></g></g></g></svg>