<svg xmlns="http://www.w3.org/2000/svg" xmlns:xlink="http://www.w3.org/1999/xlink" viewBox="0 0 73.47 75.35"><defs><linearGradient id="GradientFill_2" x1="36.74" y1="65.62" x2="36.74" y2="1.43" gradientUnits="userSpaceOnUse"><stop offset="0" stop-color="#ffcc12"/><stop offset="1" stop-color="#fcee34"/></linearGradient></defs><g id="Layer_2" data-name="Layer 2"><g id="Layer_1-2" data-name="Layer 1"><path d="M69.46,29.66,49.12,26.6c-2.06-4.15-6.66-19-12.46-19.1S26.26,22.76,24.35,26.6L4,29.66c-3.92.76-4.29,4.13-2.15,6.21L16.58,50.31,13.33,69.9c-.57,3.63,2.7,6,5.69,4.36L36.74,65l17.71,9.23c3,1.6,6.26-.73,5.69-4.36L56.89,50.31,71.61,35.87C73.74,33.79,73.37,30.42,69.46,29.66Z" style="fill:none;stroke:#f9a01b;stroke-miterlimit:22.925600000000003;stroke-width:1.1458000000000002px;fill-rule:evenodd"/><path d="M69.46,29.66,49.12,26.6c-2.06-4.15-6.66-19-12.46-19.1S26.26,22.76,24.35,26.6L4,29.66c-3.92.76-4.29,4.13-2.15,6.21L16.58,50.31,13.33,69.9c-.57,3.63,2.7,6,5.69,4.36L36.74,65l17.71,9.23c3,1.6,6.26-.73,5.69-4.36L56.89,50.31,71.61,35.87C73.74,33.79,73.37,30.42,69.46,29.66Z" style="fill:#f9a01b;fill-rule:evenodd"/><path d="M69.46,22.73,49.12,19.67C47.06,15.52,42.46.65,36.66.57s-10.4,15.26-12.31,19.1L4,22.73c-3.92.76-4.29,4.13-2.15,6.2L16.58,43.38,13.33,63c-.57,3.63,2.7,6,5.69,4.36L36.74,58.1l17.71,9.23c3,1.6,6.26-.73,5.69-4.36L56.89,43.38,71.61,28.93C73.74,26.86,73.37,23.49,69.46,22.73Z" style="fill:none;stroke:#f9a01b;stroke-miterlimit:22.925600000000003;stroke-width:1.1458000000000002px;fill-rule:evenodd"/><path d="M69.46,22.73,49.12,19.67C47.06,15.52,42.46.65,36.66.57s-10.4,15.26-12.31,19.1L4,22.73c-3.92.76-4.29,4.13-2.15,6.2L16.58,43.38,13.33,63c-.57,3.63,2.7,6,5.69,4.36L36.74,58.1l17.71,9.23c3,1.6,6.26-.73,5.69-4.36L56.89,43.38,71.61,28.93C73.74,26.86,73.37,23.49,69.46,22.73Z" style="fill-rule:evenodd;fill:url(#GradientFill_2)"/><path d="M36.66.57c-5.79-.08-10.4,15.26-12.31,19.1L4,22.73c-3.92.76-4.29,4.13-2.15,6.2l2,1.95c.17-8.15,23-.52,27.73-6.51,4.37-5,4.76-22.59,13.09-15C42.47,4.82,39.74.62,36.66.57Z" style="fill:#f6eb16;fill-rule:evenodd"/><path d="M69.46,22.73,49.12,19.67C54.2,32,58.2,27.22,72.89,25.82,72.75,24.43,71.67,23.16,69.46,22.73Z" style="fill:#f6eb16;fill-rule:evenodd"/><path d="M16.58,43.38,13.33,63a4.56,4.56,0,0,0,.4,2.82C19.84,56,25.44,50.51,16.58,43.38Z" style="fill:#f6eb16;fill-rule:evenodd"/><path d="M69.46,22.73,49.12,19.67C47.06,15.52,42.46.65,36.66.57s-10.4,15.26-12.31,19.1L4,22.73c-3.31.64-4.09,3.14-3,5.15a4.36,4.36,0,0,1,3-1.74l20.33-3.07C26.26,19.24,30.87,3.9,36.66,4s10.4,14.94,12.46,19.09l20.34,3.07a4.35,4.35,0,0,1,3,1.74C73.54,25.87,72.76,23.37,69.46,22.73Z" style="fill:#fff;fill-rule:evenodd"/><path d="M37.09,2.9c-2.41,0-5.79,3.12-7.55,7s-1.24,7,1.16,7,5.79-3.12,7.55-7S39.49,2.9,37.09,2.9Z" style="fill:#fff;fill-rule:evenodd"/></g></g></svg>