<svg xmlns="http://www.w3.org/2000/svg" xmlns:xlink="http://www.w3.org/1999/xlink" viewBox="0 0 66.2 79.44"><defs><linearGradient id="linear-gradient" x1="33.17" y1="74.3" x2="33.17" y2="-0.58" gradientUnits="userSpaceOnUse"><stop offset="0" stop-color="#3cc5eb"/><stop offset="1" stop-color="#90d2c8"/></linearGradient></defs><g id="Layer_2" data-name="Layer 2"><g id="Layer_1-2" data-name="Layer 1"><path d="M60.17,6.68H26.55c-5,0-7.78,3.58-9.25,6.82L2.39,46.24c-1.13,2.84-1.5,5.47,3.9,5.93l7.05.7-9,19.32c-3.44,6.69-2.62,8.25,1.33,5L48.52,45.29c4-3.07,3.74-5.76-1.43-6L42.26,39,63.33,14C66.13,10.23,64.15,6.64,60.17,6.68Z" style="fill:none;stroke:#0d76b7;stroke-miterlimit:22.925600000000003;stroke-width:1.1996px;fill-rule:evenodd"/><path d="M60.17,6.68H26.55c-5,0-7.78,3.58-9.25,6.82L2.39,46.24c-1.13,2.84-1.5,5.47,3.9,5.93l7.05.7-9,19.32c-3.44,6.69-2.62,8.25,1.33,5L48.52,45.29c4-3.07,3.74-5.76-1.43-6L42.26,39,63.33,14C66.13,10.23,64.15,6.64,60.17,6.68Z" style="fill:#0d76b7;fill-rule:evenodd"/><rect x="0.46" y="71.95" width="5.31" height="6.21" style="fill:#0d76b7"/><rect y="42.53" width="7.3" height="7.08" style="fill:#0d76b7"/><rect x="45.44" y="34.73" width="7.3" height="7.08" style="fill:#0d76b7"/><rect x="58.9" y="3.98" width="7.3" height="7.07" style="fill:#0d76b7"/><path d="M60.17.6H26.55c-5,0-7.78,3.59-9.25,6.82L2.39,40.16C1.26,43,.89,45.64,6.29,46.09l7.05.7-9,19.32c-3.44,6.69-2.62,8.25,1.33,5L48.52,39.21c4-3.07,3.74-5.76-1.43-6L42.26,33,63.33,7.88C66.13,4.16,64.15.56,60.17.6Z" style="fill:none;stroke:#0d76b7;stroke-miterlimit:22.925600000000003;stroke-width:1.1996px;fill-rule:evenodd"/><path d="M60.17.6H26.55c-5,0-7.78,3.59-9.25,6.82L2.39,40.16C1.26,43,.89,45.64,6.29,46.09l7.05.7-9,19.32c-3.44,6.69-2.62,8.25,1.33,5L48.52,39.21c4-3.07,3.74-5.76-1.43-6L42.26,33,63.33,7.88C66.13,4.16,64.15.56,60.17.6Z" style="fill-rule:evenodd;fill:url(#linear-gradient)"/><path d="M60.17.6H26.55c-5,0-7.78,3.59-9.25,6.82l-11,24.11C15,19.83,44.05,5.19,64.5,5.52,65.18,2.78,63.29.57,60.17.6Z" style="fill:#aadee9;fill-rule:evenodd"/><path d="M47.09,33.23,42.26,33l7.55-9C44.7,29.47,39,33.88,31.87,35.47c12.45.31,4.31,11.29-12.84,25.71l29.49-22C52.48,36.14,52.26,33.45,47.09,33.23Z" style="fill:#aadee9;fill-rule:evenodd"/><polygon points="42.26 32.97 40.75 34.76 46 35.04 46 33.17 42.26 32.97" style="fill:#fff;fill-rule:evenodd"/><path d="M47.09,33.23,46,33.17V35l2.73.15a9,9,0,0,1,2.52.41C51.36,34.27,50,33.35,47.09,33.23Z" style="fill:#fff;fill-rule:evenodd"/><path d="M4.3,66.11c-2.94,5.71-2.77,7.68-.21,6.15a29.89,29.89,0,0,1,1.85-4.19l9.84-21-2.44-.24Z" style="fill:#fff;fill-rule:evenodd"/><path d="M26.55.6c-5,0-7.78,3.59-9.25,6.82L2.39,40.16c-.86,2.17-1.28,4.22,1,5.27A6.66,6.66,0,0,1,4,42.12L18.93,9.38c1.48-3.24,4.22-6.86,9.25-6.82H46V.6Z" style="fill:#fff;fill-rule:evenodd"/><path d="M60.17.6H46v2H61.8a5.16,5.16,0,0,1,2.64.64A4.18,4.18,0,0,0,60.17.6Z" style="fill:#fff;fill-rule:evenodd"/><path d="M29.85,1.47c-4.09,0-9.52,3.46-12.12,7.73s-1.4,7.73,2.69,7.73,9.52-3.46,12.12-7.73S33.94,1.47,29.85,1.47Z" style="fill:#fff;fill-rule:evenodd"/><path d="M46,33.75c-1.61.39-2.14,1.48-1.18,2.44a5.45,5.45,0,0,0,4.65,1c1.61-.39,2.14-1.48,1.18-2.44A5.41,5.41,0,0,0,46,33.75Z" style="fill:#fff;fill-rule:evenodd"/></g></g></svg>