<svg xmlns="http://www.w3.org/2000/svg" xmlns:xlink="http://www.w3.org/1999/xlink" viewBox="0 0 170.92 186.39"><defs><linearGradient id="linear-gradient" x1="160.3" y1="43.16" x2="103.81" y2="57.23" gradientUnits="userSpaceOnUse"><stop offset="0" stop-color="#db7d54"/><stop offset="1" stop-color="#c26142"/></linearGradient><linearGradient id="linear-gradient-2" x1="58.79" y1="35.11" x2="145.37" y2="35.11" gradientUnits="userSpaceOnUse"><stop offset="0" stop-color="#ff9b75"/><stop offset="1" stop-color="#d0714c"/></linearGradient><linearGradient id="linear-gradient-3" x1="94.64" y1="81.65" x2="40.11" y2="84.3" xlink:href="#linear-gradient"/><linearGradient id="linear-gradient-4" x1="25.5" y1="55.38" x2="69.76" y2="112.33" xlink:href="#linear-gradient-2"/></defs><g id="Layer_2" data-name="Layer 2"><g id="Layer_1-2" data-name="Layer 1"><path d="M168.6,18.11c-1-1-10.73,2-13.16,4.4L143.73,34.23,152.49,43,164.2,31.27C166.62,28.85,169.61,19.12,168.6,18.11Z" style="fill:#8892a1"/><path d="M166.06,19.29c-3.82,1.57-7.08,2.82-8.11,3.86L145.47,35.63l-.29.31L149,39.67l.27-.29L161.7,26.91C162.74,25.87,167.42,18.73,166.06,19.29Z" style="fill:#d9ebff"/><path d="M151.94,93.58c-5.12,4.32-13.05,8.85-19.48,8.57-12.53-.54-24.4-12-33.89-27.15-14.37-23-16-51.34-.87-64.07,2.52-2.13,7.5-4.27,10.43-5.25C122.74.79,141.31,9.75,153.29,28.9,167.65,51.89,167.05,80.85,151.94,93.58Z" style="fill:#307800"/><path d="M147.07,96.55c-15.18,12.79-39.19,4.43-53.63-18.67s-13.83-52.19,1.35-65S134,8.47,148.42,31.56,162.25,83.76,147.07,96.55Z" style="fill:#5ca306"/><path d="M145.9,94.67c-14.5,12.21-37.43,4.23-51.22-17.83S81.47,27,96,14.78s37.43-4.23,51.22,17.83S160.39,82.45,145.9,94.67Z" style="fill:#bae160"/><path d="M101,36.29c1.67-11.7,32.51-10.29,39.52.91S139,81.41,129.05,81.11,99.36,48,101,36.29Z" style="fill:#feffc2"/><path d="M137.06,39.3c.39-.44.44-.78.27-1.13s-.75-.48-1.51-.47c-2.34,0-10.41,1.76-12.27,2.19s.12,6.85.85,8.36,1.63.17,3.17-1.1C127.57,47.15,136.47,40,137.06,39.3ZM126.42,51.52c1,1.3,5.61,5.54,6.57,3.65s5-10.17,5.77-12.72c.25-.82.43-1.4.11-1.8s-.53-.35-1-.07c-.75.43-9.5,7.84-9.5,7.84C126.81,49.69,125.47,50.29,126.42,51.52Zm7.89,4.17c-.37,1,0,2,1.16,3s2.82,2.3,3.59,2.37,1.67-1.07,2.31-5.94.66-8.29.09-11.15c-.11-1-.93-1.85-1.39-.87S134.68,54.68,134.31,55.69ZM121.5,36c.43,1.56,1.1,2.31,2,2.24s11.15-2,12.19-2.22.54-1.35-.26-1.79c-2.15-1.55-5-2.66-9.15-3.53s-5.41-.26-5.61.6S121.07,34.48,121.5,36Zm-16.58,5.3c1.73,2.61,8.86,11.19,10.53,13.15s4.75-2.07,5.28-3.32-1.07-1.87-3.1-3.24c0,0-11.57-8-12.48-8.44-.6-.3-.87-.27-1,0S104.36,40.49,104.92,41.34ZM114.31,55c-.75-1-9.58-11.94-10.49-13.06s-1.35-.23-1.07.8C103.23,45.54,104.5,49,107,54s3.77,6.15,4.52,6.12,2-1.28,2.75-2.2A2.16,2.16,0,0,0,114.31,55Zm7.26-7c.18-1.49-.19-7.87-2.23-8.4s-10.84-2.73-13.2-2.88c-.77-.05-1.31-.09-1.35.39s.13.68.68,1.15c.86.73,12.49,8.45,12.49,8.45C120,48.06,121.39,49.4,121.57,48ZM120,35.8a15.81,15.81,0,0,0-.95-4.7c-.52-.89-2-1.56-5.89-.91s-6.34,1.61-7.94,3.06a1,1,0,0,0,.4,1.8c1.13.25,12.15,2.77,13.13,2.9S120.12,37.35,120,35.8Zm5.17,40.62c-.62-1.35-6.68-14.54-7.29-15.7s-1.41-1.42-2.42-.86-2.43,1.48-2.7,2.3.29,2.65,3.55,6.93,5.68,6.8,7.85,8.25C124.9,78,125.72,77.65,125.16,76.42Zm7.52,1.28c1.7-1.28,3.28-3.62,5.08-7.69s1.72-5.88,1.16-6.73a11.64,11.64,0,0,0-3.54-2.56c-1.22-.66-1.95-.46-2.16.66s-1.73,14-1.88,15.31S132.14,78.28,132.68,77.7Zm-5.13-2c-.09-1.16-2.85-16.39-2.85-16.39-.47-2.66-.51-4.61-1.65-4.44s-5.51,2.25-4.43,4.7,5.77,13,7.35,15.78c.51.88.86,1.5,1.24,1.43S127.61,76.5,127.55,75.75Zm4.53-15.55c.22-2.4-4.87-4.88-6.15-5.16s-.58,1.71-.11,4.36c0,0,2.54,15.23,2.86,16.4.2.76.42,1,.72,1.13s.55-.5.76-1.35C130.8,72.94,131.86,62.6,132.08,60.2Z" style="fill:#accd49"/><path d="M140.56,44.48c-.19-.11-1.19,1.52-1.5,3.11s-.07,2.4.37,2.66.91-.13,1.22-1.72A9.47,9.47,0,0,0,140.56,44.48Zm-2.81-2.12c-.16-.2-1.74.53-2.62,1.62s-.91,1.86-.56,2.31,1,.41,1.85-.68A6.23,6.23,0,0,0,137.75,42.36Zm-6.35-8.64c-1.41-.15-1.87.25-1.79.82s.66,1.08,2.06,1.23,3.05-.45,3-.69A6.48,6.48,0,0,0,131.4,33.72Zm4.15,5.12c-.11-.23-1.92-.17-3.08.46s-1.39,1.3-1.13,1.83.91.73,2.07.09S135.66,39.07,135.55,38.84Zm-29,7.91c-.91-1.69-2.55-3.48-2.71-3.37a11.6,11.6,0,0,0,1.39,4.23c.92,1.69,1.55,2.13,1.92,1.89S107.48,48.44,106.57,46.75Zm5.08-12.91c-.13-.59-.76-1.05-2.17-1s-3,.9-2.94,1.16A6,6,0,0,0,110,35C111.36,34.91,111.78,34.42,111.65,33.84Zm-3,11c1.32,1.21,2,1.3,2.18.85s-.12-1.25-1.44-2.46-3.24-2.1-3.33-1.9A11.13,11.13,0,0,0,108.61,44.89Zm3.65-4.29c.08-.54-.4-1.25-1.85-2s-3.36-1-3.39-.72a9.22,9.22,0,0,0,3.12,2.66C111.58,41.28,112.19,41.13,112.26,40.6Zm22.12,32.08c.48-1.55.3-2.39-.14-2.71s-1,0-1.45,1.54a9,9,0,0,0-.27,4C132.71,75.7,133.91,74.22,134.38,72.68ZM130,69.86c-.17-1.83-.61-2.58-1.07-2.66s-.77.53-.6,2.37a11.27,11.27,0,0,0,1.21,4.26C129.7,73.87,130.12,71.69,130,69.86Zm-4.17-.28c-.58-1.83-1.14-2.44-1.57-2.35s-.56.84,0,2.67a11.54,11.54,0,0,0,2.08,3.95A10.46,10.46,0,0,0,125.79,69.58Zm-3.7,2C121,70,120.33,69.73,120,70.06s-.15,1.17,1,2.7,2.89,3,3,2.85A11.91,11.91,0,0,0,122.09,71.58Z" style="fill:#d0e47c"/><path d="M32.21,61.43c3.31-5.88,8.67-16,11-15.66s1.34-1.34,2.34-3.34a46.06,46.06,0,0,1,7-9.66c7-7.4,111,41,115,45s3.69,6.91,2.84,8.29.16,3.37-1.51,8-4.67,8.33-7,12-3,6.33-5,7,.67,1.33-1.33,4.67-2.67,7.66-6.67,10.33-23,17.67-27,20.67-7.33,5-14,1-47.33-38.34-54.33-43.34-18.67-31.33-20.34-35S29.21,66.77,32.21,61.43Z" style="fill:#63210f"/><path d="M167.55,77.77c-4-4-6.67-6-5.34-8.67s1.34-3.67-7.66-9.33-56-52-60-56.34S87.55-.9,84,2.14s-4.15,2.29-4.15,4.63-.67,5.66-2.33,4.66-4.67,2.67-4,4.34-1.67-1.67-5.67,2.33-6.33,6-5,7.67-1,2.33-3,1.33-4,2-7.33,5.67l-.24.27A5.79,5.79,0,0,0,53,35.78c2,4.65,41.84,36.65,51.51,45.32,9.09,8.15,25.36,24.68,30,28s5.68-.33,8.33.33,3.05-1.33,9-6,3.31-4.64,2-8,5.3,0,7.29,0,4.65-5.3,9.21-9.43C171.24,84.68,171.55,81.77,167.55,77.77Z" style="fill:#9c4229"/><path d="M83.73,12.66C87,13,106,16.89,102.65,14.31s-6.79-7.16-8.82-9.37-4.22-5.33-7.9-2.2c-1.71,1.45-5.14,2-5.14,5.14S80.42,12.29,83.73,12.66ZM81,28.83c7.53.55,25.91.37,30.87.19s6.07-.92,3.31-2.94-5.7-5.52-10.66-7.36-12.31-2.57-16.72-3.3-8.64-2.76-11.21-1.66c-1.92.83-2,2.39,1.29,3.49s4,2.39.55,2-6.43-2-8.82-.18-4.78,5.52-4.23,6.62S73.44,28.28,81,28.83Zm54.91,21.1c5.33-.36-.7-5.48-4.56-8.79s-5.88-3.67-22.42-4.78-21.13-4.22-29-5.14-16-1.92-19.3-2c-6.06-.18-.18,3.86-3.3,4.59s-3.68,1.11-.74,3.86,15.07,4.41,33.08,8.09S130.55,50.3,135.88,49.93ZM94.39,30.3c-5-.18-11.21.19-4.78,1.47s25.72,3.86,30.87,4,6.25,0,3.67-1.83-4-4.23-7-3.68C112.47,31.18,99.35,30.49,94.39,30.3Zm55.49,28.48c-5.14-3.85-7-7.71-8.82-6.8s-6.06,1.11-19.29-.18-24.5-2.33-35.22-3.87c-12.22-1.75-29.47-7.15-19-1.09,4.58,2.66,9.92,12.86,17.09,13s37.85,1.47,48.32,2S155,62.64,149.88,58.78Zm-44.29,12.5c10.11-.37,31.8-.37,38.59-.18s11.58,1.83,13.6-.37,3.86-3.86,2-5.52-2.75-2-5-1.65c-3.45.58-14.92.94-24.29.21s-26-.85-31.83-.67-15.73-1.56-11,1.75S95.49,71.65,105.59,71.28Zm63.77,12.13c-2-1.47-7-2.58-3.86-3.13s.92-1.84-.92-3.3-2.39-3.31-5.51-3.13c-4.77.28-21.41-1-26.19-.42s-20.3-.5-26.18,0-4.23,2.21-.55,5,3.67,3.85,10.65,3.12,17.46.18,28.3-.55,18.93,1.65,9.56,1.47-19.3,1.28-25.18,1.28-17.64-.18-15.8,2.76,6.62,8.45,9,7.9,25.73-2.94,30.88-2.39,7.53,1.29,9.55-.55S171.38,84.88,169.36,83.41ZM149.51,93.7c-3.46-.46-16.72,1.47-20,2.39s-4.41,1.84-2.2,4.22,9.19,8.64,11.58,7.72,4.77-.37,7.9-2.76,7.71-5.14,6.8-6.79S152.27,94.07,149.51,93.7Z" style="fill:url(#linear-gradient)"/><path d="M89.73,9.65c4.33.55,7.36,1.1,5.52-.37s-2.39-3.68-5-5.71-5.76,1-7.09,2.49C81.35,8.08,85.4,9.1,89.73,9.65ZM71,25.48c7.22,1.08,22.39.57,29.27.46,11.14-.18,12.8-.83,10.13-2s-3.87-.93-9.11-1.85-10.68-.82-20.16-1.56-10.77-.65-12,.55C66.51,23.66,66.49,24.81,71,25.48Zm50.92,14.17c-12.7-2.3-26.42-2.57-34.06-5.15S73.73,32,67.75,31.19s-9.94-2.12-8.75.46c.94,2,1.84,4.32,9.3,5.33s20.89,5.25,33.14,5.62S134.57,42,121.87,39.65Zm0,16c9-.19,14.17-1.38,6.53-2s-29.82-2.85-39.67-4.32-22.46-5-16.29-.37c2.25,1.67,4,4.32,10.4,5.16S112.85,55.85,121.87,55.67Zm7.52,8.93c-9.8-1.07-27.27-.81-32.61-.53-6.77.36-8.91-.18-5.17,1.6s5.17,2,12.66,1.25,26.37.35,37.06-.36S139.19,65.67,129.39,64.6Z" style="fill:url(#linear-gradient-2)"/><path d="M167,92.05c-1.3,1.38-4.43,4.83-5.64,5.84s-1.41,1.81-2.82,4.63-2.21,5-.2,3.83,4.23-3,5-5S170.19,88.63,167,92.05Zm-7.85,15.71c-2.15,1.5-2.62-.81-4.44,1.21s-4.22,7.65-2.41,6,3-3.22,4.63-3.42S161.13,106.35,159.12,107.76Zm-11.08,7c1.61.6,2.62-.2,3.62-3.43s2.82-4.43,3.63-5.84,2.42-4.23.2-2.61a30.91,30.91,0,0,0-5,4c-1.21,1.41-2.22,1.62-2,3.83S146.43,114.2,148,114.81Zm-11.48,6.64c2.62-.8,2-4,4.23-4.43s-.4,3.23,1.21,2,3-2,3.62-4.23,1.61-5.64-.6-3.83c-1.44,1.18-1.81-.6-3.83.4a9.9,9.9,0,0,0-5,5.24C135,119.44,133.94,122.26,136.56,121.45Zm8.38-1.49c2.35-.69,3.12-.32.87.88s-1.83,1.1-2,2.34-.23,1.51,1.79.41,5.47-2.62,4.6-3.49-.6-1.24.18-2.25,1.06-2.62-.23-1.88c-1.9,1.08-.82-1.52-3.35.5S142.6,120.65,144.94,120Zm9.37-5a8.84,8.84,0,0,0-2.75,2.48c-1,1.15.69,1.33-.05,2.57s.55.92,1.52.32,1.19-1.74,2-3.12S156.24,113.62,154.31,114.91ZM152,121.52c-.74.19-.74-.23-1.93.42-2.86,1.54-3.22,2.66-5.06,3.86s-1.56,3,.46,2,3.91-2.9,5.06-3.49,1.47-.37,1.93-1.66S152.75,121.34,152,121.52Zm-1.57,3.4c-1.06.46-1.74,1.52-2.84,2.53s-2.81,2.25-1.06,1.61a12,12,0,0,0,3.77-2.53C150.82,126,152.38,124.1,150.45,124.92Zm-9.69-.18c1.56-.32,2.16,1.38,2.25-.55s.19-3.86-.82-3.49c-3,1.08-4.5,2.25-6.39,2.89s-2.43,3.45-1,3.12,2.76-.55,1.42.47a4.88,4.88,0,0,0-1.83,2.52c-.51,1,1.24,1.38,2.71.51s5.33-1.11,5-2.58S139.2,125.06,140.76,124.74Zm2.21,4.18a5.06,5.06,0,0,0-2.9,2c-.82.87-1.88,1.7-1.47.73s-.23-.83-1.1-.37,0,1.84-.69,3.31.55,1.65,2.07.51,2.94-2.62,3.72-3.13,1.61-1.1,1.61-1.7C144.21,129.18,144.25,128.74,143,128.92Zm-11.26,3.22c-2,.59-3.76,3-4.82,5.64s-.09,4.14,1.33,3.91,1.56-1.47,2.39-3.49,1.56-1.33,1,.18,1.1.83,2.3,0,2-1.2,1.56-2.16a5.75,5.75,0,0,1,.32-3.63C136.44,131,133.73,131.54,131.71,132.14Zm-.91-1c1.33-.66,1.83-.5,2.25-2.16s-.63-3.28-.08-4.42c.91-1.92-3.67.25-4.25,1.83a44.58,44.58,0,0,0-1.42,7.42C127.13,135.52,129.47,131.85,130.8,131.18Zm-1.25-7.33c1.75-1,4.41-.83,4.08-2.25s-1.08-6.25.09-5,2-1.83,2-1.83c.5-1.34,2.08-2.17.58-2.17-1.93,0-3.5.25-4.75,2.5S127.8,124.85,129.55,123.85Z" style="fill:#822d1c"/><path d="M51.87,45.47c3.89.91,11,2.51,8.23,0s-5.1-4.29-6.63-6.18c-3-3.65-3.66-.91-5.49,2.06S48,44.55,51.87,45.47ZM74.73,59C70.85,55.3,66,49.81,63.53,50s-15-3.47-19-2.52c-4.8,1.15-2.74,4.58.46,6.64s8,6.17,12.8,8.23,9.84,3,18.52,3.2S78.62,62.61,74.73,59ZM95.31,76.79C89.59,72.45,88.45,69,83.88,69c-6.18,0-21.72-3.89-14.63.68s16.46,8.69,22.4,10.06S101,81.14,95.31,76.79Zm10.06,8.92c-3.89-3.66-4.57-2.52-11.2-3.2s5.94,5.48,15.32,8.91S110,90.06,105.37,85.71Z" style="fill:#7a2617"/><path d="M78.7,50.8c-2.92,2.67-6,5.51-6.9,9.56C69.49,71.23,75.63,86.58,86.69,98.7c15.18,16.62,33.89,24.74,44.66,14.91.67-.61,3.61-3.88,4.17-4.58,8.42-10.51,4.38-30.33-9.85-45.92C110.49,46.49,89.46,41,78.7,50.8Zm51.1,56c-9.25,8.44-27.32,3.7-40.37-10.59S73.31,63.48,82.56,55s24.77-1.33,37.81,13S139.05,98.33,129.8,106.78Z" style="fill:#eb8ca1"/><path d="M75.82,53.68c-10.76,9.82-7.18,31.27,8,47.89s36.21,22.14,47,12.31,7.18-31.27-8-47.89S86.58,43.85,75.82,53.68Zm51.11,56c-9.25,8.45-27.33,3.71-40.37-10.58S70.43,66.35,79.68,57.91,107,54.2,120.06,68.49,136.18,101.21,126.93,109.65Z" style="fill:#c9508a"/><path d="M76.6,54.53c-10.45,9.55-7,30.38,7.77,46.54s35.18,21.5,45.64,12,7-30.37-7.77-46.53S87.06,45,76.6,54.53ZM124,107.25c-8,7.34-24,3-35.65-9.81S73.77,68.38,81.81,61s24-2.94,35.66,9.82S132.05,99.91,124,107.25Z" style="fill:#fce4ee"/><path d="M133.27,91.63a.92.92,0,0,0,.61.67.32.32,0,0,0,.43-.39.89.89,0,0,0-.61-.67A.32.32,0,0,0,133.27,91.63ZM77.65,55.68c-.17.15-.11.49.13.75s.56.35.73.19.11-.49-.12-.75S77.82,55.53,77.65,55.68Zm50.45,55.26c-.17.15-.11.49.13.75s.56.34.73.19.11-.49-.12-.75S128.27,110.78,128.1,110.94ZM108,114.73a.88.88,0,0,0,.6.66A.32.32,0,0,0,109,115a.89.89,0,0,0-.6-.67A.32.32,0,0,0,108,114.73ZM72.3,75.65a.89.89,0,0,0,.61.67c.29.07.48-.1.43-.39a.9.9,0,0,0-.61-.67A.32.32,0,0,0,72.3,75.65ZM97.6,52.56a.92.92,0,0,0,.61.67.33.33,0,0,0,.43-.4.89.89,0,0,0-.61-.66A.32.32,0,0,0,97.6,52.56ZM85,99.64c-.17.15-.11.49.12.75s.57.34.74.19.11-.49-.12-.75S85.16,99.48,85,99.64ZM120.76,67c-.17.15-.11.49.13.75s.56.34.73.19.11-.49-.12-.75S120.93,66.83,120.76,67ZM96.44,108.92a.78.78,0,0,0,.4.75c.28.18.56.12.62-.12a.79.79,0,0,0-.4-.75C96.78,108.63,96.5,108.68,96.44,108.92ZM78.24,88.55a.75.75,0,0,0-.71-.45c-.24,0-.31.32-.16.61a.8.8,0,0,0,.72.45C78.33,89.11,78.4,88.84,78.24,88.55ZM128.52,78.4c-.24,0-.31.32-.15.61a.77.77,0,0,0,.72.45c.24,0,.31-.32.15-.61A.78.78,0,0,0,128.52,78.4Zm4,23.66a.8.8,0,0,0,.4.75c.28.18.56.13.62-.11a.8.8,0,0,0-.4-.76C132.84,101.77,132.57,101.82,132.5,102.06ZM73.71,64.75c-.28-.18-.56-.13-.62.11a.78.78,0,0,0,.4.75c.28.18.56.13.62-.11A.78.78,0,0,0,73.71,64.75Zm36.46-6.11a.78.78,0,0,0-.4-.75c-.28-.18-.55-.12-.61.12a.78.78,0,0,0,.39.75C109.83,58.93,110.11,58.88,110.17,58.64Zm9.36,55.76c-.24,0-.3.32-.15.62a.77.77,0,0,0,.72.44c.24,0,.31-.32.15-.61A.8.8,0,0,0,119.53,114.4ZM87.23,52.54a.76.76,0,0,0-.72-.44c-.24,0-.3.32-.15.61a.8.8,0,0,0,.72.45C87.32,53.11,87.39,52.84,87.23,52.54Z" style="fill:#fcb3d1"/><path d="M85.75,80.06c-2.7,2.46-5.58,5.1-6.38,8.85-2.14,10.06,3.55,24.28,13.79,35.5,14,15.39,31.38,22.91,41.35,13.81.62-.57,3.34-3.59,3.86-4.24,7.8-9.74,4.06-28.09-9.12-42.53C115.2,76.06,95.72,71,85.75,80.06Zm47.33,51.83c-8.57,7.82-25.3,3.43-37.38-9.8S80.77,91.79,89.33,84s22.94-1.23,35,12S141.65,124.07,133.08,131.89Z" style="fill:#eb8ca1"/><path d="M83.09,82.72c-10,9.1-6.65,29,7.41,44.35S124,147.57,134,138.47s6.65-29-7.4-44.35S93.06,73.62,83.09,82.72Zm47.33,51.83c-8.57,7.82-25.31,3.44-37.39-9.8S78.1,94.46,86.67,86.63s25.3-3.43,37.38,9.8S139,126.73,130.42,134.55Z" style="fill:#c9508a"/><path d="M83.82,83.51c-9.69,8.84-6.47,28.13,7.19,43.09s32.57,19.92,42.26,11.08,6.46-28.14-7.2-43.09S93.5,74.67,83.82,83.51Zm43.89,48.82c-7.45,6.8-22.23,2.73-33-9.09s-13.5-26.91-6.06-33.71,22.23-2.73,33,9.09S135.16,125.53,127.71,132.33Z" style="fill:#fce4ee"/><path d="M136.29,117.86a.84.84,0,0,0,.56.62c.27.07.45-.09.4-.36a.84.84,0,0,0-.56-.62C136.42,117.43,136.24,117.59,136.29,117.86ZM84.79,84.57c-.16.15-.11.46.11.7s.53.32.68.18.11-.46-.11-.7S84.94,84.43,84.79,84.57Zm46.71,51.17c-.16.14-.1.45.12.7s.52.32.68.17.1-.45-.12-.69S131.66,135.6,131.5,135.74Zm-18.63,3.51a.82.82,0,0,0,.56.62.3.3,0,0,0,.4-.37.83.83,0,0,0-.56-.61C113,138.82,112.82,139,112.87,139.25Zm-33-36.18a.85.85,0,0,0,.57.62.3.3,0,0,0,.39-.37.82.82,0,0,0-.56-.62A.31.31,0,0,0,79.83,103.07Zm23.42-21.39a.85.85,0,0,0,.57.62.3.3,0,0,0,.4-.36.85.85,0,0,0-.57-.62A.3.3,0,0,0,103.25,81.68Zm-11.67,43.6c-.16.14-.1.45.12.69s.52.32.68.18.1-.45-.12-.69S91.74,125.13,91.58,125.28ZM124.71,95c-.16.15-.11.46.11.7s.53.32.68.18.11-.46-.11-.7S124.86,94.89,124.71,95Zm-22.52,38.84a.73.73,0,0,0,.36.7c.26.16.52.11.57-.11a.72.72,0,0,0-.36-.69C102.5,133.6,102.24,133.65,102.19,133.87ZM85.33,115a.72.72,0,0,0-.66-.42c-.22,0-.29.3-.14.57a.72.72,0,0,0,.66.42C85.41,115.53,85.48,115.28,85.33,115Zm46.56-9.4c-.22,0-.28.3-.14.57a.73.73,0,0,0,.66.42c.23,0,.29-.3.15-.58A.74.74,0,0,0,131.89,105.61Zm3.69,21.91a.72.72,0,0,0,.37.7c.26.16.51.11.57-.11a.73.73,0,0,0-.37-.69C135.89,127.25,135.63,127.3,135.58,127.52ZM81.13,93c-.26-.17-.51-.11-.56.11a.72.72,0,0,0,.36.69c.26.16.52.12.57-.11A.71.71,0,0,0,81.13,93Zm33.77-5.66a.73.73,0,0,0-.37-.69c-.26-.16-.52-.11-.57.11a.71.71,0,0,0,.37.69C114.59,87.58,114.84,87.53,114.9,87.31ZM123.57,139c-.22,0-.29.29-.14.57a.71.71,0,0,0,.66.41c.22,0,.29-.3.14-.57A.71.71,0,0,0,123.57,139ZM93.66,81.67a.72.72,0,0,0-.67-.41c-.22,0-.28.29-.14.56a.72.72,0,0,0,.66.42C93.74,82.19,93.8,81.94,93.66,81.67Z" style="fill:#fcb3d1"/><path d="M38.09,46.51c3.95-20.31,30.45-27.3,51-9.45s33.44,48.74,29.49,69.05c-.86,2-6.26,7-6.8,6.57C91.1,95.22,59.83,65.35,38.09,46.51Z" style="fill:#ff3520"/><path d="M37.26,48.16c4-20.31,23.83-22.32,44.42-4.47s34.08,48.78,30.14,69.09Z" style="fill:#e31400"/><path d="M39.09,49.63c3.76-19.37,22.72-21.28,42.35-4.26s32.5,46.51,28.74,65.88Z" style="fill:#fd6f47"/><path d="M46.52,55.45c3-15.45,18.12-17,33.77-3.4s25.9,37.07,22.9,52.51Z" style="fill:#eb2100"/><path d="M73,61.53a8,8,0,0,0-3.19-6.07c-1.83-1.27-3.37-.61-3.43,1.48s2,7.36,3.13,8.17C70.26,65.68,72.89,63.62,73,61.53ZM85,73.11c.65-1.58-.22-4.33-1.94-6.15s-3.65-2-4.3-.43.52,6.93,1.29,7.74C81.11,75.44,84.3,74.69,85,73.11Zm9.31,10.76c-1.14-2.34-3.28-4-4.78-3.61s-2.68,4.16-2.17,5.19C88,87,92.1,89.07,93.6,88.73S95.4,86.21,94.26,83.87ZM60.73,55.29c-.95-2.47-3-4.5-4.6-4.52S54,52.71,55,55.19s4.53,7,5.56,7C61.23,62.21,61.67,57.77,60.73,55.29Z" style="fill:#e86900"/><path d="M84.15,71.28a2.27,2.27,0,0,0,0-1.4,4,4,0,0,0-1-1.79,2.16,2.16,0,0,0-1.27-.73.86.86,0,0,0-.94.57,10.25,10.25,0,0,0,.41,4.25l.09.36C82.39,72.56,83.83,72.06,84.15,71.28ZM72.06,60.19a2.89,2.89,0,0,0-.1-.85A4.19,4.19,0,0,0,70.44,57a1.23,1.23,0,0,0-1.18-.25,1.12,1.12,0,0,0-.57,1.08,5.87,5.87,0,0,0,.23,1.43h0a18.61,18.61,0,0,0,1.26,3.44A3.86,3.86,0,0,0,72.06,60.19ZM94,84.64a3.53,3.53,0,0,0-.26-.7c-.57-1.18-1.69-2-2.49-1.82s-1.38,1.8-1.6,2.88c1,.73,3,1.6,3.7,1.43S94.21,85.57,94,84.64ZM60.05,55.05a5.1,5.1,0,0,0-1.11-1.72,2.05,2.05,0,0,0-1.27-.68c-.68,0-1,.76-.71,1.85h0a3.6,3.6,0,0,0,.16.5,19.05,19.05,0,0,0,3.1,4.48,11,11,0,0,0-.07-4.11Z" style="fill:#ffb500"/><path d="M85.44,87.8c-.91-1.84-2.2-4.54-1.59-6.65s-1.79-2.37-4.37-5a18.39,18.39,0,0,1-4.32-7.4c-.64-2-1.71.34-4.9-1.21s-5.5-6.59-6-5.18a3.31,3.31,0,0,1-4.71,2c-2.67-1.09-.13,1.72,2.51,4L83.2,86.67C85,88.19,86.33,89.59,85.44,87.8Z" style="fill:#ffab82"/><path d="M84.89,85.88c19.15,5.15,38.85,10,38.51,14s3.06,1.8,2.7,7.23-2,29.77-1.7,37.77,1,8.66-1,10.66-3.66,3.34-4,6.34,0,5.33-4,7.66-1,3.67-5,5.34-4.33,5-6.33,6.66-4.33,1-6.67,3-5,1.34-10.66-.33-49.34-27-58.67-33.67-8.33-9.33-12.33-13-3.34-5-5-11-2.34-7-.34-7-1.33-1.66-2.33-5.33,2.33-2,0-6.67-4-11-5.33-17-4.34-8.33-1.67-12S57.82,78.6,84.89,85.88Z" style="fill:#63210f"/><path d="M118.4,98c3.44,0,3.93-.74,1.72-2.46l0,0c-5.26-4.11-16.22-9.63-28.69-16-17.66-9-28.66-17.34-36.33-22C43.18,50.31,35.87,43.22,29.24,43c-3.8-.13-6.06,2.63-9.27,7.78-1.51,2.43.69,4.8-1.6,4.57S13.8,59,14.71,61.4s-2-.89-4.64,2.78S7.4,68.51,8.4,70.51s0,2-2.33,1.67-2.33,2.67-5,6.33a4.79,4.79,0,0,0-1,3.54c.88.79,2.78,1,5.33,1.42,4.17.74,4.17,4.18,9.09,6.39S25.27,95,31.9,97s3.69,3,8.36,5.66S58,112,64.59,115.66,80.31,124,82,123.77s6.39-4.91,8.36-6.88,1.72-3.44,3.44-3.44,3.44-1.23,6.88-3.93,2-3.44,5.65-5.16,7.37-3,6.63-4.92S115,98,118.4,98Z" style="fill:#9c4229"/><path d="M34.73,57.51c12.74,2.46,22.91,3.85,17.83.61S37.07,47.72,35.22,46.56,29,43.79,26,46.56c0,0-3.7,3.7-4.16,6S22,55.06,34.73,57.51ZM26,64.13c7.17,1.85,36.3,6.48,43.93,7.63s.46-1.39-4.39-4.62-6.94-3.47-13.41-4.62-26.71-5.69-30.29-6c-2.54-.24-3.47-.24-4.85,2.08S18.81,62.28,26,64.13ZM106.32,89.6a81.74,81.74,0,0,0-21.25-8c-8.5-2-19.25-2.75-34.25-8.25s-29.25-9.46-34.25-9c-5.5.5-7,5-4.25,6.5s18.75,5,35.25,10.25,57,14.25,63.5,14.25S112.82,93.1,106.32,89.6Zm-54-17.75a289.66,289.66,0,0,0,29.5,7c8.75,1.5,3.75-1.25-1-3.25S61.34,72,56.07,71.1C42.57,68.85,47.07,70.1,52.32,71.85ZM100.57,96.6c-6.25-.75-25.5-5.5-37.5-9s-49-12.52-52.75-13c-5.75-.75-6.25,2.5-7.5,5.25s8.75,2,18.75,4,48,10.25,56.75,12.5,5.5,2.75-7.5,0-48.25-9.75-55.75-11,.75,4.25,9.25,7,14.25,5,26.5,7.5,37.75,9.75,42.25,11.5,6.75-3.75,8.25-5,6.75-4.75,9-6.25S106.82,97.35,100.57,96.6Zm-25,11.75c-9-2.5-24.2-4.9-31.25-7.5-9.5-3.5,0,2.75,7,6s22.5,12.25,27.5,14.75,10.75-5.5,11.89-7.43S84.57,110.85,75.57,108.35Z" style="fill:url(#linear-gradient-3)"/><path d="M100.73,117.18c3,2.34,6.34,3,7.67,4.5s3-.83,5-1.66.5-1.84-1.83-2.17-5.17-3.17-1.34-2.5,6,2.5,7.84.83,1.16-2,.16-5.5-3.33-9.66-5.83-7.83c-1.75,1.28-4.83,2-3.83,4s2.33,4.17.16,2.67-2.66-2.84-4.5-1.5-4,4-5.5,4.83S97.73,114.85,100.73,117.18ZM119.57,110c1.16,3.16,3.5,3.83,4.16,0s1.5-4.84,0-5.67-3.16-1.5-3.16-3.17-4.67-.83-3.67.84C118.24,104.24,118.4,106.85,119.57,110ZM95.4,126.6c1.17-.67,1.67-1.17.83-3.67s1.17-1.5,1.67.34,1.83.5,2.83-.34,3-2.83,1.5-3.16-2.94-2.06-6.5-3.84c-2-1-1.5,1.34-3.5,3s-1.66,5-1.33,8S94.23,127.27,95.4,126.6Zm-6.67,1.75c-.66-2.83.28-4.34.5-6.33.34-3-1.66-.5-4.5,1.5s-1.33,4.5-.66,7,.83,1.5,2.83.83S89.4,131.18,88.73,128.35ZM89.9,140c1.17-.84.67-3.5.17-6s-2.48-1.3-4.67.16c-1,.67.5,4.5,1.5,7.34S88.73,140.85,89.9,140Zm6.83-11.17c-1.33,0-2.58,1-4.66,1.67s-.67,2.83-.67,5.83.33,2.83,2.17,2.83,2.33,1.67,5,1,4-1.16,2.33-3.66-.5-1.84,1.67-.5,2.5.83,3.33-2,.5-3-1.83-3.84-1.34-2.33.5-1.83,2.33.5,3.16-1.83-.66-3-2.66-4.17-2.67,1.67-4.84,3.33-.33,2.34,0,5.84S98.07,128.85,96.73,128.85ZM93.4,153.68c2.17-.5,3.5-.83,3.83-4.33s.34-3.33-2-3-5.16-.5-2-1.67,3-.17,3-2-2.66-3-5-2.16c-1.66.59-3.83,2.83-3.33,4.66s.84,5.83,1.67,7.5S91.23,154.18,93.4,153.68ZM122.57,116c-.5,1.5-1.5,3.5-1.84,1.83s-.5-1.17-2.16-.5-1.67,1.5-1.5,3.5.33,3.5-1,2.33.33-2-.84-2.33-3.14,2.19-5.5,2.67c-1.66.33.17.66-.66,4.16s2,.84,3.83.5a19.81,19.81,0,0,0,5.67-2.16c1.83-1-1-1.84,1-3.84s.66,2.84,2.66,2.84,1.5-.5,1.5-2.17a67.61,67.61,0,0,1,1-7.17C125.07,113.51,123.07,114.52,122.57,116Zm-8.34,14c-3.5,1.16-5.83.66-6.33,2.33-.7,2.32-2.17,4.83-.5,5.67s4.67,3,6,.5,3.17-5,2.67-1.67,1,2.67,2.33,2,1-2.5.5-5.5S117.73,128.85,114.23,130Zm7.17,5.66c1.17.67,2,.34,2-3.16s.67-6.17-1.33-5.84-2.17.83-2.84,2C118.13,130.61,120.23,135,121.4,135.68Zm-14.17,4.17c-1.83-.67-2.16-1.33-3.33-.5-.87.62-3.67,3-5.17,3.33s-.5,4.17.67,4,5-.33,2.83.5-2.16.83-2.83,2.5.5,1.33,3.17,1.5,4.33.17,4.66-3-.66-4.66.67-6.16S109.07,140.52,107.23,139.85Zm8.5,2.17c-1.83,0-2-1.5-3.33-.5s-4,1-3.5,3.5-.16,5,1.67,5.5,1.83-.84,3-2.5,2-2.17,1.5.16.66,2.84,1.83,2.84,3.67-.51,2.5-2.34S117.57,142,115.73,142Zm6.17,4.83c1.67-1.83,1-2.67,1.33-5.67s0-3.5-1-3.83-1.49,1.16-1.66,3.33-1-.66-1-.66c-1.67.66-1.17,3-.17,5S120.23,148.68,121.9,146.85ZM93.73,165c.17-3.34.84-1.84,2,.66s1.34,0,3.34-.83-.17-5.83.16-9-.66-3.17-2-1.67-3.78,1.37-6.66,2.34c-1.5.5.5,5,.66,9S93.57,168.35,93.73,165Zm16.67-13.5a3,3,0,0,0-2.67,0c-1.61,1.2-2.49,1.66-2.66,4.16s-1.33,2.5-1.5.17-.33-3.17-1.5-3.17-1,3.33-.67,6.5,0,4.34,2,4.34,4-.67,2.83-1.67-1.83-2.5,1-1.67,3.17,1.67,2.34-.66,0-1.84.66-4.34S111.4,151.85,110.4,151.52Zm5.83.66a3.35,3.35,0,0,0-4.16,2.17c-.84,1.83-2,4-1.17,5.33s2.17,1.34,4.67,1.67,2.66-.34,3.16-1.67-.5-1.83-2.5-1.83-2-1.5.17-1.33,3.17,0,3.17-1.17S120.57,153.18,116.23,152.18Zm6.5-3.66a3.9,3.9,0,0,0-1.83,4.16c.17,1.67-1.33,4.5.83,3s2.67-3.33,2.34-4.83S123.9,147.85,122.73,148.52Zm-10.16,14.16c-2.67-.67-3.67,1.17-5.5,2.17s.83,5.16,2.33,7.33,1.84,1.5,2.5-.17-.16-2.33-.5-4.16,1.17-1.84,1.84-.5.83,1.33,3,0,2-2.5,1.83-3.84S114.35,163.13,112.57,162.68ZM96.74,178.51c2-.16.66-.83,1.5-3s1.5-5.33,1.83-2.83.5,3.5,2.33,2.5,1.5-3.83,2.67-4.5,1.83-.5,1-1.83-.67-3.67-2-3.67c-1.86,0-2,.17-4.67,1.67s-2.5,2.17-2,4.5-.83.83-1.83-.5-.84-1.33-2.17-.5-.16,3,.17,5.66S94.74,178.68,96.74,178.51Zm9.66-7.16c-1.47.73-1.83,2.5-2.16,3.83s-1.67,1.33-2.84,1.5-.83,2.83-.33,3.83.83.84,2.33.5,1.67-4.66,3.67-5.16,2.66-2.33,1.83-3S107.4,170.85,106.4,171.35Zm-8.33,8.33c-1.15-.19-3.34-1-3.67.33s-.66,4.5.84,4.5,2.66-3,4-2.66,1.33-.83.66-2S99.07,179.85,98.07,179.68Z" style="fill:#822d1c"/><path d="M45.9,107.85c2.34,2,10,10.5,16.67,17.66s20,15.67,22.17,17.17.83-1.67-.67-5.5-4.67-4-9.67-8.5,3.5,1,6.67,3,.09-3.32-.33-5.17c-.5-2.16-.5-1.83-3.5-3.33S58.84,115,52.67,111,43.57,105.85,45.9,107.85ZM22.13,98.16c4.81,4.26,10.94,12.69,14.61,16.19C42.61,120,53.2,124.05,59.31,127s-1.48-3.33-5.37-7.76-16.47-17.59-20.52-20C26.2,95,30.27,99.09,34.89,105s-2.77-.74-6.65-4.26-7-6.66-12.39-8.88S17.33,93.91,22.13,98.16Zm62.33,46.42c-2.4-1.66-14.52-9.34-17.94-12.76-1.85-1.85-4.25-2.59-7.77-3.7a92.92,92.92,0,0,1-17.94-9.25c-5.36-3.69,4.07,7,12.76,13.14S67.82,145,74.29,152.17s12,13.31,14.61,15.9,0-5.55-.74-8.69.92-.74-6.29-9.25-1.11-3.51,1.85-1.29,4.25,5.18,3.7,1.85S86.86,146.25,84.46,144.58Zm7.4,29.78c-.93-3.88-.93-1.85-5.55-5.92s-15.54-17-21.27-23.12a161,161,0,0,0-19.6-17.94c-8.51-6.66-8-10.37-16.28-19.23-4.38-4.72-16.62-15-19.6-18.13-8.32-8.69-7.77-5.73-6.66-2.4s.55,3,5.73,6.66,7.59,7.58,13.32,13.87S10.85,100.2,7.89,98s-1.29,3.7,0,6.84,7.77,6.29,17.39,13.5,19.42,18.31,27,22.75,25.89,26.26,29.59,30a123.19,123.19,0,0,0,9.25,8.51C94.45,182.31,92.78,178.24,91.86,174.36Zm-40.5-31.63A148.22,148.22,0,0,1,33.42,127c-4.81-5.18-18.31-12.8-20.53-14.24-3.15-2-3.52-.74-3.33,1.3s1.48,2.77,3.33,4.07,8.69,5.54,11.46,9.24,10,8.51,14.24,15,5.74,16.83,7.59,18.13,7.21,3.51,10.91,6.29-3.15-7.4-5.18-10.55-5.73-8.87-1.85-5S62.27,169,64.12,170.48s5.91,2.77,8.5,5S68,165.85,65,161.6,56,146.06,51.36,142.73Zm38.09,38.1c-6.1-5-14-14.24-18.49-19.79s-16.28-16.83-11.1-10.35C62,153.37,71,167.89,73,171.77s4.81,6.66,10,8.88S95.56,185.83,89.45,180.83ZM36.37,141.62c-2.22-3.32-9.8-10-12.76-12.94s-7.39-4.63-10.35-6.85c-2.22-1.66-2.59-.92-2,.74s5.18,3.89,8.32,8.88,6.11,15.54,8.14,17.39,3,.92,2.22-2,.56-1.11,2.78,2.78a20.29,20.29,0,0,0,7,7.21c2.41,1.66,2.78.92,1.48-1.67S38.59,145,36.37,141.62Zm-23.3-14.79c-2.59-1.85-.18,2.77.19,4.81a7.06,7.06,0,0,0,3.51,5c2.22,1.48,3.51,5.36,5.55,7.77s-.93-6.11-2.78-9.62A21,21,0,0,0,13.07,126.83Z" style="fill:#963622"/><path d="M26.52,61.37c5.15,1.1,21.29,3.15,30.67,4.26s.34-1.59-7.94-3.25-24.19-5-27.33-5.18c-3-.18-3-.37-4.05,1.47S21.37,60.27,26.52,61.37Zm13.71-6c9.39,1.23,5.92.29,4.12-1s-5.7-5.12-10.83-7.58-7.71,1.76-8.94,3.32C22.41,52.86,30.85,54.15,40.23,55.38ZM52.93,76c-13-3.68-19.84-6.71-27-8.88S15.43,65.85,13.68,67s-.29,2.31,4,3,20,5.05,28.43,7,27.49,6.2,38,6.93S65.92,79.63,52.93,76Zm8.16,13.42c8.37,1.51,2-.79-8.44-3.61s-34.93-8.3-41-9.45S6.05,77,5.23,78.47s2.67.87,9.75,1.59S52.72,87.85,61.09,89.37ZM20,87c-11.11-2.17-2,2,3.39,3.61S60.58,98,69.24,98.82s-3.82-2-12-3.68S23.09,87.58,20,87Z" style="fill:url(#linear-gradient-4)"/><path d="M93,96.62c4.46.89,16.73,2.07,15,3.2s-7.52,3.19-14.48.37-17.11-7-11.28-5.83S89.2,95.87,93,96.62Z" style="fill:#ff9b75"/><path d="M68.89,110.53c6.25,1.33,19.18,3.39,17.86,5.65s-2.82,5.64-9.77,2.44S55.54,107.71,68.89,110.53Z" style="fill:#ff9b75"/><path d="M65.82,123.1c5.5,2.87,11.75,4.5,10.75,2.5s-2.25-2.38-6.88-4.5-10-4.54-13.37-6.5C45.07,108,60.32,120.22,65.82,123.1Zm-13.5-2.5c8,5.5-1-3.13-4.13-6.5a139.51,139.51,0,0,0-12.75-12c-2.75-2-.5.37,2.13,5.12S44.32,115.1,52.32,120.6Zm-23.38-2.88c7.38,4.25-4-4.37-7.5-7s-8.82-8.2-11.37-9.87c-4-2.63-2.13.62.62,3.75S21.57,113.47,28.94,117.72ZM18.82,99.22c-3.75-3.5-11.3-10-13.13-11.87-1.62-1.63-1.37-.88-1.25,1s1.75,2.62,5.88,6a190.31,190.31,0,0,1,15.12,15c2.38,2.75,10.38,13.75,14.88,16s-4.75-5.5-9.5-12.63S22.57,102.72,18.82,99.22Zm.25,18.38c-2.38-1.25-4.75-3.25-7.25-3.63s3.5,3.75,7.37,6.13,10.63,9.12,17,13.37-1.5-3.37-4.75-6.87S22.58,119.45,19.07,117.6Zm55,24.76c-4.91-6.59-9.26-10.66-11.92-11.64s-9.47-3.81-13.19-5.48c-5.33-2.38.84,2.67,3.93,3.93s7,4.07,10.66,6.74S75.71,148.68,80.76,153,78.94,149,74,142.36Z" style="fill:#b84229"/><path d="M25.32,186.39a25.09,25.09,0,0,1-20.2-40c1.3-1.77,6.59-7.12,13.51-8.45A6.19,6.19,0,0,1,21,150.11c-2.54.49-5.2,2.86-5.95,3.73a12.72,12.72,0,1,0,22.41,3.53l-.09-.25c-1-3-4-12.29,3.59-19.88l4.77-4.77c2.42-2.42,5.32-1.4,7.74,1s3.44,5.32,1,7.74L49.69,146c-1.89,1.89-1.69,3.85-.57,7.28l.09.29a25.08,25.08,0,0,1-23.89,32.82Z" style="fill:#8892a1"/><path d="M25.32,181A21.56,21.56,0,0,1,8,146.64c.89-1.2,5.42-5.94,11.34-7.08a2.65,2.65,0,1,1,1,5.21c-4.1.79-7.56,4.36-8.07,5a16.26,16.26,0,1,0,28.56,4.62l-.08-.26c-1-3.06-3.33-10.22,2.72-16.28l4.41-4.41c1-1,2.38-.7,3.42.34s1.74,2,.7,3.05l-4.78,4.78c-3.46,3.46-2.55,7.43-1.43,10.87l.09.28A21.56,21.56,0,0,1,25.32,181Z" style="fill:#d9ebff"/></g></g></svg>