<svg xmlns="http://www.w3.org/2000/svg" xmlns:xlink="http://www.w3.org/1999/xlink" viewBox="0 0 187.84 187.85"><defs><linearGradient id="linear-gradient" x1="6.99" y1="-41.16" x2="99.66" y2="102.84" gradientUnits="userSpaceOnUse"><stop offset="0" stop-color="#dbd6d1"/><stop offset="0.83" stop-color="#f4f3f0"/><stop offset="1" stop-color="#faf9f7"/></linearGradient><linearGradient id="linear-gradient-2" x1="66.19" y1="45.5" x2="109.54" y2="121.19" gradientUnits="userSpaceOnUse"><stop offset="0" stop-color="#dbcfc2"/><stop offset="0.54" stop-color="#ede8e1"/><stop offset="1" stop-color="#fff"/></linearGradient><linearGradient id="linear-gradient-3" x1="66.19" y1="44.5" x2="109.54" y2="120.19" gradientUnits="userSpaceOnUse"><stop offset="0" stop-color="#d6cfc7"/><stop offset="0.58" stop-color="#edeae6"/><stop offset="1" stop-color="#fff"/></linearGradient><linearGradient id="linear-gradient-4" x1="-10.6" y1="-10.6" x2="124.41" y2="124.42" xlink:href="#linear-gradient"/><radialGradient id="radial-gradient" cx="110.18" cy="111.89" r="54.68" gradientUnits="userSpaceOnUse"><stop offset="0" stop-color="#ffe0b5"/><stop offset="0.37" stop-color="#ffe2b9"/><stop offset="0.71" stop-color="#ffe9c4"/><stop offset="1" stop-color="#fff2d4"/></radialGradient><radialGradient id="radial-gradient-2" cx="107.42" cy="85.83" r="23.8" gradientUnits="userSpaceOnUse"><stop offset="0" stop-color="#fff2d4"/><stop offset="0.96" stop-color="#fff2d4"/><stop offset="1" stop-color="#fff2d4"/></radialGradient><radialGradient id="radial-gradient-3" cx="3235.09" cy="-2083.05" r="19.12" gradientTransform="matrix(-0.02, -0.85, 0.94, -0.02, 2098.65, 2821.77)" xlink:href="#radial-gradient-2"/><radialGradient id="radial-gradient-4" cx="121.87" cy="110.36" r="12.68" xlink:href="#radial-gradient-2"/><radialGradient id="radial-gradient-5" cx="75.62" cy="77.87" r="10.13" gradientUnits="userSpaceOnUse"><stop offset="0.23" stop-color="#574d14"/><stop offset="0.34" stop-color="#5d541c"/><stop offset="0.5" stop-color="#6d6632"/><stop offset="0.71" stop-color="#888557"/><stop offset="0.94" stop-color="#acaf89"/><stop offset="1" stop-color="#b6ba96"/></radialGradient><radialGradient id="radial-gradient-6" cx="69.04" cy="95.14" r="10.13" xlink:href="#radial-gradient-5"/><radialGradient id="radial-gradient-7" cx="60.81" cy="111.04" r="10.13" xlink:href="#radial-gradient-5"/><radialGradient id="radial-gradient-8" cx="51.49" cy="132.43" r="10.13" xlink:href="#radial-gradient-5"/><radialGradient id="radial-gradient-9" cx="44.64" cy="114.33" r="10.13" xlink:href="#radial-gradient-5"/><radialGradient id="radial-gradient-10" cx="31.75" cy="101.45" r="10.13" xlink:href="#radial-gradient-5"/><radialGradient id="radial-gradient-11" cx="65.47" cy="62.52" r="10.13" xlink:href="#radial-gradient-5"/><radialGradient id="radial-gradient-12" cx="51.72" cy="80.94" r="29.51" gradientUnits="userSpaceOnUse"><stop offset="0.23" stop-color="#574d14"/><stop offset="1" stop-color="#574d14"/></radialGradient><radialGradient id="radial-gradient-13" cx="55.41" cy="77.95" r="8.89" gradientUnits="userSpaceOnUse"><stop offset="0.28" stop-color="#88c90e"/><stop offset="0.97" stop-color="#409600"/></radialGradient><radialGradient id="radial-gradient-14" cx="47.65" cy="94.55" r="8.89" xlink:href="#radial-gradient-13"/><radialGradient id="radial-gradient-15" cx="34.85" cy="78.13" r="8.89" xlink:href="#radial-gradient-13"/><radialGradient id="radial-gradient-16" cx="43.6" cy="61.93" r="8.89" xlink:href="#radial-gradient-13"/><radialGradient id="radial-gradient-17" cx="62.54" cy="59.94" r="8.89" xlink:href="#radial-gradient-13"/><radialGradient id="radial-gradient-18" cx="72.46" cy="74.73" r="8.89" xlink:href="#radial-gradient-13"/><radialGradient id="radial-gradient-19" cx="65.97" cy="92.41" r="8.89" xlink:href="#radial-gradient-13"/><radialGradient id="radial-gradient-20" cx="30.43" cy="96.38" r="8.89" xlink:href="#radial-gradient-13"/><radialGradient id="radial-gradient-21" cx="58.31" cy="107.92" r="8.89" xlink:href="#radial-gradient-13"/><radialGradient id="radial-gradient-22" cx="42.26" cy="109.9" r="8.89" xlink:href="#radial-gradient-13"/><radialGradient id="radial-gradient-23" cx="55.42" cy="94.93" r="8.89" xlink:href="#radial-gradient-13"/><radialGradient id="radial-gradient-24" cx="42.44" cy="82.84" r="8.89" xlink:href="#radial-gradient-13"/><radialGradient id="radial-gradient-25" cx="48.57" cy="68.59" r="8.89" xlink:href="#radial-gradient-13"/><radialGradient id="radial-gradient-26" cx="61.56" cy="77.97" r="8.89" xlink:href="#radial-gradient-13"/><radialGradient id="radial-gradient-27" cx="39.37" cy="98" r="8.89" xlink:href="#radial-gradient-13"/><radialGradient id="radial-gradient-28" cx="49.24" cy="128.71" r="8.89" xlink:href="#radial-gradient-13"/><linearGradient id="linear-gradient-5" x1="634.78" y1="-1236.07" x2="634.78" y2="-1265.19" gradientTransform="matrix(0.88, -0.47, 0.42, 0.79, 89.62, 1340.68)" gradientUnits="userSpaceOnUse"><stop offset="0" stop-color="#f8510b"/><stop offset="0.19" stop-color="#f9590d"/><stop offset="0.48" stop-color="#fa6e12"/><stop offset="0.83" stop-color="#fd901a"/><stop offset="1" stop-color="#ffa31f"/></linearGradient><linearGradient id="linear-gradient-6" x1="632.75" y1="-1232.28" x2="632.75" y2="-1252.67" xlink:href="#linear-gradient-5"/><linearGradient id="linear-gradient-7" x1="980.76" y1="-1661.05" x2="980.76" y2="-1689.78" gradientTransform="matrix(0.77, -0.64, 0.57, 0.69, 303.25, 1818.43)" xlink:href="#linear-gradient-5"/><linearGradient id="linear-gradient-8" x1="978.72" y1="-1657.33" x2="978.72" y2="-1677.39" gradientTransform="matrix(0.77, -0.64, 0.57, 0.69, 303.25, 1818.43)" xlink:href="#linear-gradient-5"/><linearGradient id="linear-gradient-9" x1="1339.99" y1="-1969.45" x2="1339.99" y2="-1998.22" gradientTransform="matrix(0.65, -0.76, 0.68, 0.58, 570.96, 2195.44)" xlink:href="#linear-gradient-5"/><linearGradient id="linear-gradient-10" x1="1337.95" y1="-1965.65" x2="1337.95" y2="-1985.81" gradientTransform="matrix(0.65, -0.76, 0.68, 0.58, 570.96, 2195.44)" xlink:href="#linear-gradient-5"/></defs><g id="Layer_2" data-name="Layer 2"><g id="Layer_1-2" data-name="Layer 1"><path d="M187.84,93.92A93.92,93.92,0,1,1,93.92,0,93.93,93.93,0,0,1,187.84,93.92Z" style="fill:#8b8f90"/><path d="M185.72,93.92A91.8,91.8,0,1,1,93.92,2.13,91.8,91.8,0,0,1,185.72,93.92Z" style="fill:url(#linear-gradient)"/><path d="M161.38,93.92A67.46,67.46,0,1,1,93.92,26.47,67.46,67.46,0,0,1,161.38,93.92Z" style="fill:url(#linear-gradient-2)"/><path d="M168.9,73.72c6.45-2.08,8.75-5.66,8.94-9.59A88.71,88.71,0,1,0,15.78,135c8.89,5.14,30.64-10,64.41-28.58C117,86.13,157.24,77.48,168.9,73.72Z" style="fill:#fff"/><path d="M161.38,92.92A67.46,67.46,0,1,1,93.92,25.47,67.46,67.46,0,0,1,161.38,92.92Z" style="fill:url(#linear-gradient-3)"/><path d="M154,93.92A60.12,60.12,0,1,1,93.92,33.8,60.12,60.12,0,0,1,154,93.92Z" style="fill:url(#linear-gradient-4)"/><path d="M142.51,80.79c4.21-1.36,5.71-3.7,5.83-6.26A57.87,57.87,0,1,0,42.62,120.77c5.8,3.35,20-6.51,42-18.65C108.67,88.88,134.91,83.24,142.51,80.79Z" style="fill:#fff"/><path d="M93.71,70.21c9.57-3.67,20.5,2,39.25-4.75,26.43-2.66,43.56,26.15,37.15,47.39,1.92,13.51.78,28.1-9.49,40.19-13.4,15.78-31.29,18.2-49.91,16.89-14.06-1-19-3.58-23.43-5C80.66,169,92.19,181,76.21,169.21c-22.75-16.75-21.75-39.25-4.75-69C72,85,81.13,75,93.71,70.21Z" style="fill:#d8c0a8"/><path d="M87.05,64.24c9.09-4,22.41-9.12,40.54,1.19,26.92-4.44,44.67,20.41,37.89,41.84,2.13,13.51.72,26.13-10.3,38.57-14.24,16.08-30.58,19.72-49.41,18.29-13.86-1-21-5.33-25.23-6.75-6.4,3.91-1,9.83-11,3.56-14.12-8.83-25.36-42.85-5-65.93C65.46,81.1,75.28,69.46,87.05,64.24Z" style="fill:url(#radial-gradient)"/><path d="M133.45,93.86c7.3,5.12,3.06-26.92-26.94-24.77C84.84,70.63,79,89.52,78.33,96s4.34,3.71,9.29,6.5c2.12,1.19,5.31-5.15,9.6-9.6C103.45,86.48,115.68,81.4,133.45,93.86Z" style="fill:url(#radial-gradient-2)"/><path d="M126,108.71s10.33-3.67,11-.33,1,12-6.67,16.66c-6.77,4.12-22,.34-20.67-10.33C110.68,106.28,126,108.71,126,108.71Z" style="fill:#f5dbad"/><path d="M101.71,105.82c3.75-5-20.27-1.68-18.25,18.68,1.45,14.71,15.73,18.43,20.62,18.75s2.73-3,4.76-6.41c.87-1.46-3.94-3.53-7.34-6.38C96.57,126.32,92.58,118.09,101.71,105.82Z" style="fill:url(#radial-gradient-3)"/><path d="M113,120.18c3.62,1.55,15.17,2.79,21-7.74s-1.85-.62-8.67-9.6c-4.77-6.29-12.52-2.34-15.17.93C106.2,108.72,106.51,117.39,113,120.18Z" style="fill:url(#radial-gradient-4)"/><path d="M151.29,108s1.33,14.34-13.33,26.67c-9.37,7.88-15,10.1-6.67,8.67,9.67-1.67,23.33-5,27-20.34S151.29,108,151.29,108Z" style="fill:#f5dbad"/><path d="M108.71,147s-16.5,1.25-27.5-7.75-2.5,7,8,11.5,23.5.5,24.5,0S113.71,147.46,108.71,147Z" style="fill:#f5dbad"/><path d="M132.71,72.46s7,10.75,7.75,17.25,8.25,7,8.25,7S148,82.71,132.71,72.46Z" style="fill:#f5dbad"/><path d="M83.35,79.38c.29,5-2.26,7.87-6.54,8.16a9.33,9.33,0,0,1-5.58-2.11c-2.35-2.11-5.14-6.28-5.14-8.81,0-4.28,5.93-4.44,10.22-4.44,1.2,0,1-3.37,2-2.77C80.84,71,83.11,75.35,83.35,79.38Z" style="fill:url(#radial-gradient-5)"/><path d="M76.77,96.65c.29,5-2.26,7.87-6.54,8.17a9.34,9.34,0,0,1-5.58-2.12c-2.35-2.11-5.14-6.27-5.14-8.8,0-4.28,5.93-4.45,10.22-4.45,1.2,0,1-3.36,2-2.77C74.26,88.28,76.53,92.62,76.77,96.65Z" style="fill:url(#radial-gradient-6)"/><path d="M68.54,112.55c.3,5-2.26,7.87-6.53,8.17a9.29,9.29,0,0,1-5.58-2.11c-2.35-2.12-5.14-6.28-5.14-8.81,0-4.28,5.93-4.45,10.21-4.45,1.21,0,1-3.36,2-2.76C66,104.18,68.3,108.52,68.54,112.55Z" style="fill:url(#radial-gradient-7)"/><path d="M59.22,133.93c.3,5-2.26,7.88-6.53,8.17A9.29,9.29,0,0,1,47.11,140c-2.35-2.11-5.14-6.28-5.14-8.81,0-4.28,5.93-4.44,10.21-4.44,1.21,0,1-3.37,2-2.77C56.71,125.57,59,129.91,59.22,133.93Z" style="fill:url(#radial-gradient-8)"/><path d="M52.37,115.84c.29,5-2.26,7.87-6.54,8.17a9.31,9.31,0,0,1-5.58-2.11c-2.35-2.11-5.14-6.28-5.14-8.81,0-4.28,5.93-4.45,10.22-4.45,1.2,0,1-3.36,2-2.76C49.86,107.47,52.13,111.81,52.37,115.84Z" style="fill:url(#radial-gradient-9)"/><path d="M39.48,103c.3,5-2.26,7.87-6.53,8.17A9.29,9.29,0,0,1,27.37,109c-2.35-2.11-5.14-6.28-5.14-8.81,0-4.28,5.93-4.44,10.21-4.44,1.21,0,1-3.37,2-2.77C37,94.58,39.24,98.93,39.48,103Z" style="fill:url(#radial-gradient-10)"/><path d="M73.2,64c.3,5-2.26,7.87-6.53,8.17a9.29,9.29,0,0,1-5.58-2.11C58.74,68,56,63.8,56,61.27c0-4.28,5.93-4.45,10.21-4.45,1.21,0,1-3.36,2-2.76C70.69,55.65,73,60,73.2,64Z" style="fill:url(#radial-gradient-11)"/><path d="M31.68,97.48s9,12.06,11.79,13.16,13.16-1.92,13.16-1.92,5.21-14.26,8.23-15.63S71.44,88.43,72,81.57s-14.81-22.2-22.76-26S33.06,60.19,36.07,66.22s.59,9.4.59,9.4S25.1,78.29,27,82.12a79.87,79.87,0,0,1,3.57,8.78Z" style="fill:url(#radial-gradient-12)"/><path d="M64.3,78a8.89,8.89,0,1,1-8.89-8.89A8.89,8.89,0,0,1,64.3,78Z" style="fill:url(#radial-gradient-13)"/><path d="M57.66,71.37a5.75,5.75,0,0,0-1.39-.17,5.92,5.92,0,0,0-5.77,4.25,7.58,7.58,0,0,0,3,1.59h0a5.07,5.07,0,0,1,3.7-1.6A6.56,6.56,0,0,0,57.66,71.37Z" style="fill:#d1f754"/><path d="M56.18,83.27c2.26.35,4.92-1.25,5.51-3.14a5.83,5.83,0,0,0-2.32-1.22h0a4.37,4.37,0,0,1-2.93,1.57A8.08,8.08,0,0,0,56.18,83.27Z" style="fill:#b3df3f"/><path d="M56.55,94.54a8.9,8.9,0,1,1-8.9-8.89A8.89,8.89,0,0,1,56.55,94.54Z" style="fill:url(#radial-gradient-14)"/><path d="M49.91,88a6.44,6.44,0,0,0-1.39-.16A5.92,5.92,0,0,0,42.74,92a7.59,7.59,0,0,0,3,1.59h0a5,5,0,0,1,3.7-1.6A6.53,6.53,0,0,0,49.91,88Z" style="fill:#d1f754"/><path d="M48.42,99.87c2.26.34,4.92-1.25,5.51-3.15a6,6,0,0,0-2.32-1.22h0a4.39,4.39,0,0,1-2.93,1.57A8.31,8.31,0,0,0,48.42,99.87Z" style="fill:#b3df3f"/><path d="M43.74,78.13a8.9,8.9,0,1,1-8.9-8.89A8.89,8.89,0,0,1,43.74,78.13Z" style="fill:url(#radial-gradient-15)"/><path d="M37.1,71.54a6.37,6.37,0,0,0-1.39-.16,5.93,5.93,0,0,0-5.78,4.25,7.49,7.49,0,0,0,3,1.58h0a5.09,5.09,0,0,1,3.7-1.6A6.52,6.52,0,0,0,37.1,71.54Z" style="fill:#d1f754"/><path d="M35.61,83.45c2.26.34,4.92-1.25,5.51-3.14a5.76,5.76,0,0,0-2.32-1.22h0a4.32,4.32,0,0,1-2.92,1.57A8.1,8.1,0,0,0,35.61,83.45Z" style="fill:#b3df3f"/><path d="M52.49,61.93A8.89,8.89,0,1,1,43.6,53,8.89,8.89,0,0,1,52.49,61.93Z" style="fill:url(#radial-gradient-16)"/><path d="M45.85,55.34a6.3,6.3,0,0,0-1.39-.16,5.92,5.92,0,0,0-5.77,4.25,7.64,7.64,0,0,0,3,1.58h0a5.07,5.07,0,0,1,3.7-1.6A6.52,6.52,0,0,0,45.85,55.34Z" style="fill:#d1f754"/><path d="M44.37,67.24c2.26.35,4.92-1.24,5.51-3.14a6,6,0,0,0-2.32-1.22h0a4.39,4.39,0,0,1-2.93,1.57A8,8,0,0,0,44.37,67.24Z" style="fill:#b3df3f"/><path d="M71.43,59.94a8.89,8.89,0,1,1-8.89-8.89A8.89,8.89,0,0,1,71.43,59.94Z" style="fill:url(#radial-gradient-17)"/><path d="M64.79,53.36a5.75,5.75,0,0,0-1.39-.17,5.92,5.92,0,0,0-5.77,4.25,7.58,7.58,0,0,0,3,1.59h0a5.06,5.06,0,0,1,3.7-1.59A6.53,6.53,0,0,0,64.79,53.36Z" style="fill:#d1f754"/><path d="M63.31,65.26c2.26.35,4.92-1.25,5.51-3.14A5.83,5.83,0,0,0,66.5,60.9h0a4.38,4.38,0,0,1-2.93,1.56A8.08,8.08,0,0,0,63.31,65.26Z" style="fill:#b3df3f"/><path d="M81.36,74.73a8.9,8.9,0,1,1-8.9-8.89A8.91,8.91,0,0,1,81.36,74.73Z" style="fill:url(#radial-gradient-18)"/><path d="M74.72,68.15a6.07,6.07,0,0,0-7.17,4.08,7.59,7.59,0,0,0,3,1.59h0a5.08,5.08,0,0,1,3.7-1.59A6.61,6.61,0,0,0,74.72,68.15Z" style="fill:#d1f754"/><path d="M73.23,80.05c2.26.35,4.92-1.25,5.51-3.14a5.83,5.83,0,0,0-2.32-1.22h0a4.43,4.43,0,0,1-2.93,1.57A8,8,0,0,0,73.23,80.05Z" style="fill:#b3df3f"/><path d="M74.86,92.41A8.89,8.89,0,1,1,66,83.52,8.89,8.89,0,0,1,74.86,92.41Z" style="fill:url(#radial-gradient-19)"/><path d="M68.22,85.83a5.75,5.75,0,0,0-1.39-.17,5.92,5.92,0,0,0-5.77,4.25,7.58,7.58,0,0,0,3,1.59h0a5.11,5.11,0,0,1,3.71-1.6A6.56,6.56,0,0,0,68.22,85.83Z" style="fill:#d1f754"/><path d="M66.74,97.73c2.26.35,4.92-1.25,5.51-3.14a5.83,5.83,0,0,0-2.32-1.22h0A4.4,4.4,0,0,1,67,94.93,8.08,8.08,0,0,0,66.74,97.73Z" style="fill:#b3df3f"/><path d="M39.33,96.38a8.9,8.9,0,1,1-8.9-8.89A8.9,8.9,0,0,1,39.33,96.38Z" style="fill:url(#radial-gradient-20)"/><path d="M32.69,89.79a6.46,6.46,0,0,0-1.4-.16,5.92,5.92,0,0,0-5.77,4.25,7.49,7.49,0,0,0,3,1.58h0a5.09,5.09,0,0,1,3.7-1.6A6.59,6.59,0,0,0,32.69,89.79Z" style="fill:#d1f754"/><path d="M31.2,101.7c2.26.35,4.92-1.25,5.51-3.14a5.83,5.83,0,0,0-2.32-1.22h0a4.35,4.35,0,0,1-2.93,1.57A8.08,8.08,0,0,0,31.2,101.7Z" style="fill:#b3df3f"/><path d="M67.21,107.92A8.9,8.9,0,1,1,58.31,99,8.9,8.9,0,0,1,67.21,107.92Z" style="fill:url(#radial-gradient-21)"/><path d="M60.57,101.33a6.46,6.46,0,0,0-1.4-.16,5.92,5.92,0,0,0-5.77,4.25,7.65,7.65,0,0,0,3,1.58h0a5.07,5.07,0,0,1,3.7-1.6A6.6,6.6,0,0,0,60.57,101.33Z" style="fill:#d1f754"/><path d="M59.08,113.24c2.26.34,4.92-1.25,5.51-3.14a5.83,5.83,0,0,0-2.32-1.22h0a4.39,4.39,0,0,1-2.93,1.57A8.08,8.08,0,0,0,59.08,113.24Z" style="fill:#b3df3f"/><path d="M51.15,109.9A8.9,8.9,0,1,1,42.26,101,8.89,8.89,0,0,1,51.15,109.9Z" style="fill:url(#radial-gradient-22)"/><path d="M44.51,103.32a5.81,5.81,0,0,0-1.39-.17,5.94,5.94,0,0,0-5.78,4.25,7.59,7.59,0,0,0,3,1.59h0a5.08,5.08,0,0,1,3.7-1.59A6.53,6.53,0,0,0,44.51,103.32Z" style="fill:#d1f754"/><path d="M43,115.22c2.25.35,4.92-1.25,5.5-3.14a5.76,5.76,0,0,0-2.31-1.22h0a4.4,4.4,0,0,1-2.93,1.56A7.85,7.85,0,0,0,43,115.22Z" style="fill:#b3df3f"/><path d="M64.32,94.93A8.9,8.9,0,1,1,55.42,86,8.89,8.89,0,0,1,64.32,94.93Z" style="fill:url(#radial-gradient-23)"/><path d="M57.68,88.34a6.44,6.44,0,0,0-1.39-.16,5.92,5.92,0,0,0-5.78,4.25,7.65,7.65,0,0,0,3,1.58h0a5.09,5.09,0,0,1,3.7-1.6A6.53,6.53,0,0,0,57.68,88.34Z" style="fill:#d1f754"/><path d="M56.19,100.25c2.26.35,4.92-1.25,5.51-3.14a5.76,5.76,0,0,0-2.32-1.22h0a4.32,4.32,0,0,1-2.92,1.57A8.1,8.1,0,0,0,56.19,100.25Z" style="fill:#b3df3f"/><path d="M51.33,82.84A8.9,8.9,0,1,1,42.44,74,8.89,8.89,0,0,1,51.33,82.84Z" style="fill:url(#radial-gradient-24)"/><path d="M44.69,76.26a5.81,5.81,0,0,0-1.39-.16,5.92,5.92,0,0,0-5.77,4.24,7.52,7.52,0,0,0,3,1.59h0a5,5,0,0,1,3.7-1.6A6.53,6.53,0,0,0,44.69,76.26Z" style="fill:#d1f754"/><path d="M43.21,88.16c2.25.35,4.92-1.25,5.5-3.14A5.91,5.91,0,0,0,46.4,83.8h0a4.45,4.45,0,0,1-2.93,1.57A8,8,0,0,0,43.21,88.16Z" style="fill:#b3df3f"/><path d="M57.46,68.59a8.89,8.89,0,1,1-8.89-8.89A8.89,8.89,0,0,1,57.46,68.59Z" style="fill:url(#radial-gradient-25)"/><path d="M50.82,62a5.75,5.75,0,0,0-1.39-.16,5.92,5.92,0,0,0-5.77,4.24,7.58,7.58,0,0,0,3,1.59h0a5,5,0,0,1,3.7-1.6A6.52,6.52,0,0,0,50.82,62Z" style="fill:#d1f754"/><path d="M49.34,73.91c2.26.35,4.92-1.24,5.51-3.14a6,6,0,0,0-2.32-1.22h0a4.43,4.43,0,0,1-2.93,1.57A8,8,0,0,0,49.34,73.91Z" style="fill:#b3df3f"/><path d="M70.45,78a8.89,8.89,0,1,1-8.89-8.89A8.9,8.9,0,0,1,70.45,78Z" style="fill:url(#radial-gradient-26)"/><path d="M63.81,71.39a6.3,6.3,0,0,0-1.39-.16,5.92,5.92,0,0,0-5.77,4.24,7.58,7.58,0,0,0,3,1.59h0a5.07,5.07,0,0,1,3.7-1.6A6.53,6.53,0,0,0,63.81,71.39Z" style="fill:#d1f754"/><path d="M62.33,83.29c2.25.35,4.92-1.25,5.5-3.14a5.91,5.91,0,0,0-2.31-1.22h0a4.41,4.41,0,0,1-2.93,1.57A8,8,0,0,0,62.33,83.29Z" style="fill:#b3df3f"/><path d="M48.26,98a8.89,8.89,0,1,1-8.89-8.9A8.89,8.89,0,0,1,48.26,98Z" style="fill:url(#radial-gradient-27)"/><path d="M41.62,91.41a6.3,6.3,0,0,0-1.39-.16,5.92,5.92,0,0,0-5.77,4.25,7.64,7.64,0,0,0,3,1.58h0a5.07,5.07,0,0,1,3.7-1.6A6.52,6.52,0,0,0,41.62,91.41Z" style="fill:#d1f754"/><path d="M40.14,103.32c2.26.34,4.92-1.25,5.51-3.14A5.83,5.83,0,0,0,43.33,99h0a4.39,4.39,0,0,1-2.93,1.57A8.08,8.08,0,0,0,40.14,103.32Z" style="fill:#b3df3f"/><path d="M58.13,128.7a8.89,8.89,0,1,1-8.89-8.89A8.89,8.89,0,0,1,58.13,128.7Z" style="fill:url(#radial-gradient-28)"/><path d="M51.49,122.12A6.3,6.3,0,0,0,50.1,122a5.92,5.92,0,0,0-5.77,4.24,7.58,7.58,0,0,0,3,1.59h0a5,5,0,0,1,3.7-1.6A6.53,6.53,0,0,0,51.49,122.12Z" style="fill:#d1f754"/><path d="M50,134c2.26.35,4.92-1.24,5.51-3.14a6,6,0,0,0-2.32-1.22h0a4.39,4.39,0,0,1-2.93,1.57A8,8,0,0,0,50,134Z" style="fill:#b3df3f"/><path d="M154.76,50.52c-1.59-3-18.86,2-38.68,12S97,78.13,99,82.08s5.6,8.67,25-4.24C142.62,65.45,156.49,53.8,154.76,50.52Z" style="fill:#dfc1a2"/><path d="M137.28,29.82c-2.14-2.62-18.37,5.52-36.22,19S85,67.6,87.74,71s7.25,7.26,24.11-8.93C128,46.56,139.61,32.65,137.28,29.82Z" style="fill:#dfc1a2"/><path d="M97.3,48.53c13.56-17.83,22.83-33.32,20-35.7-2.58-2.19-17.46,8.46-33.1,24.63s-13,21-9.58,23.85S83.15,67.12,97.3,48.53Z" style="fill:#dfc1a2"/><path d="M114.06,99.38c3,.05,7.35-4.34,7.6-6.27.18-1.38-3.74.36-3.92-1.29A27.48,27.48,0,0,0,117,87c-.17-.53-.45-.58-.84-.17A27,27,0,0,0,113.57,91c-.83,1.45-3.65-1.85-4.11-.38-.58,1.85,1.75,7.65,4.47,8.78A.31.31,0,0,0,114.06,99.38Zm-15.18,8.68c-1.15-.78-1.37,3.5-2.93,2.91a27.73,27.73,0,0,0-4.59-1.5c-.55-.09-.73.14-.54.66a25.65,25.65,0,0,0,2.47,4.16c.91,1.4-3.31,2.41-2.21,3.49,1.38,1.36,7.61,1.92,9.85,0a.35.35,0,0,0,.08-.1C102.39,115.08,100.49,109.16,98.88,108.06Zm27.57,6.67a28.41,28.41,0,0,0-4.77-.79c-1.65-.2.29-4.08-1.24-3.93-1.94.18-6.37,4.59-6.35,7.53,0,0,0,.14,0,.13,1.1,2.74,6.86,5.09,8.74,4.56,1.33-.37-1.8-3.3-.34-4.11a27.45,27.45,0,0,0,4.11-2.55C127,115.21,127,114.93,126.45,114.73Zm23.4-2.21-.09-.06c-2.3-.94-7.1,1.14-7.89,2.58-.56,1,3,.86,2.68,2.22a22.33,22.33,0,0,0-.88,4c0,.47.17.59.6.39a22.76,22.76,0,0,0,3.28-2.41c1.1-.87,2.29,2.58,3.11,1.57C151.68,119.51,151.64,114.24,149.85,112.52Zm-34.66,27.26s-.1.05-.09.06c-1.89,1.61-2.23,6.84-1.31,8.2.66,1,2.16-2.32,3.2-1.38a22.39,22.39,0,0,0,3.13,2.6c.4.24.61.12.63-.35a23.23,23.23,0,0,0-.65-4c-.28-1.37,3.34-.86,2.81-2C122.25,141.34,117.54,139,115.19,139.78Zm-28.39-.35a22.74,22.74,0,0,0,1.91-3.6c.16-.44,0-.62-.47-.54a23.89,23.89,0,0,0-3.81,1.45c-1.29.55-1.52-3.09-2.58-2.33-1.32,1-2.68,6-1.42,8.18l.08.08c2,1.52,7.14.78,8.29-.39C89.61,141.44,86.09,140.64,86.8,139.43Z" style="fill:#70730f"/><path d="M116.36,141.89a7.71,7.71,0,0,0-.93,3.54,2.76,2.76,0,0,1,1.41-.4,2.46,2.46,0,0,1,1.67.65l0,0s0,0,0-.07a2.35,2.35,0,0,1,1.42-2.75,8.1,8.1,0,0,0-3.41-1Zm2.7-47a2.76,2.76,0,0,1-2.9-2.42c0-.21,0-.46-.08-.72s0-.3,0-.45l-.23.39-.36.64a2.54,2.54,0,0,1-2.26,1.31,3.75,3.75,0,0,1-1.38-.3c.54,1.67,1.68,3.88,2.84,4.6C116,97.69,117.9,96.16,119.06,94.84Zm30,19.66-.4,0a8.4,8.4,0,0,0-3.22.83,2.38,2.38,0,0,1,1.2,2.83l0,.07.06,0a2.49,2.49,0,0,1,1.55-.55,2.7,2.7,0,0,1,1.56.52A7.84,7.84,0,0,0,149,114.5ZM96.5,113.29h0a2.57,2.57,0,0,1-.94-.18l-.69-.26-.41-.16c.08.13.17.26.25.37l.4.61c1,1.59.12,2.89-.78,3.71a12.94,12.94,0,0,0,2.13.18,6.94,6.94,0,0,0,3.29-.63c.42-1.27-.09-3.66-.73-5.3A2.91,2.91,0,0,1,96.5,113.29Zm-11,25.59,0-.06-.07,0a2.45,2.45,0,0,1-1,.21h0a2.5,2.5,0,0,1-2-1,7.83,7.83,0,0,0-.27,3.7,5.43,5.43,0,0,0,2.06.32,10.52,10.52,0,0,0,1.65-.13A2.38,2.38,0,0,1,85.47,138.88Zm36.26-22.69c-1.88-.23-2.29-1.77-2.34-3-1.33,1.14-2.94,3.07-3.15,4.42.67,1.07,2.79,2.31,4.55,2.88-.38-1.15-.54-2.72,1.07-3.62l.65-.35.39-.22-.45,0Z" style="fill:#a3ad12"/><path d="M152.52,44.46c1.73,3.28-12.15,14.94-30.76,27.32-19.41,12.91-23,8.19-25,4.24S94,66.51,113.84,56.48,150.93,41.45,152.52,44.46Z" style="fill:url(#linear-gradient-5)"/><path d="M144.3,48.29c.9,1.7-10.42,10.07-25.17,19.34-15.26,9.6-17.34,7.31-18.38,5.29s-1.14-4.53,14.17-12.59S143.48,46.73,144.3,48.29Z" style="fill:url(#linear-gradient-6)"/><path d="M135,23.76c2.32,2.84-9.27,16.74-25.43,32.26C92.74,72.21,88.27,68.37,85.5,65s-4.6-8.64,13.31-22.17S132.9,21.15,135,23.76Z" style="fill:url(#linear-gradient-7)"/><path d="M127.6,29c1.2,1.47-8.48,11.71-21.39,23.5C92.83,64.74,90.32,62.94,88.89,61.18s-2-4.15,11.74-14.89S126.49,27.67,127.6,29Z" style="fill:url(#linear-gradient-8)"/><path d="M115.09,6.77c2.8,2.38-6.47,17.88-20,35.7C80.91,61.06,75.77,58.1,72.41,55.25S66.31,47.62,82,31.4,112.51,4.58,115.09,6.77Z" style="fill:url(#linear-gradient-9)"/><path d="M108.53,13.15C110,14.39,102,26,91.06,39.65,79.72,53.79,76.9,52.47,75.17,51s-2.72-3.69,9.24-16.48S107.19,12,108.53,13.15Z" style="fill:url(#linear-gradient-10)"/></g></g></svg>