<svg xmlns="http://www.w3.org/2000/svg" xmlns:xlink="http://www.w3.org/1999/xlink" viewBox="0 0 187.84 187.84"><defs><radialGradient id="radial-gradient" cx="93.92" cy="93.92" r="96.51" gradientUnits="userSpaceOnUse"><stop offset="0" stop-color="#f0e8d9"/><stop offset="0.31" stop-color="#f2ebde"/><stop offset="0.69" stop-color="#f8f4ee"/><stop offset="1" stop-color="#fff"/></radialGradient><radialGradient id="radial-gradient-2" cx="93.92" cy="93.92" r="87.09" gradientUnits="userSpaceOnUse"><stop offset="0" stop-color="#d0b799"/><stop offset="0.22" stop-color="#d4bda1"/><stop offset="0.56" stop-color="#e0cfb7"/><stop offset="0.97" stop-color="#f3ecdc"/><stop offset="1" stop-color="#f4eede"/></radialGradient><radialGradient id="radial-gradient-3" cx="97.08" cy="97.24" r="75.48" gradientUnits="userSpaceOnUse"><stop offset="0.37" stop-color="#bf1400"/><stop offset="0.45" stop-color="#c53b26"/><stop offset="0.56" stop-color="#cd6d57"/><stop offset="0.67" stop-color="#d3947e"/><stop offset="0.76" stop-color="#d7b199"/><stop offset="0.85" stop-color="#dac2aa"/><stop offset="0.91" stop-color="#dbc8b0"/></radialGradient><radialGradient id="radial-gradient-4" cx="84.28" cy="62.53" r="19.23" gradientUnits="userSpaceOnUse"><stop offset="0.14" stop-color="#e60000"/><stop offset="0.32" stop-color="#e70400"/><stop offset="0.48" stop-color="#e90f00"/><stop offset="0.64" stop-color="#ee2100"/><stop offset="0.79" stop-color="#f33b00"/><stop offset="0.93" stop-color="#fb5c00"/><stop offset="1" stop-color="#ff6e00"/></radialGradient><radialGradient id="radial-gradient-5" cx="86.9" cy="65.14" r="17.76" gradientUnits="userSpaceOnUse"><stop offset="0" stop-color="#fa2100"/><stop offset="0.14" stop-color="#fb471c"/><stop offset="0.35" stop-color="#fc7941"/><stop offset="0.55" stop-color="#fea05e"/><stop offset="0.73" stop-color="#febd73"/><stop offset="0.88" stop-color="#ffce80"/><stop offset="1" stop-color="#ffd484"/></radialGradient><radialGradient id="radial-gradient-6" cx="69.54" cy="119.33" r="19.23" xlink:href="#radial-gradient-4"/><radialGradient id="radial-gradient-7" cx="72.17" cy="121.94" r="17.76" xlink:href="#radial-gradient-5"/><radialGradient id="radial-gradient-8" cx="127.38" cy="104.35" r="19.23" xlink:href="#radial-gradient-4"/><radialGradient id="radial-gradient-9" cx="130" cy="106.96" r="17.76" xlink:href="#radial-gradient-5"/><radialGradient id="radial-gradient-10" cx="119.16" cy="69.13" r="19.23" xlink:href="#radial-gradient-4"/><radialGradient id="radial-gradient-11" cx="121.79" cy="71.74" r="17.76" xlink:href="#radial-gradient-5"/><radialGradient id="radial-gradient-12" cx="61.95" cy="87.03" r="17.42" xlink:href="#radial-gradient-4"/><radialGradient id="radial-gradient-13" cx="64.33" cy="89.39" r="16.08" xlink:href="#radial-gradient-5"/><radialGradient id="radial-gradient-14" cx="103.91" cy="129.33" r="17.42" xlink:href="#radial-gradient-4"/><radialGradient id="radial-gradient-15" cx="106.29" cy="131.69" r="16.08" xlink:href="#radial-gradient-5"/><radialGradient id="radial-gradient-16" cx="94.56" cy="78.06" r="19.23" gradientTransform="translate(82.9 -44) rotate(45)" xlink:href="#radial-gradient-4"/><radialGradient id="radial-gradient-17" cx="97.19" cy="80.67" r="17.76" xlink:href="#radial-gradient-5"/><radialGradient id="radial-gradient-18" cx="111.17" cy="100.11" r="19.23" gradientTransform="translate(109.8 -49.48) rotate(47.47)" xlink:href="#radial-gradient-4"/><radialGradient id="radial-gradient-19" cx="113.79" cy="102.72" r="17.76" xlink:href="#radial-gradient-5"/><radialGradient id="radial-gradient-20" cx="87.27" cy="104.23" r="19.23" xlink:href="#radial-gradient-4"/><radialGradient id="radial-gradient-21" cx="89.89" cy="106.84" r="17.76" xlink:href="#radial-gradient-5"/></defs><g id="Layer_2" data-name="Layer 2"><g id="Layer_1-2" data-name="Layer 1"><path d="M187.84,93.92A93.92,93.92,0,1,1,93.92,0,93.92,93.92,0,0,1,187.84,93.92Z" style="fill:#63786b"/><path d="M185.82,93.92A91.9,91.9,0,1,1,93.92,2,91.9,91.9,0,0,1,185.82,93.92Z" style="fill:#362403"/><path d="M180.38,93.92A86.46,86.46,0,1,1,93.92,7.46,86.46,86.46,0,0,1,180.38,93.92Z" style="fill:url(#radial-gradient)"/><path d="M93.92,11a83,83,0,1,0,83,83A83,83,0,0,0,93.92,11Zm80.37,76.41c1.66,5.45-3.87,12-12.36,14.56s-16.72.27-18.39-5.18,3.87-12,12.37-14.56S172.62,81.92,174.29,87.37Zm-47.57,17.88c-8.87.36-16.25-4-16.49-9.64-.14-3.37,2.27-6.46,6.08-8.5-4.09,1.18-9.81-.06-14.91-3.65-7.25-5.11-10.48-13-7.19-17.69s11.82-4.28,19.08.83,10.47,13,7.19,17.69a6.86,6.86,0,0,1-1.89,1.79,23.36,23.36,0,0,1,7.27-1.45c8.87-.37,16.25,4,16.49,9.64a8.21,8.21,0,0,1-2.92,6.27,7.43,7.43,0,0,1,4.75,1.08c4.77,3.11,4.71,11.66-.13,19.1s-12.64,10.95-17.41,7.84-4.72-11.66.12-19.1a24.13,24.13,0,0,1,4-4.73A25.29,25.29,0,0,1,126.72,105.25Zm-.56-43.68c-2.63,5.06-11.14,5.84-19,1.74S95,51.8,97.64,46.75s11.14-5.84,19-1.74S128.79,56.52,126.16,61.57Zm14.1,4.36c8,3.76,12.6,11,10.18,16.15s-10.88,6.29-18.92,2.53-12.61-11-10.19-16.15S132.22,62.16,140.26,65.93ZM145,33.2c5.38,1.85,7.42,10.16,4.53,18.55,0,0,0,0,0,0a6.74,6.74,0,0,1,2.2-1.65c5.16-2.4,12.38,2.18,16.12,10.23s2.58,16.52-2.58,18.92-12.39-2.18-16.13-10.23a20.69,20.69,0,0,1-1.88-12.47c-3.37,5.46-8.44,8.48-12.7,7-5.38-1.85-7.41-10.15-4.53-18.55S139.56,31.35,145,33.2ZM95.59,12.66c5,0,9.1,5.46,10.09,12.72a7.94,7.94,0,0,1,2.65-5.64c4.38-3.65,12.54-1.07,18.22,5.75s6.73,15.31,2.35,19-12.53,1.07-18.21-5.75A21.81,21.81,0,0,1,105.9,29c-.08,8.77-4.66,15.85-10.31,15.85s-10.31-7.2-10.31-16.08S89.89,12.66,95.59,12.66ZM64.69,20.1c6.4-6.15,14.78-7.82,18.73-3.71S85.39,28.81,79,35s-14.79,7.82-18.74,3.71S58.29,26.26,64.69,20.1ZM36.38,36.41c6.4-6.15,14.79-7.81,18.74-3.71,3.56,3.7,2.29,10.81-2.67,16.69,5.67-3.7,11.9-4.23,15.14-.85.15.15.28.33.42.5a7.87,7.87,0,0,1,.81-6.12c3-4.81,11.59-4.86,19.1-.12S99,55.3,96,60.12s-11.6,4.86-19.1.12a22.15,22.15,0,0,1-7.35-7.41c.54,4.29-1.76,9.85-6.37,14.28-6.39,6.15-14.78,7.82-18.73,3.71C40.87,67.12,42.14,60,47.1,54.14,41.43,57.84,35.2,58.36,32,55,28,50.89,30,42.57,36.38,36.41ZM22,77.73a6.84,6.84,0,0,1,2,.13,24.42,24.42,0,0,1-2.41-3.46c-4.41-7.71-4-16.24,1-19.08s12.53,1.13,16.94,8.83,4,16.25-1,19.08c-2.29,1.31-5.15,1.15-8-.16a22.27,22.27,0,0,1,3.11,9.8,24.65,24.65,0,0,1,0,4.3,8.27,8.27,0,0,1,4.1-5.79c2.45-1.24,5.43-.85,8.31.75-4-4.38-5.44-9.59-3.18-13.18,2.78-4.42,10.18-4.84,17.17-1.26a7,7,0,0,1-.87-2.82c-.46-5.68,6.35-10.85,15.2-11.56s16.39,3.32,16.84,9c.31,3.78-2.61,7.33-7.2,9.49a23.31,23.31,0,0,1,3.1-.66c8.78-1.3,16.57,2.21,17.41,7.84s-5.6,11.26-14.38,12.57S73.57,99.33,72.73,93.7c-.61-4.11,2.67-8.21,7.89-10.64a24,24,0,0,1-4.6.82,22.81,22.81,0,0,1-9.15-1.07c4,4.39,5.5,9.64,3.23,13.25-3,4.82-11.59,4.9-19.1.18l-.09-.06a24,24,0,0,1,3.28,4.92c4,7.93,3.1,16.43-2,19s-12.45-1.79-16.44-9.72a21.64,21.64,0,0,1-2.45-10.84c-1.14,5.69-4.39,9.87-8.55,10.23-5.68.48-10.89-6.3-11.65-15.14S16.34,78.21,22,77.73Zm67.12,35.89c-.92,5.62-8.77,9-17.53,7.57S56.5,114,57.42,108.41s8.78-9,17.54-7.58S90.07,108,89.14,113.62Zm-6.08,51.46c-2,5.34-10.35,7.15-18.66,4S51,159.19,53,153.85c1.84-4.94,9.13-6.85,16.8-4.65a20.88,20.88,0,0,1-8.48-8.92A25.78,25.78,0,0,1,60,137.47a23.19,23.19,0,0,1-.87,3.95c-2.63,8.48-9.17,14-14.61,12.29-4.74-1.47-7.07-7.91-5.86-15.14a7.06,7.06,0,0,1-1.14.83c-5,2.8-12.52-1.19-16.89-8.92s-3.88-16.26,1.08-19.07,12.52,1.2,16.89,8.92a22,22,0,0,1,3,10.07c3.21-5.56,8.18-8.72,12.48-7.39a8,8,0,0,1,4.77,4.52,8.46,8.46,0,0,1,4.1-6.28c5.05-2.65,12.48,1.58,16.61,9.44s3.38,16.37-1.66,19a7.54,7.54,0,0,1-5,.61C80.43,153.61,85,160,83.06,165.08Zm42.08,1.3c-8.83.86-16.44-3-17-8.7-.26-2.58,1-5.08,3.27-7.12a7.8,7.8,0,0,1-5.9-.43c-3-1.6-4.42-5.27-4.22-9.63-1.51,3.77-4.05,6.43-7.06,7.06a22.06,22.06,0,0,1,9.21,5.41c6.42,6.14,8.42,14.45,4.49,18.57S95.6,174,89.18,167.88s-8.42-14.44-4.48-18.56A7.69,7.69,0,0,1,90,147.08c-4.26-1.89-7.53-7.84-7.83-15-.35-8.86,4-16.24,9.66-16.48s10.59,6.77,11,15.64a25.9,25.9,0,0,1,0,2.65,23.7,23.7,0,0,1,1.27-2.78c2.42-4.52,5.93-7.81,9.44-9.27a22.38,22.38,0,0,1-9.75-1c-8.45-2.73-13.88-9.33-12.13-14.75s10-7.61,18.46-4.89,13.88,9.33,12.13,14.76a8.39,8.39,0,0,1-5.36,5,7.3,7.3,0,0,1,3.89.79c5,2.69,5.69,11.21,1.5,19a23,23,0,0,1-4.9,6.32,24.57,24.57,0,0,1,5.84-1.31c8.83-.86,16.44,3,17,8.7S134,165.51,125.14,166.38Zm33.69-25.84c-.6,5.66-8.25,9.49-17.08,8.56s-15.49-6.29-14.89-12,8.25-9.5,17.08-8.56S159.43,134.87,158.83,140.54Zm9-18.53c-5.13,7.24-13,10.45-17.71,7.16s-4.26-11.83.86-19.08,13.06-10.45,17.71-7.16S172.94,114.76,167.82,122Z" style="fill:url(#radial-gradient-2)"/><path d="M53.16,117s-2,2-1,8.5,4.5,25.5,23.25,29.75c15.62,3.54,16-3.75,20,2s16.25,13.25,26,7.25,7.75-17.25,9.75-17.5,18.75,2.25,21.75-12.5-6-23-6.25-28,6.75-22-9.25-37.75S53.16,117,53.16,117Z" style="fill:url(#radial-gradient-3)"/><path d="M103.51,62.53A19.24,19.24,0,1,1,84.27,43.3,19.23,19.23,0,0,1,103.51,62.53Z" style="fill:url(#radial-gradient-4)"/><path d="M92,54.18c2.49,4.67-2.28,6.08-7.7,9s-9.45,6.18-11.94,1.52S72.28,53.89,77.71,51,89.55,49.52,92,54.18Z" style="fill:url(#radial-gradient-5)"/><path d="M88.77,119.33A19.23,19.23,0,1,1,69.54,100.1,19.23,19.23,0,0,1,88.77,119.33Z" style="fill:url(#radial-gradient-6)"/><path d="M77.31,111c2.49,4.66-2.28,6.08-7.7,9s-9.46,6.18-12,1.52-.11-10.8,5.31-13.69S74.82,106.32,77.31,111Z" style="fill:url(#radial-gradient-7)"/><path d="M146.61,104.35a19.23,19.23,0,1,1-19.23-19.23A19.23,19.23,0,0,1,146.61,104.35Z" style="fill:url(#radial-gradient-8)"/><path d="M135.14,96c2.5,4.66-2.27,6.08-7.7,9s-9.45,6.18-11.94,1.52-.12-10.8,5.31-13.69S132.65,91.34,135.14,96Z" style="fill:url(#radial-gradient-9)"/><path d="M138.39,69.13A19.23,19.23,0,1,1,119.16,49.9,19.23,19.23,0,0,1,138.39,69.13Z" style="fill:url(#radial-gradient-10)"/><path d="M126.93,60.79c2.49,4.66-2.28,6.08-7.7,9s-9.46,6.18-12,1.52-.11-10.79,5.31-13.69S124.44,56.12,126.93,60.79Z" style="fill:url(#radial-gradient-11)"/><path d="M79.37,87A17.42,17.42,0,1,1,62,69.61,17.42,17.42,0,0,1,79.37,87Z" style="fill:url(#radial-gradient-12)"/><path d="M69,79.47c2.26,4.22-2.07,5.5-7,8.13S53.45,93.2,51.19,89,51.09,79.2,56,76.58,66.73,75.25,69,79.47Z" style="fill:url(#radial-gradient-13)"/><path d="M121.33,129.33a17.42,17.42,0,1,1-17.42-17.42A17.42,17.42,0,0,1,121.33,129.33Z" style="fill:url(#radial-gradient-14)"/><path d="M111,121.77c2.26,4.22-2.06,5.51-7,8.13s-8.56,5.6-10.82,1.38-.1-9.78,4.81-12.4S108.69,117.55,111,121.77Z" style="fill:url(#radial-gradient-15)"/><circle cx="94.56" cy="78.06" r="19.23" transform="translate(-27.5 89.73) rotate(-45)" style="fill:url(#radial-gradient-16)"/><path d="M102.33,69.72c2.49,4.66-2.28,6.08-7.7,9s-9.45,6.18-11.95,1.51S82.57,69.42,88,66.52,99.84,65.06,102.33,69.72Z" style="fill:url(#radial-gradient-17)"/><circle cx="111.17" cy="100.11" r="19.23" transform="translate(-37.75 114.37) rotate(-47.47)" style="fill:url(#radial-gradient-18)"/><path d="M118.93,91.77c2.49,4.66-2.28,6.08-7.7,9s-9.45,6.17-11.94,1.51-.12-10.79,5.31-13.69S116.44,87.11,118.93,91.77Z" style="fill:url(#radial-gradient-19)"/><path d="M106.5,104.23A19.23,19.23,0,1,1,87.27,85,19.23,19.23,0,0,1,106.5,104.23Z" style="fill:url(#radial-gradient-20)"/><path d="M95,95.89c2.5,4.66-2.27,6.08-7.7,9s-9.45,6.17-11.94,1.51-.11-10.79,5.31-13.69S92.54,91.23,95,95.89Z" style="fill:url(#radial-gradient-21)"/></g></g></svg>