<svg xmlns="http://www.w3.org/2000/svg" xmlns:xlink="http://www.w3.org/1999/xlink" viewBox="0 0 187.84 187.85"><defs><linearGradient id="linear-gradient" x1="6.99" y1="-41.16" x2="99.66" y2="102.84" gradientUnits="userSpaceOnUse"><stop offset="0" stop-color="#dbd6d1"/><stop offset="0.83" stop-color="#f4f3f0"/><stop offset="1" stop-color="#faf9f7"/></linearGradient><linearGradient id="linear-gradient-2" x1="66.19" y1="45.5" x2="109.54" y2="121.19" gradientUnits="userSpaceOnUse"><stop offset="0" stop-color="#dbcfc2"/><stop offset="0.54" stop-color="#ede8e1"/><stop offset="1" stop-color="#fff"/></linearGradient><linearGradient id="linear-gradient-3" x1="66.19" y1="44.5" x2="109.54" y2="120.19" gradientUnits="userSpaceOnUse"><stop offset="0" stop-color="#d6cfc7"/><stop offset="0.58" stop-color="#edeae6"/><stop offset="1" stop-color="#fff"/></linearGradient><linearGradient id="linear-gradient-4" x1="-10.6" y1="-10.6" x2="124.41" y2="124.42" xlink:href="#linear-gradient"/><radialGradient id="radial-gradient" cx="89.66" cy="81.38" r="63.22" gradientTransform="translate(1.02 -1.11) rotate(0.71)" gradientUnits="userSpaceOnUse"><stop offset="0.35" stop-color="#ffd9a8"/><stop offset="0.39" stop-color="#ffddb1"/><stop offset="0.62" stop-color="#ffefdb"/><stop offset="0.79" stop-color="#fffbf5"/><stop offset="0.9" stop-color="#fff"/><stop offset="0.93" stop-color="#fffcf9"/><stop offset="0.97" stop-color="#fff4e8"/><stop offset="1" stop-color="#ffebd4"/></radialGradient><linearGradient id="linear-gradient-5" x1="114.89" y1="130.84" x2="59.29" y2="21.86" gradientUnits="userSpaceOnUse"><stop offset="0" stop-color="#fff"/><stop offset="0.35" stop-color="#fffef9"/><stop offset="0.82" stop-color="#fffde8"/><stop offset="1" stop-color="#fffce0"/></linearGradient><radialGradient id="radial-gradient-2" cx="84" cy="71.69" r="29.69" gradientUnits="userSpaceOnUse"><stop offset="0.35" stop-color="#ffc700"/><stop offset="0.35" stop-color="#ffc700"/><stop offset="0.76" stop-color="#ffad00"/><stop offset="1" stop-color="#ffa300"/></radialGradient><linearGradient id="linear-gradient-6" x1="651.86" y1="905.11" x2="664.5" y2="905.11" gradientTransform="translate(328.28 -1024.78) rotate(45)" gradientUnits="userSpaceOnUse"><stop offset="0" stop-color="#69ad0f"/><stop offset="0.38" stop-color="#5ba00e"/><stop offset="1" stop-color="#3c830b"/></linearGradient><linearGradient id="linear-gradient-7" x1="667.04" y1="904.66" x2="654.9" y2="904.66" xlink:href="#linear-gradient-6"/><linearGradient id="linear-gradient-8" x1="152.22" y1="106.87" x2="145.87" y2="119.73" gradientTransform="matrix(1, 0, 0, 1, 0, 0)" xlink:href="#linear-gradient-6"/><linearGradient id="linear-gradient-9" x1="683.59" y1="941.31" x2="679.73" y2="933.13" gradientTransform="translate(328.28 -1024.78) rotate(45)" gradientUnits="userSpaceOnUse"><stop offset="0.23" stop-color="#69ad0f"/><stop offset="0.52" stop-color="#5ba00e"/><stop offset="1" stop-color="#3c830b"/></linearGradient><linearGradient id="linear-gradient-10" x1="123.45" y1="75.5" x2="115.48" y2="82.15" gradientTransform="matrix(1, 0, 0, 1, 0, 0)" xlink:href="#linear-gradient-6"/><linearGradient id="linear-gradient-11" x1="628.52" y1="938.21" x2="632.83" y2="930.75" xlink:href="#linear-gradient-6"/><linearGradient id="linear-gradient-12" x1="616.92" y1="917.01" x2="693.73" y2="917.01" xlink:href="#linear-gradient-6"/><linearGradient id="linear-gradient-13" x1="684.06" y1="944.1" x2="674.74" y2="926.44" gradientTransform="translate(328.28 -1024.78) rotate(45)" gradientUnits="userSpaceOnUse"><stop offset="0" stop-color="#69ad0f"/><stop offset="0.44" stop-color="#77b717"/><stop offset="1" stop-color="#8fc724"/></linearGradient><linearGradient id="linear-gradient-14" x1="673.04" y1="923.83" x2="677.92" y2="934.57" xlink:href="#linear-gradient-9"/><linearGradient id="linear-gradient-15" x1="2849.8" y1="944.1" x2="2840.48" y2="926.44" gradientTransform="matrix(-0.71, -0.71, -0.71, 0.71, 2786.5, 1433.44)" xlink:href="#linear-gradient-13"/><linearGradient id="linear-gradient-16" x1="2838.77" y1="923.83" x2="2843.65" y2="934.57" gradientTransform="matrix(-0.71, -0.71, -0.71, 0.71, 2786.5, 1433.44)" xlink:href="#linear-gradient-9"/><linearGradient id="linear-gradient-17" x1="677.95" y1="905.13" x2="633.6" y2="905.13" xlink:href="#linear-gradient-13"/><linearGradient id="linear-gradient-18" x1="621.41" y1="905.13" x2="655.26" y2="905.13" xlink:href="#linear-gradient-9"/><linearGradient id="linear-gradient-19" x1="3667.93" y1="1760.76" x2="3667.93" y2="1863.29" gradientTransform="translate(3102.49 -2625.03) rotate(111.37)" gradientUnits="userSpaceOnUse"><stop offset="0.05" stop-color="#d6756e"/><stop offset="0.19" stop-color="#b84f4d"/><stop offset="0.4" stop-color="#d6756e"/><stop offset="0.61" stop-color="#b84f4d"/><stop offset="0.81" stop-color="#d6756e"/><stop offset="1" stop-color="#b84f4d"/></linearGradient><linearGradient id="linear-gradient-20" x1="3667.77" y1="1760.95" x2="3667.77" y2="1862.73" gradientTransform="translate(3102.49 -2625.03) rotate(111.37)" gradientUnits="userSpaceOnUse"><stop offset="0" stop-color="#f2e1ce"/><stop offset="0.19" stop-color="#e3bead"/><stop offset="0.4" stop-color="#f2e1ce"/><stop offset="0.63" stop-color="#e3bead"/><stop offset="0.82" stop-color="#f2e1ce"/><stop offset="1" stop-color="#e3bead"/></linearGradient><linearGradient id="linear-gradient-21" x1="3662.82" y1="1759.83" x2="3662.82" y2="1863.67" gradientTransform="translate(3102.49 -2625.03) rotate(111.37)" gradientUnits="userSpaceOnUse"><stop offset="0" stop-color="#ed6d75"/><stop offset="0.2" stop-color="#cd3845"/><stop offset="0.4" stop-color="#ed6d75"/><stop offset="0.62" stop-color="#cd3845"/><stop offset="0.82" stop-color="#ed6d75"/><stop offset="1" stop-color="#cd3845"/></linearGradient><linearGradient id="linear-gradient-22" x1="3671.12" y1="1760.16" x2="3671.12" y2="1863.56" gradientTransform="translate(3102.49 -2625.03) rotate(111.37)" gradientUnits="userSpaceOnUse"><stop offset="0" stop-color="#fffbfc"/><stop offset="0.19" stop-color="#f0cecf"/><stop offset="0.32" stop-color="#faeced"/><stop offset="0.4" stop-color="#fffbfc"/><stop offset="0.61" stop-color="#f0cecf"/><stop offset="0.74" stop-color="#faeced"/><stop offset="0.83" stop-color="#fffbfc"/><stop offset="1" stop-color="#f0cecf"/></linearGradient><linearGradient id="linear-gradient-23" x1="3675.22" y1="1760.45" x2="3675.22" y2="1863.14" gradientTransform="translate(3102.49 -2625.03) rotate(111.37)" gradientUnits="userSpaceOnUse"><stop offset="0" stop-color="#c24b42"/><stop offset="0.2" stop-color="#811316"/><stop offset="0.4" stop-color="#c24b42"/><stop offset="0.62" stop-color="#811316"/><stop offset="0.81" stop-color="#c24b42"/><stop offset="1" stop-color="#811316"/></linearGradient></defs><g id="Layer_2" data-name="Layer 2"><g id="Layer_1-2" data-name="Layer 1"><path d="M187.84,93.92A93.92,93.92,0,1,1,93.92,0,93.92,93.92,0,0,1,187.84,93.92Z" style="fill:#8b8f90"/><path d="M185.72,93.92A91.8,91.8,0,1,1,93.92,2.13,91.8,91.8,0,0,1,185.72,93.92Z" style="fill:url(#linear-gradient)"/><path d="M161.38,93.92A67.46,67.46,0,1,1,93.92,26.47,67.46,67.46,0,0,1,161.38,93.92Z" style="fill:url(#linear-gradient-2)"/><path d="M168.9,73.72c6.45-2.08,8.75-5.66,8.94-9.59A88.71,88.71,0,1,0,15.78,135c8.89,5.14,30.64-10,64.41-28.58C117,86.13,157.24,77.48,168.9,73.72Z" style="fill:#fff"/><path d="M161.38,92.92A67.46,67.46,0,1,1,93.92,25.47,67.46,67.46,0,0,1,161.38,92.92Z" style="fill:url(#linear-gradient-3)"/><path d="M154,93.92A60.12,60.12,0,1,1,93.92,33.8,60.12,60.12,0,0,1,154,93.92Z" style="fill:url(#linear-gradient-4)"/><path d="M142.51,80.79c4.21-1.36,5.71-3.7,5.83-6.26A57.87,57.87,0,1,0,42.62,120.77c5.8,3.35,20-6.51,42-18.65C108.67,88.88,134.91,83.24,142.51,80.79Z" style="fill:#fff"/><path d="M154.27,81.38A64.62,64.62,0,1,1,89.66,16.77,64.61,64.61,0,0,1,154.27,81.38Z" style="fill:#c78724"/><circle cx="89.66" cy="81.38" r="63.22" transform="translate(-1.01 1.13) rotate(-0.71)" style="fill:url(#radial-gradient)"/><path d="M140.93,67c3.81-1.23,5.52-3.22,6-5.46A60.63,60.63,0,1,0,36.17,109.94c4.44,1.14,12.21-2.71,23.17-8.88,5.83-3.28-14.09-18.32-2.07-39.8,4.54-8.13,30.48-18.84,38.58-16.38,25.11,7.65,19.29,30.58,29.71,26.47C132.34,68.68,138,67.94,140.93,67Z" style="fill:url(#linear-gradient-5)"/><path d="M113.7,71.69A29.7,29.7,0,1,1,84,42,29.7,29.7,0,0,1,113.7,71.69Z" style="fill:url(#radial-gradient-2)"/><path d="M89.32,50.29a22,22,0,0,0-5-.59c-9.82,0-19.09,6.81-20.89,15.37A27.41,27.41,0,0,0,74.3,70.81l0,0a18.41,18.41,0,0,1,13.4-5.78C90.08,60.78,90.27,53.68,89.32,50.29Z" style="fill:#fff582"/><path d="M83.09,97.86c9.46,1.45,20.61-5.23,23.07-13.15a24.38,24.38,0,0,0-9.71-5.11l0,0c-3,3.17-7.11,6.38-12.26,6.57A33.62,33.62,0,0,0,83.09,97.86Z" style="fill:#ffd62e"/><path d="M171.39,73.29a7.8,7.8,0,0,0,3.16-2c1-1.07.44-1-.9-1.52s-2.43-.14-1.79-1.78,1.4-3.57.85-3.94c-.37-.55-2.34.23-3.94.85s-1.26-.44-1.79-1.79-.44-1.86-1.51-.9a7.8,7.8,0,0,0-1.95,3.16c-.21.66-.47,0-1-1s-1.38-2.24-1.84-1.39a20.43,20.43,0,0,0-1.48,5.83c-.1,1.82-2.44-2.44-3.47-3.7s-.9-.66-1.42.49-.83,2.63-1.61,1.34-2.38-2.12-3.71-3-1-.2-1.29,1,.82,3.7,1.49,4.64-1.84,0-3.12-.43-.61.49-.11,2.1a45,45,0,0,0,3.93,7.34c1.12,1.7-1.89,3.14-3,.55s-2.22-6.32-3-7.71-1.16-.59-1.89,1-.69-1-2.35-3.23-1.54-1.82-2.29-.52-1.37,1-2.36-.27-3.33-3.32-3.9-2.68-.37,4,.3,5.31-.22,1.72-1.69,1.23-3.3-2.31-3,.63,4.14,4.14,2.17,4.57-4.11-1.29-3.14,1.83c.1.32.22.6.34.89a1.38,1.38,0,0,0-.73.13c-1.2.42-4.46,2.6-4,1a20,20,0,0,0,.5-5.65c-.12-.94-1.23-.46-1.94,0s-1.18.84-1.15.17a8.84,8.84,0,0,0-.62-3.66c-.58-1.39-.68-1-1.57-.26s-1,1.79-2.15.25-2.58-3.35-3.11-3.18c-.63-.07-.71,2-.78,3.63s-.9.73-2.36.27-1.93-.89-1.49.65a11.28,11.28,0,0,0,2.12,3.78c.54.64-.23.4-1.36.21s-2.8-.31-2.18.68a30.12,30.12,0,0,0,5,5.34c1.71,1.32-3.48.69-5.24.82s-1.11.43-.2,1.77,2.29,2.68.6,2.6-3.46,1-5.09,1.89-.75.93.38,2.17,4.45,1.71,5.78,1.62-.9,2.13-2,3.29.21,1.08,2.22,1.62,5.83,1.1,11.89,0a3.18,3.18,0,0,1,3,1.61c.06.27.11.49.15.64.58,2.42.87,6.75-.87,8.07l-.09.07a7.7,7.7,0,0,1-3.79.78c-1.12-.24-1.69,2.09-1,3.77.77,1.9,2.09,2.09,5.84-.16,3-1,11-.08,13.33.48l.79.18a3.06,3.06,0,0,1,1.36,2.88c-1.1,6.06-.54,9.89,0,11.89s.41,3.42,1.62,2.22,3.39-3.36,3.29-2.05.35,4.62,1.62,5.78,1.28,2.06,2.17.38,2-3.37,1.89-5.09,1.23-.34,2.6.59,1.63,1.6,1.77-.19-.49-7,.82-5.24a30.46,30.46,0,0,0,5.34,5c1,.61.88-1,.69-2.19s-.43-1.9.2-1.36a11.21,11.21,0,0,0,3.78,2.13c1.54.44,1.12,0,.66-1.49s-1.49-2.28.27-2.36,3.7-.15,3.62-.78c.18-.53-1.67-2-3.18-3.12s-.46-1.23.25-2.14,1.13-1-.26-1.57a9.06,9.06,0,0,0-3.66-.63c-.67,0-.27-.41.17-1.14s.9-1.82,0-2a20.12,20.12,0,0,0-5.66.51c-1.63.49.55-2.78,1-4l.07-.23a9.15,9.15,0,0,0,1.07.42c3.13,1,1.4-1.12,1.84-3.14s1.56,1.91,4.57,2.16,1.12-1.56.63-3-.09-2.37,1.23-1.69,4.66.88,5.31.3-1.4-2.92-2.69-3.9-1.59-1.6-.26-2.36,1.71-.64-.52-2.29-4.88-1.62-3.24-2.36,2.39-1.07,1-1.88-5.15-2-7.71-3-1.15-4.1.54-3a46.64,46.64,0,0,0,7.34,3.93c1.61.49,2.57,1.17,2.1-.11s-1.36-3.8-.42-3.12,3.42,1.82,4.64,1.49,1.84,0,1-1.29-1.68-2.93-2.95-3.71.17-1.07,1.34-1.61,1.75-.4.49-1.43-5.53-3.36-3.7-3.46a20.4,20.4,0,0,0,5.83-1.49c.85-.45-.45-1.32-1.4-1.83S170.72,73.5,171.39,73.29Zm-46,23.82a30.24,30.24,0,0,0,6.36-5.49c.77-1.16,1.53-1.61.39-2s-3.44-1-2.65-1.47a5.88,5.88,0,0,0,1.76-1.7c1.91,2,4.59,6.55,4.75,10.37a11.08,11.08,0,0,1-.15,2.49,81.73,81.73,0,0,1-8.61,6.92l-.72.47c-1.27.48-1.89,0-2-1-.11-.69-.62-3-1.29-5.64A4.19,4.19,0,0,1,125.43,97.11Zm2.75-13.65a2.47,2.47,0,0,0-.86.32c-1,.62-.84-.79-1-2.08,0-.37,0-.65-.06-.88A11.37,11.37,0,0,0,128.18,83.46Zm.35,25.55c2.82-2.42,5.95-5.29,9-8.1a10.49,10.49,0,0,1,2.4-.14c3.58.15,7.78,2.51,10,4.38a5.75,5.75,0,0,0-1.42,1.55c-.44.79-1.13-1.51-1.47-2.65s-.8-.38-2,.38a30.76,30.76,0,0,0-5.49,6.36,4.12,4.12,0,0,1-3.26,2.24c-2.87-.75-5.62-1.4-6.35-1.52C129,111.35,127.7,110.22,128.53,109Zm24.37-.1a1.73,1.73,0,0,0,.22-.5,13.87,13.87,0,0,0,1.77,1.46C153.62,109.75,152.29,109.87,152.9,108.91Z" style="fill:#babfab"/><path d="M94.87,130.45s27.95,33.72,25.31,36c-1.34,1.14-6.23.64-15.07.95-10.68.38-17.58-3.14-27.46-9.72-9.15-6.11-10.73-6.13-15.26-7.44-9.91-2.86-18.11-.77-27.27-7.25-7.22-5.11-13.54-9.72-12.55-11.64C24.09,128.39,94.87,130.45,94.87,130.45Z" style="fill:#c9bbac"/><path d="M166,98.09c-1.29-1-1.59-1.59-.26-2.35s1.71-.64-.53-2.29-4.87-1.62-3.23-2.36,2.39-1.07,1-1.88-5.14-1.95-7.7-3-1.15-4.1.54-3a46.64,46.64,0,0,0,7.34,3.93c1.61.49,2.56,1.17,2.1-.11s-1.36-3.8-.42-3.13,3.41,1.83,4.63,1.5,1.85,0,1-1.29-1.68-2.93-3-3.71.18-1.07,1.35-1.61,1.75-.4.49-1.43-5.53-3.36-3.7-3.46a20.59,20.59,0,0,0,5.83-1.49c.85-.45-.46-1.33-1.4-1.83s-1.65-.77-1-1a7.63,7.63,0,0,0,3.15-1.94c1-1.07.45-1-.89-1.52S169,66,169.62,64.34s1.4-3.57.84-3.94c-.37-.55-2.33.22-3.93.85s-1.26-.44-1.79-1.79-.44-1.87-1.52-.9a7.7,7.7,0,0,0-1.94,3.16c-.21.66-.48,0-1-1s-1.38-2.25-1.84-1.39A20.74,20.74,0,0,0,157,65.17c-.09,1.82-2.43-2.44-3.46-3.7s-.9-.67-1.43.49-.82,2.62-1.6,1.34-2.38-2.12-3.72-3-.95-.19-1.28,1,.82,3.7,1.49,4.63-1.85,0-3.12-.42-.61.49-.11,2.1A45.41,45.41,0,0,0,147.67,75c1.11,1.7-1.89,3.14-3,.55s-2.21-6.33-3-7.71-1.17-.59-1.89,1-.69-1-2.35-3.23-1.54-1.82-2.29-.52-1.38,1-2.36-.27-3.33-3.32-3.9-2.69-.37,4,.3,5.32-.22,1.71-1.69,1.23-3.3-2.31-3,.63,4.14,4.14,2.16,4.57-4.1-1.3-3.13,1.83,3.48,4.94,5.39,6.85,4.78,6.64,4.94,10.59a6.93,6.93,0,0,1-.67,3.93l.65.65a7,7,0,0,1,3.93-.67c4,.16,8.68,3,10.59,5s3.67,4.39,6.85,5.38,1.4-1.11,1.84-3.13,1.55,1.91,4.57,2.16,1.12-1.56.63-3.05-.09-2.36,1.23-1.68,4.66.88,5.31.3S167.31,99.07,166,98.09Z" style="fill:url(#linear-gradient-6)"/><path d="M150.07,102.6c.38.41.77.83,1.18,1.23a10,10,0,0,0,4.16,2.73,6.74,6.74,0,0,0,.76.19c0-.15,0-.33,0-.47a6.21,6.21,0,0,1,0-2.2,1.48,1.48,0,0,1,.91-1.21,1.5,1.5,0,0,1,1.48.58c.11.1.22.22.34.35s.27.29.43.44a3.91,3.91,0,0,0,2.35,1.31c.27,0,.46,0,.6,0-.09-.21-.23-.49-.34-.69a8.92,8.92,0,0,1-.55-1.22c-.55-1.66,0-2.42.32-2.73a1.84,1.84,0,0,1,2.16,0,8.78,8.78,0,0,0,4,.5,10.37,10.37,0,0,0-2.34-2.6,8.27,8.27,0,0,1-.76-.65,2,2,0,0,1-.7-1.63,2.31,2.31,0,0,1,1.3-1.55l.25-.15c-.24-.2-.55-.43-.87-.66a10.31,10.31,0,0,0-2.54-1.29,3.53,3.53,0,0,1-1.24-.63,1.06,1.06,0,0,1-.3-.93c.11-.62.72-.89,1-1l.81-.37a36,36,0,0,0-3.92-1.56c-1.22-.44-2.49-.9-3.56-1.35a3.64,3.64,0,0,1-1.17-.76,2.54,2.54,0,0,1-.26-3.41,2,2,0,0,1,2.8-.37,46.46,46.46,0,0,0,7.11,3.82l.73.24c-.69-2-.85-2.91-.18-3.42a1.13,1.13,0,0,1,1.39.07c.94.68,3.1,1.58,3.88,1.36l.41-.09-.26-.43a13.11,13.11,0,0,0-1.67-2.33,3.41,3.41,0,0,0-.66-.53,2.82,2.82,0,0,1-.51-.39,1.23,1.23,0,0,1-.39-1.15c.15-.74.91-1,1.71-1.37l.63-.26.13-.07c-.32-.24-.79-.55-1.29-.88a20.13,20.13,0,0,1-2.47-1.82,1.36,1.36,0,0,1-.48-1.47,1.25,1.25,0,0,1,1.22-.74,20.63,20.63,0,0,0,4.9-1.14,9.21,9.21,0,0,0-.84-.51l-.4-.21a4,4,0,0,1-1-.62,1,1,0,0,1-.3-1,1.17,1.17,0,0,1,.86-.8,7.18,7.18,0,0,0,2.69-1.61l-.49-.18a5.73,5.73,0,0,0-.85-.24,2.44,2.44,0,0,1-1.28-.56h0a2,2,0,0,1-.16-2.13l0-.1a18,18,0,0,0,.93-2.81A16.45,16.45,0,0,0,167,62l-.1,0a2,2,0,0,1-2.13-.16,2.46,2.46,0,0,1-.57-1.28,5,5,0,0,0-.24-.85c-.07-.17-.12-.33-.18-.48a6.91,6.91,0,0,0-1.6,2.68,1.15,1.15,0,0,1-.81.86,1.05,1.05,0,0,1-1-.3,4.08,4.08,0,0,1-.61-1l-.22-.41a7.19,7.19,0,0,0-.51-.83,21.53,21.53,0,0,0-1.14,4.9,1.22,1.22,0,0,1-.74,1.21,1.34,1.34,0,0,1-1.46-.48,17.63,17.63,0,0,1-1.82-2.47c-.33-.49-.65-1-.89-1.29l-.06.14c-.1.2-.18.42-.27.63-.32.8-.62,1.55-1.37,1.7a1.21,1.21,0,0,1-1.14-.38h0a2.82,2.82,0,0,1-.39-.52,4.26,4.26,0,0,0-.53-.66,12.67,12.67,0,0,0-2.34-1.66l-.42-.26c0,.12-.06.26-.1.4-.21.78.69,2.94,1.36,3.89a1.12,1.12,0,0,1,.08,1.38c-.52.67-1.44.51-3.43-.17.08.22.17.46.24.72a45.25,45.25,0,0,0,3.83,7.11,2,2,0,0,1-.38,2.81,2.54,2.54,0,0,1-3.4-.27,3.54,3.54,0,0,1-.76-1.16c-.46-1.08-.91-2.34-1.36-3.57A36,36,0,0,0,141,68.41c-.13.24-.26.54-.38.81s-.41.9-1,1a1,1,0,0,1-.93-.31h0A3.31,3.31,0,0,1,138,68.7a10.35,10.35,0,0,0-1.29-2.55c-.23-.31-.46-.62-.66-.87l-.14.26a2.27,2.27,0,0,1-1.56,1.29,2,2,0,0,1-1.63-.7,8.36,8.36,0,0,1-.64-.76,10.08,10.08,0,0,0-.81-.9,8.42,8.42,0,0,0-1.8-1.44,9,9,0,0,0,.5,4,1.82,1.82,0,0,1,0,2.16c-.3.36-1.06.87-2.73.32A8.8,8.8,0,0,1,126,69c-.21-.1-.48-.25-.69-.33a4.07,4.07,0,0,0,0,.59,3.94,3.94,0,0,0,1.31,2.36l.45.43.35.33a1.55,1.55,0,0,1,.58,1.48,1.48,1.48,0,0,1-1.22.91,6.17,6.17,0,0,1-2.19,0l-.47-.06a4.28,4.28,0,0,0,.19.77A10.12,10.12,0,0,0,127,79.62c.4.4.83.79,1.24,1.17s.82.76,1.21,1.15c2,2,5,6.93,5.2,11.18a11.8,11.8,0,0,1,0,1.19l.12,1.75,1.75.12c.37,0,.77,0,1.19,0,4.25.18,9.18,3.21,11.18,5.21C149.31,101.78,149.7,102.19,150.07,102.6Z" style="fill:url(#linear-gradient-7)"/><path d="M161.51,124.37c-.46-1.46-1.49-2.28.27-2.36s3.7-.15,3.63-.78c.17-.53-1.68-2-3.18-3.12s-.46-1.23.25-2.15,1.13-1-.26-1.57a9.19,9.19,0,0,0-3.66-.62c-.67,0-.27-.41.17-1.14s.9-1.82,0-1.95a19.72,19.72,0,0,0-5.65.51c-1.64.48.54-2.78,1-4s0-.91-1.26-1-2.7,0-2.08-1,.36-2.44.27-3.69-.39-.8-1.58-.8-2.68,1.51-3.1,2.28-1.13-1.51-1.47-2.65-.8-.39-2,.38a30.76,30.76,0,0,0-5.49,6.36,4.28,4.28,0,0,1-5.41,2s-2.89-.69.67,1.44c.71.21,2.83,1.57,2.48,3.51-1.1,6.06-.54,9.89,0,11.89s.41,3.42,1.62,2.22,3.39-3.36,3.29-2,.35,4.62,1.62,5.78,1.27,2.06,2.17.38,2-3.37,1.89-5.09,1.23-.34,2.6.59,1.63,1.6,1.77-.19-.5-7,.82-5.24a30.88,30.88,0,0,0,5.34,5c1,.61.87-1.06.68-2.19s-.43-1.9.21-1.36a11.1,11.1,0,0,0,3.78,2.13C162.4,126.3,162,125.84,161.51,124.37Z" style="fill:url(#linear-gradient-8)"/><path d="M142.15,131.13l0,0a8.26,8.26,0,0,1,.73.75l.06-.13.37-.68a8.38,8.38,0,0,0,1.42-4,1.64,1.64,0,0,1,.69-1.6c.81-.43,1.63.19,2.58.9.23.17.47.35.72.52l.39.28c0-.44,0-1.07,0-1.74-.08-2.68-.08-4,.85-4.38a1.15,1.15,0,0,1,1.33.34,2.1,2.1,0,0,1,.23.26,20.9,20.9,0,0,0,1.52,1.68,34.52,34.52,0,0,0,3,2.71c0-.23-.05-.52-.11-.89q0-.26-.09-.48c-.15-.84-.29-1.58.38-2a1.1,1.1,0,0,1,1.36.26,11.18,11.18,0,0,0,3.1,1.83c0-.08-.05-.16-.08-.25a6.38,6.38,0,0,0-.38-.91,1.57,1.57,0,0,1,1.46-2.61h.09c.66,0,1.74-.08,2.4-.18l-.06-.06a27.79,27.79,0,0,0-2.41-2l-.08-.07a4.65,4.65,0,0,1-.54-.47,1.48,1.48,0,0,1,.18-2.48,3.12,3.12,0,0,0,.45-.44l.15-.19-.06,0a8.07,8.07,0,0,0-3.26-.55,1.3,1.3,0,0,1-1-.32c-.62-.62-.14-1.37.17-1.87l.19-.3a3.5,3.5,0,0,0,.31-.63,20.16,20.16,0,0,0-5,.5,1.32,1.32,0,0,1-1.39-.25h0c-.78-.78-.13-2.05.69-3.66.19-.38.39-.76.51-1l-.45,0-.69,0a3,3,0,0,1-2-.55,1.29,1.29,0,0,1-.06-1.72,5,5,0,0,0,.18-2.63c0-.18,0-.35-.05-.53h0a6.27,6.27,0,0,1-.69,0c-.72,0-1.94,1.12-2.33,1.82a1.13,1.13,0,0,1-.83.61,1.1,1.1,0,0,1-.95-.35A7.18,7.18,0,0,1,144,101c-.2.15-.44.34-.72.52a30.64,30.64,0,0,0-5.21,6.07,5.06,5.06,0,0,1-4.08,2.7,5.33,5.33,0,0,1,.75.63,3.65,3.65,0,0,1,1.17,3.28c-1,5.71-.58,9.4,0,11.49.14.48.23.92.31,1.31l.06.29c2-2,3.3-3.1,4.24-2.16a1.25,1.25,0,0,1,.34,1C140.78,127.31,141.22,130.19,142.15,131.13Z" style="fill:url(#linear-gradient-9)"/><path d="M121.24,98.81a4.28,4.28,0,0,1,2-5.4,30.76,30.76,0,0,0,6.36-5.49c.77-1.16,1.52-1.62.39-2s-3.44-1-2.66-1.47,2.28-1.88,2.28-3.1.44-1.48-.79-1.58-2.74-.34-3.7.27-.83-.79-1-2.09.12-1.66-1-1.25-4.46,2.6-4,1a20,20,0,0,0,.5-5.65c-.13-.94-1.23-.46-1.94,0s-1.18.84-1.15.17a9,9,0,0,0-.62-3.66c-.58-1.39-.69-1-1.57-.26s-.95,1.79-2.15.25-2.58-3.36-3.12-3.18c-.63-.07-.7,2-.77,3.63s-.9.73-2.37.26-1.92-.88-1.49.66a11.27,11.27,0,0,0,2.13,3.78c.54.64-.24.39-1.36.21s-2.8-.32-2.18.68a30.75,30.75,0,0,0,5,5.34c1.71,1.32-3.47.69-5.23.82s-1.11.43-.2,1.77,2.29,2.68.59,2.6-3.45,1-5.08,1.89-.76.93.38,2.17,4.45,1.71,5.77,1.62-.89,2.12-2,3.29.22,1.08,2.23,1.62,5.83,1.1,11.89,0c1.94-.36,3.3,1.76,3.5,2.48C121.93,101.71,121.24,98.81,121.24,98.81Z" style="fill:url(#linear-gradient-10)"/><path d="M103.34,94.51c.38.08.82.17,1.3.3,2.09.57,5.78,1,11.5,0A3.66,3.66,0,0,1,119.42,96a5.45,5.45,0,0,1,.63.75,5,5,0,0,1,2.7-4.08,30.85,30.85,0,0,0,6.06-5.21c.19-.28.37-.53.52-.72a7.26,7.26,0,0,1-2.74-1.21,1.08,1.08,0,0,1-.34-1,1.1,1.1,0,0,1,.61-.84c.7-.38,1.81-1.6,1.81-2.32,0-.27,0-.51,0-.69h0l-.53,0a4.87,4.87,0,0,0-2.62.18,1.3,1.3,0,0,1-1.73-.06,3,3,0,0,1-.54-2c0-.23,0-.46-.06-.69s0-.31,0-.45c-.27.12-.66.31-1,.5-1.61.83-2.89,1.48-3.66.7a1.28,1.28,0,0,1-.25-1.39,20.7,20.7,0,0,0,.5-5,3.23,3.23,0,0,0-.64.31l-.29.19c-.5.31-1.25.78-1.87.17a1.26,1.26,0,0,1-.32-1,8.3,8.3,0,0,0-.56-3.26l0-.06-.19.15a3.75,3.75,0,0,0-.44.45,1.48,1.48,0,0,1-2.48.18,4.54,4.54,0,0,1-.47-.54l-.06-.08a29.74,29.74,0,0,0-2-2.41l-.06-.06c-.11.66-.15,1.73-.18,2.39V69a1.91,1.91,0,0,1-.72,1.67,2,2,0,0,1-1.89-.21,6.76,6.76,0,0,0-.9-.38l-.26-.08a10.94,10.94,0,0,0,1.84,3.1,1.11,1.11,0,0,1,.25,1.36c-.38.67-1.11.53-2,.37l-.48-.08c-.36-.06-.66-.09-.89-.11a36.38,36.38,0,0,0,2.72,3,19.41,19.41,0,0,0,1.67,1.52,2.3,2.3,0,0,1,.27.22,1.19,1.19,0,0,1,.34,1.34c-.4.93-1.71.93-4.39.85-.66,0-1.3,0-1.74,0,.09.13.19.26.28.4s.35.49.53.72c.71,1,1.32,1.77.89,2.58a1.64,1.64,0,0,1-1.6.69,8.34,8.34,0,0,0-3.94,1.42l-.68.37-.13.06a9.89,9.89,0,0,1,.74.73l0,0c.94.94,3.83,1.38,5,1.29a1.27,1.27,0,0,1,1,.34c.94.93-.19,2.23-2.17,4.24Z" style="fill:url(#linear-gradient-11)"/><path d="M163,120.54s-19.12-8.4-25.69-10.31c-3.72-1.09-8.59-2.26-9.59-2.42s-2.26-1.29-1.43-2.5c3-2.54,6.25-5.57,9.46-8.51,1.78-1.63,7.7-7.56,12-12,10.12-10.46,21.21-22.38,22-23.35,1.3-1.52,0-.72-.43-.33,0,0-18.06,17.45-23.2,22.59S130.81,98.81,125,102.57l-.72.47c-1.27.48-1.89-.05-2-1S121.12,96.67,120,93c-1.92-6.56-10.31-25.69-10.31-25.69-.91-1.57-.4.27.4,2.6,2.15,5.25,4.61,11.8,6.53,17.42a104.39,104.39,0,0,1,2.84,10.63c.58,2.43.87,6.75-.88,8.08l-.08.07a7.84,7.84,0,0,1-3.79.78c-1.12-.24-1.69,2.09-1,3.77.77,1.9,2.08,2.09,5.83-.16,3-1,11-.08,13.34.48A91.06,91.06,0,0,1,143,113.6c5.62,1.93,12.18,4.39,17.43,6.53C162.73,120.93,164.58,121.44,163,120.54Z" style="fill:url(#linear-gradient-12)"/><path d="M116.8,109.06s6.69-1.51,15.73-10.8c7.53-7.28,2-2.51-.71-.12s-6.53,5.52-8.79,6.19c-1,.29-1.67-3.6-1.84-2.09s-1,3.55-2,4.14a12,12,0,0,1-3.35,1c-.58.09-1.08-.08-.83.34s1.25,1.25,1.13,1.71S116.17,109.69,116.8,109.06Z" style="fill:#8fc724"/><path d="M142.44,116.45a7.76,7.76,0,0,0-5.22-4,55.81,55.81,0,0,0,.3,8c.45,2.83,1,3.11,1.86,2.21s2.27.56,3.06,4.07,1.41,1.3,1.64-1.19A22.88,22.88,0,0,0,142.44,116.45Zm6.17,4c.56-.79,2-.62,1.58-1.58a6.57,6.57,0,0,0-2.62-2.69,14.47,14.47,0,0,0-4.74-2,13.81,13.81,0,0,1,2.1,5.26,11.82,11.82,0,0,0,3.34,5.83C148.1,125.05,148,121.26,148.61,120.46Zm7.69,1.13c2,.51,1.24-.67-.62-2.09s-4.36-1.87-5.43-2.26a63.57,63.57,0,0,1,4,5.6C155.56,125.05,154.32,121.09,156.3,121.59Z" style="fill:url(#linear-gradient-13)"/><path d="M148.27,105.26c1-1.85,1.33-3.25-.68-1.46s-3,1-3.39-.14-.12-1.37-1.65.21a60.25,60.25,0,0,0-4.3,5.68s2.58,1.39,4.87.3A13.89,13.89,0,0,0,148.27,105.26Zm1.61,5.36c.1-.83,2.33-3.18,2.6-3.26A10.09,10.09,0,0,0,147,109.1a11.88,11.88,0,0,1-4.36,2.1,12.31,12.31,0,0,0,4.11,1.51,5.53,5.53,0,0,0,3.21-.18C150.77,112.16,149.78,111.45,149.88,110.62Zm6.87,4c-1.72-.92,1.72-2.91-.63-2.2a59.33,59.33,0,0,1-6.46,1.35c1,.42,3.06,1.72,5.3,1.93S158.48,115.59,156.75,114.66Z" style="fill:url(#linear-gradient-14)"/><path d="M104.78,86.25c-2.49.23-4.7.85-1.19,1.64s5,2.15,4.07,3.06-.62,1.41,2.21,1.86a56.38,56.38,0,0,0,8,.31,7.77,7.77,0,0,0-4-5.23A23.09,23.09,0,0,0,104.78,86.25Zm.22-4.19a11.82,11.82,0,0,0,5.83,3.34,13.81,13.81,0,0,1,5.26,2.1,14.47,14.47,0,0,0-2-4.74,6.57,6.57,0,0,0-2.69-2.62c-1-.4-.79,1-1.58,1.59S105.29,82.23,105,82.06Zm2.49-6a63.57,63.57,0,0,1,5.6,4c-.39-1.07-.85-3.56-2.26-5.43s-2.6-2.6-2.09-.62S105.29,74.77,107.49,76.07Z" style="fill:url(#linear-gradient-15)"/><path d="M120.48,87.22c-1.09,2.28.31,4.86.31,4.86a60.53,60.53,0,0,0,5.67-4.3c1.58-1.53,1.44-1.27.21-1.66s-1.93-1.37-.14-3.38.39-1.7-1.46-.68A13.84,13.84,0,0,0,120.48,87.22Zm-2.68-6.85a5.53,5.53,0,0,0-.18,3.21,12.42,12.42,0,0,0,1.51,4.11,11.88,11.88,0,0,1,2.1-4.36A10.26,10.26,0,0,0,123,77.85c-.08.27-2.44,2.5-3.27,2.6S118.17,79.56,117.8,80.37Zm-3.21-5c.21,2.24,1.51,4.29,1.93,5.3a59.33,59.33,0,0,1,1.35-6.46c.71-2.35-1.28,1.09-2.2-.63S114.38,73.14,114.59,75.37Z" style="fill:url(#linear-gradient-16)"/><path d="M159.81,101.69c-1.38-2.63-7.16-6-9.73-7.34s-6.84-3.2-10.73.57a20.65,20.65,0,0,1,9.29,4.26c4.52,3.64,6.4,6,6.27,4.77s.82-3.07,2.45-2.32S161.19,104.33,159.81,101.69Zm2.26-5.52c1.13-.63,1.88-.88-.88-2.51s-3.5-2.81-5.46-4.08c-2.83-1.82-5.71-2.32-7.85-1.44a16,16,0,0,0-4.26,3.26,19.05,19.05,0,0,1,11.8,4c5.64,4.39,5.83,4.2,7.78,4.39S160.94,96.8,162.07,96.17Zm-8-15.69s1.76.13,5,2.32,4.4,2.77,3.83,1.57.19-3.32,2.26-2.63-1.57-1.82-3.77-2.89S156.67,77.72,154,80.48Zm13-2.82s-3.57-1.82-3.32-3.58-1.2-1.07-2.45-.69S158,76,157.17,76.84a13.2,13.2,0,0,1,5.59,1.32A3.71,3.71,0,0,0,167,77.66Zm-.5-6.28c1.45.19.38-.62.13-1.13s.44-1.57,2.07-2.32-1.51-.63-3.83.57-4.2,4.2-3.39,3.76A16.43,16.43,0,0,1,166.52,71.38Z" style="fill:url(#linear-gradient-17)"/><path d="M136.45,80.72c-1.32-2.57-4.71-8.35-7.34-9.73s-.69.82.06,2.45-1.07,2.57-2.32,2.45,1.13,1.75,4.77,6.27a20.74,20.74,0,0,1,4.27,9.29C139.65,87.56,137.77,83.29,136.45,80.72Zm-1.07-5.33a19,19,0,0,1,4,11.79,16,16,0,0,0,3.26-4.26c.88-2.14.38-5-1.44-7.85-1.26-2-2.45-2.7-4.08-5.46s-1.88-2-2.51-.88-3.83-3.07-3.64-1.12S131,69.74,135.38,75.39ZM148,71.81c2.19,3.2,2.32,5,2.32,5,2.76-2.64,2.7-5.09,1.63-7.28s-3.58-5.84-2.89-3.77-1.44,2.83-2.63,2.26S145.8,68.61,148,71.81Zm8.72-4.71c-1.76.25-3.58-3.32-3.58-3.32a3.71,3.71,0,0,0-.5,4.26A13.2,13.2,0,0,1,154,73.63c.81-.82,3.07-2.82,3.45-4.08S158.48,66.85,156.72,67.1Zm5.59-1.19c1.19-2.32,1.31-5.46.56-3.83s-1.82,2.32-2.32,2.07-1.32-1.31-1.13.13a16.43,16.43,0,0,1-.88,5C158.1,70.12,161.11,68.23,162.31,65.91Z" style="fill:url(#linear-gradient-18)"/><path d="M114.16,107.49a4,4,0,0,0,0,3.18c.65,1.18,1.29,1.34,1.31.62s.57-1.83.16-2.19C114.78,108.38,114.4,107,114.16,107.49Z" style="fill:#2e6b03"/><path d="M51.11,141.76a31.48,31.48,0,0,0,9.19,5.85,31.62,31.62,0,0,0,11.37,2.09,28.69,28.69,0,0,1,10.2,1.8l.15.06a32.2,32.2,0,0,1,9.31,5.93,29.24,29.24,0,0,0,20.56,7.95,32.42,32.42,0,0,1,7.48.92,1.25,1.25,0,0,0,1.48-.75l13.88-35.49a1.25,1.25,0,0,0,0-1,1.27,1.27,0,0,0-.79-.64,35.29,35.29,0,0,0-8-1,26.86,26.86,0,0,1-19.07-7.37,34.33,34.33,0,0,0-10-6.33l-.16-.06a31.13,31.13,0,0,0-11-2,26.74,26.74,0,0,1-19.07-7.37,34.69,34.69,0,0,0-9.73-6.22L56.43,98a31.44,31.44,0,0,0-10.72-1.87,32.72,32.72,0,0,1-7.77-1,1.23,1.23,0,0,0-1.48.74L22.57,131.34A1.25,1.25,0,0,0,23.4,133a34.93,34.93,0,0,0,8.32,1.08,28.64,28.64,0,0,1,9.94,1.7l.39.16A32.43,32.43,0,0,1,51.11,141.76Z" style="fill:#97252c"/><path d="M114.85,126.7c-7.87-3.08-9.9-8.38-18.49-11.79l-.14,0c-8.56-3.3-12.81-.46-21.58-3.9-7.8-3-9.87-8.26-18.23-11.67L56,99.12c-7.37-2.76-11.55-1-18.37-2.82L23.73,131.8c6.82,1.85,11,0,18.38,2.81l.41.16c8.37,3.42,10.44,8.64,18.23,11.69,8.78,3.43,13,.59,21.58,3.89l.15.06c8.58,3.41,10.61,8.7,18.49,11.78s12,1.18,18.72,3l13.88-35.5C126.81,127.88,122.59,129.73,114.85,126.7Z" style="fill:url(#linear-gradient-19)"/><path d="M113.84,129.29c-7.87-3.08-9.9-8.38-18.49-11.79l-.15,0c-8.56-3.3-12.8-.46-21.58-3.9-7.79-3-9.86-8.26-18.22-11.68l-.42-.16c-7.38-2.76-11.56-1-18.38-2.82l-11.74,30c6.82,1.85,11,.06,18.38,2.82l.41.16c8.37,3.42,10.44,8.63,18.23,11.68,8.78,3.43,13,.59,21.58,3.89l.15.06c8.59,3.41,10.62,8.71,18.49,11.79s12,1.18,18.72,3l11.74-30C125.8,130.47,121.58,132.32,113.84,129.29Z" style="fill:url(#linear-gradient-20)"/><path d="M111.67,134.84c-7.88-3.08-9.9-8.38-18.49-11.79L93,123c-8.56-3.29-12.8-.45-21.58-3.89-7.79-3-9.86-8.26-18.22-11.68l-.42-.16c-7.38-2.76-11.56-1-18.38-2.82l-3.8,9.7c6.83,1.86,11,.06,18.38,2.82l.42.16c8.36,3.42,10.43,8.63,18.23,11.68,8.77,3.44,13,.6,21.57,3.9l.15.05c8.59,3.42,10.62,8.71,18.49,11.79s12,1.18,18.72,3l3.8-9.71C123.63,136,119.41,137.87,111.67,134.84Z" style="fill:url(#linear-gradient-21)"/><path d="M108.37,143.23c-7.87-3.08-9.9-8.37-18.48-11.78l-.15-.06c-8.56-3.29-12.8-.45-21.57-3.89-7.79-3-9.86-8.26-18.22-11.67l-.41-.16c-7.38-2.76-11.56-1-18.38-2.82l-3.27,8.36c6.82,1.85,11,.06,18.37,2.82l.41.16c8.37,3.42,10.43,8.63,18.22,11.68,8.78,3.43,13,.59,21.58,3.88l.15.06c8.58,3.41,10.61,8.71,18.48,11.79s12,1.18,18.71,3l3.27-8.36C120.33,144.42,116.11,146.26,108.37,143.23Z" style="fill:url(#linear-gradient-22)"/><path d="M106.43,148.23c-7.88-3.08-9.9-8.37-18.49-11.78l-.15-.06c-8.56-3.3-12.8-.46-21.58-3.89-7.79-3.05-9.86-8.27-18.23-11.68l-.41-.16c-7.38-2.77-11.56-1-18.38-2.82l-2.35,6c6.82,1.85,11,.05,18.38,2.81l.41.16c8.37,3.42,10.44,8.64,18.23,11.68,8.77,3.44,13,.6,21.58,3.89l.15.07c8.58,3.41,10.61,8.7,18.49,11.78s12,1.18,18.72,3l2.35-6C118.39,149.42,114.17,151.26,106.43,148.23Z" style="fill:url(#linear-gradient-23)"/></g></g></svg>