<svg xmlns="http://www.w3.org/2000/svg" xmlns:xlink="http://www.w3.org/1999/xlink" viewBox="0 0 187.84 187.84"><defs><linearGradient id="linear-gradient" x1="6.99" y1="-41.16" x2="99.66" y2="102.84" gradientUnits="userSpaceOnUse"><stop offset="0" stop-color="#dbd6d1"/><stop offset="0.83" stop-color="#f4f3f0"/><stop offset="1" stop-color="#faf9f7"/></linearGradient><linearGradient id="linear-gradient-2" x1="66.19" y1="45.5" x2="109.54" y2="121.19" gradientTransform="translate(178.56 -8.44) rotate(84.59)" gradientUnits="userSpaceOnUse"><stop offset="0" stop-color="#dbcfc2"/><stop offset="0.54" stop-color="#ede8e1"/><stop offset="1" stop-color="#fff"/></linearGradient><linearGradient id="linear-gradient-3" x1="66.19" y1="44.5" x2="109.54" y2="120.19" gradientTransform="translate(177.57 -9.35) rotate(84.59)" gradientUnits="userSpaceOnUse"><stop offset="0" stop-color="#d6cfc7"/><stop offset="0.58" stop-color="#edeae6"/><stop offset="1" stop-color="#fff"/></linearGradient><linearGradient id="linear-gradient-4" x1="-10.6" y1="-10.6" x2="124.42" y2="124.42" xlink:href="#linear-gradient"/><radialGradient id="radial-gradient" cx="84.85" cy="114.87" r="33.53" gradientUnits="userSpaceOnUse"><stop offset="0.45" stop-color="#c9a696"/><stop offset="0.63" stop-color="#976d68"/><stop offset="0.88" stop-color="#5a2630"/><stop offset="0.99" stop-color="#420a1a"/></radialGradient><radialGradient id="radial-gradient-2" cx="180.85" cy="-80.73" r="37.48" gradientTransform="translate(-89.53 207.18)" gradientUnits="userSpaceOnUse"><stop offset="0" stop-color="#d9bd00"/><stop offset="1" stop-color="#ebd900"/></radialGradient><radialGradient id="radial-gradient-3" cx="104.05" cy="86.31" r="61.41" gradientUnits="userSpaceOnUse"><stop offset="0.39" stop-color="#420a1a"/><stop offset="0.46" stop-color="#491220"/><stop offset="0.58" stop-color="#5c2832"/><stop offset="0.72" stop-color="#7c4d4f"/><stop offset="0.88" stop-color="#a77f77"/><stop offset="1" stop-color="#c9a696"/></radialGradient><linearGradient id="linear-gradient-5" x1="158.12" y1="-85.31" x2="168.67" y2="-54.49" gradientTransform="translate(-89.53 207.18)" gradientUnits="userSpaceOnUse"><stop offset="0" stop-color="#ead800"/><stop offset="1" stop-color="#f0e600"/></linearGradient><radialGradient id="radial-gradient-4" cx="1094.31" cy="2729.45" r="81.71" gradientTransform="translate(1256.49 -2626.91) rotate(45)" gradientUnits="userSpaceOnUse"><stop offset="0" stop-color="#ff8d54"/><stop offset="0.18" stop-color="#ff874f"/><stop offset="0.42" stop-color="#ff7540"/><stop offset="0.71" stop-color="#ff5728"/><stop offset="0.97" stop-color="#ff360d"/></radialGradient><linearGradient id="linear-gradient-6" x1="1098.8" y1="2740.62" x2="1072.37" y2="2673.33" gradientTransform="translate(1256.49 -2626.91) rotate(45)" gradientUnits="userSpaceOnUse"><stop offset="0" stop-color="#ffa86e"/><stop offset="0.37" stop-color="#ff9a63"/><stop offset="1" stop-color="#ff7a4b"/></linearGradient><linearGradient id="linear-gradient-7" x1="4183.92" y1="-4258.65" x2="4196.79" y2="-4258.65" gradientTransform="matrix(-0.36, 0.93, 0.93, 0.36, 5523.81, -2327.51)" gradientUnits="userSpaceOnUse"><stop offset="0" stop-color="#69ad0f"/><stop offset="0.38" stop-color="#5ba00e"/><stop offset="1" stop-color="#3c830b"/></linearGradient><linearGradient id="linear-gradient-8" x1="4199.36" y1="-4259.11" x2="4187.02" y2="-4259.11" xlink:href="#linear-gradient-7"/><linearGradient id="linear-gradient-9" x1="6597.11" y1="-1305.95" x2="6590.64" y2="-1292.87" gradientTransform="matrix(-0.91, 0.41, 0.41, 0.91, 6617.46, -1408.19)" xlink:href="#linear-gradient-7"/><linearGradient id="linear-gradient-10" x1="4216.2" y1="-4221.82" x2="4212.27" y2="-4230.15" gradientTransform="matrix(-0.36, 0.93, 0.93, 0.36, 5523.81, -2327.51)" gradientUnits="userSpaceOnUse"><stop offset="0.23" stop-color="#69ad0f"/><stop offset="0.52" stop-color="#5ba00e"/><stop offset="1" stop-color="#3c830b"/></linearGradient><linearGradient id="linear-gradient-11" x1="6567.84" y1="-1337.86" x2="6559.73" y2="-1331.1" gradientTransform="matrix(-0.91, 0.41, 0.41, 0.91, 6617.46, -1408.19)" xlink:href="#linear-gradient-7"/><linearGradient id="linear-gradient-12" x1="4160.18" y1="-4224.97" x2="4164.57" y2="-4232.56" xlink:href="#linear-gradient-7"/><linearGradient id="linear-gradient-13" x1="4148.38" y1="-4246.54" x2="4226.52" y2="-4246.54" xlink:href="#linear-gradient-7"/><linearGradient id="linear-gradient-14" x1="4216.68" y1="-4218.99" x2="4207.2" y2="-4236.95" gradientTransform="matrix(-0.36, 0.93, 0.93, 0.36, 5523.81, -2327.51)" gradientUnits="userSpaceOnUse"><stop offset="0" stop-color="#69ad0f"/><stop offset="0.44" stop-color="#77b717"/><stop offset="1" stop-color="#8fc724"/></linearGradient><linearGradient id="linear-gradient-15" x1="4205.47" y1="-4239.61" x2="4210.43" y2="-4228.68" xlink:href="#linear-gradient-10"/><linearGradient id="linear-gradient-16" x1="243.97" y1="-4218.38" x2="234.49" y2="-4236.34" gradientTransform="translate(3947.67 1782.69) rotate(-69.03)" xlink:href="#linear-gradient-14"/><linearGradient id="linear-gradient-17" x1="232.76" y1="-4239" x2="237.72" y2="-4228.07" gradientTransform="translate(3947.67 1782.69) rotate(-69.03)" xlink:href="#linear-gradient-10"/><linearGradient id="linear-gradient-18" x1="4210.46" y1="-4258.62" x2="4165.34" y2="-4258.62" xlink:href="#linear-gradient-14"/><linearGradient id="linear-gradient-19" x1="4152.95" y1="-4258.62" x2="4187.38" y2="-4258.62" xlink:href="#linear-gradient-10"/></defs><g id="Layer_2" data-name="Layer 2"><g id="Layer_1-2" data-name="Layer 1"><circle cx="93.92" cy="93.92" r="93.92" transform="translate(-13.81 171.62) rotate(-80.8)" style="fill:#8b8f90"/><path d="M185.72,93.92A91.8,91.8,0,1,1,93.92,2.13,91.8,91.8,0,0,1,185.72,93.92Z" style="fill:url(#linear-gradient)"/><circle cx="93.92" cy="93.92" r="67.46" transform="translate(-8.44 178.56) rotate(-84.59)" style="fill:url(#linear-gradient-2)"/><path d="M168.9,73.73c6.45-2.09,8.75-5.67,8.95-9.6A88.71,88.71,0,1,0,15.78,135c8.89,5.14,30.64-10,64.41-28.58C117,86.13,157.24,77.48,168.9,73.73Z" style="fill:#fff"/><circle cx="93.92" cy="92.92" r="67.46" transform="translate(-7.45 177.66) rotate(-84.59)" style="fill:url(#linear-gradient-3)"/><path d="M154,93.92A60.12,60.12,0,1,1,93.92,33.8,60.12,60.12,0,0,1,154,93.92Z" style="fill:url(#linear-gradient-4)"/><path d="M142.51,80.79c4.21-1.36,5.71-3.7,5.84-6.26A57.87,57.87,0,1,0,42.62,120.77c5.8,3.35,20-6.51,42-18.65C108.67,88.88,134.91,83.24,142.51,80.79Z" style="fill:#fff"/><path d="M86.92,67.48C74.83,65.54,59.87,71.9,49.69,78.12c-4,8.38-4.76,17.2-.34,27.62,0,0,10.77,14.35,13.53,9.66,1.59-2.71,6.38-17.7,21-19.6,5.71-.74,10.16,1.54,14.36,3.71l6.31-4.3S106.78,70.67,86.92,67.48Z" style="opacity:0.55;fill:url(#radial-gradient)"/><path d="M133.14,130.05a40.5,40.5,0,0,1-81,0c20.86,0,70.42-3.7,79-3.7C131.93,126.35,133.11,130.05,133.14,130.05Z" style="fill:#d6cfc7"/><path d="M131.45,126.35a40.49,40.49,0,1,1-81,0Z" style="fill:#e3c400"/><path d="M129.56,126.35a38.6,38.6,0,0,1-77.2,0Z" style="fill:#feffe8"/><path d="M87.77,130.7c-2,2-17,16.92-18.14,18.19a3.92,3.92,0,0,0-.57,4.23c.87,1.72,3.34,3.81,7.8,5.73,3.89,1.68,8.26,2.41,10.37,1.91a3.58,3.58,0,0,0,2.91-3.62V131.53C90.14,129,89.79,128.68,87.77,130.7Zm-1-1.28c1.79-1.79,1.77-2.25-1.1-2.25s-24,0-25.69,0a3.93,3.93,0,0,0-3.39,2.59c-.6,1.83-.33,5.05,1.47,9.57,1.56,3.94,4.13,7.55,6,8.69a3.6,3.6,0,0,0,4.62-.51ZM122,127.2c-1.73-.07-22.83,0-25.69,0s-2.89.46-1.09,2.25l18.11,18.12a3.58,3.58,0,0,0,4.61.51c1.85-1.15,4.43-4.75,6-8.69,1.8-4.52,2.08-7.74,1.47-9.57A3.93,3.93,0,0,0,122,127.2Zm-27.84,3.5c-2-2-2.37-1.71-2.37.83v25.61a3.58,3.58,0,0,0,2.91,3.62c2.11.5,6.49-.23,10.37-1.91,4.47-1.92,6.94-4,7.81-5.73a3.93,3.93,0,0,0-.57-4.23C111.12,147.62,96.18,132.72,94.15,130.7Z" style="fill:url(#radial-gradient-2)"/><path d="M147.06,40.6A44.1,44.1,0,0,0,141.7,36c4.52,11.62,7.71,28.18.76,46.05C132.39,108,109.38,122.24,88,125.59c-7.55,3.55-15.28,3.34-14.63,3.88,28.43,24,56.88,17.71,74.67-.08C171.52,105.91,168.39,61.93,147.06,40.6Z" style="opacity:0.55;fill:url(#radial-gradient-3)"/><path d="M82.83,128.3H72.16c-7.38,0-11.48,0-12.18,0a2.82,2.82,0,0,0-2.36,1.81c-.27.85-.69,3.4,1.45,8.79a27,27,0,0,0,1.34,2.86c3.2,1.7,10.48-3,21.61-9.29l3.89-3.89.3-.31H82.83Z" style="fill:url(#linear-gradient-5)"/><path d="M143.11,34c-21.34-21.33-57.8-19.58-81.28,3.9C44,55.73,38.16,82,47.2,103.28l0,.09a11.21,11.21,0,0,0,2,3c1.71,1.71,3.25,1.33,3.83,1.08,1.41-.59,2.2-2.17,2.18-4.34-.1-8.26,2.33-15.67,6.49-19.83,6.06-6.06,13.69-7.35,19-7.37,6.85,0,12.6,2,15.26,4.09l.1.07a2.24,2.24,0,0,1,.35.28l.13.14.13.12A2.25,2.25,0,0,1,97,81l.08.1c2,2.66,4.1,8.4,4.08,15.25,0,5.34-1.31,13-7.36,19C89.68,119.54,82.26,122,74,121.87c-2.07,0-3.6.77-4.19,2.17-.26.61-.66,2.21,1.1,4a10,10,0,0,0,2.94,1.93c21.29,9,47.55,3.17,65.35-14.63C162.69,91.83,164.44,55.37,143.11,34Z" style="fill:#85633e"/><path d="M101.93,75.25c-6-7.07-28.16-17-49.37-3.81L50.7,105.22s2.39,2.35,3.74,1.15c2.35-2.07,4.68-21,19.28-22.87a28.7,28.7,0,0,1,16.72,3.24,28.7,28.7,0,0,1,3.24,16.72c-1.9,14.6-20.8,16.93-22.87,19.28-1.19,1.35,1.15,3.74,1.15,3.74l33.78-1.86C118.89,103.41,109,81.21,101.93,75.25Z" style="fill:#c9381a"/><path d="M141.83,35.32c-20.66-20.67-55.9-18.92-78.72,3.89C45.28,57,40.32,82.46,48.86,102.58c2.35,4.81,4.65,3.84,4.61.58-.08-7.73,2-16.14,7-21.13,11.58-11.58,30.3-8.32,36.65-3.43a4.86,4.86,0,0,1,.63.51l.12.13.13.12a4.29,4.29,0,0,1,.52.64c4.88,6.34,8.14,25.07-3.43,36.65-5,5-13.4,7.11-21.13,7-3.27,0-3.86,2.54.58,4.6,20.12,8.55,45.53,3.58,63.36-14.24C160.75,91.22,162.49,56,141.83,35.32Z" style="fill:#ffccab"/><path d="M75.54,126.39c19.39,8.24,43.9,3.46,61.09-13.73,22-22,23.68-56,3.76-75.9s-53.91-18.24-75.9,3.76c-17.19,17.19-22,41.69-13.74,61.09.89,1.83,1.78,2.79,2.52,3.09a5,5,0,0,0,.2-1.54c-.08-7.73,2-16.14,7-21.13,11.58-11.58,30.3-8.32,36.65-3.43a4.86,4.86,0,0,1,.63.51l.12.13.13.12a4.29,4.29,0,0,1,.52.64c4.88,6.34,8.14,25.07-3.43,36.65-5,5-13.4,7.11-21.13,7a4,4,0,0,0-1.43.2C72.82,124.66,73.76,125.57,75.54,126.39Z" style="fill:url(#radial-gradient-4)"/><path d="M102.73,65.57c-6.88-3.44-15.37-6.1-25.38-4.43-14.21,2.37-23.19,11.4-24.8,18.37-.92,4,.08,3.62.45,2.6.86-2.4,5.72-13.49,20.66-17.26a34.17,34.17,0,0,1,26,3.74l.54.79C101.05,68,106.25,67.34,102.73,65.57Zm8.84,8.84c-1.76-3.52-2.45,1.69-3.8,2.55l.78.53a34.22,34.22,0,0,1,3.75,26c-3.78,15-14.87,19.81-17.26,20.67-1,.36-1.41,1.37,2.59.44,7-1.6,16-10.59,18.37-24.8C117.67,89.79,115,81.29,111.57,74.41Zm31.21,20.3c2.52-6.82.07-19.37-10.38-29A35.53,35.53,0,0,0,121,58.56l.16-.15q2-1.87,3.83-3.46a29.88,29.88,0,0,1,8.74,2.83c12.22,6.18,14.32,17,14.62,19.29.12,1,.92,1.51.87-2.23-.06-6.53-6.12-16.28-18-21.05a30.2,30.2,0,0,0-3.55-1.19c6.53-5.58,10.43-8,13.15-8.08,5.37-.16,6.95,2.27,8.45,4.48,1.38.25-1.79-4.9-3.37-7.33a42.45,42.45,0,0,0-4.37-5.2v0l-.43-.42-.43-.43h0a44.34,44.34,0,0,0-5.21-4.38c-2.42-1.58-7.58-4.75-7.33-3.36,2.22,1.5,4.65,3.08,4.48,8.44-.08,2.73-2.49,6.63-8.07,13.15a32.89,32.89,0,0,0-1.19-3.55c-4.78-11.85-14.52-17.91-21-18-3.74,0-3.21.76-2.24.88,2.3.29,13.12,2.39,19.3,14.61a30,30,0,0,1,2.83,8.74c-1.07,1.2-2.22,2.47-3.46,3.83l-.15.16a35.5,35.5,0,0,0-7.12-11.41c-9.67-10.44-22.21-12.89-29-10.37-3.91,1.44-3,2.06-2,1.8,2.51-.61,14.6-2.71,25.86,7.57A33,33,0,0,1,115.84,59a44.94,44.94,0,0,1-3.36,3.05c-4.47-5.9-10.64-11.67-19.86-14.43-13.64-4.08-25.68.18-30.28,5.82-2.63,3.23-1.57,3.32-.79,2.56,1.86-1.8,11.2-9.75,26.12-6.63a32.9,32.9,0,0,1,21.27,14.81.94.94,0,0,0,0,.12c-.91.35-1.24.19-1.24.19l0,4-.83.83h.84v.85l.84-.84,4,0s-.16-.33.18-1.25l.13,0a32.83,32.83,0,0,1,14.8,21.26c3.13,14.93-4.82,24.27-6.62,26.12-.77.79-.67,1.85,2.56-.78,5.63-4.6,9.89-16.65,5.81-30.28-2.76-9.23-8.53-15.39-14.43-19.86.77-1,1.76-2.06,3-3.36a33,33,0,0,1,15.28,9.51c10.27,11.27,8.18,23.35,7.57,25.86C140.72,97.75,141.34,98.62,142.78,94.71Z" style="fill:#ffccab"/><path d="M111.33,79.37a9.31,9.31,0,1,1,0-13.17A9.31,9.31,0,0,1,111.33,79.37Z" style="fill:#ffccab"/><path d="M148.74,91.6c5.5-13.36,5.63-28,.21-40.45a12.7,12.7,0,0,0-2.59-3.84c-.84-.8-2.17-1.76-5.34-1.66-1.57.05-3.9,1.25-7.31,3.82-1.33,1-1.62,1.92.41,2.88a34.3,34.3,0,0,1,9.59,6.71c4.61,4.61,7.39,10.25,7.44,15.09,0,2.5-.21,4-1.55,4.61a2,2,0,0,1-2.16-.44,2.87,2.87,0,0,1-.76-1.7A23.34,23.34,0,0,0,140,63.69a27,27,0,0,0-6.94-5,29.37,29.37,0,0,0-5-1.94c-.42-.12-2-.74-2.92-.08-.58.4,1.35,1.73,1.74,1.95a37.31,37.31,0,0,1,6.84,5c9.82,9.11,13,20.79,11.51,28.57-.11.57-.61,1.55,1.29,1.25A3.1,3.1,0,0,0,148.74,91.6ZM132.21,71.37c-.33-.37-.68-.73-1-1.07a31,31,0,0,0-10.89-7.08c-.5-.19-1.78-.67-2,0s.4,1.31.84,1.69a38.66,38.66,0,0,1,12.22,18.47c.28,1,.54,1.93.74,2.88a5.36,5.36,0,0,0,2.8,3.48c1,.59,1.91,1.11,2.74,1.58,2.18,1.21,2.29.68,2.25-1.3A27.87,27.87,0,0,0,132.21,71.37Zm-27-27C94.5,34.6,83.18,36.72,81,37.25a2.64,2.64,0,0,1-2.55-.53,2,2,0,0,1-.53-1.82c.25-1.12,1.33-1.91,4-2.9,7.6-2.8,20.87-.06,31,10.85a37.18,37.18,0,0,1,4.89,6.61c.52.89,3.15,3.48,1.85-1.49a22.62,22.62,0,0,0-1.78-4.41,27.41,27.41,0,0,0-5-7A23.35,23.35,0,0,0,100,29.93a2.84,2.84,0,0,1-1.7-.76A2,2,0,0,1,97.85,27c.55-1.34,2.11-1.58,4.61-1.56,4.83.05,10.48,2.84,15.08,7.45a34.17,34.17,0,0,1,6.72,9.6c1.1,2.29,2.61.77,3.22-.06,2.33-3.16,3.43-5.35,3.48-6.85.09-3.17-.88-4.48-1.66-5.34a12.53,12.53,0,0,0-3.76-2.55c-18.93-8.3-43-3.72-59.87,13.13A59.67,59.67,0,0,0,55.17,55c-1.08,2.27,2.51,5,7.62,7a8.4,8.4,0,0,0,5.45-.73,36.73,36.73,0,0,1,9-2.52A40.1,40.1,0,0,1,98.33,61a4.23,4.23,0,0,0,3.87.39c.91-.33,3.42.24,1.06-2.29a30.2,30.2,0,0,0-15.82-8.57c-14.23-3-22.9,4.6-24.49,6.15-1.29,1.25-2.65,1-3.37.33-1.57-1.57.35-3.92,1.5-5.32C66.3,45.23,79,41,93.27,45.23a38.2,38.2,0,0,1,17.47,11.1c.72.79,4.41,3.59,1.88-1.86a31.39,31.39,0,0,0-6.31-9C106,45.08,105.61,44.73,105.24,44.4Zm10.63,29.31a11.47,11.47,0,0,1-.32,1.5,3.93,3.93,0,0,0,.06,2.94c.22.56.21,1.51,2.41,2.53,1.53.71,3,1.46,4.39,2.19.74.38,2,.55,1-1.36a32,32,0,0,0-5.9-8.16C116.14,71.92,116,73.1,115.87,73.71ZM79.47,67c3.93,1,8.24,2.09,12.77,3.6,1.56.52,1.8-.83,2-1.47s.79-1.64-1.29-2.38a31.72,31.72,0,0,0-14.39-1.56c-.58.07-2.07.3-1.89.69S78.69,66.75,79.47,67Z" style="fill:url(#linear-gradient-6)"/><path d="M109.06,77.1a6.1,6.1,0,1,1,0-8.62A6.09,6.09,0,0,1,109.06,77.1Z" style="fill:#ffeed6"/><path d="M42.66,86.94c.84.28,3.87-1.31,4.81-2.48s1.69-.51,1.85,1.06-.78,4,1.84,2.57,2.13-5.56,3.36-3.9.49,4.35,3,2.15,3.14-5.27,4.13-7.84,4.18-7.19,7.79-9a7.24,7.24,0,0,1,3.93-1l.34-.87a7,7,0,0,1-2.26-3.37c-1.49-3.74-.77-9.32.21-11.89s2.57-5.22,2.17-8.59-1.61-.84-3.67-.41,1.13-2.24.12-5.14-1.92-.4-3.1.67S65,40,65.1,38.47s-1.1-4.7-1.92-5.06-2.13,2.52-2.51,4.11-.82,2.14-2.08,1.23-1.3-1.33-1.91,1.43.52,5.2-.85,4-2-1.77-2.17-.16.32,5.59.38,8.41-3.33,2.77-3,.73a46.29,46.29,0,0,0,.61-8.44c-.2-1.71,0-2.87-1-1.91s-3,2.83-2.72,1.69.28-3.93-.54-4.93-.71-1.73-1.61-.4-2,2.78-2.22,4.28-1.07.28-2.05-.58S40.44,41.39,40,43s-.84,6.52-1.69,4.87a21.15,21.15,0,0,0-3.79-4.8c-.78-.6-1.05,1-1.13,2.06s0,1.85-.51,1.32a7.94,7.94,0,0,0-3.11-2.13c-1.4-.45-1.11,0-1,1.46s.88,2.32-.92,2.4-3.89.18-4,.85c-.36.57,1.18,2.08,2.42,3.31s.12,1.34-.92,2.4-1.55,1.18-.21,1.78a7.77,7.77,0,0,0,3.74.49c.71-.07.16.46-.51,1.33s-1.52,2.21-.53,2.28a21,21,0,0,0,6-1c1.73-.67-1.26,3.27-2,4.75s-.24,1.11,1,1.12,2.78-.32,1.92.94-1,3.08-1.21,4.67.21,1,1.46.78,3.1-2.3,3.69-3.31.8,1.71.9,3.08.71.36,2-.77a46.75,46.75,0,0,0,5.19-6.69c1.11-1.74,3.7.46,1.74,2.55s-5,4.68-5.9,6S42.59,74,44.38,74s-.63,1.06-2,3.53-1.06,2.19.46,2.34,1.52.86.73,2.3S41.83,86.67,42.66,86.94Z" style="fill:url(#linear-gradient-7)"/><path d="M60.24,79.77c-.19.55-.37,1.1-.58,1.65a10.25,10.25,0,0,1-2.74,4.24,6.11,6.11,0,0,1-.63.5c0-.14-.1-.32-.15-.46a6.29,6.29,0,0,0-.9-2,1.5,1.5,0,0,0-1.35-.75c-.73.1-1,.81-1.14,1.15,0,.14-.1.3-.16.46s-.13.39-.21.59a4,4,0,0,1-1.65,2.19,3.77,3.77,0,0,1-.55.27,6.78,6.78,0,0,1,0-.78,10.29,10.29,0,0,0,0-1.36c-.18-1.78-1-2.27-1.43-2.4a1.85,1.85,0,0,0-2,.86A8.88,8.88,0,0,1,43.24,86a8.93,8.93,0,0,1,.59-2.27,9.21,9.21,0,0,1,.51-1.12,7,7,0,0,0,.43-.91,2,2,0,0,0,0-1.8A2.37,2.37,0,0,0,42.9,79l-.29,0c.14-.29.33-.63.53-1A10.56,10.56,0,0,1,45,75.75a3.58,3.58,0,0,0,.89-1.1,1.05,1.05,0,0,0-.11-1,1.59,1.59,0,0,0-1.37-.53h-.91a36.8,36.8,0,0,1,3-3.07c1-.92,1.94-1.87,2.75-2.74A3.75,3.75,0,0,0,50,66.13a2.61,2.61,0,0,0-1.17-3.28,2.08,2.08,0,0,0-2.76.81,45.81,45.81,0,0,1-5,6.5l-.57.53c-.18-2.14-.41-3.06-1.25-3.25a1.13,1.13,0,0,0-1.26.64c-.59,1-2.23,2.75-3,2.87l-.42.08c0-.17,0-.34.07-.51a13,13,0,0,1,.58-2.85,3.46,3.46,0,0,1,.39-.77,3.07,3.07,0,0,0,.32-.57,1.27,1.27,0,0,0-.12-1.23c-.45-.63-1.28-.6-2.15-.57l-.7,0h-.15c.2-.36.51-.85.83-1.36a17.42,17.42,0,0,0,1.54-2.71A1.37,1.37,0,0,0,35,58.92a1.25,1.25,0,0,0-1.44-.19,21.36,21.36,0,0,1-5,1,8.34,8.34,0,0,1,.57-.82l.28-.36a4.08,4.08,0,0,0,.66-1,1.06,1.06,0,0,0-.12-1,1.16,1.16,0,0,0-1.13-.39,7.28,7.28,0,0,1-3.16-.38c.11-.11.24-.23.37-.37a7.08,7.08,0,0,1,.69-.58,2.49,2.49,0,0,0,1-1.05h0a2,2,0,0,0-.73-2l-.08-.08a18.32,18.32,0,0,1-2-2.23,17.69,17.69,0,0,1,3-.3h.11c.42,0,1.54-.07,1.91-1a2.45,2.45,0,0,0,0-1.42,6,6,0,0,1-.13-.89c0-.19,0-.37,0-.52A7.16,7.16,0,0,1,32.22,47a1.17,1.17,0,0,0,1.1.46,1,1,0,0,0,.78-.69,3.82,3.82,0,0,0,.17-1.17c0-.14,0-.29,0-.46a8,8,0,0,1,.13-1,21.43,21.43,0,0,1,3.09,4.08,1.26,1.26,0,0,0,1.19.83c.51,0,.9-.38,1.16-1.06a19,19,0,0,0,.67-3c.1-.6.2-1.17.29-1.57l.11.1c.18.15.34.32.51.47.63.61,1.22,1.19,2,1a1.24,1.24,0,0,0,.9-.83h0a2.62,2.62,0,0,0,.15-.64,4.28,4.28,0,0,1,.22-.83,12.93,12.93,0,0,1,1.48-2.52c.09-.14.19-.28.29-.41l.25.33c.53.64.59,3,.35,4.18a1.13,1.13,0,0,0,.5,1.31c.76.41,1.55-.12,3.11-1.58,0,.24,0,.5.08.77a46.73,46.73,0,0,1-.61,8.2,2.06,2.06,0,0,0,1.51,2.44,2.59,2.59,0,0,0,3.06-1.65,3.92,3.92,0,0,0,.22-1.4c0-1.18-.12-2.55-.22-3.87a38,38,0,0,1-.18-4.28c.22.18.47.4.69.6a1.6,1.6,0,0,0,1.37.52,1.08,1.08,0,0,0,.74-.67h0a3.38,3.38,0,0,0,.08-1.41,10.59,10.59,0,0,1,.14-2.9c.09-.39.17-.77.26-1.08l.24.18A2.33,2.33,0,0,0,60,40a2,2,0,0,0,1.22-1.32,9.37,9.37,0,0,0,.29-1,9.49,9.49,0,0,1,.37-1.16A8.87,8.87,0,0,1,63,34.48a9,9,0,0,1,1.2,3.94,1.87,1.87,0,0,0,.92,2c.43.2,1.35.37,2.67-.84a8.65,8.65,0,0,0,.9-1c.15-.18.34-.43.5-.6a3.43,3.43,0,0,1,.23.56,4,4,0,0,1-.23,2.73c-.08.21-.16.41-.24.58l-.19.46a1.56,1.56,0,0,0,.08,1.62,1.49,1.49,0,0,0,1.5.34,6.32,6.32,0,0,0,2-.91l.41-.25a5,5,0,0,1,.15.79,10.38,10.38,0,0,1-.81,5c-.21.54-.44,1.09-.66,1.61s-.45,1-.65,1.57c-1,2.68-1.81,8.52-.2,12.54a11.34,11.34,0,0,0,.48,1.1l.62,1.68-1.58.83c-.35.15-.72.31-1.1.5-3.88,1.92-7.21,6.79-8.23,9.47C60.6,78.7,60.42,79.25,60.24,79.77Z" style="fill:url(#linear-gradient-8)"/><path d="M58.62,104.75c-.17-1.56.44-2.74-1.23-2.09s-3.5,1.4-3.69.78c-.38-.42.75-2.51,1.67-4.21s-.09-1.34-1.13-1.89-1.45-.45-.4-1.57A8.94,8.94,0,0,1,57,93.68c.64-.25.08-.5-.63-1s-1.6-1.31-.78-1.82A20.13,20.13,0,0,1,61,89c1.72-.23-1.66-2.35-2.54-3.29s-.38-.85.74-1.49,2.52-1.11,1.53-1.76S59.42,80.33,59,79.13s0-.9,1.14-1.39,3.11.28,3.83.83.42-1.87.26-3.07.58-.69,2-.46a31.49,31.49,0,0,1,7.74,3.63,4.35,4.35,0,0,0,5.83-.42s2.4-1.84,0,1.61c-.57.49-2,2.63-.85,4.29,3.54,5.17,4.6,9,4.93,11s1,3.35-.59,2.74-4.54-1.72-3.91-.54,1.59,4.44.9,6-.34,2.45-1.86,1.25-3.23-2.3-3.87-3.94-1.28.19-2.16,1.63-.86,2.16-1.73.55-2.42-6.66-2.93-4.52a31.58,31.58,0,0,1-2.89,6.85c-.68,1-1.25-.62-1.55-1.74s-.38-2-.75-1.18a11.5,11.5,0,0,1-2.63,3.54C58.6,106.9,58.8,106.31,58.62,104.75Z" style="fill:url(#linear-gradient-9)"/><path d="M79.41,103l0,0a9,9,0,0,0-.36,1,.74.74,0,0,1-.12-.09l-.62-.48c-1.23-.94-2.5-1.9-3-3.07-.11-.29-.45-1.15-1.29-1.21s-1.44.85-2,1.9l-.45.79c-.1.15-.18.29-.26.43-.19-.41-.44-1-.7-1.63C69.56,98.17,69,97,68,97a1.18,1.18,0,0,0-1.11.87,3.4,3.4,0,0,0-.1.33,19.14,19.14,0,0,1-.71,2.19,39.77,39.77,0,0,1-1.7,3.78,6.14,6.14,0,0,1-.27-.87Q64,103,64,102.79c-.2-.85-.38-1.59-1.16-1.67-.34,0-.81.08-1.16.81a11.36,11.36,0,0,1-2.12,3l0-.28a6.65,6.65,0,0,1,0-1c0-.66,0-1.41-.59-1.84a1.93,1.93,0,0,0-1.85,0l-.09,0c-.62.24-1.64.65-2.3.82l0-.08a28.59,28.59,0,0,1,1.41-2.85l0-.09a7.16,7.16,0,0,0,.31-.66,1.51,1.51,0,0,0-1.2-2.24,3.33,3.33,0,0,1-.6-.22l-.21-.11,0,0a8.39,8.39,0,0,1,2.81-1.87,1.32,1.32,0,0,0,.79-.71c.32-.83-.43-1.33-.93-1.67l-.29-.2a3.5,3.5,0,0,1-.56-.46,20.76,20.76,0,0,1,4.85-1.6,1.33,1.33,0,0,0,1.19-.81h0c.4-1-.74-1.95-2.17-3.11-.33-.27-.67-.54-.89-.75l.4-.22c.2-.12.42-.23.62-.33.74-.39,1.39-.73,1.62-1.33a1.32,1.32,0,0,0-.65-1.63A5,5,0,0,1,60,79.34q-.09-.27-.18-.51v0c.18-.06.4-.14.66-.25a4.08,4.08,0,0,1,2.91.73,1.16,1.16,0,0,0,1,.22,1.11,1.11,0,0,0,.74-.72,7.43,7.43,0,0,0,0-3c.24,0,.54.13.88.18a31.27,31.27,0,0,1,7.36,3.48,5.13,5.13,0,0,0,4.91.82,4.92,4.92,0,0,0-.44.89,3.74,3.74,0,0,0,.27,3.54c3.33,4.87,4.44,8.5,4.78,10.67.07.5.17,1,.25,1.34a2.64,2.64,0,0,1,.07.3c-2.68-1-4.36-1.52-4.84-.26a1.31,1.31,0,0,0,.12,1.11C79.1,98.89,79.89,101.75,79.41,103Z" style="fill:url(#linear-gradient-10)"/><path d="M85.45,64.32a4.34,4.34,0,0,0-4-4.21,31.2,31.2,0,0,1-8.19-2.47c-1.19-.76-2.08-.87-1.17-1.66s2.77-2.38,1.86-2.46-2.89-.81-3.4-1.94-1-1.2.08-1.8S73,48.34,74.14,48.5s.45-1.07,0-2.34-.8-1.49.45-1.6,5.21.58,4.09-.74a20.33,20.33,0,0,1-2.82-5c-.27-.92,1-.93,1.8-.83s1.44.29,1.13-.32A9.3,9.3,0,0,1,77.88,34c0-1.53.24-1.17,1.35-.89s1.63,1.27,2.1-.66,1-4.19,1.58-4.24c.55-.33,1.46,1.51,2.22,3s1.14.31,2.32-.73,1.41-1.62,1.65,0a11.51,11.51,0,0,1-.41,4.4c-.24.81.38.27,1.35-.38s2.47-1.44,2.31-.26a31.23,31.23,0,0,1-2.43,7c-1,1.93,3.51-.8,5.2-1.41s1.22-.06.92,1.57-1,3.43.52,2.65,3.64-.47,5.51-.34,1.09.54.55,2.17-3.43,3.43-4.7,3.89,1.71,1.61,3.27,2.21.24,1.09-1.4,2.43-5,3.44-11,4.92c-2,.48-2.34,3-2.23,3.76C86,67.29,85.45,64.32,85.45,64.32Z" style="fill:url(#linear-gradient-11)"/><path d="M100.31,52.91c-.32.24-.69.5-1.09.82-1.7,1.39-4.94,3.34-10.69,4.74A3.76,3.76,0,0,0,86,60.92a6.34,6.34,0,0,0-.27,1,5.15,5.15,0,0,0-4.2-2.67,31.31,31.31,0,0,1-7.79-2.33c-.29-.18-.57-.34-.79-.46a7.29,7.29,0,0,0,2-2.25,1.12,1.12,0,0,0-.07-1,1.13,1.13,0,0,0-.91-.52,4,4,0,0,1-2.66-1.41,6.84,6.84,0,0,0-.32-.62,0,0,0,0,1,0,0l.47-.26A5,5,0,0,1,74,49.4a1.34,1.34,0,0,0,1.58-.77,3.1,3.1,0,0,0-.32-2.08c-.08-.21-.16-.44-.24-.66s-.1-.3-.15-.43c.3,0,.74,0,1.16,0,1.84.1,3.29.17,3.69-.87a1.34,1.34,0,0,0-.34-1.4,20.26,20.26,0,0,1-2.53-4.43,3.89,3.89,0,0,1,.72,0l.35.05c.59.08,1.49.21,1.81-.62a1.31,1.31,0,0,0-.11-1,8.26,8.26,0,0,1-.85-3.27v-.06l.24.06a4.29,4.29,0,0,1,.59.24,1.77,1.77,0,0,0,1.47.2A1.8,1.8,0,0,0,82,33.32c.07-.2.14-.42.21-.7l0-.1a31.52,31.52,0,0,1,.86-3.07l0-.08c.37.57.86,1.55,1.16,2.15l0,.09a1.93,1.93,0,0,0,1.36,1.25c.75.09,1.23-.48,1.67-1a6.43,6.43,0,0,1,.68-.72l.21-.19a11.38,11.38,0,0,1-.43,3.64A1.15,1.15,0,0,0,88.15,36c.63.46,1.25,0,2-.47l.41-.27a8,8,0,0,1,.78-.47,33.92,33.92,0,0,1-1.27,3.94,17.61,17.61,0,0,1-.93,2.11c-.06.12-.11.22-.15.32a1.2,1.2,0,0,0,.24,1.38c.76.69,2,.16,4.43-1,.61-.3,1.19-.57,1.61-.74,0,.15-.07.31-.1.48s-.12.6-.19.89c-.26,1.18-.49,2.19.24,2.77a1.66,1.66,0,0,0,1.77,0c1.12-.56,2.71-.43,4.25-.31l.79.06h.14c-.11.26-.26.59-.39,1l0,.05c-.48,1.26-3,2.86-4.13,3.27a1.32,1.32,0,0,0-.82.74c-.49,1.27,1.1,2,3.77,3Z" style="fill:url(#linear-gradient-12)"/><path d="M55.65,101.8S70,86.08,75.25,81.58c3-2.54,7-5.65,7.91-6.22s1.56-2.13.29-2.91c-3.79-1.14-8.11-2.59-12.31-4-2.33-.78-10.28-3.83-16.07-6.16-13.74-5.53-29-12-30.16-12.57-1.84-.87-.29-.67.27-.48,0,0,24,8.73,30.91,11.38s20.47,7.65,27.39,8.76l.87.13c1.38-.08,1.74-.82,1.5-1.75s-1.17-5.49-1.7-9.4c-.94-6.88-1.07-28.13-1.07-28.13.19-1.84.48.09.71,2.58.18,5.76.61,12.87,1.14,18.89a105.28,105.28,0,0,0,1.78,11c.46,2.5,2,6.64,4.15,7.15l.11,0a7.9,7.9,0,0,0,3.84-.85c.94-.69,2.44,1.24,2.49,3.08.07,2.09-1.07,2.81-5.49,2.27-3.2.37-10.26,4.5-12.18,6a88.12,88.12,0,0,0-8.25,6.65C67,91.18,61.89,96.18,57.9,100.35,56.07,102.05,54.56,103.29,55.65,101.8Z" style="fill:url(#linear-gradient-13)"/><path d="M93.83,72S87,73.37,74.74,68.49c-10-3.65-2.9-1.5.61-.42s8.35,2.43,10.73,2.12c1-.14.06-4,.84-2.71s2.37,2.91,3.62,3A12.53,12.53,0,0,0,94.07,70c.57-.17,1-.53.91,0s-.65,1.69-.34,2.06S94.67,72.32,93.83,72Z" style="fill:#8fc724"/><path d="M75.31,98.63c1.24,2.21,2.73,4,2,.42s-.07-5.51,1.15-5,1.57,0,.82-2.82a58,58,0,0,0-3-7.54,7.92,7.92,0,0,0-3.22,5.84A23.51,23.51,0,0,0,75.31,98.63Zm-4,1.52a12.06,12.06,0,0,0,.69-6.8,14,14,0,0,1-.24-5.75,14.65,14.65,0,0,0-3.59,3.77A6.6,6.6,0,0,0,66.87,95c0,1.06,1.28.32,2.13.82S71.37,99.82,71.33,100.15Zm-6.61.17a65.74,65.74,0,0,1,1.42-6.87c-.84.82-3,2.27-4.11,4.36s-1.34,3.49.29,2.2S64.43,102.91,64.72,100.32Z" style="fill:url(#linear-gradient-14)"/><path d="M69.71,83.64c2.57.07,4.39-2.3,4.39-2.3a61.55,61.55,0,0,0-6.35-3.49C65.68,77,66,77,66.12,78.33s-.47,2.36-3.08,1.54-1.74.34,0,1.64A14.2,14.2,0,0,0,69.71,83.64ZM64.45,89a5.62,5.62,0,0,0,3.06-1.16,12.71,12.71,0,0,0,3.2-3.11,12,12,0,0,1-4.93-.14A10.21,10.21,0,0,0,60,85.2c.28,0,3.33,1.22,3.77,2S63.55,89,64.45,89ZM61.14,94c2-1.12,3.36-3.17,4.13-4a63,63,0,0,1-6.57,1.42c-2.48.31,1.55.73.33,2.31S59.15,95.13,61.14,94Z" style="fill:url(#linear-gradient-15)"/><path d="M87.77,51.13a7.9,7.9,0,0,0-1.52,6.49A58.15,58.15,0,0,0,93.54,54c2.44-1.6,2.49-2.18,1.27-2.65s-.41-2.34,2.52-4.53.63-1.85-1.78-1A23.31,23.31,0,0,0,87.77,51.13ZM89,43.73c-1-.19-1.4-1.58-2.13-.81a6.61,6.61,0,0,0-1.42,3.55,14.78,14.78,0,0,0,.15,5.2,14.15,14.15,0,0,1,4-4.12,12.07,12.07,0,0,0,4-5.51C93.41,42.31,89.92,43.93,89,43.73Zm-2.14-7.61c-.35-2-1.15-.88-1.69,1.44s.07,4.82.15,6a66.08,66.08,0,0,1,3.54-6.06C90.32,35.37,87.16,38.17,86.81,36.12Z" style="fill:url(#linear-gradient-16)"/><path d="M75,50.34c-2.14-.18-3.57.11-1.08,1.24s2.17,2.41,1.27,3.2-1.21.69.89,1.45a61.09,61.09,0,0,0,7,1.65s.23-3-1.73-4.65A14.14,14.14,0,0,0,75,50.34Zm4.31-3.71c-.81.25-3.92-.85-4.11-1.07a10.24,10.24,0,0,0,3.89,4.37,12.07,12.07,0,0,1,3.76,3.18,12.74,12.74,0,0,0-.3-4.45A5.65,5.65,0,0,0,81,45.76C80.33,45.17,80.08,46.38,79.27,46.63Zm.91-8.06c-.14,2-3.42-.39-1.78,1.49a61.82,61.82,0,0,1,3.93,5.45c0-1.12.32-3.56-.41-5.72S80.33,36.58,80.18,38.57Z" style="fill:url(#linear-gradient-17)"/><path d="M53.06,81.9c1.21-1.38,2.84-.07,3.24,1.14s1.16-1.78,3.86-7A21.08,21.08,0,0,1,67,68.2c-5.17-1.89-8.36,1.63-10.21,3.92S51,80,50.82,83,51.86,83.28,53.06,81.9Zm-6.17.72c1.73-1,2-.88,5.41-7.3a19.43,19.43,0,0,1,9.3-8.62,16.13,16.13,0,0,0-5.32-1.26c-2.35.06-4.82,1.73-6.69,4.59-1.3,2-1.49,3.39-3.38,6s-1.09,2.58.22,2.7S45.16,83.6,46.89,82.62ZM40,62.37c-1.6,1.9-3.94,5.74-2.31,4.24s3.23.17,3.19,1.52.85.32,2.91-3,3.65-4.21,3.65-4.21C43.8,59.4,41.56,60.47,40,62.37Zm-1.63,0A13.36,13.36,0,0,1,43,58.79c-1.09-.42-3.89-1.69-5.22-1.52s-3,.13-2,1.66-1.61,4.7-1.61,4.7A3.8,3.8,0,0,0,38.33,62.33Zm-1.28-6c.94.07-2-1.95-4.71-2.1s-5.62,1-3.79,1.06,2.91.73,2.89,1.3-.68,1.77.58,1A16.38,16.38,0,0,1,37.05,56.33Z" style="fill:url(#linear-gradient-18)"/><path d="M68.8,63.55a21.09,21.09,0,0,1,.12-10.4c1.51-5.7,3-8.44,1.83-7.81s-3.19.52-3.17-1.31.92-4.67-1-2.3S64,50.87,63.83,53.81,63.69,61.49,68.8,63.55ZM63.47,39.36c-.63-1.88-1.86,3.35-2.91,2.56s-1.6-1.38-2,1.86-1.17,4.41-1.53,6.76c-.52,3.38.21,6.27,1.91,7.89A16.32,16.32,0,0,0,63.77,61a19.38,19.38,0,0,1-1.15-12.63C64.36,41.35,64.1,41.25,63.47,39.36ZM49.28,46.11c-.87,1-3.16,1.2-3.38-1s-1,2.21-1.12,4.69.87,4.79,4.53,6.09c0,0-.61-1.68.11-5.57S50.16,45.09,49.28,46.11Zm-9.55,6c.87,1,3.8,1.94,4.89,2.36a13.33,13.33,0,0,1-1.08-5.73A3.81,3.81,0,0,0,41.31,45s-.21,4.08-2,4.57S38.86,51.1,39.73,52.11Zm-1.15.24a16.69,16.69,0,0,1-2.9-4.3c-.42-1.42-.74-.09-1.1.35s-1.64.24-3-1,0,1.66,2.11,3.32S39.32,52.92,38.58,52.35Z" style="fill:url(#linear-gradient-19)"/><path d="M95.62,69.45A4.09,4.09,0,0,1,97,72.39c-.11,1.37-.64,1.78-1,1.12s-1.28-1.46-1.05-2C95.42,70.53,95.19,69.06,95.62,69.45Z" style="fill:#2e6b03"/></g></g></svg>