<svg xmlns="http://www.w3.org/2000/svg" xmlns:xlink="http://www.w3.org/1999/xlink" viewBox="0 0 206.56 198.99"><defs><radialGradient id="radial-gradient" cx="86.91" cy="111.26" r="89.84" gradientUnits="userSpaceOnUse"><stop offset="0" stop-color="#ff2e00"/><stop offset="0.21" stop-color="#fa2c00"/><stop offset="0.46" stop-color="#eb2500"/><stop offset="0.74" stop-color="#d31a00"/><stop offset="1" stop-color="#b50d00"/></radialGradient><linearGradient id="linear-gradient" x1="32.12" y1="79.48" x2="61.79" y2="140.69" gradientUnits="userSpaceOnUse"><stop offset="0" stop-color="#ff571d"/><stop offset="0.29" stop-color="#fe521a"/><stop offset="0.63" stop-color="#fc4310"/><stop offset="1" stop-color="#f92b00"/><stop offset="1" stop-color="#f92b00"/></linearGradient></defs><g id="Layer_2" data-name="Layer 2"><g id="Layer_1-2" data-name="Layer 1"><path d="M128.81,143.61s29,4.82,35.9.25,10.43-22.23-37.47-70.13-67-47.18-71.79-39.1S45.18,102.78,128.81,143.61Z" style="fill:#700000"/><path d="M113.19,6.8s-.72-5-.39-5.55-.07-.79,2.83-.84S122.12,0,124,0s1.73-.49,3.71,2.09,6.78,6.85,5.26,8.33-8.26,4.48-11.17,4.26S113.19,6.8,113.19,6.8Z" style="fill:#ffc336"/><path d="M114.73,17.91s5.44-4.63,7.74-5.25,10.45-2.22,10.45-2.22S112.75,55.65,78.42,98.5c-2.49,1-3.47,1.9-4.11-.38S114.73,17.91,114.73,17.91Z" style="fill:#c26300"/><path d="M68.65,91.11C76.71,77.17,106.44,19,112.8,1.25a122.4,122.4,0,0,0,9.67,11.41S88,79.2,74.31,98.12C70.38,96.16,68.65,91.11,68.65,91.11Z" style="fill:#e09912"/><polygon points="188.84 92.9 192.71 82.78 200.33 83.28 206.56 97.7 201.4 101.44 188.84 92.9" style="fill:#e58f00"/><path d="M93.86,134.77s80.91-39.12,98.85-52c7,12.27,8.69,18.66,8.69,18.66s-70.16,31.88-104.52,45.88C92.2,138.2,93.86,134.77,93.86,134.77Z" style="fill:#f2b50a"/><path d="M101.39,17.13s-.33-5.53.08-6.1,0-.86,3.17-.66,7.12.12,9.1.33,1.94-.37,3.87,2.62,6.76,8.1,5,9.57S113.16,27,110,26.52,101.39,17.13,101.39,17.13Z" style="fill:#ffc336"/><path d="M102.06,29.38s6.36-4.55,8.92-5,11.6-1.47,11.6-1.47S96.46,70.37,55.11,114c-2.8.87-4,1.75-4.44-.79S102.06,29.38,102.06,29.38Z" style="fill:#ad5c00"/><path d="M45.13,105c10.06-14.48,47.78-75.2,56.34-94A134.59,134.59,0,0,0,111,24.36S67.36,93.8,50.67,113.19C46.55,110.69,45.13,105,45.13,105Z" style="fill:#d98a14"/><path d="M177,105.49s3.07-4.61,3.75-4.81.51-.7,2.92,1.39,5.6,4.39,7,5.76,1.78.88,1.5,4.42.5,10.54-1.82,10.63-10-2.39-12.21-4.71S177,105.49,177,105.49Z" style="fill:#ffc336"/><path d="M170.16,115.65s7.83.22,10.15,1.39,10.13,5.84,10.13,5.84-49.5,22.05-108.8,31.81c-2.76-1-4.21-1-3.06-3.32S170.16,115.65,170.16,115.65Z" style="fill:#ad5c00"/><path d="M79.1,141.53c16.76-5.46,83.51-31,101.69-40.85a135.8,135.8,0,0,0-.48,16.36s-76.72,29-101.73,34.33C76.81,146.9,79.1,141.53,79.1,141.53Z" style="fill:#d98a14"/><path d="M142.77,16.44s.83-5.48,1.35-6,.16-.84,3.23,0,6.94,1.59,8.84,2.21,2,0,3.24,3.35,4.94,9.33,2.88,10.39-10.07,2.1-13.06.95S142.77,16.44,142.77,16.44Z" style="fill:#ffc336"/><path d="M140.89,28.57s7.17-3.14,9.77-3.07,11.65,1,11.65,1-35.38,41.05-84.88,75.15c-2.92.27-4.22.9-4.18-1.7S140.89,28.57,140.89,28.57Z" style="fill:#c26300"/><path d="M69.53,90.78c12.84-12.08,62.31-63.66,74.59-80.29a133.86,133.86,0,0,0,6.54,15S93.6,84.4,73.25,99.91C69.75,96.62,69.53,90.78,69.53,90.78Z" style="fill:#e09912"/><path d="M183.71,53.26s1.44-5.35,2-5.75.26-.83,3.2.38,6.72,2.37,8.53,3.21,2,.26,2.83,3.71,3.84,9.83,1.68,10.65-10.25.93-13.08-.56S183.71,53.26,183.71,53.26Z" style="fill:#ffc336"/><path d="M180.44,65.09s7.48-2.3,10.06-1.92S202,65.46,202,65.46s-39.87,36.7-92.95,64.9c-2.93-.07-4.3.41-4-2.17S180.44,65.09,180.44,65.09Z" style="fill:#ad5c00"/><path d="M102.41,118.7c14.14-10.53,69.22-56.09,83.32-71.19a133.48,133.48,0,0,0,4.77,15.66s-63.44,52-85.44,65C102,124.52,102.41,118.7,102.41,118.7Z" style="fill:#d98a14"/><path d="M159.94,50.77l1.53-6.65,7.65,1.52L176.9,58.8s-7.78,4.11-12.6,4.36C161.85,59.38,159.94,50.77,159.94,50.77Z" style="fill:#f2b30a"/><path d="M159,59.61l11.05.27,6.81-1.08S141.41,97.37,72.75,115.64c-1.61-.38-4.07-4-2.88-5.59S159,59.61,159,59.61Z" style="fill:#ad5200"/><path d="M161.47,44.12l8.62,15.76S123.76,99,70.72,114.06c-5.1-7-5.35-11-5.35-11S128.28,73.22,161.47,44.12Z" style="fill:#e69912"/><path d="M129.5,47.2s-.33-5.52.09-6.1,0-.86,3.16-.65,7.12.12,9.1.33,2-.38,3.87,2.61,6.77,8.1,5,9.57-9.41,4.14-12.57,3.63S129.5,47.2,129.5,47.2Z" style="fill:#ffc336"/><path d="M130.17,59.45s6.36-4.55,8.92-5S150.69,53,150.69,53s-26.11,47.48-67.47,91.09c-2.8.88-4,1.76-4.44-.78S130.17,59.45,130.17,59.45Z" style="fill:#ad5c00"/><path d="M73.25,135.1c10.06-14.47,47.78-75.19,56.34-94a136.53,136.53,0,0,0,9.5,13.34s-43.61,69.44-60.31,88.83C74.67,140.76,73.25,135.1,73.25,135.1Z" style="fill:#d98a14"/><path d="M169.41,81.43s2.65-4.87,3.3-5.13.45-.74,3,1.12,6,3.86,7.55,5.09,1.86.7,1.91,4.26,1.46,10.45-.84,10.75-10.18-1.46-12.6-3.57S169.41,81.43,169.41,81.43Z" style="fill:#ffc336"/><path d="M163.5,92.19s7.81-.51,10.23.45,10.63,4.88,10.63,4.88S137.1,124,78.93,139.19c-2.83-.74-4.27-.6-3.35-3S163.5,92.19,163.5,92.19Z" style="fill:#ad5c00"/><path d="M75.2,126.31c16.19-7,80.3-38.58,97.51-50a134.47,134.47,0,0,0,1,16.34S100,128.53,75.58,136.17C73.41,131.87,75.2,126.31,75.2,126.31Z" style="fill:#d98a14"/><polygon points="117.71 39.7 117.14 28.89 124.31 26.25 135.85 36.9 132.66 42.41 117.71 39.7" style="fill:#e58f00"/><path d="M47.87,116.5S106,47.92,117.14,28.88c11.34,8.39,15.52,13.53,15.52,13.53S81.45,100,55.73,126.75C47.75,120.3,47.87,116.5,47.87,116.5Z" style="fill:#f2b50a"/><polygon points="76.55 22.58 72.45 12.56 78.36 7.71 92.76 13.97 91.56 20.22 76.55 22.58" style="fill:#ffd10a"/><path d="M35.88,118.08S68.16,34.21,72.46,12.56c13.46,4.18,19.1,7.66,19.1,7.66s-29.4,71.24-44.89,105C37,121.71,35.88,118.08,35.88,118.08Z" style="fill:#f2b50a"/><polygon points="150.26 68.67 151.84 57.96 159.39 56.79 168.6 69.52 164.37 74.28 150.26 68.67" style="fill:#ffd10a"/><path d="M66.64,130.17S137.12,74.41,151.84,58c9.46,10.46,12.53,16.32,12.53,16.32s-61.56,46.36-92.05,67.48C65.76,133.88,66.64,130.17,66.64,130.17Z" style="fill:#f2b50a"/><path d="M140,74.47s2.29-5,2.92-5.35.39-.77,3.11.9,6.24,3.43,7.89,4.54,1.89.58,2.2,4.12,2.2,10.32-.07,10.78-10.26-.74-12.82-2.66S140,74.47,140,74.47Z" style="fill:#ffc336"/><path d="M134.9,85.62s7.76-1.06,10.24-.27,11,4.11,11,4.11-45.27,29.79-102.22,49c-2.88-.54-4.3-.3-3.55-2.77S134.9,85.62,134.9,85.62Z" style="fill:#ad5c00"/><path d="M49.24,125.91c15.65-8.1,77.37-44.16,93.72-56.79a134.07,134.07,0,0,0,2.18,16.23s-71,41-94.82,50.37C47.85,131.58,49.24,125.91,49.24,125.91Z" style="fill:#d98a14"/><path d="M124.63,117c-5.09,3.74-10.48,6.63-17.29,6.63a30.8,30.8,0,0,1-30.8-30.81c0-6.79,2.83-12.44,6.56-17.53C57.93,45.55,57.11,33,57.11,33s-44.74,61.55-53.9,73.6c-13.8,18.25,68.18,102.08,89.5,89.48,21.7-14.77,73.66-53.85,73.66-53.85S154.56,142.33,124.63,117Z" style="fill:#700000"/><path d="M123.33,119.91a30.8,30.8,0,0,1-43.06-43C55.11,47.12,55.45,34.63,55.45,34.63S10.71,96.18,1.56,108.23c-13.8,18.25,68.17,102.07,89.5,89.47,21.69-14.76,73.65-53.84,73.65-53.84S153.26,145.2,123.33,119.91Z" style="fill:url(#radial-gradient)"/><path d="M56.88,50.06,6.05,115.88s-2.9,6.78,20.33,32.43C44.29,135.24,75.75,111,75.75,111s-11.13-14,.49-34.36A154.51,154.51,0,0,1,56.88,50.06Z" style="fill:url(#linear-gradient)"/></g></g></svg>