<svg xmlns="http://www.w3.org/2000/svg" xmlns:xlink="http://www.w3.org/1999/xlink" viewBox="0 0 189.22 189.22"><defs><radialGradient id="radial-gradient" cx="1072.15" cy="2171.03" r="102.52" gradientTransform="translate(855.95 -2217.04) rotate(45)" gradientUnits="userSpaceOnUse"><stop offset="0.03" stop-color="#ffdc7d"/><stop offset="0.18" stop-color="#fdd676"/><stop offset="0.4" stop-color="#f8c464"/><stop offset="0.66" stop-color="#efa846"/><stop offset="0.75" stop-color="#e89d3c"/><stop offset="0.92" stop-color="#d57f20"/><stop offset="0.97" stop-color="#cf7516"/></radialGradient><radialGradient id="radial-gradient-2" cx="4993.01" cy="2170.7" r="102.52" gradientTransform="matrix(-0.71, -0.71, -0.71, 0.71, 5157.1, 2084.11)" xlink:href="#radial-gradient"/><linearGradient id="linear-gradient" x1="1069.05" y1="2168.76" x2="1124.68" y2="2168.76" gradientTransform="translate(855.95 -2217.04) rotate(45)" gradientUnits="userSpaceOnUse"><stop offset="0" stop-color="#c64d21"/><stop offset="0.13" stop-color="#de6a40"/><stop offset="0.26" stop-color="#f07f58"/><stop offset="0.39" stop-color="#fb8d66"/><stop offset="0.49" stop-color="#ff916b"/><stop offset="0.59" stop-color="#f98a63"/><stop offset="0.75" stop-color="#e9774e"/><stop offset="0.94" stop-color="#cf572c"/><stop offset="1" stop-color="#c64d21"/></linearGradient><linearGradient id="linear-gradient-2" x1="91.42" y1="83.24" x2="109.74" y2="101.57" gradientUnits="userSpaceOnUse"><stop offset="0" stop-color="#ffb69c"/><stop offset="0.26" stop-color="#ffb094"/><stop offset="0.65" stop-color="#fda07f"/><stop offset="1" stop-color="#fc8d67"/></linearGradient></defs><g id="Layer_2" data-name="Layer 2"><g id="Layer_1-2" data-name="Layer 1"><path d="M151.09,151.11c-42,42-87,46.49-106.46,27.08,1.78-11.62,22.84-14.57,72.32-64C165.08,66,168.57,44.41,178.17,44.64,198.1,64.57,192.21,110,151.09,151.11Z" style="fill:url(#radial-gradient)"/><path d="M124.26,124.27c-36.88,36.88-72.71,60.85-80,53.53-5.91-5.91,15-22.37,64.52-71.84,48.13-48.14,63.68-67,69-61.71C185.1,51.57,161.13,87.4,124.26,124.27Z" style="fill:#ffedba"/><path d="M38.11,38.13C-3.85,80.08-8.38,125.18,11,144.59c11.62-1.78,14.57-22.85,64-72.32,48.14-48.13,69.73-51.62,69.51-61.22C124.65-8.88,79.23-3,38.11,38.13Z" style="fill:url(#radial-gradient-2)"/><path d="M62.64,62.66C25.93,99.37,2.89,135.85,11.18,144.14c6.69,6.69,22.77-14.48,72-63.73,47.92-47.92,67-63.16,60.93-69.21C135.83,2.9,99.35,26,62.64,62.66Z" style="fill:#ffe2a2"/><path d="M64.94,65c-36.87,36.88-60.84,72.7-53.52,80,5.91,5.91,22.36-15,71.84-64.52,48.13-48.14,67.05-63.68,61.7-69C137.65,4.12,101.82,28.08,64.94,65Z" style="fill:#d6ae89"/><path d="M153.75,50.32s23.1-4.07,19,8-9.59,18.32-21.17,24.35-15.7,18.08-21.09,26.64S118,123.3,108.23,126s-12,15.17-17.42,23-12.48,12.48-21.87,16.31-17.22-1.8-10.48-14.88S153.75,50.32,153.75,50.32Z" style="fill:#d62514"/><path d="M150.37,47s23.1-4.07,19,8-9.59,18.31-21.18,24.35-15.7,18.08-21.09,26.64-12.43,14-22.23,16.68-12,15.17-17.42,23S75,158.05,65.57,161.88,48.34,160.07,55.08,147,150.37,47,150.37,47Z" style="fill:#9c1200"/><path d="M138.08,35s4.07-23.1-8-19-18.32,9.59-24.35,21.18S87.68,52.88,79.11,58.27,65.1,70.69,62.43,80.5s-15.17,12-23,17.42S27,110.4,23.14,119.79,25,137,38,130.27,138.08,35,138.08,35Z" style="fill:#599c00"/><path d="M140.74,37.65s4.08-23.1-8-19-18.31,9.59-24.35,21.17S90.34,55.54,81.78,60.93s-14,12.43-16.68,22.24-15.17,12-23,17.42-12.49,12.48-16.32,21.87,1.81,17.22,14.89,10.48S140.74,37.65,140.74,37.65Z" style="fill:#246900"/><path d="M67.51,156.8a23.87,23.87,0,0,1-33.74,0l-1.35-1.36a23.84,23.84,0,0,1,0-33.73l95.22-95.22a23.85,23.85,0,0,1,33.74,0l1.35,1.35a23.87,23.87,0,0,1,0,33.74Z" style="fill:url(#linear-gradient)"/><path d="M59.48,145.68a13.07,13.07,0,0,1-18.49,0l-.75-.74a13.1,13.1,0,0,1,0-18.5l94.38-94.37a13.08,13.08,0,0,1,18.5,0l.74.74a13.09,13.09,0,0,1,0,18.49Z" style="fill:url(#linear-gradient-2)"/><path d="M54.92,157.14a7.86,7.86,0,0,1-1.78-2.76c-4.34-11.45-6.19-33.57,7.32-44.2,9.82-7.71,18.94-7.47,26.27-7.28,6.38.17,10.6.28,15.53-4.15,3.81-3.41,3.81-7.12,3.47-14.53-.37-7.82-.86-18.52,8.33-27.71,16.34-16.35,41-3.67,42-3.12a7.82,7.82,0,0,1-7.26,13.86c-.27-.14-15.55-7.82-23.7.32-4.11,4.11-4.12,8.51-3.77,15.92.36,7.76.85,18.39-8.64,26.91s-18.91,8.34-26.41,8.15c-6.27-.17-10.8-.29-16.18,3.94-5.6,4.4-5.74,17.42-2.35,26.34a7.83,7.83,0,0,1-12.86,8.31Z" style="fill:#c94926"/><path d="M51.62,151.54a7.86,7.86,0,0,1-1.78-2.76c-4.34-11.45-6.19-33.58,7.32-44.2C67,96.87,76.1,97.11,83.42,97.3c6.39.17,10.61.28,15.54-4.15,3.81-3.41,3.81-7.13,3.47-14.53-.37-7.82-.86-18.52,8.33-27.71,16.34-16.34,41-3.67,42-3.13a7.83,7.83,0,0,1-7.26,13.87c-.27-.14-15.56-7.83-23.7.32-4.11,4.11-4.12,8.51-3.77,15.92.36,7.76.85,18.39-8.64,26.91S90.51,113.15,83,113c-6.27-.17-10.8-.29-16.18,3.94-5.61,4.4-5.74,17.42-2.36,26.34a7.83,7.83,0,0,1-12.85,8.31Z" style="fill:#ffbd21"/><path d="M55.05,146.76a3.51,3.51,0,0,1-.78-1.2c-3.9-10.29-5.74-30,5.93-39.18,8.56-6.73,16.46-6.53,23.42-6.34,6.63.17,12.36.32,18.6-5.28,5.52-5,5.26-10.72,4.92-18-.36-7.76-.77-16.57,7-24.39,14.07-14.07,35.94-2.82,36.86-2.34a3.43,3.43,0,0,1-3.18,6.07h0c-.18-.1-18.34-9.38-28.84,1.11-5.68,5.69-5.39,12-5,19.24.35,7.64.76,16.3-7.19,23.43-8.27,7.42-16.28,7.21-23.35,7-6.65-.17-12.39-.32-19,4.88-8.23,6.46-7.11,22.54-3.76,31.37a3.42,3.42,0,0,1-5.62,3.63Z" style="fill:#fff278"/></g></g></svg>