<svg xmlns="http://www.w3.org/2000/svg" xmlns:xlink="http://www.w3.org/1999/xlink" viewBox="0 0 179.54 179.54"><defs><radialGradient id="radial-gradient" cx="174.27" cy="7.85" r="183.18" gradientUnits="userSpaceOnUse"><stop offset="0.69" stop-color="#cf7516"/><stop offset="0.91" stop-color="#ffb346"/><stop offset="0.93" stop-color="#f6a83d"/><stop offset="0.97" stop-color="#df8a26"/><stop offset="1" stop-color="#cf7516"/></radialGradient><linearGradient id="linear-gradient" x1="84.67" y1="19.04" x2="182.36" y2="135.45" gradientUnits="userSpaceOnUse"><stop offset="0" stop-color="#fbfccd"/><stop offset="1" stop-color="#f1d89a"/></linearGradient><linearGradient id="linear-gradient-2" x1="59.28" y1="48.62" x2="123.95" y2="77.3" xlink:href="#linear-gradient"/><linearGradient id="linear-gradient-3" x1="106.87" y1="14.63" x2="162.59" y2="55.87" xlink:href="#linear-gradient"/><linearGradient id="linear-gradient-4" x1="63.32" y1="72.93" x2="125.62" y2="113.29" xlink:href="#linear-gradient"/><radialGradient id="radial-gradient-2" cx="64.44" cy="79.71" r="14.44" gradientUnits="userSpaceOnUse"><stop offset="0" stop-color="#c1a486"/><stop offset="0.16" stop-color="#c3a789"/><stop offset="1" stop-color="#e3d1ba"/></radialGradient><radialGradient id="radial-gradient-3" cx="64.14" cy="93.84" r="16.72" gradientUnits="userSpaceOnUse"><stop offset="0" stop-color="#e3d1ba"/><stop offset="0.13" stop-color="#dfccb4"/><stop offset="0.3" stop-color="#d3bca2"/><stop offset="0.5" stop-color="#c0a384"/><stop offset="0.73" stop-color="#a6805b"/><stop offset="0.97" stop-color="#855528"/></radialGradient><radialGradient id="radial-gradient-4" cx="7199.35" cy="1342.66" r="14.66" gradientTransform="matrix(-0.97, -0.25, 0.25, -0.97, 6756.55, 3144.94)" xlink:href="#radial-gradient-2"/><radialGradient id="radial-gradient-5" cx="7199.04" cy="1357.01" r="16.96" gradientTransform="matrix(-0.97, -0.25, 0.25, -0.97, 6756.55, 3144.94)" xlink:href="#radial-gradient-3"/></defs><g id="Layer_2" data-name="Layer 2"><g id="Layer_1-2" data-name="Layer 1"><path d="M1.19,59.61a164.16,164.16,0,0,0,43.07,75.3l.37.37a164.16,164.16,0,0,0,75.3,43.07c9.83,2.53,13.28,1.62,16.64-8.8C148.06,133.87,166.32,73.68,174.05,45c7.41-27.48,6.86-33.62,1.06-39.42l-1.17-1.16c-5.79-5.8-11.94-6.36-39.41,1.05C105.86,13.22,45.67,31.48,10,43-.44,46.33-1.35,49.78,1.19,59.61Z" style="fill:url(#radial-gradient)"/><path d="M30.69,51.57A134.44,134.44,0,0,0,66,113.26l.31.3A134.49,134.49,0,0,0,128,148.85c8.05,2.08,10.88,1.33,13.63-7.21C151,112.41,166,63.1,172.31,39.61c6.07-22.51,5.62-27.55.87-32.3-.17-.16-.79-.79-1-.95-4.75-4.75-9.79-5.21-32.3.87-23.49,6.33-72.8,21.3-102,30.71C29.35,40.69,28.61,43.51,30.69,51.57Z" style="fill:url(#linear-gradient)"/><path d="M98.66,29.36c-5.39,2.11-15.74,4.78-13.22,15.47s9.28,17.71-3.93,27.83S66,81.38,66.89,91.78s3.65-4.22,10.68-6.18,29.24-7.31,23.9-23.34-7.59-21.09,0-28.68S110.19,24.86,98.66,29.36Z" style="fill:url(#linear-gradient-2)"/><path d="M144.77,13.9c-7.72,1.06-15.46,10.4-12.65,18s7.31,16.87-1.69,22.78-13.22,11.81,1.13,7.59,23.05-7.87,20.8-20.25S142,25.43,151.24,18.4,152.93,12.77,144.77,13.9Z" style="fill:url(#linear-gradient-3)"/><path d="M118.34,85c0,9.28-.28,16.31-9.84,19.12s-14.34,10.69-12.65,18.56,5.34-5.06,20.24-8.15,20.25-11.25,14.06-22.5S118.34,74.91,118.34,85Z" style="fill:url(#linear-gradient-4)"/><path d="M41,97.36c-5.15-4.59-11.57-7.52-10.47-14.69S27.26,68,23.76,63.76s-5.69-9.92-2.2-12.3,6.8-8.63,1.65-7.53c-7.94,1.7-22.77,6.43-19.83,9s9.55,6.06,9,12.12,2.94,13.77,7.71,16.89,7.53,8.63,8.27,14,6.24,9.73,13.4,11.2S46.17,102,41,97.36Zm7.29,16.76c-7.5-1-3,3-1,7s6.5,10,15.5,8.5S55.91,115.13,48.32,114.12Zm68.5,40.5c-8-1.5-18-1-16.5-4.5s-6-8-14.5-8.5c-5.51-.32-17.5,3-8,6s22.5,3.5,18,6.5,5,8.5,14,8S124.82,156.12,116.82,154.62Z" style="fill:#ffc961"/><path d="M82.65,79.37c0,8.82-8.24,8.92-18.4,8.92s-18.39-.1-18.39-8.92,7.27-17.09,18.39-17.09C75.18,62.28,82.65,70.54,82.65,79.37Z" style="fill:#b4794c"/><path d="M82.19,79.91c0,5.9-3.77,9.26-9.34,11.23-2.55.9-5.48-5.37-8.6-5.37s-6.18,6.24-8.78,5.3c-5.46-2-9.16-5.32-9.16-11.16,0-8.6,8-15.58,17.94-15.58S82.19,71.31,82.19,79.91Z" style="fill:#ede1d2"/><path d="M64.25,69.46c-8.1,0-14.66,5.34-14.66,11.93,0,4.46,3,7,7.48,8.53a1.51,1.51,0,0,0,.51.08,37.26,37.26,0,0,1-.14,5.74c-.18,1.09,3.32,2.14,6.81,2.14s7-1,6.82-2.14a36.43,36.43,0,0,1-.15-5.7,2.25,2.25,0,0,0,.36-.06c4.55-1.51,7.64-4.08,7.64-8.59C78.92,74.8,72.35,69.46,64.25,69.46Z" style="fill:url(#radial-gradient-2)"/><path d="M53.65,81a4.5,4.5,0,0,0-1.81,3.65c0,2.47,2.27,4.65,5.73,6a37.25,37.25,0,0,0-1-8.62C55.91,80.07,54.54,80.29,53.65,81Zm21.2,0c-.88-.67-2.26-.9-2.89,1a37.88,37.88,0,0,0-1,8.62c3.46-1.31,5.73-3.49,5.73-6A4.48,4.48,0,0,0,74.85,81Z" style="fill:url(#radial-gradient-3)"/><path d="M94,61.43c2.21-8.68,10.34-6.71,20.33-4.17S132.43,62,130.21,70.65s-11.43,15-22.37,12.2C97.09,80.11,91.82,70.11,94,61.43Z" style="fill:#b4794c"/><path d="M94.61,61c1.48-5.8,6-8.16,12-8.7,2.73-.24,4,6.66,7.11,7.44s7.64-4.59,10-3c4.88,3.32,7.67,7.53,6.21,13.27-2.16,8.46-11.81,13.31-21.55,10.83S92.46,69.47,94.61,61Z" style="fill:#ede1d2"/><path d="M109.64,75.79c8,2,15.76-1.58,17.41-8.06,1.12-4.39-1.21-7.65-5.22-10.27a1.44,1.44,0,0,0-.48-.2,37.06,37.06,0,0,1,1.58-5.61c.45-1-2.73-2.94-6.17-3.82s-7.14-.71-7.24.4a37.62,37.62,0,0,1-1.28,5.64,1.51,1.51,0,0,0-.37,0c-4.86.34-8.53,2.09-9.67,6.53C96.55,66.86,101.67,73.76,109.64,75.79Z" style="fill:url(#radial-gradient-4)"/><path d="M122.94,67.14a4.54,4.54,0,0,0,2.7-3.14c.62-2.43-1.06-5.14-4.13-7.3a37.54,37.54,0,0,0-1.16,8.73C120.5,67.45,121.91,67.57,122.94,67.14Zm-20.85-5.32c.71.88,2,1.45,3.1-.26a38.15,38.15,0,0,0,3.16-8.21c-3.73.42-6.5,2-7.12,4.42A4.57,4.57,0,0,0,102.09,61.82Z" style="fill:url(#radial-gradient-5)"/><path d="M127.31,85.3a19.37,19.37,0,1,0,19.38,19.37A19.37,19.37,0,0,0,127.31,85.3ZM92.39,24.09l-29.9,8.8a19.67,19.67,0,1,0,29.9-8.8ZM170.7,9.62c-.47,0-.94,0-1.42,0a21.17,21.17,0,0,0-4.81,41.78c2.93-11,8-30.43,8.42-34A11.54,11.54,0,0,0,170.7,9.62Z" style="fill:#bf5249"/><path d="M110,126A22.78,22.78,0,0,1,93.78,83.41Z" style="fill:#fd6f47"/><path d="M108,121.71a18.16,18.16,0,1,1-13-33.93C98.61,97.06,104.14,111.56,108,121.71Z" style="fill:#eb2100"/><path d="M93.88,110.9A2.09,2.09,0,1,0,96,114.52c1-.6,2.28-2.85,1.92-3.5C97.61,110.58,94.93,110.3,93.88,110.9Zm-2.17-7.54a2.09,2.09,0,1,0,.86,4.09c1.18-.25,3-2.25,2.89-2.75C95.31,104,92.89,103.11,91.71,103.36ZM90.88,97a2.14,2.14,0,0,0,1.34,2.7c1.14.41,3.74-.33,3.91-.81.25-.7-1.35-2.71-2.49-3.11A2.13,2.13,0,0,0,90.88,97Zm7.89,19.93a2.09,2.09,0,1,0,3.67,2c.58-1.06.44-3.63-.21-4C101.78,114.69,99.35,115.86,98.77,116.92Z" style="fill:#e86900"/><path d="M91.34,104.18a1.2,1.2,0,0,0-.69.41,1,1,0,0,0-.22.87,1,1,0,0,0,.46.65,1.25,1.25,0,0,0,.89.15,4.65,4.65,0,0,0,1.78-1.4l.12-.14A4.46,4.46,0,0,0,91.34,104.18Zm2.47,7.42a1.05,1.05,0,0,0-.34.29,1.07,1.07,0,0,0-.14,1.21,1.05,1.05,0,0,0,.65.47,1.14,1.14,0,0,0,.88-.13,2,2,0,0,0,.54-.5h0a5,5,0,0,0,.85-1.45A4.91,4.91,0,0,0,93.81,111.6ZM91.43,96.86a.92.92,0,0,0-.17.29A1.12,1.12,0,0,0,92,98.54a4.84,4.84,0,0,0,2.43-.31,4.61,4.61,0,0,0-1.71-1.69A1.15,1.15,0,0,0,91.43,96.86Zm7.67,20.36a1.17,1.17,0,0,0-.12.89,1,1,0,0,0,.5.64,1.1,1.1,0,0,0,1.35-.31h0l.13-.2a4.49,4.49,0,0,0,.15-2.4,5.59,5.59,0,0,0-1.92,1.25A.59.59,0,0,0,99.1,117.22Z" style="fill:#ffb500"/><path d="M98.46,98.82a3.44,3.44,0,0,1-2.17,2.52c-1.41.42,0,1.32.41,3a4.46,4.46,0,0,1-.77,3.67c-.54.81,1.27.48,2.59,2s.37,3.84,1.36,3.59a4.31,4.31,0,0,1,4,1c1.2,1.24.91-.46.3-2L99.37,99.92C99,98.87,98.75,98,98.46,98.82Z" style="fill:#ffab82"/><path d="M143.29,9.87A22.3,22.3,0,0,1,101,24Z" style="fill:#fd6f47"/><path d="M139,11.65a17.78,17.78,0,1,1-33.72,11.26Z" style="fill:#eb2100"/><path d="M127.87,25a2,2,0,1,0,3.63-1.88c-.54-1-2.7-2.35-3.34-2C127.71,21.36,127.32,24,127.87,25Zm-7.46,1.81a2,2,0,1,0,4-.67c-.2-1.17-2.07-3-2.56-3C121.16,23.34,120.21,25.68,120.41,26.84Zm-6.27.55a2.09,2.09,0,0,0,2.7-1.2c.45-1.1-.17-3.67-.63-3.86-.67-.27-2.7,1.21-3.15,2.31A2.08,2.08,0,0,0,114.14,27.39ZM134,20.49a2,2,0,1,0,2.11-3.5c-1-.61-3.54-.58-3.91,0C131.9,17.46,133,19.89,134,20.49Z" style="fill:#e86900"/><path d="M121.19,27.23a1.23,1.23,0,0,0,.37.69,1,1,0,0,0,1.5-.17,1.16,1.16,0,0,0,.18-.86,4.4,4.4,0,0,0-1.29-1.8l-.14-.11A4.4,4.4,0,0,0,121.19,27.23Zm7.36-2.1a1.13,1.13,0,0,0,.27.34,1,1,0,0,0,1.18.19,1,1,0,0,0,.49-.61,1.18,1.18,0,0,0-.09-.88,2,2,0,0,0-.47-.54h0a4.8,4.8,0,0,0-1.39-.89A4.93,4.93,0,0,0,128.55,25.13ZM114,26.84a.84.84,0,0,0,.28.18,1.09,1.09,0,0,0,1.39-.66,4.65,4.65,0,0,0-.2-2.38,4.37,4.37,0,0,0-1.72,1.6A1.12,1.12,0,0,0,114,26.84Zm20.24-6.65a1.22,1.22,0,0,0,.87.15,1,1,0,0,0,.64-.46,1.07,1.07,0,0,0-.24-1.33h0l-.2-.14a4.32,4.32,0,0,0-2.33-.25,5.4,5.4,0,0,0,1.14,1.94Z" style="fill:#ffb500"/><path d="M116.24,20.05a3.36,3.36,0,0,1,2.38,2.23c.35,1.4,1.29,0,2.93-.28a4.39,4.39,0,0,1,3.56.9c.77.56.53-1.22,2.1-2.44s3.77-.21,3.56-1.19a4.21,4.21,0,0,1,1.15-3.88c1.26-1.12-.42-.9-2-.38l-12.57,4.2C116.31,19.56,115.44,19.73,116.24,20.05Z" style="fill:#ffab82"/><path d="M142.46,68.58a5.43,5.43,0,0,1,4.77.37c3,4.46,3.11,8,1.54,12.3,2.24.67,4.43,1.32,6.17,1.82,2.41-6.14,2.37-11-3-17.62a5.08,5.08,0,0,1-1.08-3.34c.6-10.74-4.12-14.28-12.95-18.89L135,41.74l-1.12,6.54,1,.54c6.13,3.26,9.57,6,10.13,12.08a1.93,1.93,0,0,0,0,.34c.11,1.56-1.54,3.18-3.75,3.89a65.63,65.63,0,0,1-7.6,2.51c.39,1.08.81,2.21,1.21,3.31A69.35,69.35,0,0,1,142.46,68.58Z" style="fill:#759e00"/><path d="M51.14,42.51a5.1,5.1,0,0,1-1-1.44,5.46,5.46,0,0,1-.49-1.72,26.19,26.19,0,0,0-.36-2.71l-5.66,1.89c0,.14.08.28.11.43a3.07,3.07,0,0,0,.05.34c.33,1.52-1.08,3.36-3.17,4.37a69.06,69.06,0,0,1-7.19,3.54L35,50.31a70.36,70.36,0,0,1,7.11-3.38,5.42,5.42,0,0,1,4.78-.29c3.61,4,4.18,7.5,3.23,12l6.35,1C58.05,53.14,57.34,48.3,51.14,42.51Z" style="fill:#759e00"/><path d="M139.52,133.4a3.49,3.49,0,0,0,.24-1.65,2.54,2.54,0,0,1-.86.68l-.29.16c-5.66,2.43-9.67.69-15.45-3.15l-1-.66L117,132.89l2.68,1.84c6.67,4.5,11.45,7,17.87,4.77Z" style="fill:#759e00"/><path d="M71.77,38.28A3.74,3.74,0,1,1,68,34.54,3.74,3.74,0,0,1,71.77,38.28Z" style="fill:#d7948e"/><circle cx="80.53" cy="35.26" r="2.73" style="fill:#d7948e"/><path d="M97.06,37.7a4.31,4.31,0,1,1-4.31-4.31A4.31,4.31,0,0,1,97.06,37.7Z" style="fill:#d7948e"/><path d="M91.6,48.91a3.45,3.45,0,1,1-3.45-3.45A3.44,3.44,0,0,1,91.6,48.91Z" style="fill:#d7948e"/><circle cx="76.94" cy="45.46" r="3.45" style="fill:#d7948e"/><path d="M123.8,97.35a3.88,3.88,0,1,1-3.88-3.88A3.88,3.88,0,0,1,123.8,97.35Z" style="fill:#d7948e"/><path d="M134.72,92.89A2.88,2.88,0,1,1,131.84,90,2.88,2.88,0,0,1,134.72,92.89Z" style="fill:#d7948e"/><path d="M141.62,103.39a3.31,3.31,0,1,1-3.31-3.31A3.31,3.31,0,0,1,141.62,103.39Z" style="fill:#d7948e"/><circle cx="127.53" cy="104.97" r="3.45" style="fill:#d7948e"/><path d="M116.9,107a2.59,2.59,0,1,1-2.59-2.59A2.59,2.59,0,0,1,116.9,107Z" style="fill:#d7948e"/><circle cx="121.5" cy="114.16" r="3.16" style="fill:#d7948e"/><path d="M137.59,114.6A3.59,3.59,0,1,1,134,111,3.59,3.59,0,0,1,137.59,114.6Z" style="fill:#d7948e"/><path d="M162.6,40.72a3.31,3.31,0,1,1-3.3-3.31A3.31,3.31,0,0,1,162.6,40.72Z" style="fill:#d7948e"/><path d="M160,30.51a4,4,0,1,1-4-4A4,4,0,0,1,160,30.51Z" style="fill:#d7948e"/><path d="M168.64,26.35a3,3,0,1,1-3-3A3,3,0,0,1,168.64,26.35Z" style="fill:#d7948e"/><path d="M165.48,17.15a3.31,3.31,0,1,1-3.31-3.31A3.31,3.31,0,0,1,165.48,17.15Z" style="fill:#d7948e"/></g></g></svg>