<svg xmlns="http://www.w3.org/2000/svg" xmlns:xlink="http://www.w3.org/1999/xlink" viewBox="0 0 187.18 186.49"><defs><radialGradient id="radial-gradient" cx="93.59" cy="93.24" r="86.59" gradientUnits="userSpaceOnUse"><stop offset="0" stop-color="#a44a23"/><stop offset="0.53" stop-color="#9c4524"/><stop offset="1" stop-color="#913d26"/></radialGradient><radialGradient id="radial-gradient-2" cx="94.85" cy="96.03" r="105" gradientUnits="userSpaceOnUse"><stop offset="0.76" stop-color="#4f0f00"/><stop offset="0.83" stop-color="#5b1605"/><stop offset="0.95" stop-color="#7a2710"/><stop offset="1" stop-color="#892f16"/></radialGradient><linearGradient id="linear-gradient" x1="57.42" y1="25.42" x2="113.79" y2="155.04" gradientUnits="userSpaceOnUse"><stop offset="0" stop-color="#b8e245"/><stop offset="0.15" stop-color="#b1de41"/><stop offset="0.36" stop-color="#9ed136"/><stop offset="0.61" stop-color="#7ebe24"/><stop offset="0.89" stop-color="#53a20b"/><stop offset="1" stop-color="#409600"/></linearGradient><radialGradient id="radial-gradient-3" cx="529.87" cy="1234.27" r="95.83" gradientTransform="translate(583.95 -1150) rotate(45)" gradientUnits="userSpaceOnUse"><stop offset="0" stop-color="#b8e245"/><stop offset="0.13" stop-color="#b2df3e"/><stop offset="0.32" stop-color="#a1d62b"/><stop offset="0.52" stop-color="#88c90e"/><stop offset="0.97" stop-color="#409600"/></radialGradient><radialGradient id="radial-gradient-4" cx="527.73" cy="1306.21" r="118.89" gradientTransform="translate(583.95 -1150) rotate(45)" gradientUnits="userSpaceOnUse"><stop offset="0.15" stop-color="#e0ffb3"/><stop offset="0.27" stop-color="#defeac"/><stop offset="0.45" stop-color="#d7fa99"/><stop offset="0.66" stop-color="#ccf479"/><stop offset="0.89" stop-color="#bdec4e"/><stop offset="1" stop-color="#b5e837"/></radialGradient><radialGradient id="radial-gradient-5" cx="95.65" cy="96.71" r="69.49" gradientUnits="userSpaceOnUse"><stop offset="0" stop-color="#fc9f77"/><stop offset="0.13" stop-color="#fcb68f"/><stop offset="0.25" stop-color="#fcae86"/><stop offset="0.46" stop-color="#fb996e"/><stop offset="0.48" stop-color="#fb966b"/><stop offset="0.61" stop-color="#fc7950"/><stop offset="0.73" stop-color="#fd673e"/><stop offset="0.81" stop-color="#fd6138"/><stop offset="0.87" stop-color="#fd6a41"/><stop offset="0.96" stop-color="#fe815a"/><stop offset="1" stop-color="#fe8a63"/></radialGradient><radialGradient id="radial-gradient-6" cx="95.65" cy="97.73" r="57.39" gradientUnits="userSpaceOnUse"><stop offset="0.28" stop-color="#ba0000"/><stop offset="0.46" stop-color="#be0300"/><stop offset="0.65" stop-color="#cb0c00"/><stop offset="0.85" stop-color="#e01a00"/><stop offset="0.87" stop-color="#e31c00"/><stop offset="0.94" stop-color="#ec2a0c"/><stop offset="1" stop-color="#f43717"/></radialGradient><linearGradient id="linear-gradient-2" x1="104.4" y1="124.66" x2="68.76" y2="11.85" gradientUnits="userSpaceOnUse"><stop offset="0" stop-color="#ffbd94"/><stop offset="0.18" stop-color="#ffb48b"/><stop offset="0.47" stop-color="#fe9c73"/><stop offset="0.83" stop-color="#fd754c"/><stop offset="1" stop-color="#fd6138"/></linearGradient><radialGradient id="radial-gradient-7" cx="105.76" cy="105.25" r="58.43" gradientUnits="userSpaceOnUse"><stop offset="0.35" stop-color="#ffd9a8"/><stop offset="0.5" stop-color="#ffdbac"/><stop offset="0.63" stop-color="#ffe0b7"/><stop offset="0.77" stop-color="#ffe8ca"/><stop offset="0.9" stop-color="#fff3e4"/><stop offset="1" stop-color="#fff"/></radialGradient><linearGradient id="linear-gradient-3" x1="99.2" y1="36.58" x2="120.37" y2="132.49" gradientUnits="userSpaceOnUse"><stop offset="0" stop-color="#ff8a38"/><stop offset="0.51" stop-color="#e85d1c"/><stop offset="1" stop-color="#d12e00"/></linearGradient><linearGradient id="linear-gradient-4" x1="99.85" y1="39.54" x2="120.16" y2="131.55" gradientUnits="userSpaceOnUse"><stop offset="0" stop-color="#ffc46e"/><stop offset="0.51" stop-color="#ff9741"/><stop offset="1" stop-color="#ff6912"/></linearGradient><linearGradient id="linear-gradient-5" x1="115.28" y1="62.23" x2="115.28" y2="132.14" gradientUnits="userSpaceOnUse"><stop offset="0" stop-color="#ffd597"/><stop offset="0.69" stop-color="#ffaf6a"/><stop offset="1" stop-color="#ff9c54"/></linearGradient><radialGradient id="radial-gradient-8" cx="114.97" cy="126.79" r="37.91" gradientUnits="userSpaceOnUse"><stop offset="0.49" stop-color="#350300"/><stop offset="0.55" stop-color="#3c0b05"/><stop offset="0.66" stop-color="#4f2113"/><stop offset="0.79" stop-color="#6d4629"/><stop offset="0.93" stop-color="#977849"/><stop offset="1" stop-color="#ab8f57"/></radialGradient><radialGradient id="radial-gradient-9" cx="107.86" cy="118.28" r="29.04" gradientUnits="userSpaceOnUse"><stop offset="0" stop-color="#592b00"/><stop offset="0.5" stop-color="#572a00"/><stop offset="0.67" stop-color="#502500"/><stop offset="0.8" stop-color="#451d00"/><stop offset="0.9" stop-color="#341100"/><stop offset="0.99" stop-color="#1e0200"/><stop offset="1" stop-color="#1c0000"/></radialGradient></defs><g id="Layer_2" data-name="Layer 2"><g id="Layer_1-2" data-name="Layer 1"><path d="M185.32,92c-1.68-2.4-1.84-5.81-.45-9.37,1.55-4,.31-8.16-3.32-11.23-1.83-1.55-1.34-4.55-1.23-5.14,1.72-8.57-2.73-12.75-5.53-14.47s-4.11-4.58-3.78-8.59a9.52,9.52,0,0,0-2.55-7.07,9,9,0,0,0-5.79-3.27c-2-.09-3.94-2.29-4.23-4.11-.42-2.68-2.62-5.67-7.52-6-.9-.07-1.32-.74-2.29-2.62A15.06,15.06,0,0,0,143,13.43a16.21,16.21,0,0,0-9.73-2.29l-.95,0a4.55,4.55,0,0,1-1.76-.24,4.11,4.11,0,0,1-1.63-1.55,8.84,8.84,0,0,0-3.76-3.2,6.86,6.86,0,0,0-2.88-.66,9.57,9.57,0,0,0-2.66.46,2.65,2.65,0,0,1-1.66.19A5.84,5.84,0,0,1,116.55,5a11.21,11.21,0,0,0-7.77-3.8,10.51,10.51,0,0,0-6.15,1.19,8,8,0,0,1-3.6,1,3,3,0,0,1-1.73-.77,6.6,6.6,0,0,0-4-1.44,8,8,0,0,0-2.23.34l-.73.24a5.44,5.44,0,0,1-1.64.42.75.75,0,0,1-.33-.06A13.41,13.41,0,0,0,81.84,0c-3,0-5.3,1.59-7.22,3.15a8.86,8.86,0,0,1-9.36,1.56,8.56,8.56,0,0,0-2.82-.47c-4.38,0-8.41,3.13-9.28,5.94-.61,1.94-3.2,3.22-5,3-.22,0-.45,0-.67,0-3.19,0-5.82,2.17-7,5.8-.29.85-1,1.09-3.11,1.55a15,15,0,0,0-7.85,3.75,16.12,16.12,0,0,0-4.67,8.84,7.44,7.44,0,0,1-.9,2.57A4.05,4.05,0,0,1,22,36.88a8.8,8.8,0,0,0-4.05,2.84A7.2,7.2,0,0,0,16.32,45c0,.87,0,1.33-.24,1.66a5.84,5.84,0,0,1-1.51,1.08,11.16,11.16,0,0,0-5.64,6.56,9.77,9.77,0,0,0-.25,6.12,5.58,5.58,0,0,1,0,3.61,4.72,4.72,0,0,1-1.87,2.42l-.23.19a8.59,8.59,0,0,0-2.34,9.8c1,2.81.34,6.65-1.69,9.56C-.09,89.72-.76,96.4.92,101.88A24.71,24.71,0,0,0,3.3,107c1.82,3.23,3.71,6.57,3.19,13.92-.47,6.61,1.45,11,6,13.83,2.88,1.77,4.11,4.58,3.78,8.59a9.54,9.54,0,0,0,2.55,7.07,8.94,8.94,0,0,0,5.79,3.26c2,.1,3.94,2.29,4.23,4.12.42,2.68,2.62,5.66,7.53,6,.89.06,1.31.73,2.28,2.62a15,15,0,0,0,5.62,6.64A16,16,0,0,0,54,175.34h1a4.76,4.76,0,0,1,1.76.23,4.11,4.11,0,0,1,1.63,1.55,8.78,8.78,0,0,0,3.76,3.2A6.71,6.71,0,0,0,65,181a9.22,9.22,0,0,0,2.66-.46,2.72,2.72,0,0,1,1.66-.19,6.09,6.09,0,0,1,1.43,1.19,11.2,11.2,0,0,0,7.77,3.8,10.35,10.35,0,0,0,6.15-1.19,8,8,0,0,1,3.6-1,3,3,0,0,1,1.73.76,6.54,6.54,0,0,0,4,1.45,8.4,8.4,0,0,0,2.23-.34c.21-.06.46-.15.73-.25a5.44,5.44,0,0,1,1.64-.42.74.74,0,0,1,.33.07,13.41,13.41,0,0,0,6.54,2.08c3,0,5.3-1.6,7.22-3.15a8.89,8.89,0,0,1,9.36-1.57,8.31,8.31,0,0,0,2.82.48c4.38,0,8.41-3.13,9.28-5.94.61-1.95,3.2-3.23,5.05-3.05a5,5,0,0,0,.67,0c3.19,0,5.82-2.17,7-5.8.29-.86,1-1.09,3.11-1.55a15,15,0,0,0,7.85-3.76,16.1,16.1,0,0,0,4.67-8.83,7.36,7.36,0,0,1,.9-2.57,4,4,0,0,1,1.91-1.19,8.71,8.71,0,0,0,4-2.83,7.21,7.21,0,0,0,1.59-5.31c0-.86,0-1.33.24-1.65a5.84,5.84,0,0,1,1.51-1.08,11.22,11.22,0,0,0,5.64-6.56,10.5,10.5,0,0,0,.41-6.25,8,8,0,0,1-.07-3.65,3.18,3.18,0,0,1,1.15-1.71c.27-.26.54-.53.8-.83,2.83-2.74,2.66-6.72,2.2-9.89-.39-2.6,1-4.33,2.29-6,.21-.27.41-.52.59-.77C187.6,100.63,187.86,95.58,185.32,92Z" style="fill:#a64a30"/><path d="M183.22,92.82c-2.17-3.1-2-7.12-.62-10.68s0-7-2.86-9.44c-2.1-1.79-2.05-4.81-1.71-6.52,1.38-6.89-1.51-10.75-4.81-12.78s-4.82-5.33-4.44-9.89-4.06-8.5-6.85-8.63-5.2-2.92-5.58-5.33-2.41-4.44-6.09-4.69-2.92-6-8.5-9.39S132,14.2,129.58,13.06s-2-3.17-5.33-4.7-5.07.89-7.1,0S114,4,108.52,3.54c-5-.38-5.18,2-9.39,2.16-2.79.12-3.3-3.14-7.61-1.91-.93.27-2.6,1.15-3.82.46-5.26-3-8.11-2.21-12,.92A10.23,10.23,0,0,1,65.05,7C60.72,5.45,55.8,8.75,55,11.42s-4.14,4.29-6.57,4.05-4.9,1.21-6.08,4.71S35.81,21.5,31.09,26s-3.7,9.13-5.41,11.18-3.59,1.16-5.89,4-.42,5.13-1.79,6.87-5.07,2-6.85,7.13c-1.62,4.69,1.08,5.64-.29,9.63a6.42,6.42,0,0,1-2.55,3.26,7,7,0,0,0-1.85,8c1.23,3.41.31,7.74-1.86,10.83s-3,9.2-1.37,14.43c1.75,5.71,6.38,8.14,5.58,19.39-.49,7,2,10.29,5.28,12.32s4.83,5.33,4.45,9.9,4.06,8.5,6.85,8.63,5.2,2.91,5.58,5.32,2.41,4.45,6.09,4.7,2.92,6,8.5,9.39,9.77,1.27,12.18,2.41,2,3.17,5.33,4.69,5.07-.89,7.1,0,3.19,4.4,8.63,4.82c5,.39,5.18-2,9.39-2.15,2.79-.13,3.3,3.14,7.61,1.9.93-.26,2.6-1.14,3.82-.46,5.26,3,8.11,2.22,12-.92a10.23,10.23,0,0,1,10.69-1.79c4.33,1.52,9.25-1.78,10.08-4.45s4.14-4.3,6.57-4.06,4.9-1.21,6.08-4.7,6.51-1.32,11.23-5.85,3.7-9.14,5.41-11.18,3.59-1.16,5.89-4,.42-5.13,1.8-6.87,5.06-2,6.84-7.13c1.62-4.69-.6-5.51.29-9.63.34-1.59,1.38-2.16,2.3-3.23,2.36-2.24,2.2-5.7,1.78-8.56-.54-3.68,1.75-5.94,3.14-7.8S185.39,95.91,183.22,92.82Z" style="fill:#78290f"/><path d="M178.85,92.84c-2.06-3-1.91-6.77-.59-10.15s0-6.67-2.72-9c-2-1.7-1.95-4.58-1.62-6.2,1.31-6.56-1.44-10.22-4.58-12.16s-4.58-5.06-4.22-9.41-3.86-8.09-6.52-8.21-4.95-2.77-5.31-5.06-2.29-4.23-5.79-4.47-2.78-5.67-8.09-8.93-9.29-1.21-11.58-2.3-1.94-3-5.07-4.46-4.83.84-6.76,0-3-4.19-8.21-4.59c-4.71-.36-4.92,1.88-8.93,2.05-2.66.12-3.14-3-7.24-1.81-.88.25-2.47,1.09-3.63.44-5-2.82-7.72-2.11-11.38.87a9.73,9.73,0,0,1-10.17,1.71c-4.11-1.45-8.8,1.7-9.59,4.24s-3.94,4.08-6.25,3.85-4.66,1.15-5.78,4.48S38.63,25,34.13,29.31,30.62,38,29,39.94s-3.41,1.1-5.6,3.77S23,48.6,21.68,50.25,16.86,52.12,15.17,57c-1.54,4.47,1,5.37-.28,9.16a6.15,6.15,0,0,1-2.42,3.11A6.69,6.69,0,0,0,10.7,77c1.18,3.23.3,7.35-1.76,10.3S6.12,96,7.64,101c1.65,5.43,6.06,7.75,5.3,18.45-.47,6.67,1.89,9.79,5,11.72s4.59,5.07,4.22,9.41,3.87,8.09,6.52,8.21,4.95,2.78,5.31,5.07,2.3,4.22,5.8,4.47,2.77,5.67,8.08,8.93,9.29,1.2,11.59,2.29,1.93,3,5.07,4.46,4.82-.84,6.76,0,3,4.19,8.2,4.59c4.71.37,4.93-1.87,8.93-2,2.66-.12,3.14,3,7.24,1.81.88-.25,2.48-1.09,3.63-.44,5,2.82,7.72,2.11,11.38-.87a9.77,9.77,0,0,1,10.18-1.71c4.11,1.45,8.8-1.69,9.58-4.23s3.94-4.09,6.25-3.86,4.67-1.15,5.78-4.47,6.19-1.26,10.69-5.57,3.51-8.69,5.15-10.63,3.4-1.11,5.6-3.78.4-4.88,1.7-6.54,4.82-1.87,6.52-6.78c1.54-4.46-.57-5.24.27-9.16.32-1.51,1.32-2.05,2.19-3.07,2.24-2.13,2.1-5.42,1.7-8.14-.52-3.5,1.66-5.65,3-7.42S180.91,95.78,178.85,92.84Z" style="fill:url(#radial-gradient)"/><path d="M169.41,146.77a7.21,7.21,0,0,0,1.59-5.31c0-.86,0-1.33.24-1.65a5.84,5.84,0,0,1,1.51-1.08,11.22,11.22,0,0,0,5.64-6.56,10.5,10.5,0,0,0,.41-6.25,8,8,0,0,1-.07-3.65,3.18,3.18,0,0,1,1.15-1.71c.27-.26.54-.53.8-.83,2.83-2.74,2.66-6.72,2.2-9.89-.39-2.6,1-4.33,2.29-6a13.34,13.34,0,0,0-7.82-14.32c-5.5-2.5-4-6.5-4-14s-3-12-7.5-12.5-3.5-6-5.27-13.54-16.23-8-16.23-8S38,148.9,33,154.61c-1.5,1.73-1.84,4.56-.95,7.88a9.24,9.24,0,0,0,4.35,1.3c.89.06,1.31.73,2.28,2.62a15,15,0,0,0,5.62,6.64A16,16,0,0,0,54,175.34h1a4.76,4.76,0,0,1,1.76.23,4.11,4.11,0,0,1,1.63,1.55,8.78,8.78,0,0,0,3.76,3.2A6.71,6.71,0,0,0,65,181a9.22,9.22,0,0,0,2.66-.46,2.72,2.72,0,0,1,1.66-.19,6.09,6.09,0,0,1,1.43,1.19,11.2,11.2,0,0,0,7.77,3.8,10.35,10.35,0,0,0,6.15-1.19,8,8,0,0,1,3.6-1,3,3,0,0,1,1.73.76,6.54,6.54,0,0,0,4,1.45,8.4,8.4,0,0,0,2.23-.34c.21-.06.46-.15.73-.25a5.44,5.44,0,0,1,1.64-.42.74.74,0,0,1,.33.07,13.41,13.41,0,0,0,6.54,2.08c3,0,5.3-1.6,7.22-3.15a8.89,8.89,0,0,1,9.36-1.57,8.31,8.31,0,0,0,2.82.48c4.38,0,8.41-3.13,9.28-5.94.61-1.95,3.2-3.23,5.05-3.05a5,5,0,0,0,.67,0c3.19,0,5.82-2.17,7-5.8.29-.86,1-1.09,3.11-1.55a15,15,0,0,0,7.85-3.76,16.1,16.1,0,0,0,4.67-8.83,7.36,7.36,0,0,1,.9-2.57,4,4,0,0,1,1.91-1.19A8.71,8.71,0,0,0,169.41,146.77Z" style="fill:url(#radial-gradient-2)"/><path d="M111.29,156.13c-2.85-3.3-29.13-19.9-44-10.11s-7,24.4-4.84,21.54,7-8.35,7-8.35,9.67,9.23,12,6.7,6-6,6.38-6.37,7.47-.66,7.47-.66c1.32,5.06,8.47,11.32,10.23,9.56S114.15,159.43,111.29,156.13Zm55-27.52s-7.8-10.85-4.83-15.8,13.23-8,14.51-9.13-.55-3.51-1.76-4.28-17.81,1.1-19,3.41-8.8,29.9-5.94,30.34,11.87,5.47,13.37,5.13S166.26,128.61,166.26,128.61ZM83.3,8.53c-.77-1.21-3.19-3-4.28-1.77s-4.19,11.55-9.13,14.52-15.8-4.84-15.8-4.84-9.34,2.17-9.67,3.67,4.69,10.51,5.13,13.37,28-4.73,30.34-5.93S84.07,9.74,83.3,8.53ZM26.57,71.41c-3.3-2.86-10.55,4-12.31,5.71S18.77,86,23.82,87.35c0,0-.33,7.14-.66,7.47s-3.84,4.07-6.37,6.38,6.71,12,6.71,12-5.5,4.84-8.36,7,11.76,10,21.55-4.84S29.87,74.27,26.57,71.41Z" style="fill:#0a5c00"/><path d="M161.8,138c2.89,1.89,8-6.44,9.65-12.3s-4.12-.13-3.91-9.89,4.68-14.77,7.58-12.37,3.47-12.49-2.81-15.77-6.57-13.06-4.14-17.61-2.16-3.16-7.91-5.91-3.4-10.39.32-14.65c1.78-2,0-8-10-18C142.25,23.2,135.11,20.3,133.13,22c-4.26,3.73-11.9,6.06-14.65.32s-1.35-10.33-5.9-7.9S98.24,16.58,95,10.3,76.79,4.6,79.19,7.5s-2.6,7.38-12.36,7.58-4-5.52-9.9-3.9-14.19,6.75-12.3,9.64S53.5,24.7,51.32,29s-8,7.46-10.93,4-8.34-3.35-8.71,1.27-.45,10-5.52,12.43S13.58,55.59,14.5,60.51s5.12-.87,5.45,9.94S14.17,74.64,13.5,78s-1.15,12.31,3.31,15.28,5.64,7.63,1.52,7.5-4.38,8.09-.21,9.76,3.66,10.15.57,10-3.91-1.92-5.35,1.64-.8,7.17,1.06,9-3.51,3-3.51,3-.82,6.65,12.72,20.19L28.23,159c13.53,13.53,20.2,12.71,20.2,12.71s1.11-5.36,3-3.5,5.48,2.48,9,1.05,1.73-2.26,1.63-5.35,8.37-3.6,10.05.57,9.89,3.91,9.76-.21,4.54-2.94,7.5,1.52,12,4,15.28,3.31-3.3-6.79,7.51-6.45,5,4.52,9.94,5.45,11.37-6.59,13.78-11.66,7.81-5.15,12.43-5.52,4.71-5.77,1.27-8.71-.27-8.75,4-10.93S158.92,136.1,161.8,138Z" style="fill:url(#linear-gradient)"/><path d="M148.14,148.76c1.12-.09,1.42-.58,1.55-.94a4,4,0,0,0-1.52-3.93,6.31,6.31,0,0,1-2.12-6.07,12.56,12.56,0,0,1,6.58-8.47,5,5,0,0,1,6.16,1,15.94,15.94,0,0,1,2.27,3.2,11.44,11.44,0,0,0,1.77,2.51c1.54-.58,5.1-5.81,6.51-10.92a7.59,7.59,0,0,0,.17-.75,6.08,6.08,0,0,1-2.17-1.34c-1.43-1.44-2.07-3.75-2-7.27.16-7.25,2.59-13,6.19-14.65a4.67,4.67,0,0,1,3.39-.24c.35-2.54-.15-8-2.66-10.54a4.12,4.12,0,0,0-1-.73,11,11,0,0,1-2.69-2c-4.72-4.73-5-13.6-2.37-18.6.12-.24.21-.42.27-.57-.43-.14-1.12-.32-1.66-.46a27.57,27.57,0,0,1-5.53-1.88,8.89,8.89,0,0,1-2.38-1.66c-4.12-4.12-2.22-11.57,2-16.4.39-.6-.1-5.17-9.91-15-7.91-7.91-13.41-9.59-14.55-9.31-4.82,4.16-12.21,6-16.31,1.92a8.73,8.73,0,0,1-1.66-2.38,28,28,0,0,1-1.88-5.53c-.14-.53-.31-1.21-.47-1.65l-.56.26c-5,2.67-13.87,2.35-18.6-2.37a11.33,11.33,0,0,1-2-2.69,3.81,3.81,0,0,0-.72-1c-2.51-2.51-8-3-10.54-2.66a4.66,4.66,0,0,1-.24,3.39c-1.65,3.6-7.4,6-14.65,6.19-3.52.08-5.83-.56-7.27-2a6.23,6.23,0,0,1-1.34-2.17c-.17,0-.42.08-.75.17-5.12,1.41-10.34,5-10.92,6.51a11.35,11.35,0,0,0,2.51,1.77,15.94,15.94,0,0,1,3.2,2.27,5,5,0,0,1,1,6.16,12.53,12.53,0,0,1-8.48,6.58,6.35,6.35,0,0,1-6.07-2.12,4,4,0,0,0-3.92-1.52c-.36.13-.85.43-.94,1.55l-.06.84c-.34,4.46-.8,10.57-6.7,13.38-5.2,2.48-11,8.23-10.45,11.4a1.89,1.89,0,0,0,.21.67l.47.15a5.61,5.61,0,0,1,2.55,1.39c1.45,1.46,2.13,3.87,2.26,8.07.12,3.81-.51,6.22-2,7.59a5.52,5.52,0,0,1-4.59,1.17h-.06c-.58,3.7-.36,9.52,1.94,11.83a4.7,4.7,0,0,0,.56.46,13.72,13.72,0,0,1,2.23,1.82c2.42,2.41,3.36,5.19,2.47,7.26-.33.76-1.43,2.52-4.46,2.43-.13,0-.39,0-.67.62a4.62,4.62,0,0,0,.72,4.51,2.06,2.06,0,0,0,.62.42,5.82,5.82,0,0,1,2,1.35c2.59,2.58,2.88,7.22,1.66,10a4.27,4.27,0,0,1-4,2.87,11.82,11.82,0,0,1-2.66-.41l-.25-.06a6.32,6.32,0,0,0-.34.74c-1.15,2.86-.58,5.52.57,6.67a3.14,3.14,0,0,1,.91,3.17c-.44,1.47-2,2.39-3.58,3,.61,2.42,2.94,8.1,11.88,17l4.62,4.62c8.91,8.91,14.59,11.25,17.05,11.87.57-1.62,1.49-3.13,3-3.57a3.13,3.13,0,0,1,3.16.91c1.15,1.15,3.81,1.72,6.67.57a6.32,6.32,0,0,0,.74-.34l-.06-.25a11.73,11.73,0,0,1-.41-2.66,4.27,4.27,0,0,1,2.87-4c2.81-1.22,7.45-.93,10,1.66a5.82,5.82,0,0,1,1.35,2,1.89,1.89,0,0,0,.42.62,4.61,4.61,0,0,0,4.5.72c.65-.28.64-.54.63-.67-.09-3,1.67-4.13,2.43-4.46,2.07-.89,4.85,0,7.26,2.47a14.31,14.31,0,0,1,1.83,2.23,2.93,2.93,0,0,0,.45.55c2.31,2.31,8.13,2.53,11.83,1.95v0a5.54,5.54,0,0,1,1.17-4.6c1.37-1.46,3.78-2.09,7.59-2,4.2.13,6.62.81,8.07,2.26a5.52,5.52,0,0,1,1.39,2.55,3.78,3.78,0,0,0,.18.5,3.37,3.37,0,0,0,.64.18c3.18.6,8.92-5.24,11.4-10.44,2.81-5.91,8.92-6.37,13.37-6.71Z" style="fill:url(#radial-gradient-3)"/><path d="M167.49,104s-4.24,8.53-2.59,13.58c1.23,3.8-8.16-3.73-16.75-7-8.1-3.09-17.07-5.69-8.47-6.26s17.13-.62,21.11-.56S168.46,102.22,167.49,104Z" style="fill:#85c70d"/><path d="M152.63,128.7s-6.13,2.3-7,8.23c-.57,3.95-2.58.19-16-8-7.41-4.51-13.17-8.41-4.64-7.22,7.23,1,15.68,2.06,19.57,2.91C150.67,126,154.33,127.6,152.63,128.7Z" style="fill:#92ce19"/><path d="M115.6,159.93c-2.51-.84-6.88-.87-8.46.14s-1.43,1.43-4.44-5.3S89.94,136,97.82,141a89,89,0,0,1,17.92,15.63C118,159.5,119.46,161.21,115.6,159.93Z" style="fill:#98d41c"/><path d="M69,148a78.53,78.53,0,0,1,2.44,10.46c.29,1.43-1.43-.28-4.44.14s-5.17,2-4.73-1.57S62.52,128.56,69,148Z" style="fill:#9fd821"/><path d="M164.09,80.74c1.18,5.17,3.53,6.25,1.36,6.8s-13.6,2.54-22.49,4.89-24.75,8.25-10.79-1.36A184.51,184.51,0,0,1,161,74.93C163.36,73.85,163,75.94,164.09,80.74Z" style="fill:#92ce19"/><path d="M154.12,58.62a9.23,9.23,0,0,0,1.54,5.52c.9,1.09.72,2-2.27,3s-13.42,5.62-18.77,7.7-15.05,9.25-6.44.64,22.94-18.59,24.58-19.31S154.11,56.62,154.12,58.62Z" style="fill:#92ce19"/><path d="M79.2,15.71S70.67,20,65.61,18.3c-3.79-1.23,3.73,8.16,7,16.75,3.09,8.1,5.69,17.07,6.26,8.47s.62-17.13.56-21.11S81,14.75,79.2,15.71Z" style="fill:#85c70d"/><path d="M54.5,30.57s-2.3,6.13-8.23,7c-4,.57-.19,2.58,8,16,4.51,7.41,8.41,13.18,7.22,4.64-1-7.23-2.06-15.68-2.91-19.57C57.23,32.54,55.6,28.87,54.5,30.57Z" style="fill:#92ce19"/><path d="M23.28,67.61c.83,2.5.86,6.87-.15,8.45s-1.43,1.44,5.31,4.45,18.77,12.75,13.75,4.87A89,89,0,0,0,26.57,67.46C23.71,65.17,22,63.73,23.28,67.61Z" style="fill:#98d41c"/><path d="M35.17,114.19a80.2,80.2,0,0,0-10.46-2.44c-1.43-.29.29,1.43-.14,4.44s-2,5.17,1.57,4.74S54.64,120.68,35.17,114.19Z" style="fill:#9fd821"/><path d="M102.46,19.11c-5.17-1.18-6.25-3.53-6.8-1.36s-2.53,13.6-4.89,22.49S82.52,65,92.13,51a185,185,0,0,0,16.14-28.84C109.36,19.84,107.27,20.21,102.46,19.11Z" style="fill:#92ce19"/><path d="M124.59,29.08a9.17,9.17,0,0,1-5.53-1.54c-1.09-.91-2-.72-3,2.27s-5.62,13.42-7.7,18.77-9.25,15.05-.64,6.44S126.31,32.08,127,30.45,126.58,29.09,124.59,29.08Z" style="fill:#92ce19"/><path d="M125.22,146.35c-.72-3.86-6-8.88-9.88-11.89s5.15-3.43,12.89-.85,8.16,1.28,2.15-1-13.9-2.43-17.62-2.43-7.74-2.29-14.47-4.73S76.8,122,80.24,119.71a39.27,39.27,0,0,1,27.36-5.3c13,2.44,18.48,5.59,24.92,5.73S147.71,123,144,121s-10.31-2.58-13.75-2.87-11-1.85-10-3.43,8.45-4.15,14.75-4.15,7.73-1.15-.14-1.58-12,2-15.33,3.29-4.44,1-9.6-.14-19-.72-16.76-2.44,9.46-4.87,16.19-6.16,17.76-2.86,11.6-3a84.85,84.85,0,0,0-18.48,2.14c-5.44,1.15-5.87.15,1-5.58s16.18-7.3,22.2-8.16,9.16-3.15,14.18-7.59,4.29-5.27-.15-1.41-9.06,6.47-14.07,7.47-8.42.81-6.12-3.77,5.44-9.45,8.59-12.32-1.43-.58-4.73,3.29-5.64,9.5-7.22,11.94-6,3.16-11.2,6.31-5.78.8-2.63-2.35,8-9.74,13.46-13.46,7.56-6.69,10.24-11.84,9.27-7,14.94-9.17,2.16-1.75-1.34-.52-8,2.48-4.53-2.06,3.71-6.38.82-2.47-4.43,6.08-6.8,8.24a20.81,20.81,0,0,0-6.18,8.45c-1.44,3.92-6.24,5.68-10.37,9.39S100.45,88.88,99,88.47c-.26-.07-.61-.17-1-.24-.39-.45-.37-1.17.39-2.13,1.41-1.76,10.17-11.58,13.89-15.47s1.5-3.1-1-.62S98.12,83.54,96.62,84.51c-1.17.76-2,.92-2.47.15a8.89,8.89,0,0,0-.3-1.34c-.41-1.44,7.72-9.41,11.43-13.53s5.47-8.93,9.39-10.37a20.63,20.63,0,0,0,8.44-6.19c2.17-2.36,4.33-3.91,8.25-6.79s2.06-2.68-2.48.82-3.29-1-2.06-4.53,1.65-7-.51-1.34-4,12.26-9.17,14.94S109,61.12,105.3,66.57,95,76.88,91.84,80s-5.51,2.52-2.36-2.64,3.88-9.62,6.32-11.19,8.07-3.93,11.93-7.23,6.16-7.87,3.3-4.72-7.74,6.3-12.32,8.59-4.77-1.11-3.77-6.12,3.6-9.63,7.46-14.07,3-5.16-1.4-.15-6.73,8.17-7.59,14.18S91,72,85.25,78.88s-6.74,6.45-5.59,1a84.06,84.06,0,0,0,2.15-18.47c-.14-6.16-1.72,4.86-3,11.6S74.36,86.9,72.64,89.19s-1.29-11.6-2.43-16.75-1.43-6.31-.14-9.6,3.72-7.45,3.29-15.33-1.58-6.44-1.58-.14-2.57,13.75-4.15,14.75-3.15-6.59-3.44-10-.86-10-2.86-13.76.71,5,.86,11.46,3.29,11.89,5.73,24.93a39.32,39.32,0,0,1-5.3,27.36c-2.29,3.43-3.3-11.32-5.73-18S52.16,73.3,52.16,69.57,52,58,49.73,52s-3.59-5.58-1,2.15S50.87,70.86,47.86,67s-8-9.17-11.88-9.88,3.72.28,12.31,14,11.36,32,7.65,38.14-4.63,2.78-5.25-2.78-5.56-13-10.2-15.77.93,2.17,5.26,9,3.6,16.79-2.58,23.8c-5,5.64-20.64,15.55-26.55,19.2a66.23,66.23,0,0,0,8.53,10.15l4.62,4.62a67.81,67.81,0,0,0,9.82,8.31c3.61-5.86,13.58-21.62,19.24-26.62,7-6.18,17-6.9,23.8-2.58s11.74,9.89,9,5.26-10.2-9.58-15.76-10.2-9-1.55-2.78-5.26,24.38-.94,38.13,7.66S125.93,150.22,125.22,146.35Z" style="fill:url(#radial-gradient-4)"/><path d="M34.3,161.69c5.2-7.05,10.49-14.3,28.29-32.83,20.94-21.8.89-4.82-6.44,2.51s-4,2.07,11-14.06C75.82,108,82.41,102,81.5,101.09,80.38,100,77,103.9,65.65,114.47c-16.13,15-22,19-14.7,11.7s23.86-27,2.51-6.45C35.41,137.07,28.09,142.52,20.7,148c1.26,1.49,2.73,3.08,4.45,4.81l4.62,4.62C31.39,159.08,32.9,160.47,34.3,161.69Z" style="fill:#bbe154"/><path d="M168,96.71A72.38,72.38,0,1,1,95.65,24.33,72.39,72.39,0,0,1,168,96.71Z" style="fill:#ff7d40"/><path d="M167,96.71A71.38,71.38,0,1,1,95.65,25.33,71.38,71.38,0,0,1,167,96.71Z" style="fill:#f82100"/><path d="M165.14,96.71A69.49,69.49,0,1,1,95.65,27.22,69.49,69.49,0,0,1,165.14,96.71Z" style="fill:url(#radial-gradient-5)"/><path d="M113.51,39.47c-4.92-1.07-9.46-1.12-9.86,2.2s-2.08,17-3.22,29.44c.5,4.1,2.89,6,4,2.33,1.31-4.46,4.24-11.86,5.49-7.94s3.8,6.68,7,6.42,2.42,1.49,2.57,3.84a16.36,16.36,0,0,0,1.31,6.37,16.3,16.3,0,0,0,4.81,4.37c1.93,1.33,3.84,1.58,2,4.18s-.79,6.2,1.95,9.28-5.13,1.82-9.63.67c-3.64-.93-3.32,1.94-.26,4.43,11.47,5.27,24.37,10.7,27.64,12.08s5.63-3.29,7.15-8.56a60,60,0,0,0-40.9-69.11ZM139.3,131c-2.86-2.13-14.17-10.61-24.56-17.88-3.53-1.27-6-.11-3.45,2.52,3.23,3.34,8.22,9.55,4.18,8.7s-7.68,0-9,2.9-2.5,1.36-4.61.34a16.31,16.31,0,0,0-6.18-2,16.31,16.31,0,0,0-6.18,2c-2.12,1-3.27,2.56-4.61-.34s-5-3.76-9-2.9,1-5.36,4.18-8.7c2.59-2.68,0-3.83-3.65-2.45C66,120.47,54.75,128.89,51.9,131c-2.64,2-.43,5.81,2.86,9.5a59.91,59.91,0,0,0,81.1.64C139.47,137.29,142.1,133.11,139.3,131ZM71.43,100.63c-4.5,1.15-12.36,2.42-9.63-.67s3.8-6.68,2-9.28,0-2.85,2-4.18a16.46,16.46,0,0,0,4.82-4.37,16.53,16.53,0,0,0,1.3-6.37c.16-2.35-.61-4.11,2.58-3.84s5.73-2.49,7-6.42S85.59,69,86.9,73.44c1.08,3.68,3.46,1.79,4-2.26-1.14-12.45-2.81-26-3.23-29.51-.4-3.32-5-3.27-9.86-2.2a59.94,59.94,0,0,0-40.64,70.28c1.52,4.77,3.73,8.69,6.79,7.39,3.29-1.39,16.34-6.88,27.87-12.18C74.75,102.49,75,99.71,71.43,100.63Z" style="fill:#ff8d69"/><path d="M112.89,41.47c-4.74-1-9.13-1.08-9.52,2.13S101.36,60,100.26,72c.49,4,2.8,5.81,3.85,2.25,1.26-4.31,4.09-11.46,5.3-7.66s3.67,6.44,6.75,6.19,2.33,1.44,2.48,3.71a15.94,15.94,0,0,0,1.26,6.14,15.76,15.76,0,0,0,4.65,4.23c1.87,1.28,3.7,1.52,1.91,4s-.76,6,1.88,9-5,1.76-9.3.65c-3.51-.9-3.2,1.88-.24,4.28,11.08,5.08,23.53,10.33,26.69,11.67s5.43-3.19,6.9-8.27a58.55,58.55,0,0,0,1.14-11.47A57.91,57.91,0,0,0,112.89,41.47Zm24.91,88.41c-2.76-2.07-13.69-10.25-23.72-17.27-3.41-1.22-5.78-.11-3.33,2.43,3.12,3.23,7.93,9.22,4,8.4s-7.42,0-8.72,2.8-2.41,1.32-4.45.33a16,16,0,0,0-6-1.95,15.91,15.91,0,0,0-6,1.95c-2,1-3.15,2.47-4.45-.33s-4.82-3.62-8.72-2.8.92-5.17,4-8.4c2.5-2.59,0-3.69-3.53-2.36-10,7-20.86,15.14-23.61,17.2-2.56,1.9-.42,5.61,2.76,9.16a57.84,57.84,0,0,0,78.31.62C138,135.92,140.5,131.89,137.8,129.88ZM72.27,100.53c-4.35,1.11-11.94,2.33-9.3-.65s3.67-6.44,1.88-9,.05-2.75,1.91-4a15.88,15.88,0,0,0,4.65-4.23,15.76,15.76,0,0,0,1.26-6.14c.15-2.27-.59-4,2.48-3.71s5.54-2.4,6.75-6.19,4,3.35,5.3,7.66c1,3.55,3.34,1.72,3.84-2.19-1.1-12-2.71-25.13-3.11-28.49s-4.78-3.15-9.53-2.13a57.89,57.89,0,0,0-39.24,67.87c1.47,4.6,3.6,8.39,6.56,7.14,3.18-1.35,15.78-6.65,26.91-11.77C75.47,102.33,75.73,99.64,72.27,100.53Z" style="fill:url(#radial-gradient-6)"/><path d="M120.85,86a12.22,12.22,0,0,1-2.24-2.53l-.09-.16a17.38,17.38,0,0,1-1.41-6.73c0-.47,0-.92,0-1.34a9.34,9.34,0,0,0,0-.94,3.41,3.41,0,0,0-.78,0c-3.47.28-6.42-2.14-8-6.41a26.67,26.67,0,0,0-1.65,3.73c-.24.71-.49,1.48-.7,2.21-.09.28-.19.56-.31.84-.76,2.61-2.21,3-3,3-1.93,0-3.44-2.16-3.85-5.5l0-.17,0-.16c1-11.31,2.53-23.7,3-27.77l.36-2.64c.19-1.57,1.26-4.2,6.3-4.2a26.36,26.36,0,0,1,5.41.68l.14,0A61.13,61.13,0,0,1,153.1,74.7c.5,1.3,1.22,3.42,4.38,1.54,2-1.21,3-2.38,2.2-4.53A68.73,68.73,0,1,0,34,127c2.53,4.83,23.84-8,49.86-22.3a225.3,225.3,0,0,1,33.81-14.84c1.12-.39,3.06-1.07,3.69-2C121.79,87.26,121.2,86.34,120.85,86ZM75,74.35a3.41,3.41,0,0,0-.78,0,9.34,9.34,0,0,0,0,.94c0,.42,0,.87,0,1.34a17.22,17.22,0,0,1-1.42,6.73l-.09.16a17.24,17.24,0,0,1-5.06,4.65c-.39.27-.78.49-1.14.71a7.37,7.37,0,0,0-.79.49,3.42,3.42,0,0,0,.39.67c2,2.77,1.43,6.61-1.39,10.18.49,0,1.07,0,1.74-.13,1.39-.21,3.08-.56,4.6-.94a6.52,6.52,0,0,1,1.43-.23,5.65,5.65,0,0,1,1-.09,2.71,2.71,0,0,1,2.74,1.69c.56,1.55-.4,3.56-2.57,5.38l-.16.13-.19.09C62.72,111,50.83,116,46.92,117.64l-.6.26a4.84,4.84,0,0,1-.79.24l-1,.42a4.47,4.47,0,0,1-1.76.38h0c-2.91,0-5.23-2.85-7.1-8.72l0-.13a61.9,61.9,0,0,1-1.47-13.38A61.2,61.2,0,0,1,77.33,38l.13,0a26.53,26.53,0,0,1,5.42-.68c5,0,6.11,2.63,6.3,4.21l.16,1.35a3.78,3.78,0,0,1,.12.57l.08.7c.49,4.09,2,16.51,3,27.84l0,.17,0,.16c-.42,3.3-1.93,5.44-3.84,5.44-.79,0-2.24-.39-3-3h0a7,7,0,0,1-.31-.83c-.2-.71-.45-1.48-.71-2.22a25.5,25.5,0,0,0-1.64-3.72C81.45,72.21,78.48,74.63,75,74.35Z" style="fill:url(#linear-gradient-2)"/><path d="M103.08,130.83c-1.1.17-3.76,5.44-3.35,8a4.57,4.57,0,1,0,9-1.42C108.34,134.85,104.68,130.57,103.08,130.83Zm-34.46-3.22a4.57,4.57,0,1,0,6.93,5.94c1.71-2,2.22-7.88,1.37-8.61C75.69,123.89,70.34,125.61,68.62,127.61Zm19.68,3.22c-1.6-.26-5.25,4-5.66,6.62a4.57,4.57,0,1,0,9,1.42C92.07,136.27,89.41,131,88.3,130.83Zm26.16-5.89c-.84.73-.34,6.61,1.38,8.61a4.56,4.56,0,1,0,6.92-5.94C121,125.61,115.69,123.89,114.46,124.94ZM56.86,79.31a4.57,4.57,0,1,0-3.2,8.55c2.47.92,8-.15,8.55-1.67C62.61,85.14,59.33,80.24,56.86,79.31Zm9.65-14.18a4.57,4.57,0,1,0-5.68,7.15c2.07,1.64,8,1.92,8.66,1C70.5,72.05,68.58,66.77,66.51,65.13Zm9.56-10.29a4.68,4.68,0,0,0-2.67,6c.9,2.48,5.77,5.82,6.82,5.44,1.52-.55,2.66-6.06,1.77-8.54A4.68,4.68,0,0,0,76.07,54.84ZM53.56,96a4.57,4.57,0,1,0,1.76,9c2.59-.52,6.72-4.33,6.41-5.92C61.51,97.9,56.15,95.44,53.56,96Zm84-8.09a4.57,4.57,0,1,0-3.21-8.55c-2.47.93-5.74,5.83-5.35,6.88C129.58,87.71,135.1,88.78,137.57,87.86Zm-19.75-27a4.57,4.57,0,1,0-8.58-3.1c-.9,2.48.25,8,1.77,8.54C112.06,66.7,116.93,63.36,117.82,60.88ZM137.67,96c-2.59-.51-8,2-8.17,3-.32,1.59,3.82,5.4,6.4,5.92a4.57,4.57,0,1,0,1.77-9Zm-6.38-30.21a4.67,4.67,0,0,0-6.58-.61c-2.06,1.64-4,6.92-3,8.2.69.87,6.58.59,8.65-1A4.66,4.66,0,0,0,131.29,65.74Z" style="fill:#e86900"/><path d="M113.9,55.71a2.28,2.28,0,0,0-.73-.12,2.54,2.54,0,0,0-2.32,1.72c-.44,1.23,0,3.87.47,5.22,1.34-.76,3.49-2.52,3.9-3.64A2.44,2.44,0,0,0,113.9,55.71Zm1.9,70c0,1.55.47,4.28,1.25,5.19a2.61,2.61,0,0,0,2,.93,2.18,2.18,0,0,0,1.44-.52,2.23,2.23,0,0,0,.76-1.58,2.69,2.69,0,0,0-.65-1.86A9.83,9.83,0,0,0,115.8,125.67Zm-12.68,6.54c-.81,1.32-1.86,3.9-1.67,5.08a2.46,2.46,0,0,0,2.69,2.14,2.17,2.17,0,0,0,1.47-1,2.64,2.64,0,0,0,.43-1.91C105.83,135.28,104.22,133.15,103.12,132.21Zm24.14-67.14a2.69,2.69,0,0,0-1.65.59c-1,.8-2.07,3.25-2.35,4.67h.4a9.82,9.82,0,0,0,4.84-1,2.59,2.59,0,0,0,1-1.69,2.17,2.17,0,0,0-.45-1.7A2.23,2.23,0,0,0,127.26,65.07ZM138.4,98a2.63,2.63,0,0,0-1.66-1,1.72,1.72,0,0,0-.35,0,11.89,11.89,0,0,0-4.79,1.5c.89,1.13,3,2.83,4.24,3.08a2.46,2.46,0,0,0,2.94-1.78A2.22,2.22,0,0,0,138.4,98Zm-2.11-13.45a2.62,2.62,0,0,0,1.46-1.31,2.23,2.23,0,0,0,.1-1.75A2.33,2.33,0,0,0,135.62,80a2.63,2.63,0,0,0-1,.17c-1.12.42-2.84,2.59-3.59,3.94a11.11,11.11,0,0,0,3.63.61A4.74,4.74,0,0,0,136.29,84.52ZM64.62,65.66A2.64,2.64,0,0,0,63,65.07a2.21,2.21,0,0,0-1.77.83,2.17,2.17,0,0,0-.45,1.7,2.59,2.59,0,0,0,1,1.69,9.82,9.82,0,0,0,4.84,1H67C66.7,68.91,65.64,66.46,64.62,65.66Zm-9,14.51a2.66,2.66,0,0,0-1-.17,2.32,2.32,0,0,0-2.23,1.46,2.23,2.23,0,0,0,.1,1.75A2.62,2.62,0,0,0,54,84.52a4.74,4.74,0,0,0,1.59.2h0a11.11,11.11,0,0,0,3.63-.61C58.42,82.76,56.7,80.59,55.58,80.17Zm28.78,56.4a2.59,2.59,0,0,0,.42,1.91,2.21,2.21,0,0,0,1.48,1A2.46,2.46,0,0,0,89,137.29c.18-1.18-.86-3.76-1.67-5.08C86.18,133.15,84.56,135.28,84.36,136.57Zm-7.29-81a2.28,2.28,0,0,0-.73.12A2.44,2.44,0,0,0,75,58.89c.4,1.12,2.56,2.88,3.9,3.64.52-1.35.91-4,.46-5.22A2.51,2.51,0,0,0,77.07,55.59Zm-7.89,74.1a2.17,2.17,0,0,0,2.2,2.1,2.62,2.62,0,0,0,2-.93c.78-.91,1.24-3.64,1.25-5.19a9.83,9.83,0,0,0-4.77,2.16A2.59,2.59,0,0,0,69.18,129.69ZM53.5,96.92a2.61,2.61,0,0,0-1.66,1,2.2,2.2,0,0,0-.38,1.71,2.39,2.39,0,0,0,2.4,1.84h0a2.32,2.32,0,0,0,.53,0c1.29-.25,3.35-2,4.24-3.08a11.8,11.8,0,0,0-4.79-1.5A1.68,1.68,0,0,0,53.5,96.92Z" style="fill:#ffb500"/><path d="M81.06,54.34C90.77,50,105,44.59,124.37,55.6c28.76-4.74,47.73,21.81,40.49,44.71,2.28,14.43.76,27.93-11,41.22-15.22,17.18-32.67,21.06-52.79,19.55-14.81-1.12-22.41-5.7-27-7.22-6.83,4.18-1,10.51-11.77,3.8-15.09-9.44-27.1-45.79-5.29-70.45C58,72.36,68.48,59.91,81.06,54.34Z" style="fill:url(#radial-gradient-7)"/><path d="M146.38,67.21,87.45,69.84a14.09,14.09,0,0,0-14.09,14.1l-1.23,56.78c0,7.79,9.18,16.31,17,16.31h43.51c11.07-.5,27.93-25.2,27.93-25.2V83.94C160.54,76.15,154.16,67.21,146.38,67.21Z" style="fill:#af9477"/><path d="M85.78,65.84h59a14.1,14.1,0,0,1,14.1,14.1v59A14.09,14.09,0,0,1,144.78,153h-59a14.09,14.09,0,0,1-14.09-14.09v-59A14.09,14.09,0,0,1,85.78,65.84Z" style="fill:url(#linear-gradient-3)"/><rect x="73.46" y="67.61" width="83.65" height="83.65" rx="13.52" style="fill:url(#linear-gradient-4)"/><path d="M112.69,67.61H102A100.37,100.37,0,0,0,73.46,102.7v16.47C77.82,105.89,88.46,83.09,112.69,67.61Zm43,7.52a13.64,13.64,0,0,0-5.93-6C101,98.89,82,129.2,75.06,144.13a13.67,13.67,0,0,0,4.13,4.65C84.82,136.24,103.44,104.37,155.69,75.13Zm-66,76.13h8c8-11.82,27-34.39,59.42-43V101.3C117.36,111.08,96.49,140,89.69,151.26Zm29.44,0a100.52,100.52,0,0,1,38-15V129.5a107.72,107.72,0,0,0-49.73,21.76Z" style="fill:url(#linear-gradient-5)"/><path d="M143.92,132.43c1.1,18.62-8.48,29.47-24.48,30.59-6.41.45-16.35-3.83-20.89-7.91-8.8-7.91-19.25-23.51-19.25-33,0-16,22.21-16.65,38.25-16.65,4.52,0,3.83-12.6,7.42-10.36C134.51,101.09,143,117.36,143.92,132.43Z" style="opacity:0.67;fill:url(#radial-gradient-8)"/><path d="M136.9,118.28a29,29,0,1,1-29.05-29A29,29,0,0,1,136.9,118.28Z" style="fill:url(#radial-gradient-9)"/><path d="M119.12,115.71a7.06,7.06,0,1,1-7.06-7.06A7.05,7.05,0,0,1,119.12,115.71Z" style="fill:#290000"/><path d="M115.32,95.15a15.68,15.68,0,0,0-3.59-.42c-7,0-13.57,4.84-14.86,10.93a19.44,19.44,0,0,0,7.76,4.08.06.06,0,0,1,0,0,13,13,0,0,1,9.52-4.12C115.85,102.61,116,97.55,115.32,95.15Z" style="fill:#b08254"/><path d="M112.89,133.65c6.34,1,13.81-3.51,15.46-8.82a16.41,16.41,0,0,0-6.51-3.42h0c-2,2.12-4.77,4.27-8.22,4.4A22.49,22.49,0,0,0,112.89,133.65Z" style="fill:#7d4d14"/></g></g></svg>