<svg xmlns="http://www.w3.org/2000/svg" xmlns:xlink="http://www.w3.org/1999/xlink" viewBox="0 0 185.06 188.27"><defs><radialGradient id="radial-gradient" cx="53.35" cy="85.85" r="46.94" gradientUnits="userSpaceOnUse"><stop offset="0.82" stop-color="#ffedf5"/><stop offset="0.86" stop-color="#fde7f0"/><stop offset="0.91" stop-color="#f6d6e2"/><stop offset="0.97" stop-color="#ecb9cb"/><stop offset="1" stop-color="#e6aabe"/></radialGradient><radialGradient id="radial-gradient-2" cx="68.69" cy="59.11" r="46.94" xlink:href="#radial-gradient"/><radialGradient id="radial-gradient-3" cx="111.51" cy="140.47" r="45.89" gradientUnits="userSpaceOnUse"><stop offset="0" stop-color="#fc9f77"/><stop offset="0.13" stop-color="#fcb68f"/><stop offset="0.25" stop-color="#fcae86"/><stop offset="0.46" stop-color="#fb996e"/><stop offset="0.48" stop-color="#fb966b"/><stop offset="0.61" stop-color="#fc7950"/><stop offset="0.73" stop-color="#fd673e"/><stop offset="0.81" stop-color="#fd6138"/><stop offset="0.87" stop-color="#fd6a41"/><stop offset="0.96" stop-color="#fe815a"/><stop offset="1" stop-color="#fe8a63"/></radialGradient><radialGradient id="radial-gradient-4" cx="111.51" cy="141.14" r="37.9" gradientUnits="userSpaceOnUse"><stop offset="0.28" stop-color="#ba0000"/><stop offset="0.46" stop-color="#be0300"/><stop offset="0.65" stop-color="#cb0c00"/><stop offset="0.85" stop-color="#e01a00"/><stop offset="0.87" stop-color="#e31c00"/><stop offset="0.94" stop-color="#ec2a0c"/><stop offset="1" stop-color="#f43717"/></radialGradient><linearGradient id="linear-gradient" x1="118.16" y1="173.69" x2="111.83" y2="142.05" gradientUnits="userSpaceOnUse"><stop offset="0.09" stop-color="#ff5e38"/><stop offset="0.29" stop-color="#d34328"/><stop offset="0.59" stop-color="#971f13"/><stop offset="0.81" stop-color="#710905"/><stop offset="0.93" stop-color="#630000"/></linearGradient><radialGradient id="radial-gradient-5" cx="1025.93" cy="2467.29" r="80.73" gradientTransform="translate(1127.65 -2394.14) rotate(45)" gradientUnits="userSpaceOnUse"><stop offset="0.03" stop-color="#f6a96d"/><stop offset="0.15" stop-color="#f4a566"/><stop offset="0.33" stop-color="#f09954"/><stop offset="0.53" stop-color="#e88636"/><stop offset="0.64" stop-color="#e37922"/><stop offset="0.74" stop-color="#d86e1f"/><stop offset="0.91" stop-color="#bb5016"/><stop offset="1" stop-color="#a83d10"/></radialGradient><linearGradient id="linear-gradient-2" x1="-310.42" y1="2586.37" x2="-310.42" y2="2602.47" gradientTransform="translate(421.88 -2514.53)" gradientUnits="userSpaceOnUse"><stop offset="0" stop-color="#8c290f"/><stop offset="0.18" stop-color="#943011"/><stop offset="0.46" stop-color="#a94315"/><stop offset="0.8" stop-color="#cb631d"/><stop offset="1" stop-color="#e37922"/></linearGradient><linearGradient id="linear-gradient-3" x1="-302.33" y1="2540.05" x2="-302.33" y2="2556.15" xlink:href="#linear-gradient-2"/><linearGradient id="linear-gradient-4" x1="-310.42" y1="2563.21" x2="-310.42" y2="2579.31" xlink:href="#linear-gradient-2"/><linearGradient id="linear-gradient-5" x1="-321.59" y1="2609.53" x2="-321.59" y2="2625.63" xlink:href="#linear-gradient-2"/><linearGradient id="linear-gradient-6" x1="111.13" y1="147.75" x2="96.98" y2="9.02" gradientUnits="userSpaceOnUse"><stop offset="0" stop-color="#ff9c35"/><stop offset="0.18" stop-color="#ffa13d"/><stop offset="0.46" stop-color="#ffae52"/><stop offset="0.8" stop-color="#ffc474"/><stop offset="1" stop-color="#ffd48c"/></linearGradient></defs><g id="Layer_2" data-name="Layer 2"><g id="Layer_1-2" data-name="Layer 1"><path d="M53.35,38.32a47.53,47.53,0,1,0,47.53,47.53A47.53,47.53,0,0,0,53.35,38.32Zm0,88.38A40.85,40.85,0,1,1,94.2,85.85,40.85,40.85,0,0,1,53.35,126.7Z" style="fill:#c9508a"/><path d="M53.35,43.74A42.11,42.11,0,1,0,95.46,85.85,42.11,42.11,0,0,0,53.35,43.74Zm0,79.63A37.53,37.53,0,1,1,90.88,85.85,37.53,37.53,0,0,1,53.35,123.37Z" style="fill:#fff"/><path d="M53.35,39.67A46.18,46.18,0,1,0,99.53,85.85,46.18,46.18,0,0,0,53.35,39.67Zm0,85.3A39.13,39.13,0,1,1,92.48,85.85,39.13,39.13,0,0,1,53.35,125Z" style="fill:url(#radial-gradient)"/><path d="M83.67,116.17a.74.74,0,1,0,1,0A.72.72,0,0,0,83.67,116.17ZM53.35,41.48a.75.75,0,1,0,.74.74A.74.74,0,0,0,53.35,41.48Zm0,87.24a.75.75,0,0,0-.74.75.74.74,0,0,0,1.48,0A.75.75,0,0,0,53.35,128.72ZM22,116.17a.74.74,0,1,0,1.05,0A.73.73,0,0,0,22,116.17Zm0-61.69a.74.74,0,1,0,1.05,0A.74.74,0,0,0,22,54.48Zm61.69,0a.74.74,0,1,0,1,0A.74.74,0,0,0,83.67,54.48ZM9.73,85.1a.75.75,0,0,0-.74.75.74.74,0,0,0,1.48,0A.75.75,0,0,0,9.73,85.1ZM97,85.1a.75.75,0,0,0-.74.75.74.74,0,0,0,.74.74.75.75,0,0,0,.75-.74A.76.76,0,0,0,97,85.1Zm-83.28,17a.73.73,0,1,0,1,.38A.73.73,0,0,0,13.69,102.1Zm.53-31.85a.73.73,0,1,0-1,.4A.73.73,0,0,0,14.22,70.25ZM93.43,101a.73.73,0,1,0,.4.95A.73.73,0,0,0,93.43,101ZM70,124.55a.71.71,0,0,0-.39,1,.73.73,0,0,0,1,.39.74.74,0,0,0,.39-1A.73.73,0,0,0,70,124.55ZM37.1,46.19a.73.73,0,0,0-1-.38.73.73,0,0,0,.58,1.34A.73.73,0,0,0,37.1,46.19ZM93,69.59a.73.73,0,1,0-1-.38A.73.73,0,0,0,93,69.59ZM37.75,125a.74.74,0,0,0-1,.41.73.73,0,1,0,1.36.54A.74.74,0,0,0,37.75,125ZM69.9,46.31a.73.73,0,0,0-.41-1A.73.73,0,1,0,69,46.72.73.73,0,0,0,69.9,46.31Z" style="fill:#de94b3"/><path d="M68.69,11.58a47.53,47.53,0,1,0,47.53,47.53A47.53,47.53,0,0,0,68.69,11.58Zm0,88.38a40.85,40.85,0,1,1,40.85-40.85A40.85,40.85,0,0,1,68.69,100Z" style="fill:#c9508a"/><path d="M68.69,17A42.11,42.11,0,1,0,110.8,59.11,42.11,42.11,0,0,0,68.69,17Zm0,79.63a37.53,37.53,0,1,1,37.53-37.52A37.52,37.52,0,0,1,68.69,96.63Z" style="fill:#fff"/><path d="M68.69,12.93a46.18,46.18,0,1,0,46.18,46.18A46.18,46.18,0,0,0,68.69,12.93Zm0,85.3a39.13,39.13,0,1,1,39.13-39.12A39.13,39.13,0,0,1,68.69,98.23Z" style="fill:url(#radial-gradient-2)"/><path d="M99,89.43a.74.74,0,1,0,1,0A.72.72,0,0,0,99,89.43ZM68.69,14.74a.74.74,0,0,0-.74.74.74.74,0,1,0,1.48,0A.74.74,0,0,0,68.69,14.74Zm0,87.24a.75.75,0,0,0-.74.75.74.74,0,1,0,1.48,0A.75.75,0,0,0,68.69,102ZM37.32,89.43a.74.74,0,1,0,1,0A.72.72,0,0,0,37.32,89.43Zm0-61.7a.75.75,0,0,0,0,1.06.74.74,0,0,0,1,0,.75.75,0,0,0,0-1.06A.74.74,0,0,0,37.32,27.73Zm61.69,0a.75.75,0,0,0,0,1.06.74.74,0,0,0,1,0,.75.75,0,0,0,0-1.06A.74.74,0,0,0,99,27.73ZM25.07,58.36a.76.76,0,0,0-.75.75.75.75,0,0,0,.75.74.74.74,0,0,0,.74-.74A.75.75,0,0,0,25.07,58.36Zm87.24,0a.75.75,0,0,0-.74.75.74.74,0,0,0,.74.74.75.75,0,0,0,.75-.74A.76.76,0,0,0,112.31,58.36ZM29,75.36a.73.73,0,1,0,1,.38A.73.73,0,0,0,29,75.36Zm.53-31.86a.73.73,0,1,0-.95.41A.73.73,0,0,0,29.56,43.5Zm79.21,30.8a.73.73,0,0,0-.55,1.36.73.73,0,0,0,.55-1.36ZM85.33,97.81a.71.71,0,0,0-.39,1,.73.73,0,1,0,1.34-.57A.72.72,0,0,0,85.33,97.81ZM52.44,19.45a.73.73,0,0,0-1.35.57.73.73,0,0,0,1,.39A.73.73,0,0,0,52.44,19.45Zm55.91,23.4a.73.73,0,1,0-1-.38A.73.73,0,0,0,108.35,42.85ZM53.09,98.23a.73.73,0,1,0,.41,1A.74.74,0,0,0,53.09,98.23ZM85.24,19.57A.73.73,0,1,0,83.88,19a.74.74,0,0,0,.41.95A.73.73,0,0,0,85.24,19.57Z" style="fill:#de94b3"/><path d="M159.32,140.47a47.81,47.81,0,1,1-47.81-47.81A47.81,47.81,0,0,1,159.32,140.47Z" style="fill:#ff7d40"/><path d="M158.66,140.47a47.15,47.15,0,1,1-47.15-47.15A47.15,47.15,0,0,1,158.66,140.47Z" style="fill:#f82100"/><path d="M157.41,140.47a45.9,45.9,0,1,1-45.9-45.9A45.89,45.89,0,0,1,157.41,140.47Z" style="fill:url(#radial-gradient-3)"/><path d="M123.31,102.66c-3.25-.7-6.25-.74-6.52,1.46s-1.37,11.23-2.12,19.44c.33,2.71,1.91,4,2.63,1.54.86-2.95,2.8-7.84,3.63-5.24s2.5,4.41,4.61,4.24,1.6,1,1.7,2.53a11,11,0,0,0,.86,4.21,11.09,11.09,0,0,0,3.18,2.89c1.28.88,2.53,1,1.31,2.75s-.52,4.1,1.28,6.14-3.38,1.2-6.36.44c-2.4-.62-2.18,1.28-.16,2.92,7.57,3.48,16.09,7.07,18.25,8s3.72-2.17,4.72-5.65a39.64,39.64,0,0,0-27-45.65Zm17,60.47c-1.9-1.41-9.37-7-16.23-11.81-2.33-.84-4-.08-2.28,1.66,2.13,2.21,5.43,6.31,2.76,5.75s-5.07,0-6,1.91-1.65.91-3,.23a10.72,10.72,0,0,0-4.08-1.33,10.78,10.78,0,0,0-4.08,1.33c-1.39.68-2.16,1.69-3.05-.23s-3.3-2.47-6-1.91.63-3.54,2.76-5.75c1.71-1.77,0-2.52-2.41-1.61-6.84,4.79-14.27,10.35-16.15,11.76s-.29,3.84,1.89,6.27a39.54,39.54,0,0,0,53.56.42C140.45,167.27,142.19,164.51,140.35,163.13ZM95.52,143.06c-3,.76-8.17,1.59-6.36-.44s2.51-4.42,1.28-6.14,0-1.87,1.31-2.75a10.83,10.83,0,0,0,3.18-2.89,10.82,10.82,0,0,0,.86-4.21c.11-1.55-.4-2.71,1.7-2.53s3.79-1.65,4.62-4.24,2.76,2.29,3.63,5.24c.71,2.43,2.27,1.18,2.62-1.5-.75-8.22-1.85-17.19-2.13-19.48S103,102,99.72,102.66a39.6,39.6,0,0,0-26.85,46.42c1,3.15,2.47,5.74,4.49,4.88,2.18-.92,10.79-4.54,18.41-8C97.71,144.29,97.89,142.45,95.52,143.06Z" style="fill:#ff8d69"/><path d="M122.9,104c-3.13-.68-6-.72-6.29,1.4s-1.32,10.85-2,18.78c.32,2.61,1.85,3.84,2.54,1.48.83-2.84,2.7-7.56,3.5-5.06s2.42,4.26,4.46,4.09,1.54.95,1.64,2.45a10.42,10.42,0,0,0,.83,4.06A10.34,10.34,0,0,0,130.6,134c1.23.85,2.45,1,1.26,2.66s-.5,4,1.25,5.92-3.27,1.17-6.15.43c-2.31-.59-2.11,1.24-.16,2.83,7.32,3.36,15.54,6.82,17.63,7.7s3.58-2.1,4.56-5.46A38.28,38.28,0,0,0,122.9,104Zm16.45,58.38c-1.82-1.36-9-6.76-15.66-11.4-2.25-.81-3.83-.07-2.2,1.61,2.06,2.13,5.24,6.09,2.66,5.54s-4.9,0-5.76,1.85-1.59.87-2.94.22a10.58,10.58,0,0,0-3.94-1.29,10.64,10.64,0,0,0-3.94,1.29c-1.35.65-2.08,1.63-2.94-.22s-3.19-2.39-5.76-1.85.61-3.41,2.67-5.54c1.65-1.72,0-2.44-2.33-1.56-6.61,4.62-13.78,10-15.6,11.35s-.28,3.71,1.82,6.06a38.22,38.22,0,0,0,51.73.41C139.46,166.37,141.14,163.71,139.35,162.37ZM96.07,143c-2.87.74-7.89,1.54-6.14-.43s2.42-4.26,1.24-5.92,0-1.81,1.26-2.66a10.34,10.34,0,0,0,3.07-2.79,10.42,10.42,0,0,0,.83-4.06c.1-1.5-.38-2.62,1.65-2.45s3.65-1.59,4.45-4.09,2.67,2.22,3.5,5.06c.69,2.34,2.21,1.14,2.54-1.44-.73-7.94-1.79-16.6-2.06-18.82s-3.15-2.08-6.29-1.4a38.23,38.23,0,0,0-26.84,36.5,38.64,38.64,0,0,0,.92,8.32c1,3,2.38,5.54,4.34,4.71s10.41-4.39,17.77-7.77C98.18,144.18,98.36,142.41,96.07,143Z" style="fill:url(#radial-gradient-4)"/><path d="M116.42,163c-.73.12-2.48,3.59-2.21,5.32a3,3,0,1,0,6-.94C119.89,165.66,117.48,162.83,116.42,163Zm-22.76-2.13a3,3,0,1,0,4.57,3.93c1.14-1.32,1.47-5.2.91-5.68C98.33,158.42,94.8,159.55,93.66,160.87Zm13,2.13c-1.06-.17-3.47,2.66-3.74,4.38a3,3,0,1,0,6,.94C109.14,166.59,107.39,163.12,106.66,163Zm17.28-3.88c-.56.48-.23,4.36.91,5.68a3,3,0,1,0,4.57-3.93C128.29,159.55,124.75,158.42,123.94,159.12ZM85.9,129a3,3,0,1,0-2.12,5.65c1.63.61,5.27-.1,5.65-1.1C89.69,132.83,87.53,129.59,85.9,129Zm6.37-9.36a3,3,0,1,0-3.75,4.73c1.37,1.08,5.26,1.26,5.72.68C94.9,124.19,93.63,120.7,92.27,119.61Zm6.31-6.8a3.09,3.09,0,0,0-1.76,4c.59,1.64,3.81,3.85,4.5,3.6,1-.37,1.76-4,1.17-5.64A3.1,3.1,0,0,0,98.58,112.81ZM83.71,140a3,3,0,1,0,1.17,5.91c1.71-.34,4.44-2.85,4.23-3.9C89,141.25,85.42,139.63,83.71,140Zm55.49-5.35a3,3,0,1,0-2.12-5.65c-1.63.62-3.79,3.86-3.53,4.55C133.92,134.52,137.57,135.23,139.2,134.62Zm-13-17.82a3,3,0,1,0-5.67-2c-.59,1.64.16,5.27,1.17,5.64C122.35,120.65,125.57,118.44,126.16,116.8ZM139.26,140c-1.7-.34-5.25,1.28-5.39,2-.21,1.05,2.52,3.56,4.23,3.9a3,3,0,1,0,1.16-5.91Zm-4.21-20a3.09,3.09,0,0,0-4.34-.4c-1.36,1.09-2.64,4.58-2,5.41.46.58,4.35.4,5.72-.68A3.09,3.09,0,0,0,135.05,120Z" style="fill:#e86900"/><path d="M123.56,113.39a1.5,1.5,0,0,0-.47-.08,1.68,1.68,0,0,0-1.54,1.13,6.55,6.55,0,0,0,.31,3.45,7,7,0,0,0,2.58-2.4A1.62,1.62,0,0,0,123.56,113.39Zm1.26,46.21a7.14,7.14,0,0,0,.82,3.42,1.76,1.76,0,0,0,1.31.62,1.42,1.42,0,0,0,1-.35,1.46,1.46,0,0,0,.5-1A1.77,1.77,0,0,0,128,161,6.4,6.4,0,0,0,124.82,159.6Zm-8.38,4.32a7.12,7.12,0,0,0-1.1,3.35,1.63,1.63,0,0,0,1.78,1.41,1.43,1.43,0,0,0,1-.62,1.7,1.7,0,0,0,.28-1.27A6.42,6.42,0,0,0,116.44,163.92Zm15.95-44.35a1.8,1.8,0,0,0-1.09.39,6.53,6.53,0,0,0-1.55,3.08H130a6.58,6.58,0,0,0,3.2-.69,1.73,1.73,0,0,0,.65-1.12,1.47,1.47,0,0,0-.29-1.12A1.5,1.5,0,0,0,132.39,119.57Zm7.36,21.73a1.78,1.78,0,0,0-1.1-.7h-.23a7.9,7.9,0,0,0-3.16,1,6.44,6.44,0,0,0,2.8,2,1.63,1.63,0,0,0,1.94-1.18A1.48,1.48,0,0,0,139.75,141.3Zm-1.4-8.88a1.73,1.73,0,0,0,1-.87,1.47,1.47,0,0,0,.06-1.16,1.53,1.53,0,0,0-1.47-1,1.94,1.94,0,0,0-.63.11,7,7,0,0,0-2.37,2.61,7.24,7.24,0,0,0,2.39.4A3.1,3.1,0,0,0,138.35,132.42ZM91,120a1.75,1.75,0,0,0-1.09-.39,1.46,1.46,0,0,0-1.17.55,1.48,1.48,0,0,0-.3,1.12,1.78,1.78,0,0,0,.65,1.12,6.61,6.61,0,0,0,3.2.69h.26A6.53,6.53,0,0,0,91,120Zm-6,9.58a2,2,0,0,0-.63-.11,1.54,1.54,0,0,0-1.48,1,1.47,1.47,0,0,0,.07,1.16,1.71,1.71,0,0,0,1,.87,3.15,3.15,0,0,0,1,.13h0a7.31,7.31,0,0,0,2.4-.4A7.13,7.13,0,0,0,85.05,129.54Zm19,37.25a1.7,1.7,0,0,0,.28,1.27,1.43,1.43,0,0,0,1,.62,1.62,1.62,0,0,0,1.78-1.41,7.12,7.12,0,0,0-1.1-3.35A6.42,6.42,0,0,0,104.06,166.79Zm-4.82-53.48a1.52,1.52,0,0,0-1.36,2.18,7.09,7.09,0,0,0,2.58,2.4,6.55,6.55,0,0,0,.31-3.45A1.66,1.66,0,0,0,99.24,113.31ZM94,162.25a1.46,1.46,0,0,0,.5,1,1.42,1.42,0,0,0,1,.35,1.76,1.76,0,0,0,1.31-.62,7.14,7.14,0,0,0,.82-3.42A6.44,6.44,0,0,0,94.46,161,1.77,1.77,0,0,0,94,162.25ZM83.67,140.6a1.73,1.73,0,0,0-1.09.7,1.44,1.44,0,0,0-.25,1.13,1.57,1.57,0,0,0,1.58,1.22h0a1.34,1.34,0,0,0,.35,0,6.38,6.38,0,0,0,2.8-2,7.8,7.8,0,0,0-3.16-1Z" style="fill:#ffb500"/><path d="M111.51,92.66a47.81,47.81,0,0,0-43,68.63c3.86,2.23,12.19,4.25,33.82,2.47,30-2.47,51.39-6.27,56.84-19.4.11-1.28.18-2.58.18-3.89A47.82,47.82,0,0,0,111.51,92.66Z" style="opacity:0.67;fill:url(#linear-gradient)"/><path d="M42.53,176.44c3.34-6.56-1.4-14.86,3.75-20.34,5.35-5.68,25.51-18.94,25.51-18.94l-14.56-9.32-9.31-14.56s-13.27,20.16-19,25.51c-5.47,5.15-13.72.53-20.34,3.75s-12.41,12.07-5.42,20.91c4,6,8.9,4.29,13.33,5.08.35,4.37-1.45,9.14,5.08,13.34C30.83,188.91,38.74,183.89,42.53,176.44Z" style="fill:#e2cbb3"/><path d="M165.47,20.45l-.86-.85c-26.49-26.49-69.84-26.08-96.84.92C53.88,34.41,44.38,46.68,42.24,82.94c-.88,15-2.27,27.18-4.84,37.12-1.29,5,2.9,2.77,13.87,13.73S60,149,65,147.66c9.93-2.56,22.07-4,37.12-4.84,36.26-2.13,48.53-11.64,62.42-25.52C191.54,90.3,192,46.94,165.47,20.45Z" style="fill:url(#radial-gradient-5)"/><path d="M39.76,135.49c-4.95,3.6-9.78,11.61-16.66,10.78-9-1.08-16,.25-17.37,5-1.91,6.95,1.92,9.7,6.71,10.18,5.72.57,11.74.12,15.33-2.87,6.52-5.44,17.76-13.67,21-17.13C50.29,139.78,44.25,132.23,39.76,135.49ZM29.33,164c-1.95,2.15-7.19,5.63-6.71,9.71s4.91,6,7.06,5.14,6.23-3.71,6.11-10.29S32.92,160,29.33,164Z" style="fill:#fff0dc"/><path d="M161.51,84.56c0,5.06-22.41,5.45-50,5.45s-50,.17-50-5.45,22.41-5.45,50.05-5.45S161.51,78.63,161.51,84.56Z" style="fill:url(#linear-gradient-2)"/><path d="M153,38.24c0,5.06-15,5.45-33.44,5.45s-33.44.17-33.44-5.45,15-5.45,33.44-5.45S153,32.31,153,38.24Z" style="fill:url(#linear-gradient-3)"/><path d="M161.51,61.4c0,5.06-22.41,5.45-50,5.45s-50,.17-50-5.45S83.82,56,111.46,56,161.51,55.47,161.51,61.4Z" style="fill:url(#linear-gradient-4)"/><path d="M132.78,107.72c0,5.06-14.54,5.45-32.49,5.45s-32.49.17-32.49-5.45,14.55-5.45,32.49-5.45S132.78,101.79,132.78,107.72Z" style="fill:url(#linear-gradient-5)"/><path d="M92.19,31c3.78-.32,15.42-1,20.77-1H139.7c4.09,0,.63-6.29-5-9.12a46.2,46.2,0,0,0-31.14-2.83c-13.09,3.43-17.62,9.12-19.19,12S88.42,31.32,92.19,31Zm59.23,16.34c-1-3.06-8.35-1.91-15.1-1.61-10.77.48-31.66-.16-38.24-.32S86,43,83.45,40.28c-1.92-2.09.58-8.14-5-4.66-5.14,3.21-8.51,10-10.6,14.14s-1,5,2.89,4.5,14.3-1,29.56-1,40.17,0,45.64-.48S152.39,50.4,151.42,47.35Zm-5.3,21.37c-2.73.48-25.55.32-36.64.32s-33.1-.32-38.08-.8-7.2-1.57-7.87,1c-1.29,4.82-1,10,1,9.32S77.83,76.43,113,76.43s32,1.12,34.22-2.25S148.85,68.24,146.12,68.72ZM129.73,92.5c-3.38.16-27.16-.16-36.15,0s-21-.81-24.27-1.45-5.94-1.6-6.26.64c-.3,2.08-.32,10.45-1,12.7s2.09,1,4.82-1,9-3,19-3,27.16-.48,30.85-.48a20.17,20.17,0,0,0,11.09-2.73C132.14,94.75,133.1,92.34,129.73,92.5ZM85.64,116c-8-.28-17.31-1.63-21.25-2.76s-3,1.93-5.25,5.24c-1.74,2.62-2.48,4.7,2.21,7.18s14.91-4.69,23.19-6.07S93.65,116.31,85.64,116Z" style="fill:url(#linear-gradient-6)"/><path d="M108.63,68.65a3.31,3.31,0,1,0,3.3,3.31A3.31,3.31,0,0,0,108.63,68.65ZM121.69,54a3.31,3.31,0,1,0-3.31,3.3A3.31,3.31,0,0,0,121.69,54Zm4.56,8a3.3,3.3,0,1,0,3.3,3.3A3.31,3.31,0,0,0,126.25,62.05ZM123.57,83a3.3,3.3,0,1,0,3.31,3.3A3.3,3.3,0,0,0,123.57,83ZM88.65,81.08A3.31,3.31,0,1,0,92,84.38,3.3,3.3,0,0,0,88.65,81.08ZM97.46,94a3.3,3.3,0,1,0,3.31,3.3A3.3,3.3,0,0,0,97.46,94Zm.79-30a3.31,3.31,0,1,0-3.31,3.3A3.31,3.31,0,0,0,98.25,63.94ZM85,45.37a3.31,3.31,0,1,0-3.31,3.31A3.31,3.31,0,0,0,85,45.37Zm16.51-7.7a3.3,3.3,0,1,0,3.3,3.3A3.3,3.3,0,0,0,101.55,37.67Zm8.5-14.48a3.31,3.31,0,1,0,3.3,3.31A3.31,3.31,0,0,0,110.05,23.19Zm28.78,9.91a3.31,3.31,0,1,0-3.3,3.31A3.3,3.3,0,0,0,138.83,33.1Zm.47,30.36a3.3,3.3,0,1,0-3.3-3.3A3.31,3.31,0,0,0,139.3,63.46Zm3.93,20.3a3.3,3.3,0,1,0-3.3,3.3A3.3,3.3,0,0,0,143.23,83.76Zm-1.44,22.82a3.3,3.3,0,1,0,3.3,3.3A3.3,3.3,0,0,0,141.79,106.58Zm-57.86,9.74a3.3,3.3,0,1,0,3.31,3.3A3.3,3.3,0,0,0,83.93,116.32Zm23.91-15.11a3.31,3.31,0,1,0,3.31,3.31A3.31,3.31,0,0,0,107.84,101.21ZM62.23,94.92a3.31,3.31,0,1,0,3.3,3.3A3.3,3.3,0,0,0,62.23,94.92Zm2.83-33a3.31,3.31,0,1,0,3.3,3.3A3.3,3.3,0,0,0,65.06,61.89Zm90.6-15.73a3.31,3.31,0,1,0,3.31,3.3A3.3,3.3,0,0,0,155.66,46.16ZM154,85.37a3.3,3.3,0,1,0,3.3,3.3A3.31,3.31,0,0,0,154,85.37Z" style="fill:#ffcc4f"/><path d="M111.21,48c4.48.07,11.18-6.61,11.56-9.55.27-2.09-5.69.56-6-2a41.44,41.44,0,0,0-1.13-7.27c-.25-.8-.68-.88-1.27-.26a41.07,41.07,0,0,0-3.94,6.21c-1.26,2.2-5.55-2.82-6.25-.58-.89,2.82,2.66,11.64,6.8,13.37A.65.65,0,0,0,111.21,48ZM88.1,61.26c-1.74-1.2-2.09,5.32-4.46,4.42a41.79,41.79,0,0,0-7-2.29c-.83-.14-1.1.21-.81,1a40.68,40.68,0,0,0,3.75,6.32c1.38,2.13-5,3.67-3.37,5.31,2.11,2.07,11.59,2.92,15,0,0,0,.14-.15.13-.15C93.45,71.93,90.55,62.93,88.1,61.26Zm42,10.15a40.45,40.45,0,0,0-7.26-1.21c-2.51-.3.44-6.21-1.9-6-2.94.28-9.69,7-9.66,11.47a.65.65,0,0,0,0,.2c1.68,4.16,10.44,7.73,13.3,6.94,2-.57-2.73-5-.52-6.26a41.42,41.42,0,0,0,6.25-3.88C131,72.14,130.86,71.71,130.06,71.41ZM165.67,68s-.13-.1-.14-.09c-3.5-1.43-10.8,1.74-12,3.93-.85,1.56,4.64,1.31,4.08,3.37a34.67,34.67,0,0,0-1.34,6.05c0,.71.26.91.92.6a35.28,35.28,0,0,0,5-3.66c1.67-1.34,3.49,3.92,4.73,2.38C168.46,78.67,168.39,70.66,165.67,68Zm-52.74,41.5a.36.36,0,0,0-.15.08c-2.87,2.46-3.38,10.41-2,12.48,1,1.47,3.28-3.53,4.86-2.1a34,34,0,0,0,4.77,4c.61.37.92.18.95-.54a34.77,34.77,0,0,0-1-6.12c-.43-2.09,5.08-1.31,4.27-3.12C123.66,111.9,116.5,108.3,112.93,109.53ZM69.72,109a34.28,34.28,0,0,0,2.91-5.48c.23-.67,0-.94-.73-.82a34.06,34.06,0,0,0-5.79,2.21c-2,.84-2.32-4.71-3.92-3.55-2,1.45-4.09,9.19-2.16,12.44,0,0,.1.14.11.13,3,2.31,10.88,1.19,12.62-.6C74,112.05,68.64,110.83,69.72,109Z" style="fill:#505e12"/><path d="M114.7,112.73a11.78,11.78,0,0,0-1.41,5.39,4.22,4.22,0,0,1,2.14-.61,3.74,3.74,0,0,1,2.54,1l.09.08,0-.12a3.57,3.57,0,0,1,2.16-4.18,12.36,12.36,0,0,0-5.18-1.57Zm4.12-71.6c-3.74-.25-4.33-2.85-4.43-3.68,0-.33-.07-.7-.11-1.11,0-.21,0-.44-.07-.68l-.34.6-.55,1a3.86,3.86,0,0,1-3.44,2,5.82,5.82,0,0,1-2.11-.45c.83,2.54,2.57,5.91,4.33,7C114.15,45.47,117,43.14,118.82,41.13Zm45.6,29.93a3.39,3.39,0,0,0-.6,0,12.89,12.89,0,0,0-4.91,1.26,3.66,3.66,0,0,1,1.84,4.3l0,.12.1-.08a3.72,3.72,0,0,1,2.35-.84,4,4,0,0,1,2.37.8C165.53,74.6,165.17,72.21,164.42,71.06ZM84.48,69.21h0a4,4,0,0,1-1.43-.27l-1-.4-.63-.25.38.58c.23.33.43.64.61.92,1.57,2.41.18,4.39-1.18,5.64a18.7,18.7,0,0,0,3.24.27,10.72,10.72,0,0,0,5-1c.64-1.94-.14-5.57-1.12-8.06A4.41,4.41,0,0,1,84.48,69.21Zm-16.79,39a.33.33,0,0,1,.06-.1l-.11,0a3.84,3.84,0,0,1-1.52.32h0a3.84,3.84,0,0,1-3-1.54,11.8,11.8,0,0,0-.4,5.63,8.19,8.19,0,0,0,3.13.49,16.11,16.11,0,0,0,2.51-.21A3.62,3.62,0,0,1,67.69,108.16Zm55.18-34.54c-2.86-.35-3.48-2.69-3.55-4.54-2,1.75-4.48,4.68-4.8,6.74,1,1.63,4.24,3.5,6.93,4.38-.59-1.76-.82-4.14,1.63-5.51.29-.16.62-.35,1-.54l.59-.33-.69-.08Z" style="fill:#697812"/></g></g></svg>