<svg xmlns="http://www.w3.org/2000/svg" xmlns:xlink="http://www.w3.org/1999/xlink" viewBox="0 0 189.48 202.72"><defs><linearGradient id="linear-gradient" x1="396.48" y1="1557.12" x2="396.48" y2="1803.3" gradientTransform="matrix(0.47, 0.88, -0.88, 0.47, 1363.19, -1010.6)" gradientUnits="userSpaceOnUse"><stop offset="0" stop-color="#ffe385"/><stop offset="0.31" stop-color="#ffd86b"/><stop offset="0.98" stop-color="#febb29"/><stop offset="1" stop-color="#feba27"/></linearGradient><linearGradient id="linear-gradient-2" x1="388.17" y1="1644.1" x2="388.17" y2="1676.98" gradientTransform="matrix(0.47, 0.88, -0.88, 0.47, 1363.19, -1010.6)" gradientUnits="userSpaceOnUse"><stop offset="0" stop-color="#ebb02e"/><stop offset="0.51" stop-color="#f5c248"/><stop offset="1" stop-color="#ffd564"/></linearGradient><linearGradient id="linear-gradient-3" x1="403.82" y1="1619.3" x2="403.82" y2="1636.37" xlink:href="#linear-gradient-2"/><linearGradient id="linear-gradient-4" x1="430.75" y1="1661.64" x2="430.75" y2="1697.14" xlink:href="#linear-gradient-2"/><linearGradient id="linear-gradient-5" x1="369.39" y1="1596.52" x2="369.39" y2="1625.41" xlink:href="#linear-gradient-2"/><linearGradient id="linear-gradient-6" x1="443.9" y1="1712.17" x2="443.9" y2="1728.72" xlink:href="#linear-gradient-2"/><linearGradient id="linear-gradient-7" x1="437.64" y1="1585.27" x2="437.64" y2="1612.85" xlink:href="#linear-gradient-2"/><linearGradient id="linear-gradient-8" x1="338.59" y1="1653.84" x2="338.59" y2="1700.8" xlink:href="#linear-gradient-2"/><linearGradient id="linear-gradient-9" x1="451.7" y1="1620.18" x2="451.7" y2="1658.15" xlink:href="#linear-gradient-2"/><linearGradient id="linear-gradient-10" x1="338.59" y1="1615.54" x2="338.59" y2="1632.62" xlink:href="#linear-gradient-2"/><linearGradient id="linear-gradient-11" x1="363.75" y1="1682.95" x2="363.75" y2="1716.8" xlink:href="#linear-gradient-2"/><linearGradient id="linear-gradient-12" x1="396.94" y1="1712.65" x2="396.94" y2="1730.36" xlink:href="#linear-gradient-2"/><linearGradient id="linear-gradient-13" x1="387.77" y1="1573.64" x2="387.77" y2="1586.17" xlink:href="#linear-gradient-2"/><radialGradient id="radial-gradient" cx="119.37" cy="138.49" r="56.32" gradientUnits="userSpaceOnUse"><stop offset="0" stop-color="#fc9f77"/><stop offset="0.13" stop-color="#fcb68f"/><stop offset="0.25" stop-color="#fcae86"/><stop offset="0.46" stop-color="#fb996e"/><stop offset="0.48" stop-color="#fb966b"/><stop offset="0.61" stop-color="#fc7950"/><stop offset="0.73" stop-color="#fd673e"/><stop offset="0.81" stop-color="#fd6138"/><stop offset="0.87" stop-color="#fd6a41"/><stop offset="0.96" stop-color="#fe815a"/><stop offset="1" stop-color="#fe8a63"/></radialGradient><radialGradient id="radial-gradient-2" cx="119.37" cy="139.32" r="46.51" gradientUnits="userSpaceOnUse"><stop offset="0.28" stop-color="#ba0000"/><stop offset="0.46" stop-color="#be0300"/><stop offset="0.65" stop-color="#cb0c00"/><stop offset="0.85" stop-color="#e01a00"/><stop offset="0.87" stop-color="#e31c00"/><stop offset="0.94" stop-color="#ec2a0c"/><stop offset="1" stop-color="#f43717"/></radialGradient><linearGradient id="linear-gradient-14" x1="126.47" y1="161.14" x2="97.58" y2="69.72" gradientUnits="userSpaceOnUse"><stop offset="0" stop-color="#ffbd94"/><stop offset="0.18" stop-color="#ffb48b"/><stop offset="0.47" stop-color="#fe9c73"/><stop offset="0.83" stop-color="#fd754c"/><stop offset="1" stop-color="#fd6138"/></linearGradient><linearGradient id="linear-gradient-15" x1="84.83" y1="17.48" x2="134.08" y2="130.71" gradientUnits="userSpaceOnUse"><stop offset="0" stop-color="#b8e245"/><stop offset="0.15" stop-color="#b1de41"/><stop offset="0.36" stop-color="#9ed136"/><stop offset="0.61" stop-color="#7ebe24"/><stop offset="0.89" stop-color="#53a20b"/><stop offset="1" stop-color="#409600"/></linearGradient><radialGradient id="radial-gradient-3" cx="72.38" cy="1015.03" r="83.72" gradientTransform="translate(776.23 -688.52) rotate(45)" gradientUnits="userSpaceOnUse"><stop offset="0" stop-color="#b8e245"/><stop offset="0.13" stop-color="#b2df3e"/><stop offset="0.32" stop-color="#a1d62b"/><stop offset="0.52" stop-color="#88c90e"/><stop offset="0.97" stop-color="#409600"/></radialGradient><radialGradient id="radial-gradient-4" cx="70.51" cy="1077.87" r="103.86" gradientTransform="translate(776.23 -688.52) rotate(45)" gradientUnits="userSpaceOnUse"><stop offset="0.15" stop-color="#e0ffb3"/><stop offset="0.27" stop-color="#defeac"/><stop offset="0.45" stop-color="#d7fa99"/><stop offset="0.66" stop-color="#ccf479"/><stop offset="0.89" stop-color="#bdec4e"/><stop offset="1" stop-color="#b5e837"/></radialGradient><radialGradient id="radial-gradient-5" cx="65.05" cy="87.15" r="63.84" gradientUnits="userSpaceOnUse"><stop offset="0.91" stop-color="#ffedf5"/><stop offset="0.93" stop-color="#fde9f1"/><stop offset="0.95" stop-color="#f8dce7"/><stop offset="0.98" stop-color="#f0c6d5"/><stop offset="1" stop-color="#e8b0c3"/></radialGradient><radialGradient id="radial-gradient-6" cx="65.05" cy="87.15" r="63.84" gradientUnits="userSpaceOnUse"><stop offset="0.82" stop-color="#ffedf5"/><stop offset="0.85" stop-color="#fde9f1"/><stop offset="0.89" stop-color="#f9dce7"/><stop offset="0.93" stop-color="#f0c6d5"/><stop offset="0.96" stop-color="#e6aabe"/></radialGradient><radialGradient id="radial-gradient-7" cx="65.05" cy="87.15" r="55.27" gradientUnits="userSpaceOnUse"><stop offset="0.83" stop-color="#ffedf5"/><stop offset="0.87" stop-color="#fde9f1"/><stop offset="0.92" stop-color="#f8dce7"/><stop offset="0.96" stop-color="#f0c6d5"/><stop offset="1" stop-color="#e8b0c3"/></radialGradient><radialGradient id="radial-gradient-8" cx="65.05" cy="87.15" r="46.13" gradientUnits="userSpaceOnUse"><stop offset="0.83" stop-color="#fff3f8"/><stop offset="0.87" stop-color="#fdeff5"/><stop offset="0.91" stop-color="#f9e2ea"/><stop offset="0.96" stop-color="#f2ccd9"/><stop offset="1" stop-color="#e8b0c3"/></radialGradient><radialGradient id="radial-gradient-9" cx="65.05" cy="87.15" r="35.92" gradientUnits="userSpaceOnUse"><stop offset="0.81" stop-color="#fff3f8"/><stop offset="0.85" stop-color="#fdeff5"/><stop offset="0.9" stop-color="#f9e2ea"/><stop offset="0.95" stop-color="#f2ccd9"/><stop offset="1" stop-color="#e8b0c3"/></radialGradient><radialGradient id="radial-gradient-10" cx="65.05" cy="87.15" r="25.38" gradientTransform="translate(151.42 21.06) rotate(89.31)" gradientUnits="userSpaceOnUse"><stop offset="0.75" stop-color="#fff3f8"/><stop offset="0.82" stop-color="#feeff5"/><stop offset="0.89" stop-color="#f9e2ea"/><stop offset="0.97" stop-color="#f2ccd9"/><stop offset="1" stop-color="#eec0d0"/></radialGradient><radialGradient id="radial-gradient-11" cx="65.05" cy="87.17" r="14.67" gradientUnits="userSpaceOnUse"><stop offset="0.64" stop-color="#fff3f8"/><stop offset="0.75" stop-color="#feeff5"/><stop offset="0.86" stop-color="#f9e2ea"/><stop offset="0.97" stop-color="#f2ccda"/><stop offset="1" stop-color="#f0c5d4"/></radialGradient><radialGradient id="radial-gradient-12" cx="74.8" cy="112.68" r="67.07" gradientUnits="userSpaceOnUse"><stop offset="0" stop-color="#a44a23"/><stop offset="0.53" stop-color="#9c4524"/><stop offset="1" stop-color="#913d26"/></radialGradient><linearGradient id="linear-gradient-16" x1="34.96" y1="25.7" x2="78.33" y2="119.43" gradientUnits="userSpaceOnUse"><stop offset="0" stop-color="#d68047"/><stop offset="0.28" stop-color="#d07842"/><stop offset="0.72" stop-color="#be6333"/><stop offset="1" stop-color="#b05226"/></linearGradient><linearGradient id="linear-gradient-17" x1="927.59" y1="133.47" x2="927.59" y2="146.36" gradientTransform="translate(-675.54 674.08) rotate(-45)" gradientUnits="userSpaceOnUse"><stop offset="0" stop-color="#7a2917"/><stop offset="0.25" stop-color="#822f19"/><stop offset="0.64" stop-color="#973f1f"/><stop offset="1" stop-color="#b05226"/></linearGradient><linearGradient id="linear-gradient-18" x1="927.59" y1="93.49" x2="927.59" y2="106.38" xlink:href="#linear-gradient-17"/><linearGradient id="linear-gradient-19" x1="927.59" y1="113.48" x2="927.59" y2="126.36" xlink:href="#linear-gradient-17"/><linearGradient id="linear-gradient-20" x1="927.59" y1="153.46" x2="927.59" y2="166.35" xlink:href="#linear-gradient-17"/><linearGradient id="linear-gradient-21" x1="58.02" y1="129.53" x2="50.21" y2="137.34" gradientTransform="matrix(1, 0, 0, 1, 0, 0)" xlink:href="#linear-gradient-17"/><linearGradient id="linear-gradient-22" x1="72.16" y1="115.39" x2="64.35" y2="123.2" gradientTransform="matrix(1, 0, 0, 1, 0, 0)" xlink:href="#linear-gradient-17"/><linearGradient id="linear-gradient-23" x1="100.43" y1="87.12" x2="92.62" y2="94.93" gradientTransform="matrix(1, 0, 0, 1, 0, 0)" xlink:href="#linear-gradient-17"/><linearGradient id="linear-gradient-24" x1="86.29" y1="101.26" x2="78.49" y2="109.07" gradientTransform="matrix(1, 0, 0, 1, 0, 0)" xlink:href="#linear-gradient-17"/><radialGradient id="radial-gradient-13" cx="87.86" cy="85.39" r="93.89" gradientUnits="userSpaceOnUse"><stop offset="0.03" stop-color="#ffdc7d"/><stop offset="0.18" stop-color="#fdd676"/><stop offset="0.4" stop-color="#f8c464"/><stop offset="0.66" stop-color="#efa846"/><stop offset="0.75" stop-color="#e89d3c"/><stop offset="0.92" stop-color="#d57f20"/><stop offset="0.97" stop-color="#cf7516"/></radialGradient><radialGradient id="radial-gradient-14" cx="95.76" cy="102.11" r="64.3" gradientUnits="userSpaceOnUse"><stop offset="0" stop-color="#ffc266"/><stop offset="0.22" stop-color="#fcbc5f"/><stop offset="0.54" stop-color="#f2ad4d"/><stop offset="0.91" stop-color="#e2932f"/><stop offset="1" stop-color="#de8c26"/></radialGradient></defs><g id="Layer_2" data-name="Layer 2"><g id="Layer_1-2" data-name="Layer 1"><path d="M186.64,123.74,139.69,35.82a15.65,15.65,0,0,0-21.15-6.42L13.7,85.4a15.63,15.63,0,0,0-6.43,21.14l47,87.92a15.65,15.65,0,0,0,21.15,6.42l104.85-56A15.64,15.64,0,0,0,186.64,123.74Z" style="fill:#bd7d00"/><path d="M74.61,199.23a14,14,0,0,1-19-5.76L8.89,105.9a14,14,0,0,1,5.76-19L119.3,31.06a14,14,0,0,1,19,5.76L185,124.38a14,14,0,0,1-5.76,19Z" style="fill:url(#linear-gradient)"/><path d="M87,126.64A13.77,13.77,0,1,0,68.39,121,13.77,13.77,0,0,0,87,126.64Z" style="fill:#ffe98c"/><path d="M122.16,110a8.14,8.14,0,1,0-3.35,11A8.14,8.14,0,0,0,122.16,110Z" style="fill:#ffe98c"/><path d="M91.62,172.46A13.77,13.77,0,1,0,73,166.8,13.78,13.78,0,0,0,91.62,172.46Z" style="fill:#ffe98c"/><path d="M101.52,82a13.77,13.77,0,1,0,5.66-18.64A13.78,13.78,0,0,0,101.52,82Z" style="fill:#ffe98c"/><path d="M144.71,136.29a13.15,13.15,0,1,0,5.41-17.79A13.16,13.16,0,0,0,144.71,136.29Z" style="fill:#ffe98c"/><path d="M57.93,63.83l-29,15.5a17.5,17.5,0,0,0,29-15.5Z" style="fill:#ffe98c"/><path d="M123.62,154a18.14,18.14,0,0,0-8,23.39l31.94-17.06A18.15,18.15,0,0,0,123.62,154Z" style="fill:#ffe98c"/><path d="M93.62,48.59A8,8,0,0,0,91.38,46L78.32,53a8,8,0,0,0,.94,3.31,8.14,8.14,0,1,0,14.36-7.67Z" style="fill:#ffe98c"/><path d="M47,104.75a13.15,13.15,0,1,0-5.41,17.79A13.15,13.15,0,0,0,47,104.75Z" style="fill:#ffe98c"/><path d="M144.42,79.92c3.47,6.5,13.11,9.86,20.47,6.79L150,58.91C143.09,64.48,141,73.43,144.42,79.92Z" style="fill:#ffe98c"/><path d="M89.61,125.26A13.77,13.77,0,1,0,71,119.6,13.78,13.78,0,0,0,89.61,125.26Z" style="fill:url(#linear-gradient-2)"/><path d="M124.74,108.63a8.14,8.14,0,1,0-3.35,11A8.15,8.15,0,0,0,124.74,108.63Z" style="fill:url(#linear-gradient-3)"/><path d="M94.2,171.08a13.77,13.77,0,1,0-18.64-5.66A13.77,13.77,0,0,0,94.2,171.08Z" style="fill:url(#linear-gradient-4)"/><path d="M104.09,80.62A13.78,13.78,0,1,0,109.75,62,13.78,13.78,0,0,0,104.09,80.62Z" style="fill:url(#linear-gradient-5)"/><path d="M64.08,186.46A8.13,8.13,0,0,0,51,184.71l4.68,8.76A14,14,0,0,0,59.51,198a8.24,8.24,0,0,0,1.23-.52A8.13,8.13,0,0,0,64.08,186.46Z" style="fill:url(#linear-gradient-6)"/><path d="M147.29,134.92a13.15,13.15,0,1,0,5.41-17.79A13.15,13.15,0,0,0,147.29,134.92Z" style="fill:url(#linear-gradient-7)"/><path d="M60.51,62.46,31.5,78a17.51,17.51,0,0,0,29-15.49Z" style="fill:url(#linear-gradient-8)"/><path d="M126.2,152.57a18.17,18.17,0,0,0-8,23.4l32-17.07A18.18,18.18,0,0,0,126.2,152.57Z" style="fill:url(#linear-gradient-9)"/><path d="M96.19,47.21A8.11,8.11,0,0,0,94,44.59l-13.06,7a8.14,8.14,0,1,0,15.29-4.36Z" style="fill:url(#linear-gradient-10)"/><path d="M49.52,103.37a13.15,13.15,0,1,0-5.4,17.8A13.15,13.15,0,0,0,49.52,103.37Z" style="fill:url(#linear-gradient-11)"/><path d="M45.27,143.26a13.77,13.77,0,0,0-18.64-5.66L26,138l13,24.24c.21-.1.43-.19.64-.3A13.78,13.78,0,0,0,45.27,143.26Z" style="fill:url(#linear-gradient-12)"/><path d="M147,78.55a15.64,15.64,0,0,0,17.69,7.77l-14.32-26.8A15.66,15.66,0,0,0,147,78.55Z" style="fill:url(#linear-gradient-13)"/><path d="M178,138.49a58.67,58.67,0,1,1-58.67-58.66A58.66,58.66,0,0,1,178,138.49Z" style="fill:#ff7d40"/><path d="M177.22,138.49a57.85,57.85,0,1,1-57.85-57.85A57.85,57.85,0,0,1,177.22,138.49Z" style="fill:#f82100"/><path d="M175.69,138.49a56.32,56.32,0,1,1-56.32-56.32A56.31,56.31,0,0,1,175.69,138.49Z" style="fill:url(#radial-gradient)"/><path d="M133.85,92.1c-4-.87-7.67-.91-8,1.78s-1.69,13.79-2.62,23.86c.41,3.33,2.35,4.89,3.23,1.89,1.06-3.61,3.44-9.61,4.45-6.43s3.08,5.41,5.66,5.2,2,1.21,2.09,3.11a13.38,13.38,0,0,0,1.06,5.16,13.33,13.33,0,0,0,3.9,3.55c1.57,1.08,3.11,1.27,1.61,3.38s-.64,5,1.57,7.53-4.15,1.47-7.8.54c-2.95-.76-2.68,1.57-.21,3.59,9.3,4.27,19.75,8.67,22.41,9.79s4.55-2.67,5.79-6.94a49.19,49.19,0,0,0,1-9.62A48.61,48.61,0,0,0,133.85,92.1Zm20.9,74.2c-2.32-1.73-11.48-8.6-19.91-14.49-2.86-1-4.85-.1-2.79,2,2.62,2.71,6.66,7.74,3.39,7.05s-6.23,0-7.32,2.35-2,1.11-3.74.28a13.21,13.21,0,0,0-5-1.64,13.33,13.33,0,0,0-5,1.64c-1.71.83-2.64,2.07-3.74-.28s-4-3-7.31-2.35.77-4.34,3.39-7.05c2.1-2.18,0-3.1-3-2-8.4,5.88-17.51,12.71-19.82,14.43-2.15,1.6-.36,4.71,2.31,7.7a48.57,48.57,0,0,0,65.73.52C154.89,171.38,157,168,154.75,166.3Zm-55-24.63c-3.65.93-10,2-7.81-.54s3.08-5.42,1.58-7.53,0-2.3,1.61-3.38a13.46,13.46,0,0,0,3.9-3.55,13.37,13.37,0,0,0,1-5.16c.13-1.9-.49-3.33,2.09-3.11s4.65-2,5.66-5.2,3.39,2.82,4.45,6.43c.88,3,2.8,1.45,3.23-1.83-.93-10.09-2.28-21.1-2.62-23.92s-4-2.65-8-1.78a48.57,48.57,0,0,0-32.94,57c1.23,3.86,3,7.05,5.5,6,2.67-1.13,13.24-5.58,22.59-9.87C102.43,143.18,102.65,140.92,99.75,141.67Z" style="fill:#ff8d69"/><path d="M133.35,93.72c-3.85-.83-7.4-.87-7.72,1.73s-1.63,13.31-2.52,23c.4,3.2,2.27,4.71,3.12,1.82,1-3.49,3.31-9.28,4.3-6.21s3,5.22,5.46,5,1.9,1.17,2,3a12.69,12.69,0,0,0,1,5,12.76,12.76,0,0,0,3.76,3.42c1.52,1,3,1.23,1.56,3.27s-.62,4.85,1.52,7.27-4,1.42-7.54.52c-2.84-.73-2.59,1.52-.2,3.47,9,4.12,19.08,8.37,21.63,9.45s4.41-2.58,5.6-6.7a47,47,0,0,0-32-54.09Zm20.19,71.65c-2.25-1.67-11.1-8.3-19.23-14-2.76-1-4.69-.09-2.7,2,2.53,2.62,6.43,7.47,3.28,6.81s-6,0-7.07,2.27-2,1.06-3.61.26a13,13,0,0,0-4.84-1.58,12.91,12.91,0,0,0-4.83,1.58c-1.66.8-2.56,2-3.61-.26s-3.91-2.94-7.07-2.27.75-4.19,3.27-6.81c2-2.1,0-3-2.85-1.91-8.11,5.67-16.91,12.27-19.14,13.93-2.07,1.55-.35,4.55,2.23,7.43a46.87,46.87,0,0,0,63.47.5C153.66,170.27,155.73,167,153.54,165.37Zm-53.12-23.78c-3.52.9-9.68,1.89-7.54-.52s3-5.23,1.53-7.27,0-2.23,1.55-3.27a12.8,12.8,0,0,0,3.77-3.42,13.06,13.06,0,0,0,1-5c.12-1.83-.48-3.21,2-3s4.49-2,5.47-5,3.27,2.72,4.3,6.21c.84,2.88,2.7,1.4,3.11-1.77-.89-9.74-2.2-20.37-2.53-23.09s-3.87-2.56-7.71-1.73a46.9,46.9,0,0,0-31.81,55c1.19,3.72,2.92,6.8,5.32,5.78,2.57-1.09,12.78-5.39,21.81-9.54C103,143.05,103.23,140.87,100.42,141.59Z" style="fill:url(#radial-gradient-2)"/><path d="M139.8,129.84a9.78,9.78,0,0,1-1.82-2l-.07-.13a14.16,14.16,0,0,1-1.15-5.45c0-.39,0-.75,0-1.09s0-.57,0-.76a4.28,4.28,0,0,0-.63,0c-2.82.24-5.21-1.73-6.52-5.18a20.09,20.09,0,0,0-1.34,3c-.2.57-.4,1.2-.57,1.79a6.07,6.07,0,0,1-.25.67c-.62,2.12-1.79,2.44-2.43,2.44-1.56,0-2.78-1.75-3.12-4.46v-.27c.84-9.16,2-19.21,2.45-22.51l.3-2.13c.15-1.27,1-3.41,5.1-3.41a21.13,21.13,0,0,1,4.39.56l.11,0a49.55,49.55,0,0,1,31.72,29.75c.4,1,1,2.76,3.55,1.24,1.65-1,2.42-1.93,1.78-3.67A55.71,55.71,0,1,0,69.38,163.06C71.43,167,88.71,156.6,109.79,145a182.11,182.11,0,0,1,27.41-12c.91-.32,2.48-.87,3-1.59C140.56,130.83,140.08,130.09,139.8,129.84Zm-37.14-9.48a4.26,4.26,0,0,0-.63,0c0,.19,0,.51,0,.76a10.13,10.13,0,0,1,0,1.09,14,14,0,0,1-1.14,5.45l-.08.13a13.94,13.94,0,0,1-4.1,3.77c-.32.22-.63.4-.92.57s-.49.29-.65.4a3.06,3.06,0,0,0,.33.54c1.6,2.25,1.16,5.37-1.13,8.25a13.27,13.27,0,0,0,1.41-.1c1.12-.17,2.5-.45,3.73-.76a5.05,5.05,0,0,1,1.15-.18,4.6,4.6,0,0,1,.79-.08,2.2,2.2,0,0,1,2.22,1.37c.46,1.25-.32,2.89-2.08,4.36l-.13.11-.15.07c-8.56,3.93-18.2,8-21.36,9.35l-.49.2a3.19,3.19,0,0,1-.64.2l-.8.34a3.65,3.65,0,0,1-1.43.31h0c-2.35,0-4.24-2.31-5.75-7.07l0-.11a49.81,49.81,0,0,1,33.79-58.42l.1,0a21.21,21.21,0,0,1,4.4-.56c4.08,0,5,2.14,5.1,3.41l.13,1.1a2.62,2.62,0,0,1,.09.47l.07.56c.4,3.31,1.62,13.38,2.46,22.56v.28c-.35,2.67-1.57,4.4-3.11,4.4-.65,0-1.82-.32-2.44-2.44h0a4.49,4.49,0,0,1-.24-.67c-.17-.58-.37-1.2-.58-1.8a20.58,20.58,0,0,0-1.33-3C107.86,118.63,105.46,120.6,102.66,120.36Z" style="fill:url(#linear-gradient-14)"/><path d="M125.4,166.14c-.9.14-3.05,4.41-2.72,6.52a3.7,3.7,0,1,0,7.31-1.14C129.65,169.4,126.7,165.94,125.4,166.14Zm-27.93-2.61a3.7,3.7,0,1,0,5.61,4.82c1.39-1.62,1.8-6.39,1.12-7C103.2,160.52,98.86,161.91,97.47,163.53Zm16,2.61c-1.3-.2-4.26,3.26-4.59,5.38a3.7,3.7,0,1,0,7.31,1.14C116.47,170.55,114.31,166.28,113.42,166.14Zm21.2-4.77c-.68.59-.27,5.36,1.12,7a3.7,3.7,0,1,0,5.61-4.82C140,161.91,135.62,160.52,134.62,161.37Zm-46.68-37a3.7,3.7,0,1,0-2.6,6.92c2,.75,6.47-.11,6.93-1.35C92.59,129.12,89.94,125.14,87.94,124.39Zm7.82-11.49a3.7,3.7,0,1,0-4.6,5.79c1.67,1.33,6.45,1.56,7,.85C99,118.51,97.43,114.23,95.76,112.9Zm7.75-8.35a3.8,3.8,0,0,0-2.17,4.9c.73,2,4.67,4.72,5.53,4.41,1.23-.45,2.16-4.91,1.43-6.92A3.79,3.79,0,0,0,103.51,104.55ZM85.26,137.88a3.7,3.7,0,1,0,1.43,7.25c2.1-.41,5.45-3.5,5.19-4.79C91.71,139.45,87.35,137.46,85.26,137.88Zm68.09-6.57a3.7,3.7,0,1,0-2.6-6.92c-2,.75-4.65,4.73-4.34,5.57C146.87,131.2,151.35,132.06,153.35,131.31Zm-16-21.86a3.7,3.7,0,1,0-7-2.51c-.73,2,.2,6.47,1.43,6.92C132.67,114.17,136.62,111.46,137.35,109.45Zm16.08,28.43c-2.1-.42-6.45,1.57-6.62,2.46-.26,1.29,3.09,4.38,5.19,4.79a3.7,3.7,0,1,0,1.43-7.25Zm-5.17-24.49a3.78,3.78,0,0,0-5.33-.49c-1.68,1.33-3.23,5.61-2.42,6.64.57.71,5.35.48,7-.85A3.78,3.78,0,0,0,148.26,113.39Z" style="fill:#e86900"/><path d="M134.16,105.26a1.7,1.7,0,0,0-.59-.1,2,2,0,0,0-1.87,1.4,8,8,0,0,0,.37,4.23c1.09-.62,2.84-2,3.17-3A2,2,0,0,0,134.16,105.26ZM135.7,162c0,1.25.38,3.46,1,4.2a2.14,2.14,0,0,0,1.61.75,1.76,1.76,0,0,0,1.16-.42,1.81,1.81,0,0,0,.62-1.28,2.1,2.1,0,0,0-.53-1.5A7.9,7.9,0,0,0,135.7,162Zm-10.27,5.3c-.66,1.06-1.51,3.15-1.36,4.11a2,2,0,0,0,2.18,1.74,1.82,1.82,0,0,0,1.2-.77,2.1,2.1,0,0,0,.34-1.55A7.91,7.91,0,0,0,125.43,167.27ZM145,112.85a2.19,2.19,0,0,0-1.34.47,8.07,8.07,0,0,0-1.91,3.79h.33a8,8,0,0,0,3.92-.85,2.12,2.12,0,0,0,.8-1.38,1.79,1.79,0,0,0-.36-1.37A1.82,1.82,0,0,0,145,112.85Zm9,26.67a2.11,2.11,0,0,0-1.34-.86,1.35,1.35,0,0,0-.28,0,9.63,9.63,0,0,0-3.88,1.21,7.93,7.93,0,0,0,3.43,2.5,2,2,0,0,0,2.38-1.45A1.8,1.8,0,0,0,154,139.52Zm-1.71-10.91a2.14,2.14,0,0,0,1.19-1.06,1.8,1.8,0,0,0,.07-1.42,1.89,1.89,0,0,0-1.8-1.19,2.08,2.08,0,0,0-.78.15c-.91.34-2.3,2.1-2.91,3.19a9.09,9.09,0,0,0,2.94.5A3.71,3.71,0,0,0,152.31,128.61ZM94.23,113.32a2.21,2.21,0,0,0-1.34-.47,1.77,1.77,0,0,0-1.8,2,2.12,2.12,0,0,0,.8,1.38,8,8,0,0,0,3.92.85h.32A8.06,8.06,0,0,0,94.23,113.32ZM86.9,125.09a2.16,2.16,0,0,0-.78-.15,1.89,1.89,0,0,0-1.81,1.19,1.81,1.81,0,0,0,.08,1.42,2.14,2.14,0,0,0,1.19,1.06,3.66,3.66,0,0,0,1.29.17h0a9.09,9.09,0,0,0,2.94-.5C89.2,127.19,87.8,125.43,86.9,125.09Zm23.32,45.71a2.16,2.16,0,0,0,.35,1.55,1.8,1.8,0,0,0,1.19.77,2,2,0,0,0,2.18-1.74c.15-1-.7-3-1.35-4.11A8,8,0,0,0,110.22,170.8Zm-5.91-65.64a1.7,1.7,0,0,0-.59.1,2,2,0,0,0-1.07,2.57c.33.92,2.08,2.34,3.17,3a8.06,8.06,0,0,0,.37-4.23A2,2,0,0,0,104.31,105.16Zm-6.39,60.06a1.8,1.8,0,0,0,.61,1.28,1.77,1.77,0,0,0,1.17.42,2.12,2.12,0,0,0,1.6-.75c.63-.74,1-2.95,1-4.2a7.9,7.9,0,0,0-3.87,1.75A2.14,2.14,0,0,0,97.92,165.22ZM85.21,138.66a2.09,2.09,0,0,0-1.34.86,1.72,1.72,0,0,0-.31,1.38,1.93,1.93,0,0,0,1.94,1.49h0a2.18,2.18,0,0,0,.44,0,7.93,7.93,0,0,0,3.43-2.5,9.63,9.63,0,0,0-3.88-1.21A1.35,1.35,0,0,0,85.21,138.66Z" style="fill:#ffb500"/><path d="M131.89,131.66c-2.49-2.88-25.44-17.38-38.41-8.83s-6.14,21.32-4.22,18.82,6.14-7.3,6.14-7.3,8.45,8.07,10.47,5.86,5.28-5.28,5.57-5.57,6.53-.57,6.53-.57c1.15,4.41,7.4,9.89,8.93,8.35S134.39,134.55,131.89,131.66Zm48-24s-6.81-9.47-4.22-13.79,11.56-7,12.68-8-.48-3.06-1.54-3.73-15.56,1-16.62,3-7.68,26.12-5.18,26.5,10.36,4.78,11.68,4.48S179.91,107.62,179.91,107.62ZM107.44,2.72c-.67-1.05-2.79-2.65-3.73-1.53s-3.67,10.08-8,12.67S81.93,9.64,81.93,9.64s-8.16,1.89-8.45,3.2S77.57,22,78,24.52s24.49-4.13,26.5-5.18S108.11,3.78,107.44,2.72ZM57.89,57.66c-2.89-2.5-9.22,3.45-10.76,5s3.94,7.78,8.35,8.93c0,0-.28,6.24-.57,6.53s-3.36,3.55-5.57,5.57S55.2,94.15,55.2,94.15s-4.8,4.22-7.3,6.14S58.18,109,66.72,96.07,60.77,60.15,57.89,57.66Z" style="fill:#0a5c00"/><path d="M176,115.82c2.52,1.65,7-5.62,8.42-10.75s-3.6-.11-3.41-8.64,4.09-12.9,6.62-10.8,3-10.91-2.45-13.78-5.75-11.41-3.62-15.39-1.89-2.75-6.91-5.15-3-9.08.28-12.8c1.55-1.77,0-6.94-8.74-15.7C158.94,15.54,152.7,13,151,14.53c-3.72,3.25-10.39,5.29-12.8.27S137,5.78,133,7.9,120.5,9.76,117.63,4.28s-15.88-5-13.78-2.45-2.27,6.44-10.8,6.62S89.53,3.62,84.41,5,72,10.94,73.66,13.46s7.75,3.39,5.84,7.15-7,6.52-9.55,3.52-7.28-2.92-7.6,1.11S62,34,57.52,36.09s-11,7.75-10.18,12,4.47-.76,4.77,8.69-5.06,3.66-5.64,6.56-1,10.75,2.89,13.34,4.92,6.67,1.33,6.56-3.83,7.07-.19,8.53,3.2,8.86.5,8.77-3.42-1.67-4.67,1.43-.7,6.27.92,7.89-3.06,2.6-3.06,2.6-.72,5.82,11.1,17.65l4,4C71.16,146,77,145.29,77,145.29s1-4.68,2.6-3.06,4.78,2.17,7.89.92,1.51-2,1.42-4.67,7.32-3.14,8.78.5,8.64,3.41,8.53-.19,4-2.57,6.56,1.33,10.44,3.47,13.34,2.89-2.88-5.93,6.56-5.64,4.39,4,8.69,4.77,9.93-5.76,12-10.19,6.83-4.5,10.86-4.82,4.11-5,1.11-7.6-.24-7.65,3.52-9.55S173.5,114.17,176,115.82Z" style="fill:url(#linear-gradient-15)"/><path d="M164.09,125.23c1-.08,1.23-.51,1.35-.82a3.47,3.47,0,0,0-1.33-3.43,5.57,5.57,0,0,1-1.86-5.31,11,11,0,0,1,5.76-7.4,4.35,4.35,0,0,1,5.37.85,14,14,0,0,1,2,2.79,10,10,0,0,0,1.55,2.2c1.34-.52,4.45-5.08,5.68-9.55a4.62,4.62,0,0,0,.15-.65,5.28,5.28,0,0,1-1.89-1.17c-1.25-1.25-1.81-3.27-1.74-6.35.13-6.33,2.26-11.35,5.41-12.79a4,4,0,0,1,2.95-.21c.31-2.23-.13-7-2.32-9.21a3.39,3.39,0,0,0-.85-.64A9.62,9.62,0,0,1,182,71.82c-4.13-4.13-4.41-11.89-2.08-16.25a5.18,5.18,0,0,0,.24-.5c-.38-.12-1-.28-1.45-.4A24.58,24.58,0,0,1,173.85,53a7.47,7.47,0,0,1-2.08-1.46c-3.6-3.6-1.94-10.11,1.74-14.32.35-.52-.08-4.52-8.65-13.09C158,17.25,153.14,15.78,152.15,16c-4.21,3.64-10.66,5.26-14.25,1.68a7.44,7.44,0,0,1-1.45-2.08,24.8,24.8,0,0,1-1.64-4.83c-.12-.47-.27-1.06-.41-1.45l-.49.24c-4.37,2.33-12.12,2.05-16.25-2.08a9.48,9.48,0,0,1-1.72-2.35,3.53,3.53,0,0,0-.64-.84c-2.19-2.2-7-2.63-9.21-2.33a4,4,0,0,1-.21,3c-1.44,3.15-6.46,5.28-12.79,5.41-3.08.07-5.1-.49-6.35-1.74a5.28,5.28,0,0,1-1.17-1.89,5,5,0,0,0-.66.15c-4.47,1.23-9,4.34-9.54,5.68a9.65,9.65,0,0,0,2.2,1.55,13.93,13.93,0,0,1,2.79,2,4.37,4.37,0,0,1,.85,5.38,11,11,0,0,1-7.41,5.76,5.59,5.59,0,0,1-5.3-1.86A3.47,3.47,0,0,0,65.07,24c-.31.12-.74.38-.82,1.35l0,.74c-.3,3.9-.7,9.23-5.86,11.69C53.8,40,48.7,45,49.22,47.78a1.75,1.75,0,0,0,.18.59l.41.12A4.85,4.85,0,0,1,52,49.71c1.27,1.27,1.86,3.38,2,7,.11,3.32-.44,5.43-1.72,6.63a4.8,4.8,0,0,1-4,1h-.05c-.51,3.23-.32,8.32,1.7,10.33a2.55,2.55,0,0,0,.48.4,13.46,13.46,0,0,1,2,1.59c2.11,2.11,2.93,4.54,2.15,6.35a3.76,3.76,0,0,1-3.9,2.12c-.11,0-.34,0-.58.55a4,4,0,0,0,.63,3.93,1.58,1.58,0,0,0,.54.37A5.35,5.35,0,0,1,53,91.21c2.26,2.26,2.51,6.32,1.45,8.77a3.74,3.74,0,0,1-3.5,2.51,10.38,10.38,0,0,1-2.32-.36l-.23,0a6.91,6.91,0,0,0-.29.65c-1,2.49-.51,4.82.5,5.82a2.74,2.74,0,0,1,.79,2.77c-.39,1.29-1.71,2.09-3.12,2.59C46.8,116,48.83,121,56.64,128.8l4,4c7.78,7.79,12.74,9.83,14.89,10.37.5-1.41,1.3-2.73,2.59-3.11a2.74,2.74,0,0,1,2.77.79c1,1,3.33,1.5,5.82.5a6.91,6.91,0,0,0,.65-.29c0-.08,0-.16-.05-.23a10.38,10.38,0,0,1-.36-2.32A3.73,3.73,0,0,1,89.5,135c2.45-1.06,6.5-.81,8.76,1.45a5.13,5.13,0,0,1,1.18,1.78,1.68,1.68,0,0,0,.37.54,4,4,0,0,0,3.93.63c.56-.24.55-.47.55-.59a3.76,3.76,0,0,1,2.12-3.89c1.81-.78,4.24,0,6.34,2.15a12.88,12.88,0,0,1,1.6,2,3.42,3.42,0,0,0,.39.48c2,2,7.11,2.2,10.34,1.7,0,0,0,0,0-.05a4.8,4.8,0,0,1,1-4c1.2-1.28,3.31-1.83,6.63-1.72,3.67.11,5.78.7,7.05,2a4.94,4.94,0,0,1,1.22,2.23,4,4,0,0,0,.15.43,1.8,1.8,0,0,0,.56.16c2.77.52,7.8-4.58,10-9.12,2.45-5.16,7.79-5.56,11.68-5.86Z" style="fill:url(#radial-gradient-3)"/><path d="M181,86.13s-3.69,7.45-2.26,11.87c1.08,3.32-7.12-3.26-14.63-6.13-7.08-2.71-14.91-5-7.4-5.47s15-.55,18.44-.49S181.83,84.57,181,86.13Z" style="fill:#85c70d"/><path d="M168,107.7s-5.35,2-6.1,7.19c-.5,3.45-2.26.17-14-7-6.47-3.94-11.51-7.34-4.06-6.31,6.32.88,13.7,1.81,17.1,2.55C166.29,105.32,169.49,106.74,168,107.7Z" style="fill:#92ce19"/><path d="M135.65,135c-2.19-.73-6-.75-7.38.13s-1.25,1.25-3.89-4.64-11.14-16.4-4.25-12a77.81,77.81,0,0,1,15.65,13.65C137.78,134.6,139,136.11,135.65,135Z" style="fill:#98d41c"/><path d="M95,124.59a69,69,0,0,1,2.13,9.14c.25,1.25-1.25-.25-3.88.12s-4.51,1.76-4.13-1.37S89.29,107.58,95,124.59Z" style="fill:#9fd821"/><path d="M178,65.8c1,4.52,3.08,5.47,1.18,5.94S167.32,74,159.56,76s-21.62,7.21-9.43-1.19a161.37,161.37,0,0,1,25.19-14.09C177.38,59.78,177.06,61.61,178,65.8Z" style="fill:#92ce19"/><path d="M169.3,46.48a8.14,8.14,0,0,0,1.35,4.83c.79.95.63,1.75-2,2.62s-11.72,4.91-16.4,6.73-13.15,8.08-5.62.55,20-16.24,21.46-16.87S169.3,44.74,169.3,46.48Z" style="fill:#92ce19"/><path d="M103.86,9S96.4,12.7,92,11.27c-3.32-1.08,3.26,7.12,6.13,14.62,2.7,7.08,5,14.92,5.47,7.4s.54-15,.49-18.43S105.42,8.16,103.86,9Z" style="fill:#85c70d"/><path d="M82.28,22s-2,5.35-7.19,6.1c-3.45.51-.16,2.26,7,14,3.94,6.47,7.35,11.51,6.31,4-.88-6.31-1.8-13.69-2.55-17.09C84.67,23.7,83.24,20.49,82.28,22Z" style="fill:#92ce19"/><path d="M55,54.33c.73,2.19.75,6-.13,7.39S53.63,63,59.51,65.6s16.41,11.14,12,4.26A77.83,77.83,0,0,0,57.89,54.21C55.38,52.2,53.88,51,55,54.33Z" style="fill:#98d41c"/><path d="M65.4,95a67.77,67.77,0,0,0-9.14-2.13c-1.25-.25.25,1.25-.13,3.88s-1.75,4.51,1.38,4.13S82.41,100.7,65.4,95Z" style="fill:#9fd821"/><path d="M124.18,12c-4.51-1-5.46-3.09-5.94-1.19S116,22.66,114,30.43s-7.2,21.62,1.19,9.42a160.9,160.9,0,0,0,14.1-25.19C130.2,12.6,128.38,12.93,124.18,12Z" style="fill:#92ce19"/><path d="M143.51,20.68a8.12,8.12,0,0,1-4.83-1.34c-1-.8-1.75-.64-2.62,2S131.15,33,129.33,37.71s-8.08,13.15-.55,5.63,16.23-20,16.86-21.47S145.25,20.68,143.51,20.68Z" style="fill:#92ce19"/><path d="M144.06,123.12c-.63-3.38-5.25-7.76-8.63-10.38s4.5-3,11.26-.75,7.13,1.12,1.87-.88S136.43,109,133.17,109s-6.75-2-12.63-4.13-18.77-3-15.77-5a34.29,34.29,0,0,1,23.9-4.63c11.39,2.13,16.14,4.88,21.77,5s13.27,2.51,10,.76-9-2.26-12-2.51-9.64-1.62-8.76-3,7.38-3.63,12.89-3.63,6.76-1-.13-1.37-10.51,1.75-13.39,2.87-3.87.88-8.38-.12S114,92.59,116,91.09s8.26-4.25,14.14-5.38,15.52-2.5,10.14-2.63A74.36,74.36,0,0,0,124.17,85c-4.76,1-5.14.13.87-4.88S139.18,73.7,144.43,73s8-2.75,12.39-6.63,3.75-4.6-.13-1.23a26.74,26.74,0,0,1-12.29,6.52c-4.38.88-7.35.71-5.35-3.29s4.76-8.26,7.51-10.76-1.25-.5-4.13,2.88-4.93,8.3-6.31,10.42-5.28,2.77-9.78,5.52-5,.7-2.3-2,7-8.51,11.76-11.76,6.6-5.85,8.94-10.35,8.1-6.12,13-8,1.89-1.53-1.17-.45-7,2.16-4-1.8,3.24-5.58.72-2.16-3.87,5.31-5.94,7.2a18.13,18.13,0,0,0-5.4,7.38c-1.26,3.42-5.45,5-9,8.2s-10.57,10.34-11.82,10a7.42,7.42,0,0,0-.89-.21c-.34-.39-.32-1,.34-1.86C121.86,69,129.51,60.37,132.75,57s1.32-2.7-.85-.54S120.39,68.25,119.08,69.1c-1,.67-1.72.8-2.16.13a9.28,9.28,0,0,0-.26-1.17c-.36-1.26,6.74-8.22,10-11.82s4.78-7.8,8.2-9.06a18.13,18.13,0,0,0,7.38-5.4c1.89-2.07,3.78-3.42,7.2-5.94s1.8-2.34-2.16.72-2.88-.9-1.8-4,1.44-6.12-.45-1.17-3.51,10.71-8,13-7.09,4.19-10.34,8.94-9,9-11.76,11.76-4.81,2.21-2.06-2.3,3.39-8.4,5.52-9.78,7-3.43,10.42-6.31,5.39-6.88,2.88-4.13-6.75,5.51-10.76,7.51-4.17-1-3.29-5.35a26.74,26.74,0,0,1,6.52-12.29c3.38-3.88,2.65-4.51-1.23-.13s-5.88,7.14-6.63,12.39-2.12,13.39-7.13,19.39-5.88,5.63-4.88.88a73.89,73.89,0,0,0,1.88-16.14c-.13-5.38-1.5,4.25-2.63,10.13s-3.88,12.14-5.38,14.14S97,63.06,96,58.55s-1.25-5.5-.12-8.38,3.25-6.51,2.88-13.39-1.38-5.63-1.38-.13-2.25,12-3.63,12.89-2.75-5.75-3-8.76-.75-8.75-2.5-12,.62,4.38.75,10,2.87,10.39,5,21.77a34.29,34.29,0,0,1-4.63,23.9c-2,3-2.87-9.88-5-15.76s-4.13-9.39-4.13-12.64-.13-10.14-2.13-15.39-3.13-4.88-.87,1.87,1.87,14.64-.76,11.27-7-8-10.38-8.64,3.25.25,10.76,12.27,9.92,27.91,6.68,33.31S79.49,93.17,79,88.31,74.09,77,70,74.54s.81,1.89,4.59,7.83S77.78,97,72.38,103.16c-4.34,4.92-18,13.58-23.19,16.77a58,58,0,0,0,7.45,8.87l4,4a59.46,59.46,0,0,0,8.57,7.27c3.16-5.12,11.87-18.9,16.82-23.26,6.11-5.4,14.85-6,20.79-2.25s10.26,8.64,7.82,4.59-8.9-8.37-13.76-8.91-7.83-1.35-2.43-4.59,21.3-.83,33.31,6.68S144.69,126.5,144.06,123.12Z" style="fill:url(#radial-gradient-4)"/><path d="M64.63,136.52c4.55-6.15,9.17-12.49,24.72-28.68,18.29-19,.77-4.21-5.63,2.2s-3.49,1.81,9.64-12.29c7.55-8.1,13.3-13.37,12.51-14.17-1-1-3.92,2.46-13.84,11.7C77.93,108.4,72.77,111.9,79.18,105.5S100,82,81.38,99.86C65.6,115,59.21,119.77,52.75,124.6c1.11,1.3,2.39,2.69,3.89,4.2l4,4C62.09,134.24,63.41,135.46,64.63,136.52Z" style="fill:#bbe154"/><circle cx="65.05" cy="87.15" r="65.05" transform="translate(-24.77 148.45) rotate(-87.57)" style="fill:#e380b5"/><path d="M128.93,87.15A63.88,63.88,0,1,1,65.05,23.27,63.88,63.88,0,0,1,128.93,87.15Z" style="fill:#a65073"/><path d="M127.85,87.15a62.8,62.8,0,1,1-62.8-62.8A62.8,62.8,0,0,1,127.85,87.15Z" style="fill:url(#radial-gradient-5)"/><path d="M127.85,87.15a62.8,62.8,0,1,1-62.8-62.8A62.8,62.8,0,0,1,127.85,87.15Z" style="fill:url(#radial-gradient-6)"/><path d="M120.57,87.15A55.52,55.52,0,1,1,65.05,31.63,55.52,55.52,0,0,1,120.57,87.15Z" style="fill:#a65073"/><path d="M119.42,87.15A54.37,54.37,0,1,1,65.05,32.78,54.37,54.37,0,0,1,119.42,87.15Z" style="fill:url(#radial-gradient-7)"/><path d="M111.49,87.15A46.44,46.44,0,1,1,65.05,40.71,46.44,46.44,0,0,1,111.49,87.15Z" style="fill:#a65073"/><path d="M110.43,87.15A45.38,45.38,0,1,1,65.05,41.77,45.38,45.38,0,0,1,110.43,87.15Z" style="fill:url(#radial-gradient-8)"/><circle cx="65.05" cy="87.15" r="36.5" transform="translate(-36.74 125.42) rotate(-73.86)" style="fill:#a65073"/><path d="M100.39,87.15A35.34,35.34,0,1,1,65.05,51.81,35.33,35.33,0,0,1,100.39,87.15Z" style="fill:url(#radial-gradient-9)"/><path d="M91.16,87.15A26.11,26.11,0,1,1,65.05,61,26.11,26.11,0,0,1,91.16,87.15Z" style="fill:#a65073"/><circle cx="65.05" cy="87.15" r="24.97" transform="translate(-22.87 151.15) rotate(-89.31)" style="fill:url(#radial-gradient-10)"/><path d="M81,87.15a15.9,15.9,0,1,1-15.9-15.9A15.9,15.9,0,0,1,81,87.15Z" style="fill:#a65073"/><path d="M69.77,73.26l-.53-.13c-2.92-.61-2.92,1.6-3.22,2.93a26.72,26.72,0,0,1-7.29,15.08c-3.93,4-5.47,4.64-3.83,6.59a0,0,0,0,1,0,0A14.67,14.67,0,1,0,69.77,73.26ZM63,82.13c1.42-3.33,2.33-8.19,1.42-9.51a.43.43,0,0,0-.12-.11A14.66,14.66,0,0,0,52.11,94.08c.56.26,1.36-.26,3-1.43C58.33,90.33,61.56,85.47,63,82.13Z" style="fill:url(#radial-gradient-11)"/><path d="M69.76,86.58C68.94,89,67,91,65.92,92.45s1.1,2,3.61,1S73,89,72.09,86.58,70.27,85.07,69.76,86.58Z" style="fill:#a65073"/><path d="M70.58,87.87a11,11,0,0,1-2.63,4c-1.07,1-.48,1.16.49.77a3.84,3.84,0,0,0,2.66-3.19C71.38,87.84,70.75,87.17,70.58,87.87Z" style="fill:#e7a8be"/><path d="M107.23,129.33a1,1,0,1,0,1.47,0A1,1,0,0,0,107.23,129.33ZM65.05,25.43a1,1,0,0,0,0,2.07,1,1,0,1,0,0-2.07Zm0,121.37a1,1,0,0,0,0,2.07,1,1,0,1,0,0-2.07ZM21.41,129.33a1,1,0,0,0,0,1.46,1,1,0,1,0,0-1.46Zm0-85.83a1.05,1.05,0,0,0,0,1.47,1,1,0,1,0,0-1.47Zm85.82,0a1,1,0,1,0,1.47,0A1.05,1.05,0,0,0,107.23,43.5ZM4.37,86.11a1,1,0,1,0,0,2.07,1,1,0,0,0,0-2.07Zm121.37,0a1,1,0,1,0,0,2.07,1,1,0,0,0,0-2.07ZM9.88,109.76a1,1,0,1,0,1.33.53A1,1,0,0,0,9.88,109.76Zm.74-44.32A1,1,0,1,0,9.3,66,1,1,0,0,0,10.62,65.44ZM120.8,108.29a1,1,0,1,0,.57,1.32A1,1,0,0,0,120.8,108.29ZM88.2,141a1,1,0,1,0,1.33.53A1,1,0,0,0,88.2,141ZM42.44,32a1,1,0,1,0-1.86.8,1,1,0,0,0,1.86-.8Zm77.78,32.56a1,1,0,1,0-1.33-.54A1,1,0,0,0,120.22,64.54Zm-76.87,77a1,1,0,1,0,.57,1.32A1,1,0,0,0,43.35,141.58ZM88.08,32.15a1,1,0,0,0-.57-1.32,1,1,0,0,0-.75,1.89A1,1,0,0,0,88.08,32.15Z" style="fill:#de94b3"/><path d="M145.86,111.68c-1.31-1.86-1.43-4.5-.36-7.26,1.2-3.07.24-6.32-2.57-8.7-1.42-1.2-1-3.52-1-4,1.33-6.64-2.11-9.88-4.29-11.21s-3.18-3.55-2.92-6.66a7.37,7.37,0,0,0-2-5.47,7,7,0,0,0-4.48-2.53A4,4,0,0,1,125,62.68c-.32-2.07-2-4.39-5.83-4.65-.69,0-1-.56-1.77-2a11.64,11.64,0,0,0-4.35-5.14,12.49,12.49,0,0,0-7.54-1.78l-.73,0a3.55,3.55,0,0,1-1.36-.19,3.11,3.11,0,0,1-1.27-1.2,6.7,6.7,0,0,0-2.92-2.47A5.12,5.12,0,0,0,97,44.72a7.18,7.18,0,0,0-2,.36,2.16,2.16,0,0,1-1.29.15,4.55,4.55,0,0,1-1.11-.93,8.71,8.71,0,0,0-6-2.94,8.13,8.13,0,0,0-4.76.92,6.26,6.26,0,0,1-2.79.77,2.36,2.36,0,0,1-1.34-.6,5.08,5.08,0,0,0-3.09-1.11,6,6,0,0,0-1.72.26l-.57.19a4.47,4.47,0,0,1-1.27.32.48.48,0,0,1-.26,0,10.37,10.37,0,0,0-5.07-1.61,9,9,0,0,0-5.59,2.44,6.86,6.86,0,0,1-7.24,1.21,6.71,6.71,0,0,0-2.19-.36c-3.4,0-6.52,2.42-7.19,4.6a4,4,0,0,1-3.91,2.35l-.52,0c-2.47,0-4.51,1.68-5.46,4.49-.22.66-.8.84-2.41,1.2a11.63,11.63,0,0,0-6.07,2.91,12.43,12.43,0,0,0-3.62,6.84,5.61,5.61,0,0,1-.7,2,3.16,3.16,0,0,1-1.48.92,6.78,6.78,0,0,0-3.13,2.2,5.58,5.58,0,0,0-1.24,4.11c0,.67,0,1-.18,1.28a4.79,4.79,0,0,1-1.17.84,8.65,8.65,0,0,0-4.37,5.08A7.66,7.66,0,0,0,9,87.27a4.3,4.3,0,0,1,0,2.79,3.58,3.58,0,0,1-1.44,1.88l-.18.15a6.65,6.65,0,0,0-1.82,7.59,8.53,8.53,0,0,1-1.31,7.4c-2,2.87-2.53,8-1.23,12.29a19.68,19.68,0,0,0,1.85,4,16.39,16.39,0,0,1,2.47,10.78C7,139.24,8.45,142.64,12,144.83c2.23,1.37,3.18,3.55,2.92,6.66a7.44,7.44,0,0,0,2,5.47,7,7,0,0,0,4.49,2.53,4,4,0,0,1,3.27,3.19c.33,2.07,2,4.39,5.83,4.65.7,0,1,.56,1.77,2a11.64,11.64,0,0,0,4.35,5.14,12.49,12.49,0,0,0,7.54,1.78h.74a3.56,3.56,0,0,1,1.36.18,3.09,3.09,0,0,1,1.26,1.2,6.9,6.9,0,0,0,2.92,2.48,5.25,5.25,0,0,0,2.23.51,7.12,7.12,0,0,0,2-.36,2.1,2.1,0,0,1,1.3-.14,4.45,4.45,0,0,1,1.1.92,8.71,8.71,0,0,0,6,2.94,8.15,8.15,0,0,0,4.77-.92,6.22,6.22,0,0,1,2.78-.77,2.36,2.36,0,0,1,1.34.6A5.1,5.1,0,0,0,75.12,184a6.19,6.19,0,0,0,1.73-.27l.56-.19a4.47,4.47,0,0,1,1.27-.32.6.6,0,0,1,.26.05A10.4,10.4,0,0,0,84,184.91a9,9,0,0,0,5.59-2.44,6.88,6.88,0,0,1,7.25-1.21,6.6,6.6,0,0,0,2.18.36c3.4,0,6.52-2.42,7.2-4.59a4,4,0,0,1,3.91-2.36l.51,0c2.47,0,4.51-1.68,5.46-4.49.22-.66.8-.84,2.41-1.2a11.69,11.69,0,0,0,6.08-2.91,12.56,12.56,0,0,0,3.62-6.84,5.24,5.24,0,0,1,.7-2,3,3,0,0,1,1.48-.92,6.88,6.88,0,0,0,3.13-2.2,5.57,5.57,0,0,0,1.23-4.11c0-.67,0-1,.19-1.28a4.6,4.6,0,0,1,1.17-.84,8.72,8.72,0,0,0,4.37-5.08,8.12,8.12,0,0,0,.31-4.84,6.15,6.15,0,0,1-.05-2.83,2.47,2.47,0,0,1,.89-1.32c.21-.2.42-.41.62-.64,2.19-2.13,2.06-5.21,1.7-7.66-.3-2,.76-3.35,1.77-4.64l.47-.6C147.62,118.41,147.82,114.49,145.86,111.68Z" style="fill:#a64a30"/><path d="M144.23,112.35c-1.68-2.4-1.56-5.51-.48-8.27s0-5.43-2.22-7.32c-1.63-1.38-1.59-3.72-1.32-5,1.06-5.34-1.17-8.33-3.73-9.9s-3.73-4.13-3.44-7.67-3.14-6.58-5.3-6.68a5.12,5.12,0,0,1-4.33-4.12c-.29-1.87-1.87-3.45-4.72-3.64s-2.26-4.62-6.58-7.27-7.57-1-9.43-1.87-1.58-2.46-4.13-3.64-3.93.69-5.51,0-2.46-3.41-6.68-3.73c-3.83-.3-4,1.52-7.27,1.67-2.16.09-2.56-2.43-5.9-1.48-.71.21-2,.89-3,.36C66.16,41.45,64,42,61,44.46a7.94,7.94,0,0,1-8.28,1.39c-3.35-1.18-7.17,1.38-7.81,3.45s-3.21,3.32-5.09,3.14-3.8.94-4.71,3.64-5,1-8.7,4.54-2.86,7.07-4.19,8.65-2.77.9-4.56,3.08-.33,4-1.39,5.32-3.92,1.53-5.3,5.53c-1.26,3.63.83,4.36-.23,7.46a4.94,4.94,0,0,1-2,2.52A5.45,5.45,0,0,0,7.3,99.41a9.66,9.66,0,0,1-1.43,8.39c-1.68,2.39-2.3,7.13-1.06,11.17,1.34,4.43,4.93,6.31,4.32,15-.39,5.44,1.53,8,4.09,9.55s3.74,4.13,3.44,7.67,3.14,6.58,5.31,6.68A5.11,5.11,0,0,1,26.29,162c.29,1.86,1.87,3.44,4.72,3.63s2.26,4.62,6.58,7.28,7.57,1,9.44,1.86,1.57,2.46,4.13,3.64,3.93-.69,5.5,0,2.46,3.41,6.68,3.73c3.83.3,4-1.52,7.27-1.67,2.17-.09,2.56,2.44,5.9,1.48.72-.21,2-.89,3-.36,4.08,2.3,6.28,1.72,9.26-.71A8,8,0,0,1,97,179.51c3.35,1.18,7.16-1.38,7.8-3.45a5.15,5.15,0,0,1,5.09-3.14c1.88.19,3.8-.93,4.71-3.64s5-1,8.7-4.54,2.86-7.07,4.19-8.65,2.78-.9,4.56-3.08.33-4,1.39-5.32,3.92-1.53,5.31-5.52c1.25-3.64-.47-4.27.22-7.46.26-1.23,1.07-1.67,1.78-2.5,1.83-1.74,1.71-4.42,1.38-6.63-.42-2.85,1.36-4.61,2.44-6S145.9,114.74,144.23,112.35Z" style="fill:#78290f"/><path d="M140.84,112.36c-1.59-2.27-1.48-5.24-.45-7.86s0-5.16-2.11-7c-1.55-1.31-1.51-3.54-1.26-4.8,1-5.08-1.11-7.92-3.54-9.42s-3.56-3.92-3.27-7.29-3-6.26-5.05-6.36A4.86,4.86,0,0,1,121,65.75c-.28-1.78-1.77-3.27-4.49-3.46s-2.14-4.39-6.26-6.92-7.2-.93-9-1.78-1.5-2.33-3.93-3.45-3.74.65-5.24,0-2.34-3.25-6.35-3.56C82.15,46.3,82,48,78.88,48.17c-2.06.09-2.43-2.31-5.61-1.4-.68.19-1.92.84-2.81.34-3.88-2.18-6-1.63-8.81.67a7.56,7.56,0,0,1-7.89,1.33C50.58,48,47,50.42,46.34,52.39a4.87,4.87,0,0,1-4.84,3c-1.79-.17-3.62.9-4.48,3.47s-4.8,1-8.28,4.32-2.72,6.72-4,8.23-2.64.86-4.34,2.92-.32,3.79-1.33,5.07-3.73,1.45-5,5.25c-1.19,3.46.79,4.16-.21,7.1A4.75,4.75,0,0,1,12,94.13a5.19,5.19,0,0,0-1.37,5.93,9.14,9.14,0,0,1-1.37,8c-1.59,2.28-2.18,6.79-1,10.64,1.28,4.2,4.69,6,4.11,14.28-.37,5.18,1.46,7.59,3.89,9.09s3.55,3.92,3.27,7.29,3,6.26,5.05,6.36a4.88,4.88,0,0,1,4.12,3.92c.28,1.78,1.77,3.27,4.48,3.46s2.15,4.4,6.27,6.92,7.2.93,9,1.78,1.5,2.33,3.93,3.45,3.74-.65,5.23,0,2.35,3.25,6.36,3.56c3.65.28,3.81-1.45,6.92-1.59,2.05-.09,2.43,2.31,5.61,1.4.68-.19,1.91-.84,2.81-.34,3.88,2.19,6,1.63,8.81-.67a7.54,7.54,0,0,1,7.88-1.33c3.19,1.13,6.82-1.31,7.43-3.28a4.87,4.87,0,0,1,4.84-3c1.79.17,3.61-.89,4.48-3.47s4.79-1,8.28-4.32,2.72-6.72,4-8.23,2.64-.86,4.34-2.92.31-3.79,1.32-5.07,3.73-1.45,5.05-5.25c1.19-3.46-.44-4.06.21-7.1.25-1.17,1-1.58,1.7-2.37,1.73-1.66,1.62-4.2,1.31-6.31-.4-2.71,1.29-4.38,2.32-5.75S142.44,114.65,140.84,112.36Z" style="fill:url(#radial-gradient-12)"/><path d="M130,83.87c-2.29-1.4-3.35-3.69-3.08-6.86s-2.82-5.9-4.75-6a4.58,4.58,0,0,1-3.87-3.7c-.27-1.67-1.68-3.08-4.23-3.25s-2-4.14-5.89-6.52-6.78-.88-8.45-1.67-1.41-2.2-3.7-3.25-3.52.61-4.93,0-2.2-3.06-6-3.35c-3.43-.26-3.59,1.37-6.51,1.5-1.94.08-2.29-2.18-5.28-1.32-.64.18-1.8.79-2.65.32-3.65-2.06-5.62-1.54-8.29.63A7.11,7.11,0,0,1,55,51.67c-3-1.06-6.42,1.23-7,3.08a4.58,4.58,0,0,1-4.55,2.82c-1.69-.17-3.41.84-4.22,3.26s-4.51.91-7.79,4.06-2.56,6.33-3.75,7.75-2.49.81-4.09,2.75-.29,3.56-1.24,4.77-3.51,1.36-4.75,4.94c-1.12,3.26.75,3.91-.2,6.68a4.46,4.46,0,0,1-1.77,2.27,4.87,4.87,0,0,0-1.28,5.57,8.63,8.63,0,0,1-1.29,7.51c-1.5,2.15-2.05,6.39-.95,10,1.21,4,4.42,5.65,3.87,13.45-.31,4.34,1,6.62,2.95,8.06,6.73,2.31,21.74-8,44.48-20.51,25.93-14.29,54.23-20.37,62.43-23,6.16-2,6.94-5.91,5.94-9.76A8,8,0,0,0,130,83.87Z" style="fill:url(#linear-gradient-16)"/><path d="M121.76,70.24a4.6,4.6,0,0,1-3.89-3.71c-.26-1.68-1.68-3.1-4.25-3.27s-2-4.16-5.92-6.55-6.81-.88-8.49-1.68-1.42-2.21-3.72-3.27-3.54.61-4.95,0-2.22-3.07-6-3.36c-3.45-.27-3.61,1.37-6.55,1.5-1.94.09-2.29-2.19-5.3-1.33-.65.19-1.81.8-2.66.32-3.67-2.06-5.66-1.54-8.34.64a7.12,7.12,0,0,1-7.46,1.25c-3-1.06-6.45,1.25-7,3.11a4.58,4.58,0,0,1-4.57,2.82c-1.7-.17-3.42.85-4.24,3.28s-4.54.92-7.83,4.09S28,70.44,26.76,71.87s-2.49.81-4.1,2.76-.3,3.58-1.25,4.8-3.53,1.37-4.78,5c-1.13,3.27.75,3.93-.2,6.71a4.54,4.54,0,0,1-1.77,2.28,4.9,4.9,0,0,0-1.3,5.6,8.66,8.66,0,0,1-1.29,7.55c-1.51,2.16-2.07,6.42-1,10.06a12.38,12.38,0,0,0,.89,2.1c-.78-3.42-.2-7.17,1.19-9.15A8.69,8.69,0,0,0,14.48,102a4.89,4.89,0,0,1,1.29-5.6,4.54,4.54,0,0,0,1.78-2.28c.95-2.78-.93-3.44.2-6.71,1.25-3.6,3.82-3.76,4.77-5s-.35-2.84,1.25-4.8,2.92-1.34,4.11-2.76.48-4.63,3.77-7.79,7-1.65,7.84-4.09,2.54-3.45,4.23-3.28A4.6,4.6,0,0,0,48.3,56.9c.58-1.87,4-4.17,7-3.11a7.17,7.17,0,0,0,7.46-1.25c2.68-2.18,4.66-2.7,8.34-.64.84.48,2-.13,2.65-.32,3-.86,3.37,1.41,5.31,1.33,2.94-.13,3.1-1.77,6.55-1.5,3.79.29,4.6,2.74,6,3.36s2.65-1.06,5,0,2,2.47,3.71,3.27,4.6-.71,8.49,1.68,3.37,6.37,5.93,6.55,4,1.59,4.25,3.27a4.58,4.58,0,0,0,3.89,3.71,5.55,5.55,0,0,1,3.67,2.42C126.42,72.74,123.59,70.33,121.76,70.24Z" style="fill:#de9252"/><path d="M116.34,85.35C119.2,88.21,104,103.84,85,122.85S50.7,157.36,47.52,154.17s12.32-18.49,31.33-37.49S113,82,116.34,85.35Z" style="fill:url(#linear-gradient-17)"/><path d="M88.07,57.08c2.86,2.86-12.32,18.49-31.33,37.5s-34.31,34.5-37.49,31.32,12.32-18.49,31.33-37.49S84.71,53.72,88.07,57.08Z" style="fill:url(#linear-gradient-18)"/><path d="M102.21,71.22c2.86,2.86-12.33,18.49-31.33,37.49S36.57,143.22,33.38,140s12.33-18.49,31.33-37.5S98.85,67.86,102.21,71.22Z" style="fill:url(#linear-gradient-19)"/><path d="M130.48,99.49c2.86,2.86-12.33,18.49-31.33,37.49s-34.31,34.51-37.5,31.33S74,149.82,93,130.81,127.12,96.13,130.48,99.49Z" style="fill:url(#linear-gradient-20)"/><path d="M75.12,155.65a7.75,7.75,0,0,0-.41-6.17l-.18-.59c-2.46-2.55-5.17-5.29-8-8.18a13.62,13.62,0,0,0-6,.38,9.89,9.89,0,0,0,.12-6.21l-4-4-4.22-4.22a13.57,13.57,0,0,0-5.95.38,9.84,9.84,0,0,0,.12-6.19c-2.84-2.83-5.54-5.48-8.07-7.9-1.25-.24-4-.89-6.14,0a7.61,7.61,0,0,0-.31-6c-6.64-5.91-11.3-9-12.93-7.39S20.84,106.05,27,113a7.22,7.22,0,0,0,5.22.12,10.09,10.09,0,0,0-.12,5.38c2.6,2.73,5.49,5.68,8.57,8.79a9.15,9.15,0,0,0,5.65,0,12.38,12.38,0,0,0-.29,5.43l4.43,4.43,4.24,4.23a9.11,9.11,0,0,0,5.66,0,12.06,12.06,0,0,0-.29,5.36c3.28,3.22,6.38,6.23,9.25,8.92a7.47,7.47,0,0,0,5.62.28,9.13,9.13,0,0,0-.26,4.61c7,6.14,11.81,9.45,13.28,8,1.67-1.67-1.39-6.27-7.22-12.81C79.39,155.31,77,154.89,75.12,155.65Z" style="fill:url(#linear-gradient-21)"/><path d="M89.37,141.4a7.67,7.67,0,0,0-.52-6.06l-.18-.58c-2.41-2.5-5-5.18-7.86-8-1.56-.27-4.19-.63-6.06.11a9.07,9.07,0,0,0-.11-6.28l-3.85-3.84-4-4c-1.56-.26-4.18-.62-6.05.12a9.06,9.06,0,0,0-.1-6.26c-2.8-2.77-5.45-5.38-7.94-7.76-1.23-.26-3.89-.94-6-.14a7.55,7.55,0,0,0-.41-5.83c-6.65-5.93-11.32-9-13-7.42s1.57,6.33,7.57,13.07a7.54,7.54,0,0,0,5.65.32c-.78,2.05-.16,4.61.11,5.89,2.38,2.49,5,5.16,7.76,8,1.27.49,3.87,1.25,6.17.31-.71,2-.21,4.52.11,6,1.3,1.3,2.62,2.61,4,4l3.79,3.78c1.26.49,3.88,1.27,6.19.32-.69,2-.23,4.41.09,5.9,3,2.89,5.75,5.59,8.36,8.05l.13,0a7.6,7.6,0,0,0,6,.52,9.56,9.56,0,0,0-.06,5c6.78,6,11.5,9.14,13,7.69,1.67-1.67-1.38-6.27-7.23-12.82C93.53,141.14,91.24,140.69,89.37,141.4Z" style="fill:url(#linear-gradient-22)"/><path d="M122.65,112.59a11.19,11.19,0,0,0-5.17.33,9.19,9.19,0,0,0,0-5.92c-2.64-2.75-5.57-5.72-8.7-8.86a13.06,13.06,0,0,0-5.65.42,9.82,9.82,0,0,0,.21-5.86l-4.22-4.21L94.68,84.1a13,13,0,0,0-5.65.41,9.66,9.66,0,0,0,.22-5.83c-3.08-3.07-6-5.93-8.71-8.52-1.37-.27-3.79-.74-5.77,0a7.5,7.5,0,0,0-.11-5.51c-6.72-6-11.45-9.19-13.09-7.54S63.09,63.42,69,70.07a7.41,7.41,0,0,0,5.62.28c-.74,2.1-.17,4.56.15,6,2.47,2.59,5.19,5.37,8.1,8.3a9.39,9.39,0,0,0,6,.06,12.63,12.63,0,0,0-.24,5.75l4.25,4.24,4,4a9.45,9.45,0,0,0,6,.06,12.67,12.67,0,0,0-.25,5.66c3,2.92,5.79,5.65,8.42,8.13a7.77,7.77,0,0,0,6.24.58,9.77,9.77,0,0,0,0,5.09c6.85,6,11.63,9.28,13.09,7.82C132.11,124.26,128.82,119.44,122.65,112.59Z" style="fill:url(#linear-gradient-23)"/><path d="M103.53,127.24a7.68,7.68,0,0,0-.52-6.06l-.16-.51c-2.42-2.51-5.07-5.19-7.88-8-1.56-.27-4.22-.64-6.1.1a9,9,0,0,0-.13-6.33l-3.81-3.81-4-4c-1.56-.26-4.21-.64-6.09.11a9.1,9.1,0,0,0-.12-6.31c-2.8-2.77-5.45-5.38-7.94-7.76-1.25-.27-3.87-.92-6-.13a7.51,7.51,0,0,0-.36-5.75c-6.69-6-11.38-9.11-13-7.48S49,77.6,55,84.31a7.49,7.49,0,0,0,5.71.35c-.78,2.08-.13,4.7.13,6,2.38,2.5,5,5.16,7.77,8a8.74,8.74,0,0,0,6.11.29c-.71,2-.22,4.47.1,6,1.31,1.31,2.64,2.63,4,4l3.82,3.81a8.81,8.81,0,0,0,6.14.31c-.69,2-.24,4.36.08,5.84,2.94,2.89,5.74,5.59,8.34,8l.19.06a7.66,7.66,0,0,0,6.06.53,9.61,9.61,0,0,0-.06,5.07c6.77,5.94,11.48,9.11,12.93,7.67,1.67-1.68-1.4-6.29-7.26-12.86A10.2,10.2,0,0,0,103.53,127.24Z" style="fill:url(#linear-gradient-24)"/><path d="M80.55,117.55a2.71,2.71,0,1,1-2.71-2.71A2.71,2.71,0,0,1,80.55,117.55Z" style="fill:#c47a30"/><path d="M88.56,102.83a2.72,2.72,0,1,1-2.71-2.71A2.71,2.71,0,0,1,88.56,102.83Z" style="fill:#c47a30"/><path d="M95,112.13a2.71,2.71,0,1,1-2.71-2.72A2.71,2.71,0,0,1,95,112.13Z" style="fill:#c47a30"/><path d="M92.82,129.3a2.71,2.71,0,1,1-2.71-2.71A2.72,2.72,0,0,1,92.82,129.3Z" style="fill:#c47a30"/><path d="M64.16,127.75A2.72,2.72,0,1,1,61.45,125,2.72,2.72,0,0,1,64.16,127.75Z" style="fill:#c47a30"/><path d="M71.39,138.33a2.72,2.72,0,1,1-2.71-2.71A2.71,2.71,0,0,1,71.39,138.33Z" style="fill:#c47a30"/><path d="M69.32,111a2.71,2.71,0,1,1-2.71-2.71A2.71,2.71,0,0,1,69.32,111Z" style="fill:#c47a30"/><path d="M58.48,95.73A2.72,2.72,0,1,1,55.76,93,2.71,2.71,0,0,1,58.48,95.73Z" style="fill:#c47a30"/><path d="M74.74,92.11A2.71,2.71,0,1,1,72,89.4,2.71,2.71,0,0,1,74.74,92.11Z" style="fill:#c47a30"/><path d="M81.71,80.24A2.71,2.71,0,1,1,79,77.53,2.71,2.71,0,0,1,81.71,80.24Z" style="fill:#d88c4a"/><path d="M102.63,85.66A2.71,2.71,0,1,1,99.92,83,2.71,2.71,0,0,1,102.63,85.66Z" style="fill:#c47a30"/><path d="M105.73,107.87a2.72,2.72,0,1,1-2.71-2.71A2.72,2.72,0,0,1,105.73,107.87Z" style="fill:#c47a30"/><path d="M106.24,127.24a2.71,2.71,0,1,1-2.71-2.71A2.71,2.71,0,0,1,106.24,127.24Z" style="fill:#c47a30"/><path d="M108.91,150.57a2.72,2.72,0,1,1-2.71-2.71A2.71,2.71,0,0,1,108.91,150.57Z" style="fill:#c47a30"/><path d="M60.28,156.67A2.71,2.71,0,1,1,57.57,154,2.71,2.71,0,0,1,60.28,156.67Z" style="fill:#c47a30"/><path d="M79.91,144.27a2.72,2.72,0,1,1-2.71-2.71A2.71,2.71,0,0,1,79.91,144.27Z" style="fill:#c47a30"/><path d="M42.47,139.11a2.72,2.72,0,1,1-2.71-2.71A2.71,2.71,0,0,1,42.47,139.11Z" style="fill:#c47a30"/><path d="M35,119a2.71,2.71,0,1,1-2.71-2.71A2.71,2.71,0,0,1,35,119Z" style="fill:#c47a30"/><path d="M44.79,112a2.71,2.71,0,1,1-2.71-2.72A2.71,2.71,0,0,1,44.79,112Z" style="fill:#c47a30"/><path d="M41.31,81a2.71,2.71,0,1,1-2.71-2.71A2.71,2.71,0,0,1,41.31,81Z" style="fill:#d88c4a"/><path d="M63,71.73A2.71,2.71,0,1,1,60.29,69,2.71,2.71,0,0,1,63,71.73Z" style="fill:#d88c4a"/><path d="M119.15,99.09a2.71,2.71,0,1,1-2.71-2.72A2.71,2.71,0,0,1,119.15,99.09Z" style="fill:#c47a30"/><path d="M110.89,85.4a2.71,2.71,0,1,1-2.71-2.71A2.71,2.71,0,0,1,110.89,85.4Z" style="fill:#c47a30"/><path d="M117.81,131.27a2.71,2.71,0,1,1-2.71-2.72A2.71,2.71,0,0,1,117.81,131.27Z" style="fill:#c47a30"/><path d="M80,97.92c3.68,0,9.19-5.42,9.5-7.84.22-1.72-4.67.46-4.9-1.61a34.69,34.69,0,0,0-.93-6c-.21-.66-.56-.73-1.05-.22a33.94,33.94,0,0,0-3.23,5.1c-1,1.81-4.55-2.32-5.13-.48-.73,2.31,2.18,9.56,5.58,11A.94.94,0,0,0,80,97.92ZM61,108.76c-1.43-1-1.71,4.37-3.66,3.64a33.57,33.57,0,0,0-5.74-1.88c-.68-.12-.9.17-.67.83A33.68,33.68,0,0,0,54,116.54c1.14,1.75-4.13,3-2.76,4.36,1.73,1.7,9.51,2.4,12.31,0a.69.69,0,0,0,.11-.13C65.38,117.53,63,110.14,61,108.76Zm34.44,8.34a33.84,33.84,0,0,0-6-1c-2.06-.25.36-5.1-1.55-4.92-2.42.23-8,5.74-7.93,9.42a.45.45,0,0,0,0,.16c1.38,3.41,8.56,6.35,10.91,5.69,1.67-.46-2.24-4.12-.43-5.14a34.3,34.3,0,0,0,5.14-3.17C96.16,117.7,96.09,117.34,95.43,117.1Zm29.23-2.77s-.11-.09-.12-.08c-2.87-1.18-8.87,1.43-9.85,3.23-.7,1.28,3.8,1.07,3.35,2.77a28.28,28.28,0,0,0-1.11,5c0,.58.22.74.76.49a29.1,29.1,0,0,0,4.1-3c1.36-1.09,2.86,3.22,3.88,2C127,123.06,126.89,116.48,124.66,114.33ZM81.37,148.38l-.12.07c-2.36,2-2.78,8.54-1.63,10.24.82,1.21,2.69-2.89,4-1.71a27.47,27.47,0,0,0,3.92,3.24c.49.31.75.15.77-.44a28.3,28.3,0,0,0-.8-5c-.35-1.72,4.17-1.08,3.51-2.56C90.18,150.33,84.3,147.38,81.37,148.38Zm-35.46-.44a28.49,28.49,0,0,0,2.38-4.49c.2-.55,0-.77-.59-.68a29.18,29.18,0,0,0-4.76,1.81c-1.61.7-1.9-3.86-3.22-2.91-1.66,1.19-3.35,7.55-1.77,10.22a.81.81,0,0,0,.09.1c2.45,1.9,8.93,1,10.36-.49C49.42,150.45,45,149.45,45.91,147.94ZM44.56,95a.47.47,0,0,0,.1-.1c1.75-2.56.45-9-1.1-10.31-1.11-1-1.85,3.49-3.41,2.7a27.54,27.54,0,0,0-4.62-2.12c-.56-.16-.77.06-.64.64A27.94,27.94,0,0,0,37,90.43c.78,1.57-3.75,2.13-2.72,3.39C35.54,95.41,42,96.72,44.56,95Zm59.11-21.14a28.26,28.26,0,0,0-4.62-2.11c-.56-.17-.77.05-.64.63A28.05,28.05,0,0,0,100.5,77c.78,1.56-3.75,2.13-2.72,3.39,1.28,1.58,7.73,2.9,10.3,1.16,0,0,.1-.09.1-.1,1.75-2.56.45-9-1.1-10.31C106,70.2,105.23,74.65,103.67,73.85Z" style="fill:#505e12"/><path d="M82.82,151a9.56,9.56,0,0,0-1.15,4.43,3.42,3.42,0,0,1,1.75-.51,3.09,3.09,0,0,1,2.09.82l.07.07a.44.44,0,0,1,0-.1,2.94,2.94,0,0,1,1.77-3.44A10.17,10.17,0,0,0,83.08,151ZM86.2,92.24c-3.07-.2-3.55-2.33-3.63-3,0-.27-.06-.58-.09-.91l-.06-.56-.28.49c-.16.29-.31.56-.45.79a3.17,3.17,0,0,1-2.82,1.64,4.58,4.58,0,0,1-1.73-.37c.67,2.08,2.1,4.85,3.55,5.75C82.37,95.8,84.75,93.89,86.2,92.24Zm18.18-15.47h0a3.11,3.11,0,0,1-1.43-.35l-.09,0,0,.09a2.93,2.93,0,0,1-.81,3.77,12.43,12.43,0,0,0,2.76.33,5.61,5.61,0,0,0,1.91-.27,9.57,9.57,0,0,0,0-4.58A3.19,3.19,0,0,1,104.38,76.77Zm19.25,40a3.28,3.28,0,0,0-.49,0,10.56,10.56,0,0,0-4,1,3,3,0,0,1,1.51,3.53l0,.09.08-.06a3,3,0,0,1,1.92-.69,3.33,3.33,0,0,1,2,.65A9.81,9.81,0,0,0,123.63,116.81ZM58,115.29h0a3.24,3.24,0,0,1-1.18-.22l-.86-.33-.52-.2.32.47.5.76c1.29,2,.15,3.61-1,4.63a15.5,15.5,0,0,0,2.66.22,8.69,8.69,0,0,0,4.11-.78c.53-1.59-.11-4.57-.91-6.62A3.64,3.64,0,0,1,58,115.29Zm-13.78,32a.59.59,0,0,1,0-.08.3.3,0,0,0-.08,0,3.26,3.26,0,0,1-1.25.26h0a3.14,3.14,0,0,1-2.49-1.27,9.7,9.7,0,0,0-.34,4.62,6.86,6.86,0,0,0,2.58.4,13,13,0,0,0,2-.17A3,3,0,0,1,44.24,147.26ZM41.34,94a5.89,5.89,0,0,0,1.91-.26,9.45,9.45,0,0,0,0-4.58,3.23,3.23,0,0,1-2.35,1.06h0a3,3,0,0,1-1.43-.36l-.09,0,0,.09a2.93,2.93,0,0,1-.81,3.77A13.15,13.15,0,0,0,41.34,94Zm48.19,24.93c-2.35-.28-2.86-2.21-2.92-3.72-1.66,1.43-3.67,3.84-3.94,5.53.84,1.33,3.49,2.87,5.69,3.59-.48-1.44-.67-3.39,1.34-4.52l.81-.44.49-.27-.57-.06Z" style="fill:#697812"/><path d="M177,98.85a80.7,80.7,0,1,1-80.7-80.7A80.7,80.7,0,0,1,177,98.85Z" style="fill:#bf5400"/><path d="M175.26,98.85a79,79,0,1,1-79-79A79,79,0,0,1,175.26,98.85Z" style="fill:url(#radial-gradient-13)"/><path d="M96,69.12c-2,0-3.25,1.76-3.25,3.76,0,1.27,1.25,3.26,2.25,4.5.57.72-.07,1.22,1,1.22.91,0,.4-.72.89-1.21,1.19-1.19,2.39-3,2.39-4.47C99.24,70.92,98,69.12,96,69.12Zm-17-4c1.61.45,3.82.58,5.06-.12,1.74-1,2.68-3,1.7-4.72s-3.12-2-4.87-1C79.73,60,78.61,62,78,63.5c-.34.85-1.09.55-.57,1.48S78.27,65,78.94,65.16ZM103.29,58c.74.54.27,1.19,1.29.91s.2-.81.54-1.41c.83-1.46,1.48-3.57,1.11-4.94-.54-1.93-2.24-3.32-4.17-2.79s-2.66,2.56-2.13,4.48C100.27,55.49,102,57.07,103.29,58Zm11.48,14.83c1.62.45,3.83.58,5.07-.12,1.74-1,2.68-3,1.7-4.72s-3.13-2-4.87-1c-1.11.62-2.22,2.69-2.82,4.16-.35.85-1.1.55-.57,1.48S114.11,72.65,114.77,72.84Zm19.69-22a3.06,3.06,0,0,0-3-3.29c-1.13-.14-3,.75-4.23,1.49-.7.42-1.08-.19-1.19.75s.59.44,1,.92a6.77,6.77,0,0,0,3.69,2.6A3.11,3.11,0,0,0,134.46,50.85Zm12,9.51c-.81-.11-.45.59-.93,1A6.74,6.74,0,0,0,142.9,65a3.1,3.1,0,0,0,2.45,3.73,3.06,3.06,0,0,0,3.3-2.94c.15-1.13-.73-3-1.46-4.24C146.77,60.85,147.39,60.48,146.45,60.36ZM157.05,91c-1-.52-3.09-.33-4.48,0-.8.16-.94-.55-1.37.3s.41.61.59,1.2c.46,1.42,1.45,3.13,2.58,3.7a3.1,3.1,0,0,0,4.34-1C159.53,93.5,158.64,91.8,157.05,91Zm-6.12,28.6c-.76.84-1.12,2.9-1.21,4.32-.05.81-.77.77-.06,1.4s.7-.24,1.31-.27c1.5-.08,3.4-.59,4.24-1.53a3.12,3.12,0,0,0,.11-4.47A3.07,3.07,0,0,0,150.93,119.59Zm-8.56,9.5c-.61-.54-.13-1.08-1.06-.92s-.25.69-.61,1.19a6.76,6.76,0,0,0-1.44,4.28,3.11,3.11,0,0,0,3.43,2.86,3.06,3.06,0,0,0,2.3-3.78C144.81,131.6,143.42,130,142.37,129.09Zm-17.93,25c-1.09-.32-3.1.24-4.41.78-.76.3-1-.36-1.3.55s.52.53.81,1.07a6.82,6.82,0,0,0,3.22,3.16,3.11,3.11,0,0,0,4.07-1.84A3.06,3.06,0,0,0,124.44,154.08Zm-32.69,5c-.8-.15-.47.57-1,.92a6.75,6.75,0,0,0-2.8,3.54,3.1,3.1,0,0,0,2.26,3.85,3.06,3.06,0,0,0,3.44-2.77c.21-1.12-.57-3.05-1.24-4.31C92.05,159.58,92.69,159.24,91.75,159.07ZM79.32,156.4c-1.08-.36-3.11.13-4.44.62-.77.28-1-.4-1.32.5s.51.55.78,1.1a6.76,6.76,0,0,0,3.11,3.27,3.11,3.11,0,0,0,4.13-1.69A3.06,3.06,0,0,0,79.32,156.4ZM54.24,141.75c-.8-.16-.48.56-1,.9a6.82,6.82,0,0,0-2.84,3.51A3.12,3.12,0,0,0,52.63,150a3.07,3.07,0,0,0,3.48-2.74c.21-1.11-.55-3.06-1.2-4.31C54.53,142.26,55.17,141.93,54.24,141.75ZM40.71,121.16a6.73,6.73,0,0,0-3.42-2.93,3.11,3.11,0,0,0-3.94,2.11c-.39,1.74.9,3.16,2.64,3.55,1.11.25,3.07-.46,4.35-1.08.73-.36,1,.29,1.26-.64S41,121.68,40.71,121.16Zm-2.79-15.08c.67-.92.82-3,.77-4.42,0-.81.69-.84-.07-1.4s-.68.3-1.28.39a6.78,6.78,0,0,0-4.08,1.95,3.11,3.11,0,0,0,.35,4.45C35,108.11,36.86,107.51,37.92,106.08Zm7.2-41.75c-.65-.48-.67.31-1.28.4a6.77,6.77,0,0,0-4.07,1.94,3.12,3.12,0,0,0,.34,4.46,3.06,3.06,0,0,0,4.31-1c.68-.91.83-3,.78-4.42C45.17,64.92,45.89,64.89,45.12,64.33Zm24-11.76a3.07,3.07,0,0,0,.24-4.42c-.69-.9-2.66-1.61-4-1.95-.8-.19-.63-.89-1.38-.31s.11.73,0,1.34c-.18,1.49,0,3.45.77,4.45A3.11,3.11,0,0,0,69.12,52.57Zm26.2-10.06c1.1-.27,2.55-1.78,3.41-2.91.5-.64,1.07-.21.84-1.13s-.72-.19-1.24-.51A6.76,6.76,0,0,0,94,36.87a3.12,3.12,0,0,0-2.58,3.65A3.06,3.06,0,0,0,95.32,42.51ZM85.08,91.65c1,.84,3.26,1.22,4.85,1.31.91.05.87.86,1.58.06s-.27-.79-.31-1.47c-.1-1.68-.7-3.81-1.77-4.75-1.49-1.33-3.68-1.57-5-.08S83.58,90.32,85.08,91.65Zm-23.89,29c-2,.08-3.17,1.88-3.09,3.88,0,1.27,1.37,3.2,2.41,4.41.6.69,0,1.22,1.05,1.18.91,0,.38-.74.84-1.25,1.14-1.23,2.27-3.14,2.21-4.55C64.54,122.31,63.19,120.57,61.19,120.65ZM143,112.86c.6-.68-.28-.78-.32-1.47-.1-1.68-.7-3.81-1.76-4.75-1.5-1.33-3.69-1.57-5-.07s-.85,3.59.65,4.92c.95.85,3.27,1.23,4.86,1.31C142.33,112.85,142.29,113.66,143,112.86ZM72,82.4c.92,0,.88.86,1.59.06s-.28-.78-.32-1.47c-.1-1.68-.7-3.81-1.76-4.75-1.5-1.33-3.69-1.57-5-.07s-.84,3.59.66,4.92C68.11,81.93,70.42,82.31,72,82.4ZM55,95.9c.6-.68-.28-.79-.32-1.47-.1-1.68-.7-3.81-1.76-4.75-1.5-1.33-3.69-1.57-5-.07s-.85,3.59.65,4.92c.95.84,3.27,1.22,4.86,1.31C54.37,95.89,54.33,96.7,55,95.9Zm20.27,4.82c.59-.7,1.21-.19,1-1.23s-.8-.25-1.37-.63c-1.4-.93-3.47-1.73-4.86-1.45-2,.4-3.46,2-3.07,4s2.37,2.83,4.33,2.43C72.59,103.56,74.29,101.94,75.31,100.72Zm2.13,17c-2,.4-3.47,2-3.07,4s2.36,2.84,4.33,2.44c1.24-.26,2.94-1.88,4-3.1.59-.7,1.21-.18,1-1.23-.18-.89-.79-.25-1.37-.63C80.89,118.21,78.83,117.41,77.44,117.7Zm5.82,18.7c-1.4-.93-3.46-1.73-4.85-1.44-2,.4-3.47,2-3.07,4s2.37,2.83,4.33,2.44c1.25-.26,2.94-1.88,4-3.1.59-.7,1.21-.18,1-1.23C84.45,136.14,83.84,136.78,83.26,136.4Zm17.48,3.11c-.91,0-.4.73-.88,1.22-1.18,1.2-2.36,3.07-2.35,4.49,0,2,1.3,3.79,3.31,3.77s3.23-1.77,3.21-3.78c0-1.27-1.27-3.25-2.27-4.48C101.18,140,101.81,139.5,100.74,139.51ZM98.94,102c1.21-.38,2.72-2.17,3.61-3.5.51-.75,1.18-.31.86-1.32s-.81-.17-1.43-.48c-1.49-.78-3.62-1.35-5-.92-1.91.6-3.23,2.36-2.63,4.27S97,102.57,98.94,102Zm2.25,12.17c1.06-1.7.92-3.9-.78-5s-3.68-.22-4.74,1.48c-.67,1.09-.65,3.43-.47,5,.11.91-.7,1,.21,1.57s.73-.4,1.4-.56C98.45,116.29,100.44,115.33,101.19,114.13Zm15.51-5c-1.49-.77-3.63-1.35-5-.91-1.91.6-3.23,2.36-2.63,4.26s2.66,2.57,4.56,2c1.22-.38,2.73-2.18,3.62-3.5.51-.75,1.18-.31.86-1.33C117.85,108.75,117.31,109.45,116.7,109.13Zm-27.08-2.34c-.23-2-1.7-3.63-3.68-3.4s-3,2.12-2.8,4.1c.15,1.27,1.62,3.1,2.75,4.22.64.65.07,1.22,1.13,1.1s.32-.77.75-1.31C88.81,110.18,89.79,108.2,89.62,106.79Zm13.82,17.37c-1.6-1.21-3.65-.57-4.86,1-.77,1-1,3.34-1,4.94,0,.91-.79.93.06,1.58s.76-.34,1.44-.43c1.67-.22,3.74-1,4.61-2.11C105,127.57,105,125.37,103.44,124.16Zm0-39.93c-1.2.44-2.62,2.3-3.45,3.66-.47.79-1.17.37-.8,1.37s.83.13,1.45.41c1.53.71,3.69,1.18,5,.69,1.88-.7,3.12-2.51,2.43-4.39S105.29,83.53,103.42,84.23Zm17,16.07c.9-.16.27-.79.67-1.35,1-1.38,1.82-3.42,1.57-4.82-.35-2-1.91-3.52-3.88-3.17s-2.9,2.29-2.55,4.27c.22,1.25,1.8,3,3,4C119.92,99.87,119.38,100.48,120.43,100.3Zm17.76-17.78c.37-2-.54-4-2.51-4.34s-3.52,1.12-3.89,3.08c-.24,1.26.62,3.44,1.36,4.85.43.81-.29,1.19.76,1.39.89.17.53-.64,1.1-1C136.4,85.52,137.92,83.92,138.19,82.52ZM123.57,129c-1.19.45-2.62,2.31-3.44,3.67-.47.78-1.17.37-.8,1.37.32.85.82.12,1.45.41,1.53.7,3.69,1.18,5,.68,1.88-.69,3.12-2.51,2.42-4.39S125.45,128.33,123.57,129Z" style="fill:url(#radial-gradient-14)"/><path d="M95.57,67.8c-2,0-3.25,1.75-3.25,3.75,0,1.27,1.25,3.26,2.24,4.51.57.71-.06,1.22,1,1.22.91,0,.4-.73.89-1.22,1.19-1.19,2.38-3,2.38-4.47C98.84,69.59,97.57,67.8,95.57,67.8Zm-17-4c1.62.46,3.83.58,5.07-.11,1.74-1,2.68-3,1.7-4.72s-3.13-2-4.87-1c-1.11.62-2.22,2.68-2.82,4.16-.35.85-1.1.55-.57,1.48S77.88,63.65,78.54,63.83Zm24.36-7.15c.73.54.26,1.2,1.29.91.88-.24.19-.81.53-1.4.83-1.47,1.49-3.58,1.11-4.95-.53-1.93-2.24-3.32-4.16-2.79S99,51,99.54,52.94C99.88,54.17,101.61,55.75,102.9,56.68Zm11.48,14.83c1.62.46,3.82.58,5.06-.11,1.74-1,2.68-3,1.7-4.72s-3.12-2-4.86-1c-1.11.63-2.23,2.69-2.83,4.17-.34.84-1.09.55-.57,1.47S113.71,71.33,114.38,71.51Zm19.68-22c.23-1.77-1.19-3.06-3-3.28-1.12-.14-3,.74-4.23,1.48-.69.43-1.07-.19-1.19.75s.6.44,1,.93a6.77,6.77,0,0,0,3.69,2.6A3.11,3.11,0,0,0,134.06,49.52Zm12,9.51c-.8-.11-.44.6-.93,1a6.82,6.82,0,0,0-2.62,3.67A3.13,3.13,0,0,0,145,67.41a3.07,3.07,0,0,0,3.3-3c.15-1.12-.73-3-1.46-4.23C146.38,59.53,147,59.15,146.05,59Zm10.61,30.63c-1-.51-3.09-.33-4.48,0-.8.16-1-.55-1.38.3s.41.62.6,1.2A6.75,6.75,0,0,0,154,94.82a3.12,3.12,0,0,0,4.34-1.06C159.13,92.18,158.24,90.48,156.66,89.66Zm-6.13,28.6c-.76.85-1.11,2.91-1.2,4.32-.05.81-.77.77-.07,1.41s.7-.24,1.32-.27a6.78,6.78,0,0,0,4.24-1.54,3.11,3.11,0,0,0,.1-4.46C153.6,116.52,151.73,116.94,150.53,118.26ZM142,127.77c-.6-.55-.12-1.09-1.06-.93s-.25.7-.61,1.2a6.74,6.74,0,0,0-1.43,4.28,3.11,3.11,0,0,0,3.43,2.85c1.76-.29,2.59-2,2.3-3.77C144.42,130.28,143,128.72,142,127.77Zm-17.92,25c-1.09-.32-3.1.25-4.42.78-.75.31-1-.36-1.29.55s.52.53.81,1.07a6.75,6.75,0,0,0,3.22,3.17,3.12,3.12,0,0,0,4.07-1.84A3.08,3.08,0,0,0,124.05,152.75Zm-32.69,5c-.8-.15-.47.57-1,.91a6.85,6.85,0,0,0-2.81,3.54,3.12,3.12,0,0,0,2.26,3.85c1.75.33,3.13-1,3.45-2.77.21-1.11-.57-3.05-1.24-4.3C91.66,158.26,92.29,157.92,91.36,157.75Zm-12.44-2.68c-1.07-.36-3.1.14-4.43.63-.77.27-1-.4-1.32.5s.5.55.77,1.09a6.78,6.78,0,0,0,3.11,3.28,3.11,3.11,0,0,0,4.13-1.7C81.75,157.18,80.61,155.64,78.92,155.07ZM53.85,140.42c-.8-.16-.48.57-1,.91A6.78,6.78,0,0,0,50,144.84a3.11,3.11,0,0,0,2.22,3.87c1.75.34,3.13-1,3.47-2.73.22-1.12-.54-3.06-1.2-4.32C54.14,140.94,54.78,140.6,53.85,140.42ZM40.32,119.84a6.76,6.76,0,0,0-3.43-2.94A3.1,3.1,0,0,0,33,119a3.06,3.06,0,0,0,2.64,3.55c1.1.25,3.07-.45,4.35-1.08.73-.35,1,.3,1.25-.63S40.65,120.35,40.32,119.84Zm-2.8-15.09c.68-.91.83-3,.78-4.41,0-.82.69-.85-.08-1.41s-.67.31-1.28.4a6.73,6.73,0,0,0-4.07,2,3.11,3.11,0,0,0,.34,4.45A3.06,3.06,0,0,0,37.52,104.75ZM44.73,63c-.66-.48-.68.31-1.28.4a6.78,6.78,0,0,0-4.08,1.95,3.11,3.11,0,0,0,.35,4.45c1.43,1.06,3.25.46,4.31-1,.67-.91.82-3,.77-4.41C44.77,63.59,45.49,63.57,44.73,63Zm24-11.76A3.06,3.06,0,0,0,69,46.82c-.69-.89-2.65-1.61-4-1.94-.79-.2-.62-.9-1.37-.32s.11.73,0,1.34a6.78,6.78,0,0,0,.76,4.45A3.12,3.12,0,0,0,68.73,51.24Zm26.2-10.05c1.1-.28,2.54-1.79,3.41-2.91.49-.65,1.07-.21.84-1.13s-.72-.2-1.24-.51a6.85,6.85,0,0,0-4.39-1.1A3.12,3.12,0,0,0,91,39.19,3.07,3.07,0,0,0,94.93,41.19ZM84.68,90.32c.95.84,3.27,1.23,4.86,1.31.91.05.87.86,1.58.06s-.28-.78-.32-1.47c-.1-1.68-.7-3.81-1.76-4.75-1.5-1.33-3.68-1.57-5-.07S83.18,89,84.68,90.32Zm-23.88,29c-2,.08-3.18,1.88-3.1,3.88,0,1.27,1.38,3.21,2.41,4.41.6.7,0,1.23,1.06,1.19.91,0,.37-.75.84-1.25,1.14-1.24,2.26-3.14,2.21-4.56C64.14,121,62.8,119.24,60.8,119.32Zm81.8-7.78c.61-.68-.27-.79-.31-1.47-.1-1.68-.7-3.81-1.77-4.75-1.49-1.33-3.68-1.57-5-.08s-.84,3.6.66,4.93c1,.84,3.26,1.22,4.85,1.31C141.93,111.53,141.9,112.33,142.6,111.54Zm-71-30.47c.91.05.87.86,1.58.06s-.27-.78-.32-1.47c-.1-1.68-.7-3.81-1.76-4.75-1.5-1.33-3.68-1.57-5-.07s-.84,3.59.65,4.92C67.71,80.61,70,81,71.62,81.07Zm-17,13.5c.61-.68-.27-.78-.31-1.47-.1-1.68-.7-3.81-1.77-4.75-1.49-1.33-3.68-1.57-5-.07s-.84,3.59.66,4.92c.95.84,3.26,1.23,4.85,1.31C54,94.56,53.94,95.37,54.64,94.57Zm20.28,4.82c.58-.7,1.21-.18,1-1.23-.18-.89-.79-.25-1.37-.63-1.4-.93-3.46-1.73-4.85-1.44-2,.4-3.47,2-3.07,4S69,102.89,71,102.49C72.2,102.23,73.89,100.61,74.92,99.39Zm2.12,17c-2,.4-3.46,2-3.07,4s2.37,2.83,4.33,2.43c1.25-.25,3-1.88,4-3.09.59-.7,1.21-.19,1-1.23s-.8-.25-1.37-.63C80.5,116.89,78.43,116.09,77,116.37Zm5.83,18.7c-1.4-.92-3.46-1.72-4.85-1.44-2,.4-3.47,2-3.07,4s2.37,2.83,4.33,2.43c1.24-.25,2.94-1.88,4-3.1.59-.7,1.21-.18,1-1.23C84.06,134.81,83.45,135.45,82.87,135.07Zm17.48,3.12c-.91,0-.4.73-.88,1.22-1.18,1.2-2.36,3.07-2.35,4.49,0,2,1.3,3.79,3.3,3.77s3.24-1.78,3.22-3.78c0-1.28-1.28-3.25-2.28-4.49C100.79,138.69,101.42,138.18,100.35,138.19Zm-1.81-37.55c1.21-.39,2.73-2.18,3.62-3.5.51-.76,1.18-.31.86-1.33s-.82-.16-1.43-.48c-1.49-.77-3.63-1.35-5-.92C94.7,95,93.37,96.77,94,98.68S96.63,101.24,98.54,100.64Zm2.26,12.16c1-1.7.92-3.89-.78-5s-3.68-.22-4.74,1.48c-.67,1.08-.66,3.43-.47,5,.1.9-.7,1,.21,1.57s.73-.41,1.4-.57C98.05,115,100.05,114,100.8,112.8Zm15.51-5c-1.5-.78-3.63-1.35-5-.92-1.91.6-3.24,2.36-2.63,4.27s2.65,2.56,4.56,2c1.21-.39,2.73-2.18,3.61-3.5.51-.76,1.19-.31.86-1.33S116.92,108.12,116.31,107.81Zm-27.08-2.35c-.23-2-1.7-3.62-3.69-3.39s-3,2.11-2.79,4.1c.14,1.26,1.61,3.09,2.74,4.22.65.64.08,1.22,1.14,1.1s.32-.77.74-1.31C88.42,108.86,89.39,106.87,89.23,105.46ZM103,122.83c-1.59-1.21-3.64-.57-4.86,1-.77,1-1,3.35-1,4.94,0,.91-.79.94.06,1.58s.76-.33,1.45-.42c1.66-.23,3.74-1,4.6-2.11C104.56,126.25,104.63,124.05,103,122.83Zm0-39.93c-1.19.45-2.62,2.31-3.44,3.67-.48.78-1.17.37-.8,1.37s.82.12,1.45.41c1.53.7,3.69,1.18,5,.68,1.88-.69,3.12-2.51,2.42-4.38S104.9,82.21,103,82.9ZM120,99c.9-.16.27-.78.67-1.35,1-1.38,1.81-3.42,1.57-4.81-.35-2-1.91-3.52-3.89-3.17s-2.89,2.29-2.54,4.26c.22,1.25,1.8,3,3,4C119.52,98.55,119,99.16,120,99ZM137.79,81.2c.38-2-.54-4-2.5-4.34s-3.52,1.11-3.89,3.08c-.24,1.25.62,3.43,1.36,4.84.42.81-.29,1.19.76,1.39.89.17.53-.64,1.1-1C136,84.2,137.53,82.59,137.79,81.2Zm-14.61,46.5c-1.19.44-2.62,2.3-3.44,3.66-.48.79-1.17.37-.8,1.37s.82.13,1.44.41c1.53.71,3.7,1.18,5,.69,1.88-.7,3.12-2.51,2.42-4.39S125.06,127,123.18,127.7Z" style="fill:#ffebb8"/><path d="M77.1,120.48a2.88,2.88,0,0,0,.59-.06,7.36,7.36,0,0,0,2.61-2.07,6.54,6.54,0,0,0-2.9-1l-.28,0c-.82.17-2,.82-1.73,1.94S76.76,120.48,77.1,120.48Zm22-9.25a2.51,2.51,0,0,0,.4-1.59,1.3,1.3,0,0,0-.62-1,1.24,1.24,0,0,0-.7-.21,2.17,2.17,0,0,0-1.68,1.13,7.62,7.62,0,0,0-.28,3.32A5.76,5.76,0,0,0,99.07,111.23Zm-21,23.42a2.5,2.5,0,0,0-1.43.8,1.3,1.3,0,0,0-.29,1.14c.21,1.07,1.36,1.15,1.71,1.15a3,3,0,0,0,.59-.06,7.54,7.54,0,0,0,2.61-2.07,6.62,6.62,0,0,0-2.91-1A1.19,1.19,0,0,0,78.09,134.65Zm7.56-31.55h-.18a1.26,1.26,0,0,0-1,.61,2.43,2.43,0,0,0-.31,1.59A7.48,7.48,0,0,0,86,108.08,5.84,5.84,0,0,0,87.26,105C87.15,104.05,86.56,103.1,85.65,103.1Zm12.11-4.76A7.67,7.67,0,0,0,100.13,96a7.35,7.35,0,0,0-2.72-.67,2,2,0,0,0-.55.06,2.55,2.55,0,0,0-1.34,1,1.29,1.29,0,0,0-.17,1.15,1.49,1.49,0,0,0,1.55,1A2.9,2.9,0,0,0,97.76,98.34Zm4,25.19a1.29,1.29,0,0,0-.79-.28,2.27,2.27,0,0,0-1.66,1,7.51,7.51,0,0,0-.59,3.27,5.75,5.75,0,0,0,3-1.37,2.45,2.45,0,0,0,.55-1.55A1.28,1.28,0,0,0,101.73,123.53ZM95.3,68.85c-1,0-1.53,1.06-1.53,2a7.49,7.49,0,0,0,1.52,3,5.87,5.87,0,0,0,1.57-2.93C96.86,70.09,96.44,68.85,95.3,68.85ZM86.06,85.42A1.34,1.34,0,0,0,84.72,87a2.52,2.52,0,0,0,.84,1.39,7.45,7.45,0,0,0,3.22.84,5.8,5.8,0,0,0-1.15-3.12A2.46,2.46,0,0,0,86.06,85.42ZM35.87,103.07a6,6,0,0,0,.45-2.59A4.68,4.68,0,0,0,34,101.63a2.08,2.08,0,0,0-.44,1.27,1,1,0,0,0,.41.78C34.56,104.12,35.34,103.79,35.87,103.07ZM51.16,89a2.49,2.49,0,0,0-1.58-.67,1.29,1.29,0,0,0-1,.45c-.7.79-.22,1.85.51,2.5a7.45,7.45,0,0,0,3.22.84A5.73,5.73,0,0,0,51.16,89ZM40.49,65.7A2.07,2.07,0,0,0,40.06,67a1,1,0,0,0,.41.78A.9.9,0,0,0,41,68a1.8,1.8,0,0,0,1.34-.81,6.19,6.19,0,0,0,.45-2.58A4.7,4.7,0,0,0,40.49,65.7Zm63.83,18a2.81,2.81,0,0,0-1,.18,7.45,7.45,0,0,0-2.25,2.45,7.63,7.63,0,0,0,2.57.55,2.25,2.25,0,0,0,.71-.09,2.51,2.51,0,0,0,1.3-1,1.26,1.26,0,0,0,.11-1.16A1.43,1.43,0,0,0,104.32,83.67Zm-22-25.18a2.66,2.66,0,0,0-1.27.36,7.44,7.44,0,0,0-1.85,2.77,8.54,8.54,0,0,0,1.79.2,3.2,3.2,0,0,0,1.54-.27,2.46,2.46,0,0,0,1.11-1.2,1.3,1.3,0,0,0-.07-1.17A1.33,1.33,0,0,0,82.29,58.49Zm-30.85,86a2,2,0,0,0,.15,1.33,1,1,0,0,0,.71.53c.77.15,1.32-.63,1.46-1.37a6.19,6.19,0,0,0-.71-2.53A4.8,4.8,0,0,0,51.44,144.5Zm18.28-69a2.49,2.49,0,0,0-1.58-.66,1.26,1.26,0,0,0-1,.45c-.7.78-.23,1.84.51,2.49a7.45,7.45,0,0,0,3.22.84A5.81,5.81,0,0,0,69.72,75.53Zm0,21.58a2.5,2.5,0,0,0-1.44.8A1.27,1.27,0,0,0,68,99c.22,1.07,1.37,1.16,1.71,1.16a3,3,0,0,0,.59-.06A7.65,7.65,0,0,0,73,98.06a6.75,6.75,0,0,0-2.91-1A1,1,0,0,0,69.77,97.11ZM67.41,49.22a1,1,0,0,0,.39-.77,2,2,0,0,0-.46-1.24A6.28,6.28,0,0,0,65,46.08a4.81,4.81,0,0,0,.46,2.56,1.87,1.87,0,0,0,1.37.79A1,1,0,0,0,67.41,49.22ZM36.25,117.91a2.31,2.31,0,0,0-.52-.06c-.27,0-1.18.07-1.36.87a.94.94,0,0,0,.19.84,2,2,0,0,0,1.14.66h.14a7.53,7.53,0,0,0,2.4-.65A4.74,4.74,0,0,0,36.25,117.91Zm83.13-51a1.33,1.33,0,0,0-1.25-.69,2.59,2.59,0,0,0-1.28.36A7.49,7.49,0,0,0,115,69.3a8.54,8.54,0,0,0,1.79.2,3.11,3.11,0,0,0,1.53-.27C119.06,68.82,119.94,67.85,119.38,66.86Zm-.7,23.78-.26,0c-1,.18-1.32,1.31-1.15,2.28a7.53,7.53,0,0,0,2,2.66,5.82,5.82,0,0,0,1-3.16C120.16,91.55,119.55,90.64,118.68,90.64Zm-7.1,17.22a2.5,2.5,0,0,0-1.34,1,1.28,1.28,0,0,0-.17,1.16,1.5,1.5,0,0,0,1.55,1,2.53,2.53,0,0,0,.85-.14,7.37,7.37,0,0,0,2.38-2.34,7.35,7.35,0,0,0-2.72-.67A1.91,1.91,0,0,0,111.58,107.86Zm12.9,20.6a2.79,2.79,0,0,0-1,.19,7.38,7.38,0,0,0-2.26,2.44,7.66,7.66,0,0,0,2.58.56,1.93,1.93,0,0,0,.71-.1,2.54,2.54,0,0,0,1.3-1,1.32,1.32,0,0,0,.11-1.17A1.44,1.44,0,0,0,124.48,128.46Zm-1.19,25.28a.86.86,0,0,0-.27,0,8.18,8.18,0,0,0-2.31.49,4.73,4.73,0,0,0,1.88,1.8,2.16,2.16,0,0,0,.66.1,1.24,1.24,0,0,0,1.27-.78C124.79,154.43,123.83,153.9,123.29,153.74Zm29.56-35.67a1.88,1.88,0,0,0-1.31.68,6.26,6.26,0,0,0-.7,2.53,4.79,4.79,0,0,0,2.44-.92c.45-.49.88-1.44.22-2A.9.9,0,0,0,152.85,118.07Zm-8.91-54.84c-.09.67.1,1.69,1,1.81s1.28-.71,1.38-1.47a6.24,6.24,0,0,0-.86-2.47A4.72,4.72,0,0,0,143.94,63.23Zm11.67,27.3a2.86,2.86,0,0,0-1.12-.14,11.78,11.78,0,0,0-1.5.11,4.77,4.77,0,0,0,1.5,2.12,2.19,2.19,0,0,0,1,.26,1.05,1.05,0,0,0,1-.57C157,91.49,156.11,90.79,155.61,90.53Zm-25-43.25h0a6.62,6.62,0,0,0-2.47.87,4.8,4.8,0,0,0,2.14,1.48l.31,0c.13,0,1.37,0,1.49-1a1,1,0,0,0-.27-.83A2,2,0,0,0,130.62,47.28ZM141.1,128.9a4.81,4.81,0,0,0-.81,2.47c.13.79.69,1.57,1.46,1.44s1-1.24.89-1.8A6.19,6.19,0,0,0,141.1,128.9Zm-80.44-8.53a1.32,1.32,0,0,0-1.08.54,2.46,2.46,0,0,0-.43,1.56,7.54,7.54,0,0,0,1.63,2.91,5.78,5.78,0,0,0,1.45-3C62.2,121.39,61.64,120.37,60.66,120.37Zm42.51-66.1a5.73,5.73,0,0,0,.74-3.24,2,2,0,0,0-1.68-1.64,1.19,1.19,0,0,0-.37.06,1.28,1.28,0,0,0-.88.75,2.53,2.53,0,0,0,0,1.62A7.29,7.29,0,0,0,103.17,54.27ZM89,161.84c-.12.66,0,1.7.88,1.86s1.31-.65,1.44-1.39a6.1,6.1,0,0,0-.73-2.52A4.78,4.78,0,0,0,89,161.84ZM96.23,37.15A5.75,5.75,0,0,0,94,36.52a.93.93,0,0,0-.29,0,2,2,0,0,0-1.21.8,1,1,0,0,0-.11.76,1.2,1.2,0,0,0,1.28.82,2.32,2.32,0,0,0,.58-.08A5.91,5.91,0,0,0,96.23,37.15ZM78.12,156a1,1,0,0,0-.37,0,8.79,8.79,0,0,0-2.23.41,4.6,4.6,0,0,0,1.81,1.86,2.08,2.08,0,0,0,.73.13h0a1.21,1.21,0,0,0,1.23-.74.94.94,0,0,0-.11-.86A2,2,0,0,0,78.12,156Zm59.42-50.77a1.29,1.29,0,0,0-1,.45,1.26,1.26,0,0,0-.32,1.11,2.5,2.5,0,0,0,.83,1.39,7.49,7.49,0,0,0,3.22.83,5.72,5.72,0,0,0-1.14-3.11A2.44,2.44,0,0,0,137.54,105.27ZM134.7,77.88l-.28,0c-.87,0-1.44.91-1.6,1.74a7.36,7.36,0,0,0,.93,3.2,5.77,5.77,0,0,0,2.09-2.58C136,79.39,135.82,78.09,134.7,77.88ZM98.57,143.22c0,1,.55,2.07,1.56,2.07v0c1,0,1.52-1.07,1.52-2a7.62,7.62,0,0,0-1.54-3A5.87,5.87,0,0,0,98.57,143.22Z" style="fill:#ffffea"/></g></g></svg>