<svg xmlns="http://www.w3.org/2000/svg" xmlns:xlink="http://www.w3.org/1999/xlink" viewBox="0 0 216.56 216.56"><defs><linearGradient id="linear-gradient" x1="84.55" y1="84.55" x2="165.14" y2="165.13" gradientUnits="userSpaceOnUse"><stop offset="0" stop-color="#d0cabd"/><stop offset="0.78" stop-color="#e5e2dc"/><stop offset="1" stop-color="#eceae6"/></linearGradient><linearGradient id="linear-gradient-2" x1="99.9" y1="41.13" x2="142.03" y2="137.99" gradientUnits="userSpaceOnUse"><stop offset="0" stop-color="#b8e245"/><stop offset="0.15" stop-color="#b1de41"/><stop offset="0.36" stop-color="#9ed136"/><stop offset="0.61" stop-color="#7ebe24"/><stop offset="0.89" stop-color="#53a20b"/><stop offset="1" stop-color="#409600"/></linearGradient><radialGradient id="radial-gradient" cx="19.67" cy="861.82" r="71.62" gradientTransform="translate(716.64 -528.36) rotate(45)" gradientUnits="userSpaceOnUse"><stop offset="0" stop-color="#b8e245"/><stop offset="0.13" stop-color="#b2df3e"/><stop offset="0.32" stop-color="#a1d62b"/><stop offset="0.52" stop-color="#88c90e"/><stop offset="0.97" stop-color="#409600"/></radialGradient><radialGradient id="radial-gradient-2" cx="18.08" cy="915.57" r="88.85" gradientTransform="translate(716.64 -528.36) rotate(45)" gradientUnits="userSpaceOnUse"><stop offset="0.15" stop-color="#e0ffb3"/><stop offset="0.27" stop-color="#defeac"/><stop offset="0.45" stop-color="#d7fa99"/><stop offset="0.66" stop-color="#ccf479"/><stop offset="0.89" stop-color="#bdec4e"/><stop offset="1" stop-color="#b5e837"/></radialGradient><linearGradient id="linear-gradient-3" x1="6414.17" y1="2606.59" x2="6456.3" y2="2703.46" gradientTransform="matrix(-0.91, 0.41, -0.41, -0.91, 7058.57, -94.43)" xlink:href="#linear-gradient-2"/><radialGradient id="radial-gradient-3" cx="6298.07" cy="-1789.3" r="71.62" gradientTransform="translate(6622.36 681.57) rotate(-159.28)" xlink:href="#radial-gradient"/><radialGradient id="radial-gradient-4" cx="6296.47" cy="-1735.55" r="88.85" gradientTransform="translate(6622.36 681.57) rotate(-159.28)" xlink:href="#radial-gradient-2"/><radialGradient id="radial-gradient-5" cx="140.99" cy="79.91" r="16.68" gradientUnits="userSpaceOnUse"><stop offset="0" stop-color="#5c3642"/><stop offset="0.24" stop-color="#58333f"/><stop offset="0.47" stop-color="#4d2b34"/><stop offset="0.69" stop-color="#391d23"/><stop offset="0.91" stop-color="#1f090b"/><stop offset="1" stop-color="#120000"/></radialGradient><radialGradient id="radial-gradient-6" cx="66.52" cy="83.17" r="16.68" xlink:href="#radial-gradient-5"/><radialGradient id="radial-gradient-7" cx="88.19" cy="170.85" r="16.68" xlink:href="#radial-gradient-5"/><radialGradient id="radial-gradient-8" cx="142.83" cy="130.66" r="16.68" xlink:href="#radial-gradient-5"/><radialGradient id="radial-gradient-9" cx="81.7" cy="127" r="16.68" xlink:href="#radial-gradient-5"/></defs><g id="Layer_2" data-name="Layer 2"><g id="Layer_1-2" data-name="Layer 1"><path d="M117.69,213.11c12.73-9.86,22.86-18.21,50.05-45.4,26-26,35.13-36.69,45.37-50A17,17,0,0,0,216,112a12.35,12.35,0,0,0,.55-3.48v0c0-.27,0-.53,0-.8s0-.53,0-.8a.34.34,0,0,1,0-.1,11.89,11.89,0,0,0-.41-2,16.77,16.77,0,0,0-3-5.89c-9.86-12.72-18.21-22.86-45.39-50-26-26-36.69-35.14-50-45.38A17,17,0,0,0,112,.54,11.84,11.84,0,0,0,108.69,0h-.81a11.85,11.85,0,0,0-3.29.53,17,17,0,0,0-5.72,2.9c-13.34,10.24-24,19.39-50,45.38C21.66,76,13.31,86.14,3.45,98.86a16.94,16.94,0,0,0-3,5.89,11,11,0,0,0-.4,2l0,.1c0,.27,0,.53,0,.8s0,.54,0,.8v0A12.35,12.35,0,0,0,.55,112a17,17,0,0,0,2.9,5.68c10.24,13.34,19.39,24,45.37,50C76,194.9,86.14,203.25,98.87,213.11a16.76,16.76,0,0,0,5.84,2.94,11.9,11.9,0,0,0,3.14.5h.86a11.9,11.9,0,0,0,3.14-.5A16.67,16.67,0,0,0,117.69,213.11Z" style="fill:#8b8f90"/><path d="M117.43,210.2c12.37-9.59,22.23-17.71,48.66-44.14,25.26-25.26,34.15-35.67,44.11-48.64A16.53,16.53,0,0,0,213,111.9a11.75,11.75,0,0,0,.53-3.38v0c0-.26,0-.53,0-.79s0-.51-.06-.77a.38.38,0,0,0,0-.1,11,11,0,0,0-.39-2,16.38,16.38,0,0,0-2.88-5.73c-9.59-12.37-17.7-22.22-44.13-48.65C140.8,25.21,130.4,16.31,117.43,6.35a16.81,16.81,0,0,0-5.56-2.82,12,12,0,0,0-3.2-.52h-.78a12,12,0,0,0-3.2.52,16.81,16.81,0,0,0-5.56,2.82c-13,10-23.37,18.86-48.64,44.12C24.06,76.9,15.94,86.75,6.36,99.12a16.38,16.38,0,0,0-2.88,5.73,11,11,0,0,0-.39,2v.1c0,.26-.05.51-.06.77s0,.53,0,.79v0a11.75,11.75,0,0,0,.53,3.38,16.53,16.53,0,0,0,2.82,5.52c10,13,18.85,23.38,44.11,48.64,26.43,26.43,36.29,34.55,48.66,44.14a16.37,16.37,0,0,0,5.68,2.86,11.23,11.23,0,0,0,3,.48h.84a11.23,11.23,0,0,0,3-.48A16.37,16.37,0,0,0,117.43,210.2Z" style="fill:url(#linear-gradient)"/><path d="M113.78,169.58c7.45-5.77,13.37-10.65,29.27-26.55,15.2-15.19,20.55-21.45,26.54-29.25a10.14,10.14,0,0,0,1.69-3.32,7.07,7.07,0,0,0,.32-2v0c0-.15,0-.31,0-.47a3.44,3.44,0,0,0,0-.46.13.13,0,0,0,0-.06,6.88,6.88,0,0,0-.23-1.2,10.14,10.14,0,0,0-1.73-3.44C163.82,95.33,158.94,89.4,143,73.5,127.84,58.31,121.58,53,113.78,47a10,10,0,0,0-3.34-1.7,7,7,0,0,0-1.92-.31H108a7,7,0,0,0-1.92.31,10,10,0,0,0-3.34,1.7C95,53,88.72,58.31,73.52,73.5,57.62,89.4,52.74,95.33,47,102.77a10,10,0,0,0-1.74,3.44,6.88,6.88,0,0,0-.23,1.2v.06c0,.15,0,.31,0,.46s0,.32,0,.47v0a7.07,7.07,0,0,0,.32,2,10,10,0,0,0,1.7,3.32c6,7.8,11.33,14.06,26.53,29.25,15.9,15.9,21.82,20.78,29.27,26.55a9.8,9.8,0,0,0,3.41,1.72,6.73,6.73,0,0,0,1.84.29h.5a6.73,6.73,0,0,0,1.84-.29A9.8,9.8,0,0,0,113.78,169.58Z" style="fill:#eae8e3"/><path d="M173.17,114.82c-2.24,3.38-32.8,36.68-50,50.94-12.52,10.38-13.49,12.85-13.57,18.4-.24,15.35-2.54,29.28,2.74,26.35,5-2.76,35.72-30.44,52.48-47.21S206,119.18,209.24,114s-2.72-4.22-7-4C191,110.43,175.77,110.9,173.17,114.82Z" style="fill:#fff"/><path d="M101.43,43.08c-3.38,2.24-36.68,32.8-50.94,50-10.38,12.52-12.85,13.49-18.4,13.57-15.35.24-29.28,2.54-26.35-2.74C8.5,98.92,36.18,68.18,53,51.42S97.07,10.27,102.23,7s4.22,2.73,4,7C105.82,25.28,105.35,40.48,101.43,43.08Z" style="fill:#ada497"/><path d="M140.16,138.81c-2.13-2.46-21.77-14.87-32.86-7.56s-5.26,18.24-3.62,16.1,5.26-6.24,5.26-6.24,7.23,6.9,9,5,4.51-4.52,4.76-4.76,5.59-.5,5.59-.5c1,3.78,6.32,8.46,7.64,7.15S142.3,141.27,140.16,138.81Zm41.08-20.57s-5.83-8.1-3.61-11.8,9.89-6,10.84-6.83-.41-2.62-1.32-3.19-13.31.82-14.21,2.54-6.57,22.35-4.44,22.68,8.87,4.08,10,3.83S181.24,118.24,181.24,118.24Zm-62-89.74c-.58-.9-2.39-2.27-3.19-1.31s-3.14,8.63-6.83,10.84-11.81-3.61-11.81-3.61-7,1.62-7.22,2.74,3.5,7.86,3.83,10,21-3.53,22.67-4.43S119.81,29.41,119.24,28.5Zm-42.39,47c-2.47-2.14-7.89,3-9.2,4.27s3.36,6.65,7.14,7.64c0,0-.24,5.34-.49,5.58S71.42,96,69.54,97.76s5,8.95,5,8.95-4.11,3.62-6.24,5.26,8.79,7.48,16.1-3.61S79.31,77.63,76.85,75.5Z" style="fill:#0a5c00"/><path d="M177.91,125.25c2.15,1.41,6-4.81,7.2-9.19s-3.08-.1-2.92-7.39,3.5-11,5.67-9.24,2.59-9.34-2.1-11.79-4.91-9.76-3.1-13.16-1.61-2.36-5.9-4.42-2.55-7.76.23-10.94c1.33-1.52,0-5.94-7.47-13.43-6.22-6.22-11.56-8.38-13-7.09-3.18,2.79-8.89,4.53-10.95.24s-1-7.72-4.41-5.91-10.71,1.59-13.16-3.1-13.59-4.27-11.79-2.09-1.94,5.51-9.24,5.66-3-4.13-7.39-2.92-10.61,5.05-9.19,7.21,6.62,2.9,5,6.11-6,5.58-8.17,3-6.23-2.5-6.5,1-.35,7.48-4.13,9.28-9.4,6.63-8.71,10.3,3.82-.65,4.07,7.43-4.32,3.13-4.82,5.61-.86,9.2,2.47,11.42,4.21,5.7,1.14,5.61-3.27,6-.16,7.29,2.74,7.58.43,7.51-2.93-1.43-4,1.22-.6,5.36.79,6.75-2.62,2.23-2.62,2.23-.62,5,9.5,15.09L78.08,141c10.12,10.12,15.1,9.51,15.1,9.51s.83-4,2.22-2.62,4.1,1.85,6.75.78,1.3-1.68,1.22-4,6.26-2.69,7.51.42,7.4,2.92,7.3-.15,3.39-2.2,5.61,1.14,8.93,3,11.41,2.46-2.46-5.07,5.62-4.82,3.75,3.39,7.43,4.08,8.49-4.92,10.29-8.71,5.84-3.85,9.29-4.13,3.52-4.31.95-6.5-.21-6.55,3-8.17S175.75,123.84,177.91,125.25Z" style="fill:url(#linear-gradient-2)"/><path d="M167.7,133.3c.83-.07,1.06-.43,1.16-.7a3,3,0,0,0-1.14-2.93,4.74,4.74,0,0,1-1.59-4.54,9.38,9.38,0,0,1,4.92-6.33,3.72,3.72,0,0,1,4.6.72,11.63,11.63,0,0,1,1.7,2.39,9.11,9.11,0,0,0,1.32,1.88c1.16-.44,3.81-4.34,4.87-8.17a4.14,4.14,0,0,0,.13-.56,4.36,4.36,0,0,1-1.62-1c-1.07-1.07-1.55-2.79-1.49-5.43.11-5.41,1.93-9.71,4.63-10.94a3.44,3.44,0,0,1,2.53-.18c.26-1.9-.12-6-2-7.88a2.81,2.81,0,0,0-.73-.54,8.23,8.23,0,0,1-2-1.48c-3.54-3.53-3.77-10.16-1.78-13.9.09-.18.16-.32.2-.42-.32-.11-.83-.24-1.24-.34a22,22,0,0,1-4.13-1.41,6.74,6.74,0,0,1-1.78-1.24c-3.08-3.09-1.66-8.66,1.49-12.26.3-.45-.07-3.87-7.4-11.19-5.91-5.92-10-7.18-10.87-7-3.6,3.11-9.12,4.5-12.19,1.43a6.22,6.22,0,0,1-1.24-1.78,21.28,21.28,0,0,1-1.41-4.13c-.1-.4-.23-.9-.34-1.23a3.68,3.68,0,0,0-.42.2c-3.74,2-10.37,1.75-13.9-1.78a8,8,0,0,1-1.48-2,2.82,2.82,0,0,0-.55-.72c-1.87-1.88-6-2.25-7.87-2a3.44,3.44,0,0,1-.18,2.53c-1.23,2.69-5.53,4.51-11,4.63-2.63.05-4.36-.42-5.43-1.49a4.59,4.59,0,0,1-1-1.62,4.52,4.52,0,0,0-.56.13c-3.82,1-7.73,3.71-8.16,4.86a8.31,8.31,0,0,0,1.87,1.33,11.65,11.65,0,0,1,2.4,1.69,3.74,3.74,0,0,1,.72,4.6,9.37,9.37,0,0,1-6.33,4.92,4.76,4.76,0,0,1-4.54-1.58A3,3,0,0,0,83,46.74c-.26.1-.63.32-.7,1.16l0,.63c-.26,3.33-.6,7.9-5,10-3.89,1.85-8.26,6.14-7.81,8.52a1.33,1.33,0,0,0,.16.5l.35.11a4.19,4.19,0,0,1,1.91,1c1.08,1.08,1.59,2.89,1.69,6,.08,2.84-.38,4.65-1.48,5.67a4.08,4.08,0,0,1-3.43.87h0c-.43,2.76-.26,7.11,1.46,8.84a2.72,2.72,0,0,0,.42.34,11.13,11.13,0,0,1,1.67,1.36c1.8,1.8,2.51,3.88,1.84,5.42a3.22,3.22,0,0,1-3.33,1.82c-.1,0-.3,0-.51.47a3.45,3.45,0,0,0,.54,3.36,1.41,1.41,0,0,0,.47.32,4.44,4.44,0,0,1,1.52,1,7.33,7.33,0,0,1,1.24,7.5,3.2,3.2,0,0,1-3,2.14,8.56,8.56,0,0,1-2-.31l-.19,0a3.86,3.86,0,0,0-.25.55c-.86,2.13-.44,4.13.42,5a2.32,2.32,0,0,1,.68,2.36,3.9,3.9,0,0,1-2.67,2.22c.45,1.81,2.19,6,8.88,12.74l3.45,3.45c6.66,6.66,10.9,8.41,12.74,8.87A3.89,3.89,0,0,1,94.19,146a2.38,2.38,0,0,1,2.37.68c.86.86,2.85,1.29,5,.43a5.92,5.92,0,0,0,.56-.25c0-.07,0-.13,0-.19a9.14,9.14,0,0,1-.31-2,3.2,3.2,0,0,1,2.15-3,7.33,7.33,0,0,1,7.5,1.24,4.54,4.54,0,0,1,1,1.52,1.38,1.38,0,0,0,.31.46,3.41,3.41,0,0,0,3.36.54c.49-.21.48-.41.48-.5a3.2,3.2,0,0,1,1.81-3.33c1.54-.67,3.62,0,5.43,1.84a11.24,11.24,0,0,1,1.36,1.67,2.55,2.55,0,0,0,.34.41c1.72,1.73,6.07,1.89,8.84,1.46v0a4.12,4.12,0,0,1,.87-3.43c1-1.09,2.83-1.56,5.68-1.47,3.14.1,4.94.6,6,1.69a4.22,4.22,0,0,1,1,1.9,2,2,0,0,0,.13.38,2.46,2.46,0,0,0,.48.13c2.37.45,6.67-3.92,8.52-7.8,2.1-4.41,6.66-4.76,10-5Z" style="fill:url(#radial-gradient)"/><path d="M182.15,99.86S179,106.23,180.22,110c.92,2.84-6.09-2.79-12.52-5.24-6-2.32-12.75-4.26-6.33-4.69s12.8-.46,15.78-.42S182.88,98.52,182.15,99.86Z" style="fill:#85c70d"/><path d="M171.05,118.31s-4.58,1.72-5.22,6.15c-.43,3-1.93.15-12-6-5.54-3.37-9.85-6.28-3.47-5.4,5.4.75,11.72,1.55,14.63,2.18C169.58,116.27,172.32,117.49,171.05,118.31Z" style="fill:#92ce19"/><path d="M143.38,141.64c-1.88-.62-5.15-.64-6.32.11s-1.07,1.07-3.33-4-9.53-14-3.64-10.28a66.46,66.46,0,0,1,13.39,11.67C145.2,141.32,146.27,142.61,143.38,141.64Z" style="fill:#98d41c"/><path d="M108.56,132.75a58.62,58.62,0,0,1,1.82,7.82c.22,1.07-1.07-.21-3.32.11s-3.85,1.5-3.53-1.18S103.71,118.21,108.56,132.75Z" style="fill:#9fd821"/><path d="M179.62,82.47c.88,3.86,2.64,4.67,1,5.08s-10.16,1.9-16.8,3.66-18.5,6.16-8.07-1a138.11,138.11,0,0,1,21.55-12.06C179.07,77.32,178.8,78.88,179.62,82.47Z" style="fill:#92ce19"/><path d="M172.16,65.94a7,7,0,0,0,1.15,4.13c.68.81.54,1.49-1.69,2.23s-10,4.21-14,5.76-11.24,6.92-4.81.48a121,121,0,0,1,18.36-14.43C172.37,63.56,172.16,64.44,172.16,65.94Z" style="fill:#92ce19"/><path d="M116.17,33.88S109.8,37,106,35.81c-2.84-.92,2.79,6.09,5.24,12.52,2.32,6.05,4.26,12.75,4.68,6.33s.47-12.8.42-15.78S117.51,33.15,116.17,33.88Z" style="fill:#85c70d"/><path d="M97.72,45S96,49.56,91.57,50.2c-3,.43-.15,1.93,6,12,3.37,5.54,6.28,9.85,5.4,3.47-.75-5.4-1.55-11.72-2.18-14.63C99.76,46.45,98.54,43.71,97.72,45Z" style="fill:#92ce19"/><path d="M74.39,72.65C75,74.53,75,77.8,74.28,79s-1.07,1.08,4,3.33,14,9.53,10.28,3.64A66.46,66.46,0,0,0,76.85,72.55C74.7,70.83,73.42,69.76,74.39,72.65Z" style="fill:#98d41c"/><path d="M83.27,107.47a58.4,58.4,0,0,0-7.82-1.83c-1.06-.21.22,1.07-.1,3.32s-1.5,3.86,1.18,3.54S97.82,112.32,83.27,107.47Z" style="fill:#9fd821"/><path d="M133.56,36.41c-3.86-.88-4.67-2.64-5.08-1s-1.9,10.16-3.66,16.8-6.17,18.5,1,8.07A138.11,138.11,0,0,0,137.9,38.72C138.71,37,137.15,37.23,133.56,36.41Z" style="fill:#92ce19"/><path d="M150.09,43.87A6.93,6.93,0,0,1,146,42.71c-.81-.67-1.49-.54-2.23,1.7s-4.21,10-5.77,14-6.91,11.24-.47,4.81a120.87,120.87,0,0,0,14.43-18.37C152.47,43.66,151.58,43.87,150.09,43.87Z" style="fill:#92ce19"/><path d="M150.57,131.5c-.54-2.89-4.5-6.63-7.39-8.88s3.86-2.57,9.63-.65,6.11,1,1.61-.74-10.38-1.82-13.17-1.82-5.78-1.71-10.81-3.54-16-2.57-13.48-4.28a29.33,29.33,0,0,1,20.44-4c9.74,1.82,13.81,4.18,18.63,4.28s11.34,2.14,8.56.65-7.71-1.93-10.28-2.14-8.24-1.39-7.49-2.57,6.32-3.11,11-3.11,5.78-.86-.11-1.18-9,1.5-11.45,2.47-3.32.75-7.18-.11-14.23-.54-12.52-1.82,7.06-3.64,12.1-4.6,13.27-2.14,8.67-2.25a63.58,63.58,0,0,0-13.81,1.6c-4.07.86-4.39.11.75-4.17s12.09-5.46,16.59-6.1,6.84-2.36,10.59-5.67,3.21-3.94-.11-1a23,23,0,0,1-10.51,5.58c-3.75.75-6.29.6-4.58-2.82a33.34,33.34,0,0,1,6.43-9.2c2.35-2.14-1.07-.43-3.54,2.46S145,85,143.78,86.8s-4.52,2.36-8.37,4.72-4.33.59-2-1.76,6-7.28,10.06-10.06a20.59,20.59,0,0,0,7.65-8.85c2-3.85,6.93-5.24,11.16-6.85s1.62-1.31-1-.39-6,1.85-3.38-1.54,2.77-4.77.61-1.85a38.43,38.43,0,0,1-5.08,6.16,15.55,15.55,0,0,0-4.62,6.32c-1.08,2.92-4.67,4.24-7.75,7s-9,8.85-10.11,8.54a5.74,5.74,0,0,0-.76-.18c-.28-.34-.27-.88.3-1.59,1-1.32,7.6-8.66,10.37-11.57s1.13-2.31-.72-.46-9.85,10.11-11,10.84c-.87.57-1.46.68-1.84.11a7.65,7.65,0,0,0-.22-1c-.31-1.07,5.76-7,8.53-10.11s4.09-6.67,7-7.74A15.37,15.37,0,0,0,149,61.91a39.93,39.93,0,0,1,6.16-5.08c2.93-2.15,1.54-2-1.84.62s-2.47-.77-1.54-3.39,1.23-5.23-.39-1-3,9.16-6.85,11.16a20.63,20.63,0,0,0-8.85,7.66c-2.78,4.06-7.71,7.7-10.06,10.06s-4.11,1.88-1.76-2,2.9-7.19,4.72-8.37,6-2.93,8.92-5.4,4.6-5.89,2.46-3.53a33.32,33.32,0,0,1-9.2,6.42c-3.43,1.72-3.57-.83-2.82-4.57A23,23,0,0,1,133.52,54c2.89-3.31,2.27-3.85-1.05-.11s-5,6.11-5.67,10.6S125,75.94,120.7,81.08s-5,4.82-4.18.75A63.65,63.65,0,0,0,118.13,68c-.11-4.6-1.29,3.64-2.25,8.67s-3.32,10.38-4.6,12.1-1-8.67-1.82-12.53-1.07-4.71-.11-7.17,2.78-5.56,2.46-11.45-1.18-4.82-1.18-.11-1.92,10.28-3.1,11-2.36-4.92-2.57-7.49-.64-7.49-2.14-10.27.54,3.74.64,8.56,2.46,8.88,4.28,18.62a29.32,29.32,0,0,1-4,20.45C102.07,101,101.32,90,99.5,84.93S96,76.9,96,74.12,95.86,65.45,94.15,61s-2.68-4.18-.75,1.6,1.61,12.52-.64,9.63-6-6.85-8.89-7.38,2.79.21,9.21,10.49,8.49,23.88,5.72,28.5-3.47,2.08-3.93-2.08S90.71,92,87.25,89.94s.69,1.62,3.92,6.69,2.7,12.56-1.92,17.79c-3.72,4.22-15.42,11.63-19.84,14.35a49.43,49.43,0,0,0,6.38,7.59l3.45,3.45A50.85,50.85,0,0,0,86.57,146c2.7-4.38,10.15-16.16,14.38-19.89,5.24-4.62,12.71-5.16,17.79-1.93s8.78,7.39,6.7,3.93-7.62-7.16-11.78-7.62-6.7-1.16-2.08-3.93,18.22-.71,28.5,5.72S151.1,134.39,150.57,131.5Z" style="fill:url(#radial-gradient-2)"/><path d="M82.62,143c3.89-5.26,7.84-10.68,21.15-24.53,15.64-16.29.65-3.6-4.82,1.88s-3,1.54,8.24-10.51c6.46-6.93,11.38-11.44,10.7-12.12-.83-.84-3.35,2.1-11.84,10-12,11.23-16.47,14.22-11,8.74s17.84-20.14,1.88-4.82c-13.49,13-19,17-24.48,21.17.94,1.1,2,2.29,3.33,3.59l3.45,3.45C80.45,141,81.57,142.06,82.62,143Z" style="fill:#bbe154"/><path d="M63.36,94.68c3,1.37,26,4.61,33.06-6.62s-2.7-18.79-3.32-16.17-2.23,7.86-2.23,7.86-9.43-3.32-10.22-.89-2.26,6-2.39,6.3-4.89,2.75-4.89,2.75c-2.45-3-9.24-5.11-9.9-3.37S60.4,93.31,63.36,94.68Zm-29,35.64s8.65,5,8.15,9.27-6.54,9.56-7.08,10.69,1.45,2.22,2.51,2.37,11.8-6.22,11.91-8.17-3.2-23.07-5.28-22.49-9.76-.08-10.68.61S34.37,130.32,34.37,130.32Zm93.42,56.31c.89.58,3.11,1.08,3.45-.12s-.69-9.15,1.76-12.69,12.25-1.56,12.25-1.56,5.7-4.35,5.46-5.47-6.42-5.72-7.6-7.53-17.64,11.83-18.85,13.36S126.89,186,127.79,186.63Zm19.32-60.27c3.12.93,6-5.94,6.63-7.68s-5.81-4.68-9.66-4a47.28,47.28,0,0,1-1.85-5.3c.12-.32,1.37-4,2.39-6.3s-8.25-6.1-8.25-6.1,2.25-5,3.52-7.36-11.08-3.2-13.19,9.91S144,125.43,147.11,126.36Z" style="fill:#0a5c00"/><path d="M34.53,122.56c-2.55-.4-3.49,6.85-2.79,11.34s2.84-1.18,5.7,5.54,1.35,11.5-1.37,10.75,1.48,9.58,6.76,9.89,8.5,6.87,8.24,10.72,2.44,1.49,7.2,1.59,5.51,6,4.29,10.08c-.59,1.93,2.43,5.42,12.33,9.16,8.23,3.12,14,2.89,14.8,1.1,1.75-3.84,6.24-7.78,9.88-4.71s4.09,6.62,6.45,3.57,9.11-5.86,13.28-2.59,14.13-1.7,11.6-2.94-.5-5.82,6.09-9,4.45,2.52,7.94-.38,7.59-9,5.42-10.35-7.23.09-7.07-3.52,3.16-7.54,6.21-6.1,6.7-.28,5.54-3.54-2.77-7-.06-10.16,5.85-9.91,3.71-13-3.22,2.16-6.77-5.1,2.65-4.63,2.09-7.1-3-8.74-6.95-9.39-6.19-3.47-3.34-4.64.49-6.86-2.86-6.72-5.61-5.78-3.47-6.67,3.25.11,3.14-2.75-1.66-5.14-3.5-5.83,1.48-3.11,1.48-3.11S137,74,123.63,68.92l-4.57-1.73c-13.38-5.06-17.67-2.45-17.67-2.45s.89,4-1,3.3S96,68,94,70.1s-.49,2.07.52,4.14-4.59,5-7,2.7-7.94.38-6.59,3.14-2.19,3.4-5.58,1.27-9.36,1-11.42,2.45,4.33,3.61-3.14,6.7-4.81-1.54-8.44-.66-5.72,8-5.81,12.18-3.74,5.91-6.77,7.58-1.43,5.37,1.81,6.32,2.88,5.87.62,8.68S37.07,123,34.53,122.56Z" style="fill:url(#linear-gradient-3)"/><path d="M40.52,111c-.73.4-.79.82-.77,1.11A3,3,0,0,0,42,114.35a4.73,4.73,0,0,1,3.31,3.48,9.38,9.38,0,0,1-1.88,7.79,3.74,3.74,0,0,1-4.49,1.24,12,12,0,0,1-2.53-1.48,8.76,8.76,0,0,0-2-1.17c-.87.87-1.69,5.52-1.08,9.44a4.9,4.9,0,0,0,.12.57,4.25,4.25,0,0,1,1.88.24c1.42.54,2.56,1.92,3.6,4.34,2.12,5,2.22,9.65.28,11.88a3.45,3.45,0,0,1-2.24,1.2c.55,1.85,2.57,5.43,5,6.37a3.25,3.25,0,0,0,.89.2,8,8,0,0,1,2.44.52c4.67,1.76,7.61,7.71,7.33,11.94,0,.2,0,.35,0,.47.34,0,.86-.13,1.27-.2a20.7,20.7,0,0,1,4.35-.42,6.77,6.77,0,0,1,2.13.4c4.07,1.55,5.07,7.21,3.68,11.79-.09.53,1.66,3.49,11.35,7.16,7.82,3,12.08,2.41,12.77,1.87,2-4.32,6.47-7.86,10.52-6.32a6.55,6.55,0,0,1,1.87,1.11,21.43,21.43,0,0,1,3,3.19c.25.32.58.72.82,1a4.59,4.59,0,0,0,.3-.35c2.59-3.36,8.73-5.87,13.4-4.1a8.26,8.26,0,0,1,2.17,1.22,2.94,2.94,0,0,0,.8.44c2.48.94,6.37-.41,8-1.43a3.42,3.42,0,0,1-.87-2.38c0-3,3.18-6.38,8.07-8.72,2.38-1.13,4.15-1.41,5.57-.87a4.57,4.57,0,0,1,1.57,1.06,3.74,3.74,0,0,0,.46-.35c3.05-2.53,5.52-6.56,5.44-7.78a8.05,8.05,0,0,0-2.25-.44,12,12,0,0,1-2.88-.56,3.74,3.74,0,0,1-2.55-3.9,9.39,9.39,0,0,1,3.75-7.09,4.76,4.76,0,0,1,4.79-.42,3,3,0,0,0,3.14-.17c.2-.2.44-.55.16-1.34l-.22-.6c-1.14-3.14-2.7-7.44.46-11.17,2.78-3.28,5-9,3.61-11a1.29,1.29,0,0,0-.35-.39l-.36,0a4.16,4.16,0,0,1-2.17-.17c-1.43-.54-2.64-2-4-4.8-1.25-2.56-1.56-4.4-1-5.78a4.09,4.09,0,0,1,2.77-2.2l.05,0c-.75-2.69-2.69-6.59-5-7.46a3.07,3.07,0,0,0-.52-.14,11,11,0,0,1-2.08-.55c-2.38-.9-3.88-2.51-3.91-4.19a3.21,3.21,0,0,1,2.29-3c.09,0,.28-.12.27-.64a3.44,3.44,0,0,0-1.88-2.84,1.56,1.56,0,0,0-.55-.1,4.48,4.48,0,0,1-1.8-.29,7.32,7.32,0,0,1-4.21-6.33A3.2,3.2,0,0,1,136.75,89a9.15,9.15,0,0,1,1.94-.53l.19,0a4,4,0,0,0,0-.61c-.09-2.3-1.3-3.94-2.44-4.37a2.36,2.36,0,0,1-1.59-1.87,3.89,3.89,0,0,1,1.53-3.12c-1.16-1.46-4.49-4.62-13.33-8l-4.57-1.73c-8.81-3.33-13.39-3.18-15.26-2.85a3.88,3.88,0,0,1-.92,3.34,2.34,2.34,0,0,1-2.44.36c-1.14-.44-3.13,0-4.72,1.66-.19.2-.32.35-.4.45l.12.16A8.52,8.52,0,0,1,96,73.53a3.18,3.18,0,0,1-.73,3.6,7.32,7.32,0,0,1-7.34,2,4.52,4.52,0,0,1-1.55-1,1.27,1.27,0,0,0-.47-.3,3.45,3.45,0,0,0-3.29.89c-.35.39-.27.57-.22.66a3.21,3.21,0,0,1-.29,3.78c-1.13,1.24-3.32,1.45-5.7.55a11.19,11.19,0,0,1-1.93-1A3.58,3.58,0,0,0,74,82.5c-2.28-.86-6.31.78-8.66,2.31l0,0A4.12,4.12,0,0,1,66,88.33C65.46,89.75,64,90.92,61.38,92c-2.91,1.2-4.76,1.48-6.19.94a4.25,4.25,0,0,1-1.74-1.31,2.73,2.73,0,0,0-.27-.29,2.47,2.47,0,0,0-.49.08c-2.35.57-4.47,6.31-4.56,10.62-.1,4.88-4.12,7.07-7.05,8.67Z" style="fill:url(#radial-gradient-3)"/><path d="M41.1,147.46s.26-7.11-2.41-10.05c-2-2.21,6.7,0,13.56-.37,6.47-.38,13.38-1.37,7.7,1.67s-11.48,5.68-14.21,6.86S41,149,41.1,147.46Z" style="fill:#85c70d"/><path d="M43.63,126.07s3.47-3.45,2.23-7.75c-.82-2.87,1.7-.93,13.37.51,6.44.8,11.57,1.68,5.39,3.5-5.23,1.53-11.32,3.41-14.23,4C45.81,127.32,42.81,127.34,43.63,126.07Z" style="fill:#92ce19"/><path d="M59.26,93.42c2-.2,5-1.53,5.72-2.7s.53-1.41,4.66,2.25,14.45,8.87,7.54,7.88a66.73,66.73,0,0,1-17-5.14C57.73,94.46,56.23,93.73,59.26,93.42Z" style="fill:#98d41c"/><path d="M94.65,87.21a57.54,57.54,0,0,1-4.87-6.38c-.64-.89,1.06-.25,3-1.46s2.9-3,3.71-.38S105.06,98.48,94.65,87.21Z" style="fill:#9fd821"/><path d="M50.56,162.26c-2.39-3.15-4.33-3.17-3-4.21S56,152.14,61.36,147.8s14.33-13.22,7.77-2.39a138.58,138.58,0,0,1-14.68,19.86C53.17,166.74,52.79,165.2,50.56,162.26Z" style="fill:#92ce19"/><path d="M64.15,174.27A6.85,6.85,0,0,0,61.4,171c-.95-.47-1.1-1.14.63-2.74s7.41-8,10.42-11,7.41-10.92,4.19-2.41a121,121,0,0,1-10.81,20.71C64.94,176.52,64.77,175.63,64.15,174.27Z" style="fill:#92ce19"/><path d="M128.37,180.47s4.51-5.51,8.46-5.94c3-.32-5-4.41-9.92-9.25-4.6-4.57-9.12-9.88-6.87-3.85s4.84,11.86,6.1,14.55S127.46,181.68,128.37,180.47Z" style="fill:#85c70d"/><path d="M140.63,162.76s-.32-4.88,3.46-7.29c2.52-1.6-.66-1.82-10.37-8.46-5.35-3.66-9.78-6.39-6.35-.95,2.91,4.62,6.23,10.05,8,12.44C138.17,162.26,140.41,164.26,140.63,162.76Z" style="fill:#92ce19"/><path d="M150.52,127.94c-1.34-1.45-2.7-4.42-2.5-5.81s.53-1.41-5-1.39-16.71-2.92-10.87.9a66.63,66.63,0,0,0,16.15,7.41C151,129.73,152.59,130.18,150.52,127.94Z" style="fill:#98d41c"/><path d="M128.1,99.86A57.39,57.39,0,0,0,136,98.3c1.06-.24-.64-.88-1.27-3.06s-.22-4.14-2.53-2.74S112.84,101.42,128.1,99.86Z" style="fill:#9fd821"/><path d="M111.48,185.3c3.88-.78,5.35.49,5-1.16s-2.45-10-3.58-16.82-2-19.4-4.24-6.93a138.69,138.69,0,0,0-2.13,24.6C106.56,186.93,107.87,186,111.48,185.3Z" style="fill:#92ce19"/><path d="M93.35,185.31a7,7,0,0,1,4.24-.65c1,.29,1.58-.12,1.34-2.46s-.3-10.87-.52-15.16,1.68-13.09-1.55-4.58a121.93,121.93,0,0,0-5.6,22.67C91.27,186.47,92,185.92,93.35,185.31Z" style="fill:#92ce19"/><path d="M56.88,105.62c1.67,2.42,6.82,4.2,10.38,5.06s-2.45,3.93-8.51,4.55-6,1.63-1.16,1.34S67.8,114,70.34,112.82s6-.82,11.31-1.23,15.69-4.26,14-1.64a29.33,29.33,0,0,1-17,12c-9.63,2.34-14.31,1.87-18.74,3.75s-11.23,2.72-8.07,2.94,7.81-1.41,10.25-2.28,8.08-2.12,7.88-.74-4.48,5.43-8.77,7.37-4.92,3.16.58,1,7.58-5.07,9.43-7,2.71-2,6.58-2.85S91,118.87,90,120.74s-4.94,6.22-9.13,9.17-11.22,7.41-7,5.62a63.47,63.47,0,0,0,11.93-7.15c3.35-2.45,4-1.9,1,4.12s-8.78,9.95-12.62,12.38-5.27,5-7.32,9.53-1.3,4.9.53.91a23,23,0,0,1,7.29-9.41c3.11-2.23,5.48-3.14,5.33.69a33.31,33.31,0,0,1-2.07,11c-1.26,2.92,1.15,0,2.21-3.7s.93-8.2,1.25-10.35,3.14-4,5.69-7.74,3.69-2.32,2.52.79-2.47,9.1-5,13.31a20.59,20.59,0,0,0-3.33,11.21c-.24,4.33-4.17,7.62-7.36,10.84s-.94,1.86,1.07-.06,4.71-4.16,3.72,0-.56,5.49.2,1.94a38.91,38.91,0,0,1,2.1-7.71,15.48,15.48,0,0,0,1.61-7.65c-.22-3.11,2.51-5.79,4.18-9.59s4.6-11.77,5.71-11.93c.2,0,.46-.08.76-.15.4.19.62.68.39,1.57-.42,1.64-3.37,11-4.7,14.81s-.08,2.57.85.12,4.82-13.27,5.54-14.39c.57-.88,1.06-1.23,1.64-.86a6.44,6.44,0,0,0,.61.82c.73.86-2.36,8.79-3.62,12.73s-1,7.77-3.21,9.95a15.5,15.5,0,0,0-3.85,6.81,39.61,39.61,0,0,1-3.53,7.16c-1.78,3.17-.58,2.46,1.43-1.32s2.57-.31,2.8,2.46,1,5.27.76.75-1-9.59,1.66-13A20.61,20.61,0,0,0,95,153.85c.86-4.85,3.85-10.19,5-13.31s3-3.41,2.41,1.08.32,7.74-.86,9.57-4.29,5.15-5.91,8.58S93.87,167,94.85,164a33.44,33.44,0,0,1,5.75-9.64c2.42-3,3.59-.71,4.45,3a22.88,22.88,0,0,1-.76,11.87c-1.27,4.22-.49,4.45,1-.33s2.07-7.63.81-12-3-11.18-1.26-17.63,2.61-6.46,3.5-2.4a63.26,63.26,0,0,0,4.21,13.25c2,4.15-.32-3.85-1.51-8.83s-1.25-10.83-.78-12.92,4.44,7.51,6.8,10.67,2.92,3.85,3,6.49-.24,6.22,2.47,11.46,3,3.9,1.12-.39-2.47-10.16-1.71-11.33,4.17,3.52,5.42,5.78,3.67,6.56,6.18,8.48-2-3.19-4.11-7.54-5.89-7.08-11.56-15.22a29.3,29.3,0,0,1-4.79-20.26c.5-3,5.72,6.7,9.44,10.53s6.53,5.87,7.67,8.41,3.66,7.86,7.07,11.25,4.16,2.7,0-1.77-6.62-10.76-3.38-9.05,8.28,3.78,11.14,3.08-2.63.95-12.71-5.78-17.55-18.27-16.93-23.62,2.3-3.32,4.44.28,7.77,7.13,11.79,7.6-1.3-1.19-6.34-4.49-7.61-10.33-5.55-17C121.45,90.61,129.07,79,132,74.74a48.76,48.76,0,0,0-8.93-4.29l-4.57-1.73a50.43,50.43,0,0,0-9.24-2.65c-.66,5.11-2.61,18.91-4.93,24.05-2.87,6.36-9.46,9.93-15.42,9.07s-11-3.13-7.72-.82,9.89,3.39,13.87,2.1,6.58-1.7,3.51,2.72-16.32,8.14-28.32,6.51S55.2,103.21,56.88,105.62Z" style="fill:url(#radial-gradient-4)"/><path d="M114.1,67.24c-1.38,6.39-2.75,13-9.19,31.06-7.56,21.28.89,3.55,3.63-3.7s2.08-2.64-3.2,13c-3,9-5.67,15.11-4.77,15.45,1.11.42,2.19-3.29,6.68-14,6.37-15.19,9.17-19.73,6.42-12.48s-8,25.69.27,5.16c7-17.37,10.28-23.32,13.62-29.36-1.32-.62-2.8-1.26-4.51-1.9l-4.57-1.73C116.88,68.12,115.43,67.63,114.1,67.24Z" style="fill:#bbe154"/><path d="M94.7,128.75a27.52,27.52,0,1,1-54.5,7.65Z" style="fill:#f82100"/><path d="M93.38,129a26.24,26.24,0,1,1-52,7.3Z" style="fill:#fd6f47"/><path d="M88.08,130.16A20.91,20.91,0,0,1,46.66,136Z" style="fill:#eb2100"/><path d="M72.3,143.26a2.41,2.41,0,1,0,4.6-1.4c-.4-1.33-2.61-3.29-3.43-3.05C72.91,139,71.9,141.93,72.3,143.26Zm-9,.49a2.41,2.41,0,1,0,4.81.09c0-1.39-1.74-3.94-2.33-4C64.9,139.87,63.31,142.37,63.28,143.75Zm-7.36-.7a2.46,2.46,0,0,0,3.38-.82c.75-1.17.59-4.27.09-4.59-.72-.46-3.38.82-4.14,2A2.47,2.47,0,0,0,55.92,143.05Zm24.4-3.74a2.41,2.41,0,1,0,3.18-3.61c-1-.92-4-1.42-4.52-.78C78.59,135.36,79.28,138.39,80.32,139.31Z" style="fill:#e86900"/><path d="M64.11,144.38a1.38,1.38,0,0,0,.28.88,1.18,1.18,0,0,0,.92.47,1.16,1.16,0,0,0,.85-.35,1.34,1.34,0,0,0,.39-1,5.22,5.22,0,0,0-1.11-2.36l-.13-.16A5.13,5.13,0,0,0,64.11,144.38Zm9-.87a1.26,1.26,0,0,0,.24.46,1.23,1.23,0,0,0,1.32.47,1.11,1.11,0,0,0,.7-.61,1.38,1.38,0,0,0,.09-1,2.49,2.49,0,0,0-.43-.74h0a5.74,5.74,0,0,0-1.42-1.32A5.7,5.7,0,0,0,73.07,143.51ZM55.91,142.4a1.2,1.2,0,0,0,.29.26A1.29,1.29,0,0,0,58,142.2a5.64,5.64,0,0,0,.27-2.8,5.12,5.12,0,0,0-2.33,1.48A1.34,1.34,0,0,0,55.91,142.4ZM80.75,139a1.36,1.36,0,0,0,1,.35,1.15,1.15,0,0,0,.84-.39,1.25,1.25,0,0,0,0-1.59h0a1.94,1.94,0,0,0-.2-.21,5.22,5.22,0,0,0-2.64-.79,6.44,6.44,0,0,0,.9,2.49A1,1,0,0,0,80.75,139Z" style="fill:#ffb500"/><path d="M59.92,135a4,4,0,0,1,2.27,3.09c.11,1.7,1.49.32,3.45.31a5.13,5.13,0,0,1,3.93,1.81c.77.81.87-1.3,3-2.38s4.4.56,4.37-.62A5,5,0,0,1,79.05,133c1.69-1-.29-1.13-2.22-.86l-15.44,2.16C60.11,134.45,59.06,134.47,59.92,135Z" style="fill:#ffab82"/><path d="M102.2,54.75A27.52,27.52,0,1,1,47.7,62.4Z" style="fill:#f82100"/><path d="M100.88,55a26.24,26.24,0,1,1-52,7.3Z" style="fill:#fd6f47"/><path d="M95.58,56.16A20.91,20.91,0,0,1,54.16,62Z" style="fill:#eb2100"/><path d="M79.8,69.26a2.41,2.41,0,1,0,4.6-1.4c-.4-1.33-2.61-3.29-3.43-3C80.41,65,79.4,67.93,79.8,69.26Zm-9,.49a2.41,2.41,0,1,0,4.81.09c0-1.39-1.74-3.94-2.33-4C72.4,65.87,70.81,68.37,70.78,69.75Zm-7.36-.7a2.46,2.46,0,0,0,3.38-.82c.75-1.17.59-4.27.09-4.59-.72-.46-3.38.82-4.14,2A2.47,2.47,0,0,0,63.42,69.05Zm24.4-3.74A2.41,2.41,0,1,0,91,61.7c-1-.92-4-1.42-4.52-.78C86.09,61.36,86.78,64.39,87.82,65.31Z" style="fill:#e86900"/><path d="M71.61,70.38a1.38,1.38,0,0,0,.28.88,1.18,1.18,0,0,0,.92.47,1.16,1.16,0,0,0,.85-.35,1.34,1.34,0,0,0,.39-1,5.22,5.22,0,0,0-1.11-2.36l-.13-.16A5.13,5.13,0,0,0,71.61,70.38Zm9-.87a1.26,1.26,0,0,0,.24.46,1.23,1.23,0,0,0,1.32.47,1.11,1.11,0,0,0,.7-.61,1.38,1.38,0,0,0,.09-1,2.49,2.49,0,0,0-.43-.74h0a5.74,5.74,0,0,0-1.42-1.32A5.7,5.7,0,0,0,80.57,69.51ZM63.41,68.4a1.2,1.2,0,0,0,.29.26,1.29,1.29,0,0,0,1.75-.46,5.64,5.64,0,0,0,.27-2.8,5.12,5.12,0,0,0-2.33,1.48A1.34,1.34,0,0,0,63.41,68.4ZM88.25,65a1.36,1.36,0,0,0,1,.35,1.15,1.15,0,0,0,.84-.39,1.25,1.25,0,0,0,0-1.59h0a1.94,1.94,0,0,0-.2-.21,5.22,5.22,0,0,0-2.64-.79,6.44,6.44,0,0,0,.9,2.49A1,1,0,0,0,88.25,65Z" style="fill:#ffb500"/><path d="M67.42,61a4,4,0,0,1,2.27,3.09c.11,1.7,1.49.32,3.45.31a5.13,5.13,0,0,1,3.93,1.81c.77.81.87-1.3,3-2.38s4.4.56,4.37-.62A5,5,0,0,1,86.55,59c1.69-1-.29-1.13-2.22-.86L68.89,60.27C67.61,60.45,66.56,60.47,67.42,61Z" style="fill:#ffab82"/><path d="M159.69,96c-10.23,5.65-14.46,17.57-9.46,26.62s17.34,11.82,27.57,6.17,14.47-17.56,9.47-26.62S169.92,90.38,159.69,96Zm15.44,28c-7.21,4-15.91,2-19.44-4.34s-.54-14.79,6.67-18.77,15.92-2,19.44,4.35S182.34,120,175.13,124Z" style="fill:#beca7f"/><path d="M161.16,98.68c-10.23,5.65-14.47,17.57-9.47,26.62s17.35,11.82,27.58,6.17,14.46-17.57,9.46-26.62S171.39,93,161.16,98.68Zm15.44,27.95c-7.21,4-15.92,2-19.44-4.34s-.54-14.79,6.67-18.77,15.91-2,19.44,4.35S183.81,122.65,176.6,126.63Z" style="fill:#ebf1e1"/><path d="M144.22,132.82a27.52,27.52,0,0,1-46.53-29.39Z" style="fill:#f82100"/><path d="M143.05,132.17a26.23,26.23,0,0,1-44.36-28Z" style="fill:#fd6f47"/><path d="M138.26,129.62a20.91,20.91,0,1,1-35.36-22.34Z" style="fill:#eb2100"/><path d="M117.76,129.41a2.41,2.41,0,1,0,4.41,1.91c.55-1.27.14-4.2-.65-4.54C121,126.54,118.31,128.14,117.76,129.41Zm-7.2-5.45a2.41,2.41,0,1,0,3.61,3.18c.92-1,1.22-4.14.77-4.53C114.3,122.05,111.47,122.92,110.56,124Zm-5.17-5.29a2.47,2.47,0,0,0,3.11,1.56c1.33-.41,3.21-2.88,3-3.44-.25-.82-3.12-1.57-4.45-1.16A2.46,2.46,0,0,0,105.39,118.67Zm21,12.92a2.41,2.41,0,1,0,4.76-.7c-.2-1.38-2.1-3.65-2.95-3.52C127.66,127.45,126.23,130.21,126.43,131.59Z" style="fill:#e86900"/><path d="M110.78,125a1.37,1.37,0,0,0-.35.85,1.15,1.15,0,0,0,1.27,1.24,1.4,1.4,0,0,0,.92-.47,5.21,5.21,0,0,0,.67-2.53,1.41,1.41,0,0,0,0-.2A5.18,5.18,0,0,0,110.78,125Zm7.4,5.14a1.46,1.46,0,0,0-.12.5,1.24,1.24,0,0,0,.71,1.21,1.12,1.12,0,0,0,.93,0,1.37,1.37,0,0,0,.73-.73,2.76,2.76,0,0,0,.15-.83h0a6,6,0,0,0-.23-1.93A5.62,5.62,0,0,0,118.18,130.11Zm-12.37-12a1,1,0,0,0,0,.39,1.27,1.27,0,0,0,1.63.77,5.65,5.65,0,0,0,2-1.95,5.16,5.16,0,0,0-2.73-.38A1.3,1.3,0,0,0,105.81,118.16Zm21.13,13.48a1.33,1.33,0,0,0,.51.9,1.17,1.17,0,0,0,.89.25,1.26,1.26,0,0,0,1-1.22h0a1.34,1.34,0,0,0,0-.28,5.25,5.25,0,0,0-1.51-2.31,6.36,6.36,0,0,0-.92,2.48A.67.67,0,0,0,126.94,131.64Z" style="fill:#ffb500"/><path d="M113.65,115.11a4,4,0,0,1-.27,3.83c-1,1.36.93,1.2,2.44,2.46a5.18,5.18,0,0,1,1.83,3.92c.06,1.12,1.5-.43,3.78.09s3,3.28,3.74,2.36a4.94,4.94,0,0,1,4.38-1.84c2,.31.52-1.06-1.13-2.1l-13.18-8.32C114.14,114.81,113.33,114.15,113.65,115.11Z" style="fill:#ffab82"/><path d="M192.79,129.46a27.52,27.52,0,1,1-41.17-36.52Z" style="fill:#f82100"/><path d="M191.74,128.63a26.23,26.23,0,1,1-39.25-34.82Z" style="fill:#fd6f47"/><path d="M187.43,125.34a20.91,20.91,0,1,1-31.29-27.76Z" style="fill:#eb2100"/><path d="M167.23,121.83a2.4,2.4,0,1,0,4,2.59c.75-1.17.82-4.13.09-4.59C170.87,119.51,168,120.65,167.23,121.83ZM161,115.28a2.41,2.41,0,1,0,3.05,3.72c1.08-.88,1.87-3.89,1.5-4.34C165,114,162.07,114.4,161,115.28Zm-4.24-6.06a2.45,2.45,0,0,0,2.81,2c1.38-.18,3.64-2.32,3.56-2.9-.11-.85-2.82-2-4.2-1.86A2.45,2.45,0,0,0,156.76,109.22Zm18.67,16.15a2.41,2.41,0,1,0,4.81.08c0-1.39-1.48-3.93-2.33-4C177.32,121.49,175.46,124,175.43,125.37Z" style="fill:#e86900"/><path d="M161.06,116.31a1.47,1.47,0,0,0-.49.79,1.18,1.18,0,0,0,.24,1,1.15,1.15,0,0,0,.82.41,1.32,1.32,0,0,0,1-.32,5.27,5.27,0,0,0,1.08-2.38c0-.07,0-.13,0-.2A5.23,5.23,0,0,0,161.06,116.31Zm6.47,6.27a1.63,1.63,0,0,0-.2.47,1.23,1.23,0,0,0,.51,1.31,1.11,1.11,0,0,0,.91.15,1.39,1.39,0,0,0,.84-.61,2.29,2.29,0,0,0,.28-.8h0a6,6,0,0,0,.09-1.93A5.65,5.65,0,0,0,167.53,122.58Zm-10.28-13.79a1.27,1.27,0,0,0,0,.39,1.29,1.29,0,0,0,1.49,1,5.54,5.54,0,0,0,2.3-1.61,5.12,5.12,0,0,0-2.63-.81A1.34,1.34,0,0,0,157.25,108.79Zm18.68,16.72a1.35,1.35,0,0,0,.35,1,1.17,1.17,0,0,0,.84.38,1.26,1.26,0,0,0,1.22-1h0a1.27,1.27,0,0,0,0-.28,5.14,5.14,0,0,0-1.12-2.52,6.3,6.3,0,0,0-1.3,2.3A.77.77,0,0,0,175.93,125.51Z" style="fill:#ffb500"/><path d="M165.48,107.05a4,4,0,0,1-.88,3.73c-1.22,1.18.72,1.34,2,2.82a5.22,5.22,0,0,1,1.17,4.17c-.12,1.11,1.55-.19,3.72.69s2.43,3.73,3.3,2.94a5,5,0,0,1,4.63-1.11c1.88.63.68-1-.78-2.25L167,107.69C166,106.83,165.33,106.05,165.48,107.05Z" style="fill:#ffab82"/><path d="M127.56,126.85c-.56-.12-5.74-1.06-6.26-1.25-9-3.22-9.3-14-6.48-25.9,2.77-11.77,7.58-21,16.93-20.19.69.06,5.9,1.42,6.59,1.58,10,2.36,15.72,14.52,12.74,27.15S137.57,129.21,127.56,126.85Z" style="fill:#136300"/><path d="M121.35,125.39c-9.38-2.21-14.57-14.25-11.6-26.88s13-21.09,22.39-18.88,14.58,14.25,11.6,26.89S130.74,127.61,121.35,125.39Z" style="fill:#38ab00"/><path d="M121.71,123.88c-8.77-2.06-13.62-13.3-10.84-25.11S123,79.07,131.78,81.14s13.62,13.31,10.84,25.11S130.48,126,121.71,123.88Z" style="fill:#9ecc57"/><path d="M122.47,124.06C113.7,122,108.85,110.75,111.63,99s12.14-19.7,20.91-17.63,13.62,13.3,10.84,25.11S131.24,126.13,122.47,124.06Z" style="fill:#b8e857"/><path d="M131.81,108.06a13.48,13.48,0,0,0,1.64-4c1.26-5.38-.83-10.48-4.68-11.39a5.63,5.63,0,0,0-1.15-.13c-.4,3.13-.91,7.78-.31,9A36.79,36.79,0,0,0,131.81,108.06Zm-6.52-15c-2.61,1.1-4.9,4-5.78,7.76a13,13,0,0,0-.22,5.06c2.66-2.14,4.71-3.66,5-5.74C124.54,98.84,125,95.67,125.29,93.05Zm5.29,16.65c-.61-1.55-3-4.23-4.4-5.58s-4.7,1.88-6.46,3.48a6.5,6.5,0,0,0,4.46,4.59C126.42,112.72,128.76,111.7,130.58,109.7Z" style="fill:#ccff6e"/><path d="M141.51,118c-7.66-8.82-20.2-10.47-28-3.69s-7.93,19.43-.26,28.26,20.2,10.47,28,3.68S149.18,126.79,141.51,118Zm-24.1,20.94c-5.4-6.22-5.32-15.13.19-19.92s14.34-3.61,19.74,2.6,5.32,15.14-.18,19.92S122.81,145.13,117.41,138.91Z" style="fill:#beca7f"/><path d="M139.22,120c-7.66-8.82-20.2-10.47-28-3.69s-7.93,19.44-.26,28.26,20.2,10.47,28,3.68S146.89,128.78,139.22,120Zm-24.1,20.94c-5.4-6.21-5.32-15.13.18-19.92s14.35-3.61,19.75,2.6,5.32,15.14-.18,19.92S120.52,147.12,115.12,140.9Z" style="fill:#ebf1e1"/><path d="M124.06,194.38a27.51,27.51,0,1,1,20.44-51.09Z" style="fill:#f82100"/><path d="M124.48,193.11A26.23,26.23,0,0,1,144,144.4C138.65,157.72,130.32,178.54,124.48,193.11Z" style="fill:#fd6f47"/><path d="M126.12,187.94a20.92,20.92,0,1,1,15.54-38.84Z" style="fill:#eb2100"/><path d="M122.6,167.74a2.41,2.41,0,1,0-1.08,4.69c1.36.31,4.16-.64,4.35-1.47C126,170.39,124,168.05,122.6,167.74Zm4.05-8.07a2.41,2.41,0,1,0-2.46,4.13c1.19.71,4.29.44,4.59-.06C129.22,163,127.84,160.38,126.65,159.67Zm4.27-6a2.46,2.46,0,0,0-1,3.34c.64,1.24,3.42,2.64,3.94,2.37.76-.39,1-3.35.33-4.58A2.47,2.47,0,0,0,130.92,153.62Zm-8.88,23a2.41,2.41,0,1,0,1.55,4.55c1.31-.44,3.2-2.72,2.93-3.53C126.33,177.12,123.35,176.21,122,176.66Z" style="fill:#e86900"/><path d="M125.7,160.07a1.43,1.43,0,0,0-.9-.19,1.15,1.15,0,0,0-.87.56,1.22,1.22,0,0,0-.12.92,1.42,1.42,0,0,0,.64.81,5.16,5.16,0,0,0,2.6.21l.2,0A5.18,5.18,0,0,0,125.7,160.07ZM122,168.28a1.25,1.25,0,0,0-.51,0,1.22,1.22,0,0,0-1.06.92,1.16,1.16,0,0,0,.17.9,1.36,1.36,0,0,0,.85.59,2.48,2.48,0,0,0,.85,0h0a5.87,5.87,0,0,0,1.85-.57A5.62,5.62,0,0,0,122,168.28Zm9.5-14.34a1.33,1.33,0,0,0-.37.12,1.29,1.29,0,0,0-.47,1.75,5.7,5.7,0,0,0,2.3,1.63,5.22,5.22,0,0,0-.13-2.76A1.33,1.33,0,0,0,131.49,153.94Zm-9.42,23.23a1.38,1.38,0,0,0-.79.67,1.14,1.14,0,0,0-.07.92,1.25,1.25,0,0,0,1.38.79h0a.9.9,0,0,0,.27-.07,5.18,5.18,0,0,0,2-1.9,6.39,6.39,0,0,0-2.61-.45Z" style="fill:#ffb500"/><path d="M135.91,161.1a4,4,0,0,1-3.81.43c-1.52-.74-1,1.14-2,2.85a5.14,5.14,0,0,1-3.53,2.5c-1.08.27.7,1.41.61,3.74s-2.68,3.55-1.64,4.1a5,5,0,0,1,2.6,4c.05,2,1.13.31,1.86-1.5s5.31-13.27,5.79-14.47S136.81,160.62,135.91,161.1Z" style="fill:#ffab82"/><path d="M133.27,68.87c0,.62.3,6.35.23,6.95C132.33,86.16,121,89.16,107.67,89.16c-13.16,0-24.2-2.78-25.63-12.91-.11-.75,0-6.61,0-7.38,0-11.2,11.46-20.28,25.6-20.28S133.27,57.67,133.27,68.87Z" style="fill:#136300"/><path d="M133.27,75.81c0,10.5-11.46,19-25.6,19s-25.6-8.51-25.6-19,11.46-19,25.6-19S133.27,65.31,133.27,75.81Z" style="fill:#38ab00"/><path d="M131.58,75.81c0,9.81-10.71,17.76-23.91,17.76S83.76,85.62,83.76,75.81s10.7-17.76,23.91-17.76S131.58,66,131.58,75.81Z" style="fill:#9ecc57"/><ellipse cx="107.67" cy="74.96" rx="23.91" ry="17.76" style="fill:#9ecc57"/><path d="M112.29,69.06a14.57,14.57,0,0,0-4.62-.74c-6,0-10.9,3.49-10.9,7.79a5.87,5.87,0,0,0,.15,1.26c3.41-.36,8.47-1,9.6-1.92A40.46,40.46,0,0,0,112.29,69.06ZM98,79.71c1.81,2.49,5.46,4.2,9.66,4.2a14.26,14.26,0,0,0,5.42-1c-2.93-2.28-5.06-4.07-7.34-3.91C104.33,79.06,100.85,79.35,98,79.71ZM114.34,70c-1.49,1-3.75,4.21-4.83,6.06s3.17,4.51,5.31,6c2.29-1.43,3.75-3.53,3.75-5.88C118.57,73.6,116.91,71.38,114.34,70Z" style="fill:#bde86e"/><path d="M34.1,135.23c8.86,7.62,21.5,7.44,28.25-.39s5-20.38-3.81-28-21.51-7.45-28.26.39S25.24,127.61,34.1,135.23ZM54.93,111c6.24,5.37,7.45,14.2,2.69,19.73S44,136.41,37.7,131,30.26,116.83,35,111.3,48.69,105.65,54.93,111Z" style="fill:#beca7f"/><path d="M36.08,132.93c8.86,7.62,21.51,7.44,28.25-.4s5-20.37-3.81-28-21.51-7.45-28.25.39S27.23,125.3,36.08,132.93Zm20.83-24.2c6.24,5.37,7.45,14.2,2.69,19.73s-13.67,5.65-19.91.28S32.24,114.53,37,109,50.67,103.35,56.91,108.73Z" style="fill:#ebf1e1"/><path d="M119.12,156.1c-.15-.62-1.89-6.24-2-6.86-1.44-10.58,9-16.4,22.34-19.76,13.1-3.3,24.78-3.31,28.74,6.4.3.72,1.63,6.58,1.82,7.35,2.82,11.14-6.3,23.06-20.36,26.61S121.94,167.24,119.12,156.1Z" style="fill:#136300"/><path d="M117.38,149.2c-2.64-10.45,6.63-21.8,20.69-25.35s27.6,2,30.24,12.48-6.63,21.79-20.69,25.34S120,159.64,117.38,149.2Z" style="fill:#38ab00"/><path d="M119.06,148.77c-2.47-9.75,6.19-20.36,19.32-23.67s25.79,1.9,28.25,11.65-6.19,20.36-19.32,23.68S121.52,158.53,119.06,148.77Z" style="fill:#9ecc57"/><path d="M119.27,149.62c-2.46-9.76,6.19-20.36,19.33-23.68s25.78,1.9,28.24,11.66-6.18,20.35-19.32,23.67S121.74,159.37,119.27,149.62Z" style="fill:#b8e857"/><path d="M139.94,150.64a15.29,15.29,0,0,0,4.79-.42c6-1.52,10-6.22,8.88-10.5a5.5,5.5,0,0,0-.46-1.21c-3.3,1.21-8.18,3.1-9.08,4.32A42.72,42.72,0,0,0,139.94,150.64Zm11.54-14.19c-2.44-2-6.49-2.8-10.67-1.74a14.63,14.63,0,0,0-5.13,2.39c3.49,1.53,6,2.78,8.29,2C145.35,138.69,148.74,137.52,151.48,136.45Zm-13.79,13.81c1.22-1.4,2.66-5.12,3.27-7.24s-4.29-3.68-6.78-4.61c-1.92,2-2.85,4.46-2.26,6.79C132.55,147.7,134.77,149.49,137.69,150.26Z" style="fill:#ccff6e"/><path d="M60.4,144.08c-.56-.13-5.74-1.07-6.27-1.25-9-3.23-9.29-14-6.48-25.9,2.77-11.77,7.59-21.05,16.94-20.2.69.06,5.9,1.43,6.59,1.59,10,2.36,15.71,14.51,12.74,27.15S70.41,146.44,60.4,144.08Z" style="fill:#136300"/><path d="M54.19,142.62c-9.38-2.21-14.58-14.25-11.6-26.89S55.59,94.64,65,96.86s14.58,14.25,11.61,26.88S63.58,144.83,54.19,142.62Z" style="fill:#38ab00"/><path d="M54.55,141.11C45.78,139.05,40.93,127.8,43.71,116S55.85,96.3,64.62,98.36s13.62,13.31,10.84,25.12S63.32,143.18,54.55,141.11Z" style="fill:#9ecc57"/><path d="M55.31,141.29c-8.77-2.07-13.62-13.31-10.84-25.11s12.14-19.7,20.91-17.64S79,111.85,76.22,123.65,64.07,143.36,55.31,141.29Z" style="fill:#b8e857"/><path d="M64.65,125.29a13.37,13.37,0,0,0,1.63-4c1.27-5.38-.82-10.48-4.67-11.38a5,5,0,0,0-1.15-.13c-.4,3.12-.91,7.78-.32,9A37.88,37.88,0,0,0,64.65,125.29Zm-6.52-15c-2.61,1.1-4.9,4-5.78,7.75a13.06,13.06,0,0,0-.22,5.06c2.66-2.14,4.71-3.66,5-5.74C57.38,116.06,57.86,112.89,58.13,110.28Zm5.29,16.65c-.61-1.55-3-4.23-4.4-5.59s-4.7,1.89-6.46,3.49A6.51,6.51,0,0,0,57,129.42C59.26,130,61.6,128.93,63.42,126.93Z" style="fill:#ccff6e"/><path d="M135.94,54.52c-10.23,5.65-14.46,17.57-9.46,26.62S143.82,93,154.05,87.31s14.47-17.56,9.47-26.62S146.17,48.88,135.94,54.52Zm15.44,27.95c-7.21,4-15.91,2-19.44-4.34s-.54-14.79,6.67-18.77,15.92-2,19.44,4.35S158.59,78.49,151.38,82.47Z" style="fill:#beca7f"/><path d="M137.41,57.18c-10.23,5.65-14.47,17.57-9.47,26.62S145.29,95.62,155.52,90,170,72.4,165,63.35,147.64,51.53,137.41,57.18Zm15.44,27.95c-7.21,4-15.92,2-19.44-4.34S132.87,66,140.08,62s15.91-2,19.44,4.35S160.06,81.15,152.85,85.13Z" style="fill:#ebf1e1"/><path d="M75.43,169.23c8.86,7.62,21.51,7.44,28.26-.39s5-20.38-3.82-28-21.51-7.45-28.25.39S66.58,161.61,75.43,169.23ZM96.26,145c6.25,5.37,7.45,14.2,2.69,19.73S85.28,170.41,79,165s-7.45-14.21-2.69-19.74S90,139.65,96.26,145Z" style="fill:#beca7f"/><path d="M77.41,166.93c8.86,7.62,21.51,7.44,28.26-.4s5-20.37-3.82-28-21.5-7.45-28.25.39S68.56,159.3,77.41,166.93Zm20.83-24.2c6.25,5.37,7.45,14.2,2.7,19.73s-13.68,5.65-19.92.28S73.57,148.53,78.33,143,92,137.35,98.24,142.73Z" style="fill:#ebf1e1"/><path d="M156,79.91a15,15,0,1,1-15-15A15,15,0,0,1,156,79.91Z" style="fill:url(#radial-gradient-5)"/><path d="M146.81,78.58a3.65,3.65,0,1,1-3.64-3.65A3.64,3.64,0,0,1,146.81,78.58Z" style="fill:#290000"/><path d="M144.85,68a7.62,7.62,0,0,0-1.85-.22c-3.61,0-7,2.5-7.69,5.65a10.07,10.07,0,0,0,4,2.11h0a6.76,6.76,0,0,1,4.93-2.12A8.7,8.7,0,0,0,144.85,68Z" style="fill:#cbbccc"/><path d="M143.59,87.85c3.28.51,7.14-1.81,8-4.55a8.45,8.45,0,0,0-3.37-1.77,0,0,0,0,0,0,0A6.32,6.32,0,0,1,144,83.79,11.82,11.82,0,0,0,143.59,87.85Z" style="fill:#9b7691"/><path d="M81.53,83.17a15,15,0,1,1-15-15A15,15,0,0,1,81.53,83.17Z" style="fill:url(#radial-gradient-6)"/><path d="M72.34,81.84a3.65,3.65,0,1,1-3.65-3.65A3.64,3.64,0,0,1,72.34,81.84Z" style="fill:#290000"/><path d="M70.37,71.21A8,8,0,0,0,68.52,71c-3.61,0-7,2.51-7.68,5.66a10.05,10.05,0,0,0,4,2.1h0a6.76,6.76,0,0,1,4.92-2.12A8.69,8.69,0,0,0,70.37,71.21Z" style="fill:#cbbccc"/><path d="M69.12,91.12c3.28.5,7.14-1.82,8-4.56a8.38,8.38,0,0,0-3.36-1.77,0,0,0,0,1,0,0,6.4,6.4,0,0,1-4.26,2.28A11.78,11.78,0,0,0,69.12,91.12Z" style="fill:#9b7691"/><path d="M103.21,170.85a15,15,0,1,1-15-15A15,15,0,0,1,103.21,170.85Z" style="fill:url(#radial-gradient-7)"/><path d="M94,169.52a3.65,3.65,0,1,1-3.65-3.65A3.65,3.65,0,0,1,94,169.52Z" style="fill:#290000"/><path d="M92.05,158.89a7.62,7.62,0,0,0-1.85-.22c-3.61,0-7,2.5-7.69,5.65a10.07,10.07,0,0,0,4,2.11h0a6.77,6.77,0,0,1,4.93-2.13A8.67,8.67,0,0,0,92.05,158.89Z" style="fill:#cbbccc"/><path d="M90.79,178.79c3.28.51,7.15-1.81,8-4.56a8.61,8.61,0,0,0-3.37-1.77h0a6.36,6.36,0,0,1-4.25,2.27A11.82,11.82,0,0,0,90.79,178.79Z" style="fill:#9b7691"/><path d="M157.85,130.65a15,15,0,1,1-15-15A15,15,0,0,1,157.85,130.65Z" style="fill:url(#radial-gradient-8)"/><path d="M148.65,129.33a3.65,3.65,0,1,1-3.65-3.65A3.64,3.64,0,0,1,148.65,129.33Z" style="fill:#290000"/><path d="M146.69,118.7a7.64,7.64,0,0,0-1.86-.22c-3.6,0-7,2.5-7.68,5.65a10,10,0,0,0,4,2.11h0a6.74,6.74,0,0,1,4.93-2.13A8.74,8.74,0,0,0,146.69,118.7Z" style="fill:#cbbccc"/><path d="M145.43,138.6c3.28.51,7.14-1.81,8-4.56a8.61,8.61,0,0,0-3.37-1.77h0a6.35,6.35,0,0,1-4.25,2.27A11.55,11.55,0,0,0,145.43,138.6Z" style="fill:#9b7691"/><path d="M96.71,127a15,15,0,1,1-15-15A15,15,0,0,1,96.71,127Z" style="fill:url(#radial-gradient-9)"/><path d="M87.52,125.67A3.65,3.65,0,1,1,83.87,122,3.64,3.64,0,0,1,87.52,125.67Z" style="fill:#290000"/><path d="M85.56,115a7.64,7.64,0,0,0-1.86-.22c-3.61,0-7,2.5-7.68,5.65a10,10,0,0,0,4,2.11h0A6.74,6.74,0,0,1,85,120.46,8.81,8.81,0,0,0,85.56,115Z" style="fill:#cbbccc"/><path d="M84.3,134.94c3.28.51,7.14-1.81,8-4.56a8.61,8.61,0,0,0-3.37-1.77h0a6.35,6.35,0,0,1-4.25,2.27A11.55,11.55,0,0,0,84.3,134.94Z" style="fill:#9b7691"/><rect x="92.84" y="149.45" width="26.55" height="16.89" style="fill:#dad4a7"/><rect x="92.84" y="135.77" width="26.55" height="16.89" style="fill:#fff"/><rect x="33.7" y="100.91" width="26.68" height="16.98" transform="translate(-45.59 34.56) rotate(-27.8)" style="fill:#dad4a7"/><rect x="27.29" y="88.76" width="26.68" height="16.98" transform="translate(-40.66 30.17) rotate(-27.8)" style="fill:#fff"/><polygon points="154.07 88.55 141.73 92.94 148.13 109.55 163.94 117.99 167.72 101.14 154.07 88.55" style="fill:#ebf1cf"/><polygon points="181.2 103.11 163.93 117.81 157.88 98.14 175.58 85.03 181.2 103.11" style="fill:#d5d0a8"/><polygon points="175.62 85.04 158.35 99.75 141.73 92.94 159 78.24 175.62 85.04" style="fill:#fff"/><path d="M97,60.53c-9.19-7.22-21.82-6.47-28.21,1.67S64.64,82.78,73.83,90s21.82,6.47,28.2-1.67S106.15,67.74,97,60.53ZM77.24,85.64c-6.48-5.08-8.08-13.85-3.58-19.59s13.41-6.26,19.88-1.18,8.09,13.86,3.58,19.6S83.72,90.73,77.24,85.64Z" style="fill:#beca7f"/><path d="M95.08,62.92c-9.19-7.22-21.82-6.47-28.2,1.67S62.76,85.17,72,92.38s21.82,6.47,28.21-1.67S104.27,70.13,95.08,62.92ZM75.37,88C68.89,83,67.28,74.18,71.79,68.44s13.4-6.26,19.88-1.18,8.08,13.86,3.58,19.6S81.85,93.12,75.37,88Z" style="fill:#ebf1e1"/><path d="M126.79,97.88a27.52,27.52,0,1,1-1.62-55C125.61,57.91,126.3,81.42,126.79,97.88Z" style="fill:#f82100"/><path d="M126.67,96.55a26.24,26.24,0,0,1-1.54-52.46C125.56,58.44,126.21,80.85,126.67,96.55Z" style="fill:#fd6f47"/><path d="M126.11,91.15a20.91,20.91,0,1,1-1.22-41.81C125.22,60.77,125.74,78.64,126.11,91.15Z" style="fill:#eb2100"/><path d="M114.83,74a2.4,2.4,0,1,0,.88,4.72c1.37-.25,3.56-2.24,3.41-3.08C119,75.1,116.2,73.77,114.83,74Zm.5-9a2.41,2.41,0,1,0-.62,4.77c1.38.17,4.12-1.31,4.19-1.89C119,67,116.71,65.18,115.33,65Zm1.5-7.25a2.47,2.47,0,0,0,.45,3.45c1.08.88,4.18,1.06,4.55.6.54-.66-.44-3.46-1.52-4.33A2.47,2.47,0,0,0,116.83,57.76Zm1,24.67A2.41,2.41,0,1,0,121.11,86c1-.94,1.85-3.78,1.27-4.41C122,81.14,118.9,81.5,117.87,82.43Z" style="fill:#e86900"/><path d="M114.62,65.76a1.37,1.37,0,0,0-.91.18,1.15,1.15,0,0,0-.57.86,1.18,1.18,0,0,0,.26.89,1.35,1.35,0,0,0,.91.49,5.1,5.1,0,0,0,2.46-.85.78.78,0,0,0,.18-.11A5.16,5.16,0,0,0,114.62,65.76Zm-.13,9A1.55,1.55,0,0,0,114,75a1.22,1.22,0,0,0-.61,1.26,1.16,1.16,0,0,0,.52.76,1.35,1.35,0,0,0,1,.2,2.51,2.51,0,0,0,.77-.34h0a5.72,5.72,0,0,0,1.47-1.27A5.73,5.73,0,0,0,114.49,74.76Zm3-16.93a1,1,0,0,0-.29.25,1.28,1.28,0,0,0,.26,1.79,5.61,5.61,0,0,0,2.76.58A5.27,5.27,0,0,0,119,58,1.32,1.32,0,0,0,117.49,57.83Zm.62,25a1.39,1.39,0,0,0-.46.93,1.17,1.17,0,0,0,.29.88,1.27,1.27,0,0,0,1.59.17h0a1.63,1.63,0,0,0,.22-.17,5.16,5.16,0,0,0,1.07-2.54,6.23,6.23,0,0,0-2.56.63A1.74,1.74,0,0,0,118.11,82.88Z" style="fill:#ffb500"/><path d="M124.39,62.63a4,4,0,0,1-3.32,1.92c-1.69-.09-.48,1.44-.68,3.39a5.15,5.15,0,0,1-2.23,3.71c-.89.67,1.2,1,2,3.18s-1,4.32.13,4.42a4.94,4.94,0,0,1,4,2.61c.83,1.8,1.16-.16,1.11-2.11S125,65.47,125,64.17,125,61.83,124.39,62.63Z" style="fill:#ffab82"/><polygon points="90.68 87.85 78.13 84.08 73.46 101.26 81.21 117.42 94.22 106.08 90.68 87.85" style="fill:#ebf1cf"/><polygon points="103.92 115.64 81.3 117.27 88.07 97.84 110.1 97.75 103.92 115.64" style="fill:#d5d0a8"/><polygon points="110.13 97.78 87.5 99.41 78.13 84.08 100.76 82.46 110.13 97.78" style="fill:#fff"/></g></g></svg>