<svg xmlns="http://www.w3.org/2000/svg" xmlns:xlink="http://www.w3.org/1999/xlink" viewBox="0 0 187.84 187.85"><defs><linearGradient id="linear-gradient" x1="51.96" y1="51.96" x2="137.46" y2="137.46" gradientUnits="userSpaceOnUse"><stop offset="0" stop-color="#244d00"/><stop offset="0.25" stop-color="#285200"/><stop offset="0.56" stop-color="#336200"/><stop offset="0.9" stop-color="#447b01"/><stop offset="1" stop-color="#4b8401"/></linearGradient><radialGradient id="radial-gradient" cx="93.92" cy="93.92" r="90.83" gradientUnits="userSpaceOnUse"><stop offset="0" stop-color="#e87a14"/><stop offset="1" stop-color="#db540d"/></radialGradient><linearGradient id="linear-gradient-2" x1="20.74" y1="-40.04" x2="184.74" y2="257.96" gradientUnits="userSpaceOnUse"><stop offset="0" stop-color="#ef7012"/><stop offset="1" stop-color="#ffbd3b"/></linearGradient></defs><g id="Layer_2" data-name="Layer 2"><g id="Layer_1-2" data-name="Layer 1"><path d="M187.84,93.92A93.92,93.92,0,1,1,93.92,0,93.93,93.93,0,0,1,187.84,93.92Z" style="fill:#87cf05"/><path d="M182.64,93.92A88.72,88.72,0,1,1,93.92,5.21,88.72,88.72,0,0,1,182.64,93.92Z" style="fill:url(#linear-gradient)"/><path d="M175.29,93.92A81.37,81.37,0,1,1,93.92,12.55,81.37,81.37,0,0,1,175.29,93.92Z" style="fill:url(#radial-gradient)"/><path d="M128,161.66a118.27,118.27,0,0,1-26.94,10c-7.24,1.85,8.84,2.88,28.05-6.23,20.59-9.76,27.58-24.08,22.46-19.59A116.52,116.52,0,0,1,128,161.66Z" style="fill:#ffa323"/><path d="M95.28,21.46A73.93,73.93,0,0,0,30,130.16c2.7,1.56,6.85.87,12.38-1.39,3.12-2.62,1.14-3.89-2-6.83s-9.08-9.58-6-11.85S57,101.51,57,101.51c2.27-.75,5.55-4.29,7.32-.25s2.52,10.59,2.26,12.36.26,1.51,5.3-.76c.25-.11.46-.19.66-.26,3.53-2,7.25-4.11,11.16-6.27a220.39,220.39,0,0,1,20.15-9.71,13.09,13.09,0,0,1,6.26-6.5c6.67-3.56,9.38-4.13,10.59-1.42a3.59,3.59,0,0,1,.36,1.33c16.83-5.83,30.84-9.1,36.57-11,5.38-1.73,7.3-4.72,7.46-8A74,74,0,0,0,95.28,21.46ZM37.09,72.51c-2.1-1.94-.71-2.45,2.42-5.24,2.71-2.41,4.24-4.69.8-9.42-2.42-3.34,2-6.79,4.84-3.48,5.21,6.07,6.48,11,1,15.48C41.33,73.81,39.22,74.48,37.09,72.51ZM60.41,92.69c-.17,2.48-3.65,3-6.13,2.15s-5.47-3-10.93-6.29.5-5.8.5-5.8,13.24-4.13,15.73-4S60.57,90.21,60.41,92.69ZM66.09,73c-3.28-1.51-8.57-5.3-7.31-9.83S72.9,53.35,72.9,53.35c5.29-.25,12.1.76,13.36,5.3S85.25,67.72,83,72,69.37,74.53,66.09,73Zm23.62,29.11c-1,1.66-4.13,2.15-7.12,1.32s-4-2.81-6.29-5.79c0,0,8-8.28,12.26-5.14S90.71,100.47,89.71,102.13ZM93.93,44c-.4,4.56-6.42,4.36-6.34-.21.13-8.17,2.46-13.09,10.22-14.2s10.54-.55,11.09,2.77S107.49,35.26,102,36C97.53,36.51,94.48,37.62,93.93,44Zm15.78,31.8C101.64,72.26,97.36,68.48,98.87,65s8.82-8.83,8.82-8.83,1.52-4.78,6.56.51,5,13.11,5.55,16.64S117.78,79.32,109.71,75.79Zm42.1,2.66c-2.15,1-6.46.66-9.77-.66s-10.6-3.48-12.42-4.64,3.48-7.12,7.62-9.6c0,0,18.38,4.14,19.7,6S154,77.46,151.81,78.45Z" style="fill:url(#linear-gradient-2)"/><path d="M146.68,119.82c3.44,4.73,1.91,7-.8,9.42-1.18,1-2.12,1.78-2.71,2.38a.91.91,0,0,0-.14-.07c-1.59-.53-.88-1.76-.53-3.53a32.14,32.14,0,0,0-.53-12.68c-1.41-5.12-9.34-6.88-12.34-8.11,0,0-16.92,8.63-18.68,12.16s2.29,5.29,4.41,7,2.82,2.82.18,3.7.52,1.23,2.64,3.7-1.59,13,0,17.09,4.23,4.59,8.28,4.76,7-.53,8.11-3.17,3-6.52,3.52-8.46,0-3.52-1.06-6-1.05-4,1.24-3.88a7.94,7.94,0,0,0,4.19-1.27c0,.45.31.93,1,1.56,2.14,2,4.25,1.3,9.08-2.66,5.47-4.49,4.19-9.41-1-15.48C148.67,113,144.25,116.48,146.68,119.82ZM83.24,133.49c2.25,4.29,2.44,6,5.2,4.19s2.66-4.41-.44-10.94c-3.51-7.41-9.4-7.36-17.68-3.2-4.52,2.26-1.88,8.19,2.55,6.4C79.16,127.4,81.29,129.76,83.24,133.49Zm31.3-38.74c5.36-2.51,7.51-2.81,6.2-5.75-1.21-2.7-3.92-2.14-10.58,1.42-6.08,3.25-7.75,8.08-7.78,16,0,5,5.47,4.08,5.52-1.21C108,98.55,110.53,96.63,114.54,94.75Zm53.16,8.43c-.53-3.35-3.35-5.64-4.94-6.88,0,0-9.16,2.82-12.56,2.64s7.63,13.4,9.92,15.16,3.88.53,4.76-1.41S168.23,106.52,167.7,103.18ZM89.63,149.35s-7.58.88-12.69,1.05S75.88,156,79.41,161a19.4,19.4,0,0,0,10.75,7.75c2.82.71,4.93-3.88,5.81-7.58s1.94-10,.89-13S91.39,149.35,89.63,149.35ZM60.55,139.12s-12.33,9.17-10.75,12.17a12,12,0,0,0,10.05,6.34c4.93.17,8.81,0,9.69-2.82s1.94-9,1.59-11.46S64.25,138.6,60.55,139.12Z" style="fill:#ba4500"/><path d="M121.05,101.67c-4.36,7.12-16,18.67-8,21.33s32,7.33,30-4.67S128.38,89.67,121.05,101.67Z" style="fill:#ffb55e"/><path d="M75.83,49.35C63,44.17,59,48.45,58.41,58.06s.3,9.31,10.51,10.51S99,58.66,75.83,49.35Z" style="fill:#ffb55e"/><path d="M107.06,55.05c-8.09,5.89-13.21,11.72-.9,14.42s11.72.6,8.71-7.81S110.37,52.65,107.06,55.05Z" style="fill:#ffb55e"/><path d="M46.09,99.51c-13,6.71-17.42,12.61-5.41,19.22s18,3.6,21.93-6.31S64.71,89.9,46.09,99.51Z" style="fill:#ffb55e"/><path d="M84.54,143.66c-14.35,3-12.92,6-6.31,14.41s15.92,9.92,18.32-3.9S93.25,141.85,84.54,143.66Z" style="fill:#ffb55e"/><path d="M115.71,119.51c4.78-2.53,7.5-4.5,12.61-2.7s7.05,1.52,8.55-.58,2.36-1.62,4.16,1.39-1.11,6.63-5.32,6.93a75.88,75.88,0,0,1-14.68-.81C117.43,123.14,110.6,122.21,115.71,119.51Z" style="fill:#e38f26"/><path d="M95.83,149.64c0,3.26-.81,7.75-2.2,10.06s-4.28,4.74-7,2.89-7.75-7.74-4.86-7.05,5-.69,7.4-2.2S95.83,147.45,95.83,149.64Z" style="fill:#e38f26"/><path d="M62.76,106.29c-.73,3.74-.92,8-4.62,11.21S52.47,122,47,119.93s-11-4.16-5.67-5,6.71-1.62,11.91.11,4.74-.46,5.09-4.51S63.69,101.55,62.76,106.29Z" style="fill:#e38f26"/><path d="M110.86,58c-.88,3.14-3.13,4.86-.81,7.17s5.55,5.09,5.43,2.43S111.67,55.07,110.86,58Z" style="fill:#e38f26"/><path d="M83.46,57.85c-1.83,1.09-6.6.69-11.34.57S67.73,60,65.3,62.24s-4,3.81-.81,4.28,8.79,1,12.49-.35,6.71-3.12,7.63-5.55S85.19,56.8,83.46,57.85Z" style="fill:#e38f26"/><path d="M62.41,51.84c1.16,1.88,2.2,4.27,8,4.5s16.07.58,10.41-2.77-11-5.32-13.07-5.44S60.56,48.83,62.41,51.84Z" style="fill:#ffd594"/><path d="M109.7,56.34c-.33,2.34.23,5-2.31,6.13s-9,3.12-7.17.81S110.17,53.11,109.7,56.34Z" style="fill:#ffd594"/><path d="M58.6,97.39C55,97,54,97.16,51.09,98.89s-3.24,6.24,1.15,7.28,3.93,2.08,6.13-.46,3.93-4.39,3.12-6A3.63,3.63,0,0,0,58.6,97.39Z" style="fill:#ffd594"/><path d="M37.67,107.1a3.56,3.56,0,0,0-1,5.43c1.39,1.39,4.17-.57,8-.34s5.09-.93,1-3.36S40.91,105.48,37.67,107.1Z" style="fill:#ffd594"/><path d="M126.81,101.09c.29,2.88-.92,5.32-.81,8.2s-.57,4.28-4,5.56-10.87,5.77-9.71,3.12,5.31-8.56,6.82-11.1S126.35,96.34,126.81,101.09Z" style="fill:#ffd594"/><path d="M135.72,108.6c1.77,3,2.42,3.7.11,5.44s-4.62,2.31-4.51-.47S132.48,103.05,135.72,108.6Z" style="fill:#ffd594"/><path d="M76.06,149.88c2.46,2.15,5,5,7.17,2.77s10.52-9.36,6.7-8.55-8.44,2.19-10.75,2.65S74.21,148.26,76.06,149.88Z" style="fill:#ffd594"/><path d="M131.31,68.5c-1.25,1.39-3.25,3.25-1.86,3.87s9.59.46,13.61,1.39,10.48-1,13.77-3.71c.93-.78-3.87-4.49-8.66-6S133.94,65.56,131.31,68.5Z" style="fill:#9c4211"/><path d="M136.26,66.49c.61.77,5.87.62,13.61,2.17s9.43,2.63,5.41-2.63-11.75-15.47-13.46-15.16S136.26,66.49,136.26,66.49Z" style="fill:#b75a21"/><path d="M142.68,52.8c.67,7.39.64,10-.33,13.54s-5.16,2.58-10.64,5.17-2.9-1.3,1.29-8.71S142,45.7,142.68,52.8Z" style="fill:#de8a54"/><path d="M48.39,80.1S42.67,86.91,46.07,88a52.83,52.83,0,0,0,9.13,2.17c3.25.46,3.71,1.39,4.79-4.33s2-8.67-.31-9.29-4.33-2.62-6-2.62S48.39,80.1,48.39,80.1Z" style="fill:#b75a21"/><path d="M51.18,72.83c2.24.75,4.33.78,2.94,3.87s-4.49,7.58-5.42,9.75-1.08,1.85-4.17,1.39S39.27,86,41.74,83,49.32,72.21,51.18,72.83Z" style="fill:#de8a54"/><path d="M77,93.71s-1.85,2.48-3.09.93-1.86-3.71.46-6.18,4.64-6.35,6.81-6.35,3.57-.21,3,2.42-.94,5-.17,6.4,2.32,3.87.31,3.4A59.06,59.06,0,0,0,77,93.71Z" style="fill:#de8a54"/><path d="M84.28,98.66c2.4.69,2.94,1.55,4.33.31s3.1-1.85,1.24-6S84.44,81,83,82.42,82.12,98.05,84.28,98.66Z" style="fill:#b75a21"/><path d="M79.49,92.48c4,1.64,5.72,1.08,7.42,3.86s2.79,2.94-1.39,3.72-5.1,2.78-8.66-1.4-4-4.48-2.94-6S75.31,90.78,79.49,92.48Z" style="fill:#9c4211"/><path d="M47.31,139.19s-4.64.93-3.25,3.72,4.34,7.58,6.81,9.74,7,.93,9.59.62,4.95-1.24,5.88-2.17-4.8-11-4.8-11Z" style="fill:#9c4211"/><path d="M54.58,139c1.24-.47,10.83-9,12.22-8s3.1,7,3.87,9.75.77,3.71-1.55,7-2.63,4.8-4.17,2.63-4.18-5.88-5.26-6.65S54.58,139,54.58,139Z" style="fill:#b75a21"/><path d="M46.23,137.34c6.33-1,12.84-2.79,16.24-4.8S68.2,129,66,134.4s-1.55,10.52-7.58,10.67-11.76,1.55-13.77-1.24S40.35,138.26,46.23,137.34Z" style="fill:#de8a54"/><path d="M127.81,133.13c2.36,0,4.95-1.65,7.07.94s3.77,6.37,3.3,8.72-6.13,9.43-7.78,7.78-4.48-8.25-4.48-8.25Z" style="fill:#b75a21"/><path d="M117,135.48s-1.65,4.72-1.17,8,1.64,8,4,8,8.49-1,10.61-1,.71-2.59-.23-6.6S117,135.48,117,135.48Z" style="fill:#9c4211"/><path d="M125.68,131.24c-4.74-.41-13-2.59-12,1.18s1.18,7.54,1.89,10.14,4,.94,8.49,1.41,6.36,2.59,7.77-3.06S139.36,132.42,125.68,131.24Z" style="fill:#de8a54"/><path d="M156.82,98.73c3.1-.82,5.8-4.76,7.45-3.1s3.93,6.42,2.69,8.9-5.38,8.49-6,6.62Z" style="fill:#b75a21"/><path d="M159.51,99.77a52.09,52.09,0,0,1,1.24,7.86c.42,3.94,1.45,5.39-1.65,2.49s-12.63-10.56-8.9-11.18S159.51,99.77,159.51,99.77Z" style="fill:#9c4211"/><path d="M160.13,95.22c-3.65,1.44-14.07,3.1-9.52,4.76s8.69,5.17,10.35,2.9S167,92.53,160.13,95.22Z" style="fill:#de8a54"/><path d="M87.09,41.79c.13-8.17,2.46-13.09,10.23-14.2s10.53-.55,11.08,2.77S107,33.28,101.47,34c-4.44.55-7.49,1.66-8,8C93,46.56,87,46.37,87.09,41.79Z" style="fill:#ff4200"/><path d="M44.65,52.38c5.21,6.07,6.49,11,1,15.48-4.83,4-6.94,4.64-9.08,2.66s-.7-2.45,2.43-5.24c2.71-2.41,4.24-4.68.8-9.42C37.39,52.52,41.81,49.07,44.65,52.38Z" style="fill:#ff4200"/><path d="M151,114.05c5.21,6.07,6.49,11,1,15.48-4.83,4-6.94,4.63-9.08,2.66s-.7-2.45,2.43-5.24c2.71-2.41,4.24-4.69.8-9.42C143.73,114.19,148.14,110.74,151,114.05Z" style="fill:#e83300"/><path d="M69.79,121.24c8.28-4.15,14.17-4.2,17.68,3.21,3.1,6.53,3.26,9.09.44,10.94s-3,.1-5.2-4.19c-1.95-3.73-4.08-6.09-10.37-3.55C67.92,129.44,65.27,123.51,69.79,121.24Z" style="fill:#e83300"/><path d="M101.86,104.1c0-7.89,1.69-12.72,7.77-16,6.66-3.56,9.37-4.12,10.58-1.42,1.32,2.94-.84,3.24-6.19,5.75-4,1.88-6.6,3.8-6.65,10.43C107.32,108.18,101.84,109.12,101.86,104.1Z" style="fill:#ff4200"/><path d="M94.53,60.48c4.6.07,11.49-6.78,11.88-9.81.28-2.14-5.84.58-6.13-2a42.67,42.67,0,0,0-1.16-7.46c-.26-.83-.71-.91-1.31-.27a41.21,41.21,0,0,0-4,6.38c-1.3,2.26-5.71-2.9-6.43-.6-.91,2.89,2.73,12,7,13.73A.65.65,0,0,0,94.53,60.48ZM70.79,74.06c-1.79-1.23-2.14,5.47-4.58,4.55A42.14,42.14,0,0,0,59,76.25c-.86-.14-1.13.21-.84,1a42,42,0,0,0,3.85,6.5c1.42,2.18-5.17,3.77-3.45,5.46,2.16,2.12,11.9,3,15.4,0a.91.91,0,0,0,.13-.16C76.29,85,73.31,75.78,70.79,74.06ZM113.9,84.49a41,41,0,0,0-7.46-1.24c-2.58-.32.45-6.38-2-6.15-3,.28-9.95,7.17-9.92,11.78,0,0,0,.2,0,.2,1.72,4.27,10.72,7.94,13.65,7.13,2.09-.59-2.8-5.16-.53-6.44a42.25,42.25,0,0,0,6.42-4C114.81,85.24,114.72,84.79,113.9,84.49ZM150.47,81s-.14-.11-.14-.1c-3.59-1.47-11.1,1.79-12.33,4-.88,1.6,4.76,1.35,4.19,3.47a34.32,34.32,0,0,0-1.38,6.21c-.06.73.27.93.94.62a35.94,35.94,0,0,0,5.13-3.77c1.71-1.37,3.58,4,4.86,2.44C153.34,91.94,153.27,83.71,150.47,81ZM96.29,123.64a.64.64,0,0,0-.14.08c-3,2.53-3.48,10.7-2,12.82,1,1.51,3.37-3.62,5-2.15a36,36,0,0,0,4.9,4.07c.63.38,1,.18,1-.56a35.35,35.35,0,0,0-1-6.28c-.44-2.15,5.22-1.35,4.39-3.21C107.32,126.08,100,122.38,96.29,123.64Zm-44.37-.56a34.37,34.37,0,0,0,3-5.62c.25-.69,0-1-.74-.84a35.61,35.61,0,0,0-5.95,2.26c-2,.87-2.38-4.83-4-3.64C42.11,116.73,40,124.68,42,128c0,0,.11.14.11.13,3.08,2.38,11.18,1.23,13-.61C56.31,126.23,50.81,125,51.92,123.08Z" style="fill:#505e12"/><path d="M98.12,126.93c-.83,1.12-1.33,3.5-1.45,5.54a4.35,4.35,0,0,1,2.2-.63,3.83,3.83,0,0,1,2.61,1l.09.08,0-.12a3.68,3.68,0,0,1,2.22-4.3,12.73,12.73,0,0,0-5.32-1.61Zm4.23-73.55c-3.84-.25-4.45-2.92-4.55-3.77,0-.34-.07-.73-.12-1.14,0-.22,0-.46-.07-.7l-.34.61c-.21.37-.4.7-.56,1a4,4,0,0,1-3.54,2A5.9,5.9,0,0,1,91,51c.85,2.61,2.64,6.07,4.44,7.2C97.56,57.84,100.53,55.45,102.35,53.38Zm46.84,30.74a5.34,5.34,0,0,0-.62,0,13.47,13.47,0,0,0-5,1.29,3.73,3.73,0,0,1,1.89,4.42l0,.12.1-.08a3.84,3.84,0,0,1,2.41-.86,4.22,4.22,0,0,1,2.44.81C150.32,87.77,150,85.31,149.19,84.12Zm-82.11-1.9h0A4.16,4.16,0,0,1,65.61,82l-1.08-.41-.65-.26.39.6c.24.34.45.66.63,1,1.62,2.47.19,4.51-1.21,5.79a19.7,19.7,0,0,0,3.32.27,11,11,0,0,0,5.15-1c.66-2-.14-5.72-1.15-8.29A4.52,4.52,0,0,1,67.08,82.22Zm-17.25,40,.06-.1-.11.05a4,4,0,0,1-1.56.32h0a3.91,3.91,0,0,1-3.12-1.58c-.54,2-.84,4.43-.42,5.78a8.37,8.37,0,0,0,3.22.51,15.58,15.58,0,0,0,2.57-.22A3.73,3.73,0,0,1,49.83,122.23Zm56.68-35.47c-2.94-.36-3.58-2.77-3.65-4.66-2.08,1.79-4.6,4.81-4.93,6.92,1,1.67,4.36,3.59,7.12,4.5-.6-1.81-.84-4.25,1.67-5.66l1-.56.61-.33-.71-.08Z" style="fill:#697812"/></g></g></svg>