<svg xmlns="http://www.w3.org/2000/svg" xmlns:xlink="http://www.w3.org/1999/xlink" viewBox="0 0 216.56 216.56"><defs><linearGradient id="linear-gradient" x1="169.02" y1="169.02" x2="48.06" y2="48.06" gradientUnits="userSpaceOnUse"><stop offset="0" stop-color="#3a3a3a"/><stop offset="0.95" stop-color="#1b1b1b"/><stop offset="1" stop-color="#191919"/></linearGradient><radialGradient id="radial-gradient" cx="93.52" cy="96.64" r="34.47" gradientUnits="userSpaceOnUse"><stop offset="0" stop-color="#940f00"/><stop offset="0.28" stop-color="#9c1200"/><stop offset="0.72" stop-color="#b11900"/><stop offset="1" stop-color="#c21f00"/></radialGradient></defs><g id="Layer_2" data-name="Layer 2"><g id="Layer_1-2" data-name="Layer 1"><path d="M117.69,213.1c12.73-9.85,22.86-18.2,50.05-45.39,26-26,35.13-36.69,45.37-50A17,17,0,0,0,216,112a12.35,12.35,0,0,0,.55-3.48v0c0-.27,0-.54,0-.81s0-.53,0-.8a.31.31,0,0,1,0-.1,11.89,11.89,0,0,0-.41-2,16.77,16.77,0,0,0-3-5.89c-9.86-12.72-18.21-22.86-45.39-50-26-26-36.69-35.14-50-45.38A17,17,0,0,0,112,.54,11.84,11.84,0,0,0,108.69,0h-.81a11.85,11.85,0,0,0-3.29.53,17,17,0,0,0-5.72,2.9c-13.34,10.24-24,19.39-50,45.38C21.66,76,13.31,86.14,3.45,98.86a16.94,16.94,0,0,0-3,5.89,11,11,0,0,0-.4,2l0,.1c0,.27,0,.53,0,.8s0,.54,0,.81v0A12.35,12.35,0,0,0,.55,112a17,17,0,0,0,2.9,5.68c10.24,13.34,19.39,24,45.37,50C76,194.9,86.14,203.25,98.87,213.1a16.79,16.79,0,0,0,5.84,3,11.9,11.9,0,0,0,3.14.5h.86a11.9,11.9,0,0,0,3.14-.5A16.79,16.79,0,0,0,117.69,213.1Z" style="fill:#767675"/><path d="M117.43,210.19c12.37-9.58,22.23-17.7,48.66-44.13,25.26-25.26,34.15-35.67,44.11-48.64A16.53,16.53,0,0,0,213,111.9a11.75,11.75,0,0,0,.53-3.38v0c0-.26,0-.53,0-.79s0-.51-.06-.77a.38.38,0,0,0,0-.1,11.19,11.19,0,0,0-.39-2,16.25,16.25,0,0,0-2.88-5.72c-9.59-12.38-17.7-22.23-44.13-48.66C140.8,25.21,130.4,16.31,117.43,6.35a16.81,16.81,0,0,0-5.56-2.82,12,12,0,0,0-3.2-.52h-.78a12,12,0,0,0-3.2.52,16.81,16.81,0,0,0-5.56,2.82c-13,10-23.37,18.86-48.64,44.12C24.06,76.9,15.94,86.75,6.36,99.13a16.25,16.25,0,0,0-2.88,5.72,11.19,11.19,0,0,0-.39,2v.1c0,.26-.05.51-.06.77s0,.53,0,.79v0a11.75,11.75,0,0,0,.53,3.38,16.53,16.53,0,0,0,2.82,5.52c10,13,18.85,23.38,44.11,48.64,26.43,26.43,36.29,34.55,48.66,44.13a16.22,16.22,0,0,0,5.68,2.87,11.23,11.23,0,0,0,3,.48h.84a11.63,11.63,0,0,0,3-.48A16.22,16.22,0,0,0,117.43,210.19Z" style="fill:url(#linear-gradient)"/><path d="M113.78,169.58c7.45-5.77,13.37-10.65,29.27-26.55,15.2-15.19,20.55-21.45,26.54-29.25a10.14,10.14,0,0,0,1.69-3.32,7.07,7.07,0,0,0,.32-2v0c0-.15,0-.31,0-.47a3.44,3.44,0,0,0,0-.46.13.13,0,0,0,0-.06,6.88,6.88,0,0,0-.23-1.2,10.14,10.14,0,0,0-1.73-3.44C163.82,95.33,158.94,89.4,143,73.5,127.84,58.31,121.58,53,113.78,47a10,10,0,0,0-3.34-1.7,7.4,7.4,0,0,0-1.92-.31H108a7.4,7.4,0,0,0-1.92.31,10,10,0,0,0-3.34,1.7C95,53,88.72,58.31,73.52,73.5,57.62,89.4,52.74,95.33,47,102.77a10,10,0,0,0-1.74,3.44,6.88,6.88,0,0,0-.23,1.2v.06c0,.15,0,.31,0,.46s0,.32,0,.47v0a7.07,7.07,0,0,0,.32,2,10,10,0,0,0,1.7,3.32c6,7.8,11.33,14.06,26.53,29.25,15.9,15.9,21.82,20.78,29.27,26.55a9.8,9.8,0,0,0,3.41,1.72,6.73,6.73,0,0,0,1.84.29h.5a6.73,6.73,0,0,0,1.84-.29A9.8,9.8,0,0,0,113.78,169.58Z" style="fill:#1d1d18"/><path d="M173.17,114.82c-2.24,3.38-32.8,36.68-50,50.94-12.52,10.38-13.49,12.85-13.57,18.4-.24,15.35-2.54,29.28,2.74,26.35,5-2.76,35.72-30.44,52.48-47.21S206,119.18,209.24,114s-2.72-4.22-7-4C191,110.43,175.77,110.9,173.17,114.82Z" style="fill:#595959"/><path d="M101.43,43.08c-3.38,2.24-36.68,32.8-50.94,50-10.38,12.52-12.85,13.49-18.4,13.57-15.35.24-29.28,2.54-26.35-2.74C8.5,98.92,36.18,68.18,53,51.42S97.07,10.27,102.23,7s4.22,2.73,4,7C105.82,25.28,105.35,40.48,101.43,43.08Z" style="fill:#0c0c06"/><path d="M163.53,85.2s8.47,13.66,7.8,24.66c3,11.67-10,22-10,22s-2.34,11-7.67,16.67S128.33,163.86,122,163.2s-13.34,6.66-28.34,6-33.67-14-42-24S39,120.2,44,108.86A146.38,146.38,0,0,1,52.33,92.2l3-17.34S70.66,51.86,107,50.2,149.7,57.55,152,64,163.53,85.2,163.53,85.2Z" style="fill:#b1682e"/><path d="M98.44,145.09a67.24,67.24,0,0,1-9-.6,4,4,0,0,1,1-7.93c31.93,4.26,58.7-18.9,61.18-36.59,1.11-7.91-.2-13.9-3.59-16.45C146,81.93,143,81.81,140,83.18c-2.89,1.29-3.13,2.4-3.33,8.7a62.41,62.41,0,0,1-3.54,20.66c-7.73,21.62-24.13,23.66-40.68,22.65-13.39-.82-28.1-8-34.23-16.81-3.1-4.43-4-9.16-2.69-13.66C57.8,97,65.14,90.34,74.21,87.83c7.22-2,13.84-.87,18.16,3.08,1.1,1,2.21,2.12,3.28,3.19,3.75,3.74,7.64,7.63,11.24,7.38,2.54-.16,5.44-2.31,8.61-6.4,2.61-3.37,2.87-6.71.8-10.22-5-8.46-22.89-16-39.35-13.38C55.36,74.89,54.68,95.39,54.66,96.26a4,4,0,0,1-4.07,3.93,4,4,0,0,1-3.93-4c.13-9.7,6.37-29,29.05-32.56,18.48-2.93,40.23,5,47.47,17.21C127,87.17,126.47,94,121.82,100s-9.42,9.17-14.42,9.49c-7.21.46-12.63-4.94-17.41-9.71-1-1.05-2-2.05-3-3-2.21-2-6.17-2.5-10.62-1.27C71,97,64.91,101.12,63.16,107c-.63,2.14-.12,4.36,1.59,6.8,4.7,6.73,17.34,12.74,28.16,13.4,16.39,1,27-1.51,32.65-17.35a54.34,54.34,0,0,0,3.08-18.23c.21-6.33.4-12.31,8.05-15.74,5.8-2.6,11.71-2.15,16.22,1.24,3.41,2.56,8.8,9.07,6.71,24C157,120,131.85,145.09,98.44,145.09Z" style="fill:#d99852"/><path d="M99.46,168.47c-9.35,0-18-3.05-24.3-9-7.77-7.31-10.21-17.35-6.52-26.85,6.42-16.49,17.69-18.75,32-21.6,9.88-2,22.16-4.44,37.28-12.12,11.49-5.83,17.23-17,14.29-27.85-2.82-10.36-14-20.95-37-19.55-17.29,1-30.74,9.81-40,26.05a80.09,80.09,0,0,0-9,25,4,4,0,0,1-7.92-1.13,87,87,0,0,1,9.81-27.63c10.52-18.62,26.63-29.1,46.59-30.31C142.5,41.83,156.42,56.17,159.9,69c4,14.58-3.43,29.48-18.39,37.08-16.09,8.17-29,10.75-39.33,12.82C88,121.69,80.92,123.12,76.1,135.53c-2.47,6.34-.77,13.11,4.54,18.12,6.39,6,19.62,10.38,35.86,2.9a4,4,0,1,1,3.35,7.27A49,49,0,0,1,99.46,168.47Z" style="fill:#dfab69"/><path d="M99.31,165.77c-10.12,0-18.24-3.86-23.14-8.48-7.16-6.74-9.41-16-6-24.67,6-15.47,16.29-17.53,30.5-20.37,10-2,22.43-4.49,37.79-12.29,12.35-6.27,18.51-18.39,15.31-30.16-2.88-10.62-14.82-22.49-39-21C71.51,51.39,64,101.06,63.91,101.56a2,2,0,0,1-4-.56,84.68,84.68,0,0,1,9.57-26.92c10.16-18,25.71-28.13,45-29.3,26.59-1.62,39.84,11.91,43.12,24,3.71,13.65-3.27,27.62-17.36,34.78-15.85,8-28.58,10.59-38.81,12.64-13.93,2.79-22.34,4.47-27.56,17.9-2.77,7.13-.89,14.72,5,20.31,6.84,6.43,20.91,11.15,38.06,3.26a2,2,0,1,1,1.68,3.63A46.17,46.17,0,0,1,99.31,165.77Z" style="fill:#ffdeb3"/><path d="M99,161.33c-9.17,1.79-18.23.44-25.57-4.19-9-5.69-13.35-15.07-11.54-25.1,3.14-17.42,13.77-21.79,27.24-27.33,9.31-3.83,20.9-8.6,34.27-19,10.16-7.92,13.65-20,8.69-30.07-4.75-9.63-17.78-17.88-40-12.11C75.31,47.84,63.79,59,57.83,76.72a80.25,80.25,0,0,0-4,26.29,4,4,0,0,1-8,.41,86.86,86.86,0,0,1,4.34-29c6.75-20.28,20.56-33.66,39.92-38.67,26.93-7,43.34,4.44,49.2,16.33C146,65.63,141.57,81.68,128.34,92c-14.23,11.1-26.38,16.1-36.15,20.12-13.34,5.49-20,8.25-22.41,21.35-1.2,6.7,1.76,13,7.94,16.92,7.42,4.67,21.24,6.43,35.75-4a4,4,0,0,1,4.67,6.49A49,49,0,0,1,99,161.33Z" style="fill:#dfab69"/><path d="M98.36,158.7c-9.93,1.94-18.64-.3-24.34-3.89C65.7,149.56,61.73,141,63.38,131.75c2.94-16.34,12.63-20.32,26-25.84,9.43-3.87,21.16-8.7,34.74-19.29,10.93-8.53,14.64-21.6,9.25-32.54-4.86-9.87-18.85-19.23-42.32-13.16-41.91,10.84-39.79,61-39.76,61.54a2,2,0,0,1-4,.21,84.61,84.61,0,0,1,4.24-28.26C58.09,54.8,71.41,41.88,90.08,37.05c25.78-6.69,41.38,4.05,46.91,15.26,6.25,12.69,2.08,27.74-10.38,37.46-14,10.94-26,15.88-35.67,19.84C77.8,115,69.87,118.28,67.32,132.46c-1.36,7.53,2,14.62,8.83,19,7.95,5,22.67,7,38-4.08a2,2,0,1,1,2.34,3.24A46.06,46.06,0,0,1,98.36,158.7Z" style="fill:#ffdeb3"/><path d="M51.43,135.17c-5-7.88-7.1-16.79-5.48-25.32,2-10.49,9.13-17.95,19.12-19.94,17.36-3.47,25.32,4.82,35.41,15.32,7,7.26,15.67,16.3,30.27,24.91,11.09,6.55,23.62,5.36,31.16-2.94,7.23-8,10.12-23.1-3.4-41.68-10.18-14-24.81-20.64-43.47-19.69a80.45,80.45,0,0,0-25.93,5.9,4,4,0,0,1-3.31-7.28,86.69,86.69,0,0,1,28.57-6.6c21.35-1.15,38.85,6.79,50.61,23,16.36,22.51,11.77,42,2.85,51.77-10.16,11.18-26.7,13-41.14,4.45-15.55-9.17-24.66-18.64-32-26.25-10-10.41-15-15.63-28.09-13-6.67,1.33-11.47,6.4-12.82,13.58-1.64,8.62,1.79,22.12,16.84,31.79a4,4,0,0,1-4.33,6.73A49,49,0,0,1,51.43,135.17Z" style="fill:#dfab69"/><path d="M53.62,133.59c-5.44-8.52-6.54-17.45-5.29-24.07C50.16,99.86,56.72,93,65.88,91.17c16.28-3.25,23.53,4.3,33.58,14.75,7.06,7.35,15.85,16.49,30.69,25.25,11.93,7,25.46,5.7,33.66-3.33,7.4-8.14,11-24.58-3.26-44.2C135.09,48.62,89.17,69,88.71,69.21a2,2,0,0,1-1.66-3.64,84.62,84.62,0,0,1,27.84-6.42c20.65-1.11,37.55,6.54,48.89,22.14,15.67,21.54,11.4,40,3,49.24-9.51,10.47-25,12.11-38.65,4.08-15.31-9-24.31-18.4-31.54-25.92-9.85-10.24-15.79-16.42-29.92-13.6-7.5,1.5-12.89,7.17-14.4,15.17C50.51,119.5,54.1,133.9,70,144.11a2,2,0,1,1-2.16,3.36A46.21,46.21,0,0,1,53.62,133.59Z" style="fill:#ffdeb3"/><path d="M53.43,150.67c-5-7.88-7.1-16.79-5.48-25.32,2-10.49,9.13-17.95,19.12-19.94,17.36-3.47,25.32,4.82,35.41,15.32,7,7.26,15.67,16.3,30.27,24.91,11.09,6.55,23.62,5.36,31.16-2.94,7.23-7.95,10.12-23.1-3.4-41.68C150.33,87,135.7,80.38,117,81.33a80.45,80.45,0,0,0-25.93,5.9A4,4,0,0,1,87.8,80a86.69,86.69,0,0,1,28.57-6.6c21.35-1.15,38.85,6.79,50.61,23,16.36,22.51,11.77,42,2.85,51.77-10.16,11.18-26.7,13-41.14,4.45-15.55-9.17-24.66-18.64-32-26.25-10-10.41-15-15.63-28.09-13-6.67,1.33-11.47,6.4-12.82,13.58-1.64,8.62,1.79,22.12,16.84,31.79a4,4,0,0,1-4.33,6.73A49,49,0,0,1,53.43,150.67Z" style="fill:#dfab69"/><path d="M55.62,149.09c-5.44-8.52-6.54-17.45-5.29-24.07,1.83-9.66,8.39-16.52,17.55-18.35,16.28-3.25,23.53,4.3,33.58,14.75,7.06,7.35,15.85,16.49,30.69,25.25,11.93,7,25.46,5.7,33.66-3.33,7.4-8.14,11-24.58-3.26-44.2-25.46-35-71.38-14.64-71.84-14.43a2,2,0,0,1-1.66-3.64,84.62,84.62,0,0,1,27.84-6.42c20.65-1.11,37.55,6.54,48.89,22.14,15.67,21.54,11.4,40,3,49.24-9.51,10.47-25,12.11-38.65,4.08-15.31-9-24.31-18.4-31.54-25.92-9.85-10.24-15.79-16.42-29.92-13.6-7.5,1.5-12.89,7.17-14.4,15.17C52.51,135,56.1,149.4,72,159.61A2,2,0,1,1,69.82,163,46.21,46.21,0,0,1,55.62,149.09Z" style="fill:#ffdeb3"/><path d="M115.65,154.31a41.36,41.36,0,0,1-33.33-16.52c-11.16-14.57-14.37-37.59-7.8-56,5.32-14.88,16.17-24.95,30.56-28.33C122.82,49.3,139.93,53.15,152,64c10,9,15,21.64,13.44,33.83-1.42,11.15-9,18.62-20.19,20-11.86,1.44-24.19-4.42-27.51-13a4,4,0,1,1,7.47-2.87c2,5.14,11.07,8.94,19.08,8,4.38-.53,11.93-2.93,13.22-13.05,1.22-9.59-2.84-19.63-10.87-26.86-10.11-9.12-24.6-12.3-39.75-8.74C92,64.77,85.15,75.83,82.06,84.49c-5.71,16-3,35.9,6.61,48.44a33.68,33.68,0,0,0,30.53,13.21c10-.95,18.94-6,22.22-12.57a4,4,0,1,1,7.15,3.58C144,146.23,132.81,152.88,120,154.1,118.51,154.24,117.07,154.31,115.65,154.31Z" style="fill:#dfab69"/><path d="M115.41,151.56a39.4,39.4,0,0,1-31.75-15.73c-10.77-14.07-13.86-36.31-7.51-54.1,5.08-14.23,15.43-23.84,29.14-27.07,17.09-4,33.54-.33,45.14,10.12,9.49,8.55,14.27,20.54,12.8,32.08-1.32,10.34-8,17-18.45,18.25-11,1.33-22.39-4-25.4-11.78a2,2,0,0,1,3.73-1.44c2.31,6,12.22,10.32,21.19,9.25,5-.6,13.5-3.32,15-14.78,1.31-10.24-3-20.94-11.51-28.61C137.14,58.19,122,54.84,106.2,58.56c-12.34,2.9-21.67,11.61-26.28,24.51C74,99.66,76.84,120.35,86.83,133.4a35.65,35.65,0,0,0,32.31,14c10.67-1,20.24-6.51,23.82-13.66a2,2,0,1,1,3.57,1.79c-4.23,8.47-14.83,14.69-27,15.85A40.67,40.67,0,0,1,115.41,151.56Z" style="fill:#ffd7a8"/><path d="M159.4,145.56a41.34,41.34,0,0,1-31.3,20.11c-18.23,2.09-39.63-7-52-22.07-10-12.21-13.1-26.69-8.61-40.78C73,85.46,85.08,72.76,100.63,68c12.84-3.95,26.27-1.76,35.93,5.84,8.84,7,11.37,17.26,6.76,27.59-4.85,10.9-16.22,18.48-25.32,16.89a4,4,0,0,1,1.37-7.88c5.43.95,13.37-4.9,16.65-12.27,1.8-4,3.61-11.74-4.4-18-7.6-6-18.31-7.65-28.64-4.48-13,4-23.18,14.79-27.91,29.62-4.66,14.63,1.33,26.16,7.17,33.26,10.78,13.11,29.26,21,45,19.21a33.67,33.67,0,0,0,27-19.41c4.32-9.07,4.58-19.32.63-25.51a4,4,0,0,1,6.75-4.3c5.45,8.55,5.39,21.61-.15,33.25Q160.5,143.73,159.4,145.56Z" style="fill:#dfab69"/><path d="M156.91,144.35a39.38,39.38,0,0,1-29.81,19.16c-17.6,2-38.27-6.76-50.27-21.35-9.59-11.67-12.52-25.49-8.25-38.9,5.34-16.73,17-28.95,31.87-33.53,12.21-3.75,25-1.7,34.11,5.5,8.19,6.44,10.43,15.63,6.17,25.2-4.51,10.11-14.9,17.18-23.16,15.74a2,2,0,0,1,.69-3.94c6.34,1.1,15.13-5.18,18.81-13.43,2-4.56,4.1-13.28-5-20.43-8.11-6.38-19.5-8.18-30.46-4.82C88,77.74,77.32,89,72.39,104.47c-3.84,12.08-1.17,24.56,7.53,35.15,11.19,13.6,30.4,21.79,46.73,19.92A35.64,35.64,0,0,0,155.25,139c4.6-9.67,4.81-20.7.51-27.45a2,2,0,0,1,3.37-2.15c5.09,8,5,20.28-.27,31.32Q158,142.61,156.91,144.35Z" style="fill:#ffd7a8"/><path d="M71.81,172.8a41.38,41.38,0,0,1-9.87-35.86c3.44-18,18.49-35.76,36.58-43.11,14.65-5.94,29.38-4.54,41.49,3.94,14.92,10.45,23.44,25.78,23.37,42.06-.07,13.42-6.15,25.59-16.29,32.55-9.27,6.37-19.87,5.71-28.35-1.77-9-7.89-12.81-21-8.58-29.2a4,4,0,1,1,7.11,3.66c-2.51,4.89.7,14.21,6.76,19.54,3.31,2.92,10.12,6.95,18.53,1.18,8-5.48,12.76-15.2,12.82-26,.06-13.62-7.22-26.54-20-35.47-12.57-8.81-25.37-6.53-33.89-3.07-15.72,6.38-28.77,21.67-31.73,37.18A33.71,33.71,0,0,0,80.27,170c7.38,6.83,17.09,10.13,24.17,8.21a4,4,0,1,1,2.1,7.72c-9.79,2.66-22.24-1.29-31.7-10.06Q73.23,174.4,71.81,172.8Z" style="fill:#dfab69"/><path d="M73.71,170.79a39.39,39.39,0,0,1-9.41-34.17c3.32-17.4,17.86-34.51,35.37-41.62,14-5.68,28.05-4.36,39.59,3.72,14.38,10.08,22.58,24.8,22.51,40.41-.06,12.77-5.83,24.33-15.42,30.92-8.59,5.9-18,5.3-25.89-1.62-8.31-7.32-12-19.34-8.13-26.79a2,2,0,1,1,3.56,1.82c-3,5.73.43,16,7.21,22,3.75,3.31,11.46,7.87,21,1.33,8.51-5.84,13.62-16.18,13.68-27.64.06-14.27-7.52-27.81-20.81-37.11-10.38-7.28-23.09-8.45-35.79-3.29-16.31,6.62-29.86,22.52-32.94,38.66a35.6,35.6,0,0,0,11.08,33.42c7.86,7.28,18.33,10.77,26.05,8.67a2,2,0,0,1,1,3.86c-9.15,2.48-20.85-1.28-29.82-9.59Q75.06,172.31,73.71,170.79Z" style="fill:#ffd7a8"/><path d="M130.43,153.48a41.37,41.37,0,0,1-31.29,20.11c-18.24,2.09-39.64-7-52-22.08-10-12.21-13.1-26.69-8.61-40.77C44,93.38,56.12,80.68,71.67,75.9,84.51,72,97.94,74.14,107.6,81.74c8.84,7,11.37,17.27,6.76,27.59-4.86,10.91-16.22,18.48-25.32,16.9a4,4,0,0,1,1.37-7.88c5.43.94,13.37-4.91,16.65-12.28,1.79-4,3.61-11.73-4.41-18-7.59-6-18.3-7.65-28.63-4.48-13,4-23.19,14.79-27.91,29.62-4.66,14.62,1.32,26.16,7.17,33.26,10.77,13.11,29.26,21,45,19.21a33.69,33.69,0,0,0,27-19.41c4.32-9.07,4.58-19.33.63-25.51a4,4,0,1,1,6.75-4.3c5.45,8.55,5.39,21.61-.16,33.25A40.72,40.72,0,0,1,130.43,153.48Z" style="fill:#dfab69"/><path d="M128,152.27a39.38,39.38,0,0,1-29.81,19.16c-17.6,2-38.27-6.77-50.27-21.36-9.59-11.66-12.52-25.48-8.25-38.89,5.33-16.74,17-29,31.87-33.54,12.21-3.75,25-1.69,34.1,5.5,8.19,6.45,10.44,15.63,6.17,25.21-4.5,10.11-14.89,17.17-23.15,15.74a2,2,0,1,1,.69-3.94c6.34,1.1,15.13-5.18,18.81-13.43,2-4.56,4.09-13.29-5-20.43C95,79.91,83.62,78.1,72.66,81.47,59,85.66,48.35,96.93,43.43,112.39,39.58,124.47,42.26,137,51,147.53c11.18,13.6,30.4,21.8,46.73,19.93a35.61,35.61,0,0,0,28.59-20.54c4.61-9.67,4.82-20.7.52-27.45a2,2,0,0,1,3.37-2.15c5.09,8,5,20.28-.27,31.32Q129,150.51,128,152.27Z" style="fill:#ffd7a8"/><path d="M193,124.17a41.37,41.37,0,0,1-25.21,27.35c-17.13,6.61-40.12,3.22-55.93-8.26C99,134,92.42,120.74,93.22,106c1-18.19,9.48-33.53,23.33-42.07,11.43-7,25-8.32,36.25-3.4,10.3,4.5,15.34,13.85,13.49,25-2,11.78-11,22-20.25,22.73a4,4,0,0,1-.66-8c5.49-.46,11.7-8.12,13-16.07.72-4.36.54-12.27-8.81-16.36C140.73,64,130,65,120.75,70.71c-11.58,7.15-18.71,20.16-19.55,35.7-.82,15.32,7.88,25,15.32,30.38,13.73,10,33.61,13,48.34,7.26a33.66,33.66,0,0,0,21.26-25.59c1.9-9.87-.44-19.85-5.82-24.85a4,4,0,0,1,5.45-5.86c7.43,6.91,10.66,19.56,8.23,32.22C193.7,121.4,193.36,122.81,193,124.17Z" style="fill:#dfab69"/><path d="M190.26,123.63a39.41,39.41,0,0,1-24,26.05c-16.52,6.38-38.74,3.09-54-8-12.23-8.87-18.54-21.5-17.79-35.56,1-17.53,9.11-32.28,22.39-40.48,10.88-6.7,23.73-7.92,34.4-3.27,9.54,4.18,14,12.5,12.32,22.84-1.82,10.92-10.09,20.38-18.44,21.06a2,2,0,1,1-.33-4c6.41-.53,13.34-8.82,14.82-17.74.82-4.93.61-13.88-10-18.51-9.46-4.13-20.93-3-30.69,3-12.15,7.49-19.63,21.08-20.49,37.29-.69,12.66,5,24.06,16.13,32.11,14.26,10.34,34.91,13.43,50.24,7.51a35.64,35.64,0,0,0,22.51-27.08c2-10.52-.56-21.25-6.42-26.69a2,2,0,1,1,2.72-2.93c6.94,6.44,9.93,18.37,7.62,30.37C191,121,190.64,122.32,190.26,123.63Z" style="fill:#ffd7a8"/><path d="M89.26,67.92c-5.83-1-8.85-1.58-13.28,2.53S62.39,75.82,60.49,81.83s4.11,7.9,4.74,10.75-8.85,9.17-6,14.22,7.9,2.22,7.58,10.44,2.53,12,7.27,12,7-.63,13.28.95,9.54.38,9.36-3.92,5.81-4.94,9.29-3.35,7.91,1.26,10.43-2.53,3.8-6.33,7.59-8.22,10.12-7.59,4.74-9.8-5.05-6.32-1.89-8.54,4.11-2.84.94-7.27-10.74-5.69-9.8-10.11-7-4.43-6.32-8.54-6-5.06-10.75-2.84S93.05,68.55,89.26,67.92Z" style="fill:url(#radial-gradient)"/><path d="M67.4,85.18c2.91,1.16,5.09,2.76,3.49,4.8s-1.16,4.65,1.75,4.36S78.31,90.7,76.13,89,71.77,86.2,74.39,84s.72-6.83,4.94-7.12,5.09-3.78,7.56-4.07,2.33-2.19-.43-2.33-4.51-.87-6.4.73c-2.21,1.86-2.91,3.78-6,4.5S68.57,77,66.68,79.36,64.49,84,67.4,85.18Zm-.29,14c-1.84,1.52-5.25,1.42-5.46,4.12s3.86,3.73,5.61,3,2.62-4.07,3-6.1S69.59,97.1,67.11,99.14Zm12.37-1.89c-2.39.75-5.68,2.32-4.51,5.09s3.92,4.36,5.81-.58S82.24,96.38,79.48,97.25Zm-5.82,18.61c1.45-3.49,2.9-5.67.87-7.56s-5.53.29-4.22,3.49c.54,1.33,1.46,4.07,0,6.69a4.77,4.77,0,0,0,1.75,6.69c2.33,1.45,5.82.29,4.07-2.91S72.2,119.35,73.66,115.86ZM86.6,85.32c-.58,2.33,1.17,5.53,3.64,2.91s3.49-5.38,6.1-7.42,1.17-6.54,4.66-8,5.09,1.89,6.83-3.35c.51-1.52-2.18-3.63-4.65-1.74s-5.38,3.92-7.56,3.92S93,73.83,94,75.87s-1.46,6.69-3.35,6.4S87.18,83,86.6,85.32Zm4.22,18.33c.29-5.38-2.62-4.66-.73-8s.44-4.22-1.16-2.62-1.89,2-1.46,4.07a6.24,6.24,0,0,1-.58,5.09c-1.2,2.24-1.74,5.38,1.31,8.58s2,5.82,3.35,8,4.07,3.78,5.23,2.18.29-2.76-2.18-6.25S90.53,109,90.82,103.65Zm-8.29,9.45c-2.33,0-.87,3.64-1.46,5.82-.52,2-2,4.21,1.17,5.67s3.2-2,1.89-4.36S84.86,113.1,82.53,113.1Zm23.56-24.72c.58,3.2,3,1.89,3.78-.58s2-1.75,4.51-4.22.47-2,.87-5c.44-3.2-.44-4.51-2.18-3.34s-3.35,3.2-3.35,7.12S105.51,85.18,106.09,88.38Zm-6.4,2.91c-2.52,1.59-1.6,3.92.29,5.81s2.33,1.17,3-2.47S102.45,89.54,99.69,91.29Zm10.18,11.48c-.71,2.83-3.93,1.31-5.53,4.66s-1.31,7.71,1,9.89,3.78,0,4.22-5.09.73-5.67,3.2-7.13,3.78-1.31,3.34-4.22S111.18,97.54,109.87,102.77Zm14.28-16.15c-4-4-7.45,4.67-7.74,7.72s2.19-.87,6-2.76S125.4,87.83,124.15,86.62ZM123.68,106c-2.35,1-4.07,1.17-4.07,3.78s2.77,1.17,4.37-.58S128.05,104.23,123.68,106Z" style="fill:#e84000"/><path d="M120.2,86.59c4.18.07,10.43-6.16,10.78-8.9.26-2-5.3.52-5.56-1.83a38.55,38.55,0,0,0-1.06-6.78c-.23-.75-.64-.82-1.19-.24a38.64,38.64,0,0,0-3.67,5.79c-1.17,2.05-5.17-2.63-5.83-.54-.83,2.62,2.48,10.86,6.35,12.46A.48.48,0,0,0,120.2,86.59ZM98.65,98.92c-1.63-1.11-2,5-4.16,4.13A36.9,36.9,0,0,0,88,100.91c-.77-.13-1,.19-.76.94a37.78,37.78,0,0,0,3.5,5.9c1.29,2-4.7,3.42-3.13,5,2,1.93,10.8,2.72,14,0,0,0,.13-.13.12-.14C103.64,108.87,100.93,100.48,98.65,98.92Zm39.13,9.46a38.54,38.54,0,0,0-6.77-1.12c-2.34-.29.41-5.8-1.77-5.59-2.74.27-9,6.52-9,10.7a.53.53,0,0,0,0,.18c1.56,3.88,9.73,7.22,12.4,6.47,1.89-.52-2.55-4.68-.49-5.83a38.28,38.28,0,0,0,5.83-3.62C138.61,109.06,138.52,108.66,137.78,108.38ZM171,105.24a.51.51,0,0,0-.13-.09c-3.26-1.34-10.08,1.62-11.2,3.67-.8,1.45,4.32,1.22,3.81,3.14a32,32,0,0,0-1.26,5.64c0,.66.25.84.85.56a32.67,32.67,0,0,0,4.67-3.42c1.55-1.24,3.25,3.66,4.4,2.22C173.59,115.16,173.52,107.68,171,105.24ZM121.8,143.93s-.14.07-.13.08c-2.68,2.29-3.16,9.71-1.85,11.63.93,1.38,3.06-3.28,4.53-1.95a32,32,0,0,0,4.45,3.69c.56.35.86.17.88-.5a31.24,31.24,0,0,0-.91-5.71c-.4-1.95,4.74-1.22,4-2.91C131.81,146.14,125.14,142.79,121.8,143.93Zm-40.29-.5a31.32,31.32,0,0,0,2.71-5.11c.22-.62,0-.88-.67-.76a32.43,32.43,0,0,0-5.41,2.05c-1.82.79-2.16-4.39-3.66-3.31-1.88,1.36-3.8,8.58-2,11.61,0,0,.1.12.1.12,2.79,2.15,10.15,1.11,11.77-.56C85.5,146.28,80.5,145.14,81.51,143.43Z" style="fill:#70730f"/><path d="M123.46,146.92a10.92,10.92,0,0,0-1.32,5,4,4,0,0,1,2-.57,3.5,3.5,0,0,1,2.36.93l.09.08,0-.11a3.35,3.35,0,0,1,2-3.91,11.61,11.61,0,0,0-4.84-1.46Zm3.83-66.78c-3.48-.23-4-2.65-4.12-3.42,0-.31-.07-.66-.11-1q0-.3-.06-.63l-.32.56q-.27.49-.51.9A3.62,3.62,0,0,1,119,78.37a5.37,5.37,0,0,1-2-.42c.77,2.36,2.39,5.51,4,6.53C122.94,84.19,125.64,82,127.29,80.14Zm42.53,27.91c-.15,0-.33,0-.56,0a12.18,12.18,0,0,0-4.58,1.18,3.38,3.38,0,0,1,1.71,4l0,.11a.27.27,0,0,1,.08-.07,3.45,3.45,0,0,1,2.19-.79,3.76,3.76,0,0,1,2.21.74A11.08,11.08,0,0,0,169.82,108.05Zm-74.54-1.72h0a3.68,3.68,0,0,1-1.33-.25l-1-.37-.59-.23.36.53.57.87c1.47,2.24.17,4.09-1.1,5.25a17.22,17.22,0,0,0,3,.26,10,10,0,0,0,4.68-.89c.6-1.8-.13-5.2-1-7.52A4.13,4.13,0,0,1,95.28,106.33ZM79.61,142.65l.06-.09-.1,0a3.54,3.54,0,0,1-1.41.3h0a3.55,3.55,0,0,1-2.84-1.44,11.23,11.23,0,0,0-.38,5.25,7.67,7.67,0,0,0,2.92.46,14,14,0,0,0,2.34-.2A3.38,3.38,0,0,1,79.61,142.65Zm51.46-32.2c-2.66-.33-3.24-2.52-3.31-4.24-1.89,1.63-4.17,4.37-4.47,6.29.95,1.51,3.95,3.26,6.46,4.08-.55-1.64-.76-3.85,1.52-5.13.27-.16.58-.33.92-.51l.55-.31-.64-.07Z" style="fill:#a3ad12"/></g></g></svg>