<svg xmlns="http://www.w3.org/2000/svg" xmlns:xlink="http://www.w3.org/1999/xlink" viewBox="0 0 174.29 197.24"><defs><radialGradient id="radial-gradient" cx="86.65" cy="124.75" r="71.45" gradientUnits="userSpaceOnUse"><stop offset="0" stop-color="#a15a24"/><stop offset="0.4" stop-color="#9a5223"/><stop offset="1" stop-color="#893e21"/></radialGradient><linearGradient id="linear-gradient" x1="104.69" y1="152.12" x2="67.33" y2="69.56" gradientUnits="userSpaceOnUse"><stop offset="0" stop-color="#893f21"/><stop offset="0.59" stop-color="#b3683b"/><stop offset="1" stop-color="#d3884f"/></linearGradient><linearGradient id="linear-gradient-2" x1="432.24" y1="5191.3" x2="432.24" y2="5208.63" gradientTransform="translate(3439.86 -3870.82) rotate(45) scale(1.04 1)" gradientUnits="userSpaceOnUse"><stop offset="0" stop-color="#0f0d03"/><stop offset="0.14" stop-color="#171004"/><stop offset="0.35" stop-color="#2c1a09"/><stop offset="0.61" stop-color="#4e2a0f"/><stop offset="0.9" stop-color="#7d4018"/><stop offset="1" stop-color="#90481c"/></linearGradient><linearGradient id="linear-gradient-3" x1="627.3" y1="5141.46" x2="627.3" y2="5158.79" gradientTransform="translate(3270.88 -4039.81) rotate(45) scale(1.12 1)" xlink:href="#linear-gradient-2"/><linearGradient id="linear-gradient-4" x1="332.79" y1="5166.38" x2="332.79" y2="5183.71" gradientTransform="translate(3524.22 -3786.47) rotate(45)" xlink:href="#linear-gradient-2"/><linearGradient id="linear-gradient-5" x1="1027.7" y1="5216.22" x2="1027.7" y2="5233.55" gradientTransform="translate(2773.69 -4536.99) rotate(45) scale(1.34 1)" xlink:href="#linear-gradient-2"/><radialGradient id="radial-gradient-2" cx="52.93" cy="165.03" r="4.65" gradientUnits="userSpaceOnUse"><stop offset="0" stop-color="#e83000"/><stop offset="0.21" stop-color="#e32d00"/><stop offset="0.46" stop-color="#d42400"/><stop offset="0.73" stop-color="#bc1400"/><stop offset="1" stop-color="#9c0000"/></radialGradient><radialGradient id="radial-gradient-3" cx="64.35" cy="134.97" r="4.65" xlink:href="#radial-gradient-2"/><radialGradient id="radial-gradient-4" cx="64.2" cy="95.41" r="4.65" xlink:href="#radial-gradient-2"/><radialGradient id="radial-gradient-5" cx="74.57" cy="109.72" r="4.65" xlink:href="#radial-gradient-2"/><radialGradient id="radial-gradient-6" cx="116.58" cy="75.72" r="4.65" xlink:href="#radial-gradient-2"/><radialGradient id="radial-gradient-7" cx="96.23" cy="92.52" r="4.65" xlink:href="#radial-gradient-2"/><radialGradient id="radial-gradient-8" cx="117.24" cy="146.34" r="4.65" xlink:href="#radial-gradient-2"/><radialGradient id="radial-gradient-9" cx="85.68" cy="153.24" r="4.65" xlink:href="#radial-gradient-2"/><radialGradient id="radial-gradient-10" cx="41.11" cy="141.79" r="4.65" xlink:href="#radial-gradient-2"/><radialGradient id="radial-gradient-11" cx="85.06" cy="26.5" r="29.17" gradientUnits="userSpaceOnUse"><stop offset="0" stop-color="#ff2e00"/><stop offset="0.21" stop-color="#fa2c00"/><stop offset="0.46" stop-color="#eb2500"/><stop offset="0.74" stop-color="#d31a00"/><stop offset="1" stop-color="#b50d00"/></radialGradient><radialGradient id="radial-gradient-12" cx="88.62" cy="25.55" r="11.76" gradientUnits="userSpaceOnUse"><stop offset="0" stop-color="#2e4700"/><stop offset="0.22" stop-color="#415d00"/><stop offset="0.74" stop-color="#6a8c00"/><stop offset="1" stop-color="#7a9e00"/></radialGradient><radialGradient id="radial-gradient-13" cx="32.05" cy="37.83" r="25.38" xlink:href="#radial-gradient-11"/><radialGradient id="radial-gradient-14" cx="35.15" cy="37.01" r="10.23" xlink:href="#radial-gradient-12"/></defs><g id="Layer_2" data-name="Layer 2"><g id="Layer_1-2" data-name="Layer 1"><path d="M160.12,60.68c-9.8-8.23-20.52-12.23-32.79-12.23-9.5,0-19.21,2.35-28.29,4.9-10.63,3-20.6,3.66-30.23,4.31C52,58.79,36.2,59.87,20.81,73.11,7.72,84.37.34,100.93,0,119.75c-.37,21.64,8.89,43.85,24.19,58,13.64,12.6,32.26,19.53,52.42,19.53a97,97,0,0,0,60.44-21.73c23.14-19,37.05-47.34,37.23-75.91C174.39,82.52,169.23,68.33,160.12,60.68Z" style="fill:#963d26"/><path d="M158.48,62.62c21.62,18.17,18.73,76.7-23,110.92-31.67,26-80,29.53-109.53,2.3C-1.54,150.5-7.43,100.77,22.47,75,45.81,55,70.17,64.09,99.72,55.8,120.51,50,139.5,46.68,158.48,62.62Z" style="fill:#542717"/><path d="M152.41,69.81C171.8,86,168.18,138.92,129.58,170.23c-29.27,23.75-73.37,27.44-99.79,3.12C5.2,150.71.67,105.83,28.33,82.31,49.92,63.94,72,72,99,64.2,118,58.74,135.39,55.59,152.41,69.81Z" style="fill:url(#radial-gradient)"/><path d="M38.41,136.69l4.42,1.08a2.22,2.22,0,0,0,.51.06,2.18,2.18,0,0,0,1.93-1.18L47.66,132a2.19,2.19,0,0,0,.06-1.87,2.22,2.22,0,0,0-1.42-1.22l-4.36-1.2a2.17,2.17,0,0,0-2.51,1.1L37,133.59a2.16,2.16,0,0,0,1.42,3.1ZM49,126.89a2.18,2.18,0,0,0,1.94-1.18l1.42-2.77a2.17,2.17,0,0,0-1.44-3.11l-4.45-1A2.17,2.17,0,0,0,44,119.91l-1.34,2.62a2.2,2.2,0,0,0-.05,1.86A2.15,2.15,0,0,0,44,125.61l4.37,1.2A1.87,1.87,0,0,0,49,126.89ZM37.76,123.8a2.18,2.18,0,0,0,1.94-1.18c1.48-2.89,3-5.8,4.44-8.68a2.18,2.18,0,0,0-1.52-3.13l-6.08-1.15a2.16,2.16,0,0,0-2.38,1.23q-1.89,4.15-3.81,8.33a2.18,2.18,0,0,0,1.4,3l5.44,1.5A2.24,2.24,0,0,0,37.76,123.8ZM33.85,87.62,32.19,91.3a2.16,2.16,0,0,0,0,1.86,2.13,2.13,0,0,0,1.46,1.15l2.94.67a2,2,0,0,0,.48,0,2.17,2.17,0,0,0,2-1.27L40.78,90a2.13,2.13,0,0,0-.05-1.89A2.17,2.17,0,0,0,39.21,87l-3-.58A2.16,2.16,0,0,0,33.85,87.62Zm-5.16,17.92,3,.56a2.69,2.69,0,0,0,.4,0,2.17,2.17,0,0,0,2-1.27l2.1-4.64a2.13,2.13,0,0,0,0-1.86,2.17,2.17,0,0,0-1.46-1.15l-2.92-.67a2.18,2.18,0,0,0-2.47,1.22l-2.15,4.74a2.15,2.15,0,0,0,.05,1.9A2.19,2.19,0,0,0,28.69,105.54Zm33.55,27.8-9.09-2.51a2.18,2.18,0,0,0-2.51,1.1l-.79,1.54a2.11,2.11,0,0,0-.05,1.88,2.16,2.16,0,0,0,1.43,1.22L60.48,139A2,2,0,0,0,61,139a2.18,2.18,0,0,0,2-1.29l.63-1.43a2.16,2.16,0,0,0,0-1.81A2.19,2.19,0,0,0,62.24,133.34Zm4.27-3.44L68,126.5a2.18,2.18,0,0,0-1.49-3l-8.67-2a2.16,2.16,0,0,0-2.43,1.12l-1.56,3a2.2,2.2,0,0,0-.05,1.86,2.15,2.15,0,0,0,1.41,1.22L64,131.11a2.32,2.32,0,0,0,.58.08A2.16,2.16,0,0,0,66.51,129.9Zm8.81-44.48a2.18,2.18,0,0,0,1.6,1.16l6.48,1a2,2,0,0,0,.34,0,2.17,2.17,0,0,0,2-1.31c1.6-3.66,3.11-7.16,4.53-10.42A2.21,2.21,0,0,0,90.17,74a2.17,2.17,0,0,0-1.57-1.1l-5.83-.93a2.16,2.16,0,0,0-2.29,1.17c-1.57,3.16-3.31,6.64-5.17,10.34A2.17,2.17,0,0,0,75.32,85.42Zm40.62,9.86-11.89-1.85a2.2,2.2,0,0,0-2.38,1.39l-1.75,4.72a2.17,2.17,0,0,0,1.59,2.88l11.68,2.46a2.3,2.3,0,0,0,.45.05,2.16,2.16,0,0,0,2-1.42l2-5.32a2.19,2.19,0,0,0-1.71-2.91Zm-55.8,24,8.28,1.94a2.07,2.07,0,0,0,.5.06,2.16,2.16,0,0,0,2-1.29c1.75-4,3.51-7.92,5.23-11.83a2.17,2.17,0,0,0-1.57-3c-2.56-.5-5.12-1-7.74-1.47a2.17,2.17,0,0,0-2.34,1.15c-1.89,3.73-3.83,7.53-5.78,11.35a2.18,2.18,0,0,0,0,1.9A2.16,2.16,0,0,0,60.14,119.32ZM39.14,100l-2,4.42a2.17,2.17,0,0,0,1.58,3c2.13.4,4.24.81,6.36,1.23a3,3,0,0,0,.42,0,2.18,2.18,0,0,0,1.94-1.19l2.17-4.27a2.18,2.18,0,0,0,0-1.93,2.15,2.15,0,0,0-1.52-1.18c-2.08-.43-4.25-.88-6.53-1.37A2.17,2.17,0,0,0,39.14,100ZM77,103a2.17,2.17,0,0,0,2-1.3q2-4.47,3.85-8.77a2.16,2.16,0,0,0-1.66-3L74.3,88.81A2.16,2.16,0,0,0,72,90l-4.27,8.45a2.17,2.17,0,0,0,1.54,3.11c2.45.46,4.86.92,7.3,1.4A2,2,0,0,0,77,103ZM38.33,84.14c1.05.21,2,.4,3,.57a1.75,1.75,0,0,0,.4,0,2.18,2.18,0,0,0,2-1.28l2.66-6a2.18,2.18,0,0,0-.05-1.85,2.15,2.15,0,0,0-1.46-1.15h0a49.67,49.67,0,0,0-6.47,2.94c-.53,1.18-1.07,2.4-1.63,3.66a2.17,2.17,0,0,0,1.56,3ZM97.83,71.7l7.29,1.16a2.17,2.17,0,0,0,2.38-1.4q1.77-4.86,3.22-8.89c-3.59.78-7.24,1.76-11,2.84-.83.24-1.66.47-2.48.68L96.18,68.7a2.17,2.17,0,0,0,1.65,3ZM100,104.76a2.17,2.17,0,0,0-2.48,1.36L94.6,113.8a2.17,2.17,0,0,0,1.67,2.9l1,.17c5.29-3.2,10.48-6.24,15.46-9.05a2.11,2.11,0,0,0-1.09-.6Zm-85,16.31a2.19,2.19,0,0,0-1.39-1.17l-1.48-.41a64,64,0,0,0,0,9.39,2.53,2.53,0,0,0,.21-.32c.86-1.87,1.74-3.76,2.61-5.66A2.21,2.21,0,0,0,14.93,121.07ZM25.8,147.79a2.15,2.15,0,0,0-1.4-1.23l-4.13-1.18a2.17,2.17,0,0,0-2.56,1.17l-.94,2a66.42,66.42,0,0,0,4.34,8.84c.11.14.24.27.36.4,1.34-2.54,2.75-5.26,4.26-8.15A2.17,2.17,0,0,0,25.8,147.79Zm28-74c3.14.62,5.75,1.1,8.16,1.53a2.18,2.18,0,0,0,2.33-1.17l1.94-3.91a107.85,107.85,0,0,0-14,2.11c0,.1.07.21.12.31A2.2,2.2,0,0,0,53.78,73.77Zm10.49,6.17c-2.49,5-5.26,10.48-8.2,16.28a2.2,2.2,0,0,0,0,1.94,2.17,2.17,0,0,0,1.54,1.17l4.58.87a2.71,2.71,0,0,0,.4,0,2.18,2.18,0,0,0,1.94-1.19c2.9-5.73,5.68-11.22,8.23-16.3a2.17,2.17,0,0,0-1.53-3.11l-4.62-.86A2.18,2.18,0,0,0,64.27,79.94ZM48.4,86c2,.36,4.46.81,7.45,1.39a2,2,0,0,0,.42,0,2.16,2.16,0,0,0,1.93-1.19L61,80.61a2.14,2.14,0,0,0,0-1.94,2.16,2.16,0,0,0-1.55-1.17c-1.91-.35-4.51-.82-7.7-1.48a2.17,2.17,0,0,0-2.43,1.24L46.8,83a2.16,2.16,0,0,0,1.6,3Zm5.26,31.76a2.17,2.17,0,0,0,1.94-1.18c1.9-3.71,3.78-7.41,5.64-11a2.19,2.19,0,0,0,0-2,2.15,2.15,0,0,0-1.54-1.17c-1.49-.28-3-.57-4.55-.88a2.18,2.18,0,0,0-2.35,1.15l-5.54,10.88a2.18,2.18,0,0,0,0,1.9,2.21,2.21,0,0,0,1.48,1.2l4.46,1A2.05,2.05,0,0,0,53.66,117.74ZM43.59,96.5c2.41.52,4.71,1,6.91,1.44a3.13,3.13,0,0,0,.43,0,2.19,2.19,0,0,0,1.94-1.19L55,92.67a2.17,2.17,0,0,0-1.54-3.11c-2.66-.51-5-.92-7.18-1.32a2.19,2.19,0,0,0-2.36,1.25l-1.8,4a2.16,2.16,0,0,0,1.52,3ZM24.16,109l-3.45,7.55a2.15,2.15,0,0,0,0,1.82,2.18,2.18,0,0,0,1.39,1.18l2.86.79a2.32,2.32,0,0,0,.58.08,2.19,2.19,0,0,0,2-1.27l3.55-7.78a2.18,2.18,0,0,0,0-1.9,2.15,2.15,0,0,0-1.53-1.14l-3-.56A2.18,2.18,0,0,0,24.16,109ZM17.77,123l-2.51,5.45a2.2,2.2,0,0,0,0,1.86,2.16,2.16,0,0,0,1.44,1.16l2.89.7a2.22,2.22,0,0,0,.51.06,2.19,2.19,0,0,0,2-1.26l2.47-5.37a2.15,2.15,0,0,0,0-1.82,2.18,2.18,0,0,0-1.39-1.18l-2.86-.79A2.17,2.17,0,0,0,17.77,123ZM120.11,91.53l.68-1.86a2.17,2.17,0,0,0-1.74-2.91l-12-1.62a2.15,2.15,0,0,0-2.33,1.4l-.6,1.64A2.15,2.15,0,0,0,104.3,90a2.18,2.18,0,0,0,1.54,1l11.89,1.86.34,0A2.18,2.18,0,0,0,120.11,91.53ZM49.05,138.7a2.16,2.16,0,0,0-2.47,1.1l-3.46,6.67a2.16,2.16,0,0,0-.06,1.86,2.11,2.11,0,0,0,1.4,1.22l2.69.77c3.66-2.4,7.81-5.25,12.5-8.56a2.18,2.18,0,0,0-1-.57Zm91.84-53.36-7.76-1.51,3.43-8.8a2.18,2.18,0,0,0-.17-1.91,2.12,2.12,0,0,0-1.61-1l-2.9-.34a2.15,2.15,0,0,0-2.29,1.42c-1.89,5.25-4.12,11.34-6.55,18A2.15,2.15,0,0,0,123.2,93a2.19,2.19,0,0,0,1.54,1l10.61,1.64q2.9-1.45,5.4-2.64l1.77-4.8a2.19,2.19,0,0,0-.15-1.82A2.16,2.16,0,0,0,140.89,85.34ZM93.62,119.09a2.2,2.2,0,0,0-1.14.7Zm-6.1-1.22-10.26-1.73a2.15,2.15,0,0,0-2.34,1.26c-3,6.65-5.92,13.32-8.8,19.76C73.37,132,81,127,88.67,122.16l.52-1.38a2.15,2.15,0,0,0-.15-1.85A2.18,2.18,0,0,0,87.52,117.87ZM39.85,152.76c-.53,1-1.05,2-1.55,3,1.8-1,3.77-2.17,5.92-3.52l-1.85-.53A2.16,2.16,0,0,0,39.85,152.76Zm.3-6.23L42,143a2.17,2.17,0,0,0-1.42-3.11l-4.41-1.07a2.16,2.16,0,0,0-2.44,1.11L32,143.29a2.18,2.18,0,0,0,1.34,3.09l4.32,1.23a2.08,2.08,0,0,0,.6.09A2.17,2.17,0,0,0,40.15,146.53ZM158.38,79.9a26.77,26.77,0,0,0-6.76-9.12c-2,5.48-4.52,12.52-7.52,20.69,2.64-1.19,4.76-2,6.2-2.52C157.55,86.62,159.14,83.59,158.38,79.9Zm-13.44,1.7c.69-1.89,1.35-3.71,2-5.43a2.12,2.12,0,0,0-.2-1.88,2.14,2.14,0,0,0-1.59-1l-3.2-.37a2.17,2.17,0,0,0-2.27,1.38l-2,5.16a2.17,2.17,0,0,0,1.61,2.92l3.23.63a2,2,0,0,0,.42,0A2.18,2.18,0,0,0,144.94,81.6ZM35.54,149.73l-4.31-1.23a2.17,2.17,0,0,0-2.52,1.09l-5.1,9.74c2.53,1.12,5.92.6,10.67-1.57l2.59-4.94a2.17,2.17,0,0,0-1.33-3.09ZM32,135.07a2.18,2.18,0,0,0,1.93-1.18l2.55-4.95a2.19,2.19,0,0,0,.06-1.87,2.15,2.15,0,0,0-1.41-1.22L30,124.43a2.17,2.17,0,0,0-2.55,1.19c-.8,1.73-1.6,3.45-2.38,5.16a2.16,2.16,0,0,0,1.46,3l5,1.21A2.22,2.22,0,0,0,32,135.07Zm78.6-62.13a2.23,2.23,0,0,0,1.54,1L124,75.87a2.16,2.16,0,0,0,2.39-1.4c1.94-5.36,3.53-9.8,4.72-13.18a54.19,54.19,0,0,0-17.36.69q-1.47,4.08-3.3,9.11A2.22,2.22,0,0,0,110.57,72.94Zm23.23-3.59L147,70.87a2.17,2.17,0,0,0,2.29-1.43c0-.13.09-.24.13-.37a39.79,39.79,0,0,0-15.79-7.32c-.49,1.39-1,3-1.66,4.71a2.15,2.15,0,0,0,.2,1.88A2.2,2.2,0,0,0,133.8,69.35ZM24.06,103l2.27-5a2.18,2.18,0,0,0,0-1.85,2.13,2.13,0,0,0-1.44-1.16l-4.36-1.07A49.8,49.8,0,0,0,15.77,103q2.93.61,5.89,1.2A2.18,2.18,0,0,0,24.06,103Zm98.17-24.71-11.87-1.9a2.16,2.16,0,0,0-2.38,1.4l-.78,2.12a2.17,2.17,0,0,0,1.75,2.9l12,1.63.3,0a2.19,2.19,0,0,0,2-1.43l.68-1.85a2.19,2.19,0,0,0-.17-1.85A2.16,2.16,0,0,0,122.23,78.24ZM69.05,76.58l4.57.87A2.19,2.19,0,0,0,76,76.3c1.31-2.63,2.52-5,3.61-7.26-3.51.35-7,.61-10.35.91-.55,1.12-1.13,2.28-1.75,3.52a2.18,2.18,0,0,0,1.55,3.11ZM85.32,69.7l5.43.87a2.16,2.16,0,0,0,2.34-1.29c.37-.85.72-1.66,1-2.45-3.52.77-7,1.32-10.4,1.74A2.18,2.18,0,0,0,85.32,69.7ZM22.06,143.18l4.42,1.26a2.06,2.06,0,0,0,.6.08A2.18,2.18,0,0,0,29,143.35l1.6-3.1a2.17,2.17,0,0,0-1.41-3.11L24.55,136a2.19,2.19,0,0,0-2.49,1.2l-1.38,3a2.17,2.17,0,0,0,1.38,3ZM97,92.34,88.3,91A2.18,2.18,0,0,0,86,92.26l-1.69,3.86a2.18,2.18,0,0,0,1.54,3L94.63,101a1.73,1.73,0,0,0,.45,0,2.18,2.18,0,0,0,2-1.41l1.62-4.37a2.18,2.18,0,0,0-1.7-2.9Zm-2.51,12a2.2,2.2,0,0,0-1.46-1.08l-9.2-1.94a2.18,2.18,0,0,0-2.44,1.25c-1.19,2.71-2.4,5.46-3.62,8.22a2.18,2.18,0,0,0,1.63,3l9.85,1.66a2.19,2.19,0,0,0,.36,0,2.16,2.16,0,0,0,2-1.41c1-2.65,2-5.31,3-7.94A2.2,2.2,0,0,0,94.53,104.39Zm26.05-6.62-2.1,5.68a2.1,2.1,0,0,0-.08,1.19c4.64-2.57,9-4.91,13-7L123,96.37A2.19,2.19,0,0,0,120.58,97.77ZM19.1,135.51a2.15,2.15,0,0,0-1.44-1.17l-2.89-.7a2.14,2.14,0,0,0-2,.55,67.76,67.76,0,0,0,2.74,10.93c1.15-2.45,2.35-5,3.62-7.75A2.16,2.16,0,0,0,19.1,135.51Zm-1.23-19q1.62-3.52,3.22-7a2.17,2.17,0,0,0-1.55-3c-1.56-.32-3.12-.63-4.68-1a55.33,55.33,0,0,0-2.55,11.4l3,.82A2.16,2.16,0,0,0,17.87,116.49ZM93.35,75.28l-4.5,10.4a2.14,2.14,0,0,0,.08,1.91,2.18,2.18,0,0,0,1.57,1.1L98.83,90a2,2,0,0,0,.34,0,2.17,2.17,0,0,0,2-1.42c1.34-3.62,2.63-7.13,3.86-10.47a2.17,2.17,0,0,0-1.69-2.9L95.69,74A2.16,2.16,0,0,0,93.35,75.28Zm-64.1,16.2,1.61-3.55a2.22,2.22,0,0,0,0-1.87,2.2,2.2,0,0,0-1.47-1.15l-1-.22a48.83,48.83,0,0,0-6.22,6.87c1.56.39,3.12.77,4.65,1.13A2.17,2.17,0,0,0,29.25,91.48Zm4.52-10,.71-1.61q-1.84,1.25-3.68,2.72l.52.12A2.17,2.17,0,0,0,33.77,81.45Z" style="fill:url(#linear-gradient)"/><path d="M116,166.22c-3.85,3.85-21.83-13.54-43.65-35.35S32.72,91.49,37,87.21s21.83,13.54,43.65,35.36S120.52,161.71,116,166.22Z" style="fill:url(#linear-gradient-2)"/><path d="M148.87,128.6C145,132.44,132,120,116.34,104.36S87.82,76.11,92.1,71.83,109,80.39,124.63,96.07,153.38,124.09,148.87,128.6Z" style="fill:url(#linear-gradient-3)"/><path d="M134.79,149.76c-3.85,3.85-21.2-12.9-42.23-33.93S54.35,77.88,58.63,73.6s21.19,12.9,42.23,33.93S139.3,145.25,134.79,149.76Z" style="fill:url(#linear-gradient-4)"/><path d="M86.22,171.67c-3.85,3.85-19-10.73-37.4-29.1s-33.38-33.12-29.1-37.4,19,10.74,37.39,29.1S90.73,167.16,86.22,171.67Z" style="fill:url(#linear-gradient-5)"/><path d="M145.66,128.09c-8.46-5.36-16.72-4.74-21.65-2.9a6.12,6.12,0,0,0-4.52,1.18c-2.2-.87-3-1.08.42-1.7a26.14,26.14,0,0,0,7.13-2.85c3.19,1,9.07-1.17,14.88-7.37C147,109,151,104,149.1,98.32c-3,4-4,6.41-10.39,12.12-7,6.28-8.43,5.1-12.24,9.9a47.77,47.77,0,0,1-5,2.12,36.78,36.78,0,0,1-7.53,1.3,30.76,30.76,0,0,0,15.55-13.11c5.54-9,6.23-18.61,2.46-25.16-3.29,6.37.27,10.83-6.85,20.62-4.79,6.58-10,8.72-14.5,10.81a18.51,18.51,0,0,0,.51-3.4c.28-5.54-.07-10.31-5.66-12.46.44,3.72,1.3,5.53.16,11.87-1,5.78-2.58,6.83-2.9,9.59a14.4,14.4,0,0,0-1,1.5c-1.6,1.43-5.82,5.13-9.47,3.49s-2.71-3.56-4.59-1.72,2.9,3.4,5,4.12,5.44-.69,7-.94a2.8,2.8,0,0,1,2.39.64,5.38,5.38,0,0,0,1.55,4.32,21.38,21.38,0,0,1,1.47,6.54c.31,5.32-.9,6.57-1.93,9.44,6.38-.46,7.47-4.19,8-8.67a11.39,11.39,0,0,0,0-2.68c1.5.85,3,1.66,4.4,2.37a19.14,19.14,0,0,0-.31-4.81c3.73,2,8.12,4,11.9,9.92,5.42,8.49,2.24,12,4.65,17.47,3.46-5.25,3.37-13.25-.77-21-5.37-10.07-14.35-13.27-19.43-13.4a11.88,11.88,0,0,0-4.41-2.87l-.11,0c4.67-.11,10.42.86,13.08,2.17l.2.09c.25.16.51.31.76.44,3.57,3.11,5.25,2.32,12.43,7.3s8.65,7.47,12.27,11.36c.93-6.75-3.83-11.56-9.75-16.56-.25-.21-.49-.39-.73-.58a22.87,22.87,0,0,1,8.75,2.67c8.9,4.7,7.87,9.34,12.67,12.89C157.12,139.71,153.09,132.8,145.66,128.09Z" style="fill:#4d2108"/><path d="M119.38,123.41c7.29,4.55,13.36-1.73,24.7,3.19,9.24,4,8.57,8.7,13.63,11.87-.07-6.28-4.63-12.86-12.4-17C132.47,114.68,121,120.38,119.38,123.41Z" style="fill:#a6ba00"/><path d="M102.35,122c-1-5.3,1.12-5.12,1.88-12.58.66-6.41-.34-8.14-1.07-11.82,5.74,1.71,6.46,6.44,6.61,12C110,116.87,106,121.56,102.35,122Z" style="fill:#a6ba00"/><path d="M128.08,113.81a82.65,82.65,0,0,1-7.29,3.92c-3.1,1.38-10.86,2.53-14.57,2.78s-3.5-1.26-5,.25-5.42,5.62-9.22,4.25-3-3.34-4.71-1.36,3.15,3.17,5.32,3.73,5.38-1.12,6.87-1.48a3,3,0,0,1,3.52,1.83c.7,1.5-1.64-4.55,3.09-5.11s10.86,0,13.73,1.11,2.38-1-.26-1.79-3.85-.93-.23-1.89a28.09,28.09,0,0,0,9.69-5.55C130.18,113.32,128.08,113.81,128.08,113.81Z" style="fill:#597f00"/><path d="M103.75,126.54c-1.14,4.25,1.23,4.26,2.06,10.41.72,5.28-.39,6.62-1.19,9.56,6.32-.95,7.12-4.75,7.28-9.26A10.35,10.35,0,0,0,103.75,126.54Z" style="fill:#6e8900"/><path d="M101,121.3c4.05-9.5,14.36-7.49,22.15-20.15,6.35-10.31,2.46-14.48,5.25-21.09,4.26,6.24,4.31,15.87-.51,25.28C119.9,120.89,104.69,123.16,101,121.3Z" style="fill:#6e8900"/><path d="M108.29,125.85c4.1,7.56,12.47,5.09,19.9,15,6.06,8,3.16,11.8,6,17.06,3-5.5,2.33-13.48-2.39-20.9C124,124.72,111.2,124,108.29,125.85Z" style="fill:#a6ba00"/><path d="M125,116.13c3.87-6.12,5.13-4.53,12-11.71,5.93-6.18,6.76-8.62,9.43-12.88,2.32,5.5-1.26,10.83-5.92,16.64C134.44,115.78,127.84,118.07,125,116.13Z" style="fill:#6e8900"/><path d="M118.64,122.34c5.65,5.17,6.32,3,15.18,8.17,7.62,4.46,9.19,6.78,13.11,10.39.4-6.81-4.71-11.24-11-15.77C127.69,119.2,120.7,119.2,118.64,122.34Z" style="fill:#597f00"/><path d="M106.77,122.6s9.19,2.07,9.48,14a110.44,110.44,0,0,1-12.19-5.91C101,128.88,100.84,121,106.77,122.6Z" style="fill:#597f00"/><path d="M57.85,167.37a3.94,3.94,0,1,1-3.93-3.94A3.93,3.93,0,0,1,57.85,167.37Z" style="fill:#6b2c0c"/><path d="M56.86,165a3.94,3.94,0,1,1-3.93-3.94A3.93,3.93,0,0,1,56.86,165Z" style="fill:url(#radial-gradient-2)"/><path d="M53.9,162.26a3.27,3.27,0,0,0-.7-.08,3,3,0,0,0-2.9,2.14,3.79,3.79,0,0,0,1.51.79h0a2.51,2.51,0,0,1,1.86-.81A3.33,3.33,0,0,0,53.9,162.26Z" style="fill:#ff7030"/><path d="M69.27,137.31a3.94,3.94,0,1,1-3.93-3.94A3.93,3.93,0,0,1,69.27,137.31Z" style="fill:#6b2c0c"/><path d="M68.28,135A3.94,3.94,0,1,1,64.35,131,3.93,3.93,0,0,1,68.28,135Z" style="fill:url(#radial-gradient-3)"/><path d="M65.32,132.2a3.27,3.27,0,0,0-.7-.08,3,3,0,0,0-2.9,2.13,3.74,3.74,0,0,0,1.51.8h0a2.57,2.57,0,0,1,1.86-.8A3.33,3.33,0,0,0,65.32,132.2Z" style="fill:#ff7030"/><path d="M69.13,97.75a3.94,3.94,0,1,1-3.94-3.94A3.94,3.94,0,0,1,69.13,97.75Z" style="fill:#6b2c0c"/><path d="M68.14,95.41a3.94,3.94,0,1,1-3.94-3.94A3.94,3.94,0,0,1,68.14,95.41Z" style="fill:url(#radial-gradient-4)"/><path d="M65.17,92.64a3.19,3.19,0,0,0-.7-.08,3,3,0,0,0-2.9,2.14,3.86,3.86,0,0,0,1.52.79h0A2.55,2.55,0,0,1,65,94.69,3.26,3.26,0,0,0,65.17,92.64Z" style="fill:#ff7030"/><path d="M79.5,112.06a3.94,3.94,0,1,1-3.94-3.94A3.94,3.94,0,0,1,79.5,112.06Z" style="fill:#6b2c0c"/><path d="M78.51,109.72a3.94,3.94,0,1,1-3.94-3.94A3.94,3.94,0,0,1,78.51,109.72Z" style="fill:url(#radial-gradient-5)"/><path d="M75.54,107a3.19,3.19,0,0,0-.7-.08,3,3,0,0,0-2.9,2.14,3.86,3.86,0,0,0,1.52.79h0a2.57,2.57,0,0,1,1.86-.8A3.33,3.33,0,0,0,75.54,107Z" style="fill:#ff7030"/><path d="M121.51,78.06a3.94,3.94,0,1,1-3.94-3.94A3.93,3.93,0,0,1,121.51,78.06Z" style="fill:#6b2c0c"/><path d="M120.52,75.71a3.94,3.94,0,1,1-3.94-3.93A3.94,3.94,0,0,1,120.52,75.71Z" style="fill:url(#radial-gradient-6)"/><path d="M117.55,73a3.19,3.19,0,0,0-.7-.08A3,3,0,0,0,114,75a3.81,3.81,0,0,0,1.52.8h0a2.57,2.57,0,0,1,1.86-.8A3.26,3.26,0,0,0,117.55,73Z" style="fill:#ff7030"/><path d="M101.16,94.86a3.94,3.94,0,1,1-3.94-3.94A3.93,3.93,0,0,1,101.16,94.86Z" style="fill:#6b2c0c"/><path d="M100.17,92.52a3.94,3.94,0,1,1-3.94-3.94A3.93,3.93,0,0,1,100.17,92.52Z" style="fill:url(#radial-gradient-7)"/><path d="M97.2,89.75a3.19,3.19,0,0,0-.7-.08,3,3,0,0,0-2.9,2.14,3.86,3.86,0,0,0,1.52.79h0A2.55,2.55,0,0,1,97,91.8,3.26,3.26,0,0,0,97.2,89.75Z" style="fill:#ff7030"/><path d="M122.16,148.68a3.94,3.94,0,1,1-3.93-3.93A3.93,3.93,0,0,1,122.16,148.68Z" style="fill:#6b2c0c"/><path d="M121.17,146.34a3.94,3.94,0,1,1-3.93-3.93A3.93,3.93,0,0,1,121.17,146.34Z" style="fill:url(#radial-gradient-8)"/><path d="M118.21,143.58a3.27,3.27,0,0,0-.7-.08,3,3,0,0,0-2.9,2.13,3.74,3.74,0,0,0,1.51.8h0a2.57,2.57,0,0,1,1.86-.8A3.33,3.33,0,0,0,118.21,143.58Z" style="fill:#ff7030"/><path d="M90.61,155.58a3.94,3.94,0,1,1-3.94-3.94A3.93,3.93,0,0,1,90.61,155.58Z" style="fill:#6b2c0c"/><path d="M89.62,153.24a3.94,3.94,0,1,1-3.94-3.94A3.93,3.93,0,0,1,89.62,153.24Z" style="fill:url(#radial-gradient-9)"/><path d="M86.65,150.47a3.1,3.1,0,0,0-.69-.08,3,3,0,0,0-2.9,2.14,3.79,3.79,0,0,0,1.51.79h0a2.55,2.55,0,0,1,1.86-.81A3.19,3.19,0,0,0,86.65,150.47Z" style="fill:#ff7030"/><path d="M46,144.13a3.94,3.94,0,1,1-3.94-3.93A3.93,3.93,0,0,1,46,144.13Z" style="fill:#6b2c0c"/><path d="M45.05,141.79a3.94,3.94,0,1,1-3.94-3.93A3.94,3.94,0,0,1,45.05,141.79Z" style="fill:url(#radial-gradient-10)"/><path d="M42.08,139a2.68,2.68,0,0,0-.7-.08,3,3,0,0,0-2.9,2.13,3.81,3.81,0,0,0,1.52.8h0a2.57,2.57,0,0,1,1.86-.8A3.2,3.2,0,0,0,42.08,139Z" style="fill:#ff7030"/><path d="M111.56,26.5A26.5,26.5,0,1,1,85.06,0,26.5,26.5,0,0,1,111.56,26.5Z" style="fill:url(#radial-gradient-11)"/><path d="M90.28,6.77a16.23,16.23,0,0,0-3.78-.44c-7.36,0-14.31,5.1-15.66,11.52A20.41,20.41,0,0,0,79,22.15l0,0a13.8,13.8,0,0,1,10-4.33C90.85,14.63,91,9.31,90.28,6.77Z" style="fill:#ff7d57"/><path d="M86.93,45.52c6.68,1,14.56-3.7,16.3-9.3a17.31,17.31,0,0,0-6.86-3.61h0c-2.12,2.23-5,4.5-8.67,4.63A23.85,23.85,0,0,0,86.93,45.52Z" style="fill:#ff4525"/><polygon points="88.62 14.09 92.34 21.64 100.67 22.85 94.64 28.72 96.07 37.02 88.62 33.1 81.17 37.02 82.59 28.72 76.57 22.85 84.89 21.64 88.62 14.09" style="fill:url(#radial-gradient-12)"/><path d="M87.17,26.68c1.69-1.06,4.58-3.94,4.83-11.11-.81-2.45,5.28-1.42,5.65.54.32,1.7-3.14,10.49-9.39,11.28C87.5,27.48,86.4,27.16,87.17,26.68Z" style="fill:#5b8f0b"/><path d="M92,22.53c-.5.36.07-1,.43-2.34a31.5,31.5,0,0,0,.67-3.81c.1-1,2.67-.67,2.43,0S94.78,20.57,92,22.53Z" style="fill:#8fc21f"/><path d="M55.11,37.83a23.06,23.06,0,1,1-23.06-23A23.07,23.07,0,0,1,55.11,37.83Z" style="fill:url(#radial-gradient-13)"/><path d="M36.59,20.67a14.16,14.16,0,0,0-3.28-.39c-6.41,0-12.45,4.44-13.63,10a17.83,17.83,0,0,0,7.12,3.74l0,0a12,12,0,0,1,8.74-3.78A15.36,15.36,0,0,0,36.59,20.67Z" style="fill:#ff7d57"/><path d="M33.68,55.43c5.81.89,12.67-3.21,14.18-8.08a15,15,0,0,0-6-3.14h0c-1.84,1.94-4.37,3.91-7.54,4A20.88,20.88,0,0,0,33.68,55.43Z" style="fill:#ff4525"/><polygon points="35.15 27.04 38.39 33.6 45.63 34.65 40.39 39.76 41.63 46.98 35.15 43.57 28.67 46.98 29.91 39.76 24.66 34.65 31.91 33.6 35.15 27.04" style="fill:url(#radial-gradient-14)"/><path d="M33.89,38c1.47-.92,4-3.43,4.2-9.67-.71-2.13,4.59-1.23,4.92.47.28,1.48-2.74,9.13-8.18,9.81C34.17,38.69,33.22,38.41,33.89,38Z" style="fill:#5b8f0b"/><path d="M38.08,34.38c-.44.31.06-.84.37-2A26.3,26.3,0,0,0,39,29c.1-.86,2.33-.58,2.12,0S40.5,32.67,38.08,34.38Z" style="fill:#8fc21f"/></g></g></svg>