<svg xmlns="http://www.w3.org/2000/svg" xmlns:xlink="http://www.w3.org/1999/xlink" viewBox="0 0 180.29 177.97"><defs><linearGradient id="linear-gradient" x1="77.91" y1="17.1" x2="126.09" y2="127.87" gradientUnits="userSpaceOnUse"><stop offset="0" stop-color="#b8e245"/><stop offset="0.15" stop-color="#b1de41"/><stop offset="0.36" stop-color="#9ed136"/><stop offset="0.61" stop-color="#7ebe24"/><stop offset="0.89" stop-color="#53a20b"/><stop offset="1" stop-color="#409600"/></linearGradient><radialGradient id="radial-gradient" cx="625.57" cy="975.29" r="81.9" gradientTransform="translate(349.51 -1053.33) rotate(45)" gradientUnits="userSpaceOnUse"><stop offset="0" stop-color="#b8e245"/><stop offset="0.13" stop-color="#b2df3e"/><stop offset="0.32" stop-color="#a1d62b"/><stop offset="0.52" stop-color="#88c90e"/><stop offset="0.97" stop-color="#409600"/></radialGradient><radialGradient id="radial-gradient-2" cx="623.74" cy="1036.77" r="101.6" gradientTransform="translate(349.51 -1053.33) rotate(45)" gradientUnits="userSpaceOnUse"><stop offset="0.15" stop-color="#e0ffb3"/><stop offset="0.27" stop-color="#defeac"/><stop offset="0.45" stop-color="#d7fa99"/><stop offset="0.66" stop-color="#ccf479"/><stop offset="0.89" stop-color="#bdec4e"/><stop offset="1" stop-color="#b5e837"/></radialGradient><linearGradient id="linear-gradient-2" x1="59.8" y1="56.26" x2="97.59" y2="143.14" xlink:href="#linear-gradient"/><radialGradient id="radial-gradient-3" cx="56.15" cy="122.13" r="73.6" gradientTransform="matrix(1, 0, 0, 1, 0, 0)" xlink:href="#radial-gradient"/><linearGradient id="linear-gradient-3" x1="64.41" y1="115.89" x2="80.01" y2="152.29" gradientUnits="userSpaceOnUse"><stop offset="0" stop-color="#fbebc4"/><stop offset="1" stop-color="#dec787"/></linearGradient><linearGradient id="linear-gradient-4" x1="70.92" y1="120.91" x2="0.01" y2="75.7" xlink:href="#linear-gradient-3"/></defs><g id="Layer_2" data-name="Layer 2"><g id="Layer_1-2" data-name="Layer 1"><path d="M166,129.62c-18.84,18.84-59.85,8.38-91.6-23.37S32.17,33.49,51,14.65,110.87,6.26,142.62,38,184.83,110.78,166,129.62Z" style="fill:#c09556"/><path d="M49.06,12.07l4.33,4.33C71.61-1.6,111,8.5,141.58,39s40.65,70,22.65,88.21l4.33,4.32c19.78-20,9.19-62.82-23.75-95.76S69.07-7.72,49.06,12.07Z" style="fill:#f9e8bf"/><path d="M124,128.81c-2.44-2.82-24.89-17-37.57-8.65s-6,20.86-4.14,18.42,6-7.14,6-7.14,8.27,7.89,10.24,5.73,5.17-5.17,5.45-5.45,6.39-.56,6.39-.56c1.13,4.32,7.24,9.67,8.74,8.17S126.4,131.63,124,128.81Zm47-23.52s-6.67-9.27-4.13-13.5,11.31-6.88,12.4-7.81-.47-3-1.51-3.65-15.22.94-16.25,2.91-7.51,25.56-5.07,25.93,10.14,4.67,11.42,4.39S170.93,105.29,170.93,105.29ZM100,2.66c-.66-1-2.73-2.59-3.65-1.5S92.8,11,88.57,13.56s-13.5-4.13-13.5-4.13-8,1.85-8.27,3.14,4,9,4.39,11.42,24-4,25.93-5.07S100.69,3.7,100,2.66ZM51.55,56.41c-2.82-2.45-9,3.38-10.52,4.88S44.88,68.9,49.2,70c0,0-.28,6.1-.56,6.39s-3.29,3.47-5.45,5.45S48.92,92.1,48.92,92.1s-4.7,4.14-7.14,6S51.84,106.67,60.19,94,54.37,58.85,51.55,56.41Z" style="fill:#0a5c00"/><path d="M167.12,113.3c2.47,1.62,6.86-5.5,8.24-10.51s-3.52-.11-3.34-8.46,4-12.61,6.48-10.56,3-10.67-2.4-13.48-5.62-11.16-3.54-15.05-1.85-2.7-6.76-5.05-2.91-8.88.27-12.52c1.52-1.73,0-6.79-8.55-15.35-7.11-7.12-13.21-9.59-14.91-8.11-3.63,3.19-10.16,5.18-12.51.27s-1.16-8.82-5-6.75S112.8,9.55,110,4.18,94.46-.7,96.52,1.79,94.3,8.09,86,8.27,82.51,3.55,77.5,4.93,65.37,10.7,67,13.17s7.57,3.31,5.71,7-6.84,6.38-9.34,3.44-7.12-2.85-7.44,1.09-.39,8.56-4.72,10.62-10.75,7.58-10,11.78,4.37-.75,4.66,8.49S41,59.16,40.38,62s-1,10.52,2.83,13.06,4.82,6.52,1.3,6.41-3.74,6.92-.18,8.35,3.13,8.66.48,8.58-3.34-1.64-4.57,1.4-.68,6.13.91,7.72-3,2.54-3,2.54-.7,5.69,10.87,17.26l3.95,4c11.56,11.57,17.26,10.87,17.26,10.87s1-4.59,2.54-3,4.68,2.13,7.72.9,1.48-1.93,1.4-4.57,7.15-3.07,8.58.49,8.46,3.34,8.35-.18,3.87-2.51,6.41,1.3,10.21,3.4,13,2.82-2.81-5.8,6.43-5.51,4.29,3.87,8.49,4.66,9.71-5.63,11.78-10,6.67-4.4,10.62-4.72,4-4.93,1.08-7.44-.23-7.48,3.45-9.34S164.65,111.69,167.12,113.3Z" style="fill:url(#linear-gradient)"/><path d="M155.45,122.51c1-.08,1.21-.5,1.32-.8a3.4,3.4,0,0,0-1.3-3.36,5.44,5.44,0,0,1-1.82-5.19,10.77,10.77,0,0,1,5.63-7.24,4.26,4.26,0,0,1,5.26.83,13.41,13.41,0,0,1,1.94,2.74,9.65,9.65,0,0,0,1.52,2.14c1.32-.5,4.35-5,5.56-9.34a6,6,0,0,0,.15-.64,5.06,5.06,0,0,1-1.86-1.14c-1.22-1.23-1.76-3.2-1.7-6.21.13-6.2,2.21-11.11,5.29-12.52a4,4,0,0,1,2.9-.2c.3-2.18-.13-6.87-2.27-9a3.72,3.72,0,0,0-.83-.63,9,9,0,0,1-2.3-1.68c-4-4-4.31-11.63-2-15.9a4.74,4.74,0,0,0,.23-.48c-.37-.13-.95-.27-1.42-.39A24.32,24.32,0,0,1,165,51.87a7.33,7.33,0,0,1-2-1.41c-3.52-3.53-1.9-9.9,1.71-14,.34-.51-.09-4.42-8.47-12.8-6.76-6.76-11.46-8.2-12.43-8-4.12,3.56-10.43,5.15-13.94,1.64a7.31,7.31,0,0,1-1.42-2,24.9,24.9,0,0,1-1.61-4.72c-.12-.46-.26-1-.39-1.42-.13,0-.28.13-.48.23-4.28,2.28-11.86,2-15.9-2a9.29,9.29,0,0,1-1.69-2.3,3.39,3.39,0,0,0-.62-.83c-2.14-2.14-6.83-2.57-9-2.27a3.94,3.94,0,0,1-.2,2.89C97.1,7.92,92.19,10,86,10.14c-3,.06-5-.48-6.21-1.71a5.14,5.14,0,0,1-1.15-1.85c-.15,0-.36.07-.64.15-4.37,1.2-8.83,4.24-9.33,5.56a9.9,9.9,0,0,0,2.14,1.52,13,13,0,0,1,2.74,1.94A4.24,4.24,0,0,1,74.36,21a10.67,10.67,0,0,1-7.24,5.63,5.43,5.43,0,0,1-5.18-1.81,3.4,3.4,0,0,0-3.36-1.3c-.31.11-.72.37-.8,1.32l-.05.72C57.44,29.38,57,34.6,52,37c-4.45,2.11-9.44,7-8.93,9.74a1.61,1.61,0,0,0,.18.58l.4.12a4.81,4.81,0,0,1,2.18,1.19c1.24,1.24,1.82,3.3,1.93,6.89.11,3.26-.43,5.32-1.68,6.5a4.74,4.74,0,0,1-3.93,1h0c-.49,3.17-.3,8.14,1.67,10.11a3.35,3.35,0,0,0,.47.39,12.24,12.24,0,0,1,1.91,1.56c2.07,2.06,2.87,4.44,2.11,6.2a3.66,3.66,0,0,1-3.81,2.08c-.11,0-.34,0-.58.54a3.94,3.94,0,0,0,.62,3.85,1.74,1.74,0,0,0,.53.35,5.28,5.28,0,0,1,1.74,1.15c2.21,2.22,2.46,6.18,1.42,8.58a3.66,3.66,0,0,1-3.42,2.46,10.06,10.06,0,0,1-2.28-.36l-.21,0a5.4,5.4,0,0,0-.29.64c-1,2.43-.5,4.71.49,5.7a2.68,2.68,0,0,1,.77,2.7,4.48,4.48,0,0,1-3.05,2.54c.52,2.06,2.51,6.92,10.15,14.56L54.29,130c7.61,7.62,12.46,9.62,14.56,10.14a4.45,4.45,0,0,1,2.54-3,2.66,2.66,0,0,1,2.7.77c1,1,3.26,1.47,5.7.49.3-.12.5-.22.64-.29l-.06-.21a10.87,10.87,0,0,1-.35-2.28,3.66,3.66,0,0,1,2.46-3.42c2.4-1,6.36-.79,8.57,1.42a5.22,5.22,0,0,1,1.16,1.73,1.4,1.4,0,0,0,.35.53,3.9,3.9,0,0,0,3.85.62c.55-.23.54-.46.54-.57A3.67,3.67,0,0,1,99,132c1.77-.76,4.15.05,6.21,2.11a12.34,12.34,0,0,1,1.56,1.91,3.35,3.35,0,0,0,.39.47c2,2,6.94,2.16,10.1,1.66v-.05a4.69,4.69,0,0,1,1-3.92c1.18-1.25,3.24-1.79,6.49-1.68,3.59.11,5.66.69,6.9,1.93a4.79,4.79,0,0,1,1.19,2.17,2.87,2.87,0,0,0,.15.43,2.26,2.26,0,0,0,.55.16c2.71.51,7.62-4.48,9.74-8.93,2.4-5,7.62-5.44,11.43-5.72Z" style="fill:url(#radial-gradient)"/><path d="M172,84.26s-3.62,7.29-2.22,11.61c1.06,3.25-7-3.19-14.31-6-6.92-2.65-14.59-4.87-7.24-5.36s14.64-.53,18-.48S172.81,82.74,172,84.26Z" style="fill:#85c70d"/><path d="M159.28,105.37s-5.24,2-6,7c-.49,3.38-2.21.16-13.7-6.83-6.33-3.85-11.26-7.19-4-6.17,6.18.86,13.4,1.76,16.73,2.49C157.6,103,160.73,104.43,159.28,105.37Z" style="fill:#92ce19"/><path d="M127.63,132.05c-2.14-.72-5.88-.74-7.23.12s-1.22,1.23-3.79-4.53-10.91-16-4.17-11.76a76.26,76.26,0,0,1,15.31,13.35C129.71,131.68,130.94,133.15,127.63,132.05Z" style="fill:#98d41c"/><path d="M87.82,121.88a66,66,0,0,1,2.08,8.94c.25,1.23-1.22-.24-3.79.13s-4.41,1.71-4-1.35S82.27,105.25,87.82,121.88Z" style="fill:#9fd821"/><path d="M169.07,64.38c1,4.41,3,5.34,1.16,5.81S158.61,72.36,151,74.37s-21.16,7-9.22-1.16a157.55,157.55,0,0,1,24.64-13.79C168.45,58.49,168.14,60.27,169.07,64.38Z" style="fill:#92ce19"/><path d="M160.55,45.47a7.93,7.93,0,0,0,1.32,4.73c.77.93.62,1.7-1.94,2.55s-11.47,4.81-16,6.59-12.86,7.91-5.5.54,19.6-15.88,21-16.5S160.55,43.76,160.55,45.47Z" style="fill:#92ce19"/><path d="M96.52,8.81S89.23,12.43,84.91,11c-3.24-1,3.19,7,6,14.31,2.65,6.93,4.86,14.59,5.35,7.24s.53-14.64.48-18S98.05,8,96.52,8.81Z" style="fill:#85c70d"/><path d="M75.42,21.51s-2,5.23-7,6c-3.37.49-.16,2.2,6.83,13.69,3.86,6.34,7.19,11.27,6.18,4-.86-6.17-1.77-13.4-2.5-16.72C77.75,23.18,76.36,20.05,75.42,21.51Z" style="fill:#92ce19"/><path d="M48.73,53.15c.72,2.15.74,5.88-.12,7.23s-1.22,1.23,4.54,3.8,16,10.9,11.75,4.16A76.26,76.26,0,0,0,51.55,53C49.1,51.07,47.63,49.85,48.73,53.15Z" style="fill:#98d41c"/><path d="M58.9,93A68.9,68.9,0,0,0,50,90.88c-1.23-.24.24,1.22-.12,3.8s-1.72,4.41,1.34,4S75.54,98.51,58.9,93Z" style="fill:#9fd821"/><path d="M116.41,11.71c-4.42-1-5.35-3-5.81-1.16s-2.17,11.62-4.19,19.22-7,21.15,1.16,9.22a158,158,0,0,0,13.8-24.64C122.3,12.33,120.51,12.65,116.41,11.71Z" style="fill:#92ce19"/><path d="M135.31,20.23a7.9,7.9,0,0,1-4.72-1.31c-.93-.78-1.71-.62-2.56,1.93s-4.8,11.47-6.59,16-7.9,12.87-.54,5.51,15.89-19.61,16.5-21S137,20.24,135.31,20.23Z" style="fill:#92ce19"/><path d="M135.85,120.45c-.61-3.3-5.14-7.59-8.44-10.16s4.41-2.94,11-.73,7,1.1,1.83-.86-11.87-2.08-15.06-2.08-6.61-2-12.36-4-18.36-2.94-15.42-4.9a33.56,33.56,0,0,1,23.38-4.53c11.14,2.09,15.79,4.78,21.3,4.9s13,2.45,9.79.74-8.81-2.21-11.75-2.45-9.43-1.59-8.57-2.94,7.22-3.55,12.61-3.55,6.61-1-.12-1.35-10.29,1.72-13.1,2.82-3.8.85-8.2-.12-16.28-.62-14.32-2.09,8.07-4.16,13.83-5.26,15.18-2.45,9.91-2.57a73.23,73.23,0,0,0-15.79,1.83c-4.65,1-5,.13.86-4.77s13.83-6.24,19-7,7.83-2.7,12.12-6.49,3.67-4.5-.13-1.2a26.2,26.2,0,0,1-12,6.38c-4.29.86-7.19.69-5.23-3.22s4.65-8.08,7.34-10.53-1.22-.49-4,2.82-4.82,8.11-6.17,10.2-5.16,2.7-9.57,5.39-5,.69-2.25-2,6.85-8.32,11.5-11.5,6.46-5.72,8.75-10.12,7.93-6,12.77-7.84,1.85-1.49-1.14-.44-6.87,2.11-3.88-1.76,3.17-5.46.71-2.11-3.79,5.19-5.81,7a17.72,17.72,0,0,0-5.29,7.22c-1.23,3.35-5.34,4.86-8.86,8S114.69,71.34,113.46,71a7,7,0,0,0-.87-.21c-.33-.38-.32-1,.34-1.82,1.21-1.51,8.69-9.9,11.86-13.22s1.29-2.65-.83-.53S112.7,66.77,111.41,67.6c-1,.65-1.68.78-2.11.13a7.34,7.34,0,0,0-.25-1.15c-.35-1.23,6.59-8,9.76-11.56s4.68-7.63,8-8.86a17.81,17.81,0,0,0,7.22-5.29c1.84-2,3.69-3.34,7-5.81s1.76-2.29-2.11.71-2.82-.88-1.76-3.88,1.4-6-.45-1.14S133.35,41.23,129,43.51s-6.94,4.1-10.12,8.75S110,61.08,107.32,63.77s-4.7,2.15-2-2.25,3.32-8.22,5.4-9.57,6.9-3.36,10.2-6.17,5.27-6.74,2.82-4-6.61,5.38-10.53,7.34-4.08-.95-3.22-5.23a26.1,26.1,0,0,1,6.38-12c3.3-3.8,2.59-4.41-1.2-.13s-5.75,7-6.49,12.12-2.08,13.09-7,19-5.76,5.51-4.78.86a72.62,72.62,0,0,0,1.84-15.8c-.13-5.26-1.47,4.17-2.57,9.92s-3.8,11.87-5.27,13.83-1.1-9.91-2.08-14.32-1.22-5.39-.12-8.2S91.9,42.71,91.53,36s-1.34-5.51-1.34-.12S88,47.61,86.64,48.47,84,42.83,83.7,39.9,83,31.33,81.25,28.15s.61,4.28.74,9.79,2.81,10.16,4.89,21.3a33.57,33.57,0,0,1-4.52,23.38c-2,2.94-2.82-9.67-4.9-15.42s-4-9.19-4-12.37-.12-9.91-2.08-15-3.06-4.78-.86,1.83,1.84,14.32-.73,11-6.86-7.84-10.16-8.45,3.18.25,10.52,12,9.71,27.31,6.54,32.59-4,2.38-4.49-2.38S67.41,75.3,63.45,72.92s.79,1.85,4.49,7.66S71,94.93,65.73,100.92C61.48,105.74,48.1,114.21,43,117.33a56.61,56.61,0,0,0,7.3,8.67L54.29,130a58.46,58.46,0,0,0,8.38,7.11c3.09-5,11.61-18.48,16.45-22.75,6-5.29,14.53-5.9,20.34-2.21s10,8.46,7.66,4.49-8.72-8.18-13.47-8.71-7.66-1.32-2.38-4.49,20.84-.81,32.59,6.53S136.47,123.76,135.85,120.45Z" style="fill:url(#radial-gradient-2)"/><path d="M58.15,133.56c4.45-6,9-12.22,24.19-28.06,17.89-18.63.75-4.12-5.52,2.15s-3.41,1.77,9.43-12c7.39-7.93,13-13.08,12.24-13.86-1-1-3.84,2.4-13.54,11.44-13.79,12.84-18.84,16.26-12.57,10s20.4-23,2.15-5.52c-15.43,14.83-21.68,19.48-28,24.21,1.08,1.26,2.33,2.62,3.81,4.1L54.29,130C55.67,131.33,57,132.52,58.15,133.56Z" style="fill:#bbe154"/><path d="M110.46,24c2.73-1.6,10.33-6,12-4s2.08,7-1.43,11.49S89,86.15,85.91,94.61s-7.83,5.71-11.74,3.77-11.12-4.78-9.58-8.24S90.69,35.55,110.46,24Z" style="fill:#ff9133"/><path d="M59.4,90.55s21.44-55.27,46.38-67.68c17.6-7.48,20.34-2.71,12.27,2.4s-37.8,54.13-41.53,66C73.69,100.32,59.4,90.55,59.4,90.55Z" style="fill:#ffc224"/><path d="M67.05,97.62a40.86,40.86,0,1,1,27.29-77C86.87,41.67,75.21,74.58,67.05,97.62Z" style="fill:#f82100"/><path d="M67.61,95.72a39,39,0,0,1,26-73.44C86.51,42.37,75.39,73.75,67.61,95.72Z" style="fill:#fd6f47"/><path d="M69.73,87.94A31.05,31.05,0,1,1,90.47,29.4C84.8,45.42,75.93,70.43,69.73,87.94Z" style="fill:#eb2100"/><path d="M63.3,58.19a3.58,3.58,0,1,0-1.32,7c2,.37,6.14-1.2,6.37-2.44C68.52,61.91,65.33,58.57,63.3,58.19ZM68.83,46a3.57,3.57,0,1,0-3.41,6.27c1.81,1,6.39.41,6.81-.36C72.83,50.76,70.64,47,68.83,46Zm6-9.22a3.65,3.65,0,0,0-1.24,5c1,1.79,5.22,3.71,6,3.28,1.11-.64,1.24-5,.22-6.82A3.66,3.66,0,0,0,74.8,36.75ZM63,71.45a3.58,3.58,0,1,0,2.57,6.67c1.93-.74,4.59-4.24,4.13-5.42C69.39,71.88,64.92,70.72,63,71.45Z" style="fill:#e86900"/><path d="M67.44,46.62a2.12,2.12,0,0,0-1.35-.22,1.69,1.69,0,0,0-1.37,2.24,2.05,2.05,0,0,0,1,1.18,7.76,7.76,0,0,0,3.87.14l.3-.05A7.68,7.68,0,0,0,67.44,46.62ZM62.43,59a2.16,2.16,0,0,0-.76,0,1.81,1.81,0,0,0-1.52,1.42,1.71,1.71,0,0,0,.31,1.34,2,2,0,0,0,1.3.82A3.83,3.83,0,0,0,63,62.54h0a8.76,8.76,0,0,0,2.71-1C65,60.64,63.35,59.2,62.43,59ZM75.67,37.19a1.54,1.54,0,0,0-.54.2A1.89,1.89,0,0,0,74.54,40c.46.81,2.36,1.87,3.5,2.28a7.76,7.76,0,0,0-.35-4.09A2,2,0,0,0,75.67,37.19Zm-12.59,35a2,2,0,0,0-1.13,1,1.72,1.72,0,0,0-.06,1.37,1.86,1.86,0,0,0,2.1,1.1h0a2.25,2.25,0,0,0,.4-.12,7.76,7.76,0,0,0,2.85-2.94,9.29,9.29,0,0,0-3.89-.51Z" style="fill:#ffb500"/><path d="M82.66,47.54c-1.34.79-3.33,1.89-5.63.87s-1.44,1.74-2.76,4.34a7.68,7.68,0,0,1-5.08,3.93c-1.6.46,1.12,2,1.12,5.51s-3.77,5.42-2.19,6.18a7.36,7.36,0,0,1,4.1,5.75c.18,2.93,1.69.4,2.66-2.33L82.61,50C83.26,48.16,84,46.77,82.66,47.54Z" style="fill:#ffab82"/><path d="M74.24,72.87A40.15,40.15,0,1,0,143.91,33Z" style="fill:#f82100"/><path d="M76,72a38.28,38.28,0,1,0,66.42-38.07Z" style="fill:#fd6f47"/><path d="M83.13,68.58a30.51,30.51,0,1,0,53-30.34Z" style="fill:#eb2100"/><path d="M107.71,65.49c-1.17.44-2,4.69-1.24,6.58a3.51,3.51,0,1,0,6.55-2.5C112.3,67.67,108.51,65.18,107.71,65.49Zm9.85-5.66c-.67.54-.43,5.07.84,6.64a3.51,3.51,0,1,0,5.47-4.39C122.6,60.5,118.53,59,117.56,59.83Zm11.88-9.69c-1.91-.67-6.14.23-6.55,1.41-.29.81,2.3,4.53,4.21,5.21a3.51,3.51,0,1,0,2.34-6.62ZM97.87,65.92c-1.22-.23-4.13,3-4.51,5a3.51,3.51,0,1,0,6.89,1.31C100.63,70.2,98.72,66.08,97.87,65.92Z" style="fill:#e86900"/><path d="M119.87,61.75v.3a7.66,7.66,0,0,0,.83,3.72,2,2,0,0,0,1.3.74,1.67,1.67,0,0,0,1.94-1.72,2.1,2.1,0,0,0-.46-1.26A7.59,7.59,0,0,0,119.87,61.75Zm-10.55,6.07a8.35,8.35,0,0,0-.45,2.79h0a3.7,3.7,0,0,0,.16,1.22,2,2,0,0,0,1,1.11,1.68,1.68,0,0,0,1.35.07,1.8,1.8,0,0,0,1.11-1.72,2.11,2.11,0,0,0-.14-.74C112,69.69,110.36,68.39,109.32,67.82Zm20.5-15.68a7.65,7.65,0,0,0-4,.38c.59,1,2,2.68,2.82,3a1.87,1.87,0,0,0,2.43-1,2.13,2.13,0,0,0,.1-.55A2,2,0,0,0,129.82,52.14ZM99.53,72a9.16,9.16,0,0,0-1.18-3.67A7.51,7.51,0,0,0,96,71.58a1.81,1.81,0,0,0,0,.4h0a1.83,1.83,0,0,0,1.42,1.84,1.69,1.69,0,0,0,1.32-.3,2,2,0,0,0,.8-1.28A1.31,1.31,0,0,0,99.53,72Z" style="fill:#ffb500"/><path d="M119.92,49c-.53,1.43-1.24,3.55.14,5.59s-1.42,1.7-3.7,3.44a7.49,7.49,0,0,0-2.91,5.6c-.16,1.62-2.16-.73-5.52-.11s-4.58,4.59-5.6,3.2a7.19,7.19,0,0,0-6.28-3c-2.86.33-.68-1.58,1.79-3l19.73-11.31C119.21,48.51,120.44,47.59,119.92,49Z" style="fill:#ffab82"/><path d="M82.07,101.51s40.16-26.81,58.08-26.23c8.95.29,27.83.89,26,7.16s-11.89,23.13-26.08,29.27-46.74,19.11-46.74,19.11Z" style="fill:#d6a160"/><path d="M91.75,121.83s31.19-9.37,44.85-20.08,26.74-20.29,18.94-21.91a51.81,51.81,0,0,0-30.36,3.09c-11.11,4.83-40.47,20.9-40.47,20.9Z" style="fill:#f2c988"/><path d="M44.66,100.31S58,53.9,72.07,42.78c7-5.56,21.83-17.29,24.52-11.35s5.85,25.34-1,39.18-23.36,44.78-23.36,44.78Z" style="fill:#d6a160"/><path d="M65.18,109.58s17.76-27.3,21.28-44.3,7.31-32.76.31-29a51.82,51.82,0,0,0-21.18,22c-5.37,10.87-17.42,42.09-17.42,42.09Z" style="fill:#f2c988"/><path d="M78.06,109.77a40.15,40.15,0,0,0,80.05-6.23Z" style="fill:#f82100"/><path d="M80,109.73a38.28,38.28,0,0,0,76.32-5.94Z" style="fill:#fd6f47"/><path d="M87.92,109.7A30.52,30.52,0,1,0,148.77,105Z" style="fill:#eb2100"/><path d="M111.46,117.44c-1.24-.1-3.78,3.4-3.94,5.42a3.51,3.51,0,1,0,7,.54C114.68,121.38,112.32,117.5,111.46,117.44Zm11.33-.9c-.84.2-2.56,4.39-2.09,6.37a3.51,3.51,0,1,0,6.82-1.64C127.05,119.3,124,116.25,122.79,116.54Zm14.88-3.66c-1.44-1.43-5.64-2.42-6.52-1.54-.61.61.14,5.08,1.58,6.51a3.51,3.51,0,1,0,4.94-5Zm-35.28.74c-1-.73-5,.9-6.2,2.54a3.51,3.51,0,1,0,5.66,4.14C103.05,118.66,103.08,114.12,102.39,113.62Z" style="fill:#e86900"/><path d="M124.06,119.27a1.69,1.69,0,0,0-.13.27,7.52,7.52,0,0,0-.85,3.71,2,2,0,0,0,.86,1.24,1.68,1.68,0,0,0,2.48-.73,2.05,2.05,0,0,0,.13-1.34A7.65,7.65,0,0,0,124.06,119.27Zm-12.14,1a8.34,8.34,0,0,0-1.6,2.33h0a3.63,3.63,0,0,0-.38,1.17,2.06,2.06,0,0,0,.44,1.45,1.7,1.7,0,0,0,1.19.63,1.78,1.78,0,0,0,1.74-1.07,2.08,2.08,0,0,0,.19-.73A8.15,8.15,0,0,0,111.92,120.23Zm25.23-5.39a7.66,7.66,0,0,0-3.78-1.37c.1,1.18.61,3.26,1.27,3.91a1.88,1.88,0,0,0,2.64.1,2.15,2.15,0,0,0,.33-.46A2,2,0,0,0,137.15,114.84Zm-35.86,5a9.1,9.1,0,0,0,.51-3.82,7.6,7.6,0,0,0-3.52,2,2.24,2.24,0,0,0-.21.36h0a1.85,1.85,0,0,0,.5,2.27,1.74,1.74,0,0,0,1.32.29,2,2,0,0,0,1.27-.82A1.47,1.47,0,0,0,101.29,119.79Z" style="fill:#ffb500"/><path d="M129.56,107.75c-1.09,1.06-2.63,2.67-2.26,5.11s-2,.93-4.82,1.52a7.53,7.53,0,0,0-5,3.82c-.84,1.39-1.64-1.59-4.94-2.47s-6.1,2.19-6.42.5a7.22,7.22,0,0,0-4.42-5.36c-2.73-.93.06-1.71,2.9-1.94l22.67-1.76C129.13,107,130.62,106.72,129.56,107.75Z" style="fill:#ffab82"/><path d="M79.82,55.9c2.74-1.6,10.34-6,12-4s2.08,7-1.43,11.48S58.32,118,55.28,126.49s-7.84,5.71-11.74,3.76S32.42,125.48,34,122,60.06,67.42,79.82,55.9Z" style="fill:#ff5e00"/><path d="M28.77,122.42S50.21,67.16,75.15,54.74c17.6-7.48,20.34-2.71,12.27,2.41s-37.8,54.12-41.53,66C43.05,132.19,28.77,122.42,28.77,122.42Z" style="fill:#ffa800"/><path d="M122,72.47c3.14-.43,11.83-1.61,12.65.86S134,80.61,129,83.41s-50.45,38.37-56.47,45.05-9.42,2.31-12.29-1-8.48-8.65-5.74-11.27S99.38,75.63,122,72.47Z" style="fill:#ff5e00"/><path d="M49.54,114.63s40.83-43,68.61-45c19.13-.24,19.85,5.21,10.44,6.88s-55.52,35.73-63.48,45.31C59.05,129.1,49.54,114.63,49.54,114.63Z" style="fill:#ffa800"/><path d="M130.05,104.4c3.15.37,11.86,1.44,12,4s-2.56,6.86-8.06,8.31S75.47,141.06,68,146s-9.69-.16-11.64-4.06-6-10.51-2.69-12.35S107.32,101.7,130.05,104.4Z" style="fill:#ff9133"/><path d="M49.23,126.78S99.62,95.56,127,100.66c18.56,4.63,17.87,10.09,8.35,9.31s-62.77,20.46-72.91,27.71C54.75,143.18,49.23,126.78,49.23,126.78Z" style="fill:#ffc224"/><path d="M120.12,124.36c-5.36-2.8-5.62-11.16-3.55-15s-1.84-2.7-6.75-5-2.91-8.88.27-12.52c1.52-1.73,0-6.79-8.55-15.35-7.11-7.12-13.22-9.59-14.91-8.11-3.64,3.19-10.17,5.18-12.52.27s-1.15-8.82-5-6.75S56.82,63.62,54,58.25s-15.53-4.88-13.48-2.39c1.71,2.06-1,5-6.7,6.09,0,.4,0,.8,0,1.2a83.81,83.81,0,0,0,82.31,83.78c.56-7.36,4.08-11,6.41-9.09C125,139.89,125.48,127.17,120.12,124.36Z" style="fill:url(#linear-gradient-2)"/><path d="M119.25,126a9.39,9.39,0,0,1-2.29-1.68c-4-4-4.32-11.63-2-15.9.1-.2.18-.36.23-.48-.37-.13-1-.28-1.42-.39a24.85,24.85,0,0,1-4.73-1.62,7.25,7.25,0,0,1-2-1.42c-3.52-3.52-1.9-9.89,1.71-14,.33-.51-.09-4.42-8.47-12.8-6.76-6.76-11.46-8.2-12.43-8-4.12,3.56-10.44,5.15-13.94,1.64a7.11,7.11,0,0,1-1.42-2,24.2,24.2,0,0,1-1.61-4.72c-.12-.46-.26-1-.4-1.42a3.89,3.89,0,0,0-.47.23c-4.28,2.28-11.86,2-15.9-2a9.48,9.48,0,0,1-1.69-2.3,3.39,3.39,0,0,0-.62-.83c-2.15-2.14-6.83-2.57-9-2.27a3.89,3.89,0,0,1-.21,2.89c-.84,1.84-2.93,3.32-5.8,4.25,0,.34,0,.68,0,1a79.47,79.47,0,0,0,78,79.44c.82-3.87,2.52-6.75,4.76-7.77a3.94,3.94,0,0,1,2.89-.2c.3-2.18-.12-6.87-2.27-9A3.72,3.72,0,0,0,119.25,126Z" style="fill:url(#radial-gradient-3)"/><path d="M113.09,118.44c1,4.42,3,5.35,1.16,5.82s-11.62,2.16-19.22,4.18-21.15,7.05-9.22-1.16a157.93,157.93,0,0,1,24.65-13.79C112.47,112.56,112.15,114.34,113.09,118.44Z" style="fill:#92ce19"/><path d="M104.57,99.54a8,8,0,0,0,1.31,4.72c.78.94.62,1.71-1.93,2.57s-11.47,4.8-16,6.58S75,121.31,82.4,114s19.61-15.88,21-16.5S104.57,97.83,104.57,99.54Z" style="fill:#92ce19"/><path d="M60.42,65.78c-4.41-1-5.34-3-5.81-1.16s-2.17,11.62-4.18,19.21-7,21.16,1.16,9.23A158.52,158.52,0,0,0,65.38,68.42C66.31,66.4,64.53,66.72,60.42,65.78Z" style="fill:#92ce19"/><path d="M79.33,74.3A8,8,0,0,1,74.6,73c-.93-.78-1.7-.62-2.55,1.93s-4.81,11.47-6.59,16-7.9,12.87-.54,5.5,15.88-19.6,16.5-21S81,74.3,79.33,74.3Z" style="fill:#92ce19"/><path d="M149.94,139.75c-27.64,5.18-61.22-7.35-95.36-62.89-5.21-8.46-35.93,30-43.49,58.09C3.83,161.83.1,166.83,5.78,172.5l1.14,1.14c5.67,5.68,11.68,6.22,38.56-1C73.53,165,116,152.55,150.86,141.31,161.06,138,159.7,137.91,149.94,139.75Z" style="fill:url(#linear-gradient-3)"/><path d="M78.07,109.34c-14.14-15-62.95,14.48-70,38.37-6.74,22.9-6.25,23.21-3.32,26.15l.59.59c2.93,2.93,6.16,3,23-9.78,17.63-13.31,30.76-24.12,52.85-42.1C87.71,117.32,82.79,114.36,78.07,109.34Z" style="fill:#c09556"/><path d="M80.14,108.3c-10-11-21.76-21.42-32.13-60.11C40.74,21,53.52,8.37,48.32,13S36.25,30.87,33.59,40C24.49,71,10.12,118.24,3.67,142.79c-6.18,23.52-3.32,26.9-.39,29.84l.59.58c2.93,2.94,6.43,1.68,22.76-11.7,17-14,27.69-22.29,49-41.11C81.89,114.89,83.54,112.05,80.14,108.3Z" style="fill:url(#linear-gradient-4)"/><path d="M165.22,126.17c-.36.41-.72.82-1.11,1.21-18.16,18.16-57.71,8.07-88.32-22.54S35.09,34.68,53.26,16.52c.38-.39.8-.75,1.2-1.11l-4.33-4.33c-.4.36-.81.72-1.2,1.11-20,20-9.38,62.88,23.63,95.88s75.93,43.59,95.88,23.63c.39-.38.75-.8,1.11-1.2Z" style="fill:#f9e8bf"/><path d="M28.82,83.15c2.58.82,6.48-4.21,8.71-11.23s1.95-13.38-.63-14.2S30.43,61.93,28.2,69,26.25,82.33,28.82,83.15Zm2,12c-2.68-.85-6.25,2.84-8,8.24S22,113.85,24.64,114.7s6.25-2.84,8-8.24S33.54,96,30.86,95.13Zm-9.48,40.94c-3.11-1.56-7.52.94-9.84,5.58S9.85,151.31,13,152.87s7.53-.94,9.85-5.57S24.5,137.63,21.38,136.07Zm21-12.07c4,3.2,10.54,1.73,14.49-3.27s3.87-11.65-.18-14.85-10.53-1.73-14.48,3.27S38.31,120.8,42.36,124Z" style="fill:#dec782"/><path d="M59.63,145c-5.25,2.13-8.45,6.48-7.13,9.72s6.64,4.14,11.89,2,8.45-6.49,7.13-9.73S64.89,142.85,59.63,145ZM82.4,127.9c-3.49,1.45-5.47,4.7-4.41,7.28s4.76,3.48,8.26,2,5.47-4.7,4.4-7.27S85.9,126.46,82.4,127.9ZM117,143.33c-.71-2.48-6.68-2.94-13.33-1s-11.47,5.45-10.77,7.92,6.68,2.95,13.33,1S117.66,145.81,117,143.33ZM39.22,164.67c-4.74,1.35-8.17,3.88-7.67,5.64s4.76,2.1,9.49.75,8.18-3.88,7.68-5.65S44,163.31,39.22,164.67Z" style="fill:#cfb369"/></g></g></svg>