<?xml version="1.0" encoding="utf-8"?>
<!-- Generator: Adobe Illustrator 25.0.0, SVG Export Plug-In . SVG Version: 6.00 Build 0)  -->
<svg version="1.1" id="Camada_1" xmlns="http://www.w3.org/2000/svg" xmlns:xlink="http://www.w3.org/1999/xlink" x="0px" y="0px"
	 viewBox="0 0 40.8 37" style="enable-background:new 0 0 40.8 37;" xml:space="preserve">
<g id="Camada_2_1_">
	<g id="Camada_1-2">
		<path d="M4.4,1.7c-1.3-1.3-2.4-1.2-3-1C0.6,1,0.1,1.7,0,2.6c0,1.1,0.2,2.3,0.7,3.3c3.1,6.7,7.1,12.9,11.9,18.5
			c0.4,0.4,1,0.7,1.6,0.7c0.6,0,1.2-0.2,1.6-0.6l0,0l1.1-1.1l10,11.6H27c1.5,1.5,3.9,1.5,5.4,0c0,0,0,0,0,0c1.5-1.5,1.5-3.9,0-5.4
			L4.4,1.7z"/>
		<path d="M27.6,10.4c0.2,0.2,0.5,0.4,0.9,0.4c0.3,0,0.6-0.1,0.9-0.4l5.5-5.5c0.5-0.5,0.5-1.2,0-1.7c-0.5-0.5-1.2-0.5-1.7,0
			l-5.5,5.5C27.1,9.2,27.1,10,27.6,10.4C27.6,10.4,27.6,10.4,27.6,10.4z"/>
		<path d="M30.4,13.3c0.2,0.2,0.5,0.4,0.9,0.4c0.3,0,0.6-0.1,0.8-0.4l5.5-5.5c0.5-0.5,0.5-1.2,0-1.7c-0.5-0.5-1.2-0.5-1.7,0l0,0
			l-5.5,5.5C29.9,12,29.9,12.8,30.4,13.3C30.4,13.3,30.4,13.3,30.4,13.3z"/>
		<path d="M17.2,26c-0.2-0.2-0.6-0.3-0.8-0.1c-0.6,0.4-1.4,0.7-2.1,0.7h-0.1c-1,0-1.9-0.4-2.6-1.2l-0.1-0.1c-0.2-0.2-0.6-0.3-0.9,0
			c0,0,0,0,0,0l-5.7,5.4c-1.5,1.5-1.4,3.9,0,5.3c1.5,1.5,3.9,1.4,5.3,0l0,0l7.7-8.3c0.2-0.2,0.2-0.6,0-0.8L17.2,26z"/>
		<path d="M40.6,9c-0.4-0.5-1.2-0.6-1.7-0.2c0,0-0.1,0.1-0.1,0.1l-6.9,6.9c-1.4,1.2-3.3,1.4-4.9,0.5c-1-0.6-1.8-1.4-2.4-2.4l0,0
			c-1-1.6-0.8-3.5,0.4-4.9l6.9-6.9c0.5-0.4,0.5-1.2,0.1-1.7c-0.4-0.5-1.2-0.6-1.7-0.2c0,0-0.1,0-0.1,0.1l-6.9,6.9
			c-1.8,1.9-2.3,4.7-1.2,7.1l-1.1,1c-0.2,0.2-0.3,0.6,0,0.9c0,0,0,0,0,0l3.6,3.6c0.2,0.2,0.6,0.3,0.9,0c0,0,0,0,0,0l1-1.1
			c2.4,1.1,5.2,0.6,7.1-1.2l6.9-6.9C40.9,10.2,41,9.5,40.6,9z"/>
	</g>
</g>
</svg>
