<svg xmlns="http://www.w3.org/2000/svg" viewBox="0 0 40.85 37.02"><defs><style>.cls-1{fill:#fff;}</style></defs><g id="Camada_2" data-name="Camada 2"><g id="Camada_1-2" data-name="Camada 1"><path class="cls-1" d="M4.42,1.68C3.09.36,2,.49,1.44.68A2.2,2.2,0,0,0,0,2.59,7.64,7.64,0,0,0,.74,5.91,76.7,76.7,0,0,0,12.68,24.4a2.17,2.17,0,0,0,1.57.7,2.22,2.22,0,0,0,1.59-.64h0l1.08-1.08L26.89,35,27,35a3.81,3.81,0,0,0,5.4,0,3.84,3.84,0,0,0,0-5.4Z"/><path class="cls-1" d="M27.58,10.44a1.19,1.19,0,0,0,.85.36,1.17,1.17,0,0,0,.85-.36L34.8,4.92a1.2,1.2,0,1,0-1.7-1.7L27.58,8.74A1.2,1.2,0,0,0,27.58,10.44Z"/><path class="cls-1" d="M30.42,13.28a1.2,1.2,0,0,0,.85.35,1.24,1.24,0,0,0,.85-.35l5.52-5.52a1.2,1.2,0,0,0-1.7-1.7l-5.52,5.52A1.2,1.2,0,0,0,30.42,13.28Z"/><path class="cls-1" d="M17.23,26a.62.62,0,0,0-.84-.09,3.58,3.58,0,0,1-2.11.67h-.06a3.63,3.63,0,0,1-2.6-1.16l-.11-.11a.61.61,0,0,0-.88,0l-5.7,5.39a3.75,3.75,0,1,0,5.34,5.28L18,27.71a.61.61,0,0,0,0-.83Z"/><path class="cls-1" d="M40.59,9a1.2,1.2,0,0,0-1.78-.09l-6.92,6.92A4.17,4.17,0,0,1,27,16.3a7.4,7.4,0,0,1-2.4-2.37h0A4.19,4.19,0,0,1,25,9L31.88,2.1A1.25,1.25,0,0,0,32,.44,1.2,1.2,0,0,0,30.23.35L23.31,7.27a6.45,6.45,0,0,0-1.18,7.08l-1.08,1a.61.61,0,0,0,0,.88l3.56,3.56a.62.62,0,0,0,.89,0l1-1.08a6.45,6.45,0,0,0,7.08-1.18l6.87-6.87A1.26,1.26,0,0,0,40.59,9Z"/></g></g></svg>