<svg xmlns="http://www.w3.org/2000/svg" viewBox="0 0 30.25 50.46"><defs><style>.cls-1{fill:#fff;}</style></defs><g id="Camada_2" data-name="Camada 2"><g id="Camada_1-2" data-name="Camada 1"><path class="cls-1" d="M27.25,14.75v8.06A12.13,12.13,0,0,1,3,22.81V14.75H0v8.06a15.13,15.13,0,0,0,13.12,15V42c-4.89.38-8.59,2.12-8.59,4.21,0,2.38,4.74,4.3,10.59,4.3s10.59-1.92,10.59-4.3c0-2.09-3.7-3.83-8.59-4.21V37.78a15.13,15.13,0,0,0,13.13-15V14.75Z"/><path class="cls-1" d="M15.12,30.79A8.77,8.77,0,0,0,23.89,22V8.77a8.77,8.77,0,0,0-17.54,0V22A8.77,8.77,0,0,0,15.12,30.79Z"/></g></g></svg>