<svg xmlns="http://www.w3.org/2000/svg" viewBox="0 0 34.29 53.48"><g id="Camada_2" data-name="Camada 2"><g id="Camada_1-2" data-name="Camada 1"><path d="M27.22,30A10.07,10.07,0,0,1,7.08,30V23.15h-3V30a13.07,13.07,0,0,0,11.07,12.9v3.38c-4,.37-7,1.82-7,3.56,0,2,4,3.65,9,3.65s9-1.64,9-3.65c0-1.74-3-3.19-7-3.56V42.89A13.08,13.08,0,0,0,30.22,30V23.15h-3Z"/><path d="M17.15,10.62A7.44,7.44,0,0,0,9.7,18.07V29.32a7.45,7.45,0,0,0,14.9,0V18.07A7.45,7.45,0,0,0,17.15,10.62Z"/><path d="M28.38,17.14a11.24,11.24,0,0,0-22.47,0h2a9.24,9.24,0,0,1,18.47,0Z"/><path d="M17.15,0A17.16,17.16,0,0,0,0,17.14H2a15.15,15.15,0,0,1,30.29,0h2A17.16,17.16,0,0,0,17.15,0Z"/></g></g></svg>