<svg xmlns="http://www.w3.org/2000/svg" viewBox="0 0 41.75 39.11"><defs><style>.cls-1{fill:#fff;}</style></defs><g id="Camada_2" data-name="Camada 2"><g id="Camada_1-2" data-name="Camada 1"><path class="cls-1" d="M22.92,7.85A4,4,0,1,0,20.11,3,4,4,0,0,0,22.92,7.85Zm-17,11.94a3,3,0,1,0-3.68,2.1A3,3,0,0,0,5.89,19.79Zm35.48-6C39.88,11.28,35,12.07,29.81,14A13.5,13.5,0,0,0,9.44,25.41C6.22,28,3.78,30.63,3.21,32.73a3.07,3.07,0,0,0,.24,2.46c.66,1.14,2,1.62,3.78,1.62,5,0,13.21-3.78,18.41-6.7,7.17-4,14.89-9.86,16-13.82A3.15,3.15,0,0,0,41.37,13.83ZM6.06,33.67c0-.73,1.27-2.46,3.81-4.71a13.42,13.42,0,0,0,1.34,3.34c.14.24.29.47.45.7C8.64,33.89,6.65,34,6.06,33.67ZM19,18.69a8,8,0,0,0-4,6.37,1.25,1.25,0,0,1-1.24,1.17h-.09a1.24,1.24,0,0,1-1.16-1.32,10.42,10.42,0,0,1,5.23-8.37A1.25,1.25,0,1,1,19,18.69Zm16.18,1.16c-.15-.32-.31-.65-.5-1a13.88,13.88,0,0,0-2-2.71c3.31-1,5.5-1.21,6.13-.82C38.76,16.05,37.57,17.7,35.18,19.85ZM16.85,37.65A13.51,13.51,0,0,0,36.43,26.47a73.51,73.51,0,0,1-9.34,6.27A73.07,73.07,0,0,1,16.85,37.65Z"/></g></g></svg>