<svg xmlns="http://www.w3.org/2000/svg" viewBox="0 0 62.25 64.88"><defs><style>.cls-1{isolation:isolate;}.cls-2{fill:#94c742;}.cls-3{fill:#a7d85d;}.cls-4{opacity:0.35;}.cls-5,.cls-6{fill:#fff;}.cls-6{opacity:0.2;mix-blend-mode:screen;}</style></defs><g class="cls-1"><g id="Camada_2" data-name="Camada 2"><g id="_ÎÓÈ_1" data-name="—ÎÓÈ_1"><path class="cls-2" d="M6.56,26.31S4.85,14.06,9.66,10.49c3.87-2.88,8.22-1.62,10.39-2.44S23.93,1,29.66.14c6.2-1,9.78,3.53,11.64,3.53s5.6-1,7.76.15c4.81,2.48,6.06,8.53,6.13,12.72S6.56,26.31,6.56,26.31Z"/><path class="cls-3" d="M62.25,38.93c0,16.34-13.26,25.68-29.6,25.68S3.05,55.27,3.05,38.93a29.6,29.6,0,0,1,59.2,0Z"/><path class="cls-2" d="M32.68,64.26a.77.77,0,0,1-1.52-.05c-.58-4.43-1.46-18.78,10-26.44C54.8,28.64,52,10.18,58.21,10.49c3.33.31-1.79,9.46,0,13.06.61,1.24.93,7.42-2.17,9.28S50.61,35.37,49.68,37s-.47,7.18-4.81,9.74c-3.48,2-9.51,4.4-10.24,6.28C32.05,59.68,33,62.73,32.68,64.26Z"/><g class="cls-4"><path class="cls-5" d="M19.53,50.87c.14-.85.31-1.62.5-2.43s.38-1.58.6-2.36c.43-1.57.93-3.12,1.48-4.64s1.18-3,1.87-4.5a43.14,43.14,0,0,1,2.29-4.3,35.75,35.75,0,0,1,2.79-4,31.12,31.12,0,0,1,3.34-3.55,26.14,26.14,0,0,1,3.94-2.85,23,23,0,0,1,4.44-1.94.2.2,0,0,1,.26.13.2.2,0,0,1-.12.26h0a22.88,22.88,0,0,0-4.23,2.11A26,26,0,0,0,33,25.75,31.6,31.6,0,0,0,30,29.33a38.19,38.19,0,0,0-2.49,4,44.63,44.63,0,0,0-2,4.26q-.88,2.19-1.58,4.44c-.47,1.51-.87,3-1.21,4.56-.17.77-.33,1.54-.47,2.31s-.26,1.55-.35,2.28v0a1.18,1.18,0,1,1-2.34-.27S19.53,50.89,19.53,50.87Z"/><path class="cls-5" d="M25.39,34.78a6.1,6.1,0,0,1,.53-.38l.5-.33.5-.29.51-.28c.34-.18.69-.34,1-.51s.69-.32,1-.46l1.06-.42,1.07-.39c.72-.23,1.44-.47,2.17-.66,1.44-.43,2.91-.75,4.38-1l2.21-.4,2.21-.33a.28.28,0,0,1,.32.24.27.27,0,0,1-.22.31h0l-2.17.46-2.16.53c-1.42.39-2.84.8-4.23,1.3-.69.23-1.37.51-2,.78l-1,.44c-.33.14-.66.31-1,.46s-.64.34-1,.5-.64.35-.94.54l-.46.28-.43.3a4.56,4.56,0,0,0-.42.31,4.37,4.37,0,0,0-.36.3h0a.85.85,0,0,1-1.19,0,.84.84,0,0,1,0-1.19Z"/><path class="cls-5" d="M24.76,21.36c.43,1,.82,2,1.19,3s.7,2,1,3.06a25.26,25.26,0,0,1,.68,3.18,10.6,10.6,0,0,1,0,3.42A.84.84,0,0,1,26,33.67a.24.24,0,0,1,0-.08h0a9.35,9.35,0,0,0,.24-2.89,23,23,0,0,0-.38-3.06c-.19-1-.43-2-.7-3.06s-.57-2-.91-3h0a.28.28,0,0,1,.17-.36A.29.29,0,0,1,24.76,21.36Z"/><path class="cls-5" d="M18.54,27.5c.74,1.4,1.4,2.82,2,4.28s1.17,2.93,1.64,4.45a30.48,30.48,0,0,1,1.09,4.67,16.37,16.37,0,0,1,.2,2.43,12.49,12.49,0,0,1-.18,2.5.85.85,0,0,1-1,.68.84.84,0,0,1-.67-1,.11.11,0,0,1,0-.05h0A11.93,11.93,0,0,0,22,43.31a17,17,0,0,0-.06-2.25,28.44,28.44,0,0,0-.78-4.53c-.37-1.5-.82-3-1.34-4.45S18.69,29.16,18,27.75h0a.27.27,0,0,1,.13-.37A.29.29,0,0,1,18.54,27.5Z"/><path class="cls-5" d="M21.57,46.5c.23-.22.44-.4.66-.58s.44-.36.67-.53c.45-.35.91-.67,1.38-1a23.65,23.65,0,0,1,2.95-1.65,18.69,18.69,0,0,1,3.16-1.16l.82-.2.83-.14.42-.06.41,0,.84-.06a.27.27,0,0,1,.3.25.28.28,0,0,1-.23.3h0l-.79.13-.4.07-.39.1c-.26.07-.52.12-.77.2l-.76.25a18.19,18.19,0,0,0-2.9,1.35,22.38,22.38,0,0,0-2.65,1.79c-.41.33-.82.67-1.21,1l-.58.54-.53.55h0a.84.84,0,0,1-1.19.06.83.83,0,0,1-.05-1.18Z"/></g><path class="cls-2" d="M32,59.66s-7.92-9.56-17.1-14.45A11,11,0,0,1,9.11,36c-.21-5.72.41-10.83-2.29-11.49C3,23.52,0,26.77,0,32.82c0,5,3.44,4.88,3.05,8.69s0,9.62,2.89,11.64c7.33,5.13,11.14,1.83,16.9,2.94,5,1,8.28,6.25,9,5.95S32,59.66,32,59.66Z"/><path class="cls-6" d="M13.86,23.25c2.26,3.06,12.5-3.92,9.64-7.37C20.81,12.63,11.38,19.87,13.86,23.25Z"/></g></g></g></svg>