<svg xmlns="http://www.w3.org/2000/svg" viewBox="0 0 69.23 68.53"><defs><style>.cls-1{isolation:isolate;}.cls-2{fill:#89c14d;}.cls-3{fill:#81b242;}.cls-4{fill:#699327;}.cls-5{fill:#6ea02d;}.cls-6{fill:#fff;opacity:0.2;mix-blend-mode:screen;}</style></defs><g class="cls-1"><g id="Camada_2" data-name="Camada 2"><g id="_ÎÓÈ_1" data-name="—ÎÓÈ_1"><path class="cls-2" d="M50.1,33.76a2.56,2.56,0,0,1-1.29.88l-.28.3C41.08,42.66,41.36,53.17,41.67,60a0,0,0,0,1,0,0c.08,1.74.16,3.24.12,4.4a4.37,4.37,0,0,1-.44,2c-1.22,1.82-7.29,2.19-12.08,2l-.69,0a22.2,22.2,0,0,1-5.28-.65c-1.48-.74,1.64-17.69.21-21.62A39.29,39.29,0,0,0,11.72,29.48L7.79,25.8l3.93-2s12.84,9.8,16,18.15c-.24-3.19.43-18.15.43-18.15H40.86S38.65,30.68,38.4,42c.7-2.49,3.19-7.08,5.16-8.71,1-.81,1.84-1.42,2.34-1.77l.46-.3S50.9,32.38,50.1,33.76Z"/><path class="cls-3" d="M50.1,33.76a2.56,2.56,0,0,1-1.29.88l-.28.3c-6,6.3-6.93,16.6-6.86,25.05a0,0,0,0,1,0,0c0,1.54.06,3,.12,4.4a4.37,4.37,0,0,1-.44,2c-1.22,1.82-7.29,2.19-12.08,2l-.69,0c12.56-15,13.78-27.87,15-35.19.29-1.77.44-2.79.44-2.79l1.9,1Z"/><path class="cls-4" d="M27,23.52a5.65,5.65,0,0,1-5.21,9.1A11.3,11.3,0,1,1,6.48,18.28a6.4,6.4,0,0,1,6.3-7.47,6.27,6.27,0,0,1,2.3.43l0,0a6.4,6.4,0,0,1,3.26,2.87A6.38,6.38,0,0,1,24.91,13,6.39,6.39,0,0,1,27,23.52Z"/><path class="cls-5" d="M23.76,20.66a5.66,5.66,0,0,1-5.21,9.11A11.3,11.3,0,0,1,2.38,35.44a11.3,11.3,0,0,1,4.1-17.16,6.4,6.4,0,0,1,6.3-7.47,6.27,6.27,0,0,1,2.3.43l0,0h0a6.4,6.4,0,0,1,3.26,2.87A6.38,6.38,0,0,1,24.91,13a6.28,6.28,0,0,1,.81,3.1A6.39,6.39,0,0,1,23.76,20.66Z"/><path class="cls-4" d="M53.41,18.18a6.16,6.16,0,0,1-6.16,6.16H47a12,12,0,0,1-24-1.74,10.84,10.84,0,0,1,.1-1.51A9.09,9.09,0,1,1,34,6.55,9.09,9.09,0,0,1,51.84,9.09a9,9,0,0,1-1,4.1A6.15,6.15,0,0,1,53.29,17,5.93,5.93,0,0,1,53.41,18.18Z"/><path class="cls-5" d="M53.29,17a6.13,6.13,0,0,1-4.72,2.21h-.22a12,12,0,0,1-24-1.74,12.49,12.49,0,0,1,.1-1.51,9.08,9.08,0,0,1-4.06-7.17A9.08,9.08,0,0,1,34,6.55,9.09,9.09,0,0,1,51.84,9.09a9,9,0,0,1-1,4.1A6.15,6.15,0,0,1,53.29,17Z"/><path class="cls-4" d="M69.23,24.83a9.41,9.41,0,0,1-.88,4,9.5,9.5,0,0,1-5.69,5,7.92,7.92,0,1,1-14.87,3.8v-.1a10.17,10.17,0,1,1,5.55-19.36,9.36,9.36,0,0,1,15.89,6.72Z"/><path class="cls-5" d="M69.23,24.83a9.41,9.41,0,0,1-.88,4l-2,2.76a9.23,9.23,0,0,1-3.71,2.22,7.89,7.89,0,0,1,.39,6.8,7.93,7.93,0,0,1-12.17-6.69v-.1a10.17,10.17,0,0,1-7.69-14.55,10.15,10.15,0,0,1,10.15-1.12,9.36,9.36,0,0,1,15.89,6.72Z"/><path class="cls-6" d="M27.52,61.94c3.52,0,4.15-13.19,1.06-13.19C25.72,48.75,24.62,61.94,27.52,61.94Z"/></g></g></g></svg>