<svg viewBox="0 0 50.8 86.03" xmlns="http://www.w3.org/2000/svg"><path d="m30.82 41.8-2.46.41.14-.68.78-4s4.54-25.83 6.37-30.85c.2-.57.37-.87.5-.83 3.54.87-5.33 35.95-5.33 35.95z" fill="#81b242"/><path d="m29.6 41.35-1.1.18.78-4s4.54-25.83 6.37-30.85c1.08 6.46-6.05 34.67-6.05 34.67z" fill="#89c14d"/><path d="m32.43 43.71-.76-.62-1.46-1.19s11.67-37.59 15.88-41.56c.3-.28.56-.39.78-.31 1.6.59-14.44 43.68-14.44 43.68z" fill="#81b242"/><path d="m31.67 43.09-1.46-1.19s11.67-37.59 15.88-41.56c-.49 5.12-13.09 39.2-14.42 42.75z" fill="#89c14d"/><path d="m34.37 43.43-.74-.76-1-1s13-29.14 17.2-33.46a1.72 1.72 0 0 1 .73-.53c2.54 2.46-16.19 35.75-16.19 35.75z" fill="#81b242"/><path d="m33.68 42.54-1-1s13.02-29.17 17.21-33.54c-.1 5.5-14.24 31-16.21 34.54z" fill="#89c14d"/><g fill="#5b3e1d"><path d="m14.09 84.39a1.57 1.57 0 0 1 .05-.77 1.43 1.43 0 0 1 .82-.87 1.58 1.58 0 0 1 .76-.1 1.7 1.7 0 0 1 -.05.77 1.31 1.31 0 0 1 -.32.52 1.41 1.41 0 0 1 -.5.35 1.73 1.73 0 0 1 -.76.1z"/><path d="m17.35 83.15a1.54 1.54 0 0 1 .19.75 1.45 1.45 0 0 1 -.12.59 1.25 1.25 0 0 1 -.37.49 1.54 1.54 0 0 1 -.69.34 1.65 1.65 0 0 1 -.2-.74 1.47 1.47 0 0 1 .13-.6 1.41 1.41 0 0 1 .37-.49 1.65 1.65 0 0 1 .69-.34z"/><path d="m18.66 83.66a1.69 1.69 0 0 1 .4.66 1.56 1.56 0 0 1 .06.6 1.63 1.63 0 0 1 -.21.58 1.69 1.69 0 0 1 -.56.53 1.61 1.61 0 0 1 -.41-.66 1.42 1.42 0 0 1 -.05-.61 1.33 1.33 0 0 1 .21-.57 1.69 1.69 0 0 1 .56-.53z"/></g><path d="m43.85 74.45c-5.66 10.44-18.85 12.33-27.59 9.12a18.82 18.82 0 0 1 -2.79-1.3c-7.95-4.45-15.89-15.12-12.78-23.55 4.41-11.91 14.31-13.35 19.79-14.8s6.13-8.12 7.92-7.63c1.34.37 1.32 4.94 1.32 4.94s2.56-3.69 3.67-3.12.24 4.56.24 4.56.5-.54 1.15-1.14c1-.9 2.26-1.92 2.8-1.53.91.67-1.63 5.34.61 8.63s11.32 15.37 5.66 25.82z" fill="#edb05f"/><path d="m7.12 69.73c5.88.97 6.52-10.64 1.5-11.73-4.7-.95-6.22 11-1.5 11.73z" fill="#fff" opacity=".2"/><path d="m43.85 74.45c-5.66 10.44-18.85 12.33-27.59 9.12a18.82 18.82 0 0 1 -2.79-1.3c7 .77 16.67-.88 21.73-8.32 6.83-10 1.4-21.26-.23-24.16-1-1.71-.63-5.46-.19-8.26 1-.9 2.26-1.92 2.8-1.53.91.67-1.63 5.34.61 8.63s11.32 15.37 5.66 25.82z" fill="#e2a050" opacity=".65"/></svg>