<svg xmlns="http://www.w3.org/2000/svg" viewBox="0 0 41.97 68.8"><defs><style>.cls-1{isolation:isolate;}.cls-2{fill:#ffeb73;}.cls-3{fill:#ffbe29;}.cls-4{fill:#81b242;}.cls-5{fill:#89c14d;}.cls-6{fill:#ffcd0b;opacity:0.43;}.cls-7{fill:#fff;opacity:0.25;mix-blend-mode:screen;}</style></defs><g class="cls-1"><g id="Camada_2" data-name="Camada 2"><g id="_ÎÓÈ_1" data-name="—ÎÓÈ_1"><path class="cls-2" d="M34.53,31.77C41.82,47,42,57.39,36.31,62.53a12.19,12.19,0,0,1-2.89,1.91c-8.54,4.1-16.81,0-25.17-17.4a89.53,89.53,0,0,1-6.6-20.2c0-.18-.07-.36-.1-.54Q1,23.42.62,20.67c0-.18-.05-.36-.08-.53C.27,18,.1,15.86,0,13.9c0-.17,0-.35,0-.53A37.27,37.27,0,0,1,.33,7.08.19.19,0,0,1,.34,7l.07-.45C.85,3.93,1.66,2,2.87,1A2.79,2.79,0,0,1,3.33.62L3.59.48,3.85.36A5,5,0,0,1,5.06.05a4.46,4.46,0,0,1,.63,0h0a10.8,10.8,0,0,1,5.56,1.87L11.5,2h0a31.13,31.13,0,0,1,4.55,3.55l.4.36A62.22,62.22,0,0,1,20.8,10.5l.36.44c1.36,1.6,2.71,3.32,4,5.14l.35.48q1.45,2,2.84,4.2h0c.11.17.22.35.34.52A103.62,103.62,0,0,1,34.53,31.77Z"/><path class="cls-3" d="M6.59,5.73A11.54,11.54,0,0,1,.32,7.08l.09-.53c.05,0,5,.7,10.91-4.73l.36.39A21.11,21.11,0,0,1,6.59,5.73Z"/><path class="cls-3" d="M16.46,5.93A15.54,15.54,0,0,1,12.71,9.6l-.44.29a18.44,18.44,0,0,1-2.4,1.36A26.45,26.45,0,0,1,5.2,13l-.52.13A33.83,33.83,0,0,1,0,13.9c0-.17,0-.35,0-.53a34,34,0,0,0,4.59-.81l.51-.13a23.62,23.62,0,0,0,6.87-3l.44-.3a14.94,14.94,0,0,0,3.64-3.59Z"/><path class="cls-3" d="M21.16,10.94a16.24,16.24,0,0,1-4.43,5l-.43.31a19.25,19.25,0,0,1-3,1.73A27,27,0,0,1,6.63,20.1l-.52.1a31.82,31.82,0,0,1-5.5.47c0-.18,0-.36-.07-.53A31.64,31.64,0,0,0,6,19.68l.52-.09A24.08,24.08,0,0,0,16,15.78l.42-.31a15.85,15.85,0,0,0,4.35-5Z"/><path class="cls-3" d="M25.53,16.56a18.67,18.67,0,0,1-5.18,5.9l-.43.31A19.72,19.72,0,0,1,17,24.49a24.88,24.88,0,0,1-6.19,2c-.77.14-1.53.25-2.26.33L8,26.86a32.9,32.9,0,0,1-6.34,0c0-.18-.07-.36-.1-.54a33.79,33.79,0,0,0,6.27.05l.54-.06c.76-.07,1.55-.19,2.35-.34a22.46,22.46,0,0,0,9-3.66L20.1,22a18.19,18.19,0,0,0,5.08-5.9Z"/><path class="cls-3" d="M19.67,30.11a24.82,24.82,0,0,1-6.18,2,32.69,32.69,0,0,1-10.11.24l.09-.53a31.6,31.6,0,0,0,9.94-.24c4.89-.91,11.46-3.53,15-10.82l.48.23A19.1,19.1,0,0,1,19.67,30.11Z"/><path class="cls-3" d="M22.65,36.31a24.77,24.77,0,0,1-6.18,2,32.31,32.31,0,0,1-10.11.24L6.45,38a31.93,31.93,0,0,0,9.94-.24c4.89-.92,11.46-3.54,15-10.82l.48.23A19.18,19.18,0,0,1,22.65,36.31Z"/><path class="cls-3" d="M25,41.25a24.77,24.77,0,0,1-6.18,2,32.33,32.33,0,0,1-10.11.24L8.82,43a31.59,31.59,0,0,0,9.94-.24c4.89-.92,11.46-3.54,15-10.82l.48.23A19.14,19.14,0,0,1,25,41.25Z"/><path class="cls-3" d="M3.33.62c.06,1.15.17,3.09.43,5.58,0,.18,0,.36.06.56.19,1.72.44,3.69.78,5.8,0,.17.05.35.08.52.35,2.09.78,4.31,1.31,6.6l.12.52c.48,2,1,4.08,1.71,6.15.06.17.11.34.17.51.57,1.73,1.2,3.46,1.92,5.15.07.17.14.35.22.52A51.92,51.92,0,0,0,13,38.2c.1.17.2.34.31.51.59,1,1.22,1.92,1.89,2.83l.43-.31c-.61-.83-1.19-1.69-1.73-2.57-.11-.17-.21-.34-.31-.51a48.75,48.75,0,0,1-2.9-5.67L10.46,32c-.72-1.7-1.36-3.43-1.93-5.16-.06-.17-.12-.34-.17-.52-.67-2.07-1.24-4.15-1.73-6.19l-.12-.51C6,17.28,5.54,15.05,5.2,13l-.09-.52c-.34-2.13-.59-4.09-.77-5.82,0-.19,0-.37-.06-.56C4,3.45,3.9,1.45,3.85.36Z"/><path class="cls-3" d="M5.06.05c.39.48,1.62,2.07,3.33,4.43L8.72,5C9.78,6.42,11,8.16,12.29,10.12c.11.15.21.3.31.46,1.28,1.93,2.62,4,4,6.28.09.16.19.32.28.49,1.22,2.06,2.43,4.23,3.57,6.45l.26.51c.92,1.81,1.78,3.65,2.57,5.5.08.18.15.35.22.53a62.43,62.43,0,0,1,2.33,6.48c.06.18.11.37.16.57.32,1.11.58,2.21.8,3.3l.52-.09c-.23-1.16-.51-2.34-.85-3.53-.06-.19-.11-.38-.17-.57A62.64,62.64,0,0,0,23.89,30c-.07-.18-.15-.36-.23-.54C22.88,27.64,22,25.8,21.09,24c-.09-.17-.18-.34-.26-.51-1.14-2.22-2.35-4.38-3.57-6.45L17,16.54c-1.33-2.23-2.66-4.34-3.93-6.26l-.31-.47c-1.29-1.94-2.51-3.68-3.56-5.16l-.34-.46C7.38,2.17,6.26.71,5.71,0Z"/><path class="cls-4" d="M38.28,65.06c-.74,1.23-7,4.22-7.67,3.68a2.29,2.29,0,0,1-.27-.31,17.44,17.44,0,0,1-1.45-3.29l7.3-3.51S39,63.82,38.28,65.06Z"/><path class="cls-5" d="M37,64.81c-.58,1-4.65,3.08-6.64,3.62a17.44,17.44,0,0,1-1.45-3.29L35.54,62C36.32,62.68,37.48,64,37,64.81Z"/><path class="cls-6" d="M34.53,31.77C41.82,47,42,57.39,36.31,62.53c0-.3-.08-.59-.12-.9C30.7,20,8.86,4.47,2.87,1A2.79,2.79,0,0,1,3.33.62L3.59.48,3.85.36A5,5,0,0,1,5.06.05a4.46,4.46,0,0,1,.63,0h0a10.8,10.8,0,0,1,5.56,1.87L11.5,2h0a31.13,31.13,0,0,1,4.55,3.55l.4.36A62.22,62.22,0,0,1,20.8,10.5l.36.44c1.36,1.6,2.71,3.32,4,5.14l.35.48q1.45,2,2.84,4.2h0c.11.17.22.35.34.52A103.62,103.62,0,0,1,34.53,31.77Z"/><path class="cls-4" d="M34,64.17a10.48,10.48,0,0,1-2.07.36c-11.76.74-7.33-25.24-2.08-38,.41-1,.83-1.93,1.24-2.75C47,49,43.19,61.61,34,64.17Z"/><path class="cls-5" d="M31.91,64.53c-11.76.74-7.33-25.24-2.08-38C43.89,49.79,40.45,61.72,31.91,64.53Z"/><path class="cls-4" d="M31.27,65.56a4.81,4.81,0,0,1-1,.32c-17.3,4.83-25.63-23-28.3-29.74a7.4,7.4,0,0,0-.63-1.35C24.08,37.21,38.31,61.83,31.27,65.56Z"/><path class="cls-5" d="M30.23,65.88C12.93,70.71,5.11,44.25,2.44,37.48,22.37,41.27,36.53,60.85,30.23,65.88Z"/><path class="cls-7" d="M5.83,16.33C9,15.51,9.31,3.89,4.86,4.66-.35,5.57,2.21,17.26,5.83,16.33Z"/></g></g></g></svg>