<svg xmlns="http://www.w3.org/2000/svg" viewBox="0 0 579.35 484.73"><defs><style>.cls-1{isolation:isolate;}.cls-2{fill:#89c14d;}.cls-20,.cls-3{fill:#6ea02d;}.cls-3{opacity:0.69;}.cls-4{fill:#f94a38;}.cls-5{fill:#dd352c;}.cls-14,.cls-18,.cls-6{fill:#fff;}.cls-6{opacity:0.2;}.cls-14,.cls-6{mix-blend-mode:screen;}.cls-7{fill:#81b242;}.cls-8{fill:#5b3e1d;}.cls-9{fill:#edb05f;}.cls-10{fill:#e2a050;opacity:0.65;}.cls-11{fill:#ffeb73;}.cls-12{fill:#ffbe29;}.cls-13{fill:#ffcd0b;opacity:0.43;}.cls-14{opacity:0.25;}.cls-15{fill:#94c742;}.cls-16{fill:#a7d85d;}.cls-17{opacity:0.35;}.cls-19{fill:#699327;}</style></defs><g class="cls-1"><g id="Camada_2" data-name="Camada 2"><g id="_ÎÓÈ_1" data-name="—ÎÓÈ_1"><path class="cls-2" d="M135.87,259.21l3,18.08-1-.51-.47-.23-.45-1.11c-1.31-3.31-5-13-4.09-15.21a.8.8,0,0,1,.08-.16.6.6,0,0,1,.36-.27l1.33-.31Z"/><path class="cls-3" d="M135.87,259.21l3,18.08-1-.51-.47-.23-.45-1.11c-1.31-3.31-5-13-4.09-15.21a.8.8,0,0,1,.08-.16.6.6,0,0,1,.36-.27l1.33-.31Z"/><path class="cls-2" d="M134.64,259.49l3.24,17.29-.47-.23-.45-1.11c-1.31-3.31-5-13-4.09-15.21a.8.8,0,0,1,.08-.16.6.6,0,0,1,.36-.27Z"/><path class="cls-4" d="M182.75,287.4c7.79,17.54-.58,38.29-18.7,46.34a36.59,36.59,0,0,1-19.6,2.88h0a34.46,34.46,0,0,1-27.31-20.08c-7.79-17.55,1.86-35.41,20-43.46a44.62,44.62,0,0,1,8.27-2.76C160.92,266.78,176.14,272.51,182.75,287.4Z"/><path class="cls-5" d="M182.75,287.4c7.79,17.54-.58,38.29-18.7,46.34a36.59,36.59,0,0,1-19.6,2.88c10.8-2.45,28.71-9.26,31.79-27.73,3.58-21.55-21.1-34.38-30.85-38.57C160.92,266.78,176.14,272.51,182.75,287.4Z"/><path class="cls-2" d="M161.14,270c.89,2.17-13.91,5.3-13.91,5.3s12.42,3.6,11.42,5.16-13.22.29-13.22.29,5.9,10.75,5,12-11.11-9.15-11.11-9.15-7.13,12.18-8.62,12,1.52-14.33,1.52-14.33-13.83,7.27-14.54,5.61c-.39-.9,1.48-2.79,4.15-4.92a165.18,165.18,0,0,1,13.76-9.37,37.41,37.41,0,0,1,4.15-1.43C149,268.44,160.37,268.11,161.14,270Z"/><path class="cls-3" d="M161.14,270c.89,2.17-13.91,5.3-13.91,5.3s12.42,3.6,11.42,5.16-13.22.29-13.22.29,5.9,10.75,5,12-11.11-9.15-11.11-9.15-7.13,12.18-8.62,12,1.52-14.33,1.52-14.33-13.83,7.27-14.54,5.61c-.39-.9,1.48-2.79,4.15-4.92a165.18,165.18,0,0,1,13.76-9.37,37.41,37.41,0,0,1,4.15-1.43,61.65,61.65,0,0,1,13.7-2.27C157.65,268.65,160.75,269,161.14,270Z"/><path class="cls-2" d="M157.42,270.48c.67,1.51-12.4,4.74-12.4,4.74s11,3.16,10.53,4.68c-.63,1.9-12.54-.49-12.54-.49s6.54,9.11,4.72,9.91c-1.18.53-8.82-6.87-8.82-6.87s-5.1,9.85-6.54,9.64c-1.93-.26,1.65-12.62,1.65-12.62s-12.43,6.19-13.41,5.17c-.28-.29.25-1.34,1.26-2.72a165.18,165.18,0,0,1,13.76-9.37,37.41,37.41,0,0,1,4.15-1.43,61.65,61.65,0,0,1,13.7-2.27C155.5,269,157,269.48,157.42,270.48Z"/><path class="cls-6" d="M130.1,321.86c9.35-4,1.34-22.42-6.84-19.31C115.59,305.48,122.6,325.1,130.1,321.86Z"/><path class="cls-2" d="M356.39,133.29l-1.65,12.88-.6-.56-.27-.25s0-.32-.07-.85c-.21-2.51-.71-9.84.35-11.14l.08-.09a.41.41,0,0,1,.31-.11l1,.06Z"/><path class="cls-3" d="M356.39,133.29l-1.65,12.88-.6-.56-.27-.25s0-.32-.07-.85c-.21-2.51-.71-9.84.35-11.14l.08-.09a.41.41,0,0,1,.31-.11l1,.06Z"/><path class="cls-2" d="M355.5,133.23l-1.36,12.38-.27-.25s0-.32-.07-.85c-.21-2.51-.71-9.84.35-11.14l.08-.09a.41.41,0,0,1,.31-.11Z"/><path class="cls-4" d="M382.36,162c1.67,13.48-8.26,25.82-22.19,27.55a25.89,25.89,0,0,1-13.88-2.08h0a24.43,24.43,0,0,1-14.38-19.22c-1.67-13.49,8.54-23.61,22.48-25.34a31.27,31.27,0,0,1,6.17-.17C371.81,143.57,380.94,150.58,382.36,162Z"/><path class="cls-5" d="M382.36,162c1.67,13.48-8.26,25.82-22.19,27.55a25.89,25.89,0,0,1-13.88-2.08c7.82.56,21.36-.37,27.24-12.26,6.86-13.86-7.22-27.63-13-32.47C371.81,143.57,380.94,150.58,382.36,162Z"/><path class="cls-2" d="M371.3,145.79c.15,1.66-10.51.73-10.51.73s7.67,5,6.67,5.85-9-2.52-9-2.52,1.79,8.5.95,9.15-5.64-8.48-5.64-8.48-7.33,6.78-8.3,6.35,4-9.4,4-9.4-10.87,2.09-11,.82c-.08-.69,1.58-1.59,3.83-2.48a116.78,116.78,0,0,1,11.25-3.53c1-.09,2-.13,3.1-.12C363.4,142.25,371.17,144.36,371.3,145.79Z"/><path class="cls-3" d="M371.3,145.79c.15,1.66-10.51.73-10.51.73s7.67,5,6.67,5.85-9-2.52-9-2.52,1.79,8.5.95,9.15-5.64-8.48-5.64-8.48-7.33,6.78-8.3,6.35,4-9.4,4-9.4-10.87,2.09-11,.82c-.08-.69,1.58-1.59,3.83-2.48a116.78,116.78,0,0,1,11.25-3.53c1-.09,2-.13,3.1-.12a44.3,44.3,0,0,1,9.75,1.29C369.21,144.17,371.23,145.07,371.3,145.79Z"/><path class="cls-2" d="M368.68,145.36c.14,1.16-9.38.66-9.38.66s6.83,4.41,6.17,5.34c-.81,1.16-8.39-2.91-8.39-2.91s2.56,7.51,1.16,7.69c-.91.11-4.57-6.48-4.57-6.48s-5.47,5.63-6.41,5.2c-1.25-.58,3.71-8.22,3.71-8.22s-9.69,1.64-10.14.75c-.13-.26.44-.86,1.41-1.58a116.78,116.78,0,0,1,11.25-3.53c1-.09,2-.13,3.1-.12a44.3,44.3,0,0,1,9.75,1.29C367.68,144,368.59,144.59,368.68,145.36Z"/><path class="cls-6" d="M339.6,174.56c7.17-.81,5.52-14.92-.66-14.49C333.14,160.47,333.86,175.21,339.6,174.56Z"/><path class="cls-2" d="M67,133.79l-9.37,12-.27-.92-.12-.42s.15-.34.43-.9c1.29-2.66,5.17-10.37,7-11l.14,0a.49.49,0,0,1,.37.08l.93.64Z"/><path class="cls-3" d="M67,133.79l-9.37,12-.27-.92-.12-.42s.15-.34.43-.9c1.29-2.66,5.17-10.37,7-11l.14,0a.49.49,0,0,1,.37.08l.93.64Z"/><path class="cls-2" d="M66.09,133.2l-8.77,11.69-.12-.42s.15-.34.43-.9c1.29-2.66,5.17-10.37,7-11l.14,0a.49.49,0,0,1,.37.08Z"/><path class="cls-4" d="M76,178.35C69.65,193,52.23,199.5,37.13,192.92a30.31,30.31,0,0,1-12.78-10.39h0a28.64,28.64,0,0,1-3-28c6.37-14.63,22.74-18.75,37.85-12.17a37.26,37.26,0,0,1,6.34,3.51C76.39,153.39,81.43,165.93,76,178.35Z"/><path class="cls-5" d="M76,178.35C69.65,193,52.23,199.5,37.13,192.92a30.31,30.31,0,0,1-12.78-10.39c7.57,5.25,21.8,12.39,34.84,3.9,15.22-9.91,9.22-32.24,6.31-40.57C76.39,153.39,81.43,165.93,76,178.35Z"/><path class="cls-2" d="M74.55,155.33c-.84,1.76-11.06-5.55-11.06-5.55s4.77,9.63,3.25,9.9-7.6-7.94-7.6-7.94-3.28,9.66-4.52,9.82S54,149.61,54,149.61s-11.46,2.48-12.19,1.46S51.44,144,51.44,144s-12.23-4.39-11.61-5.76c.33-.74,2.55-.66,5.35-.22a138.16,138.16,0,0,1,13.47,3.17,32.58,32.58,0,0,1,3.21,1.73C68.68,147,75.27,153.8,74.55,155.33Z"/><path class="cls-3" d="M74.55,155.33c-.84,1.76-11.06-5.55-11.06-5.55s4.77,9.63,3.25,9.9-7.6-7.94-7.6-7.94-3.28,9.66-4.52,9.82S54,149.61,54,149.61s-11.46,2.48-12.19,1.46S51.44,144,51.44,144s-12.23-4.39-11.61-5.76c.33-.74,2.55-.66,5.35-.22a138.16,138.16,0,0,1,13.47,3.17,32.58,32.58,0,0,1,3.21,1.73A51.8,51.8,0,0,1,70.94,150C73.4,152.44,74.91,154.55,74.55,155.33Z"/><path class="cls-2" d="M72.16,153.33c-.56,1.25-9.87-5-9.87-5s4.26,8.54,3,9.09c-1.51.68-6.74-8-6.74-8s-1.9,9.12-3.42,8.46c-1-.43-.74-9.27-.74-9.27s-8.9,2.41-9.59,1.42c-.92-1.34,8.66-6.09,8.66-6.09s-10.77-4.13-10.7-5.3c0-.34,1-.6,2.38-.76a138.16,138.16,0,0,1,13.47,3.17,32.58,32.58,0,0,1,3.21,1.73A51.8,51.8,0,0,1,70.94,150C72,151.32,72.52,152.49,72.16,153.33Z"/><path class="cls-6" d="M25.33,165.45c7.72,3.46,14.49-11.78,8-15C27.21,147.35,19.13,162.67,25.33,165.45Z"/><path class="cls-2" d="M275.07.52l-4.59,17.07-.7-.86-.33-.4s0-.43.06-1.15c.19-3.43.86-13.42,2.53-15a.69.69,0,0,1,.13-.11A.6.6,0,0,1,272.6,0l1.29.27Z"/><path class="cls-3" d="M275.07.52l-4.59,17.07-.7-.86-.33-.4s0-.43.06-1.15c.19-3.43.86-13.42,2.53-15a.69.69,0,0,1,.13-.11A.6.6,0,0,1,272.6,0l1.29.27Z"/><path class="cls-2" d="M273.89.28l-4.11,16.45-.33-.4s0-.43.06-1.15c.19-3.43.86-13.42,2.53-15a.69.69,0,0,1,.13-.11A.6.6,0,0,1,272.6,0Z"/><path class="cls-4" d="M304.83,44.07c-.22,18.5-15.89,33.32-35,33.09a35.15,35.15,0,0,1-18.33-5.35h0a33.24,33.24,0,0,1-15.86-28.57c.22-18.51,15.86-30.29,35-30.06a42.9,42.9,0,0,1,8.36.9C294,17.22,305,28.35,304.83,44.07Z"/><path class="cls-5" d="M304.83,44.07c-.22,18.5-15.89,33.32-35,33.09a35.15,35.15,0,0,1-18.33-5.35c10.45,2.2,28.88,3.42,39-11.53,11.8-17.44-4.67-38.61-11.54-46.2C294,17.22,305,28.35,304.83,44.07Z"/><path class="cls-2" d="M292.89,20.12c-.1,2.26-14.32-.94-14.32-.94s9.44,8.14,7.94,9.11-11.71-5.06-11.71-5.06.85,11.8-.4,12.53-6-12.49-6-12.49S257.21,31.08,256,30.32s7.1-11.95,7.1-11.95-15,.81-15-.93c0-.94,2.43-1.85,5.62-2.64a156.66,156.66,0,0,1,15.83-2.68,39.55,39.55,0,0,1,4.21.4C282.88,13.89,293,18.17,292.89,20.12Z"/><path class="cls-3" d="M292.89,20.12c-.1,2.26-14.32-.94-14.32-.94s9.44,8.14,7.94,9.11-11.71-5.06-11.71-5.06.85,11.8-.4,12.53-6-12.49-6-12.49S257.21,31.08,256,30.32s7.1-11.95,7.1-11.95-15,.81-15-.93c0-.94,2.43-1.85,5.62-2.64a156.66,156.66,0,0,1,15.83-2.68,39.55,39.55,0,0,1,4.21.4,60.17,60.17,0,0,1,12.91,3.53C290.37,17.55,292.93,19.13,292.89,20.12Z"/><path class="cls-2" d="M289.44,19.06c0,1.59-12.78-.84-12.78-.84s8.4,7.21,7.35,8.34c-1.32,1.41-10.8-5.46-10.8-5.46s2.08,10.6.16,10.58c-1.25,0-5-9.58-5-9.58s-8.43,6.59-9.6,5.84c-1.59-1,6.51-10.41,6.51-10.41s-13.38.43-13.83-.85c-.13-.37.76-1.08,2.2-1.88a156.66,156.66,0,0,1,15.83-2.68,39.55,39.55,0,0,1,4.21.4,60.17,60.17,0,0,1,12.91,3.53C288.34,17,289.45,18,289.44,19.06Z"/><path class="cls-6" d="M244.84,53.11c9.82.22,10.19-19.12,1.77-19.67C238.71,32.92,237,52.93,244.84,53.11Z"/><path class="cls-2" d="M559.91,410.61l-8.64,14.45-.42-1-.19-.44s.12-.39.35-1c1.06-3.09,4.26-12.06,6.19-13.06a.47.47,0,0,1,.15-.06.51.51,0,0,1,.42,0l1.11.57Z"/><path class="cls-3" d="M559.91,410.61l-8.64,14.45-.42-1-.19-.44s.12-.39.35-1c1.06-3.09,4.26-12.06,6.19-13.06a.47.47,0,0,1,.15-.06.51.51,0,0,1,.42,0l1.11.57Z"/><path class="cls-2" d="M558.88,410.08l-8,14-.19-.44s.12-.39.35-1c1.06-3.09,4.26-12.06,6.19-13.06a.47.47,0,0,1,.15-.06.51.51,0,0,1,.42,0Z"/><path class="cls-4" d="M575.88,458.23c-5,16.89-23.2,26.4-40.65,21.24a33.54,33.54,0,0,1-15.41-9.66h0a31.63,31.63,0,0,1-7.12-30.29c5-16.9,22.38-23.63,39.83-18.47a41.68,41.68,0,0,1,7.42,3C572.9,430.82,580.13,443.88,575.88,458.23Z"/><path class="cls-5" d="M575.88,458.23c-5,16.89-23.2,26.4-40.65,21.24a33.54,33.54,0,0,1-15.41-9.66c9,4.73,25.57,10.63,38.72-.45,15.33-12.92,5.73-36.58,1.4-45.32C572.9,430.82,580.13,443.88,575.88,458.23Z"/><path class="cls-2" d="M571.15,433.19c-.68,2.05-12.88-4.57-12.88-4.57s6.54,9.9,4.91,10.4-9.41-7.67-9.41-7.67-2.28,11-3.62,11.37-2.31-13-2.31-13S535.61,434,534.68,433s9.6-9.11,9.6-9.11-14-3.16-13.51-4.74c.27-.86,2.7-1.07,5.83-1a152.57,152.57,0,0,1,15.2,1.65,35.25,35.25,0,0,1,3.75,1.46C563.6,424.89,571.73,431.42,571.15,433.19Z"/><path class="cls-3" d="M571.15,433.19c-.68,2.05-12.88-4.57-12.88-4.57s6.54,9.9,4.91,10.4-9.41-7.67-9.41-7.67-2.28,11-3.62,11.37-2.31-13-2.31-13S535.61,434,534.68,433s9.6-9.11,9.6-9.11-14-3.16-13.51-4.74c.27-.86,2.7-1.07,5.83-1a152.57,152.57,0,0,1,15.2,1.65,35.25,35.25,0,0,1,3.75,1.46,57.17,57.17,0,0,1,10.92,6.58C569.5,430.18,571.44,432.29,571.15,433.19Z"/><path class="cls-2" d="M568.26,431.32c-.44,1.46-11.49-4.07-11.49-4.07s5.82,8.78,4.57,9.54c-1.57.95-8.47-7.8-8.47-7.8s-.85,10.25-2.61,9.73c-1.13-.34-2.07-10.06-2.07-10.06s-9.42,3.85-10.3,2.85c-1.2-1.34,8.66-7.84,8.66-7.84s-12.37-3.07-12.44-4.37c0-.37,1-.79,2.49-1.15a152.57,152.57,0,0,1,15.2,1.65,35.25,35.25,0,0,1,3.75,1.46,57.17,57.17,0,0,1,10.92,6.58C567.79,429.15,568.55,430.36,568.26,431.32Z"/><path class="cls-6" d="M518.58,451c8.93,2.75,14.28-14.87,6.71-17.56C518.19,430.87,511.41,448.76,518.58,451Z"/><path class="cls-7" d="M463.6,147.74l-2.85.48.15-.78.91-4.63s5.27-29.93,7.38-35.74c.24-.66.43-1,.58-1C473.87,107.1,463.6,147.74,463.6,147.74Z"/><path class="cls-2" d="M462.18,147.22l-1.28.22.91-4.63s5.27-29.93,7.38-35.74C470.44,114.54,462.18,147.22,462.18,147.22Z"/><path class="cls-7" d="M465.46,150l-.88-.72-1.69-1.38s13.52-43.55,18.4-48.15c.34-.33.64-.46.9-.37C484,100,465.46,150,465.46,150Z"/><path class="cls-2" d="M464.58,149.24l-1.69-1.38s13.52-43.55,18.4-48.15C480.72,105.64,466.1,145.13,464.58,149.24Z"/><path class="cls-7" d="M467.71,149.64l-.86-.89-1.15-1.19s15.08-33.76,19.93-38.77a1.94,1.94,0,0,1,.85-.61C489.4,111.06,467.71,149.64,467.71,149.64Z"/><path class="cls-2" d="M466.91,148.6l-1.15-1.19s15.08-33.77,19.93-38.78C485.57,115,469.19,144.51,466.91,148.6Z"/><path class="cls-8" d="M444.2,197.09a1.92,1.92,0,0,1,.07-.89,1.62,1.62,0,0,1,.36-.61,1.67,1.67,0,0,1,.59-.4,1.78,1.78,0,0,1,.88-.11,1.93,1.93,0,0,1-.06.89,1.78,1.78,0,0,1-.37.61,1.6,1.6,0,0,1-.58.39A1.83,1.83,0,0,1,444.2,197.09Z"/><path class="cls-8" d="M448,195.66a1.82,1.82,0,0,1,.23.86,1.74,1.74,0,0,1-.14.69,1.79,1.79,0,0,1-.43.57.58.58,0,1,1-1-.47,1.58,1.58,0,0,1,.15-.69,1.65,1.65,0,0,1,.43-.56A1.78,1.78,0,0,1,448,195.66Z"/><path class="cls-8" d="M449.5,196.25a1.88,1.88,0,0,1,.47.76,1.68,1.68,0,0,1,.06.7,1.6,1.6,0,0,1-.24.67,1.84,1.84,0,0,1-.65.61,1.94,1.94,0,0,1-.47-.76,1.7,1.7,0,0,1-.06-.7,1.75,1.75,0,0,1,.24-.67A1.93,1.93,0,0,1,449.5,196.25Z"/><path class="cls-9" d="M478.69,185.58c-6.55,12.09-21.87,14.28-32,10.57a21.93,21.93,0,0,1-3.24-1.52c-9.21-5.16-18.41-17.51-14.8-27.28,5.1-13.8,16.58-15.47,22.93-17.14s7.09-9.42,9.17-8.85c1.55.43,1.52,5.72,1.52,5.72s3-4.27,4.26-3.61.29,5.28.29,5.28.57-.62,1.32-1.32c1.11-1,2.62-2.23,3.25-1.77,1.05.78-1.89,6.18.71,10S485.25,173.48,478.69,185.58Z"/><path class="cls-6" d="M436.13,180.1c6.81,1.13,7.55-12.32,1.75-13.54C432.42,165.42,430.67,179.2,436.13,180.1Z"/><path class="cls-10" d="M478.69,185.58c-6.55,12.09-21.87,14.28-32,10.57a21.93,21.93,0,0,1-3.24-1.52c8.17.9,19.32-1,25.18-9.63,7.91-11.63,1.63-24.64-.27-28-1.12-2-.73-6.33-.22-9.57,1.11-1,2.62-2.23,3.25-1.77,1.05.78-1.89,6.18.71,10S485.25,173.48,478.69,185.58Z"/><path class="cls-7" d="M321.78,420.68l3.14.53-.17-.87-1-5.09s-5.79-32.92-8.12-39.32c-.26-.72-.47-1.1-.64-1.06C310.48,376,321.78,420.68,321.78,420.68Z"/><path class="cls-2" d="M323.34,420.11l1.41.23-1-5.09s-5.79-32.92-8.12-39.32C314.26,384.15,323.34,420.11,323.34,420.11Z"/><path class="cls-7" d="M319.74,423.11l1-.78,1.86-1.52s-14.88-47.91-20.25-53c-.38-.36-.71-.5-1-.4C299.29,368.19,319.74,423.11,319.74,423.11Z"/><path class="cls-2" d="M320.71,422.33l1.86-1.52s-14.88-47.91-20.25-53C303,374.37,319,417.8,320.71,422.33Z"/><path class="cls-7" d="M317.26,422.77l.94-1,1.27-1.31s-16.59-37.14-21.92-42.65a2.22,2.22,0,0,0-.94-.67C293.4,380.33,317.26,422.77,317.26,422.77Z"/><path class="cls-2" d="M318.14,421.62l1.27-1.31s-16.6-37.14-21.92-42.65C297.61,384.61,315.63,417.12,318.14,421.62Z"/><path class="cls-8" d="M343.11,475a1.91,1.91,0,0,0-.07-1,1.94,1.94,0,0,0-.39-.67,1.85,1.85,0,0,0-.65-.43,2,2,0,0,0-1-.13,2.16,2.16,0,0,0,.07,1,1.77,1.77,0,0,0,1,1.1A2,2,0,0,0,343.11,475Z"/><path class="cls-8" d="M339,473.39a2.07,2.07,0,0,0-.25.94,1.77,1.77,0,0,0,.16.77,1.73,1.73,0,0,0,.47.62,1.92,1.92,0,0,0,.87.43,1.84,1.84,0,0,0,.25-.94,1.64,1.64,0,0,0-.16-.77,1.82,1.82,0,0,0-.47-.62A1.92,1.92,0,0,0,339,473.39Z"/><path class="cls-8" d="M337.29,474a1.89,1.89,0,0,0-.51.83,1.75,1.75,0,0,0-.08.78,1.91,1.91,0,0,0,.27.73,2,2,0,0,0,.71.67,2,2,0,0,0,.52-.83,1.87,1.87,0,0,0-.91-2.18Z"/><path class="cls-9" d="M305.18,462.3c7.21,13.3,24.06,15.71,35.16,11.62a25.23,25.23,0,0,0,3.57-1.66c10.12-5.68,20.25-19.27,16.27-30-5.61-15.19-18.24-17-25.22-18.86s-7.8-10.36-10.09-9.73c-1.71.48-1.68,6.29-1.68,6.29s-3.27-4.7-4.68-4-.31,5.81-.31,5.81-.63-.69-1.46-1.45c-1.22-1.14-2.88-2.45-3.57-1.95-1.16.86,2.08,6.8-.78,11S298,449,305.18,462.3Z"/><path class="cls-6" d="M352,456.28c-7.5,1.23-8.31-13.56-1.92-14.9C356.07,440.12,358,455.29,352,456.28Z"/><path class="cls-10" d="M305.18,462.3c7.21,13.3,24.06,15.71,35.16,11.62a25.23,25.23,0,0,0,3.57-1.66c-9,1-21.26-1.12-27.71-10.6-8.7-12.79-1.79-27.1.3-30.8,1.23-2.18.81-7,.24-10.52-1.22-1.14-2.88-2.45-3.57-1.95-1.16.86,2.08,6.8-.78,11S298,449,305.18,462.3Z"/><path class="cls-7" d="M260,303.6l-2.85.48.16-.79.9-4.62s5.27-29.93,7.38-35.75c.24-.66.43-1,.58-1C270.22,263,260,303.6,260,303.6Z"/><path class="cls-2" d="M258.53,303.08l-1.27.21.9-4.62s5.27-29.93,7.38-35.75C266.79,270.39,258.53,303.08,258.53,303.08Z"/><path class="cls-7" d="M261.81,305.81l-.88-.71-1.69-1.38s13.52-43.56,18.4-48.16c.35-.33.65-.46.9-.36C280.4,255.88,261.81,305.81,261.81,305.81Z"/><path class="cls-2" d="M260.93,305.1l-1.69-1.38s13.52-43.56,18.4-48.16C277.07,261.5,262.45,301,260.93,305.1Z"/><path class="cls-7" d="M264.06,305.5l-.86-.89-1.15-1.19s15.09-33.76,19.93-38.78a2.19,2.19,0,0,1,.85-.61C285.76,266.92,264.06,305.5,264.06,305.5Z"/><path class="cls-2" d="M263.26,304.46l-1.15-1.19S277.19,269.5,282,264.49C281.92,270.81,265.54,300.37,263.26,304.46Z"/><path class="cls-8" d="M240.56,353a1.8,1.8,0,0,1,.06-.89,1.76,1.76,0,0,1,.36-.61,1.67,1.67,0,0,1,.59-.4,1.94,1.94,0,0,1,.88-.12,1.79,1.79,0,0,1-.06.89,1.67,1.67,0,0,1-.36.61,1.76,1.76,0,0,1-.59.4A1.94,1.94,0,0,1,240.56,353Z"/><path class="cls-8" d="M244.34,351.52a1.8,1.8,0,0,1,.22.86,1.74,1.74,0,0,1-.14.69,1.79,1.79,0,0,1-.43.57,1.87,1.87,0,0,1-.8.39,1.82,1.82,0,0,1-.22-.86,1.74,1.74,0,0,1,.14-.69,1.79,1.79,0,0,1,.43-.57A1.81,1.81,0,0,1,244.34,351.52Z"/><path class="cls-8" d="M245.85,352.11a1.75,1.75,0,0,1,.47.75,1.59,1.59,0,0,1,.06.71,1.4,1.4,0,0,1-.24.66.57.57,0,1,1-1.11-.14,1.56,1.56,0,0,1,.18-1.37A1.8,1.8,0,0,1,245.85,352.11Z"/><path class="cls-9" d="M275.05,341.43c-6.56,12.1-21.88,14.29-32,10.57a22.33,22.33,0,0,1-3.24-1.51c-9.2-5.16-18.41-17.51-14.8-27.28,5.11-13.81,16.58-15.47,22.93-17.15s7.09-9.41,9.17-8.84c1.56.43,1.53,5.72,1.53,5.72s3-4.28,4.25-3.61.29,5.28.29,5.28.57-.63,1.32-1.32c1.12-1,2.62-2.23,3.25-1.77,1.05.78-1.89,6.18.71,10S281.6,329.33,275.05,341.43Z"/><path class="cls-6" d="M232.48,336c6.82,1.12,7.56-12.32,1.75-13.54C228.78,321.28,227,335.06,232.48,336Z"/><path class="cls-10" d="M275.05,341.43c-6.56,12.1-21.88,14.29-32,10.57a22.33,22.33,0,0,1-3.24-1.51c8.17.9,19.32-1,25.18-9.63,7.91-11.64,1.63-24.64-.27-28-1.12-2-.73-6.32-.22-9.56,1.12-1,2.62-2.23,3.25-1.77,1.05.78-1.89,6.18.71,10S281.6,329.33,275.05,341.43Z"/><path class="cls-7" d="M154.54,59.2l3.38.57-.19-.94-1.07-5.49s-6.25-35.5-8.76-42.41c-.28-.78-.51-1.19-.69-1.15C142.35,11,154.54,59.2,154.54,59.2Z"/><path class="cls-2" d="M156.22,58.58l1.51.25-1.07-5.49s-6.25-35.5-8.76-42.41C146.42,19.8,156.22,58.58,156.22,58.58Z"/><path class="cls-7" d="M152.33,61.82l1-.85,2-1.63s-16-51.68-21.84-57.14c-.4-.39-.76-.54-1.06-.43C130.28,2.58,152.33,61.82,152.33,61.82Z"/><path class="cls-2" d="M153.38,61l2-1.63s-16-51.68-21.84-57.14C134.23,9.24,151.57,56.09,153.38,61Z"/><path class="cls-7" d="M149.66,61.45l1-1.05L152,59s-17.9-40.07-23.64-46a2.45,2.45,0,0,0-1-.73C123.92,15.68,149.66,61.45,149.66,61.45Z"/><path class="cls-2" d="M150.61,60.21,152,58.8s-17.89-40.06-23.64-46C128.46,20.3,147.9,55.36,150.61,60.21Z"/><path class="cls-8" d="M177.55,117.75a2.35,2.35,0,0,0-.08-1.06A2,2,0,0,0,177,116a1.88,1.88,0,0,0-.69-.47,2.23,2.23,0,0,0-1-.14,2.23,2.23,0,0,0,.07,1.06,2,2,0,0,0,.43.72,2.05,2.05,0,0,0,.7.47A2.19,2.19,0,0,0,177.55,117.75Z"/><path class="cls-8" d="M173.06,116.05a2.19,2.19,0,0,0-.27,1,1.86,1.86,0,0,0,.18.82,1.79,1.79,0,0,0,.5.67,2.06,2.06,0,0,0,.95.47,2.19,2.19,0,0,0,.27-1,1.86,1.86,0,0,0-.18-.82,2,2,0,0,0-.5-.67A2.28,2.28,0,0,0,173.06,116.05Z"/><path class="cls-8" d="M171.26,116.75a2.17,2.17,0,0,0-.55.9,2,2,0,0,0-.08.84,2,2,0,0,0,.29.78,2,2,0,0,0,.77.73,2.17,2.17,0,0,0,.55-.9,1.89,1.89,0,0,0-.21-1.62A2.18,2.18,0,0,0,171.26,116.75Z"/><path class="cls-9" d="M136.63,104.09c7.78,14.35,26,17,37.92,12.54a26.55,26.55,0,0,0,3.85-1.8c10.92-6.12,21.84-20.78,17.56-32.37-6.06-16.38-19.68-18.35-27.21-20.34S160.33,51,157.87,51.63c-1.85.51-1.81,6.78-1.81,6.78s-3.53-5.07-5.05-4.28-.34,6.27-.34,6.27-.68-.75-1.57-1.57c-1.32-1.23-3.11-2.65-3.86-2.1-1.24.92,2.25,7.33-.84,11.87S128.85,89.73,136.63,104.09Z"/><path class="cls-6" d="M187.12,97.59c-8.08,1.34-9-14.62-2.06-16.06C191.52,80.17,193.61,96.53,187.12,97.59Z"/><path class="cls-10" d="M136.63,104.09c7.78,14.35,26,17,37.92,12.54a26.55,26.55,0,0,0,3.85-1.8c-9.69,1.07-22.92-1.2-29.88-11.43-9.39-13.8-1.93-29.23.32-33.22,1.33-2.35.87-7.51.26-11.35-1.32-1.23-3.11-2.65-3.86-2.1-1.24.92,2.25,7.33-.84,11.87S128.85,89.73,136.63,104.09Z"/><path class="cls-7" d="M526.66,319,530,318l-.57-.77L526,312.75s-21-29.31-26.24-34.44c-.59-.58-1-.86-1.12-.74C494.81,280.74,526.66,319,526.66,319Z"/><path class="cls-2" d="M527.91,317.66l1.48-.43L526,312.75s-21-29.31-26.24-34.44C502.3,286.94,527.91,317.66,527.91,317.66Z"/><path class="cls-7" d="M525.81,322.27l.58-1.22,1.1-2.34s-36.83-39.65-44.42-42.06c-.53-.18-.92-.16-1.14.07C480.29,278.4,525.81,322.27,525.81,322.27Z"/><path class="cls-2" d="M526.39,321.05l1.1-2.34s-36.83-39.65-44.42-42.06C486.74,282.7,522.64,317.43,526.39,321.05Z"/><path class="cls-7" d="M523.24,323.08l.47-1.38.61-1.87s-33.47-28.37-41.22-31.24a2.3,2.3,0,0,0-1.23-.21C480.23,293,523.24,323.08,523.24,323.08Z"/><path class="cls-2" d="M523.56,321.56l.62-1.86S490.71,291.33,483,288.45C486.32,295.16,519,318.36,523.56,321.56Z"/><path class="cls-8" d="M572.75,361.77a2.23,2.23,0,0,0-.53-.92,2,2,0,0,0-.7-.46,1.89,1.89,0,0,0-.83-.13,2.25,2.25,0,0,0-1,.33,2.06,2.06,0,0,0,.52.92,1.81,1.81,0,0,0,.7.46,1.91,1.91,0,0,0,.83.13A2.33,2.33,0,0,0,572.75,361.77Z"/><path class="cls-8" d="M568,362.18a2.1,2.1,0,0,0,.2,1,1.89,1.89,0,0,0,.51.66,1.92,1.92,0,0,0,.75.39.68.68,0,1,0,.85-1,2,2,0,0,0-.51-.67,2,2,0,0,0-.75-.38A2.14,2.14,0,0,0,568,362.18Z"/><path class="cls-8" d="M566.65,363.59a2.12,2.12,0,0,0-.11,1.05,1.88,1.88,0,0,0,.29.79,2,2,0,0,0,.6.59,2.31,2.31,0,0,0,1,.32,2.12,2.12,0,0,0,.11-1,1.88,1.88,0,0,0-.29-.79,2.11,2.11,0,0,0-.6-.59A2.36,2.36,0,0,0,566.65,363.59Z"/><path class="cls-9" d="M529.94,367.16c13.23,9.58,30.74,4,39.62-5.1a25.58,25.58,0,0,0,2.69-3.29c7.2-10.24,10.7-28.18,1.82-36.77-12.55-12.15-25.68-8-33.32-6.57s-12.43-6.43-14.36-4.75c-1.44,1.26,1.31,6.9,1.31,6.9s-5.38-3.05-6.41-1.68,2.41,5.8,2.41,5.8-.93-.38-2.1-.74c-1.72-.53-3.94-1-4.38-.22-.73,1.37,5.2,5.64,4.38,11.06S516.72,357.59,529.94,367.16Z"/><path class="cls-6" d="M572.66,339.46c-6.71,4.7-14.41-9.31-8.82-13.59C569.09,321.85,578,335.69,572.66,339.46Z"/><path class="cls-10" d="M529.94,367.16c13.23,9.58,30.74,4,39.62-5.1a25.58,25.58,0,0,0,2.69-3.29c-8.27,5.16-21.18,8.84-31.88,2.63C525.93,353,526,335.88,526.28,331.31c.18-2.69-2.47-7.14-4.68-10.35-1.72-.53-3.94-1-4.38-.22-.73,1.37,5.2,5.64,4.38,11.06S516.72,357.59,529.94,367.16Z"/><path class="cls-7" d="M27.93,272.09l3,.5-.16-.82L29.79,267s-5.48-31.14-7.67-37.2c-.25-.68-.46-1.05-.61-1C17.24,229.78,27.93,272.09,27.93,272.09Z"/><path class="cls-2" d="M29.41,271.55l1.33.22L29.79,267s-5.48-31.14-7.67-37.2C20.81,237.53,29.41,271.55,29.41,271.55Z"/><path class="cls-7" d="M26,274.39l.92-.75,1.75-1.43S14.6,226.88,9.52,222.09c-.36-.34-.67-.48-.94-.38C6.65,222.42,26,274.39,26,274.39Z"/><path class="cls-2" d="M26.92,273.64l1.75-1.43S14.6,226.88,9.52,222.09C10.12,228.27,25.33,269.36,26.92,273.64Z"/><path class="cls-7" d="M23.66,274.06l.89-.92,1.19-1.24S10,236.76,5,231.54a2,2,0,0,0-.88-.63C1.07,233.91,23.66,274.06,23.66,274.06Z"/><path class="cls-2" d="M24.49,273l1.2-1.24S10,236.6,4.94,231.38C5.06,238,22.11,268.72,24.49,273Z"/><path class="cls-8" d="M48.12,323.45a1.9,1.9,0,0,0-.07-.92,1.65,1.65,0,0,0-.38-.64,1.73,1.73,0,0,0-.6-.41,1.84,1.84,0,0,0-.92-.12,1.8,1.8,0,0,0,.06.92,1.75,1.75,0,0,0,1,1.05A2,2,0,0,0,48.12,323.45Z"/><path class="cls-8" d="M44.18,322a1.87,1.87,0,0,0-.23.9,1.72,1.72,0,0,0,.15.72,1.75,1.75,0,0,0,.44.59,2,2,0,0,0,.83.41,1.9,1.9,0,0,0,.24-.9,1.72,1.72,0,0,0-.15-.72,1.79,1.79,0,0,0-.45-.59A1.9,1.9,0,0,0,44.18,322Z"/><path class="cls-8" d="M42.61,322.58a1.79,1.79,0,0,0-.49.78,1.73,1.73,0,0,0-.07.74,1.65,1.65,0,0,0,.25.69,2,2,0,0,0,.68.64,2.11,2.11,0,0,0,.49-.79,1.88,1.88,0,0,0,.06-.74,1.75,1.75,0,0,0-.25-.69A2,2,0,0,0,42.61,322.58Z"/><path class="cls-9" d="M12.22,311.47c6.83,12.59,22.77,14.87,33.27,11a23.74,23.74,0,0,0,3.38-1.58c9.57-5.37,19.16-18.22,15.4-28.39C59,278.13,47,276.39,40.4,274.65s-7.38-9.8-9.55-9.2c-1.61.45-1.58,5.95-1.58,5.95s-3.1-4.45-4.43-3.76-.3,5.5-.3,5.5-.59-.65-1.38-1.38c-1.16-1.08-2.73-2.32-3.38-1.84-1.09.81,2,6.43-.74,10.41S5.4,298.87,12.22,311.47Z"/><path class="cls-6" d="M56.52,305.77c-7.09,1.17-7.86-12.83-1.81-14.09C60.38,290.49,62.21,304.83,56.52,305.77Z"/><path class="cls-10" d="M12.22,311.47c6.83,12.59,22.77,14.87,33.27,11a23.74,23.74,0,0,0,3.38-1.58c-8.51.94-20.11-1.05-26.22-10-8.23-12.11-1.69-25.65.29-29.15,1.16-2.06.76-6.58.22-10-1.16-1.08-2.73-2.32-3.38-1.84-1.09.81,2,6.43-.74,10.41S5.4,298.87,12.22,311.47Z"/><path class="cls-11" d="M280.84,183.6c-9.82,20.16-20.54,29-30.64,27.3a16.43,16.43,0,0,1-4.4-1.44c-11.33-5.52-13.89-17.55-2.64-40.66a118.75,118.75,0,0,1,15.63-23.59l.48-.57c1.68-2,3.39-3.86,5.1-5.62.17-.18.33-.35.5-.51,2.05-2.09,4.09-4,6.08-5.69l.54-.46a49.63,49.63,0,0,1,6.84-4.88l.08-.06.53-.29c3.11-1.71,5.83-2.49,7.89-2.06a4.27,4.27,0,0,1,.72.21,1.94,1.94,0,0,1,.36.15,2.21,2.21,0,0,1,.34.18,6.66,6.66,0,0,1,1.33,1,6.89,6.89,0,0,1,.57.63h0a14.3,14.3,0,0,1,2.64,7.35c0,.12,0,.25.05.37h0a42.4,42.4,0,0,1,.07,7.69l-.06.72a79.87,79.87,0,0,1-1.19,8.31l-.14.74c-.55,2.74-1.24,5.58-2,8.46l-.21.75c-.62,2.13-1.29,4.28-2,6.43h0c-.08.26-.18.52-.26.78A137,137,0,0,1,280.84,183.6Z"/><path class="cls-12" d="M284.91,132.91c-4.79-2.34-6.49-5.26-6.59-5.43l.62-.35c0,.05,3.39,5.78,14,7.47l-.12.7A27.92,27.92,0,0,1,284.91,132.91Z"/><path class="cls-12" d="M292.86,143.37a20.26,20.26,0,0,1-6.93-.88l-.67-.21a27.51,27.51,0,0,1-3.4-1.39,36.1,36.1,0,0,1-5.64-3.47l-.57-.43a46.85,46.85,0,0,1-4.7-4.18l.54-.45a45.63,45.63,0,0,0,4.64,4.11c.19.15.37.29.57.43a31.67,31.67,0,0,0,8.77,4.71l.68.21a19.57,19.57,0,0,0,6.77.83Z"/><path class="cls-12" d="M291.53,152.42a21.83,21.83,0,0,1-8.88-.5l-.68-.2a26.07,26.07,0,0,1-4.24-1.65,36,36,0,0,1-7.79-5.24l-.53-.46a44.14,44.14,0,0,1-5-5.35l.5-.52a40.68,40.68,0,0,0,5,5.31l.53.47a32.08,32.08,0,0,0,11.84,6.79l.68.18a21.17,21.17,0,0,0,8.77.43Z"/><path class="cls-12" d="M289.26,161.63a24.75,24.75,0,0,1-10.43-.53l-.69-.19a26.37,26.37,0,0,1-4.23-1.65,33.13,33.13,0,0,1-7.18-4.81q-1.2-1-2.22-2.1c-.18-.17-.34-.34-.5-.51a44.18,44.18,0,0,1-5.22-6.64l.48-.56a44.05,44.05,0,0,0,5.14,6.6c.16.17.32.34.5.51.7.73,1.47,1.46,2.3,2.18a30.13,30.13,0,0,0,11.23,6.33l.69.18a24.29,24.29,0,0,0,10.35.43Z"/><path class="cls-12" d="M270.28,166.73a33.48,33.48,0,0,1-7.19-4.82,43.1,43.1,0,0,1-8.61-10.35l.62-.34a42.43,42.43,0,0,0,8.47,10.17c5,4.35,13.17,9.05,23.67,6.67l.16.69A25.42,25.42,0,0,1,270.28,166.73Z"/><path class="cls-12" d="M266.27,175a33.46,33.46,0,0,1-7.19-4.81,43.11,43.11,0,0,1-8.61-10.36l.63-.34a41.87,41.87,0,0,0,8.47,10.18c5,4.35,13.17,9,23.66,6.67l.16.69A25.43,25.43,0,0,1,266.27,175Z"/><path class="cls-12" d="M263.07,181.52a32.79,32.79,0,0,1-7.18-4.82,43.1,43.1,0,0,1-8.61-10.35l.62-.34a42.43,42.43,0,0,0,8.47,10.17c5,4.36,13.17,9,23.67,6.68l.15.69A25.5,25.5,0,0,1,263.07,181.52Z"/><path class="cls-12" d="M287.55,125.27c-1.15,1-3.09,2.74-5.47,5.06l-.53.53c-1.65,1.62-3.49,3.51-5.42,5.61l-.48.52c-1.89,2.08-3.85,4.37-5.8,6.82l-.44.56c-1.71,2.17-3.4,4.47-5,6.87-.14.2-.27.4-.4.6-1.34,2-2.61,4.11-3.79,6.26l-.36.66a67.25,67.25,0,0,0-3.54,7.68c-.1.25-.19.5-.28.74-.53,1.44-1,2.88-1.39,4.33l.68.18c.36-1.32.78-2.63,1.25-3.93l.27-.74a66.73,66.73,0,0,1,3.52-7.72c.12-.22.24-.44.35-.66,1.17-2.15,2.45-4.25,3.79-6.29.13-.2.26-.4.4-.6,1.61-2.41,3.31-4.73,5-6.92l.44-.55c2-2.47,3.94-4.77,5.84-6.86l.48-.52c1.93-2.11,3.78-4,5.43-5.62.17-.18.35-.35.53-.52,2.5-2.44,4.49-4.21,5.59-5.15Z"/><path class="cls-12" d="M289.58,126.6c-.19.81-.82,3.41-1.88,7.15-.07.24-.13.48-.21.73-.66,2.32-1.48,5-2.44,8l-.23.71c-1,2.92-2.06,6.07-3.3,9.31-.09.24-.17.46-.27.7-1.15,3-2.41,6-3.79,9.06-.1.23-.21.47-.32.7-1.12,2.45-2.33,4.87-3.6,7.22-.13.23-.25.46-.38.68a82.58,82.58,0,0,1-4.83,7.78c-.15.22-.31.43-.46.64q-1.35,1.88-2.79,3.56l.52.48c1-1.2,2-2.47,3-3.81l.46-.65a85.19,85.19,0,0,0,4.82-7.81l.38-.68c1.27-2.35,2.47-4.78,3.59-7.23l.33-.7c1.37-3,2.63-6.07,3.78-9.05l.27-.71c1.23-3.23,2.33-6.37,3.28-9.28.08-.24.16-.48.23-.71,1-3,1.78-5.67,2.45-8l.21-.74c.9-3.18,1.49-5.55,1.77-6.7Z"/><path class="cls-7" d="M249.18,215c-1.89.26-10.17-3.77-10.18-5a2.09,2.09,0,0,1,.1-.53,23.49,23.49,0,0,1,2.23-4.24L251,210S251.08,214.78,249.18,215Z"/><path class="cls-2" d="M248.37,213.49c-1.51.2-7.07-2.31-9.27-3.94a23.49,23.49,0,0,1,2.23-4.24l8.84,4.3C250.05,211,249.66,213.31,248.37,213.49Z"/><path class="cls-13" d="M280.84,183.6c-9.82,20.16-20.54,29-30.64,27.3.27-.29.55-.57.83-.86,39-40.19,37.08-75.81,35.8-85a4.27,4.27,0,0,1,.72.21,1.94,1.94,0,0,1,.36.15,2.21,2.21,0,0,1,.34.18,6.66,6.66,0,0,1,1.33,1,6.89,6.89,0,0,1,.57.63h0a14.3,14.3,0,0,1,2.64,7.35c0,.12,0,.25.05.37h0a42.4,42.4,0,0,1,.07,7.69l-.06.72a79.87,79.87,0,0,1-1.19,8.31l-.14.74c-.55,2.74-1.24,5.58-2,8.46l-.21.75c-.62,2.13-1.29,4.28-2,6.43h0c-.08.26-.18.52-.26.78A137,137,0,0,1,280.84,183.6Z"/><path class="cls-7" d="M246.56,209.83a13.5,13.5,0,0,1-2.1-1.87c-10.5-11.66,20.3-28.52,38-33.63,1.39-.4,2.7-.73,3.9-1C273.17,210.9,256.84,217.32,246.56,209.83Z"/><path class="cls-2" d="M244.46,208c-10.5-11.66,20.3-28.52,38-33.63C269.76,208.28,254.46,214.55,244.46,208Z"/><path class="cls-7" d="M242.86,208.14a6.57,6.57,0,0,1-1.19-.81c-19.35-14.07,2.78-45.77,7.64-54.14a10,10,0,0,0,.89-1.78C266.51,177.19,252.58,212.41,242.86,208.14Z"/><path class="cls-2" d="M241.67,207.33c-19.35-14.07,1.8-44.12,6.66-52.5C260.85,178.76,252.13,209.74,241.67,207.33Z"/><path class="cls-14" d="M273.22,140.87c3.48,2.64,15.85-6.65,11.37-10.65C279.34,125.53,269.25,137.87,273.22,140.87Z"/><path class="cls-11" d="M420.31,435.25c-11.8,14.49-14.74,25.71-9.89,32.73a13.68,13.68,0,0,0,2.63,2.82c8.14,6.63,18.13,4.35,31.66-12.26a98.74,98.74,0,0,0,12.35-20.08l.26-.56c.9-2,1.73-3.92,2.46-5.83l.21-.55c.86-2.29,1.59-4.5,2.17-6.6.06-.19.11-.38.16-.57a42,42,0,0,0,1.29-6.87s0-.06,0-.09l0-.5c.2-2.95-.16-5.28-1.21-6.69a3.63,3.63,0,0,0-.41-.47l-.24-.22-.25-.19a5.49,5.49,0,0,0-1.22-.65,5.25,5.25,0,0,0-.67-.22h0a12,12,0,0,0-6.48.58l-.29.09h0a35.28,35.28,0,0,0-5.83,2.65l-.53.29a69.73,69.73,0,0,0-5.86,3.81l-.51.37c-1.88,1.38-3.78,2.89-5.67,4.52l-.5.42c-1.39,1.21-2.78,2.48-4.15,3.79h0l-.5.48A115.3,115.3,0,0,0,420.31,435.25Z"/><path class="cls-12" d="M457.2,414.4a12.63,12.63,0,0,0,6.41,3.08l.05-.59c-.05,0-5.56-.53-10.55-7.93l-.49.33A23.42,23.42,0,0,0,457.2,414.4Z"/><path class="cls-12" d="M446.5,412.06a17,17,0,0,0,3.1,4.93l.39.43a23.11,23.11,0,0,0,2.24,2.09,29.68,29.68,0,0,0,4.6,3l.53.28a37.5,37.5,0,0,0,4.8,2.09c.06-.19.11-.38.16-.57a37.28,37.28,0,0,1-4.74-2.06l-.52-.28a26.24,26.24,0,0,1-6.64-5l-.39-.43a16.29,16.29,0,0,1-3-4.83Z"/><path class="cls-12" d="M440.13,416.24a18.12,18.12,0,0,0,3.49,6.53c.13.15.25.3.39.45a21.8,21.8,0,0,0,2.73,2.63,30.22,30.22,0,0,0,6.7,4l.53.24a35.7,35.7,0,0,0,5.81,1.93c.07-.18.14-.37.22-.55a35.43,35.43,0,0,1-5.76-1.91l-.54-.23a26.84,26.84,0,0,1-9.28-6.58l-.38-.45a17.44,17.44,0,0,1-3.4-6.48Z"/><path class="cls-12" d="M434,421.18a20.81,20.81,0,0,0,4.06,7.71l.38.45a23.13,23.13,0,0,0,2.73,2.62,27.74,27.74,0,0,0,6.16,3.74c.8.36,1.59.67,2.36.94.19.08.38.14.57.2a37.91,37.91,0,0,0,6.84,1.62l.26-.56a36.62,36.62,0,0,1-6.79-1.57l-.56-.2c-.8-.28-1.63-.6-2.46-1a25.14,25.14,0,0,1-8.71-6.28l-.39-.45a20.34,20.34,0,0,1-4-7.67Z"/><path class="cls-12" d="M436.77,437.32a27.1,27.1,0,0,0,6.15,3.74,35.7,35.7,0,0,0,10.85,2.88l0-.59a35.28,35.28,0,0,1-10.66-2.83c-5-2.26-11.45-6.79-13.34-15.55l-.58.12A21.23,21.23,0,0,0,436.77,437.32Z"/><path class="cls-12" d="M432,443.23a27.8,27.8,0,0,0,6.16,3.75A36.34,36.34,0,0,0,449,449.86l0-.59a35.51,35.51,0,0,1-10.67-2.84c-5-2.25-11.45-6.78-13.34-15.55l-.57.13A21.19,21.19,0,0,0,432,443.23Z"/><path class="cls-12" d="M428.11,448a27.37,27.37,0,0,0,6.16,3.74,35.63,35.63,0,0,0,10.85,2.88l0-.59a35,35,0,0,1-10.67-2.83c-5-2.26-11.45-6.79-13.34-15.55l-.57.12A21.18,21.18,0,0,0,428.11,448Z"/><path class="cls-12" d="M462,409.73c-.35,1.23-1,3.3-1.9,5.91l-.21.59c-.65,1.81-1.43,3.86-2.35,6.06l-.22.54c-.91,2.16-1.95,4.45-3.12,6.78l-.27.53c-1,2.05-2.19,4.14-3.44,6.19l-.31.51c-1.06,1.72-2.2,3.42-3.4,5.06l-.38.5a57.55,57.55,0,0,1-4.56,5.38l-.47.47c-.89.9-1.82,1.76-2.78,2.56l-.38-.45c.87-.73,1.72-1.51,2.54-2.32l.46-.47a53.85,53.85,0,0,0,4.6-5.36c.13-.17.25-.34.38-.5,1.21-1.64,2.35-3.34,3.42-5.07l.32-.51c1.26-2.07,2.41-4.16,3.47-6.23l.26-.52c1.17-2.35,2.22-4.65,3.13-6.83.08-.18.16-.36.23-.54.92-2.2,1.7-4.26,2.35-6.07.07-.2.14-.4.2-.59,1-2.74,1.61-4.87,1.94-6Z"/><path class="cls-12" d="M460.33,408.67c-.55.42-2.29,1.81-4.74,3.92l-.48.41c-1.53,1.32-3.29,2.89-5.2,4.66l-.45.42c-1.87,1.75-3.87,3.68-5.89,5.75l-.43.45c-1.85,1.92-3.72,3.94-5.52,6l-.41.49c-1.46,1.71-2.87,3.47-4.2,5.26l-.38.52a67,67,0,0,0-4.18,6.38c-.12.19-.22.38-.33.58-.63,1.11-1.2,2.23-1.71,3.35l-.55-.23c.55-1.19,1.16-2.39,1.84-3.58l.33-.58a69.41,69.41,0,0,1,4.21-6.38l.39-.52c1.33-1.79,2.74-3.55,4.2-5.26l.41-.49c1.81-2.1,3.67-4.12,5.52-6l.44-.45c2-2.07,4-4,5.87-5.74l.45-.42c1.9-1.77,3.66-3.33,5.18-4.65l.49-.41c2.09-1.8,3.67-3.08,4.44-3.7Z"/><path class="cls-7" d="M407.64,470.2c.47,1.53,6.42,6.37,7.32,6a1.69,1.69,0,0,0,.37-.26,19.65,19.65,0,0,0,2.42-3.17l-7-5.68S407.17,468.68,407.64,470.2Z"/><path class="cls-2" d="M409.1,470.28c.38,1.21,4.23,4.53,6.23,5.62a19.65,19.65,0,0,0,2.42-3.17l-6.35-5.17C410.37,468.14,408.78,469.23,409.1,470.28Z"/><path class="cls-13" d="M420.31,435.25c-11.8,14.49-14.74,25.71-9.89,32.73q.18-.45.36-.93c16.72-43.53,44.3-54.6,51.67-56.85a3.63,3.63,0,0,0-.41-.47l-.24-.22-.25-.19a5.49,5.49,0,0,0-1.22-.65,5.25,5.25,0,0,0-.67-.22h0a12,12,0,0,0-6.48.58l-.29.09h0a35.28,35.28,0,0,0-5.83,2.65l-.53.29a69.73,69.73,0,0,0-5.86,3.81l-.51.37c-1.88,1.38-3.78,2.89-5.67,4.52l-.5.42c-1.39,1.21-2.78,2.48-4.15,3.79h0l-.5.48A115.3,115.3,0,0,0,420.31,435.25Z"/><path class="cls-7" d="M412.5,470.36a11.75,11.75,0,0,0,2.15.93c12.5,3.85,14.44-25.34,12.1-40.51-.18-1.19-.39-2.3-.63-3.29C402.36,450.62,403.24,465.21,412.5,470.36Z"/><path class="cls-2" d="M414.65,471.29c12.5,3.85,14.44-25.34,12.1-40.51C405.54,452.28,406.16,466.05,414.65,471.29Z"/><path class="cls-7" d="M415.08,472.57a5.08,5.08,0,0,0,1,.61c17.42,9.69,33.61-18.15,38.24-24.76a7.65,7.65,0,0,1,1-1.29C430.18,443.84,408.44,466.71,415.08,472.57Z"/><path class="cls-2" d="M416.11,473.18c17.42,9.69,32.71-16.83,37.34-23.44C431,448.66,410.62,466.11,416.11,473.18Z"/><path class="cls-14" d="M455.27,426c-3.2-1.7-.52-14.31,4.07-12.33C464.73,416,458.94,428,455.27,426Z"/><path class="cls-11" d="M523,193.27c-9.89,20.6-10.19,34.78-2.41,41.75a16.67,16.67,0,0,0,3.93,2.6c11.59,5.57,22.81,0,34.16-23.62a121.34,121.34,0,0,0,9-27.42c.05-.25.1-.49.14-.74.52-2.6.94-5.15,1.27-7.63l.09-.73c.37-3,.61-5.8.7-8.46,0-.24,0-.48,0-.72a51.58,51.58,0,0,0-.42-8.55s0-.07,0-.1l-.09-.61c-.6-3.57-1.7-6.24-3.35-7.61a4.14,4.14,0,0,0-.62-.44,3.12,3.12,0,0,0-.35-.2l-.36-.15a6.1,6.1,0,0,0-1.64-.43,8.09,8.09,0,0,0-.86-.07h0a14.78,14.78,0,0,0-7.55,2.54l-.32.2h0a42.8,42.8,0,0,0-6.18,4.82l-.54.5a82.49,82.49,0,0,0-5.89,6.2l-.5.59c-1.84,2.17-3.67,4.52-5.46,7l-.46.65c-1.32,1.83-2.61,3.74-3.86,5.69h0l-.46.71A142,142,0,0,0,523,193.27Z"/><path class="cls-12" d="M560.94,157.92c4.9,2.36,8.31,1.86,8.51,1.83l-.11-.71c-.07,0-6.76,1-14.82-6.43l-.48.53A28.11,28.11,0,0,0,560.94,157.92Z"/><path class="cls-12" d="M547.55,158.2a20.69,20.69,0,0,0,5.09,5c.19.14.39.28.59.4a27.78,27.78,0,0,0,3.26,1.85,36.63,36.63,0,0,0,6.34,2.3l.71.19a47.57,47.57,0,0,0,6.31,1.11c0-.24,0-.48,0-.72a46.34,46.34,0,0,1-6.22-1.1L563,167a32.33,32.33,0,0,1-9.32-4l-.59-.41a19.94,19.94,0,0,1-4.95-4.88Z"/><path class="cls-12" d="M541.16,165a22.25,22.25,0,0,0,6,6.77c.2.14.39.29.59.42a27.52,27.52,0,0,0,4,2.35,37,37,0,0,0,9.12,2.9l.7.13a44.38,44.38,0,0,0,7.47.65c0-.25.06-.49.1-.73a42.51,42.51,0,0,1-7.4-.62l-.71-.12a32.94,32.94,0,0,1-12.92-5.17l-.58-.43a21.65,21.65,0,0,1-5.89-6.74Z"/><path class="cls-12" d="M535.24,172.63a25.46,25.46,0,0,0,7,8l.59.43a26.7,26.7,0,0,0,4,2.33,33.7,33.7,0,0,0,8.4,2.7c1,.2,2.08.34,3.08.45l.73.07a45.35,45.35,0,0,0,8.6,0c.05-.25.1-.49.14-.74a44.93,44.93,0,0,1-8.52.07l-.73-.07c-1-.11-2.1-.26-3.19-.46a30.81,30.81,0,0,1-12.17-5c-.19-.13-.39-.28-.58-.43a24.78,24.78,0,0,1-6.9-8Z"/><path class="cls-12" d="M543.18,191a34.12,34.12,0,0,0,8.4,2.7,43.89,43.89,0,0,0,13.72.32l-.12-.71a43,43,0,0,1-13.49-.33c-6.65-1.24-15.57-4.8-20.31-14.69l-.65.32A26,26,0,0,0,543.18,191Z"/><path class="cls-12" d="M539.14,199.43a34.25,34.25,0,0,0,8.4,2.7,43.89,43.89,0,0,0,13.72.32l-.12-.71a43,43,0,0,1-13.49-.33c-6.65-1.24-15.56-4.8-20.31-14.69l-.65.32A26,26,0,0,0,539.14,199.43Z"/><path class="cls-12" d="M535.92,206.14a33.65,33.65,0,0,0,8.4,2.69,44.08,44.08,0,0,0,13.72.33l-.12-.71a43.35,43.35,0,0,1-13.49-.33c-6.65-1.24-15.56-4.8-20.31-14.69l-.65.31A25.94,25.94,0,0,0,535.92,206.14Z"/><path class="cls-12" d="M565.37,151c-.07,1.55-.23,4.2-.58,7.57,0,.24-.06.5-.08.75-.26,2.35-.6,5-1.06,7.89,0,.23-.08.47-.11.71-.47,2.83-1,5.84-1.78,9,0,.23-.11.47-.17.7-.65,2.74-1.42,5.55-2.32,8.35-.07.24-.15.47-.22.7-.77,2.35-1.64,4.69-2.61,7l-.3.7a69.37,69.37,0,0,1-3.89,7.7l-.42.69q-1.22,2-2.58,3.85l-.58-.43c.83-1.12,1.61-2.29,2.36-3.49.14-.23.28-.46.41-.69a64.69,64.69,0,0,0,3.94-7.69c.11-.23.21-.47.31-.7,1-2.3,1.85-4.65,2.63-7,.07-.24.15-.47.22-.7.91-2.82,1.69-5.65,2.35-8.41.06-.23.11-.46.16-.69.73-3.13,1.32-6.17,1.78-9,0-.23.08-.47.12-.7.46-2.89.8-5.56,1-7.9,0-.26.06-.51.08-.76.37-3.53.52-6.25.58-7.72Z"/><path class="cls-12" d="M563,150.21c-.52.66-2.2,2.81-4.52,6l-.45.63c-1.44,2-3.09,4.37-4.85,7q-.21.3-.42.63c-1.73,2.61-3.54,5.49-5.35,8.52l-.39.66c-1.65,2.81-3.3,5.75-4.84,8.76l-.35.7c-1.25,2.45-2.42,4.95-3.49,7.46-.11.24-.21.48-.31.72a84.48,84.48,0,0,0-3.15,8.79c-.08.26-.16.51-.22.78-.43,1.5-.79,3-1.09,4.47l-.71-.11c.31-1.57.7-3.18,1.16-4.79.08-.26.15-.52.23-.77a84.21,84.21,0,0,1,3.19-8.8c.1-.25.2-.49.31-.74,1.07-2.5,2.25-5,3.49-7.44l.36-.71c1.55-3,3.18-5.94,4.84-8.75l.39-.66c1.81-3,3.62-5.89,5.34-8.5l.42-.64c1.75-2.64,3.41-5,4.84-7l.45-.64c2-2.73,3.5-4.71,4.24-5.66Z"/><path class="cls-7" d="M517.93,238.46c1,1.67,9.45,5.73,10.4,5a1.91,1.91,0,0,0,.37-.41,24.35,24.35,0,0,0,2-4.47l-9.92-4.76S516.93,236.78,517.93,238.46Z"/><path class="cls-2" d="M519.69,238.12c.79,1.34,6.31,4.19,9,4.92a24.35,24.35,0,0,0,2-4.47l-9-4.33C520.58,235.23,519,237,519.69,238.12Z"/><path class="cls-13" d="M523,193.27c-9.89,20.6-10.19,34.78-2.41,41.75,0-.4.11-.8.16-1.21,7.46-56.55,37.1-77.6,45.23-82.38a4.14,4.14,0,0,0-.62-.44,3.12,3.12,0,0,0-.35-.2l-.36-.15a6.1,6.1,0,0,0-1.64-.43,8.09,8.09,0,0,0-.86-.07h0a14.78,14.78,0,0,0-7.55,2.54l-.32.2h0a42.8,42.8,0,0,0-6.18,4.82l-.54.5a82.49,82.49,0,0,0-5.89,6.2l-.5.59c-1.84,2.17-3.67,4.52-5.46,7l-.46.65c-1.32,1.83-2.61,3.74-3.86,5.69h0l-.46.71A142,142,0,0,0,523,193.27Z"/><path class="cls-7" d="M523.76,237.25a14,14,0,0,0,2.81.5c16,1,9.95-34.27,2.83-51.65-.56-1.36-1.13-2.62-1.69-3.73C506.05,216.67,511.26,233.77,523.76,237.25Z"/><path class="cls-2" d="M526.57,237.75c16,1,9.95-34.27,2.83-51.65C510.31,217.74,515,233.93,526.57,237.75Z"/><path class="cls-7" d="M527.45,239.14a6.32,6.32,0,0,0,1.4.44c23.49,6.56,34.8-31.19,38.42-40.38a9.15,9.15,0,0,1,.86-1.83C537.2,200.66,517.89,234.07,527.45,239.14Z"/><path class="cls-2" d="M528.85,239.58c23.49,6.56,34.11-29.37,37.73-38.55C539.53,206.17,520.3,232.74,528.85,239.58Z"/><path class="cls-14" d="M562,172.31c-4.3-1.12-4.71-16.88,1.32-15.83C570.36,157.71,566.89,173.58,562,172.31Z"/><path class="cls-15" d="M120.33,179.58s-2.41-17.31,4.38-22.36c5.47-4.06,11.62-2.28,14.69-3.44s5.48-9.93,13.58-11.19c8.76-1.37,13.82,5,16.45,5s7.91-1.35,11,.22c6.8,3.51,8.58,12.06,8.67,18S120.33,179.58,120.33,179.58Z"/><path class="cls-16" d="M199,197.41c0,23.1-18.73,36.3-41.83,36.3s-41.83-13.2-41.83-36.3a41.83,41.83,0,0,1,83.66,0Z"/><path class="cls-15" d="M157.25,233.22a1.09,1.09,0,0,1-2.15-.07c-.82-6.27-2.06-26.55,14.11-37.37,19.29-12.91,15.35-39,24.11-38.55,4.72.43-2.52,13.37,0,18.45.87,1.75,1.32,10.48-3.07,13.11s-7.67,3.6-9,5.85-.66,10.15-6.8,13.77c-4.91,2.89-13.44,6.22-14.47,8.88C156.36,226.74,157.64,231,157.25,233.22Z"/><g class="cls-17"><path class="cls-18" d="M138.66,214.29c.2-1.2.44-2.3.7-3.43s.55-2.24.86-3.34c.61-2.22,1.3-4.41,2.09-6.56s1.67-4.28,2.64-6.36a63.18,63.18,0,0,1,3.24-6.08,53.38,53.38,0,0,1,3.94-5.65,45.64,45.64,0,0,1,4.72-5,37.48,37.48,0,0,1,5.57-4,33.57,33.57,0,0,1,6.27-2.74.3.3,0,0,1,.37.19.29.29,0,0,1-.17.36h0a33,33,0,0,0-6,3,37.16,37.16,0,0,0-5.18,4.18,43.3,43.3,0,0,0-4.31,5.06,49.82,49.82,0,0,0-3.52,5.65,60,60,0,0,0-2.83,6c-.84,2.06-1.59,4.16-2.24,6.28s-1.23,4.27-1.71,6.44c-.24,1.08-.46,2.17-.66,3.26s-.37,2.2-.49,3.23v0a1.67,1.67,0,0,1-3.31-.38S138.66,214.32,138.66,214.29Z"/><path class="cls-18" d="M147,191.55a9.07,9.07,0,0,1,.74-.54l.7-.46.72-.42.72-.39c.48-.25,1-.49,1.46-.72s1-.45,1.48-.65,1-.41,1.5-.59l1.51-.55c1-.32,2-.67,3.06-.94,2-.6,4.11-1.06,6.19-1.49l3.12-.56,3.14-.46a.4.4,0,0,1,.14.78h0l-3.07.65-3.05.75c-2,.55-4,1.12-6,1.83-1,.33-1.95.73-2.91,1.1l-1.42.62c-.48.21-.94.44-1.4.66s-.91.47-1.37.7-.89.5-1.32.76l-.64.4-.62.42-.6.44a6.4,6.4,0,0,0-.5.42h0a1.18,1.18,0,0,1-1.64-1.71Z"/><path class="cls-18" d="M146.05,172.59c.61,1.38,1.17,2.78,1.68,4.19s1,2.86,1.4,4.32a35.25,35.25,0,0,1,1,4.5,14.76,14.76,0,0,1,0,4.83,1.19,1.19,0,1,1-2.33-.45l0-.11h0a12.91,12.91,0,0,0,.34-4.08,33.7,33.7,0,0,0-.54-4.33c-.27-1.45-.6-2.89-1-4.32s-.81-2.86-1.29-4.25h0a.39.39,0,0,1,.25-.5A.4.4,0,0,1,146.05,172.59Z"/><path class="cls-18" d="M137.26,181.26c1.05,2,2,4,2.86,6.05s1.65,4.15,2.31,6.29a42.81,42.81,0,0,1,1.55,6.6,26,26,0,0,1,.29,3.44,19.11,19.11,0,0,1-.27,3.52,1.18,1.18,0,1,1-2.33-.42.13.13,0,0,1,0-.06h0a15.45,15.45,0,0,0,.41-3.06,22.72,22.72,0,0,0-.07-3.19,41.83,41.83,0,0,0-1.11-6.4c-.52-2.11-1.17-4.21-1.9-6.28s-1.54-4.13-2.45-6.12h0a.4.4,0,0,1,.71-.35Z"/><path class="cls-18" d="M141.54,208.11c.33-.31.62-.56.94-.82s.62-.51.94-.75q1-.72,2-1.38a32.14,32.14,0,0,1,4.17-2.33,26.3,26.3,0,0,1,4.47-1.64l1.16-.28c.39-.08.78-.13,1.17-.2l.59-.09.59-.05,1.18-.09a.39.39,0,0,1,.1.78h0l-1.12.18-.56.09-.55.14-1.1.28-1.07.36a24.64,24.64,0,0,0-4.1,1.91,31.34,31.34,0,0,0-3.73,2.53c-.59.47-1.17,1-1.72,1.45-.28.25-.55.51-.82.77s-.53.53-.75.78h0a1.19,1.19,0,0,1-1.76-1.59A.23.23,0,0,1,141.54,208.11Z"/></g><path class="cls-15" d="M156.28,226.71s-11.21-13.51-24.18-20.42a15.49,15.49,0,0,1-8.16-13.09c-.29-8.08.58-15.3-3.24-16.23-5.41-1.33-9.64,3.27-9.64,11.82,0,7,4.87,6.89,4.31,12.28s0,13.59,4.08,16.44c10.37,7.24,15.75,2.59,23.89,4.16,7,1.35,11.7,8.83,12.75,8.4S156.28,226.71,156.28,226.71Z"/><path class="cls-6" d="M130.65,175.25c3.19,4.33,17.66-5.53,13.62-10.42C140.47,160.25,127.14,170.49,130.65,175.25Z"/><path class="cls-15" d="M359.13,39.48s2.76-14.4,9.51-16.57c5.44-1.75,9.84,1.32,12.59,1.23s7-6.4,13.8-5.22c7.32,1.28,9.62,7.69,11.71,8.4s6.64,1.05,8.64,3.12c4.44,4.62,3.55,11.89,2,16.61S359.13,39.48,359.13,39.48Z"/><path class="cls-16" d="M416.8,74.85c-6.23,18.33-24.66,23.76-43,17.53s-29.64-21.75-23.42-40.09A35.07,35.07,0,0,1,416.8,74.85Z"/><path class="cls-15" d="M374,92a.91.91,0,0,1-1.69-.63c1-5.2,5.52-21.63,21.28-25.86,18.79-5,22.69-26.81,29.53-24.1,3.62,1.62-5.61,9.94-5,14.65.21,1.63-1.79,8.68-6,9.58s-7.06.79-8.71,2.22-3.26,7.88-9.1,9.1c-4.68,1-12.35,1.31-13.88,3.14C375,86.63,374.88,90.39,374,92Z"/><g class="cls-17"><path class="cls-18" d="M364.33,72c.48-.9,1-1.7,1.48-2.53s1-1.63,1.58-2.43q1.62-2.39,3.43-4.64c1.21-1.5,2.48-2.95,3.81-4.33a50.69,50.69,0,0,1,4.21-3.95,44.56,44.56,0,0,1,4.65-3.43,37.65,37.65,0,0,1,5.1-2.7,31.27,31.27,0,0,1,5.5-1.71,28.25,28.25,0,0,1,5.73-.48.25.25,0,0,1,0,.49h0a27.87,27.87,0,0,0-5.54.75A31,31,0,0,0,389,48.93a36.65,36.65,0,0,0-4.79,2.85,44.42,44.42,0,0,0-4.32,3.54,49,49,0,0,0-3.87,4c-1.22,1.4-2.38,2.87-3.47,4.38s-2.12,3.06-3.09,4.65c-.48.79-.95,1.6-1.4,2.41s-.89,1.64-1.26,2.43v0A1.4,1.4,0,0,1,364.29,72Z"/><path class="cls-18" d="M377,56.16c.3-.11.5-.17.74-.24l.68-.17.68-.14.68-.11q.68-.11,1.35-.18l1.36-.12c.45,0,.9-.06,1.34-.07l1.35,0c.9,0,1.79,0,2.68.07,1.78.08,3.55.28,5.32.49l2.63.4,2.61.48a.32.32,0,0,1,.26.39.32.32,0,0,1-.36.26h0l-2.62-.31-2.62-.23c-1.74-.1-3.49-.19-5.23-.15-.88,0-1.74.05-2.61.09l-1.29.1c-.44,0-.86.1-1.29.15s-.85.13-1.28.19-.84.15-1.25.25l-.62.14-.6.17c-.2,0-.4.12-.59.18a4.78,4.78,0,0,0-.52.2h0a1,1,0,0,1-1.32-.48,1,1,0,0,1,.48-1.32Z"/><path class="cls-18" d="M381.43,40.86c.12,1.27.18,2.52.21,3.79s0,2.53-.06,3.8a29.56,29.56,0,0,1-.44,3.83,12.44,12.44,0,0,1-1.31,3.83,1,1,0,0,1-1.73-1l0-.08h0a11.06,11.06,0,0,0,1.37-3.14,30.29,30.29,0,0,0,.74-3.58c.17-1.22.3-2.46.38-3.7s.13-2.48.12-3.72h0a.33.33,0,0,1,.33-.33A.32.32,0,0,1,381.43,40.86Z"/><path class="cls-18" d="M372.12,45.38c.3,1.85.5,3.7.64,5.57s.19,3.73.14,5.62a36,36,0,0,1-.55,5.65,21.23,21.23,0,0,1-.7,2.8,15.17,15.17,0,0,1-1.17,2.73,1,1,0,1,1-1.73-1l0-.05h0a14.31,14.31,0,0,0,1.15-2.32,18.41,18.41,0,0,0,.8-2.55,35.67,35.67,0,0,0,.85-5.38c.16-1.82.21-3.66.19-5.5s-.12-3.69-.31-5.52h0a.33.33,0,0,1,.3-.36A.34.34,0,0,1,372.12,45.38Z"/><path class="cls-18" d="M368.28,67.84c.34-.16.64-.28,1-.4l.95-.34c.64-.21,1.28-.4,1.93-.57a27.73,27.73,0,0,1,3.93-.73,22.15,22.15,0,0,1,4-.09l1,.09c.33,0,.65.11,1,.16l.49.08.49.12,1,.25a.34.34,0,0,1,.24.4.35.35,0,0,1-.38.25h0l-.94-.16-.47-.07-.47,0c-.32,0-.63-.06-1-.07H380a21.63,21.63,0,0,0-3.76.41,27,27,0,0,0-3.65,1c-.59.22-1.18.44-1.76.69l-.85.39c-.28.13-.57.28-.81.42h0a1,1,0,1,1-1-1.73Z"/></g><path class="cls-15" d="M375,86.58s-5.25-13.75-13.68-22.73a13,13,0,0,1-2.95-12.59c1.94-6.49,4.58-12,1.81-13.76-3.95-2.51-8.54,0-10.84,6.78-1.89,5.56,2,6.79.11,10.92s-3.67,10.78-1.2,14.14c6.27,8.55,11.8,6.31,17.84,9.75,5.2,3,6.91,10.16,7.86,10.11S375,86.58,375,86.58Z"/><path class="cls-6" d="M368.49,38.82c1.36,4.3,15.51.37,13.62-4.59C380.33,29.56,367,34.09,368.49,38.82Z"/><path class="cls-15" d="M24.48,406S21,381,30.81,373.73c7.9-5.87,16.77-3.3,21.21-5s7.91-14.33,19.61-16.16c12.65-2,20,7.21,23.75,7.21s11.42-2,15.82.31c9.82,5.07,12.39,17.41,12.53,26S24.48,406,24.48,406Z"/><path class="cls-16" d="M138.12,431.76c0,33.35-27,52.41-60.4,52.41s-60.39-19.06-60.39-52.41a60.4,60.4,0,1,1,120.79,0Z"/><path class="cls-15" d="M77.79,483.46a1.57,1.57,0,0,1-3.1-.1c-1.19-9.06-3-38.33,20.37-54,27.85-18.63,22.16-56.3,34.82-55.67,6.8.64-3.64,19.31,0,26.65,1.25,2.53,1.9,15.13-4.43,18.93s-11.08,5.19-13,8.45-1,14.66-9.81,19.88c-7.09,4.18-19.41,9-20.89,12.82C76.5,474.11,78.36,480.32,77.79,483.46Z"/><g class="cls-17"><path class="cls-18" d="M51,456.14c.29-1.74.64-3.32,1-5s.79-3.23,1.24-4.83q1.32-4.8,3-9.47c1.14-3.11,2.41-6.18,3.81-9.18a87.7,87.7,0,0,1,4.68-8.77,75.38,75.38,0,0,1,5.68-8.17,64.84,64.84,0,0,1,6.83-7.23,53.2,53.2,0,0,1,8-5.83,48,48,0,0,1,9.07-4,.42.42,0,0,1,.28.8h0A46.59,46.59,0,0,0,86,398.84a52.93,52.93,0,0,0-7.48,6,63,63,0,0,0-6.23,7.31,76,76,0,0,0-5.08,8.15,87.16,87.16,0,0,0-4.08,8.7c-1.22,3-2.29,6-3.24,9.07s-1.77,6.17-2.46,9.3c-.35,1.56-.66,3.13-1,4.7s-.54,3.18-.71,4.67v0a2.41,2.41,0,0,1-4.78-.55A.6.6,0,0,0,51,456.14Z"/><path class="cls-18" d="M62.92,423.3c.41-.34.71-.54,1.06-.79l1-.65,1-.61,1-.56c.7-.37,1.4-.71,2.11-1.05s1.42-.65,2.14-.93,1.43-.6,2.16-.86l2.18-.79c1.47-.47,2.93-1,4.41-1.36,3-.87,6-1.52,8.94-2.15l4.51-.81,4.53-.66a.57.57,0,0,1,.2,1.12h0l-4.44.94-4.4,1.08c-2.91.8-5.8,1.63-8.63,2.65-1.42.48-2.8,1.05-4.2,1.59l-2,.89c-.68.3-1.34.64-2,.95s-1.31.68-2,1-1.29.72-1.91,1.1l-.93.57-.89.61-.86.63a9,9,0,0,0-.73.61h0a1.71,1.71,0,0,1-2.37-2.47A.39.39,0,0,1,62.92,423.3Z"/><path class="cls-18" d="M61.62,395.92c.89,2,1.68,4,2.43,6.05s1.42,4.12,2,6.24a51.23,51.23,0,0,1,1.4,6.49,21.79,21.79,0,0,1,0,7,1.71,1.71,0,0,1-3.36-.65.94.94,0,0,1,0-.16h0a18.79,18.79,0,0,0,.49-5.89,48.07,48.07,0,0,0-.78-6.25c-.39-2.08-.87-4.17-1.42-6.23s-1.17-4.13-1.86-6.14h0a.56.56,0,0,1,.35-.73A.57.57,0,0,1,61.62,395.92Z"/><path class="cls-18" d="M48.93,408.44c1.52,2.86,2.87,5.76,4.12,8.73s2.39,6,3.35,9.09a63.06,63.06,0,0,1,2.23,9.52,37.15,37.15,0,0,1,.41,5,26.63,26.63,0,0,1-.38,5.09,1.71,1.71,0,1,1-3.37-.61.29.29,0,0,1,0-.09h0a23,23,0,0,0,.6-4.43,35.31,35.31,0,0,0-.11-4.59,60.17,60.17,0,0,0-1.6-9.24c-.75-3.06-1.69-6.09-2.74-9.08s-2.23-6-3.55-8.83h0a.56.56,0,0,1,.28-.76A.58.58,0,0,1,48.93,408.44Z"/><path class="cls-18" d="M55.11,447.2c.47-.44.89-.8,1.35-1.18s.9-.73,1.36-1.08c.92-.7,1.86-1.36,2.82-2a48.49,48.49,0,0,1,6-3.36,37.29,37.29,0,0,1,6.46-2.36l1.67-.41c.57-.11,1.14-.19,1.7-.29l.85-.13.85-.07,1.71-.13a.56.56,0,0,1,.61.52.57.57,0,0,1-.47.61H80l-1.62.27-.8.13-.8.2c-.53.14-1.06.26-1.58.41l-1.55.52a35.75,35.75,0,0,0-5.92,2.75,44.8,44.8,0,0,0-5.39,3.66c-.85.67-1.69,1.37-2.48,2.1-.41.36-.8.73-1.18,1.1s-.77.77-1.09,1.12l0,0a1.71,1.71,0,1,1-2.54-2.3Z"/></g><path class="cls-15" d="M76.39,474.07s-16.18-19.52-34.91-29.49a22.35,22.35,0,0,1-11.78-18.9c-.43-11.66.83-22.09-4.68-23.44C17.2,400.32,11.1,407,11.1,419.3c0,10.1,7,10,6.23,17.74s0,19.62,5.88,23.74c15,10.46,22.74,3.74,34.5,6,10.12,1.95,16.9,12.74,18.41,12.13S76.39,474.07,76.39,474.07Z"/><path class="cls-6" d="M39.38,399.76c4.6,6.26,25.5-8,19.66-15C53.57,378.1,34.32,392.88,39.38,399.76Z"/><path class="cls-2" d="M66.32,56.4a3.79,3.79,0,0,1-2.15.6l-.52.26C50,64.28,45.51,78.65,42.78,88a.06.06,0,0,1,0,0c-.7,2.4-1.28,4.47-1.88,6a6,6,0,0,1-1.54,2.58c-2.49,1.91-10.88-.41-17.3-2.85l-.91-.35c-3.52-1.39-6.28-2.74-6.87-3.33C12.62,88.46,24.67,66.93,24.55,61a56.24,56.24,0,0,0-8.26-28.09l-3.62-6.8,6.23-.85s12.88,19.2,13.34,32c1.15-4.44,9-24.4,9-24.4l17.19,5.86s-6.16,8.26-11.72,23.46c2.09-3.06,7.6-8.12,11-9.43,1.68-.64,3.14-1.07,4-1.3l.75-.2S68.05,54.9,66.32,56.4Z"/><path class="cls-7" d="M66.32,56.4a3.79,3.79,0,0,1-2.15.6l-.52.26C52.58,63,46.6,76.55,42.78,88a.06.06,0,0,1,0,0c-.69,2.09-1.31,4.11-1.88,6a6,6,0,0,1-1.54,2.58c-2.49,1.91-10.88-.41-17.3-2.85l-.91-.35C45.07,79,52.68,62.07,57.7,52.7c1.2-2.25,1.87-3.58,1.87-3.58l2.11,2.28Z"/><path class="cls-19" d="M39.8,31.85a8.09,8.09,0,0,1-11.26,9.94A16.18,16.18,0,1,1,14.37,15.26a9.27,9.27,0,0,1,.38-1.51A9.15,9.15,0,0,1,29.28,9.7l0,0a9.21,9.21,0,0,1,3.08,5.4A9.14,9.14,0,0,1,39.8,31.85Z"/><path class="cls-20" d="M36.68,26.48A8.08,8.08,0,0,1,25.42,36.4a16.19,16.19,0,0,1-24.53.22A16.18,16.18,0,0,1,14.37,15.26a9.27,9.27,0,0,1,.38-1.51A9.15,9.15,0,0,1,29.28,9.7s0,0,0,.06l0,0a9.21,9.21,0,0,1,3.08,5.4,9.13,9.13,0,0,1,9.39,1.43,9.13,9.13,0,0,1-5.12,9.91Z"/><path class="cls-19" d="M78,36.81a8.82,8.82,0,0,1-11.19,5.5l-.3-.1A17.24,17.24,0,0,1,34.84,28.78a17,17,0,0,1,.83-2A13,13,0,1,1,57.11,12.1,13,13,0,1,1,76.86,28.88a8.86,8.86,0,0,1,1.54,6.27A9.11,9.11,0,0,1,78,36.81Z"/><path class="cls-20" d="M78.4,35.15A8.85,8.85,0,0,1,71,36l-.3-.11A17.25,17.25,0,0,1,39,22.43a18,18,0,0,1,.83-2A13,13,0,0,1,37.65,8.83,13,13,0,0,1,57.11,12.1,13,13,0,1,1,76.86,28.88,8.86,8.86,0,0,1,78.4,35.15Z"/><path class="cls-19" d="M96.36,53.12a13.42,13.42,0,0,1-13,9.08,11.34,11.34,0,1,1-21.91-1.71.78.78,0,0,0,0-.14A14.55,14.55,0,1,1,77.94,36.68,13.4,13.4,0,0,1,96.36,53.12Z"/><path class="cls-20" d="M96.36,53.12a13.35,13.35,0,0,1-3,5l-4,2.83a13.3,13.3,0,0,1-6,1.28,11.37,11.37,0,0,1-2.62,9.4,11.34,11.34,0,0,1-13.4-14.69,1.21,1.21,0,0,1,.05-.14,14.54,14.54,0,0,1-3.69-23.26,14.55,14.55,0,0,1,14.26,3.17A13.4,13.4,0,0,1,96.36,53.12Z"/><path class="cls-6" d="M22.7,84.15c4.77,1.62,11.72-16,7.54-17.4C26.36,65.43,18.77,82.81,22.7,84.15Z"/><path class="cls-2" d="M426.72,284.94a5.29,5.29,0,0,1-2,2.51l-.38.76c-9.83,19.68-2.81,40.07,2,53.23a.08.08,0,0,1,0,.05c1.22,3.36,2.31,6.25,2.92,8.53a8.7,8.7,0,0,1,.41,4.29c-1.26,4.32-12.92,8.76-22.4,11.38l-1.35.36c-5.24,1.39-9.57,2.16-10.75,2-3.33-.53-7.66-35.61-12.87-42.42A80.47,80.47,0,0,0,349,300.17l-10-4.79,6.48-6.27s31.15,11.27,42.54,25.65c-2.45-6.1-10.33-35.77-10.33-35.77l24.8-7.79s-.11,14.75,6.36,37c-.18-5.3,1.89-15.82,4.74-20.23,1.4-2.16,2.72-3.9,3.49-4.88l.71-.87S427.44,281.75,426.72,284.94Z"/><path class="cls-7" d="M426.72,284.94a5.29,5.29,0,0,1-2,2.51l-.38.76c-7.9,16-3.34,36.73,2,53.23a.08.08,0,0,1,0,.05c1,3,2,5.86,2.92,8.53a8.7,8.7,0,0,1,.41,4.29c-1.26,4.32-12.92,8.76-22.4,11.38l-1.35.36c15.34-37.05,9.82-63,7.67-78.07-.52-3.62-.87-5.72-.87-5.72l4.36.84Z"/><path class="cls-19" d="M375.29,279.08a11.58,11.58,0,0,1-4.59,21,23.18,23.18,0,1,1-38.84-18.63,13.34,13.34,0,0,1-.84-2A13.11,13.11,0,0,1,339.59,263a12.91,12.91,0,0,1,4.78-.57h.09a13.09,13.09,0,0,1,8.13,3.61,13.09,13.09,0,0,1,22.7,13.05Z"/><path class="cls-20" d="M367.13,275.51a11.59,11.59,0,0,1-4.59,21,23.19,23.19,0,0,1-28.15,21,23.19,23.19,0,0,1-2.53-36.1,13.34,13.34,0,0,1-.84-2A13.11,13.11,0,0,1,339.59,263a12.91,12.91,0,0,1,4.78-.57l.06,0,0,0a13.09,13.09,0,0,1,8.13,3.61,13.12,13.12,0,0,1,12.07-6.3,13.11,13.11,0,0,1,2.47,15.78Z"/><path class="cls-19" d="M423.61,252.42a12.62,12.62,0,0,1-8.26,15.84l-.43.13a24.71,24.71,0,0,1-48,11.34,25,25,0,0,1-.73-3,18.64,18.64,0,1,1,12.32-35.12,18.64,18.64,0,1,1,37,2.64,12.66,12.66,0,0,1,7.1,5.94A12.87,12.87,0,0,1,423.61,252.42Z"/><path class="cls-20" d="M422.66,250.17a12.63,12.63,0,0,1-7.89,7.22l-.43.13a24.71,24.71,0,0,1-48,11.35,25.7,25.7,0,0,1-.74-3A18.62,18.62,0,0,1,353.3,254.3a18.64,18.64,0,0,1,25.24-12.71,18.64,18.64,0,1,1,37,2.64A12.66,12.66,0,0,1,422.66,250.17Z"/><path class="cls-19" d="M458.65,255.7a19.25,19.25,0,0,1-7.35,21.52,16.25,16.25,0,1,1-26.76,16.59c0-.07,0-.14-.05-.2a20.85,20.85,0,1,1-1.06-41.29,19.2,19.2,0,0,1,35.22,3.38Z"/><path class="cls-20" d="M458.65,255.7a19.13,19.13,0,0,1,.71,8.29l-2.16,6.62a19.05,19.05,0,0,1-5.9,6.61,16.24,16.24,0,0,1,4.94,13.07,16.25,16.25,0,0,1-27.93-5.6l-.06-.2a20.85,20.85,0,0,1-24-23.74,20.87,20.87,0,0,1,19.16-8.43,19.2,19.2,0,0,1,35.22,3.38Z"/><path class="cls-6" d="M399.87,354c6.89-2.17,0-28.37-6-26.47C388.23,329.25,394.19,355.74,399.87,354Z"/><path class="cls-2" d="M550.27,44.63a3.65,3.65,0,0,1-1.33,1.69l-.26.5c-6.61,13.25-1.89,27,1.35,35.82,0,0,0,0,0,0,.82,2.27,1.55,4.21,2,5.75a6,6,0,0,1,.27,2.88c-.85,2.91-8.69,5.9-15.07,7.66l-.91.24a30.21,30.21,0,0,1-7.23,1.33c-2.25-.36-5.16-24-8.66-28.54A54.19,54.19,0,0,0,498,54.87l-6.7-3.22,4.36-4.22s21,7.59,28.62,17.26c-1.65-4.1-7-24.07-7-24.07L534,35.38s-.07,9.93,4.28,24.9c-.12-3.56,1.27-10.64,3.19-13.61.94-1.46,1.83-2.63,2.35-3.28l.47-.59S550.75,42.48,550.27,44.63Z"/><path class="cls-7" d="M550.27,44.63a3.65,3.65,0,0,1-1.33,1.69l-.26.5c-5.31,10.79-2.24,24.72,1.35,35.82,0,0,0,0,0,0,.65,2,1.33,4,2,5.75a6,6,0,0,1,.27,2.88c-.85,2.91-8.69,5.9-15.07,7.66l-.91.24c10.32-24.93,6.6-42.38,5.16-52.53-.35-2.44-.59-3.85-.59-3.85l2.94.57Z"/><path class="cls-19" d="M515.66,40.68a7.8,7.8,0,0,1-3.09,14.14,15.59,15.59,0,1,1-26.13-12.54,7.69,7.69,0,0,1-.57-1.38,8.81,8.81,0,0,1,5.77-11,8.47,8.47,0,0,1,3.21-.38h.06a8.79,8.79,0,0,1,5.47,2.43,8.82,8.82,0,0,1,4.91-3.85,8.69,8.69,0,0,1,3.21-.39,8.81,8.81,0,0,1,7.16,13Z"/><path class="cls-20" d="M510.17,38.28a7.8,7.8,0,0,1-3.09,14.14,15.6,15.6,0,0,1-18.94,14.15,15.6,15.6,0,0,1-1.7-24.29,7.69,7.69,0,0,1-.57-1.38,8.81,8.81,0,0,1,5.77-11,8.47,8.47,0,0,1,3.21-.38l0,0s0,0,0,0a8.79,8.79,0,0,1,5.47,2.43,8.82,8.82,0,0,1,4.91-3.85,8.69,8.69,0,0,1,3.21-.39,8.68,8.68,0,0,1,2.34,3.75A8.78,8.78,0,0,1,510.17,38.28Z"/><path class="cls-19" d="M548.18,22.74a8.51,8.51,0,0,1-5.57,10.66l-.29.09a16.62,16.62,0,0,1-32.27,7.63,18.21,18.21,0,0,1-.5-2,12.54,12.54,0,1,1,8.29-23.63,12.55,12.55,0,1,1,24.92,1.77,8.59,8.59,0,0,1,5.42,5.51Z"/><path class="cls-20" d="M547.53,21.23a8.51,8.51,0,0,1-5.3,4.86l-.29.08a16.62,16.62,0,0,1-32.77,5.6A12.53,12.53,0,0,1,500.86,24a12.53,12.53,0,0,1,17-8.55,12.55,12.55,0,1,1,24.92,1.77A8.46,8.46,0,0,1,547.53,21.23Z"/><path class="cls-19" d="M571.75,25a12.95,12.95,0,0,1-4.94,14.48,10.94,10.94,0,1,1-18,11.16.65.65,0,0,0,0-.13,14,14,0,0,1-6.47-27.23,13.88,13.88,0,0,1,5.76-.55A12.92,12.92,0,0,1,571.75,25Z"/><path class="cls-20" d="M571.75,25a12.82,12.82,0,0,1,.48,5.57L570.78,35a12.92,12.92,0,0,1-4,4.45,11,11,0,0,1,3.32,8.8,10.94,10.94,0,0,1-18.79-3.77.74.74,0,0,1,0-.14,14,14,0,0,1-15.65-9.64,13.86,13.86,0,0,1-.49-6.33,14,14,0,0,1,12.89-5.67A12.92,12.92,0,0,1,571.75,25Z"/><path class="cls-6" d="M532.2,91.07c4.63-1.46,0-19.09-4.07-17.82C524.37,74.44,528.38,92.27,532.2,91.07Z"/><path class="cls-2" d="M184.42,432.92a3.19,3.19,0,0,0,1.2,1.52l.23.46c6,11.94,1.7,24.31-1.21,32.29a0,0,0,0,0,0,0c-.75,2-1.4,3.79-1.78,5.18a5.23,5.23,0,0,0-.24,2.6c.76,2.62,7.83,5.31,13.58,6.9l.83.22a26.9,26.9,0,0,0,6.51,1.2c2-.32,4.66-21.61,7.81-25.73a48.8,48.8,0,0,1,20.23-15.43l6-2.91-3.93-3.8s-18.89,6.83-25.8,15.56c1.48-3.7,6.26-21.7,6.26-21.7l-15-4.73s.07,8.95-3.85,22.45c.1-3.21-1.15-9.59-2.88-12.27-.85-1.31-1.65-2.37-2.12-3l-.42-.53S184,431,184.42,432.92Z"/><path class="cls-7" d="M184.42,432.92a3.19,3.19,0,0,0,1.2,1.52l.23.46c4.79,9.72,2,22.28-1.21,32.29a0,0,0,0,0,0,0c-.59,1.82-1.2,3.56-1.78,5.18a5.23,5.23,0,0,0-.24,2.6c.76,2.62,7.83,5.31,13.58,6.9l.83.22c-9.31-22.48-6-38.21-4.66-47.36.32-2.2.53-3.47.53-3.47l-2.65.51Z"/><path class="cls-19" d="M215.62,429.36a7,7,0,0,0,2.79,12.75A14.06,14.06,0,1,0,242,430.81a8.61,8.61,0,0,0,.51-1.25,7.93,7.93,0,0,0-5.2-10,7.61,7.61,0,0,0-2.9-.35h0a7.91,7.91,0,0,0-4.93,2.2A7.94,7.94,0,0,0,225,418a8.1,8.1,0,0,0-2.91-.35,7.95,7.95,0,0,0-6.45,11.74Z"/><path class="cls-20" d="M220.57,427.2a7,7,0,0,0,2.79,12.74,14.05,14.05,0,0,0,17.07,12.76A14,14,0,0,0,242,430.81a8.61,8.61,0,0,0,.51-1.25,7.93,7.93,0,0,0-5.2-10,7.61,7.61,0,0,0-2.9-.35l0,0,0,0a7.91,7.91,0,0,0-4.93,2.2A7.94,7.94,0,0,0,225,418a8.1,8.1,0,0,0-2.91-.35,7.95,7.95,0,0,0-1.5,9.58Z"/><path class="cls-19" d="M186.31,413.19a7.66,7.66,0,0,0,5,9.61l.26.07a15,15,0,0,0,29.55,5.05,11.31,11.31,0,1,0-7.48-21.3,11.31,11.31,0,1,0-22.46,1.6,7.68,7.68,0,0,0-4.31,3.6A7.9,7.9,0,0,0,186.31,413.19Z"/><path class="cls-20" d="M186.88,411.82a7.68,7.68,0,0,0,4.79,4.38l.26.08a15,15,0,0,0,29.1,6.88,17.43,17.43,0,0,0,.45-1.83,11.33,11.33,0,0,0,7.49-7,11.31,11.31,0,0,0-15.32-7.71,11.31,11.31,0,1,0-22.46,1.6A7.68,7.68,0,0,0,186.88,411.82Z"/><path class="cls-19" d="M165.05,415.18a11.5,11.5,0,0,0-.43,5,11.25,11.25,0,0,0,1.31,4,11.55,11.55,0,0,0,3.58,4,9.85,9.85,0,0,0-2.58,4.16,10,10,0,0,0-.42,3.77,9.86,9.86,0,0,0,19.23,2.14.65.65,0,0,1,0-.13,12.64,12.64,0,0,0,5.83-24.54,12.5,12.5,0,0,0-5.19-.5,11.65,11.65,0,0,0-21.37,2.05Z"/><path class="cls-20" d="M165.05,415.18a11.5,11.5,0,0,0-.43,5l1.31,4a11.55,11.55,0,0,0,3.58,4,9.85,9.85,0,0,0-2.58,4.16,10,10,0,0,0-.42,3.77,9.86,9.86,0,0,0,16.94-3.39.65.65,0,0,0,0-.13A12.66,12.66,0,0,0,198,418.24a12.64,12.64,0,0,0-11.62-5.11,11.65,11.65,0,0,0-21.37,2.05Z"/><path class="cls-6" d="M200.71,474.79c-4.18-1.31,0-17.21,3.67-16.06C207.77,459.8,204.15,475.87,200.71,474.79Z"/></g></g></g></svg>