<svg xmlns="http://www.w3.org/2000/svg" viewBox="0 0 50.84 56.67"><defs><style>.cls-1{isolation:isolate;}.cls-2{fill:#89c14d;}.cls-3{fill:#6ea02d;opacity:0.69;}.cls-4{fill:#f94a38;}.cls-5{fill:#dd352c;}.cls-6{fill:#fff;opacity:0.2;mix-blend-mode:screen;}</style></defs><g class="cls-1"><g id="Camada_2" data-name="Camada 2"><g id="_ÎÓÈ_1" data-name="—ÎÓÈ_1"><path class="cls-2" d="M29,.38,25.6,12.92l-.51-.63L24.85,12s0-.32,0-.85c.14-2.52.63-9.85,1.86-11l.09-.07A.41.41,0,0,1,27.16,0l.95.19Z"/><path class="cls-3" d="M29,.38,25.6,12.92l-.51-.63L24.85,12s0-.32,0-.85c.14-2.52.63-9.85,1.86-11l.09-.07A.41.41,0,0,1,27.16,0l.95.19Z"/><path class="cls-2" d="M28.11.2l-3,12.09L24.85,12s0-.32,0-.85c.14-2.52.63-9.85,1.86-11l.09-.07A.41.41,0,0,1,27.16,0Z"/><path class="cls-4" d="M50.83,32.37C50.67,46,39.16,56.84,25.12,56.67a25.9,25.9,0,0,1-13.46-3.93h0A24.45,24.45,0,0,1,0,31.75C.17,18.16,11.65,9.51,25.69,9.68a32.34,32.34,0,0,1,6.14.66C42.87,12.65,51,20.82,50.83,32.37Z"/><path class="cls-5" d="M50.83,32.37C50.67,46,39.16,56.84,25.12,56.67a25.9,25.9,0,0,1-13.46-3.93c7.67,1.61,21.21,2.51,28.64-8.47C49,31.46,36.87,15.92,31.83,10.34,42.87,12.65,51,20.82,50.83,32.37Z"/><path class="cls-2" d="M42.06,14.78c-.07,1.66-10.51-.7-10.51-.7s6.93,6,5.82,6.7-8.59-3.72-8.59-3.72.62,8.66-.3,9.2S24,17.09,24,17.09,15.86,22.83,15,22.27s5.21-8.78,5.21-8.78-11,.6-11-.68c0-.69,1.78-1.36,4.13-1.94a115.23,115.23,0,0,1,11.62-2A28.52,28.52,0,0,1,28,9.2C34.72,10.2,42.12,13.34,42.06,14.78Z"/><path class="cls-3" d="M42.06,14.78c-.07,1.66-10.51-.7-10.51-.7s6.93,6,5.82,6.7-8.59-3.72-8.59-3.72.62,8.66-.3,9.2S24,17.09,24,17.09,15.86,22.83,15,22.27s5.21-8.78,5.21-8.78-11,.6-11-.68c0-.69,1.78-1.36,4.13-1.94a115.23,115.23,0,0,1,11.62-2A28.52,28.52,0,0,1,28,9.2a44.23,44.23,0,0,1,9.49,2.58C40.21,12.89,42.09,14.05,42.06,14.78Z"/><path class="cls-2" d="M39.53,14c0,1.17-9.39-.62-9.39-.62s6.17,5.3,5.4,6.13c-1,1-7.93-4-7.93-4s1.53,7.79.11,7.78c-.91,0-3.64-7-3.64-7S17.89,21.07,17,20.52c-1.16-.75,4.79-7.65,4.79-7.65s-9.83.32-10.16-.62c-.09-.27.56-.79,1.62-1.38a115.23,115.23,0,0,1,11.62-2A28.52,28.52,0,0,1,28,9.2a44.23,44.23,0,0,1,9.49,2.58C38.72,12.48,39.54,13.22,39.53,14Z"/><path class="cls-6" d="M6.78,39c7.2.16,7.48-14,1.29-14.45C2.27,24.18,1,38.88,6.78,39Z"/></g></g></g></svg>