<svg xmlns="http://www.w3.org/2000/svg" viewBox="0 0 446.23 93.33"><g style="isolation:isolate"><g id="Layer_2" data-name="Layer 2"><g id="Layer_1-2" data-name="Layer 1"><path d="M8.7,93.32A8.7,8.7,0,0,1,0,84.62V8.7a8.71,8.71,0,0,1,17.41,0V84.62A8.7,8.7,0,0,1,8.7,93.32Z" style="fill:#fdc223"/><path d="M8.7,80.35A8.7,8.7,0,0,1,2.55,65.5L65.13,2.91A8.7,8.7,0,0,1,77.44,15.22L14.86,77.8A8.68,8.68,0,0,1,8.7,80.35Z" style="fill:#f99e1e"/><path d="M76.52,93.32a8.71,8.71,0,0,1-6.15-2.54L30,50.4a8.7,8.7,0,1,1,12.3-12.31L82.68,78.46a8.71,8.71,0,0,1-6.16,14.86Z" style="fill:#f16d25"/><g style="mix-blend-mode:soft-light"><path d="M36.11,50.89a6.65,6.65,0,1,1,6.64-6.65A6.64,6.64,0,0,1,36.11,50.89Z"/><path d="M36.11,40.24a4,4,0,1,1-4,4,4,4,0,0,1,4-4m0-2.64a6.65,6.65,0,1,0,6.64,6.64,6.64,6.64,0,0,0-6.64-6.64Z" style="fill:#fff"/></g><g style="mix-blend-mode:soft-light"><path d="M8.7,78.29a6.64,6.64,0,1,1,6.65-6.64A6.64,6.64,0,0,1,8.7,78.29Z"/><path d="M8.7,67.65a4,4,0,1,1-4,4,4,4,0,0,1,4-4M8.7,65a6.64,6.64,0,1,0,6.65,6.64A6.64,6.64,0,0,0,8.7,65Z" style="fill:#fff"/></g><path d="M180.8,58.74a8.7,8.7,0,0,1-8.71-8.7V8.7a8.71,8.71,0,0,1,17.41,0V50A8.7,8.7,0,0,1,180.8,58.74Z" style="fill:#0093bd"/><path d="M146.22,93.32a8.7,8.7,0,1,1,0-17.4A25.9,25.9,0,0,0,172.09,50a8.71,8.71,0,0,1,17.41,0A43.32,43.32,0,0,1,146.22,93.32Z" style="fill:#00aad3"/><path d="M146.22,93.32A43.32,43.32,0,0,1,102.94,50V8.7a8.7,8.7,0,0,1,17.4,0V50a25.91,25.91,0,0,0,25.88,25.88,8.7,8.7,0,0,1,0,17.4Z" style="fill:#79c5e5"/><g style="mix-blend-mode:soft-light"><path d="M146.22,91.26a6.64,6.64,0,1,1,6.64-6.64A6.64,6.64,0,0,1,146.22,91.26Z"/><path d="M146.22,80.62a4,4,0,1,1-4,4,4,4,0,0,1,4-4m0-2.64a6.64,6.64,0,1,0,6.64,6.64A6.64,6.64,0,0,0,146.22,78Z" style="fill:#fff"/></g><g style="mix-blend-mode:soft-light"><path d="M180.8,56.68A6.65,6.65,0,1,1,187.44,50,6.64,6.64,0,0,1,180.8,56.68Z"/><path d="M180.8,46a4,4,0,1,1-4,4,4,4,0,0,1,4-4m0-2.65A6.65,6.65,0,1,0,187.44,50a6.64,6.64,0,0,0-6.64-6.65Z" style="fill:#fff"/></g><path d="M266.15,93.33a8.71,8.71,0,0,1,0-17.41,10.28,10.28,0,1,0,0-20.55H255.43a8.71,8.71,0,0,1,0-17.41h10.72a27.69,27.69,0,0,1,0,55.37Z" style="fill:#e9194f"/><path d="M255.43,55.37h-8.26a8.71,8.71,0,0,1,0-17.41h8.26a10.28,10.28,0,1,0,0-20.55H215.91a8.71,8.71,0,0,1,0-17.41h39.52a27.69,27.69,0,0,1,0,55.37Z" style="fill:#ef416b"/><path d="M215.91,93.33a8.71,8.71,0,0,1-8.7-8.71V8.7a8.71,8.71,0,0,1,17.41,0V84.62A8.71,8.71,0,0,1,215.91,93.33Z" style="fill:#ee6c8f"/><path d="M266.15,93.33H215.91a8.71,8.71,0,0,1,0-17.41h50.24a8.71,8.71,0,0,1,0,17.41Z" style="fill:#e9194f"/><g style="mix-blend-mode:soft-light"><path d="M215.91,91.27a6.65,6.65,0,1,1,6.65-6.65A6.65,6.65,0,0,1,215.91,91.27Z"/><path d="M215.91,80.62a4,4,0,1,1-4,4,4,4,0,0,1,4-4m0-2.64a6.65,6.65,0,1,0,6.65,6.64A6.64,6.64,0,0,0,215.91,78Z" style="fill:#fff"/></g><g style="mix-blend-mode:soft-light"><path d="M215.91,15.35a6.65,6.65,0,1,1,6.65-6.65A6.65,6.65,0,0,1,215.91,15.35Z"/><path d="M215.91,4.7a4,4,0,1,1-4,4,4,4,0,0,1,4-4m0-2.64a6.65,6.65,0,1,0,6.65,6.64,6.65,6.65,0,0,0-6.65-6.64Z" style="fill:#fff"/></g><g style="mix-blend-mode:soft-light"><path d="M246.8,53.3a6.64,6.64,0,1,1,6.64-6.64A6.64,6.64,0,0,1,246.8,53.3Z"/><path d="M246.8,42.66a4,4,0,1,1-4,4,4,4,0,0,1,4-4m0-2.64a6.64,6.64,0,1,0,6.64,6.64A6.64,6.64,0,0,0,246.8,40Z" style="fill:#fff"/></g><path d="M333.28,93.33a8.71,8.71,0,0,1-8.71-8.71V8.7A8.71,8.71,0,0,1,342,8.7V84.62A8.71,8.71,0,0,1,333.28,93.33Z" style="fill:#fdc222"/><path d="M333.28,17.41H320.16a8.71,8.71,0,1,1,0-17.41h13.12a8.71,8.71,0,0,1,0,17.41Z" style="fill:#ef6d25"/><g style="mix-blend-mode:soft-light"><path d="M333.28,15.35a6.65,6.65,0,1,1,6.64-6.65A6.64,6.64,0,0,1,333.28,15.35Z"/><path d="M333.28,4.7a4,4,0,1,1-4,4,4,4,0,0,1,4-4m0-2.64a6.65,6.65,0,1,0,6.64,6.64,6.64,6.64,0,0,0-6.64-6.64Z" style="fill:#fff"/></g><path d="M402.91,93.32a8.7,8.7,0,0,1-8.7-8.7V8.7a8.71,8.71,0,0,1,17.41,0V84.62A8.7,8.7,0,0,1,402.91,93.32Z" style="fill:#79c5e5"/><path d="M437.52,17.41H402.91a8.71,8.71,0,0,1,0-17.41h34.61a8.71,8.71,0,1,1,0,17.41Z" style="fill:#0093bd"/><path d="M402.91,17.41h-34.6a8.71,8.71,0,1,1,0-17.41h34.6a8.71,8.71,0,1,1,0,17.41Z" style="fill:#00aad3"/><g style="mix-blend-mode:soft-light"><path d="M402.91,15.35a6.65,6.65,0,1,1,6.65-6.65A6.64,6.64,0,0,1,402.91,15.35Z"/><path d="M402.91,4.7a4,4,0,1,1-4,4,4,4,0,0,1,4-4m0-2.64a6.65,6.65,0,1,0,6.65,6.64,6.65,6.65,0,0,0-6.65-6.64Z" style="fill:#fff"/></g></g></g></g></svg>