<?xml version="1.0" encoding="utf-8"?>
<!-- Generator: Adobe Illustrator 24.3.0, SVG Export Plug-In . SVG Version: 6.00 Build 0)  -->
<svg version="1.1" id="Layer_1" xmlns="http://www.w3.org/2000/svg" xmlns:xlink="http://www.w3.org/1999/xlink" x="0px" y="0px"
	 viewBox="0 0 595.3 841.9" style="enable-background:new 0 0 595.3 841.9;" xml:space="preserve">
<style type="text/css">
	.st0{fill:#FDC223;}
	.st1{fill:#F99E1E;}
	.st2{fill:#F16D25;}
	.st3{fill:#FFFFFF;}
	.st4{fill:#0093BD;}
	.st5{fill:#00AAD3;}
	.st6{fill:#79C5E5;}
	.st7{fill:#E9194F;}
	.st8{fill:#EF416B;}
	.st9{fill:#EE6C8F;}
	.st10{fill:#FDC222;}
	.st11{fill:#EF6D25;}
</style>
<g>
	<g>
		<g>
			<path class="st0" d="M84,467.9c-4.8,0-8.7-3.9-8.7-8.7v-75.9c0-4.8,3.9-8.7,8.7-8.7c4.8,0,8.7,3.9,8.7,8.7v75.9
				C92.7,464,88.8,467.9,84,467.9z"/>
			<path class="st1" d="M84,454.9c-2.2,0-4.5-0.8-6.2-2.6c-3.4-3.4-3.4-8.9,0-12.3l62.6-62.6c3.4-3.4,8.9-3.4,12.3,0
				c3.4,3.4,3.4,8.9,0,12.3l-62.6,62.6C88.5,454.1,86.2,454.9,84,454.9z"/>
			<path class="st2" d="M151.8,467.9c-2.2,0-4.5-0.8-6.2-2.5L105.3,425c-3.4-3.4-3.4-8.9,0-12.3c3.4-3.4,8.9-3.4,12.3,0L158,453
				c3.4,3.4,3.4,8.9,0,12.3C156.3,467.1,154.1,467.9,151.8,467.9z"/>
		</g>
		<g>
			<g>
				<path d="M111.4,425.5c-3.7,0-6.6-3-6.6-6.6c0-3.7,3-6.6,6.6-6.6c3.7,0,6.6,3,6.6,6.6C118.1,422.5,115.1,425.5,111.4,425.5z"/>
				<path class="st3" d="M111.4,414.8c2.2,0,4,1.8,4,4c0,2.2-1.8,4-4,4c-2.2,0-4-1.8-4-4C107.4,416.6,109.2,414.8,111.4,414.8
					 M111.4,412.2c-3.7,0-6.6,3-6.6,6.6c0,3.7,3,6.6,6.6,6.6c3.7,0,6.6-3,6.6-6.6C118.1,415.2,115.1,412.2,111.4,412.2L111.4,412.2z
					"/>
			</g>
			<g>
				<path d="M84,452.9c-3.7,0-6.6-3-6.6-6.6c0-3.7,3-6.6,6.6-6.6c3.7,0,6.6,3,6.6,6.6C90.7,449.9,87.7,452.9,84,452.9z"/>
				<path class="st3" d="M84,442.2c2.2,0,4,1.8,4,4c0,2.2-1.8,4-4,4c-2.2,0-4-1.8-4-4C80,444,81.8,442.2,84,442.2 M84,439.6
					c-3.7,0-6.6,3-6.6,6.6c0,3.7,3,6.6,6.6,6.6c3.7,0,6.6-3,6.6-6.6C90.7,442.6,87.7,439.6,84,439.6L84,439.6z"/>
			</g>
		</g>
	</g>
	<g>
		<g>
			<path class="st4" d="M256.1,433.3c-4.8,0-8.7-3.9-8.7-8.7v-41.3c0-4.8,3.9-8.7,8.7-8.7c4.8,0,8.7,3.9,8.7,8.7v41.3
				C264.8,429.4,260.9,433.3,256.1,433.3z"/>
			<path class="st5" d="M221.5,467.9c-4.8,0-8.7-3.9-8.7-8.7c0-4.8,3.9-8.7,8.7-8.7c14.3,0,25.9-11.6,25.9-25.9
				c0-4.8,3.9-8.7,8.7-8.7c4.8,0,8.7,3.9,8.7,8.7C264.8,448.5,245.4,467.9,221.5,467.9z"/>
			<path class="st6" d="M221.5,467.9c-23.9,0-43.3-19.4-43.3-43.3v-41.3c0-4.8,3.9-8.7,8.7-8.7c4.8,0,8.7,3.9,8.7,8.7v41.3
				c0,14.3,11.6,25.9,25.9,25.9c4.8,0,8.7,3.9,8.7,8.7C230.2,464,226.3,467.9,221.5,467.9z"/>
		</g>
		<g>
			<g>
				<g>
					<path d="M221.5,465.8c-3.7,0-6.6-3-6.6-6.6c0-3.7,3-6.6,6.6-6.6c3.7,0,6.6,3,6.6,6.6C228.2,462.9,225.2,465.8,221.5,465.8z"/>
					<path class="st3" d="M221.5,455.2c2.2,0,4,1.8,4,4c0,2.2-1.8,4-4,4c-2.2,0-4-1.8-4-4C217.5,457,219.3,455.2,221.5,455.2
						 M221.5,452.6c-3.7,0-6.6,3-6.6,6.6c0,3.7,3,6.6,6.6,6.6c3.7,0,6.6-3,6.6-6.6C228.2,455.5,225.2,452.6,221.5,452.6L221.5,452.6
						z"/>
				</g>
			</g>
			<g>
				<g>
					<path d="M256.1,431.3c-3.7,0-6.6-3-6.6-6.6c0-3.7,3-6.6,6.6-6.6c3.7,0,6.6,3,6.6,6.6C262.8,428.3,259.8,431.3,256.1,431.3z"/>
					<path class="st3" d="M256.1,420.6c2.2,0,4,1.8,4,4c0,2.2-1.8,4-4,4c-2.2,0-4-1.8-4-4C252.1,422.4,253.9,420.6,256.1,420.6
						 M256.1,418c-3.7,0-6.6,3-6.6,6.6c0,3.7,3,6.6,6.6,6.6c3.7,0,6.6-3,6.6-6.6C262.8,420.9,259.8,418,256.1,418L256.1,418z"/>
				</g>
			</g>
		</g>
	</g>
	<g>
		<g>
			<path class="st7" d="M341.5,467.9c-4.8,0-8.7-3.9-8.7-8.7c0-4.8,3.9-8.7,8.7-8.7c5.7,0,10.3-4.6,10.3-10.3
				c0-5.7-4.6-10.3-10.3-10.3l-10.7,0c-4.8,0-8.7-3.9-8.7-8.7c0-4.8,3.9-8.7,8.7-8.7h0l10.7,0c15.3,0,27.7,12.4,27.7,27.7
				C369.1,455.5,356.7,467.9,341.5,467.9z"/>
			<path class="st8" d="M330.7,429.9h-8.3c-4.8,0-8.7-3.9-8.7-8.7c0-4.8,3.9-8.7,8.7-8.7h8.3c5.7,0,10.3-4.6,10.3-10.3
				c0-5.7-4.6-10.3-10.3-10.3h-39.5c-4.8,0-8.7-3.9-8.7-8.7c0-4.8,3.9-8.7,8.7-8.7h39.5c15.3,0,27.7,12.4,27.7,27.7
				C358.4,417.5,346,429.9,330.7,429.9z"/>
			<path class="st9" d="M291.2,467.9c-4.8,0-8.7-3.9-8.7-8.7v-75.9c0-4.8,3.9-8.7,8.7-8.7c4.8,0,8.7,3.9,8.7,8.7v75.9
				C299.9,464,296,467.9,291.2,467.9z"/>
			<path class="st7" d="M341.5,467.9h-50.2c-4.8,0-8.7-3.9-8.7-8.7c0-4.8,3.9-8.7,8.7-8.7h50.2c4.8,0,8.7,3.9,8.7,8.7
				C350.2,464,346.3,467.9,341.5,467.9z"/>
		</g>
		<g>
			<g>
				<path d="M291.2,465.8c-3.7,0-6.6-3-6.6-6.6c0-3.7,3-6.6,6.6-6.6c3.7,0,6.6,3,6.6,6.6C297.9,462.9,294.9,465.8,291.2,465.8z"/>
				<path class="st3" d="M291.2,455.2c2.2,0,4,1.8,4,4c0,2.2-1.8,4-4,4c-2.2,0-4-1.8-4-4C287.2,457,289,455.2,291.2,455.2
					 M291.2,452.6c-3.7,0-6.6,3-6.6,6.6c0,3.7,3,6.6,6.6,6.6c3.7,0,6.6-3,6.6-6.6C297.9,455.5,294.9,452.6,291.2,452.6L291.2,452.6z
					"/>
			</g>
			<g>
				<path d="M291.2,389.9c-3.7,0-6.6-3-6.6-6.6c0-3.7,3-6.6,6.6-6.6c3.7,0,6.6,3,6.6,6.6C297.9,387,294.9,389.9,291.2,389.9z"/>
				<path class="st3" d="M291.2,379.3c2.2,0,4,1.8,4,4c0,2.2-1.8,4-4,4c-2.2,0-4-1.8-4-4C287.2,381.1,289,379.3,291.2,379.3
					 M291.2,376.6c-3.7,0-6.6,3-6.6,6.6c0,3.7,3,6.6,6.6,6.6c3.7,0,6.6-3,6.6-6.6C297.9,379.6,294.9,376.6,291.2,376.6L291.2,376.6z
					"/>
			</g>
			<g>
				<path d="M322.1,427.9c-3.7,0-6.6-3-6.6-6.6s3-6.6,6.6-6.6c3.7,0,6.6,3,6.6,6.6S325.8,427.9,322.1,427.9z"/>
				<path class="st3" d="M322.1,417.2c2.2,0,4,1.8,4,4c0,2.2-1.8,4-4,4c-2.2,0-4-1.8-4-4C318.1,419,319.9,417.2,322.1,417.2
					 M322.1,414.6c-3.7,0-6.6,3-6.6,6.6s3,6.6,6.6,6.6c3.7,0,6.6-3,6.6-6.6S325.8,414.6,322.1,414.6L322.1,414.6z"/>
			</g>
		</g>
	</g>
	<g>
		<g>
			<path class="st10" d="M408.6,467.9c-4.8,0-8.7-3.9-8.7-8.7v-75.9c0-4.8,3.9-8.7,8.7-8.7c4.8,0,8.7,3.9,8.7,8.7v75.9
				C417.3,464,413.4,467.9,408.6,467.9z"/>
			<path class="st11" d="M408.6,392h-13.1c-4.8,0-8.7-3.9-8.7-8.7c0-4.8,3.9-8.7,8.7-8.7h13.1c4.8,0,8.7,3.9,8.7,8.7
				C417.3,388.1,413.4,392,408.6,392z"/>
		</g>
		<g>
			<path d="M408.6,389.9c-3.7,0-6.6-3-6.6-6.6c0-3.7,3-6.6,6.6-6.6c3.7,0,6.6,3,6.6,6.6C415.2,386.9,412.3,389.9,408.6,389.9z"/>
			<path class="st3" d="M408.6,379.3c2.2,0,4,1.8,4,4s-1.8,4-4,4c-2.2,0-4-1.8-4-4S406.4,379.3,408.6,379.3 M408.6,376.6
				c-3.7,0-6.6,3-6.6,6.6c0,3.7,3,6.6,6.6,6.6c3.7,0,6.6-3,6.6-6.6C415.2,379.6,412.3,376.6,408.6,376.6L408.6,376.6z"/>
		</g>
	</g>
	<g>
		<g>
			<path class="st6" d="M478.2,467.9c-4.8,0-8.7-3.9-8.7-8.7v-75.9c0-4.8,3.9-8.7,8.7-8.7c4.8,0,8.7,3.9,8.7,8.7v75.9
				C486.9,464,483,467.9,478.2,467.9z"/>
			<path class="st4" d="M512.8,392h-34.6c-4.8,0-8.7-3.9-8.7-8.7c0-4.8,3.9-8.7,8.7-8.7h34.6c4.8,0,8.7,3.9,8.7,8.7
				C521.5,388.1,517.6,392,512.8,392z"/>
			<path class="st5" d="M478.2,392h-34.6c-4.8,0-8.7-3.9-8.7-8.7c0-4.8,3.9-8.7,8.7-8.7h34.6c4.8,0,8.7,3.9,8.7,8.7
				C486.9,388.1,483,392,478.2,392z"/>
		</g>
		<g>
			<g>
				<path d="M478.2,389.9c-3.7,0-6.6-3-6.6-6.6c0-3.7,3-6.6,6.6-6.6c3.7,0,6.6,3,6.6,6.6C484.9,387,481.9,389.9,478.2,389.9z"/>
				<path class="st3" d="M478.2,379.3c2.2,0,4,1.8,4,4c0,2.2-1.8,4-4,4c-2.2,0-4-1.8-4-4C474.2,381.1,476,379.3,478.2,379.3
					 M478.2,376.6c-3.7,0-6.6,3-6.6,6.6c0,3.7,3,6.6,6.6,6.6c3.7,0,6.6-3,6.6-6.6C484.9,379.6,481.9,376.6,478.2,376.6L478.2,376.6z
					"/>
			</g>
		</g>
	</g>
</g>
<g>
</g>
<g>
</g>
<g>
</g>
<g>
</g>
<g>
</g>
<g>
</g>
</svg>
